<svg width="55" height="60" viewBox="0 0 55 60" fill="none" xmlns="http://www.w3.org/2000/svg">
<path d="M35.979 59.9972C35.3499 59.7365 34.6663 59.7497 34.01 59.5903C29.35 58.4545 25.787 55.8319 23.321 51.7226C23.2272 51.5735 23.1288 51.431 23.0322 51.2857C22.9553 51.1075 22.885 50.9256 22.7997 50.7521C21.7213 48.5817 21.133 46.2009 21.0763 43.778C21.0388 42.2084 21.2507 40.6717 21.5751 39.1443L22.4387 36.6736C23.1452 35.1766 24.0299 33.7702 25.0734 32.4852L27.2384 30.3868C27.426 30.2565 27.6294 30.1346 27.8151 29.9948C29.8591 28.4628 32.1488 27.4933 34.6504 27.0076C36.446 26.6597 38.2519 26.6897 40.0624 26.8566C41.3076 27.1585 42.5734 27.3826 43.7623 27.888C49.6516 30.399 53.1986 34.7843 54.1344 41.1311C54.8292 45.8418 53.5953 50.1202 50.608 53.8182C47.932 57.1299 44.4468 59.1402 40.2068 59.79C39.8918 59.8378 39.5505 59.7984 39.2607 60L35.979 59.9972ZM34.2294 42.1466V42.1831C33.5271 42.1831 32.823 42.1437 32.1235 42.1953C31.5403 42.2375 31.1052 42.7579 31.0593 43.3439C31.0388 43.6284 31.1134 43.9116 31.2712 44.1491C31.429 44.3867 31.6611 44.5652 31.9313 44.6566C32.193 44.736 32.4662 44.7715 32.7395 44.7616C33.814 44.756 34.8886 44.7738 35.9612 44.7513C36.3288 44.7429 36.4244 44.8657 36.4178 45.2201C36.3972 46.2937 36.4085 47.3682 36.4113 48.4418C36.4113 48.7344 36.4113 49.0278 36.5482 49.3007C36.6719 49.557 36.8769 49.7653 37.1313 49.893C37.3857 50.0207 37.6751 50.0607 37.9546 50.0067C38.5856 49.8689 38.9935 49.3776 39.0085 48.6425C39.0329 47.5098 39.0301 46.3772 39.0085 45.2445C39.001 44.8694 39.0929 44.741 39.4876 44.7513C40.5612 44.7794 41.6358 44.7597 42.7094 44.7616C43.1725 44.7616 43.6179 44.6857 43.9377 44.3266C44.2574 43.9674 44.3962 43.5146 44.2086 43.0232C44.008 42.4972 43.6273 42.185 43.0628 42.1737C41.8917 42.1512 40.7188 42.1344 39.5495 42.1644C39.0929 42.1756 38.9954 42.0275 39.0066 41.6018C39.0366 40.5095 39.0179 39.4152 39.016 38.3201C39.016 37.8569 38.9166 37.4218 38.5416 37.1115C38.1506 36.788 37.6977 36.6952 37.2289 36.8949C36.7113 37.1124 36.431 37.5212 36.4244 38.0801C36.4085 39.2708 36.401 40.4626 36.4188 41.6534C36.4244 42.0284 36.325 42.1803 35.9284 42.1588C35.363 42.1241 34.7957 42.1466 34.2294 42.1466Z" fill="#FDDA41"/>
<path d="M21.5761 39.1443C21.2516 40.6717 21.0397 42.2084 21.0772 43.778C21.1339 46.2009 21.7222 48.5817 22.8006 50.7521C22.8859 50.9256 22.9562 51.1075 23.0331 51.2857C17.4073 51.2857 11.7831 51.2857 6.16045 51.2857C4.73713 51.2857 3.41131 50.9922 2.26178 50.1089C0.709995 48.9172 0.0161481 47.3045 0.00583415 45.3805C-0.00729269 42.9586 0.00583415 40.5376 0.00583415 38.1157C0.00583415 27.4529 0.00583415 16.7899 0.00583415 6.1265C0.00583415 4.11809 0.662178 2.42191 2.28709 1.1683C3.20785 0.457574 4.26174 0.0215738 5.41784 0.0178233C12.4501 -0.00749277 19.4823 0.00188423 26.5146 0.0009466C26.5914 0.0084599 26.6674 0.023218 26.7415 0.0450183C26.7415 2.81478 26.7415 5.58486 26.7415 8.35525C26.7311 8.93838 26.7625 9.52151 26.8352 10.1002C27.1437 12.2689 28.913 13.9192 31.0911 13.936C34.0569 13.9604 37.0226 13.936 39.9874 13.936C40.1524 14.0748 40.0812 14.2633 40.0812 14.4273C40.0812 18.5698 40.0812 22.7129 40.0812 26.8566C38.2706 26.6897 36.4647 26.6597 34.6691 27.0076C32.1675 27.4933 29.8778 28.4628 27.8338 29.9948C27.6463 30.1346 27.4494 30.2565 27.2562 30.3868C26.9243 29.9536 26.4602 29.8786 25.952 29.8795C20.4912 29.8833 15.0301 29.8833 9.56874 29.8795C9.37418 29.8736 9.17955 29.889 8.98835 29.9255C8.67922 29.9882 8.40485 30.1646 8.21945 30.4198C8.03404 30.675 7.95108 30.9904 7.98696 31.3038C8.01562 31.6068 8.1515 31.8897 8.37014 32.1014C8.58879 32.3132 8.87583 32.44 9.17962 32.4589C9.39247 32.4768 9.60812 32.4693 9.82284 32.4702L25.094 32.4852C24.0501 33.7702 23.1652 35.1765 22.4584 36.6736C22.1771 36.4917 21.8545 36.5461 21.547 36.5461C17.784 36.5423 14.0206 36.5423 10.257 36.5461C9.8866 36.5461 9.5153 36.532 9.14681 36.563C8.82243 36.5865 8.5198 36.7349 8.30247 36.9769C8.08515 37.2188 7.97005 37.5356 7.98133 37.8606C7.99071 38.6511 8.57673 39.1377 9.5453 39.1386C13.5484 39.1424 17.5586 39.1443 21.5761 39.1443ZM15.8565 23.3311C13.7487 23.3311 11.6372 23.3255 9.53124 23.3311C8.51015 23.3311 7.92226 23.8693 7.95883 24.7282C7.99258 25.5158 8.59267 25.9799 9.62125 25.9818C13.7606 25.9868 17.8996 25.9868 22.0383 25.9818C22.2912 25.981 22.5431 25.9495 22.7884 25.888C22.9488 25.8476 23.0995 25.7756 23.2318 25.6763C23.3641 25.5771 23.4753 25.4525 23.559 25.3098C23.6427 25.1671 23.6972 25.0092 23.7192 24.8453C23.7413 24.6814 23.7306 24.5147 23.6876 24.355C23.5216 23.6808 23.0088 23.3367 22.1227 23.3349C20.0383 23.3274 17.9474 23.3311 15.8603 23.3311H15.8565Z" fill="#00ABE9"/>
<path d="M39.9715 13.9315C37.0067 13.9315 34.041 13.9587 31.0752 13.9315C28.8971 13.9147 27.1278 12.2644 26.8193 10.0957C26.7466 9.51702 26.7152 8.93389 26.7256 8.35076C26.7256 5.58099 26.7256 2.81092 26.7256 0.0405273C28.3195 1.69732 29.9229 3.34943 31.5075 5.00998C34.276 7.90726 37.0383 10.8067 39.7943 13.7084C39.8571 13.7778 39.9115 13.8575 39.9715 13.9315Z" fill="#01EED0"/>
<path d="M34.2293 42.1464C34.7919 42.1464 35.3629 42.1239 35.9274 42.1539C36.3249 42.1754 36.4234 42.0226 36.4177 41.6485C36.3999 40.4577 36.4074 39.266 36.4234 38.0752C36.4299 37.5126 36.7103 37.1075 37.2279 36.89C37.7032 36.6903 38.1524 36.7831 38.5405 37.1066C38.9156 37.417 39.0141 37.852 39.015 38.3152C39.015 39.4085 39.0356 40.5027 39.0056 41.5969C38.9944 42.0236 39.0919 42.1717 39.5485 42.1595C40.7187 42.1295 41.8926 42.1464 43.0618 42.1689C43.6244 42.1801 44.0069 42.4924 44.2076 43.0184C44.3951 43.5097 44.2676 43.9504 43.9366 44.3217C43.6056 44.693 43.1715 44.7577 42.7083 44.7568C41.6347 44.7568 40.5602 44.7746 39.4866 44.7464C39.0919 44.7361 39 44.8674 39.0075 45.2396C39.03 46.3723 39.0328 47.505 39.0075 48.6376C38.9925 49.3727 38.5846 49.864 37.9536 50.0019C37.6741 50.0558 37.3846 50.0158 37.1303 49.8881C36.8759 49.7604 36.6709 49.5522 36.5471 49.2958C36.4121 49.023 36.4112 48.7332 36.4102 48.437C36.4102 47.3634 36.3962 46.2888 36.4168 45.2153C36.4234 44.8627 36.323 44.7399 35.9602 44.7464C34.8875 44.7689 33.813 44.7464 32.7385 44.7568C32.4651 44.7666 32.192 44.7311 31.9302 44.6517C31.6601 44.5603 31.4279 44.3818 31.2701 44.1443C31.1123 43.9067 31.0378 43.6235 31.0582 43.3391C31.1042 42.7577 31.5393 42.2326 32.1225 42.1905C32.821 42.1389 33.5289 42.1783 34.2284 42.1783L34.2293 42.1464Z" fill="#0A3962"/>
<path d="M25.0735 32.4853L9.80232 32.4703C9.5876 32.4703 9.37194 32.4769 9.1591 32.4591C8.85531 32.4401 8.56826 32.3133 8.34962 32.1016C8.13098 31.8898 7.99509 31.607 7.96643 31.3039C7.93056 30.9905 8.01352 30.6751 8.19892 30.4199C8.38433 30.1647 8.65869 29.9883 8.96782 29.9256C9.15903 29.8891 9.35366 29.8737 9.54822 29.8797C15.0102 29.8797 20.4713 29.8797 25.9315 29.8797C26.4397 29.8797 26.9038 29.9537 27.2357 30.3869L25.0735 32.4853Z" fill="#083863"/>
<path d="M21.5761 39.1443C17.5593 39.1443 13.5428 39.1418 9.52664 39.1368C8.55807 39.1368 7.97205 38.6492 7.96267 37.8588C7.95139 37.5337 8.06649 37.217 8.28381 36.975C8.50113 36.733 8.80376 36.5847 9.12815 36.5611C9.49664 36.5302 9.86794 36.5442 10.2383 36.5442C14.002 36.5442 17.7653 36.5442 21.5283 36.5442C21.8359 36.5442 22.1556 36.4899 22.4397 36.6718L21.5761 39.1443Z" fill="#083863"/>
<path d="M15.8603 23.3313C17.9493 23.3313 20.0384 23.3313 22.1274 23.3313C23.0135 23.3313 23.5263 23.6773 23.6923 24.3514C23.7355 24.5113 23.7465 24.6781 23.7246 24.8423C23.7026 25.0064 23.6482 25.1645 23.5645 25.3074C23.4808 25.4503 23.3695 25.5751 23.237 25.6745C23.1046 25.7739 22.9537 25.8459 22.7931 25.8863C22.5478 25.9479 22.2959 25.9793 22.043 25.9801C17.9043 25.9857 13.7653 25.9857 9.62595 25.9801C8.59455 25.9801 7.99728 25.5113 7.96352 24.7265C7.92696 23.8676 8.51485 23.3332 9.53594 23.3294C11.6437 23.3257 13.7525 23.3313 15.8603 23.3313Z" fill="#083B67"/>
</svg>
