<svg width="20" height="19" viewBox="0 0 20 19" fill="none" xmlns="http://www.w3.org/2000/svg">
<path d="M2.67969 18.7579V18.5363C2.67969 15.8131 2.68131 13.0894 2.68456 10.3654C2.68484 10.249 2.72623 10.1365 2.80142 10.0477C5.15823 7.6799 7.51869 5.3168 9.8828 2.95837C9.90898 2.93159 9.93819 2.90786 9.97897 2.87012C10.0313 2.91577 10.0837 2.95594 10.1299 3.00281C12.4709 5.34257 14.8101 7.68376 17.1474 10.0264C17.225 10.1033 17.2726 10.2054 17.2819 10.3143C17.2892 13.0911 17.291 15.8681 17.2874 18.6453C17.2874 18.6757 17.2874 18.7061 17.2813 18.7548H10.7538C10.8056 18.6775 10.8512 18.6063 10.9005 18.5375C11.76 17.3536 12.544 16.1241 13.107 14.768C13.3949 14.0777 13.6238 13.368 13.6335 12.6114C13.6358 11.6871 13.2875 10.7964 12.6589 10.1187C12.0303 9.44109 11.1681 9.02701 10.2462 8.95999C9.32437 8.89297 8.41138 9.17798 7.69138 9.75757C6.97137 10.3372 6.49791 11.1682 6.36646 12.0831C6.2362 13.032 6.50585 13.9091 6.85888 14.7613C7.40304 16.0839 8.16633 17.2818 8.99657 18.4395L9.22604 18.7561L2.67969 18.7579Z" fill="#062037"/>
<path d="M10.0097 0L20 9.99026L19.0821 10.9106C19.048 10.8777 18.9829 10.8181 18.9202 10.7554L10.3841 2.21985C10.0511 1.88691 9.92148 1.8863 9.59279 2.21499C6.75229 5.05549 3.91178 7.896 1.07127 10.7365C1.01241 10.8018 0.957138 10.8703 0.905716 10.9416C0.577637 10.6038 0.278167 10.2946 0 10.0073L10.0097 0Z" fill="#062037"/>
<path d="M9.98647 18.4549C9.19945 17.4085 8.49582 16.3646 7.92122 15.238C7.57549 14.5593 7.27663 13.863 7.12446 13.1112C6.79699 11.4934 7.78792 9.95524 9.38205 9.61012C10.933 9.27413 12.4693 10.2693 12.8345 11.844C12.9635 12.4009 12.9094 12.9512 12.7499 13.4874C12.2009 15.3354 11.1235 16.8881 9.98647 18.4549ZM9.97308 11.0101C9.68437 11.0118 9.40263 11.099 9.16344 11.2607C8.92426 11.4224 8.73835 11.6513 8.6292 11.9186C8.52005 12.1859 8.49254 12.4795 8.55016 12.7624C8.60779 13.0454 8.74795 13.3048 8.95295 13.5081C9.15795 13.7114 9.4186 13.8494 9.70198 13.9047C9.98535 13.96 10.2788 13.93 10.5451 13.8187C10.8115 13.7073 11.0389 13.5195 11.1986 13.279C11.3583 13.0384 11.4432 12.756 11.4424 12.4673C11.4419 12.2751 11.4034 12.0849 11.3292 11.9076C11.255 11.7303 11.1465 11.5693 11.01 11.434C10.8736 11.2987 10.7117 11.1917 10.5337 11.119C10.3558 11.0464 10.1653 11.009 9.97308 11.0101Z" fill="#062037"/>
<path d="M9.97348 13.2948C9.82852 13.2934 9.68724 13.2489 9.56764 13.167C9.44804 13.0851 9.35552 12.9694 9.30187 12.8347C9.24822 12.7001 9.23585 12.5525 9.26635 12.4107C9.29684 12.269 9.36883 12.1396 9.47313 12.0389C9.57743 11.9382 9.70933 11.8708 9.85204 11.8454C9.99476 11.8199 10.1418 11.8374 10.2745 11.8958C10.4072 11.9542 10.5195 12.0507 10.5972 12.1731C10.6749 12.2956 10.7143 12.4383 10.7106 12.5832C10.7041 12.7743 10.6236 12.9554 10.486 13.0882C10.3485 13.221 10.1647 13.295 9.97348 13.2948Z" fill="#062037"/>
</svg>
