<svg width="20" height="21" viewBox="0 0 20 21" fill="none" xmlns="http://www.w3.org/2000/svg">
<path d="M10.5848 20.0023H9.41595C9.3666 19.9879 9.31624 19.9773 9.26529 19.9705C8.04729 19.9002 6.85536 19.5888 5.75867 19.0542C2.69166 17.5431 0.814967 15.106 0.159097 11.7442C0.0831201 11.361 0.0513007 10.9721 0 10.5863V9.41747C0.014529 9.36215 0.0255899 9.30597 0.0331182 9.24928C0.129875 7.85182 0.492227 6.52515 1.17667 5.30822C3.0183 2.03277 5.82685 0.246981 9.57959 0.0196998C11.5183 -0.106892 13.4478 0.379004 15.0954 1.40871C18.1306 3.28086 19.7709 6.01928 19.9819 9.57916C20.0929 11.3582 19.691 13.1317 18.8241 14.6891C17.2734 17.5096 14.9123 19.2272 11.7407 19.8419C11.3595 19.9153 10.9699 19.9484 10.5848 20.0023ZM10.0004 1.25286C7.682 1.25355 5.45858 2.17398 3.81808 3.81217C2.17758 5.45037 1.254 7.67248 1.25005 9.99086C1.24096 14.8196 5.16578 18.749 10.0004 18.7496C12.3182 18.7481 14.5407 17.8273 16.1804 16.1891C17.8201 14.551 18.743 12.3294 18.7468 10.0116C18.7559 5.18354 14.8311 1.25351 10.0004 1.25286Z" fill="white"/>
<path d="M8.15876 12.8924C8.20019 12.8277 8.24597 12.7658 8.29578 12.7073C10.3517 10.6683 12.4081 8.62987 14.4649 6.59213C14.6278 6.43044 14.7999 6.30446 15.0434 6.32134C15.156 6.32638 15.265 6.36206 15.3587 6.42455C15.4525 6.48704 15.5274 6.57395 15.5753 6.6759C15.6232 6.77784 15.6424 6.89095 15.6307 7.00299C15.619 7.11504 15.577 7.22177 15.509 7.31164C15.4559 7.37771 15.3979 7.43978 15.3357 7.49736L8.6945 14.0781C8.29578 14.4736 7.97369 14.4723 7.57043 14.0781L4.67097 11.2358C4.61886 11.1868 4.56964 11.1347 4.52356 11.08C4.42922 10.9703 4.37771 10.8302 4.37855 10.6856C4.37939 10.5409 4.4325 10.4015 4.52811 10.2929C4.62207 10.1779 4.75425 10.1005 4.90053 10.0749C5.04681 10.0493 5.19742 10.0771 5.32489 10.1533C5.40694 10.2058 5.48256 10.2677 5.55022 10.3377C6.35978 11.1295 7.16825 11.922 7.97564 12.7151C8.01915 12.7606 8.06655 12.8041 8.15876 12.8924Z" fill="white"/>
</svg>
