<svg width="50" height="51" viewBox="0 0 50 51" fill="none" xmlns="http://www.w3.org/2000/svg">
<path d="M48.1077 0C48.2341 0.061894 48.3604 0.126314 48.4867 0.184419C49.3709 0.588625 49.9519 1.25556 49.9696 2.24461C50.0063 4.493 50.0138 6.74266 49.9696 8.99105C49.9481 10.2542 49.069 11.1258 47.8008 11.2862C47.6413 11.3187 47.4782 11.3302 47.3158 11.3203C45.9364 11.122 44.7907 11.6007 43.6539 12.3788C41.8539 13.6078 39.9655 14.7093 38.1138 15.8651C37.9786 15.9497 37.8384 16.028 37.6085 16.167C37.8889 14.5173 38.1542 12.9586 38.4308 11.3266C37.755 11.3266 37.1083 11.3367 36.4616 11.3266C35.1984 11.3026 34.2713 10.6622 33.9706 9.59231C33.8846 9.26244 33.8421 8.9227 33.8443 8.58179C33.833 6.77297 33.886 4.96289 33.8241 3.15028C33.766 1.62188 34.265 0.517889 35.7744 0H48.1077ZM40.3318 9.69589C40.155 10.7683 39.9883 11.7813 39.8038 12.8967C40.8573 12.2399 41.8552 11.7093 42.7495 11.0399C44.139 10.0003 45.6093 9.45336 47.3663 9.6782C48.0951 9.77167 48.3932 9.40284 48.3945 8.64874C48.3945 6.65971 48.3945 4.67068 48.3945 2.68165C48.3945 1.90356 48.1153 1.6244 47.3271 1.62314C43.723 1.62314 40.1196 1.62314 36.5171 1.62314C35.7226 1.62314 35.4675 1.88966 35.4662 2.68544C35.4662 4.65847 35.4662 6.6315 35.4662 8.60453C35.4662 9.43189 35.7252 9.6921 36.5399 9.69462C37.7765 9.69715 39.0131 9.69589 40.3318 9.69589Z" fill="#172F40"/>
<path d="M40.563 43.6579H23.2579L24.6221 44.7947C22.9472 46.2991 21.4756 47.7669 19.8512 49.0427C17.7822 50.6696 14.7797 50.4486 12.8294 48.6637C12.0602 47.9602 11.3377 47.2035 10.6 46.4659C7.69138 43.5606 4.78615 40.6554 1.88429 37.7502C-0.628098 35.2327 -0.628098 31.8412 1.88429 29.325C3.00091 28.2046 4.12006 27.088 5.19752 26.0105L11.2833 32.0964C11.0942 32.1927 10.9163 32.3096 10.7528 32.445C9.9002 33.2749 9.06021 34.1186 8.22653 34.9713C7.72128 35.4765 7.72128 35.8984 8.22653 36.4075C9.06905 37.2639 9.91914 38.1114 10.816 39.0121C10.9031 38.7683 10.9688 38.6066 11.0206 38.4399C11.7974 35.9679 13.4799 34.5746 16.029 34.1641C17.6508 33.9039 19.2626 33.5818 21.0247 33.2597C20.8655 33.0172 20.7961 32.7987 20.6458 32.7001C18.8655 31.5634 17.5906 29.7856 17.085 27.7347C17.0502 27.6442 16.9971 27.5618 16.9291 27.4927C16.8611 27.4236 16.7795 27.3693 16.6896 27.333C15.3595 26.8328 14.522 25.8943 14.4753 24.496C14.4046 22.1668 14.349 19.8224 14.5359 17.5045C14.9389 12.7159 18.679 8.89999 23.4436 8.21032C28.9648 7.40949 34.1866 11.0739 35.2527 16.5294C35.3949 17.3159 35.4646 18.1137 35.4612 18.9129C35.4852 21.9142 35.4725 24.9154 35.47 27.9166C35.47 29.7545 34.4986 30.7612 32.662 30.7069C31.8271 30.6816 31.1829 30.8143 30.6498 31.5368C30.3227 31.9801 29.7783 32.2593 29.3488 32.6332C29.2174 32.7762 29.103 32.9339 29.0078 33.1031C29.1758 33.1928 29.3337 33.3292 29.513 33.3633C31.097 33.6664 32.686 33.9469 34.2713 34.2475C36.4553 34.6555 37.9685 35.8984 38.7226 37.9851C39.3756 39.7914 39.9504 41.6268 40.5579 43.4495C40.5665 43.5186 40.5681 43.5884 40.563 43.6579ZM18.5174 38.8782C19.4761 39.8407 20.402 40.7565 21.3089 41.6912C21.4102 41.8044 21.5354 41.8937 21.6754 41.9527C21.8154 42.0116 21.9668 42.0388 22.1186 42.0322C27.3514 42.0221 32.5846 42.0196 37.8182 42.0247H38.4308C37.8674 40.5215 37.414 39.0765 36.7887 37.7136C36.3428 36.7485 35.4473 36.1498 34.3888 35.93C32.6519 35.5687 30.8974 35.2984 29.1606 34.9334C28.6301 34.8222 28.2953 34.9397 27.9303 35.3249C26.9703 36.3355 25.9636 37.3131 24.8672 38.4095C24.7711 38.2386 24.6604 38.0763 24.5362 37.9245C23.5977 36.9733 22.6592 36.0209 21.6954 35.0951C21.609 35.0211 21.5085 34.9655 21.3999 34.9316C21.2913 34.8978 21.177 34.8863 21.0639 34.898C19.49 35.1582 17.9275 35.4904 16.3498 35.7304C14.3528 36.0336 13.1326 37.1199 12.4732 39.0399C12.1448 39.996 12.1865 40.6516 13.029 41.2251C13.2538 41.3779 13.4244 41.6103 13.6214 41.8061C14.2441 42.4251 14.5801 42.4377 15.2408 41.8364L18.5174 38.8782ZM33.8267 21.4342C33.8267 20.4022 33.8267 19.4258 33.8267 18.4481C33.8138 17.4034 33.614 16.3694 33.2368 15.3951C31.9888 12.0414 28.6288 9.71851 24.9783 9.69704C21.3582 9.67683 17.9692 12.0086 16.6732 15.337C15.9153 17.2898 16.0719 19.3083 16.0858 21.323C16.0858 21.3457 16.1212 21.3672 16.1161 21.3609C16.9043 21.3521 16.9473 20.8329 16.8589 20.1849C20.1872 20.3959 22.8234 19.091 24.943 16.6153C26.0419 17.7812 27.156 18.7942 28.5732 19.4283C29.9905 20.0624 31.4785 20.238 33.0397 20.2026V21.1108L33.8267 21.4342ZM24.9682 29.0901H25.5543C27.0878 29.0901 28.62 29.0838 30.1534 29.0901C30.4288 29.0901 30.6309 29.0408 30.7092 28.7515C30.9328 27.9267 31.2814 27.1095 31.3522 26.272C31.4684 24.9116 31.3926 23.536 31.4178 22.1668C31.4242 21.8333 31.2663 21.7878 30.9884 21.7234C30.1155 21.5365 29.2339 21.3634 28.3901 21.0805C27.0941 20.6447 25.9901 19.8628 24.9796 18.9521C24.9258 18.9695 24.8745 18.9937 24.8268 19.0241C23.1614 20.5636 21.0431 21.5238 18.7877 21.7613C18.6715 21.7739 18.487 22.0026 18.4858 22.1314C18.4858 23.5815 18.4125 25.0366 18.5414 26.4817C18.7662 28.9777 20.1051 30.7865 22.3914 31.7793C24.6423 32.7557 26.8124 32.4563 28.8233 31.0214C28.9312 30.9601 29.0445 30.9089 29.1619 30.8686L29.0292 30.693H24.9682V29.0901ZM3.22196 30.2825C1.23504 32.0686 1.05567 34.6037 2.86828 36.4378C6.45561 40.0697 10.0657 43.679 13.6985 47.2654C15.5187 49.0604 18.338 48.8456 19.7792 46.956L16.0871 43.2625C14.8618 44.201 13.6656 44.1253 12.5225 42.9884C11.7368 42.2053 10.9528 41.4209 10.1705 40.6352C9.07537 39.5388 7.96254 38.4601 6.89518 37.3384C6.03751 36.4365 6.00087 35.1911 6.73223 34.2045C6.79792 34.1174 6.85855 34.0226 6.90908 33.9456L3.22196 30.2825ZM21.17 45.7509L22.0466 44.921L18.3519 41.2112L17.4588 42.0398L21.17 45.7509ZM4.53058 29.0067L8.1419 32.618L8.86063 31.9246L5.25436 28.2943L4.53058 29.0067ZM22.6769 33.6134L24.9291 35.8731C25.6667 35.1355 26.4385 34.3574 27.1724 33.6273C25.7023 34.0446 24.1444 34.0398 22.6769 33.6134ZM32.4119 29.0446C33.6978 29.2202 34.0641 28.6998 33.7635 27.0564C33.4452 27.2307 33.0182 27.3204 32.8793 27.573C32.6267 28.0101 32.5559 28.5469 32.4119 29.0446ZM16.8462 22.9032C16.2917 23.2531 16.0681 23.7103 16.0782 24.2813C16.0731 24.5483 16.1422 24.8116 16.2778 25.0417C16.4134 25.2719 16.6102 25.4599 16.8462 25.5849V22.9032ZM33.0763 22.9335V25.5861C34.0831 24.8371 34.078 23.608 33.0763 22.9335Z" fill="#172F40"/>
<path d="M4.63793 19.964L6.75117 18.7122C7.02906 19.1746 7.29432 19.6129 7.58358 20.0929L2.85438 22.9337L0.0085144 18.2019L1.39039 17.3695C1.89565 18.1981 2.37438 19.0028 2.91753 19.9034C4.55962 13.5422 8.09642 8.66142 13.7275 5.43661C19.3586 2.21181 25.3712 1.64213 31.654 3.4219C31.4873 3.96631 31.337 4.45515 31.1841 4.95157C24.1851 3.05685 17.7645 4.13305 12.0109 8.52626C7.88295 11.6778 5.41603 16.2239 4.63793 19.964Z" fill="#172F40"/>
<path d="M42.555 39.3218L41.3019 38.3113C45.8619 32.2571 47.0833 25.6218 44.8602 18.24C44.3474 19.0888 43.9002 19.8328 43.4253 20.621L42.0358 19.7873L44.8728 15.0581L49.6021 17.8939L48.7797 19.2833L46.4417 17.8939C48.7608 25.7127 47.4648 32.8179 42.555 39.3218Z" fill="#172F40"/>
<path d="M37.1032 3.25781H46.7398V4.81527H37.1032V3.25781Z" fill="#172F40"/>
<path d="M43.5074 6.49121V8.05119H37.1007V6.49121H43.5074Z" fill="#172F40"/>
<path d="M45.2025 6.47852H46.7183V8.05365H45.2025V6.47852Z" fill="#172F40"/>
</svg>
