<svg width="21" height="15" viewBox="0 0 21 15" fill="none" xmlns="http://www.w3.org/2000/svg">
<path d="M20.3718 7.21152L14.281 1.119C14.1223 0.960332 13.8654 0.960332 13.7068 1.119C13.5481 1.27768 13.5481 1.5347 13.7068 1.69334L19.1045 7.09252H1.40607C1.18162 7.09252 1 7.27419 1 7.4987C1 7.72321 1.18162 7.90488 1.40607 7.90488H19.1045L13.7068 13.304C13.5481 13.4627 13.5481 13.7197 13.7068 13.8784C13.7861 13.9577 13.89 13.9974 13.9939 13.9974C14.0978 13.9974 14.2017 13.9577 14.281 13.8784L20.3719 7.78585C20.5305 7.62722 20.5305 7.37019 20.3718 7.21152Z" fill="white" stroke="white"/>
</svg>
