<svg width="18" height="20" viewBox="0 0 18 20" fill="none" xmlns="http://www.w3.org/2000/svg">
<path d="M1.95312 20.0004V18.8297H3.12331V15.3223H14.5385V18.8224H15.7154V20.0004H1.95312ZM11.0138 16.4971H6.65993V17.6376H11.0138V16.4971Z" fill="#062037"/>
<path d="M3.75974 1.1582V0H13.9047V1.15768C14.3951 1.15768 14.8622 1.15351 15.3292 1.15768C15.9292 1.15613 16.5061 1.38877 16.9372 1.8061C17.2761 2.12767 17.5112 2.54323 17.6121 2.9994C17.713 3.45556 17.6752 3.93148 17.5036 4.366C17.3319 4.80053 17.0343 5.17379 16.6488 5.43784C16.2634 5.70189 15.8079 5.84466 15.3407 5.8478C14.8716 5.8478 14.4024 5.8478 13.9177 5.8478C13.8755 7.51577 13.2369 8.88924 11.9224 9.91347C10.9565 10.6672 9.84575 11.0138 8.62344 10.9596C7.26196 10.8991 6.0996 10.3701 5.15824 9.38233C4.21688 8.39458 3.778 7.21292 3.75506 5.84623C3.27708 5.84623 2.81682 5.84623 2.35553 5.84623C2.0421 5.84693 1.7317 5.78493 1.44259 5.66389C1.15348 5.54284 0.891502 5.36519 0.672071 5.14139C0.45264 4.91759 0.280188 4.65216 0.164867 4.36072C0.0495455 4.06928 -0.00631569 3.75771 0.000566752 3.44436C0.0193314 2.22049 1.04825 1.18113 2.27369 1.15664C2.76053 1.15038 3.24789 1.1582 3.75974 1.1582ZM3.74412 4.67136V2.33359C3.23591 2.33359 2.74124 2.31431 2.24867 2.3388C1.64716 2.36904 1.17701 2.89445 1.17336 3.49596C1.16971 4.09747 1.62475 4.62966 2.21219 4.6651C2.71675 4.69585 3.22444 4.67136 3.74412 4.67136ZM13.9245 2.33516V4.66458C13.9476 4.66974 13.9712 4.6734 13.9948 4.67553C14.4436 4.67553 14.8929 4.68074 15.3412 4.67553C15.6405 4.67165 15.9269 4.55318 16.1415 4.34452C16.356 4.13586 16.4824 3.85287 16.4947 3.55382C16.5176 2.93354 16.0568 2.38051 15.4381 2.34194C14.9398 2.31014 14.4384 2.33516 13.9245 2.33516Z" fill="#062037"/>
<path d="M10.8762 11.8027C11.0132 12.5882 11.1456 13.3482 11.2806 14.1228H6.38672C6.52068 13.3529 6.65255 12.5924 6.78964 11.8059C7.44822 12.0227 8.13642 12.1363 8.82977 12.1426C9.52559 12.1384 10.2163 12.0237 10.8762 11.8027Z" fill="#062037"/>
</svg>
