<svg width="20" height="18" viewBox="0 0 20 18" fill="none" xmlns="http://www.w3.org/2000/svg">
<path d="M0 9.98974C3.2804 9.98974 6.56078 9.9886 9.84118 9.98632C9.9935 9.98632 10.0853 10.0288 10.1741 10.1562C11.0324 11.4114 12.1972 12.3297 13.4671 13.1308C13.6483 13.2451 13.8322 13.3556 14.0187 13.4623C14.6534 13.8231 15.2998 13.8456 15.9325 13.4843C17.1125 12.8106 18.2227 12.0402 19.138 11.0218C19.3851 10.7465 19.6013 10.4438 19.8308 10.1528C19.8728 10.0996 19.9099 10.043 19.9846 9.93945C19.9909 10.0571 19.9963 10.1113 19.9963 10.166C19.9963 12.1513 19.9963 14.1367 19.9963 16.1221C19.9963 16.9749 19.4773 17.489 18.6161 17.489H1.37429C0.653699 17.489 0.240187 17.179 0.027819 16.4858C0.0202571 16.4686 0.0109399 16.4522 0 16.4369V9.98974ZM4.37233 13.7386H5.5821C5.96876 13.7308 6.24411 13.475 6.24753 13.1201C6.25095 12.7652 5.97218 12.4913 5.57576 12.4898C4.77608 12.4875 3.97624 12.4875 3.17624 12.4898C2.77884 12.4898 2.4996 12.7544 2.50106 13.1167C2.50253 13.4789 2.78129 13.7352 3.18455 13.7382C3.5878 13.7411 3.97591 13.7386 4.37233 13.7386Z" fill="#062037"/>
<path d="M0 4.79533C0.111798 4.40819 0.292916 4.06303 0.67762 3.89362C0.865129 3.80567 1.06825 3.75589 1.27518 3.74716C3.72693 3.7374 6.17917 3.74081 8.63093 3.74081C8.66266 3.74081 8.69391 3.74472 8.74908 3.74814C8.7442 4.9994 8.71686 6.24725 9.01857 7.49021H0V4.79533Z" fill="#062037"/>
<path d="M9.99852 4.04752C9.99852 3.55932 10.0029 3.07112 9.99852 2.58292C9.99462 2.24459 10.1396 2.01611 10.4521 1.88283C11.862 1.28137 13.2708 0.677136 14.6784 0.0701374C14.7787 0.023929 14.8878 0 14.9982 0C15.1086 0 15.2177 0.023929 15.318 0.0701374C16.726 0.676811 18.1347 1.28088 19.5444 1.88235C19.848 2.01221 20.0008 2.23043 19.9989 2.56192C19.9945 3.52466 20.0106 4.48837 19.9862 5.45062C19.9598 6.51734 19.7748 7.55624 19.3222 8.53557C18.8907 9.47401 18.2417 10.2961 17.429 10.9336C16.7723 11.4506 16.0591 11.8968 15.3673 12.3689C15.2664 12.4429 15.1455 12.4846 15.0205 12.4886C14.8955 12.4926 14.7722 12.4587 14.6667 12.3914C13.5995 11.7709 12.588 11.0772 11.7541 10.1545C10.8421 9.14583 10.2895 7.96145 10.126 6.61596C10.0239 5.76551 10.0078 4.90725 9.95312 4.04997L9.99852 4.04752ZM14.4236 6.42849C14.3723 6.35672 14.3338 6.30595 14.2981 6.25322C14.0853 5.93443 13.8758 5.6127 13.6591 5.29635C13.4906 5.05225 13.2378 4.94826 12.9868 5.01026C12.5474 5.11913 12.3634 5.58878 12.6177 5.98081C13.0039 6.57495 13.3989 7.16226 13.7948 7.75054C14.1126 8.2241 14.5725 8.24119 14.9303 7.79448C15.3896 7.221 15.8488 6.6472 16.3081 6.07308C16.6532 5.6415 17.0038 5.21384 17.3416 4.77641C17.6531 4.37267 17.4548 3.83467 16.9691 3.75411C16.6967 3.7092 16.495 3.83467 16.3291 4.04313C15.7022 4.8306 15.0719 5.61661 14.4236 6.42849Z" fill="#062037"/>
</svg>
