<svg width="19" height="20" viewBox="0 0 19 20" fill="none" xmlns="http://www.w3.org/2000/svg">
<path d="M9.16814 10.0001C10.5487 10.0001 11.7271 9.51166 12.7035 8.53517C13.68 7.55868 14.1684 6.38033 14.1684 4.99994C14.1684 3.61978 13.68 2.44139 12.7035 1.46467C11.7267 0.488223 10.5483 0 9.16814 0C7.78793 0 6.60936 0.488223 5.63291 1.46467C4.65628 2.44139 4.16797 3.61974 4.16797 4.99994C4.16797 6.38033 4.65628 7.55868 5.63291 8.53517C6.60963 9.51166 7.78789 10.0001 9.16814 10.0001Z" fill="#062037"/>
<path d="M18.288 15.2793C18.2575 14.8411 18.1967 14.3679 18.1057 13.86C18.0145 13.3521 17.8993 12.8814 17.7604 12.4472C17.6215 12.0133 17.4348 11.5901 17.2005 11.1777C16.9662 10.7654 16.6971 10.4139 16.3931 10.1229C16.0891 9.8321 15.718 9.60006 15.28 9.42648C14.8414 9.25294 14.3574 9.16602 13.8279 9.16602C13.7498 9.16602 13.5675 9.25933 13.281 9.446C12.9948 9.63267 12.6714 9.84104 12.3111 10.0712C11.9509 10.3009 11.4819 10.5094 10.9049 10.6958C10.3276 10.8824 9.74823 10.9758 9.16642 10.9758C8.58484 10.9758 8.00545 10.8824 7.42824 10.6958C6.85109 10.5094 6.3822 10.3009 6.02195 10.0712C5.66175 9.84104 5.33844 9.63271 5.05203 9.446C4.76548 9.25933 4.58328 9.16602 4.50515 9.16602C3.97566 9.16602 3.49167 9.25294 3.05334 9.42648C2.61492 9.60006 2.24387 9.83229 1.93999 10.1229C1.6362 10.4139 1.36707 10.7654 1.13279 11.1777C0.898504 11.5901 0.71188 12.0135 0.572961 12.4472C0.434088 12.8814 0.319021 13.3521 0.227898 13.86C0.136684 14.3679 0.0759357 14.8408 0.0455159 15.2793C0.0151416 15.7179 0 16.1671 0 16.6272C0 17.6687 0.316923 18.4914 0.950542 19.0947C1.5843 19.6978 2.42638 19.9993 3.47671 19.9993H14.8572C15.9074 19.9993 16.7494 19.6978 17.3833 19.0947C18.0172 18.4914 18.3339 17.6688 18.3339 16.6272C18.3338 16.1671 18.3187 15.7179 18.288 15.2793Z" fill="#062037"/>
</svg>
