<svg width="15" height="15" viewBox="0 0 15 15" fill="none" xmlns="http://www.w3.org/2000/svg">
<path d="M12.9929 4.26221V9.08835C12.4188 8.95226 11.8183 8.97574 11.2566 9.15625V7.75986H9.75686V9.24873H10.9279C10.143 9.64782 9.56398 10.2273 9.23613 11.0401C8.90827 11.8528 8.92452 12.6731 9.24487 13.5017H1.10813C0.408684 13.5017 0.00292969 13.0959 0.00292969 12.3973V4.26221H12.9929ZM1.50847 6.48802H2.99401V5.01081H1.50847V6.48802ZM4.26335 5.00748V6.48802H5.74347V5.00748H4.26335ZM8.49086 6.49344V5.01331H7.0099V6.49344H8.49086ZM9.75436 6.49052H11.2403V5.01331H9.75394L9.75436 6.49052ZM1.51388 7.75736V9.23749H2.99401V7.75736H1.51388ZM4.25835 9.2379H5.74389V7.75944H4.25835V9.2379ZM8.49377 7.75902H7.01156V9.23832H8.49377V7.75902ZM1.51347 10.5085V11.9886H2.99401V10.5068L1.51347 10.5085ZM5.74514 10.5085H4.26126V11.9894H5.74514V10.5085ZM7.01448 10.5039V11.9899H8.49086V10.5031L7.01448 10.5039Z" fill="#172F40"/>
<path d="M0.00585227 3.7399C0.00585227 3.20876 -0.00997858 2.68802 0.0104341 2.16854C0.029597 1.66864 0.464095 1.26747 0.96858 1.25205C1.2227 1.24497 1.47765 1.25205 1.75384 1.25205C1.75384 0.995022 1.74884 0.747153 1.75384 0.499702C1.76259 0.141022 2.10794 -0.0943489 2.43288 0.0368755C2.62867 0.116027 2.74615 0.268913 2.74907 0.480539C2.75657 0.995855 2.7549 1.51117 2.74907 2.0269C2.74698 2.22395 2.64825 2.34684 2.39622 2.49556C2.5566 2.49556 2.69449 2.50889 2.82863 2.49265C2.94607 2.4762 3.05355 2.41767 3.13109 2.32795C3.20863 2.23823 3.25096 2.12341 3.25022 2.00482C3.25563 1.76071 3.25022 1.51659 3.25022 1.25497H4.49997V0.634675C4.50206 0.231421 4.68619 0.000632536 5.00529 0.000632536C5.3244 0.000632536 5.50186 0.234753 5.50186 0.640924C5.50186 1.04709 5.49311 1.45368 5.50478 1.85944C5.51269 2.13896 5.43729 2.35934 5.17151 2.49848C5.29399 2.49848 5.41646 2.50514 5.53852 2.49848C5.66486 2.48997 5.78316 2.43344 5.86914 2.34049C5.95513 2.24753 6.00228 2.12519 6.00093 1.99858C6.00551 1.75529 6.00093 1.51159 6.00093 1.25664H7.50064C7.50064 0.997938 7.49606 0.750486 7.50064 0.503451C7.50855 0.143521 7.84974 -0.0935157 8.17551 0.0356257C8.37838 0.11561 8.49419 0.272663 8.49669 0.49137C8.50294 0.996271 8.50128 1.50159 8.49669 2.00649C8.49669 2.2377 8.35922 2.38517 8.15426 2.48515C8.1629 2.49011 8.17196 2.4943 8.18134 2.49764C8.76456 2.54472 9.04492 2.39766 8.99993 1.72738C8.98951 1.57741 8.99993 1.42577 8.99993 1.25081H10.2497C10.2497 0.993355 10.2464 0.745487 10.2497 0.497619C10.2497 0.395144 10.2818 0.295243 10.3414 0.211886C10.401 0.128529 10.4852 0.0658837 10.5821 0.0327096C10.7767 -0.0376933 10.9937 0.00813107 11.1187 0.173932C11.1894 0.262379 11.2328 0.369494 11.2437 0.482205C11.2566 0.992522 11.2524 1.50284 11.2482 2.01316C11.2482 2.21937 11.1537 2.34143 10.8983 2.49556C11.0558 2.49556 11.1941 2.50973 11.3286 2.49265C11.4461 2.47589 11.5534 2.41707 11.6307 2.32711C11.708 2.23716 11.7501 2.12219 11.749 2.00357C11.7536 1.75987 11.749 1.51575 11.749 1.27413C12.4005 1.13624 12.9891 1.59574 12.9987 2.24603C13.005 2.7401 12.9987 3.23417 12.9987 3.7399H0.00585227Z" fill="#172F40"/>
<path d="M9.50098 12.2422C9.50214 11.6985 9.66444 11.1674 9.96739 10.7159C10.2703 10.2645 10.7003 9.913 11.203 9.70588C11.7057 9.49876 12.2584 9.44531 12.7915 9.55229C13.3245 9.65928 13.8139 9.92189 14.1977 10.3069C14.5815 10.692 14.8426 11.1822 14.9479 11.7155C15.0531 12.2489 14.9979 12.8015 14.7892 13.3035C14.5805 13.8055 14.2276 14.2344 13.7752 14.5359C13.3228 14.8374 12.7912 14.998 12.2475 14.9975C11.8862 14.9971 11.5285 14.9255 11.1949 14.7868C10.8613 14.6481 10.5583 14.445 10.3032 14.1891C10.0481 13.9332 9.84597 13.6295 9.70832 13.2955C9.57067 12.9614 9.50022 12.6035 9.50098 12.2422ZM12.0005 10.2571C12.0005 10.7358 12.0005 11.2028 12.0005 11.6698C12.0008 11.7553 11.9674 11.8374 11.9076 11.8985C11.8326 11.9889 11.8018 12.1155 11.7497 12.2255C11.721 12.2859 11.7014 12.3609 11.6539 12.4009C11.3919 12.6204 11.1223 12.8316 10.8436 13.0549L11.1561 13.4432C11.4327 13.222 11.6976 13.0049 11.9688 12.7983C12.0291 12.7582 12.1014 12.7402 12.1734 12.7475C12.2746 12.7589 12.377 12.7406 12.4679 12.6947C12.5588 12.6488 12.6344 12.5774 12.6854 12.4892C12.7878 12.3051 12.7783 12.0651 12.6191 11.9285C12.4991 11.8256 12.4971 11.7156 12.4979 11.5852C12.4979 11.1449 12.4979 10.7045 12.4979 10.2571H12.0005Z" fill="#172F40"/>
</svg>
