<svg width="25" height="18" viewBox="0 0 25 18" fill="none" xmlns="http://www.w3.org/2000/svg">
<path d="M25 6.02137C24.8477 6.19194 24.7116 6.3814 24.5378 6.52658C24.4108 6.63335 24.2526 6.59168 24.1686 6.43153C24.0345 6.17892 23.8112 6.10601 23.5469 6.06955C21.5786 5.82042 19.6107 5.56759 17.6432 5.31108C15.967 5.09407 14.2901 4.87706 12.6126 4.66004C12.5095 4.64456 12.4043 4.64988 12.3033 4.6757C12.2022 4.70151 12.1074 4.74729 12.0243 4.81035C11.9412 4.8734 11.8716 4.95244 11.8196 5.04282C11.7676 5.1332 11.7342 5.23308 11.7213 5.33657C11.7085 5.44007 11.7165 5.54509 11.7449 5.64543C11.7733 5.74577 11.8216 5.83942 11.8867 5.92083C11.9519 6.00225 12.0327 6.0698 12.1244 6.11949C12.2161 6.16918 12.3168 6.20002 12.4206 6.21017C14.5907 6.49099 16.7593 6.76963 18.9264 7.04611C20.0714 7.19324 21.2161 7.34081 22.3607 7.48882C22.5645 7.51421 22.6569 7.61903 22.6569 7.82801C22.6565 10.6696 22.6562 13.5101 22.6562 16.3495C22.6562 16.8098 22.3177 17.1509 21.8822 17.1542C21.4355 17.1542 21.097 16.7981 21.097 16.3078C21.0944 13.6802 21.0944 11.0524 21.097 8.42436V8.04611C20.9961 8.08517 20.9167 8.11121 20.8398 8.14572C18.2313 9.27636 15.6237 10.4087 13.0169 11.5429C12.8571 11.6198 12.682 11.6598 12.5046 11.6598C12.3272 11.6598 12.152 11.6198 11.9922 11.5429C8.19314 9.8866 4.39106 8.2386 0.585938 6.59884C0.455028 6.54596 0.335866 6.46772 0.235308 6.36861C0.13475 6.26951 0.0547803 6.1515 0 6.02137L0 5.63074C0.123698 5.33973 0.338542 5.16199 0.632161 5.03569C4.41254 3.40505 8.1901 1.7666 11.9648 0.120329C12.3496 -0.0476402 12.681 -0.0352704 13.0573 0.129443C16.7786 1.75314 20.5037 3.36903 24.2324 4.9771C24.5638 5.11968 24.8594 5.27723 25 5.62814V6.02137Z" fill="white"/>
<path d="M20.2878 11.9972C20.2878 12.5336 20.334 13.0746 20.2781 13.6052C20.1635 14.6957 19.5261 15.4874 18.6908 16.1358C17.6342 16.9555 16.4122 17.4145 15.1179 17.6723C12.8907 18.1156 10.6856 18.0336 8.52871 17.2979C7.3666 16.9028 6.31126 16.3214 5.50722 15.3637C4.96621 14.7179 4.67649 13.9796 4.68756 13.1254C4.69928 12.2875 4.68756 11.4496 4.68756 10.6117C4.68756 10.2126 4.81777 10.1274 5.17975 10.2862C7.25136 11.1833 9.32623 12.072 11.392 12.9835C12.14 13.3129 12.8568 13.3162 13.6055 12.988C15.6648 12.0831 17.7318 11.1951 19.7956 10.3005C20.1967 10.1274 20.3165 10.2029 20.3165 10.6319V11.9991L20.2878 11.9972Z" fill="white"/>
</svg>
