<svg width="40" height="37" viewBox="0 0 40 37" fill="none" xmlns="http://www.w3.org/2000/svg">
<path d="M39.9134 36.0144C39.7206 36.3364 39.4179 36.4 39.0592 36.4C26.4861 36.3949 13.9129 36.3933 1.33977 36.3952C1.23747 36.3997 1.13498 36.3965 1.03317 36.3856C0.71307 36.3345 0.523134 36.1445 0.504816 35.8196C0.502616 35.7451 0.515422 35.671 0.542466 35.6016C0.56951 35.5322 0.610236 35.4689 0.662231 35.4156C0.714226 35.3622 0.776422 35.3199 0.845116 35.2911C0.91381 35.2623 0.987599 35.2476 1.06209 35.2479C1.46993 35.2286 1.87969 35.2479 2.31548 35.2479V19.1205C1.94911 19.1205 1.59237 19.1263 1.23757 19.1205C0.5482 19.1061 0.304273 18.677 0.667757 18.1034C2.0407 15.9379 3.42426 13.7792 4.79238 11.6108C5.01317 11.2618 5.30917 11.1615 5.69772 11.1625C9.29014 11.1692 12.8826 11.1625 16.475 11.1721C16.6066 11.1795 16.7382 11.1573 16.8601 11.1073C16.9821 11.0572 17.0913 10.9806 17.1798 10.8829C17.8868 10.1552 18.6038 9.4392 19.3308 8.73473C19.4332 8.64133 19.5134 8.52615 19.5655 8.39768C19.6175 8.2692 19.6401 8.13069 19.6316 7.99233C19.62 5.67066 19.6249 3.34803 19.6316 1.02636C19.6292 0.872716 19.6369 0.71908 19.6547 0.566459C19.6632 0.429163 19.7256 0.300789 19.8284 0.209379C19.9312 0.117969 20.066 0.0709528 20.2033 0.0785997C20.2712 0.0730773 20.3395 0.0810774 20.4043 0.102136C20.4691 0.123195 20.529 0.156895 20.5807 0.201283C20.6323 0.245672 20.6746 0.299867 20.7052 0.36073C20.7358 0.421593 20.7539 0.487915 20.7587 0.555853C20.7895 0.783393 20.7895 1.01479 20.8069 1.29728H21.2186C22.8609 1.29728 24.5031 1.29728 26.1454 1.29728C26.4346 1.29728 26.7239 1.31271 26.8801 1.60485C27.0363 1.89698 26.9051 2.14573 26.7393 2.38677C26.5735 2.62781 26.4096 2.87656 26.2466 3.12145C25.8398 3.7308 25.8398 3.7308 26.2572 4.35653C26.4423 4.6342 26.6352 4.90706 26.8107 5.18955C27.1279 5.70055 26.883 6.1537 26.2794 6.1537C24.6114 6.16045 22.9435 6.1537 21.2755 6.1537H20.7857C20.7857 6.68591 20.8223 7.19498 20.776 7.69634C20.7269 8.23241 20.9139 8.6065 21.3044 8.9642C21.9793 9.57836 22.6089 10.2369 23.2414 10.8925C23.3251 10.9863 23.4287 11.0601 23.5446 11.1087C23.6606 11.1572 23.7859 11.1792 23.9115 11.1731C27.4788 11.1644 31.0462 11.1731 34.6135 11.1576C35.138 11.1576 35.4591 11.3408 35.7358 11.7824C37.0605 13.9035 38.4123 16.0044 39.7563 18.113C39.8063 18.1805 39.8604 18.2449 39.9183 18.3058V18.7677C39.6965 19.0569 39.3996 19.1437 39.0505 19.1225C38.7362 19.1041 38.42 19.1225 38.0979 19.1225V35.2421C38.4518 35.2421 38.7834 35.2575 39.1132 35.2421C39.4651 35.2199 39.737 35.3288 39.9231 35.6335L39.9134 36.0144ZM36.887 19.1205H36.4136C34.4004 19.1205 32.3863 19.1138 30.3732 19.1273C30.2017 19.1331 30.031 19.1016 29.8729 19.035C29.7147 18.9685 29.5729 18.8683 29.4572 18.7416C26.489 15.7592 23.5149 12.7822 20.535 9.81072C20.429 9.70563 20.319 9.60439 20.1561 9.44916C20.0591 9.58489 19.9548 9.71524 19.8437 9.83964C16.8793 12.8073 13.9148 15.7756 10.9504 18.7445C10.8341 18.8703 10.6919 18.9693 10.5336 19.0347C10.3753 19.1002 10.2046 19.1304 10.0335 19.1234C8.01939 19.1109 6.00528 19.1167 3.99118 19.1167H3.5332V35.2083H15.9196V34.7185C15.9196 32.2812 15.9196 29.8435 15.9196 27.4055C15.9196 26.0952 16.6399 25.374 17.9357 25.3702C19.4494 25.3657 20.9631 25.3657 22.4768 25.3702C22.6944 25.3633 22.912 25.3834 23.1247 25.4299C24.003 25.6565 24.4861 26.3613 24.4871 27.4093C24.4909 29.8602 24.4909 32.3107 24.4871 34.761V35.2122H36.8831L36.887 19.1205ZM15.7403 12.3493C15.5639 12.331 15.5166 12.3223 15.4694 12.3223C12.3041 12.3223 9.13877 12.3175 5.97251 12.3339C5.82596 12.3339 5.6283 12.4804 5.54056 12.6154C4.47036 14.2709 3.41461 15.9379 2.35887 17.602C2.30006 17.6984 2.25089 17.7948 2.17858 17.9269C2.31452 17.9395 2.41093 17.9578 2.50831 17.9578C4.94375 17.9578 7.3792 17.9636 9.81368 17.9481C10.0105 17.9315 10.1951 17.8462 10.3353 17.7071C11.741 16.3207 13.1313 14.9197 14.5293 13.5265C14.8976 13.1582 15.2785 12.7986 15.7403 12.3493ZM24.732 12.3214C24.8284 12.4448 24.8766 12.5142 24.9344 12.574C26.6699 14.3094 28.3919 16.0449 30.1341 17.7601C30.2868 17.886 30.4789 17.9543 30.6769 17.953C33.0603 17.9645 35.4446 17.9607 37.8289 17.9597C37.9504 17.9597 38.0729 17.9472 38.2416 17.9385C38.1548 17.7852 38.097 17.6753 38.0304 17.5712C36.9872 15.9321 35.9383 14.293 34.9037 12.6395C34.8493 12.5341 34.7648 12.4472 34.661 12.3897C34.5572 12.3322 34.4387 12.3067 34.3204 12.3165C31.2573 12.3271 28.1942 12.3233 25.1311 12.3233L24.732 12.3214ZM17.1065 29.0156V35.2189H19.6065V29.0175L17.1065 29.0156ZM23.3089 35.218V29.0291H20.8021V35.2199L23.3089 35.218ZM20.8127 2.47451V4.96394H25.269C25.0761 4.6747 24.9228 4.42691 24.7512 4.19262C24.5266 3.88313 24.5237 3.58617 24.7512 3.27475C24.9277 3.02986 25.0858 2.77147 25.2796 2.4774L20.8127 2.47451ZM23.3098 27.8258C23.3216 27.5842 23.3197 27.3422 23.304 27.1008C23.2626 26.747 23.0389 26.5416 22.6851 26.5397C21.0312 26.5307 19.3783 26.5307 17.7264 26.5397C17.3726 26.5397 17.1479 26.746 17.1065 27.0998C17.0929 27.3416 17.0929 27.584 17.1065 27.8258H23.3098Z" fill="white"/>
<path d="M24.4821 19.2447C24.3857 21.6493 22.4111 23.5381 20.1068 23.4349C17.6964 23.3269 15.8163 21.3514 15.9291 19.048C16.0467 16.6483 17.9856 14.7913 20.2842 14.8771C22.6917 14.9658 24.5775 16.9327 24.4821 19.2447ZM23.3077 19.3219C23.4495 17.7917 22.1681 16.2549 20.6592 16.0698C20.2305 16.0107 19.7942 16.0407 19.3776 16.1581C18.9611 16.2754 18.5732 16.4774 18.2383 16.7516C17.9034 17.0257 17.6288 17.3661 17.4315 17.7513C17.2342 18.1365 17.1186 18.5582 17.0919 18.9902C17.0061 20.5916 18.2411 22.1526 20.0161 22.2615C21.6533 22.3628 23.2277 21.1055 23.3077 19.3219Z" fill="white"/>
<path d="M9.05272 23.881C9.05272 24.5221 9.05272 25.1623 9.05272 25.8025C9.05272 26.3154 8.84639 26.5227 8.32575 26.5275C7.40402 26.5353 6.48198 26.5353 5.55961 26.5275C5.0274 26.5227 4.81818 26.3068 4.81625 25.7707C4.81239 24.5154 4.81239 23.26 4.81625 22.0047C4.81625 21.3491 5.09874 21.0589 5.74376 21.0512C6.53822 21.0415 7.33268 21.0415 8.12714 21.0512C8.78565 21.0589 9.04887 21.3337 9.05369 21.998C9.05562 22.6256 9.05272 23.2533 9.05272 23.881ZM7.87453 22.2284H5.99733V23.4972H7.87453V22.2284ZM5.98962 24.6966V25.3445H7.87453V24.6966H5.98962Z" fill="white"/>
<path d="M14.6043 23.8898C14.6043 24.5426 14.6111 25.1963 14.6043 25.85C14.5976 26.3012 14.397 26.5181 13.9487 26.5249C12.9749 26.5384 12.0011 26.5384 11.0273 26.5249C10.5906 26.5181 10.3727 26.2886 10.3698 25.8403C10.3592 24.5339 10.3563 23.2275 10.3698 21.9211C10.3755 21.3541 10.6667 21.0659 11.2269 21.0533C12.0721 21.0379 12.9177 21.0379 13.7636 21.0533C14.3276 21.0639 14.5947 21.3512 14.6033 21.9278C14.612 22.5825 14.6043 23.2362 14.6043 23.8898ZM11.5412 23.4926H13.4174V22.2334H11.5412V23.4926ZM13.4358 24.7055H11.546V25.3447H13.4358V24.7055Z" fill="white"/>
<path d="M30.0463 23.8872C30.0463 24.5149 30.0521 25.1406 30.0463 25.7702C30.0405 26.3063 29.8303 26.5232 29.302 26.528C28.3796 26.5357 27.4572 26.5357 26.5348 26.528C26.0132 26.5232 25.8108 26.3207 25.8079 25.8039C25.8021 24.5236 25.8021 23.2425 25.8079 21.9609C25.8079 21.3399 26.0798 21.0623 26.693 21.0526C27.5125 21.0411 28.3323 21.0411 29.1525 21.0526C29.7532 21.0613 30.0337 21.3534 30.0443 21.9647C30.0549 22.6059 30.0463 23.2441 30.0463 23.8872ZM28.8681 22.2318H26.9928V23.4938H28.8681V22.2318ZM28.8604 25.3508V24.7116H26.9899V25.3508H28.8604Z" fill="white"/>
<path d="M31.3576 23.858C31.3576 23.2179 31.3518 22.5777 31.3576 21.9365C31.3653 21.3484 31.6381 21.063 32.2253 21.0533C33.0609 21.0398 33.8936 21.0398 34.7234 21.0533C35.2865 21.063 35.5815 21.3532 35.5912 21.9114C35.6027 23.2179 35.5998 24.5252 35.5912 25.8317C35.5912 26.2945 35.3694 26.5191 34.9037 26.5249C33.9434 26.5365 32.9828 26.5365 32.0219 26.5249C31.5572 26.5181 31.3614 26.2954 31.3566 25.8182C31.3528 25.1654 31.3576 24.5117 31.3576 23.858ZM32.5348 23.4955H34.413V22.2296H32.5348V23.4955ZM34.4168 25.3534V24.7084H32.5396V25.3534H34.4168Z" fill="white"/>
<path d="M9.05291 30.883C9.05291 31.4471 9.05291 32.0111 9.05291 32.5751C9.05291 33.0996 8.85236 33.3079 8.3404 33.3127C7.40389 33.3191 6.46802 33.3191 5.5328 33.3127C5.03722 33.3079 4.82029 33.0967 4.81643 32.6098C4.80936 31.4529 4.80936 30.2991 4.81643 29.1485C4.81643 28.6732 5.02854 28.463 5.49712 28.4592C6.46127 28.4527 7.42253 28.4527 8.38089 28.4592C8.85043 28.4592 9.04519 28.6694 9.05098 29.1514C9.05772 29.7289 9.05291 30.3065 9.05291 30.883ZM5.97727 30.2824H7.86603V29.6499H5.97727V30.2824ZM7.87182 32.1422V31.4962H6.00041V32.1422H7.87182Z" fill="white"/>
<path d="M14.6047 30.8609C14.6047 31.451 14.6114 32.0401 14.6047 32.6301C14.5979 33.1026 14.3935 33.3118 13.9221 33.3166C12.9733 33.325 12.0246 33.325 11.0759 33.3166C10.5938 33.3166 10.373 33.0958 10.3692 32.6031C10.3595 31.4622 10.3595 30.3213 10.3692 29.1804C10.3692 28.6656 10.5832 28.466 11.1039 28.4631C12.0391 28.4586 12.975 28.4586 13.9115 28.4631C14.407 28.4631 14.5999 28.6636 14.6066 29.1679C14.6105 29.7281 14.6056 30.2921 14.6047 30.8609ZM13.4236 30.293V29.6519H11.5483V30.293H13.4236ZM11.5474 31.4876V32.1307H13.4255V31.4876H11.5474Z" fill="white"/>
<path d="M25.8061 30.8483C25.8061 30.2698 25.7984 29.6913 25.8061 29.1177C25.8138 28.6645 26.0143 28.463 26.4685 28.4601C27.4326 28.4524 28.3942 28.4524 29.3532 28.4601C29.8208 28.4601 30.0358 28.6713 30.0397 29.1456C30.0499 30.3026 30.0499 31.4564 30.0397 32.6069C30.0397 33.0958 29.815 33.3088 29.3252 33.3127C28.3894 33.3204 27.4535 33.3204 26.5176 33.3127C26.0037 33.3127 25.808 33.1044 25.8032 32.579C25.8003 32.0024 25.8051 31.4249 25.8061 30.8483ZM26.9737 30.2747H28.8624V29.646H26.9737V30.2747ZM26.9737 32.1326H28.8653V31.4885H26.9737V32.1326Z" fill="white"/>
<path d="M31.3574 30.8597C31.3574 30.2812 31.3516 29.7027 31.3574 29.13C31.3632 28.6749 31.5647 28.4647 32.0111 28.4609C32.9849 28.4531 33.959 28.4531 34.9334 28.4609C35.3769 28.4609 35.5871 28.6778 35.591 29.1358C35.6 30.3024 35.6 31.4687 35.591 32.6347C35.591 33.0965 35.3644 33.3096 34.891 33.3096C33.9423 33.3179 32.9936 33.3179 32.0448 33.3096C31.5705 33.3047 31.3632 33.0946 31.3564 32.626C31.3516 32.0379 31.3574 31.4478 31.3574 30.8597ZM32.5298 30.2812H34.4195V29.641H32.526L32.5298 30.2812ZM34.4311 31.4931H32.5462V32.1285H34.4311V31.4931Z" fill="white"/>
<path d="M19.6287 18.5764C19.6287 18.1358 19.618 17.7656 19.6287 17.3963C19.6441 16.9644 19.861 16.7339 20.2168 16.7416C20.5552 16.7494 20.7644 16.973 20.775 17.3867C20.7885 17.9488 20.7895 18.5128 20.775 19.0749C20.7625 19.5261 20.5629 19.7189 20.1001 19.7305C19.5506 19.745 18.9991 19.745 18.4495 19.7305C18.0156 19.7199 17.7833 19.4991 17.7881 19.152C17.7929 18.8049 18.0291 18.5967 18.463 18.5832C18.8352 18.5677 19.2044 18.5764 19.6287 18.5764Z" fill="white"/>
</svg>
