<svg width="40" height="33" viewBox="0 0 40 33" fill="none" xmlns="http://www.w3.org/2000/svg">
<path d="M20.2083 0.250938C25.8613 0.250938 31.5143 0.283516 37.166 0.230884C38.8715 0.214593 39.9367 1.36499 39.9229 2.99409C39.8879 9.3977 39.9092 15.8026 39.9079 22.2062C39.9079 24.0082 38.9543 24.9631 37.151 24.9631H3.24565C1.44989 24.9631 0.5 24.0082 0.5 22.2062C0.5 15.7533 0.5 9.30163 0.5 2.85123C0.5 1.55296 1.17921 0.616856 2.31456 0.318606C2.62166 0.256806 2.93551 0.23532 3.24816 0.254694C8.90239 0.250517 14.5558 0.249268 20.2083 0.250938ZM29.5193 23.9969C29.6759 24.0044 29.8313 24.0195 29.9867 24.0195C32.3677 24.0195 34.7487 24.0195 37.1297 24.0195C38.4417 24.0195 38.948 23.512 38.948 22.1999V2.98782C38.948 2.83118 38.948 2.67328 38.938 2.51789C38.8791 1.78354 38.3277 1.20835 37.5933 1.20459C34.9003 1.19205 32.2048 1.20459 29.5143 1.20459H28.5694C28.429 1.19832 28.2887 1.18829 28.1483 1.18829H3.20054C1.97872 1.18829 1.46744 1.70334 1.46744 2.93143C1.46744 8.1621 1.46744 13.3928 1.46744 18.6234C1.46744 19.9079 1.46744 21.1924 1.46744 22.4756C1.46744 23.1022 1.71807 23.5621 2.28199 23.8453C2.58429 23.9776 2.91385 24.0356 3.24315 24.0145H28.1433C28.2837 24.0145 28.424 23.9994 28.5644 23.9907C28.8809 24.0365 29.2022 24.0386 29.5193 23.9969Z" fill="white"/>
<path d="M20.1892 32.4176C17.6215 32.4176 15.0513 32.4176 12.4874 32.4176C11.5249 32.4176 10.8395 31.6807 10.9084 30.7684C10.966 29.9927 11.6114 29.3899 12.4573 29.3586C12.9886 29.3373 13.5212 29.3586 14.0538 29.3586H16.4486C17.0451 29.3586 17.0463 29.3586 17.0463 28.7396V26.5791C17.0463 26.242 17.0965 25.9212 17.5263 25.9187C17.9561 25.9162 18.0138 26.232 18.0138 26.5716C18.0138 27.3699 18.0251 28.1681 18.0075 28.9664C18.0075 29.2772 18.1115 29.3686 18.4135 29.3649C19.6191 29.3507 20.8246 29.3507 22.0301 29.3649C22.3221 29.3649 22.4061 29.2621 22.4061 28.9814C22.3923 28.2145 22.4061 27.4476 22.4061 26.6806C22.4061 26.3297 22.3835 25.9287 22.8785 25.9212C23.3735 25.9137 23.3723 26.2972 23.3723 26.6581C23.3723 27.41 23.3885 28.1619 23.3723 28.9138C23.3622 29.2609 23.4675 29.3737 23.8209 29.3674C25.1354 29.3486 26.4525 29.3674 27.7658 29.3599C28.1982 29.3599 28.6042 29.4238 28.95 29.717C29.1908 29.9079 29.3678 30.1676 29.4573 30.4615C29.5469 30.7555 29.5448 31.0697 29.4513 31.3624C29.3614 31.6654 29.1769 31.9316 28.9248 32.1221C28.6727 32.3127 28.3663 32.4175 28.0503 32.4213C26.3748 32.4351 24.7006 32.4288 23.0251 32.4288L20.1892 32.4176ZM20.2068 30.3148H12.7844C12.6279 30.3078 12.4711 30.3141 12.3157 30.3336C12.1892 30.3497 12.073 30.4115 11.9888 30.5072C11.9046 30.603 11.8582 30.7261 11.8583 30.8536C11.8427 30.9885 11.8784 31.1243 11.9583 31.234C12.0381 31.3438 12.1563 31.4196 12.2894 31.4464C12.4431 31.4741 12.5997 31.4829 12.7555 31.4727H27.6543C27.7948 31.4809 27.9358 31.4759 28.0753 31.4576C28.2183 31.441 28.3488 31.3686 28.4387 31.2562C28.5286 31.1438 28.5705 31.0005 28.5553 30.8574C28.558 30.7208 28.507 30.5886 28.4133 30.4893C28.3195 30.3899 28.1905 30.3313 28.054 30.326C27.8978 30.3127 27.7409 30.3081 27.5841 30.3123L20.2068 30.3148Z" fill="white"/>
<path d="M29.5127 1.2085C29.5127 8.80511 29.5127 16.4009 29.5127 23.9958C29.1955 24.0397 28.8738 24.0397 28.5566 23.9958C28.5566 20.1436 28.5595 16.2914 28.5654 12.4393C28.5654 8.69567 28.5654 4.95292 28.5654 1.211L29.5127 1.2085Z" fill="white"/>
<path d="M15.1354 4.29834H25.7497C26.4489 4.29834 26.5818 4.42366 26.5818 5.10788C26.5818 10.1205 26.5818 15.1298 26.5818 20.1357C26.5818 20.7974 26.4414 20.9377 25.7885 20.9377H4.37337C3.72674 20.9377 3.5889 20.7961 3.58765 20.1282C3.58765 15.1156 3.58765 10.1063 3.58765 5.10036C3.58765 4.4387 3.72675 4.29959 4.37964 4.29834H15.1354ZM15.1354 5.23946C11.7845 5.23946 8.43359 5.24823 5.08266 5.22818C4.62024 5.22818 4.51874 5.36227 4.52125 5.80589C4.54046 9.29717 4.54046 12.7893 4.52125 16.2822C4.52125 16.6833 4.60646 16.8123 5.03504 16.8111C11.7369 16.796 18.4388 16.796 25.1406 16.8111C25.5692 16.8111 25.6557 16.6858 25.6532 16.2822C25.6381 12.7901 25.6381 9.29801 25.6532 5.80589C25.6532 5.36227 25.5554 5.22567 25.093 5.22818C21.7722 5.25199 18.4513 5.24321 15.1317 5.24321L15.1354 5.23946ZM16.7645 19.9978C19.5503 19.9978 22.3361 19.9878 25.1206 20.0091C25.5655 20.0091 25.6983 19.8775 25.6557 19.4552C25.6243 19.1307 25.6557 18.7986 25.6557 18.4703C25.6557 17.7497 25.6557 17.7484 24.9577 17.7484H10.4374C9.71807 17.7484 8.99751 17.7597 8.2782 17.7484C7.99874 17.7484 7.88345 17.8236 7.90225 18.1244C7.93358 18.5771 7.93358 19.0314 7.90225 19.4841C7.85839 19.9427 8.04887 20.0179 8.4574 20.0166C11.2181 19.9941 13.9876 20.0016 16.752 20.0016L16.7645 19.9978ZM5.75936 19.9978C6.05636 19.9978 6.35461 19.9866 6.65161 19.9978C6.90224 20.0104 6.97867 19.9076 6.97366 19.6683C6.9628 19.1361 6.9628 18.6039 6.97366 18.0717C6.97366 17.8324 6.89722 17.7321 6.6491 17.7422C6.28944 17.756 5.92979 17.7422 5.57014 17.7422C4.53503 17.7422 4.53503 17.7422 4.53503 18.7848C4.52751 20.0016 4.52751 20.0016 5.75184 20.0016L5.75936 19.9978Z" fill="white"/>
<path d="M34.0206 8.61087C33.1434 8.61087 32.2662 8.61087 31.389 8.61087C30.7862 8.61087 30.6371 8.45674 30.6371 7.87152C30.6371 6.79297 30.6371 5.71358 30.6371 4.63337C30.6371 4.1321 30.8038 3.95541 31.31 3.9529C33.1547 3.94539 35.0001 3.94539 36.8465 3.9529C37.3477 3.9529 37.5056 4.13587 37.5069 4.6459C37.5069 5.74032 37.5069 6.83474 37.5069 7.92916C37.5069 8.43042 37.3427 8.60461 36.8352 8.60963C35.8978 8.6184 34.9592 8.61087 34.0206 8.61087ZM34.0206 7.60835C34.7399 7.60835 35.4592 7.60083 36.1785 7.60835C36.4467 7.60835 36.5795 7.5482 36.5708 7.24494C36.5532 6.58954 36.5557 5.93163 36.5708 5.27498C36.5708 4.99929 36.4605 4.93037 36.2074 4.93287C34.7838 4.94039 33.3602 4.9429 31.9366 4.93287C31.6384 4.93287 31.5607 5.0444 31.5707 5.31884C31.5857 5.96046 31.5882 6.60207 31.5707 7.24369C31.5619 7.53943 31.6797 7.61963 31.9554 7.61086C32.6459 7.60459 33.3339 7.61337 34.0231 7.61337L34.0206 7.60835Z" fill="white"/>
<path d="M34.0682 10.2273C34.9918 10.2273 35.9154 10.2273 36.8389 10.2273C37.3678 10.2273 37.5056 10.3677 37.5081 10.894C37.5081 12.0043 37.4994 13.1158 37.5081 14.2261C37.5081 14.6459 37.3314 14.8314 36.9229 14.8314H31.201C30.8088 14.8314 30.6358 14.6296 30.6371 14.2462C30.6371 13.1045 30.6371 11.9617 30.6371 10.8188C30.6371 10.4078 30.8501 10.226 31.2511 10.2273C32.191 10.2298 33.1296 10.2273 34.0682 10.2273ZM34.0457 13.8928C34.78 13.8928 35.5156 13.8853 36.2512 13.8928C36.4918 13.8928 36.5833 13.8151 36.5795 13.5682C36.567 12.8802 36.5658 12.1897 36.5795 11.5043C36.5858 11.2323 36.4818 11.1584 36.2237 11.1596C34.785 11.1688 33.346 11.1688 31.9065 11.1596C31.6634 11.1596 31.5757 11.2386 31.5795 11.4842C31.592 12.1722 31.5945 12.8627 31.5795 13.5494C31.5795 13.8201 31.6735 13.8978 31.9341 13.8928C32.6309 13.884 33.3351 13.8928 34.0457 13.8928Z" fill="white"/>
<path d="M34.1082 16.5083C35.0481 16.5083 35.9879 16.517 36.9265 16.5083C37.3476 16.5083 37.5168 16.6862 37.513 17.1035C37.5022 18.2305 37.5022 19.3584 37.513 20.487C37.513 20.9357 37.2812 21.1136 36.8789 21.1136C35 21.1203 33.1203 21.1203 31.2397 21.1136C30.8299 21.1136 30.6219 20.9006 30.6282 20.4607C30.6432 19.3488 30.6432 18.2376 30.6282 17.1273C30.6282 16.6875 30.7974 16.5008 31.241 16.5083C32.1984 16.5183 33.1545 16.5083 34.1082 16.5083ZM34.0932 17.4494C33.3751 17.4494 32.6558 17.4569 31.9377 17.4494C31.6871 17.4494 31.5618 17.5058 31.5731 17.7865C31.5881 18.4732 31.5881 19.1604 31.5731 19.8479C31.5731 20.1324 31.6984 20.1825 31.9415 20.1813C33.3626 20.1737 34.7849 20.17 36.2022 20.1813C36.498 20.1813 36.5782 20.071 36.5694 19.7953C36.5544 19.1562 36.5493 18.5146 36.5694 17.8742C36.5807 17.5522 36.4854 17.4331 36.1496 17.4444C35.4691 17.4644 34.7811 17.4494 34.0932 17.4494Z" fill="white"/>
<path d="M9.48376 11.2159C9.48376 11.855 9.48376 12.4928 9.48376 13.1307C9.48376 13.4665 9.44866 13.7911 9.01883 13.8024C8.589 13.8137 8.53637 13.5004 8.53888 13.1557C8.53888 12.3111 8.55141 11.4652 8.53888 10.6206C8.53262 10.2823 8.6454 10.068 8.96997 9.93013C10.9951 9.06629 13.0172 8.19493 15.0365 7.31605C15.1356 7.27234 15.2431 7.25103 15.3514 7.25363C15.4597 7.25623 15.5661 7.28268 15.6631 7.33109C17.6681 8.19911 19.6731 9.06587 21.6782 9.93138C21.905 10.0291 22.098 10.1407 22.098 10.4326C22.098 10.7246 21.905 10.8374 21.6794 10.9339C19.6744 11.7973 17.6606 12.657 15.6555 13.5292C15.3798 13.6545 15.148 13.5994 14.8949 13.4891C13.2474 12.7731 11.5982 12.063 9.94742 11.3587C9.81835 11.2911 9.68677 11.1971 9.48376 11.2159ZM20.405 10.4527C20.3433 10.4063 20.2784 10.3644 20.2107 10.3274C18.6618 9.65944 17.1117 8.99903 15.5666 8.32233C15.4814 8.28633 15.3891 8.27032 15.2968 8.27553C15.2045 8.28075 15.1145 8.30704 15.034 8.3524C13.602 8.97397 12.1693 9.59386 10.7357 10.2121C10.584 10.2785 10.3986 10.296 10.2908 10.4727C11.6868 11.0743 13.0916 11.6407 14.46 12.2835C15.0778 12.5743 15.5879 12.583 16.2144 12.2835C17.5791 11.6382 18.9776 11.0717 20.4075 10.4527H20.405Z" fill="white"/>
<path d="M15.8396 14.9679C14.1993 14.9829 12.5627 14.8084 10.9623 14.4478C10.5388 14.3513 10.3471 14.1245 10.3684 13.6959C10.3821 13.4315 10.3596 13.1634 10.3834 12.8989C10.3824 12.8396 10.3937 12.7807 10.4165 12.7258C10.4394 12.671 10.4732 12.6215 10.516 12.5804C10.5588 12.5392 10.6096 12.5073 10.6653 12.4867C10.7209 12.466 10.7803 12.4571 10.8395 12.4603C11.1202 12.4603 11.3408 12.6207 11.3095 12.8714C11.1954 13.6433 11.7255 13.6496 12.2305 13.7386C14.4847 14.1316 16.792 14.1049 19.0364 13.6596C19.3923 13.5907 19.5189 13.4491 19.475 13.107C19.465 12.998 19.4765 12.8882 19.5089 12.7836C19.5302 12.6823 19.5881 12.5923 19.6716 12.5308C19.755 12.4694 19.8581 12.4407 19.9612 12.4503C20.2044 12.4641 20.3886 12.5944 20.3998 12.8526C20.4194 13.2283 20.4194 13.6047 20.3998 13.9804C20.381 14.3163 20.0991 14.3839 19.8359 14.4478C18.5262 14.7633 17.1865 14.9377 15.8396 14.9679Z" fill="white"/>
<path d="M8.5486 14.8479C8.53733 14.522 8.53733 14.1975 8.98094 14.1624C9.34812 14.1348 9.49474 14.3629 9.4822 14.9268C9.4822 15.2814 9.42957 15.616 8.96591 15.5847C8.50224 15.5534 8.54735 15.1762 8.5486 14.8479Z" fill="white"/>
</svg>
