<svg width="40" height="38" viewBox="0 0 40 38" fill="none" xmlns="http://www.w3.org/2000/svg">
<path d="M39.9221 30.257C39.6757 30.8912 39.2108 31.1335 38.5365 31.114C37.4721 31.0842 36.4068 31.114 35.3425 31.1047C34.5388 31.1047 34.1037 30.6757 34.0914 29.8731C34.0821 29.3127 34.0914 28.7513 34.0914 28.2073C33.7332 28.0872 33.5782 28.194 33.4468 28.5091C32.4882 30.8697 30.8224 32.634 28.7358 34.0514C26.2258 35.7509 23.439 37.0004 20.5004 37.7442C20.3424 37.7921 20.175 37.8006 20.0129 37.7688C16.3468 36.8082 12.9701 35.2573 10.0573 32.79C8.70531 31.6346 7.64954 30.1724 6.97823 28.5255C6.82017 28.1458 6.82017 28.1458 6.33881 28.194C6.33881 28.6959 6.33881 29.206 6.33881 29.715C6.33881 30.7178 5.94469 31.1099 4.94092 31.1099C3.87557 31.1099 2.81124 31.1099 1.74589 31.1099C0.785226 31.1099 0.230996 30.375 0.637432 29.5149C1.08595 28.5645 1.09005 27.7096 0.631273 26.7581C0.22997 25.9258 0.79241 25.1888 1.72536 25.1796C2.27651 25.1734 2.82767 25.1724 3.37984 25.1673C3.4014 25.1673 3.42295 25.1468 3.48248 25.1149V23.908C3.48248 23.0356 3.47529 22.1632 3.48248 21.2908C3.49069 20.5774 3.90123 20.1772 4.61146 20.1679C5.07332 20.1618 5.53518 20.1679 5.99704 20.1618C6.04346 20.1541 6.08914 20.1424 6.13354 20.1269V3.96184C6.13354 2.96217 6.4086 2.56908 7.35695 2.27247C9.80788 1.50373 12.3265 1.04084 14.8555 0.619013C16.6762 0.320345 18.4888 0.0688891 20.3321 0.0770999C22.6393 0.0883897 24.9065 0.452744 27.1553 0.898181C29.1741 1.30154 31.1734 1.81163 33.1717 2.31352C33.9723 2.51879 34.2822 2.99091 34.2864 3.80378C34.2864 4.70184 34.2864 5.5999 34.2864 6.49795C34.2864 6.56159 34.2864 6.62625 34.2864 6.68988C34.2504 7.0491 34.0144 7.28414 33.6972 7.27901C33.3801 7.27388 33.1409 7.045 33.1409 6.67654C33.1317 5.76514 33.1235 4.85374 33.1409 3.94337C33.1481 3.62212 33.0517 3.47022 32.7304 3.37169C30.3626 2.64298 27.9343 2.18317 25.4946 1.77469C23.5446 1.44728 21.5863 1.10756 19.6075 1.26151C17.7457 1.40109 15.888 1.65768 14.0406 1.93993C11.8856 2.25744 9.75826 2.73988 7.67717 3.38298C7.42469 3.46303 7.29332 3.55951 7.29332 3.85407C7.30153 9.1911 7.30393 14.5281 7.3005 19.8652C7.3005 19.9524 7.31179 20.0386 7.31898 20.1453H8.66555V5.93346C8.66555 5.20988 8.82156 4.98614 9.5164 4.75829C11.6173 4.06858 13.787 3.68472 15.9598 3.31319C17.76 3.00528 19.5716 2.76614 21.3995 2.94678C23.0796 3.11407 24.7587 3.35732 26.4183 3.66522C27.9127 3.94644 29.3876 4.34672 30.8594 4.73776C31.6363 4.94303 31.7708 5.18628 31.7708 5.9817V20.1371H33.1379V19.6968C33.1379 16.3742 33.1379 13.0515 33.1379 9.72891C33.1379 9.5883 33.0927 9.40971 33.1604 9.31837C33.2867 9.13773 33.4581 8.93862 33.6531 8.86883C33.9025 8.78056 34.1375 8.93656 34.2258 9.19726C34.2754 9.36887 34.2969 9.54736 34.2894 9.72583C34.2894 13.0362 34.2894 16.3461 34.2894 19.6558V20.169C34.7821 20.169 35.2522 20.169 35.7212 20.169C36.5515 20.169 36.9395 20.559 36.9426 21.3954C36.9426 22.4988 36.9426 23.6021 36.9426 24.7054V25.1755C37.4968 25.1755 38.0182 25.1991 38.5375 25.1693C39.2108 25.1324 39.6768 25.39 39.9231 26.0253V26.5641C39.726 27.0588 39.5259 27.5525 39.337 28.0503C39.316 28.1224 39.3204 28.1996 39.3493 28.2689C39.5361 28.7544 39.7301 29.2368 39.9231 29.7202L39.9221 30.257ZM30.5935 20.1474C30.5997 20.0294 30.611 19.9298 30.611 19.8313C30.611 15.2784 30.6134 10.7255 30.6182 6.1726C30.6182 5.91191 30.5227 5.81748 30.2877 5.76206C28.6784 5.39565 27.0803 4.97587 25.4638 4.65976C23.6534 4.30669 21.8306 4.01316 19.9718 4.05421C17.5876 4.10656 15.264 4.5797 12.9424 5.05388C11.8945 5.26736 10.863 5.56705 9.85612 5.81646V20.1474H30.5935ZM35.7622 21.3431H4.66381V27.0044H13.9513C14.0921 26.9988 14.2331 27.0039 14.3731 27.0198C14.681 27.0712 14.8391 27.2713 14.8432 27.5813C14.8432 27.9323 14.5989 28.1519 14.1699 28.156C13.2718 28.1642 12.3748 28.156 11.4767 28.156C11.3577 28.156 11.2396 28.1714 11.0662 28.1827C11.5425 28.9385 12.1388 29.6117 12.8315 30.1759C14.9684 31.9032 17.3988 33.0497 20.0406 33.7558C20.1768 33.7845 20.3181 33.7782 20.4511 33.7373C22.1401 33.2952 23.7624 32.6294 25.275 31.7575C26.6216 30.9734 27.9066 30.1081 28.8785 28.857C29.0386 28.6517 29.1864 28.4311 29.3794 28.155H17.329C17.1882 28.1617 17.0471 28.1566 16.9072 28.1396C16.7631 28.1288 16.629 28.0623 16.5332 27.9542C16.4374 27.8462 16.3874 27.705 16.394 27.5607C16.3858 27.2528 16.6249 27.0301 16.9636 27.0065C17.1042 26.9962 17.2458 27.0014 17.3875 27.0014H35.7592L35.7622 21.3431ZM32.3342 28.1591C31.8621 28.1591 31.4434 28.1745 31.0267 28.1529C30.7855 28.1416 30.6603 28.235 30.5474 28.4372C29.9821 29.4478 29.2281 30.3404 28.3263 31.0667C26.0119 32.9511 23.365 34.1725 20.4932 34.9279C20.2813 34.972 20.0617 34.9635 19.8538 34.9033C18.2008 34.4854 16.6057 33.8648 15.1049 33.0558C12.9762 31.895 11.0231 30.532 9.81199 28.3346C9.78825 28.2928 9.75596 28.2565 9.71723 28.228C9.6785 28.1995 9.63419 28.1795 9.58721 28.1694C9.10791 28.154 8.62758 28.1622 8.15032 28.1622C8.14518 28.2048 8.14518 28.2479 8.15032 28.2905C8.17701 28.3623 8.2078 28.4331 8.24064 28.5019C8.86675 29.8582 9.78709 31.0579 10.9348 32.0141C13.6136 34.2382 16.6916 35.6771 20.0365 36.5731C20.1969 36.6056 20.3629 36.5967 20.5189 36.5475C22.3537 36.0636 24.1262 35.3682 25.8005 34.4753C27.7249 33.4304 29.56 32.2614 30.9456 30.5146C31.5203 29.8009 31.9881 29.0075 32.3342 28.1591ZM5.16569 28.1704C4.6597 28.1427 4.05826 28.273 3.77909 27.7855C3.54098 27.3698 3.49993 26.8423 3.36855 26.3486H1.74486C1.92858 26.9675 2.24778 27.5628 2.24778 28.1581C2.24778 28.7534 1.9255 29.3343 1.74281 29.9316H5.16569V28.1704ZM35.2624 29.9337H38.6904C38.5057 29.3178 38.1855 28.7246 38.1865 28.1304C38.1875 27.5361 38.5088 26.949 38.6935 26.3466H37.0667C36.9313 26.8536 36.8902 27.3729 36.6562 27.7783C36.3719 28.2853 35.752 28.1263 35.2583 28.1817L35.2624 29.9337Z" fill="white"/>
<path d="M27.461 11.4476C26.7426 11.7555 26.0775 12.0213 25.4299 12.322C25.3354 12.3661 25.2677 12.5642 25.2656 12.6915C25.2523 13.5762 25.2451 14.462 25.2656 15.3456C25.279 16.0292 24.9998 16.4746 24.3614 16.7517C22.749 17.4466 21.0617 17.6539 19.3272 17.5934C17.9173 17.5306 16.5241 17.2619 15.192 16.7959C14.5239 16.5701 14.2303 16.1924 14.2262 15.4914C14.2201 14.6067 14.2016 13.7209 14.2355 12.8372C14.2498 12.4606 14.1072 12.3005 13.7808 12.1732C12.9946 11.8653 12.2238 11.5174 11.4428 11.1971C11.102 11.0586 10.8731 10.8492 10.8783 10.4612C10.8783 10.0918 11.103 9.89264 11.4284 9.75511C13.9977 8.67128 16.5663 7.58335 19.1342 6.49131C19.3279 6.4045 19.5378 6.35962 19.75 6.35962C19.9623 6.35962 20.1722 6.4045 20.3658 6.49131C22.9228 7.57514 25.4805 8.65725 28.0389 9.73766C28.4494 9.90906 28.629 10.18 28.6218 10.6255C28.6064 11.5738 28.6218 12.5232 28.6136 13.4715C28.6136 13.6768 28.6516 13.8184 28.8538 13.9375C29.0626 14.0541 29.237 14.2236 29.3595 14.429C29.4821 14.6344 29.5483 14.8684 29.5517 15.1075C29.5776 15.5708 29.5766 16.0351 29.5486 16.4982C29.5155 16.8797 29.3374 17.2339 29.051 17.488C28.7646 17.7421 28.3917 17.8768 28.0091 17.8643C27.6201 17.855 27.2497 17.6964 26.9744 17.4215C26.6991 17.1466 26.54 16.7763 26.5301 16.3874C26.5188 16.0035 26.525 15.6187 26.5301 15.2338C26.5352 14.6795 26.7826 14.2618 27.227 13.9334C27.2908 13.8827 27.3438 13.8198 27.3831 13.7485C27.4224 13.6771 27.4471 13.5987 27.4559 13.5177C27.4744 12.8475 27.461 12.1814 27.461 11.4476ZM12.6939 10.4715C15.0545 11.4712 17.3032 12.4288 19.5612 13.3668C19.709 13.4274 19.9399 13.3668 20.1041 13.3001C21.6888 12.6422 23.2684 11.9659 24.8479 11.3008C24.9588 11.2536 25.0645 11.1982 25.1723 11.1417L25.1558 11.0637H20.4049C20.1226 11.0637 19.8619 11.0227 19.7192 10.7394C19.514 10.3227 19.8034 9.9183 20.3351 9.91214C21.7843 9.90393 23.2345 9.91214 24.6837 9.91214H25.3406C25.2776 9.86331 25.2114 9.81873 25.1425 9.77871C23.4213 9.04898 21.7022 8.31411 19.9748 7.59977C19.7959 7.54653 19.6038 7.55853 19.4329 7.63364C18.0483 8.20532 16.671 8.79547 15.2916 9.37844L12.6939 10.4715ZM15.3757 12.8834C15.3757 13.725 15.3901 14.5184 15.3675 15.3107C15.3603 15.5899 15.4702 15.6772 15.7134 15.7562C16.9649 16.181 18.2738 16.4128 19.5951 16.4438C21.0412 16.4705 22.4576 16.3053 23.8031 15.7336C24.0268 15.6392 24.111 15.5211 24.1059 15.2789C24.0884 14.8304 24.1007 14.3819 24.1007 13.9324V12.866C22.8568 13.3935 21.6857 13.8728 20.528 14.386C20.2799 14.5044 20.0083 14.5653 19.7334 14.5642C19.4585 14.5631 19.1874 14.5001 18.9402 14.3798C17.9016 13.9149 16.8475 13.4828 15.7986 13.0384C15.6754 12.9861 15.5451 12.944 15.3757 12.8834ZM27.6807 15.7572C27.6807 15.9625 27.6365 16.1801 27.6961 16.3648C27.7392 16.5013 27.9167 16.6799 28.0368 16.682C28.1158 16.6647 28.189 16.6273 28.2493 16.5733C28.3096 16.5194 28.3548 16.4507 28.3806 16.374C28.4248 15.9812 28.4248 15.5846 28.3806 15.1917C28.3673 15.0706 28.1415 14.8663 28.046 14.8838C27.9075 14.9084 27.7484 15.0798 27.6909 15.2256C27.6334 15.3713 27.6807 15.5745 27.6807 15.7531V15.7572Z" fill="white"/>
<path d="M29.6722 24.8425C29.0317 24.6711 28.8152 24.4925 28.8357 24.1241C28.8573 23.7361 29.12 23.575 29.7307 23.5739H29.9996C30.8422 23.5739 31.0444 23.8131 30.91 24.6526C30.7704 25.525 30.1299 26.2034 29.3304 26.3266C28.8642 26.4009 28.3865 26.3237 27.9673 26.1065C27.5482 25.8892 27.2097 25.5434 27.0016 25.1196C26.7958 24.6961 26.7313 24.2177 26.8177 23.7548C26.904 23.2919 27.1367 22.8689 27.4814 22.5481C27.8261 22.2273 28.2647 22.0256 28.7326 21.9727C29.2005 21.9197 29.673 22.0184 30.0807 22.254C30.3311 22.4039 30.5415 22.6184 30.4296 22.9048C30.3269 23.1113 30.1531 23.2739 29.9401 23.3625C29.8169 23.4149 29.6055 23.2948 29.4464 23.224C28.7823 22.9273 28.0752 23.2855 27.9469 23.9917C27.8186 24.6978 28.4857 25.3372 29.1785 25.1617C29.3561 25.1196 29.5069 24.9534 29.6722 24.8425Z" fill="white"/>
<path d="M12.7637 26.3516C12.4746 26.3546 12.1878 26.3005 11.9197 26.1924C11.6515 26.0843 11.4073 25.9244 11.2011 25.7218C10.9949 25.5192 10.8306 25.2779 10.7178 25.0117C10.605 24.7455 10.5459 24.4597 10.5437 24.1706C10.5387 23.5878 10.7654 23.0269 11.1739 22.6112C11.5824 22.1956 12.1394 21.9592 12.7222 21.9542C13.3049 21.9491 13.8659 22.1758 14.2815 22.5844C14.6972 22.9929 14.9335 23.5498 14.9386 24.1326C14.9433 24.4216 14.8906 24.7087 14.7836 24.9772C14.6765 25.2456 14.5172 25.4902 14.3149 25.6966C14.1126 25.903 13.8713 26.0672 13.605 26.1797C13.3387 26.2921 13.0528 26.3505 12.7637 26.3516ZM13.7798 24.1726C13.7814 24.0346 13.7557 23.8976 13.704 23.7697C13.6524 23.6417 13.5758 23.5252 13.4788 23.427C13.3819 23.3287 13.2664 23.2507 13.139 23.1974C13.0117 23.1442 12.8751 23.1167 12.737 23.1165C12.4649 23.1222 12.2054 23.2326 12.0125 23.4247C11.8197 23.6168 11.7083 23.8759 11.7014 24.148C11.6997 24.42 11.8046 24.6819 11.9935 24.8775C12.1825 25.0732 12.4405 25.1871 12.7124 25.1949C12.8506 25.2004 12.9885 25.178 13.1178 25.1289C13.2471 25.0798 13.3651 25.005 13.4648 24.9092C13.5645 24.8133 13.6438 24.6983 13.6979 24.571C13.7521 24.4437 13.7799 24.3068 13.7798 24.1685V24.1726Z" fill="white"/>
<path d="M8.06799 26.3513C7.73217 26.349 7.40136 26.2696 7.10103 26.1194C6.80071 25.9691 6.53888 25.7519 6.33572 25.4845C6.13255 25.2171 5.99347 24.9066 5.92919 24.577C5.8649 24.2474 5.87713 23.9074 5.96493 23.5833C6.05273 23.2592 6.21375 22.9595 6.4356 22.7074C6.65745 22.4553 6.93421 22.2574 7.24455 22.1291C7.5549 22.0008 7.89055 21.9455 8.22566 21.9673C8.56078 21.9891 8.8864 22.0876 9.17747 22.2551C9.44535 22.4111 9.65472 22.6338 9.52438 22.9366C9.41775 23.1389 9.23783 23.2927 9.02147 23.3666C8.8788 23.4139 8.6684 23.264 8.49289 23.1973C8.29958 23.116 8.08628 23.0949 7.88077 23.1366C7.67527 23.1783 7.4871 23.281 7.34077 23.4312C7.19444 23.5814 7.09675 23.7722 7.06042 23.9787C7.02409 24.1852 7.0508 24.3979 7.13708 24.589C7.22101 24.7853 7.36654 24.949 7.55171 25.0553C7.73687 25.1616 7.95159 25.2047 8.16344 25.1782C8.34775 25.1397 8.52018 25.0577 8.66635 24.939C8.99067 24.6978 9.29345 24.6824 9.52438 24.9318C9.75531 25.1812 9.72965 25.5097 9.45459 25.7878C9.27724 25.9755 9.06168 26.1229 8.82247 26.2201C8.58326 26.3173 8.32597 26.362 8.06799 26.3513Z" fill="white"/>
<path d="M24.3449 23.1412V23.5713C24.5009 23.5785 24.6528 23.5898 24.7965 23.5928C25.3097 23.6021 25.5878 23.8115 25.5806 24.182C25.5734 24.5525 25.3025 24.7403 24.816 24.7475C24.6764 24.7475 24.5368 24.7475 24.3572 24.7475L24.3131 25.196C24.5553 25.196 24.7667 25.1909 24.9782 25.196C25.4236 25.2083 25.6853 25.4331 25.6781 25.7903C25.6709 26.1474 25.4185 26.3414 24.9894 26.3476C24.6056 26.3476 24.2207 26.3548 23.8358 26.3476C23.3945 26.3394 23.18 26.1536 23.1749 25.7246C23.1618 24.6859 23.1618 23.6476 23.1749 22.6096C23.18 22.1991 23.3904 22.0082 23.8071 21.9938C24.2238 21.9794 24.6538 21.9825 25.0767 21.9938C25.4441 22.0051 25.6761 22.237 25.6771 22.5583C25.6779 22.708 25.6199 22.8521 25.5154 22.9595C25.411 23.0668 25.2685 23.1288 25.1188 23.132C24.8796 23.1597 24.6353 23.1412 24.3449 23.1412Z" fill="white"/>
<path d="M33.2239 23.137V23.5639C33.6971 23.6666 34.4268 23.3956 34.4247 24.1797C34.4227 24.9639 33.6817 24.6703 33.2177 24.7873C33.2126 24.9126 33.2075 25.0255 33.2003 25.1979C33.4446 25.1979 33.6693 25.1897 33.8941 25.1979C34.3149 25.2174 34.552 25.4452 34.5387 25.8024C34.5253 26.1432 34.2954 26.3412 33.8828 26.3474C33.4702 26.3536 33.0617 26.3577 32.6512 26.3474C32.2602 26.3361 32.0559 26.1421 32.0518 25.7501C32.0402 24.6984 32.0402 23.6467 32.0518 22.5951C32.0518 22.2163 32.2499 22.0172 32.6163 22.0039C33.0648 21.9875 33.5144 21.9885 33.9629 22.0039C34.318 22.0152 34.5284 22.2297 34.5387 22.5478C34.5489 22.866 34.3519 23.101 34.0039 23.1359C33.7566 23.1575 33.499 23.137 33.2239 23.137Z" fill="white"/>
<path d="M20.8677 25.1979C21.073 25.1979 21.2403 25.1887 21.4035 25.1979C21.773 25.2256 21.9937 25.4463 21.9937 25.7747C21.9937 26.1031 21.7791 26.3289 21.4035 26.3433C21.0279 26.3577 20.6615 26.3526 20.2899 26.3433C19.9399 26.333 19.7305 26.1319 19.7254 25.7901C19.7124 24.7022 19.7124 23.6142 19.7254 22.5263C19.7246 22.4521 19.7385 22.3784 19.7664 22.3096C19.7942 22.2408 19.8354 22.1781 19.8877 22.1253C19.9399 22.0726 20.002 22.0307 20.0706 22.0021C20.1391 21.9735 20.2126 21.9587 20.2868 21.9587C20.5947 21.9587 20.8513 22.1958 20.8595 22.5551C20.876 23.2735 20.8667 23.9919 20.8677 24.7053C20.8688 24.8561 20.8677 25.007 20.8677 25.1979Z" fill="white"/>
<path d="M17.1196 25.2041C17.3199 25.193 17.5207 25.193 17.7211 25.2041C17.795 25.2085 17.8673 25.2279 17.9336 25.261C17.9998 25.2941 18.0587 25.3403 18.1066 25.3968C18.1546 25.4533 18.1906 25.5189 18.2125 25.5897C18.2345 25.6604 18.2418 25.7349 18.2342 25.8086C18.2055 26.138 18.0146 26.3218 17.6872 26.3372C17.291 26.3515 16.8928 26.3546 16.4966 26.3372C16.4253 26.3389 16.3545 26.3257 16.2886 26.2985C16.2226 26.2714 16.1631 26.2307 16.1138 26.1793C16.0644 26.1278 16.0263 26.0666 16.002 25.9996C15.9776 25.9326 15.9674 25.8613 15.9722 25.7901C15.9626 24.7022 15.9626 23.6142 15.9722 22.5263C15.9709 22.4523 15.9844 22.3788 16.0119 22.31C16.0393 22.2413 16.0802 22.1787 16.132 22.1259C16.1839 22.0731 16.2457 22.0311 16.314 22.0024C16.3822 21.9737 16.4554 21.9589 16.5295 21.9587C16.8528 21.9587 17.1073 22.2071 17.1145 22.5889C17.1278 23.3074 17.1145 24.0258 17.1196 24.7391V25.2041Z" fill="white"/>
</svg>
