<svg width="39" height="50" viewBox="0 0 39 50" fill="none" xmlns="http://www.w3.org/2000/svg">
<path d="M10.0974 0C10.3955 0.260376 10.6741 0.541581 10.4879 0.993333C10.3018 1.44508 9.92553 1.46852 9.51544 1.46722C7.23715 1.46027 4.95887 1.46027 2.68058 1.46722C1.75755 1.46722 1.47113 1.74321 1.47113 2.64672C1.47113 17.5524 1.47113 32.458 1.47113 47.3636C1.47113 48.202 1.77187 48.5288 2.54778 48.5288C11.3684 48.5288 20.1882 48.5288 29.0072 48.5288C29.0879 48.5288 29.1686 48.521 29.3261 48.5132V48.0002C29.3261 46.2583 29.3261 44.5173 29.3261 42.7771C29.3261 41.401 30.0981 40.6225 31.4638 40.6212C33.204 40.6212 34.945 40.6212 36.6869 40.6212H37.2741V40.0028C37.2741 37.774 37.2741 35.5447 37.2741 33.3151C37.2741 33.1068 37.2389 32.8347 37.3509 32.7019C37.5279 32.4923 37.8248 32.2423 38.0552 32.2579C38.2856 32.2736 38.5226 32.5704 38.6983 32.7917C38.7803 32.8946 38.7335 33.1055 38.7335 33.2682C38.7335 35.855 38.7335 38.4432 38.7413 41.03C38.7507 41.2307 38.7164 41.4311 38.6406 41.6173C38.5649 41.8034 38.4495 41.9709 38.3026 42.108C35.8004 44.5763 33.3073 47.0542 30.8233 49.5417C30.6804 49.6941 30.5062 49.8138 30.3128 49.8927C30.1193 49.9716 29.9111 50.0077 29.7024 49.9986C20.6873 49.99 11.6722 49.9874 2.65714 49.9908C0.939961 49.9908 0.0104252 49.06 0.0104252 47.3337C0.0104252 32.4445 0.00694335 17.5554 0 2.66625C0 1.27975 0.632719 0.441337 1.89424 0H10.0974ZM36.0751 42.0845C34.4933 42.0845 32.8894 42.078 31.2867 42.0845C30.8858 42.0845 30.7907 42.3696 30.792 42.7224C30.7998 43.8121 30.792 44.9005 30.792 45.9902V47.4391L36.0751 42.0845Z" fill="#172F40"/>
<path d="M36.851 0C37.1921 0.178357 37.567 0.315054 37.8677 0.545486C38.5187 1.04801 38.7439 1.75493 38.74 2.56861C38.7296 5.66057 38.74 8.75253 38.74 11.8432V28.8796C38.74 29.0267 38.74 29.1725 38.74 29.3196C38.7309 29.9276 38.4601 30.2713 38.0005 30.2609C37.541 30.2504 37.278 29.9107 37.278 29.2923C37.278 23.3201 37.278 17.3484 37.278 11.3771C37.278 8.48087 37.278 5.58462 37.278 2.68838C37.278 1.73931 37.0033 1.46461 36.0633 1.46461H13.8949C13.7648 1.46461 13.6346 1.46461 13.5044 1.46461C13.0943 1.48284 12.7128 1.43988 12.5332 0.993333C12.3535 0.546789 12.6282 0.262979 12.9237 0H36.851Z" fill="#172F40"/>
<path d="M19.3953 26.0665H33.4986C33.6448 26.0593 33.7914 26.0619 33.9373 26.0743C34.112 26.0839 34.2765 26.1596 34.3974 26.286C34.5183 26.4125 34.5865 26.5802 34.5883 26.7552C34.6061 26.9196 34.5629 27.0848 34.4669 27.2195C34.3709 27.3541 34.2288 27.4488 34.0675 27.4855C33.8933 27.5246 33.7146 27.5395 33.5364 27.5298H5.2218C5.04354 27.54 4.86472 27.5251 4.69062 27.4855C4.52986 27.4488 4.3881 27.3545 4.29214 27.2205C4.19619 27.0864 4.15269 26.9218 4.16987 26.7578C4.1705 26.5839 4.23712 26.4167 4.35627 26.2901C4.47541 26.1635 4.63819 26.0868 4.8117 26.0756C4.95754 26.0621 5.10416 26.059 5.25044 26.0665H19.3953Z" fill="#172F40"/>
<path d="M19.3772 16.7382H5.27652C4.52273 16.7382 4.16732 16.5117 4.1556 16.0261C4.14389 15.5405 4.51622 15.2749 5.29344 15.2749C14.6774 15.2749 24.0613 15.2749 33.4453 15.2749C34.2264 15.2749 34.5961 15.5171 34.5896 16.0183C34.5831 16.5195 34.2238 16.7382 33.4283 16.7382H19.3772Z" fill="#172F40"/>
<path d="M9.91774 40.0832C10.0115 39.4844 10.1104 38.8764 10.2029 38.2671C10.2888 37.6995 10.5934 37.3935 11.0322 37.4378C11.4709 37.4821 11.7261 37.8284 11.6597 38.4103C11.5933 38.9923 11.4995 39.5286 11.4188 40.0728C12.1218 40.0728 12.8027 40.1093 13.4797 40.0637C14.2035 40.0142 14.542 40.3462 14.4301 41.0727C14.391 41.32 14.3962 41.5739 14.3806 41.8251L14.5498 41.9098C14.7421 41.6968 14.9163 41.4682 15.0706 41.2263C15.2724 40.85 15.5093 40.5519 15.9741 40.6574C16.4389 40.7628 16.5677 41.0922 16.5495 41.5439C16.5411 41.6302 16.5524 41.7172 16.5826 41.7984C16.6128 41.8796 16.6611 41.9528 16.7238 42.0125C16.7866 42.0723 16.8621 42.1169 16.9447 42.1431C17.0273 42.1693 17.1148 42.1763 17.2005 42.1636C17.6146 42.1146 18.0184 42.0003 18.3969 41.8251C18.928 41.5986 19.3303 41.6481 19.5464 42.0465C19.7625 42.4448 19.5998 42.8406 19.1051 43.1231C17.8032 43.8691 16.7018 43.8248 15.6226 42.9825C14.2647 43.7389 13.0422 43.2351 12.8743 41.6181H11.0855C10.885 42.2691 10.7145 42.907 10.4828 43.5293C9.93336 44.9991 8.9127 45.6813 7.43507 45.6123C6.072 45.5472 4.59827 44.4237 4.24677 43.183C3.90698 41.9801 4.53448 40.7251 5.77256 40.3631C6.46126 40.1613 7.20463 40.1418 7.93368 40.0949C8.56639 40.0494 9.20171 40.0832 9.91774 40.0832ZM9.60138 41.5869C8.61846 41.5869 7.7462 41.5778 6.86743 41.5869C6.6569 41.5967 6.44937 41.6407 6.25295 41.7171C5.65799 41.9332 5.47182 42.4566 5.76214 43.0085C6.13448 43.7077 7.05491 44.205 7.83474 44.136C8.30602 44.093 8.70179 43.8873 8.89316 43.4603C9.16135 42.8849 9.35142 42.2678 9.60138 41.5869Z" fill="#172F40"/>
<path d="M30.2674 9.20073L31.3766 5.32504C31.4 5.24693 31.4234 5.17012 31.4456 5.09201C31.5758 4.62854 31.857 4.35644 32.3569 4.37727C32.8568 4.3981 33.1107 4.71316 33.2005 5.17272C33.4452 6.43294 33.6822 7.69446 33.923 8.95468C34.0715 9.73581 34.2238 10.5169 34.3735 11.2981C34.4724 11.8188 34.2732 12.2094 33.8527 12.2992C33.3945 12.4034 33.0482 12.143 32.9414 11.5949C32.7045 10.3893 32.474 9.18381 32.1603 7.96525C32.0067 8.486 31.8492 9.00675 31.6981 9.5275C31.5003 10.2136 31.2959 10.8997 31.1136 11.5897C30.9912 12.0518 30.723 12.3409 30.2426 12.3708C29.813 12.3994 29.4954 12.1104 29.3313 11.5741C29.0058 10.4844 28.6804 9.39471 28.3614 8.30504C28.325 8.18527 28.2742 8.0694 28.1883 7.83897C27.9669 9.07054 27.7652 10.1823 27.5686 11.2994C27.4384 12.074 27.1559 12.3786 26.6429 12.2992C26.13 12.2198 25.9764 11.8488 26.1222 11.052C26.4698 9.09919 26.8304 7.14637 27.1806 5.20136C27.2639 4.73529 27.4918 4.42024 27.9904 4.36816C28.459 4.3226 28.7858 4.56735 28.9434 5.09331C29.3534 6.45768 29.7531 7.82725 30.1567 9.19162L30.2674 9.20073Z" fill="#172F40"/>
<path d="M22.7529 20.321C19.1728 20.321 15.593 20.321 12.0137 20.321C11.8198 20.321 11.5672 20.3679 11.4448 20.2664C11.2404 20.0997 11.0009 19.8315 10.9996 19.6037C10.9983 19.3759 11.2339 19.1038 11.4383 18.9436C11.5789 18.833 11.8432 18.8616 12.0515 18.8603C19.1953 18.8603 26.3387 18.8603 33.4817 18.8603C33.578 18.8603 33.677 18.8603 33.7733 18.8603C34.2654 18.8916 34.587 19.1819 34.5909 19.5933C34.5909 20.0242 34.2628 20.3197 33.7356 20.321C30.0747 20.3262 26.4138 20.3262 22.7529 20.321Z" fill="#172F40"/>
<path d="M13.9496 4.37069C14.7434 4.36553 15.5209 4.5962 16.1835 5.03346C16.8461 5.47071 17.3639 6.09486 17.6714 6.82676C17.9788 7.55867 18.062 8.36539 17.9104 9.14463C17.7587 9.92387 17.3792 10.6405 16.8197 11.2038C16.2603 11.7671 15.5463 12.1515 14.7681 12.3085C13.9899 12.4654 13.1826 12.3877 12.4486 12.0853C11.7147 11.7829 11.087 11.2694 10.6452 10.6098C10.2034 9.95022 9.96744 9.17433 9.96716 8.38047C9.96918 7.32236 10.3885 6.30775 11.1342 5.557C11.8798 4.80624 12.8915 4.37995 13.9496 4.37069ZM13.973 5.8353C13.639 5.83201 13.3075 5.89528 12.9982 6.02141C12.6888 6.14755 12.4076 6.33403 12.1711 6.56997C11.9345 6.80592 11.7473 7.08661 11.6204 7.39567C11.4935 7.70472 11.4293 8.03596 11.4318 8.37006C11.4314 9.04478 11.6983 9.69218 12.1741 10.1706C12.6498 10.6491 13.2957 10.9196 13.9704 10.923C14.6448 10.9166 15.2898 10.6463 15.7672 10.1701C16.2447 9.69387 16.5166 9.04958 16.5247 8.37527C16.5216 7.7001 16.2511 7.05368 15.7723 6.57761C15.2935 6.10153 14.6456 5.83461 13.9704 5.8353H13.973Z" fill="#172F40"/>
<path d="M22.5928 9.18753C23.1435 9.81634 23.659 10.4009 24.1707 10.988C24.5821 11.4593 24.6146 11.8694 24.2696 12.1858C23.9246 12.5021 23.5119 12.4461 23.0979 11.9775C22.4183 11.2146 21.7466 10.4465 20.9602 9.70438C20.9602 10.1978 20.9602 10.6912 20.9602 11.1846C20.9672 11.3797 20.9611 11.5749 20.942 11.7692C20.8899 12.1428 20.627 12.398 20.2911 12.3576C20.0307 12.3264 19.7703 12.0972 19.5802 11.8928C19.4813 11.79 19.5047 11.553 19.5047 11.3721C19.5047 9.37587 19.5047 7.37619 19.5047 5.37303C19.5047 4.5919 19.73 4.36798 20.5267 4.36538C21.0305 4.36538 21.5344 4.35627 22.0382 4.36538C23.2737 4.39793 24.2696 5.21551 24.474 6.35335C24.6836 7.52504 24.0717 8.58086 22.8974 9.06256L22.5928 9.18753ZM20.9915 7.79322C21.4219 7.78949 21.8518 7.76124 22.279 7.7086C22.4971 7.66615 22.6933 7.54832 22.8333 7.37576C22.9732 7.2032 23.048 6.9869 23.0445 6.76474C23.0305 6.5433 22.9409 6.3334 22.7906 6.17012C22.6404 6.00685 22.4387 5.90011 22.2192 5.86775C21.8104 5.84246 21.4006 5.83941 20.9915 5.85863V7.79322Z" fill="#172F40"/>
<path d="M12.899 23.925H5.24005C5.09377 23.9324 4.94715 23.9294 4.80131 23.9159C4.62805 23.9031 4.46604 23.8253 4.34774 23.698C4.22943 23.5708 4.16359 23.4035 4.16341 23.2298C4.14667 23.0649 4.19152 22.8995 4.28933 22.7657C4.38715 22.6318 4.53103 22.5388 4.69326 22.5047C4.88413 22.4653 5.07936 22.4513 5.2739 22.463C10.3625 22.463 15.452 22.463 20.5423 22.463C21.3235 22.463 21.6867 22.7091 21.6737 23.2181C21.6607 23.7271 21.3209 23.9276 20.558 23.9276L12.899 23.925Z" fill="#172F40"/>
<path d="M26.8695 29.6649H33.509C33.6554 29.6606 33.8018 29.664 33.9478 29.6753C34.113 29.6834 34.2693 29.7524 34.3867 29.869C34.504 29.9856 34.574 30.1416 34.5831 30.3067C34.614 30.4699 34.5813 30.6388 34.4917 30.7787C34.4022 30.9185 34.2625 31.0189 34.1014 31.0592C33.8976 31.1126 33.687 31.1354 33.4765 31.1269C29.0709 31.1269 24.665 31.1269 20.2585 31.1269C20.1121 31.1323 19.9654 31.1267 19.8198 31.11C19.3902 31.0436 19.1415 30.7481 19.161 30.3445C19.1806 29.9409 19.4475 29.6805 19.9005 29.6675C20.4213 29.6532 20.942 29.6675 21.4628 29.6675L26.8695 29.6649Z" fill="#172F40"/>
<path d="M10.7327 29.6644C12.6191 29.6644 14.5081 29.6644 16.3933 29.6644C16.8112 29.6644 17.1327 29.7854 17.2369 30.2307C17.2616 30.3211 17.2676 30.4156 17.2546 30.5085C17.2415 30.6013 17.2096 30.6905 17.1608 30.7706C17.1121 30.8507 17.0475 30.9199 16.971 30.9742C16.8946 31.0284 16.8078 31.0665 16.7161 31.086C16.525 31.1237 16.3301 31.1385 16.1355 31.1303H5.30386C5.1906 31.1303 5.07603 31.1303 4.96277 31.1303C4.47587 31.0951 4.1569 30.7944 4.16211 30.3817C4.16732 29.969 4.48887 29.6735 4.98228 29.6722C6.89474 29.6617 8.81372 29.6644 10.7327 29.6644Z" fill="#172F40"/>
<path d="M5.82335 5.87027V7.61348C6.35972 7.61348 6.87527 7.61348 7.3856 7.61348C7.89594 7.61348 8.20447 7.89599 8.2201 8.31259C8.23572 8.72919 7.90113 9.06117 7.38819 9.07289C6.87525 9.0846 6.37924 9.07289 5.79339 9.07289V10.7211C5.79339 11.014 5.80251 11.3069 5.79339 11.5998C5.77256 12.0776 5.45491 12.4005 5.03831 12.381C4.62171 12.3614 4.34181 12.0568 4.3366 11.5998C4.32618 10.4607 4.3366 9.32154 4.3366 8.1824C4.3366 7.22292 4.3366 6.26213 4.3366 5.30265C4.3366 4.67514 4.59697 4.41086 5.22447 4.40435C5.98868 4.39654 6.75418 4.40435 7.51838 4.40435C8.08991 4.40435 8.4297 4.68165 8.4297 5.1295C8.4297 5.57734 8.09902 5.86115 7.53531 5.86636C6.97159 5.87157 6.43523 5.87027 5.82335 5.87027Z" fill="#172F40"/>
<path d="M19.7651 33.2528C21.4888 33.2528 23.2125 33.2528 24.9362 33.2528C25.1149 33.2458 25.294 33.2545 25.4712 33.2789C25.6303 33.3101 25.7739 33.3945 25.8786 33.5182C25.9833 33.6419 26.0427 33.7976 26.0471 33.9596C26.0515 34.1216 26.0006 34.2803 25.9028 34.4095C25.805 34.5387 25.6661 34.6308 25.509 34.6706C25.3173 34.7069 25.1221 34.7218 24.9271 34.7148H14.4912C14.3936 34.7148 14.2959 34.7148 14.1983 34.7148C13.6697 34.6823 13.3573 34.392 13.3742 33.9519C13.3911 33.5119 13.6931 33.2593 14.2074 33.2567C16.0534 33.2489 17.9125 33.2541 19.7651 33.2528Z" fill="#172F40"/>
<path d="M29.0605 23.9244C27.5491 23.9244 26.0363 23.9244 24.5235 23.9244C23.9481 23.9244 23.6122 23.664 23.6122 23.2084C23.6122 22.7527 23.9468 22.4624 24.5066 22.4624C27.5634 22.4624 30.6206 22.4624 33.6783 22.4624C34.2472 22.4624 34.5896 22.741 34.5961 23.1862C34.6026 23.6315 34.2563 23.9231 33.6523 23.9244H29.0605Z" fill="#172F40"/>
<path d="M7.79178 34.7127C6.85052 34.7127 5.90926 34.7296 4.968 34.7127C4.347 34.6984 3.95905 34.1789 4.24025 33.7181C4.32241 33.5979 4.42922 33.4966 4.55358 33.421C4.67795 33.3453 4.81701 33.297 4.9615 33.2793C6.85964 33.2429 8.75778 33.2533 10.6572 33.2637C11.122 33.2637 11.4279 33.5619 11.4383 33.9576C11.4488 34.3534 11.1389 34.7023 10.6572 34.7114C9.70685 34.7257 8.74866 34.7127 7.79178 34.7127Z" fill="#172F40"/>
<path d="M6.5979 20.3209C6.0446 20.3209 5.4926 20.33 4.94061 20.3209C4.47974 20.3118 4.1712 20.0267 4.15948 19.6257C4.15613 19.5275 4.17274 19.4296 4.20832 19.3379C4.24389 19.2463 4.29769 19.1629 4.36646 19.0926C4.43523 19.0224 4.51753 18.9669 4.60838 18.9294C4.69924 18.8919 4.79677 18.8732 4.89505 18.8745C6.04851 18.8524 7.20197 18.8511 8.35413 18.8745C8.45278 18.8731 8.55058 18.8928 8.64103 18.9322C8.73148 18.9716 8.81249 19.0298 8.87865 19.103C8.94481 19.1762 8.9946 19.2626 9.02471 19.3566C9.05482 19.4505 9.06454 19.5498 9.05324 19.6478C9.0285 20.0501 8.75901 20.3066 8.30596 20.317C7.73444 20.3352 7.16552 20.3209 6.5979 20.3209Z" fill="#172F40"/>
</svg>
