<svg width="20" height="20" viewBox="0 0 20 20" fill="none" xmlns="http://www.w3.org/2000/svg">
<path d="M15.0601 20C14.5733 19.8949 14.0788 19.8136 13.5998 19.6797C12.6112 19.4037 11.6907 18.9607 10.8052 18.4487C8.29396 16.9976 6.14778 15.1089 4.24352 12.935C3.00761 11.5233 1.92843 10.0061 1.09557 8.32085C0.58348 7.28451 0.179951 6.20874 0.0421941 5.05217C-0.0444515 4.3259 -0.0205997 3.60451 0.334258 2.94006C0.448191 2.72847 0.590689 2.53356 0.757748 2.3608C1.33749 1.76256 1.93866 1.18476 2.52084 0.588947C3.32888 -0.238568 4.58281 -0.152896 5.34412 0.588947C6.25342 1.47439 7.14518 2.37589 8.0384 3.28031C8.82308 4.07765 8.82892 5.27219 8.05009 5.99894C7.87718 6.15551 7.67707 6.27908 7.45964 6.36354C6.91542 6.5782 6.48608 6.90483 6.24903 7.45342C6.09391 7.80805 6.06708 8.20561 6.1731 8.57787C6.46516 9.66337 7.07995 10.5571 7.82082 11.3744C8.59187 12.2248 9.46514 12.9496 10.5039 13.4553C10.9615 13.6778 11.4322 13.8759 11.9608 13.8068C12.6769 13.7133 13.2221 13.3687 13.5054 12.6848C13.6806 12.2623 13.8875 11.8753 14.29 11.6231C15.0445 11.151 15.9738 11.2366 16.6397 11.8855C17.5769 12.7984 18.5018 13.7232 19.4143 14.6601C20.1605 15.4297 20.1328 16.6559 19.3758 17.4269C18.7781 18.0349 18.1701 18.6331 17.568 19.2372C17.1416 19.6651 16.6168 19.8822 16.0268 19.9625C15.9775 19.972 15.9287 19.9844 15.8808 19.9995L15.0601 20Z" fill="#062037"/>
</svg>
