<svg width="45" height="50" viewBox="0 0 45 50" fill="none" xmlns="http://www.w3.org/2000/svg">
<path d="M34.6657 0C34.861 0.333001 35.0456 0.666004 35.2966 1.10643H43.4878C43.6343 1.10643 43.7808 1.10643 43.9272 1.10643C44.4087 1.13767 44.7622 1.35642 44.9282 1.82614C45.0884 2.28023 44.9497 2.66303 44.6089 2.9726C44.0229 3.50774 43.4155 4.0302 42.8189 4.55851C42.7212 4.64347 42.6333 4.73233 42.5152 4.84464C43.1675 5.41884 43.8013 5.97743 44.4331 6.53601C44.9663 7.0067 45.1167 7.4149 44.9106 7.89438C44.6821 8.44222 44.227 8.57796 43.6782 8.57796C41.0246 8.5721 38.3717 8.5721 35.7194 8.57796H35.0915C35.0915 8.96858 35.0719 9.30841 35.1022 9.64434C35.112 9.75176 35.2507 9.84844 35.3327 9.94805C35.5085 10.1619 35.7799 10.3484 35.8454 10.5906C36.1706 11.8152 35.943 12.9695 35.3034 14.0573C35.184 14.2463 35.1138 14.4622 35.0993 14.6853C35.0876 18.7216 35.085 22.758 35.0915 26.7944C35.0915 26.8921 35.1051 26.9897 35.1159 27.1196C35.2878 27.1294 35.443 27.146 35.6042 27.1469C36.8405 27.1469 38.0777 27.1469 39.315 27.1469C41.0054 27.1469 42.0259 28.1557 42.0288 29.8451C42.0347 34.3528 42.0347 38.8609 42.0288 43.3693V48.5362C42.6148 48.5362 43.146 48.5362 43.6792 48.5362C44.3325 48.5362 44.6684 48.7949 44.6558 49.2822C44.646 49.7519 44.3198 50 43.6948 50H1.11753C0.361687 50 0.0140433 49.7764 0.000371663 49.2852C-0.0132999 48.7764 0.349969 48.5352 1.13023 48.5352H2.49153C2.49153 47.7784 2.53059 47.0625 2.48371 46.3536C2.35969 44.4767 3.65557 43.3068 5.40749 43.3995C6.80297 43.4728 8.20627 43.4054 9.60663 43.4171C10.3967 43.424 11.1857 43.464 12.0099 43.4894C12.0099 42.9035 12.0099 42.2589 12.0099 41.6105C12.0206 40.1115 13.0392 39.0715 14.5421 39.0246C15.1762 39.0057 15.8109 39.0057 16.4463 39.0246C16.7393 39.0344 16.9082 38.9436 17.0411 38.6604C18.0176 36.5706 19.0205 34.4915 20.0029 32.4037C20.0961 32.1969 20.1504 31.9748 20.1631 31.7484C20.247 30.3353 20.3799 28.9164 20.3701 27.5082C20.3574 25.772 21.0234 24.2046 21.4208 22.5689C21.4688 22.363 21.5272 22.1596 21.5957 21.9595C21.748 21.5299 22.122 21.3267 22.5107 21.4498C22.8993 21.5728 23.1132 21.9381 22.9989 22.3775C22.7909 23.1587 22.5634 23.94 22.3154 24.8335C22.872 24.606 23.3398 24.4194 23.8046 24.2241C24.4179 23.9673 25.1718 23.8462 25.5985 23.4048C26.0057 22.9781 26.0672 22.2193 26.2743 21.6041C26.4696 21.0181 26.6649 20.4322 26.8602 19.8385C26.8066 19.8235 26.7516 19.8137 26.6961 19.8092C26.2899 19.8297 25.9901 19.6705 25.8836 19.2662C25.7772 18.8619 25.9735 18.5826 26.3172 18.3795C28.1121 17.2949 29.9051 16.2064 31.696 15.114C32.196 14.8103 32.7058 14.5192 33.1872 14.1872C33.9763 13.6413 34.4294 12.8904 34.5075 11.8377C34.3063 11.9353 34.1647 11.9998 34.03 12.073C31.1443 13.6355 28.2684 15.2185 25.37 16.7682C25.1008 16.9018 24.8617 17.089 24.6676 17.3184C24.4734 17.5479 24.3283 17.8146 24.2411 18.1022C24.0985 18.5514 23.9745 19.0065 23.8339 19.4557C23.6806 19.9439 23.3456 20.1588 22.9286 20.0504C22.4902 19.9361 22.2802 19.5533 22.4404 19.0553C22.7089 18.1911 23.0087 17.3356 23.3193 16.4108C22.5165 15.78 22.206 14.7067 21.707 13.7546C21.4238 13.2146 21.4824 12.6375 21.6484 12.0457C21.9482 10.9803 23.9921 9.88848 25.119 10.2879C25.7118 10.4969 26.1981 10.8279 26.492 11.3885C26.9061 12.1775 27.2957 12.9783 27.7176 13.8161C27.7908 13.782 27.9129 13.7312 28.0379 13.6657C29.781 12.7214 31.5203 11.7683 33.2702 10.8338C33.5534 10.6824 33.6491 10.5057 33.6472 10.1873C33.6354 7.16002 33.6472 4.13273 33.6345 1.10545C33.6345 0.657214 33.7067 0.272458 34.0954 0.00293249L34.6657 0ZM40.5328 48.5186C40.5445 48.3633 40.5591 48.252 40.5591 48.1407C40.5591 42.0392 40.5591 35.9381 40.5591 29.8373C40.5591 28.9682 40.1802 28.6108 39.2896 28.6098C37.5 28.6098 35.7096 28.6098 33.9186 28.6098C32.8366 28.6098 32.5124 28.9291 32.5124 29.9955C32.5124 33.429 32.5124 36.8619 32.5124 40.2941C32.5124 40.8625 32.2331 41.2013 31.7839 41.2052C31.3347 41.2092 31.0525 40.8703 31.0496 40.3059C31.0496 39.2317 31.0496 38.1575 31.0496 37.0833C31.0496 36.1311 30.6765 35.76 29.7195 35.7591H24.3993C23.3339 35.7591 22.9941 36.094 22.9931 37.1555C22.9931 40.7668 22.9931 44.3784 22.9931 47.9903V48.5078H31.0505V48.0078C31.0505 46.7881 31.0505 45.5665 31.0505 44.3478C31.0505 43.7374 31.321 43.4083 31.7976 43.4191C32.2527 43.4298 32.5124 43.754 32.5134 44.3341C32.5134 45.5714 32.5134 46.8077 32.5134 48.045C32.5134 48.2002 32.5271 48.3565 32.5349 48.5196L40.5328 48.5186ZM21.4755 48.5098C21.4934 48.4688 21.5065 48.4259 21.5146 48.3819C21.5146 46.1065 21.5302 43.8312 21.5146 41.5558C21.5146 40.8459 21.1025 40.4914 20.3427 40.4875C18.458 40.4777 16.5726 40.4777 14.6866 40.4875C13.8419 40.4875 13.4776 40.8781 13.4757 41.7218C13.4757 43.4145 13.4757 45.1049 13.4757 46.793V48.5108L21.4755 48.5098ZM33.5847 27.1118V15.7468C33.5414 15.7469 33.4984 15.7528 33.4567 15.7643C31.9685 16.6637 30.4793 17.5592 28.9998 18.4713C28.8625 18.5786 28.7627 18.7266 28.7147 18.8942C28.201 20.4166 27.7078 21.9459 27.1893 23.4673C27.0916 23.7476 27.1248 23.937 27.3211 24.1646C28.1815 25.1616 29.0027 26.1928 29.8738 27.1801C30.6492 28.059 30.9285 29.019 30.7195 30.1928C30.4812 31.5316 30.3719 32.8929 30.2029 34.2777L31.0476 34.473V29.9906C31.0505 28.2553 31.8347 27.352 33.5866 27.1118H33.5847ZM35.0895 7.08189H42.812L41.4048 5.82899C40.6148 5.12588 40.6148 4.55948 41.4048 3.84758L42.8443 2.57124H41.0962C39.2434 2.57124 37.3909 2.57124 35.5387 2.57124C35.3434 2.57124 35.0925 2.50386 35.0934 2.84956C35.0944 4.24602 35.0915 5.64052 35.0915 7.08189H35.0895ZM12.007 48.5108C12.007 47.626 12.0167 46.7969 12.007 45.9718C11.9962 45.3058 11.6164 44.9239 10.9474 44.8839C10.883 44.8839 10.8175 44.8839 10.7521 44.8839C8.88398 44.8839 7.01488 44.8839 5.14675 44.8839C4.512 44.8839 4.04424 45.1573 4.01494 45.6554C3.96025 46.6016 3.99931 47.5537 3.99931 48.5137L12.007 48.5108ZM18.5332 38.926L18.665 39.0686C18.8223 38.9455 19.0137 38.8489 19.1299 38.6946C20.6347 36.7141 22.1376 34.7308 23.6151 32.7298C23.8524 32.404 24.0187 32.0321 24.1034 31.6381C24.369 30.3685 24.579 29.0834 24.8104 27.8041C24.9628 26.9643 25.1141 26.1255 25.2811 25.2056C24.162 25.6645 23.123 26.0776 22.0995 26.5278C21.9794 26.5805 21.8915 26.8266 21.8818 26.9897C21.7841 28.5639 21.7314 30.142 21.6074 31.7132C21.5582 32.2441 21.4243 32.7637 21.2109 33.2523C20.7636 34.2962 20.2461 35.3108 19.7588 36.3382C19.3506 37.2001 18.9427 38.0627 18.5352 38.926H18.5332ZM26.6961 25.645C26.5594 26.4057 26.4901 27.0493 26.3202 27.6635C26.1698 28.2035 26.2606 28.5424 26.7918 28.7807C27.5252 29.1059 27.7889 29.7201 27.8436 30.5014C27.9276 31.7142 28.0809 32.9232 28.2068 34.1331C28.2218 34.1852 28.2435 34.2351 28.2713 34.2816L28.7283 34.262C28.9324 32.5658 29.1395 30.8939 29.325 29.2192C29.3336 29.0403 29.2786 28.8642 29.1697 28.7221C28.3826 27.7221 27.576 26.7339 26.6981 25.647L26.6961 25.645ZM24.6034 15.4421C25.0204 15.2468 25.3632 15.1042 25.6776 14.9235C26.1424 14.6608 26.2772 14.2458 26.0497 13.7644C25.7938 13.2234 25.5184 12.6902 25.2303 12.1648C24.9618 11.6765 24.5526 11.5515 24.036 11.78C23.8281 11.8712 23.6259 11.9749 23.4306 12.0906C22.9687 12.365 22.83 12.7673 23.0595 13.2488C23.3128 13.8097 23.5985 14.3556 23.9149 14.8835C24.0673 15.1169 24.3632 15.2526 24.6054 15.444L24.6034 15.4421ZM26.0497 29.9633L25.8963 30.0287C25.6034 31.5101 25.5858 33.0872 24.2499 34.2484H26.7313C26.6063 32.9652 26.495 31.7201 26.3514 30.4789C26.3309 30.2992 26.1561 30.1361 26.0477 29.9652L26.0497 29.9633ZM21.4921 38.1506L21.3945 38.1262L20.7509 39.0051L21.4912 39.176L21.4921 38.1506Z" fill="#172F40"/>
</svg>
