<svg width="18" height="16" viewBox="0 0 18 16" fill="none" xmlns="http://www.w3.org/2000/svg">
<path d="M0.000536688 2.14004C0.100897 1.84325 0.161543 1.52339 0.308596 1.25397C0.77283 0.418885 1.51883 0.0104654 2.46179 0.00778197C5.75848 -0.00259399 9.05661 -0.00259399 12.3562 0.00778197C13.7827 0.0136855 14.7986 1.06559 14.8008 2.49426C14.8036 4.49252 14.8036 6.49026 14.8008 8.48745V8.67529C15.1453 8.78263 15.4834 8.85991 15.7979 8.99247C17.2636 9.61074 18.1417 11.0856 17.9812 12.6323C17.8121 14.2627 16.6443 15.5707 15.0697 15.8717C14.0263 16.0714 13.07 15.846 12.2139 15.217C12.1127 15.1392 11.9878 15.0987 11.8603 15.1021C8.74354 15.1053 5.62717 15.1053 2.51116 15.1021C1.36211 15.1021 0.475505 14.4801 0.125048 13.4341C0.0713795 13.2806 0.041325 13.1212 0 12.964L0.000536688 2.14004ZM0.912906 9.23452C0.985359 9.16529 1.03151 9.12342 1.07391 9.07942C1.89683 8.24576 2.71976 7.41246 3.54268 6.57952C3.83141 6.2881 4.0638 6.2881 4.35361 6.57952C5.14684 7.37668 5.93917 8.17474 6.7306 8.97369C6.77193 9.02924 6.80635 9.08962 6.83311 9.15348C6.93401 9.04614 6.9807 8.99247 7.03007 8.94363L10.577 5.38325C10.9254 5.03333 11.1229 5.0344 11.4771 5.38861C12.2284 6.13998 12.9782 6.88955 13.7263 7.63734C13.7693 7.68027 13.8165 7.71945 13.8873 7.78439V7.59494C13.8873 5.90795 13.8873 4.22096 13.8873 2.53397C13.8873 1.58135 13.2433 0.938399 12.2848 0.937862C9.02888 0.935715 5.77297 0.935715 2.51707 0.937862C1.5462 0.938399 0.912906 1.57706 0.912906 2.54793C0.912906 4.70935 0.912906 6.87077 0.912906 9.03219V9.23452ZM11.2007 14.2257C10.6275 13.1303 10.4949 12.0291 10.9774 10.9036C11.4599 9.77818 12.3352 9.09122 13.5251 8.76599C12.6664 7.92393 11.8275 7.10226 10.9812 6.27522C10.9608 6.29776 10.9184 6.34607 10.8738 6.39168L7.27802 10.0014C6.99895 10.2816 6.74134 10.2811 6.46118 10.0014C5.66939 9.21251 4.87813 8.42233 4.08741 7.6309C4.04394 7.58742 3.99725 7.54717 3.95807 7.51068C3.94647 7.51424 3.93531 7.5191 3.9248 7.52517C2.94159 8.51267 1.95927 9.50125 0.977845 10.4909C0.935618 10.5444 0.913579 10.6111 0.915589 10.6793C0.910759 11.3292 0.900026 11.9797 0.919346 12.6291C0.925011 12.8688 0.975053 13.1053 1.06694 13.3268C1.35192 13.9804 1.93261 14.2171 2.58845 14.2214C5.39908 14.2381 8.21025 14.2284 11.0209 14.2284L11.2007 14.2257ZM14.3301 9.60591C12.8177 9.61503 11.6365 10.8151 11.6263 12.3269C11.6155 13.872 12.968 15.0265 14.3462 15.0136C15.8613 14.9991 17.0586 13.8007 17.0484 12.2947C17.0467 11.9396 16.9751 11.5883 16.8375 11.2609C16.6999 10.9335 16.4992 10.6365 16.2467 10.3868C15.9942 10.137 15.695 9.93953 15.3661 9.80554C15.0373 9.67155 14.6852 9.60372 14.3301 9.60591Z" fill="white"/>
</svg>
