<svg width="50" height="50" viewBox="0 0 50 50" fill="none" xmlns="http://www.w3.org/2000/svg">
<path d="M0 41.5851C0.273331 40.6349 0.666406 39.7629 1.49681 39.1511C1.66732 39.0275 1.84303 38.9103 2.04607 38.7698C0.484182 36.8174 0.330596 34.8091 2.04607 32.8827C3.33073 31.4354 4.98503 31.3287 7.47884 32.3895V20.6011C7.37211 20.89 7.30443 21.0592 7.24716 21.2311C7.00767 21.9547 6.82287 22.7018 6.5222 23.3995C6.2501 24.0086 5.75774 24.4923 5.14392 24.7536C4.5301 25.0148 3.84019 25.0344 3.21256 24.8083C2.58494 24.5822 2.06604 24.1271 1.75989 23.5344C1.45374 22.9417 1.38301 22.2551 1.56189 21.6124C2.29728 19.0184 3.03788 16.4269 3.81232 13.8459C4.42536 11.805 6.50526 10.1911 8.61772 10.0453C8.77521 10.0349 8.9314 10.0076 9.16959 9.97764C8.42248 8.88692 8.1752 7.74674 8.46935 6.51545C8.69637 5.57453 9.24575 4.74284 10.0221 4.16481C11.3393 3.14047 13.4062 3.06888 14.8197 4.04506C16.133 4.94836 17.1899 6.72631 16.3322 9.198C16.5248 9.11079 16.681 9.04832 16.8294 8.97022C18.8338 7.92896 20.833 6.8877 22.8426 5.84644C23.3984 5.54152 24.0445 5.44401 24.6655 5.57133C25.2865 5.69865 25.8421 6.04251 26.2331 6.54153C26.624 7.04056 26.8249 7.66227 26.7999 8.29571C26.7749 8.92916 26.5256 9.5331 26.0966 9.99977C25.8486 10.2557 25.5601 10.469 25.2427 10.631C22.7975 11.9161 20.3471 13.1895 17.8914 14.4512C17.6207 14.5917 17.488 14.7349 17.488 15.0733C17.5019 20.4575 17.5053 25.8417 17.4984 31.2258C17.4984 31.369 17.514 31.5109 17.5218 31.671C19.4169 31.4497 20.9397 32.038 21.9081 33.6884C22.8765 35.3388 22.6734 36.6547 21.3068 38.7489C21.5949 38.9516 21.8725 39.1688 22.1385 39.3997C22.517 39.7484 22.8188 40.172 23.0245 40.6438C23.2302 41.1155 23.3354 41.6249 23.3333 42.1395C23.3503 44.4173 23.345 46.6951 23.3333 48.9715C23.3333 49.6496 23.0157 49.9685 22.348 49.9698C19.6798 49.9768 17.012 49.9768 14.3446 49.9698C13.6639 49.9698 13.349 49.6718 13.345 48.991C13.3355 46.6977 13.3355 44.4043 13.345 42.1109C13.345 41.5966 13.4521 41.0878 13.6596 40.6172C13.8671 40.1466 14.1705 39.7244 14.5503 39.3776C14.5968 39.3323 14.6403 39.2841 14.6805 39.2331C14.687 39.2253 14.6805 39.2045 14.6674 39.1654H8.5956C8.68801 39.2683 8.73357 39.3268 8.78563 39.3776C9.17894 39.7457 9.49015 40.1926 9.69895 40.6892C9.90776 41.1857 10.0095 41.7207 9.9974 42.2593C9.9974 44.472 9.9974 46.6846 9.9974 48.8973C9.9974 49.6978 9.70843 49.9724 8.90015 49.9737C6.31392 49.9737 3.72641 49.9659 1.14018 49.9828C0.632567 49.9828 0.261625 49.8266 0.00911992 49.3893L0 41.5851ZM14.4826 37.4643C14.454 37.3341 14.4358 37.2313 14.4032 37.1272C13.8644 35.4221 14.2731 33.9683 15.5317 32.7161C15.7061 32.5206 15.8045 32.2688 15.8089 32.0068C15.8245 26.2148 15.8245 20.4232 15.8089 14.6321C15.8089 13.9435 16.025 13.5283 16.6536 13.2108C19.1488 11.9534 21.6204 10.6506 24.1012 9.36199C24.2909 9.26913 24.4748 9.16481 24.6518 9.04962C24.8601 8.91765 25.0118 8.7128 25.0773 8.47504C25.1428 8.23728 25.1173 7.98366 25.0059 7.76366C24.8949 7.54366 24.7079 7.37143 24.4795 7.27902C24.2511 7.1866 23.9969 7.18029 23.7642 7.26125C23.6125 7.31949 23.4654 7.38911 23.3242 7.46951C20.8291 8.76457 18.3405 10.0727 15.8336 11.3417C15.4443 11.533 15.0178 11.6365 14.5841 11.645C12.8439 11.6788 11.1024 11.645 9.36091 11.6632C7.30963 11.6814 5.83364 12.7773 5.28828 14.6568C5.10346 15.2963 4.91907 15.9358 4.73511 16.5753C4.21448 18.3702 3.69386 20.1625 3.18365 21.9599C2.99231 22.6407 3.35675 23.2173 3.99452 23.3006C4.52687 23.3708 4.93298 23.0402 5.15295 22.34C5.93389 19.8462 6.71828 17.3524 7.50617 14.8585C7.66757 14.3522 8.02682 14.1114 8.43682 14.1791C8.87545 14.2507 9.13444 14.5696 9.16698 15.0824C9.17609 15.2295 9.16698 15.3753 9.16698 15.5223C9.16698 21.5747 9.16698 27.6266 9.16698 33.678C9.16698 34.9392 9.31275 36.2174 8.80384 37.4604H11.6673V23.3487H13.3359V37.4643H14.4826ZM1.67123 48.2869H8.29754C8.29754 46.1159 8.3353 43.9722 8.27933 41.8311C8.2559 40.8874 7.35909 40.0779 6.39983 40.0245C5.50825 39.975 4.61149 39.9737 3.71991 40.0128C2.59014 40.0635 1.70896 40.9135 1.68553 42.051C1.63998 44.114 1.67123 46.177 1.67123 48.2869ZM21.64 48.2934C21.64 46.1497 21.6921 44.0398 21.6192 41.9326C21.5814 40.8119 20.6729 40.0557 19.5366 40.0037C18.839 39.9724 18.1387 39.9867 17.4398 39.9906C15.8545 39.9998 15.0072 40.8484 15.0019 42.4363C14.9954 44.2416 15.0019 46.0456 15.0019 47.8508C15.0019 47.9914 15.0202 48.1333 15.0319 48.2934H21.64ZM4.97983 38.2713C5.6381 38.2769 6.27207 38.023 6.74445 37.5645C7.21683 37.106 7.48955 36.4798 7.50356 35.8217C7.5361 34.4616 6.38031 33.2901 5.00324 33.2901C4.35229 33.3016 3.73171 33.5675 3.27434 34.0309C2.81696 34.4942 2.55915 35.1182 2.55609 35.7692C2.55303 36.4203 2.80494 37.0467 3.25794 37.5143C3.71094 37.9819 4.329 38.2536 4.97983 38.2713ZM20.8161 35.7983C20.8199 35.3041 20.6768 34.8199 20.4049 34.4073C20.133 33.9946 19.7445 33.6721 19.2889 33.4807C18.8333 33.2894 18.3311 33.2377 17.846 33.3324C17.361 33.4271 16.9151 33.6639 16.5649 34.0126C16.2147 34.3613 15.9761 34.8062 15.8793 35.2909C15.7826 35.7755 15.8321 36.2779 16.0216 36.7344C16.2111 37.1908 16.5319 37.5806 16.9434 37.8542C17.3549 38.1279 17.8385 38.2731 18.3327 38.2713C18.6579 38.2719 18.98 38.2085 19.2807 38.0845C19.5813 37.9605 19.8545 37.7785 20.0847 37.5488C20.3149 37.3191 20.4975 37.0462 20.6221 36.7458C20.7467 36.4455 20.8109 36.1235 20.8109 35.7983H20.8161ZM12.5185 9.98024C13.1762 9.97646 13.8056 9.71238 14.269 9.24576C14.7325 8.77915 14.9922 8.14798 14.9915 7.49033C14.9964 7.15831 14.9349 6.82866 14.8107 6.52072C14.6865 6.21279 14.502 5.93276 14.2681 5.69706C14.0342 5.46137 13.7556 5.27476 13.4486 5.14819C13.1416 5.02161 12.8124 4.95762 12.4804 4.95996C12.1484 4.9623 11.8201 5.03093 11.515 5.16182C11.2098 5.29271 10.9338 5.48322 10.7033 5.72219C10.4727 5.96115 10.2922 6.24375 10.1724 6.55342C10.0525 6.86308 9.99566 7.19356 10.0052 7.52547C10.0128 8.18344 10.2811 8.81152 10.7514 9.27177C11.2217 9.73203 11.8553 9.98684 12.5133 9.98024H12.5185Z" fill="#172F40"/>
<path d="M49.3947 0C49.8568 0.260315 49.9896 0.659897 49.9883 1.18053C49.9761 7.60683 49.9735 14.0327 49.9805 20.4581C49.9805 21.3914 49.7201 21.6634 48.8025 21.6634H19.1917V20.0065H48.2884V1.69465H1.69205V17.4736H0V0H49.3947Z" fill="#172F40"/>
<path d="M28.714 38.7728C26.75 36.5054 27.4697 33.9973 28.8012 32.7608C30.4165 31.2588 32.7463 31.2445 34.4293 32.6996C36.1447 34.1847 36.2202 36.361 34.6284 38.7337C34.6518 38.7689 34.6687 38.8222 34.7052 38.8444C36.0718 39.6709 36.6653 40.9022 36.6575 42.4758C36.6432 44.5739 36.6575 46.672 36.6575 48.7702C36.6575 49.7333 36.4063 49.9793 35.4432 49.9793C32.9051 49.9793 30.3679 49.9793 27.8316 49.9793C26.9348 49.9793 26.6602 49.7086 26.6602 48.8183C26.6602 46.8022 26.694 44.7834 26.6484 42.7686C26.6029 41.0518 27.16 39.6839 28.714 38.7728ZM34.9512 48.299C34.9512 46.1228 34.9863 43.9934 34.9369 41.8679C34.9134 40.8969 34.0258 40.0848 33.0418 40.0223C32.2804 39.9741 31.5137 39.9884 30.751 39.9924C29.1891 40.0002 28.3197 40.8774 28.3171 42.4536C28.3171 44.242 28.3171 46.0304 28.3171 47.8187C28.3171 47.9749 28.3327 48.1311 28.3405 48.299H34.9512ZM31.6738 38.2769C32.1678 38.2745 32.65 38.1254 33.0591 37.8484C33.4682 37.5715 33.7857 37.1793 33.9715 36.7215C34.1572 36.2637 34.2027 35.7611 34.1022 35.2774C34.0018 34.7937 33.7598 34.3508 33.4071 34.0049C33.0544 33.659 32.6069 33.4257 32.1213 33.3346C31.6358 33.2435 31.1342 33.2988 30.6801 33.4934C30.226 33.688 29.84 34.0131 29.571 34.4275C29.3021 34.8419 29.1624 35.3268 29.1696 35.8208C29.172 36.1467 29.2387 36.4689 29.366 36.7688C29.4933 37.0688 29.6786 37.3407 29.9114 37.5688C30.1441 37.7969 30.4196 37.9768 30.7221 38.0981C31.0245 38.2194 31.348 38.2797 31.6738 38.2756V38.2769Z" fill="#172F40"/>
<path d="M47.9161 38.7687C49.478 39.6798 50.0311 41.0439 49.9986 42.7633C49.9504 44.795 49.9882 46.8294 49.9856 48.8624C49.9856 49.6954 49.7032 49.9779 48.8741 49.9792C46.2883 49.9792 43.702 49.9792 41.1154 49.9792C40.2784 49.9792 39.9999 49.7072 39.9973 48.8728C39.9973 46.8723 40.0364 44.8705 39.9843 42.8713C39.9387 41.1285 40.432 39.702 42.0668 38.77C41.0464 37.6233 40.6091 36.3257 40.9449 34.8406C41.1751 33.8157 41.7883 32.9175 42.659 32.3298C44.2378 31.217 46.5429 31.4422 47.9395 32.8622C49.2489 34.1898 49.7942 36.638 47.9161 38.7687ZM48.3066 48.2897C48.3066 46.1877 48.3339 44.139 48.2962 42.0916C48.274 40.9137 47.385 40.0625 46.2006 40.0091C45.4704 39.974 44.7377 39.9857 44.0062 39.9948C42.5185 40.0143 41.6633 40.8786 41.6542 42.3767C41.6464 43.824 41.6542 45.2701 41.6542 46.7174V48.2923L48.3066 48.2897ZM47.4618 35.8115C47.4695 35.1534 47.2163 34.519 46.7575 34.047C46.2987 33.5751 45.6717 33.304 45.0136 33.293C44.347 33.2909 43.7065 33.5519 43.2312 34.0193C42.756 34.4868 42.4844 35.1229 42.4755 35.7894C42.4806 36.4477 42.7448 37.0775 43.2108 37.5425C43.6768 38.0076 44.3071 38.2704 44.9654 38.2741C45.2917 38.2779 45.6155 38.2171 45.9182 38.0951C46.2208 37.9732 46.4964 37.7926 46.7289 37.5637C46.9615 37.3348 47.1464 37.0621 47.2731 36.7614C47.3998 36.4607 47.4657 36.1378 47.467 35.8115H47.4618Z" fill="#172F40"/>
<path d="M46.6406 9.21094V10.7897H30.0117V9.21094H46.6406Z" fill="#172F40"/>
<path d="M26.6783 15.7932V14.1792H43.2904V15.7932H26.6783Z" fill="#172F40"/>
<path d="M27.5231 5.8039V4.20947H44.0986V5.80781L27.5231 5.8039Z" fill="#172F40"/>
</svg>
