<svg width="20" height="20" viewBox="0 0 20 20" fill="none" xmlns="http://www.w3.org/2000/svg">
<path d="M10.0794 0C10.5836 0.142708 11.0867 0.289584 11.5898 0.427084C12.5237 0.681251 13.4591 0.929687 14.3935 1.18125C14.4456 1.19583 14.4977 1.21771 14.6081 1.25573C14.3669 1.32448 14.1789 1.38073 13.9904 1.43125C12.7171 1.77396 11.4435 2.1151 10.1695 2.45469C10.0777 2.48115 9.98066 2.48437 9.88724 2.46406C8.43759 2.0776 6.98898 1.68767 5.54141 1.29427C5.50159 1.28531 5.46619 1.26263 5.44141 1.23021C5.50859 1.21042 5.57578 1.18958 5.64349 1.17135C7.01745 0.802951 8.39123 0.43455 9.76484 0.0661469C9.81839 0.0477377 9.8706 0.025635 9.92109 0H10.0794Z" fill="#062037"/>
<path d="M5.35156 20.0002V18.9502H14.6484V20.0002H5.35156Z" fill="#062037"/>
<path d="M0 18.9428C0.0445191 18.9358 0.0893684 18.9311 0.134373 18.9287H4.48229C4.52708 18.9287 4.57187 18.9344 4.63072 18.9386V19.6459H0V18.9428Z" fill="#062037"/>
<path d="M13.9197 10.3643V18.1929H11.789V14.0747C11.789 13.6757 11.677 13.5632 11.2781 13.5627H8.72077C8.32077 13.5627 8.21087 13.6742 8.21087 14.0752V18.1898H6.08691V10.3643H13.9197ZM9.2843 11.7861C9.2843 11.6627 9.29212 11.5393 9.2843 11.4163C9.26764 11.208 9.1218 11.0721 8.93326 11.0695C8.88753 11.0677 8.84192 11.0751 8.79908 11.0912C8.75624 11.1073 8.71704 11.1318 8.68378 11.1632C8.65051 11.1946 8.62384 11.2324 8.60533 11.2742C8.58682 11.3161 8.57684 11.3612 8.57597 11.407C8.56347 11.653 8.56347 11.8995 8.57597 12.1455C8.5759 12.1912 8.58485 12.2365 8.60231 12.2788C8.61976 12.3211 8.64538 12.3595 8.67769 12.3919C8.71001 12.4242 8.74838 12.4499 8.79063 12.4674C8.83287 12.4849 8.87816 12.4939 8.92389 12.4939C9.11816 12.4939 9.2692 12.3518 9.28587 12.1361C9.29368 12.0221 9.28743 11.9049 9.28691 11.7882L9.2843 11.7861ZM10.7103 11.7669C10.7103 11.8966 10.7005 12.0273 10.7103 12.1554C10.7147 12.2474 10.7546 12.3342 10.8216 12.3973C10.8887 12.4605 10.9776 12.4951 11.0697 12.4939C11.1587 12.4947 11.2445 12.4607 11.3089 12.3993C11.3732 12.3378 11.4111 12.2537 11.4145 12.1648C11.4283 11.9122 11.4283 11.659 11.4145 11.4064C11.4138 11.3607 11.4039 11.3156 11.3855 11.2737C11.367 11.2319 11.3404 11.1941 11.3072 11.1627C11.2739 11.1313 11.2347 11.1069 11.1919 11.0909C11.1491 11.0749 11.1034 11.0676 11.0577 11.0695C10.9658 11.0709 10.8779 11.1078 10.8124 11.1724C10.7469 11.237 10.7089 11.3244 10.7062 11.4163C10.7051 11.5346 10.713 11.6518 10.713 11.7705L10.7103 11.7669Z" fill="#062037"/>
<path d="M19.525 18.2514H14.5542V10.417H19.5266L19.525 18.2514ZM16.3219 12.1951C16.3276 12.0656 16.3267 11.936 16.3193 11.8066C16.3123 11.7187 16.2725 11.6367 16.2079 11.5767C16.1433 11.5167 16.0586 11.4831 15.9704 11.4826C15.8823 11.4821 15.7971 11.5146 15.7318 11.5738C15.6665 11.6331 15.6258 11.7146 15.6177 11.8024C15.6021 12.0612 15.6021 12.3207 15.6177 12.5795C15.6218 12.6687 15.6608 12.7526 15.7263 12.8133C15.7918 12.8739 15.8785 12.9063 15.9677 12.9035C16.161 12.9035 16.3032 12.7748 16.3224 12.5644C16.3308 12.442 16.3219 12.318 16.3219 12.1951ZM16.3219 14.3305C16.3219 14.2076 16.3313 14.0831 16.3219 13.9613C16.3188 13.8691 16.2793 13.782 16.212 13.7189C16.1447 13.6558 16.0552 13.622 15.9631 13.6248C15.8741 13.6243 15.7883 13.6582 15.7238 13.7195C15.6592 13.7807 15.6209 13.8646 15.6167 13.9535C15.6026 14.206 15.6026 14.4592 15.6167 14.7118C15.6197 14.8041 15.6591 14.8914 15.7264 14.9547C15.7937 15.0179 15.8833 15.0519 15.9756 15.0493C16.1636 15.0462 16.3068 14.9092 16.324 14.6998C16.3308 14.5769 16.325 14.4535 16.325 14.33L16.3219 14.3305ZM15.6094 16.479C15.6094 16.6019 15.6006 16.7258 15.6094 16.8482C15.6134 16.9403 15.6524 17.0273 15.7184 17.0915C15.7845 17.1557 15.8725 17.1922 15.9646 17.1936C16.0569 17.1936 16.1455 17.1574 16.2114 17.0929C16.2773 17.0283 16.3153 16.9405 16.3172 16.8482C16.3297 16.602 16.3297 16.3554 16.3172 16.1092C16.3153 16.0169 16.2773 15.9291 16.2114 15.8646C16.1455 15.8 16.0569 15.7638 15.9646 15.7639C15.8726 15.7654 15.7846 15.8019 15.7186 15.8661C15.6525 15.9303 15.6135 16.0172 15.6094 16.1092C15.6006 16.2311 15.6094 16.3545 15.6099 16.4785L15.6094 16.479ZM18.4604 16.4883C18.4604 16.3587 18.4683 16.2279 18.4604 16.0993C18.4564 16.0107 18.419 15.9269 18.3557 15.8647C18.2923 15.8026 18.2079 15.7667 18.1192 15.7643C18.0305 15.762 17.9442 15.7932 17.8776 15.8519C17.8111 15.9106 17.7692 15.9923 17.7605 16.0805C17.7448 16.3461 17.7448 16.6124 17.7605 16.8779C17.7694 16.9663 17.8114 17.0479 17.8781 17.1065C17.9448 17.1651 18.0312 17.1962 18.1199 17.1936C18.2086 17.1911 18.2931 17.155 18.3563 17.0926C18.4195 17.0303 18.4567 16.9463 18.4604 16.8576C18.4688 16.7347 18.4604 16.6107 18.4604 16.4878V16.4883ZM18.4604 12.1956C18.4604 12.066 18.4688 11.9352 18.4604 11.8071C18.4578 11.7217 18.4223 11.6407 18.3614 11.5808C18.3004 11.521 18.2188 11.4869 18.1334 11.4857C17.9464 11.4758 17.7766 11.5936 17.7636 11.7831C17.7459 12.0547 17.7459 12.3272 17.7636 12.5988C17.7761 12.7894 17.9443 12.9113 18.1282 12.9035C18.2168 12.9016 18.3012 12.8652 18.3634 12.8021C18.4256 12.739 18.4608 12.6541 18.4615 12.5654C18.4688 12.442 18.4604 12.3186 18.4604 12.1951V12.1956ZM18.4604 14.3311C18.4604 14.2081 18.4672 14.0842 18.4604 13.9618C18.4577 13.8715 18.4204 13.7858 18.3562 13.7223C18.292 13.6588 18.2058 13.6223 18.1156 13.6205C18.0253 13.6187 17.9378 13.6517 17.8711 13.7126C17.8044 13.7735 17.7637 13.8577 17.7573 13.9477C17.7446 14.2003 17.7446 14.4534 17.7573 14.7061C17.7614 14.7972 17.8007 14.8832 17.8669 14.9459C17.933 15.0087 18.021 15.0434 18.1122 15.0428C18.2034 15.0421 18.2908 15.0061 18.356 14.9423C18.4213 14.8786 18.4592 14.792 18.462 14.7008C18.4688 14.58 18.4604 14.4566 18.4604 14.3331V14.3311Z" fill="#062037"/>
<path d="M0.367188 18.1929V10.3643H5.34167V18.1945L0.367188 18.1929ZM4.28854 12.1294C4.28854 12.0127 4.29584 11.8955 4.28854 11.7794C4.27136 11.571 4.13229 11.4356 3.94062 11.4314C3.73646 11.4273 3.58854 11.5596 3.57604 11.7814C3.56458 12.021 3.56458 12.2617 3.57604 12.5012C3.58646 12.7143 3.72761 12.846 3.92032 12.8502C4.11303 12.8544 4.26875 12.7169 4.2849 12.4992C4.29532 12.3768 4.28854 12.2528 4.28854 12.1294ZM3.57813 14.2783C3.57813 14.408 3.56771 14.5387 3.57813 14.6674C3.58329 14.7559 3.62196 14.8392 3.6863 14.9002C3.75063 14.9613 3.8358 14.9955 3.92448 14.996C4.0135 14.9993 4.10031 14.9679 4.16652 14.9083C4.23273 14.8487 4.27314 14.7656 4.27917 14.6768C4.29635 14.4114 4.29635 14.1452 4.27917 13.8799C4.27549 13.8357 4.26314 13.7927 4.24282 13.7533C4.2225 13.7139 4.1946 13.6789 4.16074 13.6503C4.12687 13.6217 4.0877 13.6001 4.04546 13.5867C4.00322 13.5733 3.95874 13.5683 3.91458 13.5721C3.82922 13.5738 3.74757 13.6073 3.68562 13.6661C3.62368 13.7248 3.5859 13.8046 3.57969 13.8898C3.57239 14.0192 3.57187 14.1489 3.57813 14.2783ZM4.28802 16.4257C4.28802 16.3028 4.29688 16.1783 4.28802 16.0564C4.28331 15.9646 4.24403 15.8778 4.17806 15.8137C4.11208 15.7495 4.02429 15.7127 3.9323 15.7106C3.84007 15.7107 3.75155 15.7469 3.68566 15.8114C3.61976 15.876 3.58173 15.9637 3.57969 16.0559C3.56771 16.3018 3.56771 16.5492 3.57969 16.795C3.58133 16.8872 3.61916 16.9751 3.68503 17.0397C3.75089 17.1043 3.83952 17.1404 3.93177 17.1403C4.02381 17.1391 4.11189 17.1026 4.17794 17.0385C4.24398 16.9744 4.283 16.8875 4.28698 16.7955C4.29531 16.6731 4.2875 16.5492 4.28802 16.4257ZM1.43594 16.4132C1.43594 16.5429 1.42865 16.6736 1.43594 16.8023C1.4398 16.8905 1.47679 16.9741 1.53951 17.0362C1.60224 17.0984 1.6861 17.1347 1.77437 17.1377C1.86263 17.1408 1.94882 17.1105 2.01574 17.0529C2.08266 16.9953 2.1254 16.9145 2.13542 16.8268C2.15131 16.5612 2.15131 16.2949 2.13542 16.0294C2.12701 15.9412 2.08557 15.8594 2.0194 15.8005C1.95323 15.7416 1.86723 15.7099 1.77865 15.7117C1.69007 15.7135 1.60547 15.7488 1.54181 15.8104C1.47815 15.8721 1.44014 15.9555 1.43542 16.0439C1.43073 16.1663 1.43646 16.2903 1.43594 16.4132ZM2.14531 12.1486C2.14531 12.0257 2.15208 11.9018 2.14531 11.7794C2.13021 11.5648 1.97917 11.4262 1.78073 11.4314C1.58229 11.4367 1.44844 11.5684 1.44062 11.7814C1.43177 12.021 1.43177 12.2617 1.44062 12.5012C1.44844 12.7096 1.59011 12.8465 1.78334 12.8502C1.97657 12.8538 2.13282 12.7132 2.14792 12.4986C2.15209 12.3825 2.14531 12.2653 2.14531 12.1486ZM1.43594 14.2747C1.43594 14.3913 1.43594 14.508 1.43594 14.6247C1.43516 14.6377 1.43516 14.6507 1.43594 14.6637C1.44112 14.752 1.47919 14.835 1.54264 14.8966C1.60609 14.9581 1.69031 14.9936 1.77865 14.996C1.86766 15 1.95473 14.9693 2.02163 14.9105C2.08853 14.8516 2.13005 14.7692 2.1375 14.6804C2.15339 14.415 2.15339 14.1489 2.1375 13.8835C2.13043 13.7945 2.08862 13.7118 2.02108 13.6533C1.95354 13.5948 1.86571 13.5653 1.77657 13.571C1.68799 13.5722 1.60328 13.6075 1.54011 13.6696C1.47693 13.7317 1.44018 13.8158 1.4375 13.9044C1.43073 14.0278 1.43594 14.1512 1.43594 14.2747Z" fill="#062037"/>
<path d="M5.05469 6.77051C5.43906 6.31374 5.79739 5.8778 6.17083 5.4554C6.22916 5.38926 6.35729 5.35697 6.45312 5.35645C8.71007 5.35124 10.967 5.35124 13.224 5.35645C13.3273 5.35494 13.4278 5.38958 13.5083 5.45436C13.9469 5.87936 14.3729 6.31634 14.824 6.77051H5.05469Z" fill="#062037"/>
<path d="M12.8437 2.47871V4.62923H7.15625V2.47559C7.60208 2.59382 8.04167 2.70892 8.4776 2.82611C8.89167 2.93652 9.30208 3.06204 9.72031 3.15527C9.89552 3.19672 10.0778 3.19814 10.2536 3.15944C11.0536 2.961 11.8484 2.74277 12.6453 2.52819C12.7078 2.51204 12.7698 2.50006 12.8437 2.47871Z" fill="#062037"/>
<path d="M4.65234 8.19459V7.51074H15.3404V8.19459H4.65234Z" fill="#062037"/>
<path d="M14.6341 8.93945V9.62539H5.36328V8.93945H14.6341Z" fill="#062037"/>
<path d="M4.63073 9.63509H0.578125C0.796875 9.20124 0.994793 8.77989 1.22448 8.3752C1.27292 8.28926 1.42657 8.21895 1.53334 8.21895C2.2875 8.20541 3.04375 8.21009 3.79583 8.21426C3.84115 8.21426 3.92136 8.25436 3.92656 8.28561C3.99115 8.68301 4.23907 8.8804 4.63073 8.93978V9.63509Z" fill="#062037"/>
<path d="M19.3166 9.68712H15.2661V8.99701C15.3682 8.97209 15.4683 8.93971 15.5656 8.90014C15.6675 8.85527 15.7562 8.78512 15.8234 8.69634C15.8906 8.60756 15.934 8.50309 15.9494 8.39285C15.9656 8.28451 16.0093 8.25535 16.113 8.25587C16.8541 8.25951 17.5953 8.25013 18.3359 8.26576C18.4536 8.26576 18.6224 8.34389 18.6765 8.43816C18.9047 8.83712 19.0984 9.25482 19.3166 9.68712Z" fill="#062037"/>
<path d="M19.8888 18.9395V19.6296H15.2617V18.9395H19.8888Z" fill="#062037"/>
<path d="M13.962 1.98828H14.6729V2.31224C14.6729 2.62474 14.6729 2.93724 14.6729 3.24662C14.6687 3.32108 14.6825 3.39546 14.7132 3.46346C14.7438 3.53146 14.7904 3.59107 14.849 3.63724C15.0281 3.7862 15.049 3.99245 14.9177 4.15182C14.7865 4.3112 14.5833 4.3237 14.3969 4.18463C14.1365 3.99141 13.9802 3.72995 13.9672 3.41068C13.9479 2.94505 13.962 2.47839 13.962 1.98828Z" fill="#062037"/>
</svg>
