<svg width="50" height="50" viewBox="0 0 50 50" fill="none" xmlns="http://www.w3.org/2000/svg">
<path d="M18.8425 49.9867C18.5509 49.8968 18.2502 49.8278 17.969 49.7133C16.4265 49.0872 15.5582 47.9508 15.4085 46.2845C15.3916 46.1062 15.3916 45.9266 15.3916 45.7469C15.3916 40.3291 15.3916 34.9113 15.3916 29.4936C15.3916 27.4277 16.5541 25.8787 18.4325 25.4374C18.8147 25.3578 19.2045 25.3199 19.5949 25.3241C20.7664 25.3098 21.938 25.3241 23.1096 25.3241H23.6992C23.6992 24.5522 23.6758 23.8401 23.6992 23.1294C23.7904 20.8358 25.3147 19.0055 27.5484 18.5161C27.9792 18.4309 28.4176 18.3912 28.8567 18.3976C31.4107 18.3863 33.9651 18.3863 36.52 18.3976C39.6142 18.4041 41.6813 20.4804 41.6839 23.5824V25.328C43.0481 25.328 44.3615 25.315 45.675 25.3345C46.1459 25.3311 46.6156 25.383 47.0743 25.4894C47.8936 25.6988 48.6212 26.1719 49.1448 26.8358C49.6685 27.4997 49.9592 28.3174 49.972 29.1629C49.998 32.5474 49.9837 35.9319 49.9798 39.3164C49.9798 39.8462 49.6882 40.1586 49.2378 40.1521C48.7874 40.1456 48.5232 39.8371 48.5193 39.293C48.5193 38.2841 48.5193 37.2766 48.5193 36.2677V35.6742C47.1889 37.1816 45.6138 37.9587 43.6599 38.098C43.6599 38.5314 43.6794 38.9493 43.6599 39.3659C43.6247 40.0059 43.3598 40.6117 42.9138 41.0721C42.4678 41.5325 41.8706 41.8165 41.232 41.8719C40.5934 41.9273 39.9562 41.7504 39.4376 41.3737C38.9189 40.997 38.5536 40.4459 38.4088 39.8215C38.3561 39.5005 38.3321 39.1756 38.3372 38.8504C38.3281 38.6122 38.3372 38.3713 38.3372 38.111H27.0434C27.0434 38.4677 27.0434 38.8191 27.0434 39.1693C27.0199 40.6767 25.8718 41.8574 24.4061 41.8821C22.9403 41.9068 21.7297 40.721 21.6881 39.1966C21.679 38.8413 21.6881 38.4859 21.6881 38.0993C19.7863 37.9574 18.2151 37.2037 16.9042 35.7249C16.8834 35.9358 16.86 36.066 16.86 36.1975C16.86 39.4179 16.8521 42.6397 16.86 45.8615C16.86 47.5121 17.8935 48.5235 19.5584 48.5235C28.313 48.5235 37.0662 48.5235 45.8182 48.5235C47.4909 48.5235 48.5193 47.4821 48.5232 45.8094C48.5232 44.8826 48.5232 43.9544 48.5232 43.0276C48.5232 42.4627 48.8083 42.1242 49.26 42.1281C49.7117 42.132 49.9876 42.4692 49.9837 43.0393C49.9759 44.2265 50.0566 45.4254 49.9173 46.597C49.7091 48.3478 48.4724 49.5467 46.7359 49.9138C46.6769 49.9339 46.6208 49.9619 46.5693 49.9971L18.8425 49.9867ZM43.7302 36.5684C45.6516 36.6192 47.7044 35.0428 48.2863 32.9991C48.6846 31.618 48.6091 30.1835 48.436 28.7867C48.2785 27.5019 47.211 26.7834 45.7791 26.7834H19.5753C19.4777 26.7834 19.3801 26.7834 19.2825 26.7834C17.8714 26.8628 16.8899 27.8547 16.856 29.2684C16.8352 30.0976 16.7949 30.9333 16.8834 31.7547C16.9388 32.4481 17.1123 33.1269 17.3963 33.7619C18.2476 35.4984 19.7029 36.4096 21.623 36.6036C22.0213 34.7955 22.9468 33.84 24.3566 33.9155C24.9343 33.9658 25.491 34.1562 25.9786 34.4701C26.7206 34.9335 27.0017 35.7301 27.0629 36.575H38.2916C38.5975 34.871 39.5126 33.9468 40.9185 33.8921C42.3244 33.8374 43.2395 34.6953 43.7302 36.5684ZM40.2234 25.289V23.5616C40.2234 21.2744 38.8045 19.8556 36.5082 19.8517C33.956 19.8517 31.4037 19.8517 28.8515 19.8517C28.624 19.8516 28.3967 19.8646 28.1707 19.8907C26.757 20.056 25.5672 21.0206 25.2926 22.4174C25.1116 23.3416 25.1624 24.3101 25.1077 25.2812H26.6698C26.6698 24.6563 26.6698 24.0732 26.6698 23.49C26.6776 22.1674 27.4508 21.3877 28.7525 21.3851C31.3707 21.3851 33.9881 21.3851 36.6046 21.3851C37.9323 21.3851 38.6873 22.1401 38.6951 23.4679C38.6951 24.0653 38.6951 24.6641 38.6951 25.2903L40.2234 25.289ZM37.2294 25.289C37.2294 24.6576 37.2294 24.0758 37.2294 23.4939C37.2294 22.938 37.1265 22.843 36.5694 22.843C35.1232 22.843 33.677 22.843 32.2308 22.843C31.0761 22.843 29.9228 22.843 28.7695 22.843C28.4636 22.843 28.172 22.9003 28.1537 23.2453C28.1199 23.9196 28.1433 24.5978 28.1433 25.2955L37.2294 25.289ZM25.5802 37.8949C25.5802 37.4731 25.5893 37.0501 25.5802 36.6283C25.562 35.8915 25.053 35.3591 24.3774 35.3552C24.2181 35.3545 24.0601 35.3854 23.9127 35.4459C23.7653 35.5065 23.6314 35.5955 23.5185 35.708C23.4056 35.8205 23.3161 35.9542 23.2551 36.1014C23.1941 36.2487 23.1627 36.4065 23.1629 36.5658C23.1369 37.4432 23.1369 38.3206 23.1629 39.1979C23.1643 39.3572 23.1971 39.5147 23.2594 39.6613C23.3218 39.8079 23.4124 39.9408 23.5262 40.0523C23.64 40.1638 23.7747 40.2518 23.9226 40.3111C24.0704 40.3704 24.2286 40.4 24.3879 40.3981C25.0478 40.3851 25.5594 39.8683 25.5789 39.1628C25.5893 38.7475 25.5776 38.3245 25.5776 37.9014L25.5802 37.8949ZM42.2046 37.9118C42.2046 37.4406 42.2267 36.9681 42.2046 36.4994C42.1944 36.1909 42.0646 35.8984 41.8427 35.6837C41.6209 35.469 41.3242 35.349 41.0155 35.349C40.7067 35.349 40.4101 35.469 40.1882 35.6837C39.9663 35.8984 39.8365 36.1909 39.8263 36.4994C39.7964 37.4107 39.7977 38.3219 39.8263 39.2253C39.8277 39.3805 39.8596 39.5339 39.9203 39.6768C39.9809 39.8197 40.0692 39.9492 40.1799 40.058C40.2906 40.1668 40.4217 40.2527 40.5656 40.3109C40.7095 40.369 40.8635 40.3982 41.0187 40.3968C41.331 40.3959 41.6304 40.2727 41.853 40.0538C42.0756 39.8348 42.2037 39.5374 42.2098 39.2253C42.2202 38.7957 42.202 38.3557 42.202 37.9183L42.2046 37.9118Z" fill="#172F40"/>
<path d="M0 10.642C0.226501 9.53809 0.91121 8.74274 1.69225 7.97732C3.9425 5.76438 6.17496 3.53279 8.38963 1.28253C8.78671 0.863249 9.26779 0.532445 9.80142 0.311728C10.335 0.0910105 10.9092 -0.0146549 11.4864 0.00163375C19.5398 0.0129154 27.594 0.0129154 35.6491 0.00163375C38.1042 0.00163375 39.6168 1.50383 39.6181 3.94587C39.6181 7.89965 39.6181 11.8534 39.6181 15.8072C39.628 16.0017 39.6113 16.1965 39.5686 16.3865C39.5225 16.546 39.4224 16.6845 39.2855 16.7785C39.1486 16.8725 38.9834 16.916 38.8179 16.9017C38.6525 16.8874 38.4972 16.8162 38.3784 16.7002C38.2596 16.5841 38.1848 16.4305 38.1667 16.2654C38.1541 16.103 38.1506 15.9401 38.1563 15.7773V3.9706C38.1563 2.32392 37.3062 1.47259 35.6621 1.47259H11.4995C11.4184 1.47714 11.3371 1.47714 11.256 1.47259C10.8434 1.42572 10.6924 1.57803 10.6976 2.01801C10.721 3.95498 10.7093 5.89065 10.708 7.82762C10.708 9.71643 9.70179 10.7214 7.81949 10.7227C5.89944 10.7227 3.97939 10.7383 2.05934 10.7123C1.59202 10.7123 1.45272 10.832 1.45402 11.3058C1.47224 15.1785 1.46444 19.0511 1.46444 22.9238V46.0112C1.46444 47.6657 2.30537 48.5131 3.94685 48.5144C7.38081 48.5144 10.8143 48.5144 14.2474 48.5144C14.8983 48.5144 15.2719 48.8568 15.13 49.3645C15.0649 49.5988 14.8124 49.7797 14.6444 49.9854H3.12415C3.02001 49.9489 2.91719 49.9073 2.81175 49.8799C1.69486 49.5897 0.859143 48.9453 0.360581 47.9C0.216089 47.598 0.118457 47.2726 0 46.9589V10.642ZM2.60997 9.25692C4.38553 9.25692 6.12464 9.25692 7.85594 9.25692C8.86608 9.25692 9.24097 8.88463 9.24227 7.87579C9.24227 6.26685 9.24227 4.65792 9.24227 3.04898C9.24227 2.91881 9.22275 2.77562 9.21364 2.65065L2.60997 9.25692Z" fill="#172F40"/>
<path d="M24.4179 10.7214C21.9628 10.7214 19.5073 10.7214 17.0514 10.7214C16.4656 10.7214 16.1584 10.5144 16.0998 10.0966C16.0818 10.0003 16.0842 9.90143 16.1069 9.80621C16.1295 9.71099 16.1719 9.62158 16.2313 9.54378C16.2907 9.46598 16.3657 9.40152 16.4516 9.35458C16.5375 9.30763 16.6323 9.27925 16.7299 9.27126C16.8757 9.25778 17.0222 9.25344 17.1685 9.25824H31.6568C31.8027 9.25367 31.9487 9.25758 32.0942 9.26996C32.259 9.28859 32.4122 9.36365 32.528 9.48241C32.6438 9.60117 32.7149 9.75632 32.7293 9.92154C32.7437 10.0868 32.7005 10.2519 32.607 10.3889C32.5136 10.5259 32.3756 10.6263 32.2165 10.6732C32.043 10.7135 31.8647 10.7297 31.6867 10.7214C29.2646 10.7231 26.8417 10.7231 24.4179 10.7214Z" fill="#172F40"/>
<path d="M24.4074 4.97176C26.8946 4.97176 29.3827 4.97176 31.8716 4.97176C32.2894 4.97176 32.6109 5.09412 32.7177 5.53541C32.7428 5.6304 32.7478 5.72958 32.7325 5.82662C32.7171 5.92367 32.6818 6.01646 32.6286 6.09911C32.5755 6.18175 32.5057 6.25243 32.4238 6.30665C32.3419 6.36088 32.2496 6.39746 32.1527 6.41407C31.9921 6.43826 31.8294 6.44611 31.6672 6.4375H17.1789C17.0326 6.44363 16.886 6.43928 16.7403 6.42449C16.6463 6.41654 16.5549 6.38988 16.4714 6.34608C16.388 6.30228 16.3141 6.24222 16.2542 6.16944C16.1943 6.09667 16.1495 6.01264 16.1226 5.92231C16.0956 5.83197 16.087 5.73716 16.0972 5.64345C16.1349 5.22429 16.3836 4.99258 16.7975 4.97696C17.5291 4.96004 18.2607 4.97045 18.9922 4.97045L24.4074 4.97176Z" fill="#172F40"/>
</svg>
