<svg width="20" height="19" viewBox="0 0 20 19" fill="none" xmlns="http://www.w3.org/2000/svg">
<path d="M19.9997 11.331C19.8859 11.3642 19.7717 11.4286 19.6579 11.4286C14.894 11.4335 10.1305 11.4358 5.36724 11.4355C5.24322 11.4355 5.15778 11.4023 5.08992 11.2993C4.71007 10.7256 4.32095 10.1583 3.9494 9.57921C3.79805 9.34339 3.83955 9.19594 4.05876 9.02262C4.43178 8.72968 4.8087 8.43966 5.18171 8.14672C5.7217 7.72342 5.813 7.15853 5.43315 6.58436C5.19733 6.226 4.95468 5.87203 4.72325 5.51024C4.67562 5.435 4.64913 5.34831 4.6466 5.25929C4.64204 3.60612 4.64107 1.95311 4.64367 0.300266C4.64367 0.0410124 4.68273 0 4.93661 0C9.86292 0 14.7892 0.00162775 19.7155 0.00488267C19.8132 0.00488267 19.906 0.0830004 20.0012 0.124501L19.9997 11.331ZM12.3344 6.25773C12.6342 6.26652 12.891 6.13909 13.1302 5.95747C15.0425 4.5061 16.9552 3.05539 18.8685 1.60532C19.1497 1.39196 19.2161 1.19862 19.0716 1.00674C18.927 0.814867 18.722 0.818773 18.4417 1.03116C16.5344 2.47764 14.6267 3.92429 12.7186 5.37109C12.3993 5.61277 12.2377 5.61131 11.9155 5.3667L8.46412 2.7478C7.70199 2.16972 6.94278 1.58775 6.17527 1.01797C6.06835 0.93888 5.91406 0.871503 5.79152 0.882732C5.69143 0.893474 5.56741 1.01797 5.5225 1.12148C5.44975 1.28846 5.54544 1.43249 5.68752 1.54039C7.65805 3.03342 9.62824 4.52677 11.5981 6.02045C11.8078 6.18364 12.0684 6.26766 12.3339 6.25773H12.3344ZM9.93616 6.28263C9.84291 6.17424 9.77602 6.05121 9.67251 5.98725C9.5109 5.8896 9.35906 5.96723 9.23847 6.09613C8.04359 7.37368 6.84952 8.65205 5.65627 9.93123C5.47563 10.1265 5.4766 10.336 5.64114 10.4829C5.79639 10.6211 6.00243 10.6021 6.17527 10.4175C7.36722 9.14582 8.55673 7.87217 9.74379 6.59657C9.81507 6.51943 9.85609 6.41495 9.93567 6.28263H9.93616ZM19.1892 10.2173C19.1038 10.0894 19.0491 9.97859 18.969 9.89217C17.8077 8.64358 16.6444 7.39695 15.4791 6.15227C15.4404 6.10842 15.3977 6.06822 15.3517 6.03217C15.2866 5.982 15.206 5.9564 15.1239 5.95989C15.0419 5.96339 14.9637 5.99574 14.9031 6.05126C14.8426 6.10677 14.8036 6.18188 14.793 6.26333C14.7825 6.34479 14.801 6.42736 14.8454 6.49648C14.8882 6.56118 14.9372 6.62153 14.9918 6.67664C16.1373 7.90504 17.283 9.13264 18.429 10.3594C18.4818 10.416 18.5369 10.4956 18.6024 10.5098C18.72 10.5347 18.8641 10.5547 18.9646 10.5073C19.0579 10.4639 19.1077 10.3291 19.1887 10.2173H19.1892Z" fill="#062037"/>
<path d="M12.5382 18.93C11.4519 18.9114 10.451 18.5834 9.49162 18.1107C7.95953 17.3559 6.63641 16.3043 5.39043 15.1515C4.14445 13.9988 2.99807 12.7763 2.00988 11.4029C1.2038 10.2833 0.520265 9.09935 0.179476 7.74645C-0.0158188 6.96087 -0.0719653 6.16993 0.113076 5.37117C0.210724 4.95568 0.426038 4.63442 0.792216 4.41472C1.23163 4.15058 1.67104 3.88352 2.11387 3.62231C2.36482 3.47584 2.52741 3.51392 2.69292 3.76146C3.409 4.83167 4.12329 5.90286 4.83579 6.97503C5.00912 7.23575 4.98568 7.3871 4.74205 7.57947C4.37392 7.86948 4.00237 8.15461 3.63326 8.44267C3.1128 8.84889 3.01711 9.35275 3.32177 9.94156C3.96673 11.1905 4.88706 12.2216 5.87525 13.1991C6.6076 13.9231 7.36144 14.6213 8.24076 15.1676C8.50001 15.3288 8.7661 15.4806 9.03561 15.6237C9.55558 15.9005 10.0609 15.798 10.429 15.339C10.7352 14.9592 11.0291 14.5696 11.3298 14.1858C11.5251 13.9358 11.6838 13.9095 11.9489 14.0882C13.0159 14.7981 14.0817 15.5089 15.1464 16.2208C15.4144 16.4 15.4466 16.5474 15.2806 16.8272C15.0556 17.2075 14.8119 17.5781 14.6049 17.9677C14.3208 18.5047 13.8809 18.7869 13.2921 18.8587C13.0431 18.887 12.7892 18.9061 12.5382 18.93Z" fill="#062037"/>
</svg>
