<svg width="50" height="51" viewBox="0 0 50 51" fill="none" xmlns="http://www.w3.org/2000/svg">
<path d="M28.0126 0C29.1412 0.293042 30.2817 0.545163 31.3958 0.885725C34.9836 1.98496 38.2926 3.84386 41.0979 6.33604C44.1003 8.9551 46.4847 12.2073 48.0794 15.8586C48.911 17.7837 49.5221 19.7968 49.901 21.8593C49.928 21.9689 49.961 22.0768 50 22.1827V22.4758C49.9881 22.4876 49.9696 22.4956 49.9643 22.5088C49.6621 23.347 49.1723 23.7575 48.5123 23.7153C47.7203 23.6638 47.2491 23.2071 47.0709 22.2553C46.4473 18.7852 45.055 15.4985 42.996 12.6364C40.2662 8.85065 36.7656 6.00339 32.4148 4.2887C30.8982 3.69074 29.2838 3.33038 27.7037 2.90006C26.8009 2.65454 26.3309 2.28229 26.2517 1.60777C26.1699 0.904205 26.4867 0.427682 27.3249 0H28.0126Z" fill="#92210F"/>
<path d="M15.598 20.8865C17.4315 25.1686 23.7728 31.9164 29.128 34.3611C29.2538 34.1427 29.4006 33.9372 29.5663 33.7473C30.6896 32.6385 31.7865 31.4967 32.9732 30.4578C33.7982 29.7202 34.8698 29.3187 35.9764 29.3326C37.0829 29.3466 38.1441 29.7749 38.9502 30.5331C41.2708 32.7454 43.5324 35.0185 45.7351 37.3522C46.5007 38.154 46.9414 39.2114 46.9719 40.3195C47.0024 41.4277 46.6204 42.5077 45.9001 43.3503C44.4233 45.0638 42.8453 46.6872 41.1744 48.2119C39.4584 49.7788 37.3055 50.1787 35.0232 49.9834C30.7992 49.6204 27.0556 47.9096 23.4243 45.898C18.9566 43.4245 14.9116 40.2551 11.4413 36.5087C7.19349 31.9415 3.68095 26.8872 1.46729 21.0079C0.664729 18.8629 0.0694055 16.6756 0.00472516 14.3669C-0.0599552 12.0582 0.532728 9.94887 2.19462 8.25134C3.51463 6.90229 4.79107 5.49649 6.21404 4.26096C8.41185 2.35355 10.8063 2.36939 12.9263 4.35732C15.1703 6.46141 17.3219 8.66582 19.4168 10.9178C21.0258 12.647 21.0008 15.2038 19.4326 16.9779C18.3238 18.2319 17.1001 19.3856 15.9267 20.5815C15.829 20.6858 15.7128 20.7782 15.598 20.8865ZM2.84406 14.2085C2.89686 14.7748 2.94306 15.3424 3.00642 15.9074C3.0373 16.149 3.08136 16.3887 3.13842 16.6255C3.91459 20.0746 5.35208 23.2532 7.19217 26.2457C12.0986 34.2225 18.6366 40.4542 27.0781 44.607C29.6561 45.8755 32.3185 46.8998 35.2212 47.1572C37.0402 47.3196 38.6347 46.8932 39.9323 45.5429C40.9883 44.438 42.0707 43.3543 43.1399 42.26C43.2719 42.1201 43.4039 41.9736 43.528 41.8218C44.2817 40.8819 44.291 39.9355 43.4726 39.0498C42.5882 38.0941 41.651 37.1872 40.7322 36.2645C39.5944 35.1227 38.4631 33.9743 37.3068 32.8523C36.4435 32.0141 35.4733 32.0049 34.5586 32.781C34.3843 32.9276 34.2233 33.0912 34.0622 33.251C32.9442 34.3664 31.8341 35.495 30.7081 36.5972C29.9003 37.3892 29.0053 37.5344 28.0285 37.0407C27.3474 36.6962 26.6623 36.3503 26.0076 35.9596C23.0613 34.204 20.4978 31.9798 18.1825 29.4639C16.1379 27.2396 14.2727 24.8874 13.0134 22.1075C12.3534 20.6396 12.4854 19.9202 13.6444 18.7995C14.8033 17.6788 15.9834 16.5344 17.1054 15.3556C17.9938 14.4197 17.9621 13.5076 17.1133 12.5334C17.0064 12.4107 16.8942 12.2919 16.7794 12.177C14.9393 10.329 13.0988 8.48542 11.2578 6.64621C10.0566 5.44633 9.01378 5.44765 7.79937 6.64621C6.74336 7.68902 5.72432 8.75823 4.64983 9.78255C3.37998 10.9983 2.77674 12.4556 2.84406 14.2085Z" fill="#92210F"/>
<path d="M27.5493 9.08429C28.1658 9.24401 29.0713 9.40109 29.9253 9.70997C35.5129 11.7349 39.1033 15.617 40.6517 21.3709C40.7415 21.6996 40.8048 22.0309 40.8708 22.3715C41.0306 23.1806 40.5884 23.9106 39.8267 24.1073C39.4654 24.1944 39.0844 24.1363 38.7655 23.9455C38.4466 23.7547 38.2153 23.4464 38.1213 23.0869C37.885 22.2949 37.7596 21.4607 37.4613 20.6938C35.604 15.9127 32.1601 12.9744 27.1282 11.9183C26.1844 11.7217 25.6762 11.0089 25.8769 10.1614C26.0207 9.53969 26.6068 9.08561 27.5493 9.08429Z" fill="#92210F"/>
</svg>
