<svg width="20" height="16" viewBox="0 0 20 16" fill="none" xmlns="http://www.w3.org/2000/svg">
<path d="M0 8.41122H4.77969V8.99053C5.02553 8.83331 5.23983 8.70663 5.44312 8.56393C5.70699 8.37917 5.99389 8.30907 6.31534 8.30957C7.91758 8.31358 9.51582 8.30957 11.1161 8.31208C11.8987 8.31208 12.489 8.70613 12.7183 9.37657C12.9476 10.047 12.7273 10.735 12.133 11.2176C12.1044 11.2407 12.0779 11.2677 12.0158 11.3233C12.6287 11.4074 13.1674 11.5842 13.7828 11.3844C15.1883 10.9267 16.6188 10.5457 18.0387 10.1376C18.3762 10.0349 18.7388 10.0533 19.0641 10.1897C19.3894 10.326 19.6568 10.5716 19.8202 10.8842C20.1367 11.485 20.0085 12.2291 19.4903 12.6527C19.3237 12.7856 19.1339 12.8864 18.9305 12.9501C15.8378 13.9224 12.7437 14.8905 9.648 15.8541C9.31488 15.9634 8.95299 15.9444 8.63308 15.8011C7.4314 15.2918 6.22421 14.7997 5.01852 14.299C4.95443 14.2724 4.88734 14.2514 4.7892 14.2158V15.1872H0V8.41122ZM8.40426 10.793H8.68716C9.51081 10.793 10.3345 10.7976 11.1581 10.793C11.6408 10.789 11.9813 10.4506 11.9808 9.99694C11.9803 9.5433 11.6378 9.20483 11.1546 9.20383C9.50731 9.19982 7.86 9.19982 6.21269 9.20383C6.11129 9.20406 6.0114 9.22843 5.92129 9.27492C5.58632 9.45367 5.25435 9.63893 4.9314 9.83821C4.89259 9.86502 4.85993 9.89978 4.83558 9.94018C4.81124 9.98058 4.79577 10.0257 4.7902 10.0725C4.78052 11.102 4.78052 12.1314 4.7902 13.1609C4.79655 13.2065 4.81343 13.25 4.8395 13.288C4.86557 13.326 4.90012 13.3573 4.94041 13.3797C6.29264 13.9575 7.64804 14.5278 9.00661 15.0906C9.12244 15.1347 9.24943 15.1401 9.36861 15.1061C12.4446 14.1624 15.5189 13.2138 18.5915 12.2601C19.0306 12.1239 19.2249 11.798 19.1117 11.4184C18.9851 10.9948 18.6331 10.8176 18.1809 10.9458C16.6463 11.3884 15.1142 11.838 13.5745 12.2681C13.3261 12.3425 13.065 12.3654 12.8074 12.3352C11.7059 12.1725 10.6043 11.9782 9.5028 11.7955L8.32065 11.5992L8.40426 10.793ZM3.97406 9.21434H3.17945V11.5751H2.36882V9.21033H0.796112V14.3786H3.97456L3.97406 9.21434Z" fill="#92210F"/>
<path d="M5.5968 7.19858V0H19.9834C19.9874 0.0826156 19.9945 0.166233 19.9945 0.25035C19.9945 2.47597 19.9945 4.70208 20 6.9277C20 7.1465 19.9414 7.20459 19.7231 7.20459C15.0973 7.19824 10.4713 7.19657 5.84515 7.19958L5.5968 7.19858ZM19.1813 0.807631H6.39191V6.38193H19.1813V0.807631Z" fill="#92210F"/>
<path d="M3.16996 12.4143V13.5809H2.39587V12.4143H3.16996Z" fill="#92210F"/>
<path d="M12.7804 5.19153C12.4634 5.19014 12.1539 5.09475 11.8912 4.91743C11.6284 4.7401 11.4241 4.48882 11.3042 4.19538C11.1843 3.90193 11.1542 3.57951 11.2175 3.26892C11.2809 2.95832 11.435 2.67351 11.6603 2.45052C11.8856 2.22752 12.172 2.07638 12.4833 2.0162C12.7945 1.95602 13.1166 1.98952 13.4088 2.11245C13.701 2.23538 13.9501 2.44222 14.1247 2.7068C14.2993 2.97138 14.3915 3.28181 14.3896 3.5988C14.3852 4.02269 14.2136 4.4277 13.9124 4.7259C13.6111 5.02411 13.2043 5.19142 12.7804 5.19153ZM13.588 3.60281C13.5898 3.44446 13.5446 3.28914 13.4581 3.15647C13.3717 3.0238 13.2478 2.91973 13.1022 2.85741C12.9567 2.79508 12.7959 2.7773 12.6402 2.8063C12.4845 2.83531 12.3409 2.9098 12.2276 3.02037C12.1142 3.13093 12.0362 3.27262 12.0033 3.42752C11.9704 3.58243 11.9842 3.7436 12.0428 3.89069C12.1015 4.03778 12.2025 4.16417 12.3329 4.25392C12.4634 4.34366 12.6175 4.39273 12.7759 4.39492C12.988 4.39562 13.192 4.31302 13.3439 4.16489C13.4958 4.01675 13.5834 3.81492 13.588 3.60281Z" fill="#92210F"/>
<path d="M8.77527 4.78291V5.58153H7.19556V4.00732H7.98016V4.78291H8.77527Z" fill="#92210F"/>
<path d="M18.3783 5.58802H16.8031V4.79541H17.5797V4.00781H18.3808L18.3783 5.58802Z" fill="#92210F"/>
<path d="M7.1886 3.17638V1.6167H8.77432V2.38327H7.98572V3.17638H7.1886Z" fill="#92210F"/>
<path d="M16.7975 1.60889H18.3797V3.17157H17.5996V2.39699H16.7985L16.7975 1.60889Z" fill="#92210F"/>
<path d="M10.3746 3.20679V3.97336H9.19641V3.20679H10.3746Z" fill="#92210F"/>
<path d="M15.2063 3.18921C15.5658 3.18921 15.8968 3.18921 16.2272 3.18921C16.2775 3.19181 16.3277 3.19699 16.3774 3.20473V3.97381H15.2063V3.18921Z" fill="#92210F"/>
</svg>
