<svg width="20" height="15" viewBox="0 0 20 15" fill="none" xmlns="http://www.w3.org/2000/svg">
<path d="M10.0441 0H19.2763C19.8845 0 20 0.109 20 0.704128C20 5.06404 20 9.42104 20 13.7751C20 14.3506 19.8779 14.4727 19.31 14.4727H0.683411C0.120983 14.4727 0.00108998 14.3495 0 13.7686C0 9.40868 0 5.05169 0 0.697588C0 0.12208 0.120988 0.00108998 0.688867 0H10.0441ZM10.0441 0.818574C7.12954 0.818574 4.21494 0.826201 1.30034 0.808762C0.898141 0.808762 0.809855 0.925394 0.812035 1.31125C0.828748 4.34792 0.828748 7.38533 0.812035 10.4235C0.812035 10.7722 0.886151 10.8845 1.25892 10.8834C7.08812 10.8703 12.9173 10.8703 18.7465 10.8834C19.1193 10.8834 19.1945 10.7744 19.1923 10.4235C19.1792 7.38605 19.1792 4.34865 19.1923 1.31125C19.1923 0.925394 19.1073 0.806582 18.7051 0.808762C15.8167 0.829471 12.9282 0.821841 10.0409 0.821841L10.0441 0.818574ZM11.4611 13.6552C13.8841 13.6552 16.3072 13.6465 18.7291 13.665C19.116 13.665 19.2316 13.5506 19.1945 13.1833C19.1673 12.901 19.1945 12.6121 19.1945 12.3266C19.1945 11.6998 19.1945 11.6987 18.5874 11.6987H5.95782C5.33217 11.6987 4.70543 11.7085 4.07979 11.6987C3.83672 11.6987 3.73644 11.7641 3.75279 12.0257C3.78004 12.4195 3.78004 12.8146 3.75279 13.2084C3.71464 13.6073 3.88032 13.6727 4.23565 13.6716C6.63687 13.652 9.04572 13.6585 11.4502 13.6585L11.4611 13.6552ZM1.88893 13.6552C2.14726 13.6552 2.40667 13.6454 2.665 13.6552C2.88299 13.6661 2.94948 13.5768 2.94512 13.3686C2.93567 12.9057 2.93567 12.4428 2.94512 11.9799C2.94512 11.7718 2.87863 11.6846 2.66281 11.6933C2.34999 11.7053 2.03717 11.6933 1.72435 11.6933C0.824024 11.6933 0.824023 11.6933 0.824023 12.6001C0.817483 13.6585 0.817479 13.6585 1.88239 13.6585L1.88893 13.6552Z" fill="#92210F"/>
<path d="M5.12833 6.01656C5.12833 6.57244 5.12833 7.12724 5.12833 7.68204C5.12833 7.97415 5.09781 8.25646 4.72394 8.26627C4.35008 8.27608 4.30431 8.00358 4.30649 7.70384C4.30649 6.96919 4.31739 6.23346 4.30649 5.49882C4.30104 5.20452 4.39914 5.01813 4.68144 4.89824C6.44284 4.14688 8.2017 3.38898 9.95802 2.62455C10.0442 2.58653 10.1378 2.56799 10.232 2.57025C10.3262 2.57251 10.4187 2.59552 10.503 2.63762C12.247 3.39262 13.9909 4.14652 15.7349 4.89933C15.9322 4.98435 16.1 5.08135 16.1 5.33532C16.1 5.58928 15.9322 5.68738 15.736 5.77131C13.992 6.52231 12.2404 7.27003 10.4965 8.02865C10.2567 8.13765 10.055 8.08969 9.83485 7.99378C8.40189 7.37104 6.96749 6.75338 5.53162 6.14081C5.41935 6.08196 5.30491 6.00021 5.12833 6.01656ZM14.6275 5.35276C14.5739 5.31241 14.5174 5.27599 14.4585 5.24376C13.1113 4.6628 11.763 4.08838 10.4191 3.49979C10.345 3.46848 10.2647 3.45456 10.1844 3.45909C10.1041 3.46363 10.0259 3.4865 9.95584 3.52595C8.71036 4.06658 7.46415 4.60576 6.21722 5.14348C6.08533 5.20125 5.92401 5.21651 5.83027 5.3702C7.04451 5.89339 8.26638 6.38605 9.45663 6.94521C9.99399 7.19809 10.4376 7.20572 10.9826 6.94521C12.1696 6.38387 13.386 5.89121 14.6297 5.35276H14.6275Z" fill="#92210F"/>
<path d="M10.6566 9.28071C9.22983 9.29376 7.80633 9.14197 6.4144 8.82836C6.04599 8.74444 5.87922 8.54715 5.89775 8.17438C5.90974 7.94439 5.89012 7.71114 5.91083 7.48115C5.91 7.42952 5.91982 7.37827 5.93966 7.3306C5.95951 7.28293 5.98896 7.23985 6.02619 7.20406C6.06341 7.16827 6.1076 7.14054 6.15601 7.12257C6.20443 7.10461 6.25602 7.09681 6.30758 7.09966C6.55174 7.09966 6.74357 7.23917 6.71632 7.45717C6.61714 8.1286 7.07819 8.13405 7.51746 8.21144C9.47807 8.55334 11.485 8.53006 13.4371 8.14277C13.7467 8.08282 13.8568 7.95965 13.8186 7.66209C13.8099 7.56733 13.8199 7.47177 13.848 7.38087C13.8666 7.29269 13.917 7.21443 13.9896 7.16097C14.0621 7.10751 14.1518 7.08258 14.2415 7.09094C14.453 7.10293 14.6132 7.21629 14.623 7.44082C14.64 7.7676 14.64 8.09503 14.623 8.4218C14.6067 8.71392 14.3614 8.77277 14.1325 8.82836C12.9933 9.10276 11.8281 9.2544 10.6566 9.28071Z" fill="#92210F"/>
<path d="M4.31501 9.17627C4.3052 8.89288 4.3052 8.61057 4.69106 8.58005C5.01042 8.55607 5.13795 8.75445 5.12705 9.24494C5.12705 9.55341 5.08127 9.84443 4.67798 9.81718C4.27469 9.78993 4.31392 9.46185 4.31501 9.17627Z" fill="#92210F"/>
</svg>
