<svg width="60" height="48" viewBox="0 0 60 48" fill="none" xmlns="http://www.w3.org/2000/svg">
<path d="M60.0001 47.0473H36.9565V46.0871C36.9565 46.0871 36.9565 45.4438 36.9565 43.85C36.9565 42.2465 37.7631 41.6426 39.3569 41.0464C40.1433 40.7478 44.5504 39.1597 44.5504 39.1597L47.5374 40.3253L48.4966 39.3747L50.4169 41.2864L52.4812 39.1597C52.4812 39.1597 56.8115 40.7478 57.5988 41.0464C59.2022 41.6426 59.9992 42.2465 59.9992 43.85C59.9992 45.4438 59.9992 46.0871 59.9992 46.0871V47.0473H60.0001Z" fill="#5D9CEC"/>
<path d="M49.8713 47.0474H47.2002L47.6803 41.7666H49.3903L49.8713 47.0474Z" fill="#E6E9ED"/>
<path d="M49.3903 41.7663H47.6803L47.1992 40.4614H49.8704L49.3903 41.7663Z" fill="#F5F7FA"/>
<path d="M58.089 32.646C58.089 33.1741 57.6569 33.6062 57.1288 33.6062H2.40033C1.87225 33.6062 1.44019 33.1741 1.44019 32.646V0.960149C1.44019 0.432067 1.87225 0 2.40033 0H57.1288C57.6569 0 58.089 0.432067 58.089 0.960149V32.646Z" fill="#48CFAD"/>
<path d="M18.2409 25.4399C12.9476 25.4399 8.64136 21.1336 8.64136 15.8403C8.64136 10.547 12.9476 6.24072 18.2409 6.24072C23.5342 6.24072 27.8395 10.547 27.8395 15.8403C27.8395 21.1336 23.5342 25.4399 18.2409 25.4399ZM18.2409 7.20087C13.4767 7.20087 9.60151 11.076 9.60151 15.8403C9.60151 20.6045 13.4767 24.4797 18.2409 24.4797C23.0042 24.4797 26.8794 20.6045 26.8794 15.8403C26.8794 11.076 23.0042 7.20087 18.2409 7.20087Z" fill="#E6E9ED"/>
<path d="M9.71322 24.8544C9.59033 24.8544 9.46743 24.8074 9.37333 24.7142C9.1861 24.527 9.1861 24.2226 9.37333 24.0354L10.731 22.6778C10.9182 22.4905 11.2226 22.4905 11.4098 22.6778C11.597 22.865 11.597 23.1694 11.4098 23.3566L10.0522 24.7142C9.95902 24.8074 9.83612 24.8544 9.71322 24.8544ZM12.4285 22.1391C12.3056 22.1391 12.1827 22.0921 12.0886 21.9989C11.9014 21.8117 11.9014 21.5073 12.0886 21.3201L13.4463 19.9615C13.6335 19.7743 13.9379 19.7743 14.1251 19.9615C14.3123 20.1487 14.3123 20.4531 14.1251 20.6403L12.7675 21.9989C12.6743 22.0921 12.5514 22.1391 12.4285 22.1391ZM15.1438 19.4229C15.0209 19.4229 14.898 19.3758 14.8039 19.2827C14.6167 19.0955 14.6167 18.7911 14.8039 18.6039L16.1616 17.2462C16.3488 17.059 16.6532 17.059 16.8404 17.2462C17.0276 17.4334 17.0276 17.7378 16.8404 17.925L15.4828 19.2827C15.3896 19.3758 15.2667 19.4229 15.1438 19.4229ZM17.8591 16.7066C17.7362 16.7066 17.6133 16.6596 17.5192 16.5664C17.332 16.3792 17.332 16.0748 17.5192 15.8876L18.8778 14.529C19.0651 14.3418 19.3694 14.3418 19.5567 14.529C19.7439 14.7162 19.7439 15.0206 19.5567 15.2078L18.1981 16.5664C18.1049 16.6605 17.982 16.7066 17.8591 16.7066ZM20.5763 13.9903C20.4534 13.9903 20.3305 13.9433 20.2365 13.8502C20.0492 13.6629 20.0492 13.3586 20.2365 13.1713L21.5941 11.8137C21.7813 11.6265 22.0857 11.6265 22.2729 11.8137C22.4602 12.0009 22.4602 12.3053 22.2729 12.4925L20.9153 13.8502C20.8212 13.9433 20.6992 13.9903 20.5763 13.9903ZM23.2916 11.275C23.1687 11.275 23.0459 11.228 22.9518 11.1349C22.7645 10.9476 22.7645 10.6433 22.9518 10.456L24.3094 9.09742C24.4966 8.91019 24.801 8.91019 24.9882 9.09742C25.1755 9.28465 25.1755 9.58902 24.9882 9.77625L23.6306 11.1349C23.5374 11.228 23.4145 11.275 23.2916 11.275ZM26.0069 8.55878C25.8841 8.55878 25.7612 8.51173 25.6671 8.4186C25.4798 8.23137 25.4798 7.927 25.6671 7.73977L27.0247 6.38212C27.2119 6.19489 27.5163 6.19489 27.7035 6.38212C27.8908 6.56935 27.8908 6.87372 27.7035 7.06095L26.3459 8.4186C26.2527 8.51173 26.1298 8.55878 26.0069 8.55878Z" fill="#F5F7FA"/>
<path d="M50.408 10.0817H33.1253C32.8603 10.0817 32.6453 9.86666 32.6453 9.60166C32.6453 9.33666 32.8603 9.12158 33.1253 9.12158H50.408C50.673 9.12158 50.8881 9.33666 50.8881 9.60166C50.8881 9.86666 50.673 10.0817 50.408 10.0817ZM50.408 13.9223H33.1253C32.8603 13.9223 32.6453 13.7073 32.6453 13.4423C32.6453 13.1773 32.8603 12.9622 33.1253 12.9622H50.408C50.673 12.9622 50.8881 13.1773 50.8881 13.4423C50.8881 13.7073 50.673 13.9223 50.408 13.9223ZM50.408 17.7629H33.1253C32.8603 17.7629 32.6453 17.5478 32.6453 17.2828C32.6453 17.0178 32.8603 16.8028 33.1253 16.8028H50.408C50.673 16.8028 50.8881 17.0178 50.8881 17.2828C50.8881 17.5478 50.673 17.7629 50.408 17.7629ZM41.711 21.6035H33.1253C32.8603 21.6035 32.6453 21.3884 32.6453 21.1234C32.6453 20.8584 32.8603 20.6434 33.1253 20.6434H41.711C41.976 20.6434 42.1911 20.8584 42.1911 21.1234C42.1911 21.3884 41.9769 21.6035 41.711 21.6035Z" fill="#E6E9ED"/>
<path d="M58.089 32.645H1.44022L0 33.6042H59.5292L58.089 32.645Z" fill="#F7C292"/>
<path d="M59.5292 33.604H0V35.5243H59.5292V33.604Z" fill="#FFD2A6"/>
<path d="M48.5352 40.4624L50.4555 41.2863L52.4814 39.1595V37.2373L48.5352 39.2623V40.4624Z" fill="#87BCF4"/>
<path d="M48.5359 40.4624L46.5772 41.2863L44.5503 39.1595V37.2373L48.5359 39.1595V40.4624Z" fill="#87BCF4"/>
<path d="M52.2899 24.0314C52.2899 24.0314 56.1785 23.4861 55.1991 29.7645L53.2788 26.8841C53.2788 26.8841 51.0033 27.8442 48.5059 27.8442C46.0192 27.8442 43.6774 26.8841 43.6774 26.8841L41.7667 29.7549L41.7571 29.7645C40.7681 19.2029 53.2885 21.3046 53.2885 21.3046C51.4248 22.0641 52.2899 24.0314 52.2899 24.0314Z" fill="#656D78"/>
<path d="M55.2269 30.7345C55.2269 35.2952 51.0704 39.5016 48.5059 39.5016C45.9528 39.5016 41.7848 35.2952 41.7848 30.7345V29.7647L41.7656 29.7551L43.6763 26.8843C43.6763 26.8843 46.0181 27.8444 48.5049 27.8444C51.0023 27.8444 53.2778 26.8843 53.2778 26.8843L55.1981 29.7647H55.2259V30.7345H55.2269Z" fill="#EAC6BB"/>
</svg>
