<svg width="16" height="15" viewBox="0 0 16 15" fill="none" xmlns="http://www.w3.org/2000/svg">
<path d="M0.894775 9.47363H2.00947V9.6454C2.00947 10.8403 2.00947 12.0391 2.00947 13.242C2.00947 13.6751 2.22435 13.8902 2.65561 13.8902H13.3504C13.7817 13.8902 13.9951 13.6751 13.9951 13.2405C13.9951 12.0456 13.9951 10.8507 13.9951 9.65585V9.48259H15.1053V9.63195C15.1053 10.8398 15.1053 12.0481 15.1053 13.2569C15.1053 14.286 14.389 14.9999 13.3579 14.9999H2.67351C1.73192 14.9999 1.11263 14.4996 0.91566 13.578C0.910215 13.5605 0.90323 13.5435 0.894775 13.5273V9.47363Z" fill="white"/>
<path d="M8.98103 0V8.86146L11.1299 6.73945L11.9474 7.54462L8.39243 11.0526L4.84213 7.54769L5.63627 6.77018L7.78358 8.89066L7.82407 8.87376V0H8.98103Z" fill="white"/>
</svg>
