<svg width="50" height="50" viewBox="0 0 50 50" fill="none" xmlns="http://www.w3.org/2000/svg">
<path d="M37.5751 43.0335H43.5236C44.5416 43.0335 44.7882 43.2738 44.7882 44.2871C44.8055 44.957 44.7759 45.6273 44.6996 46.2931C44.5411 47.308 44.0312 48.2351 43.259 48.9126C42.4868 49.5901 41.5012 49.9749 40.4742 50C40.3162 50 40.1581 50 40 50H4.78343C1.87006 50 0.00158078 48.1347 0 45.2213C0 30.5801 0 15.9385 0 1.29624C0 0.230796 0.227632 0 1.27411 0H36.3073C37.3648 0 37.5719 0.214981 37.5719 1.28991V43.0224L37.5751 43.0335ZM1.6614 1.69617V45.1233C1.6614 45.3209 1.6614 45.5201 1.6693 45.7161C1.7135 46.4134 2.01644 47.0691 2.51878 47.5548C3.02111 48.0405 3.68666 48.3211 4.38508 48.3418C5.07402 48.352 5.74212 48.1055 6.25932 47.6502C6.77651 47.195 7.10579 46.5636 7.18305 45.8789C7.21919 45.3665 7.22764 44.8525 7.20835 44.3392C7.20835 43.2327 7.41543 43.0335 8.52513 43.0335H35.8868V1.69617H1.6614ZM8.03035 48.3181C8.07713 48.3291 8.1247 48.3365 8.17262 48.3402C18.8956 48.3402 29.6185 48.3402 40.3414 48.3402C42.2273 48.3402 43.4824 46.6156 43.0414 44.7439H8.92666C8.86185 45.3999 8.86974 46.0243 8.72273 46.6092C8.57572 47.1941 8.27221 47.7268 8.03035 48.3181Z" fill="white"/>
<path d="M40.7604 17.6145C40.7604 12.8922 40.7604 8.17092 40.7604 3.45071C40.7604 1.28663 42.0566 0.0046264 44.2381 0.00146484C44.7518 0.00146484 45.2656 0.00146484 45.7793 0.00146484C47.6763 0.022015 49.0247 1.35461 49.05 3.25154C49.0673 4.63314 49.05 6.01632 49.05 7.3995C49.05 15.5763 49.0463 23.7542 49.0389 31.9332C49.0324 32.3824 48.9345 32.8256 48.7512 33.2357C47.7885 35.3761 46.7847 37.5038 45.8015 39.6284C45.6118 40.0362 45.4142 40.4188 44.8799 40.4188C44.3788 40.4188 44.1828 40.0426 44.0041 39.6537C43.0019 37.488 41.9886 35.3271 41.0006 33.1535C40.85 32.8144 40.7704 32.4481 40.7667 32.077C40.754 27.2541 40.7604 22.4343 40.7604 17.6145ZM44.0389 31.6202V7.17029H42.4581V31.6202H44.0389ZM45.7778 7.15448V31.6028H47.3443V7.15448H45.7778ZM47.3838 5.4425C47.3838 5.22277 47.3838 5.06943 47.3838 4.9161C47.3838 4.30434 47.4123 3.68942 47.3664 3.08082C47.3521 2.69992 47.1898 2.33962 46.9142 2.07636C46.6385 1.8131 46.2711 1.66762 45.89 1.67077C45.2197 1.64231 44.5479 1.64389 43.8777 1.67077C43.1631 1.7008 42.5372 2.145 42.4755 2.80576C42.3933 3.67519 42.455 4.55884 42.455 5.4425H47.3838ZM44.8909 37.6287C45.5896 36.1222 46.2267 34.7454 46.8827 33.3274H42.8992C43.5631 34.7485 44.197 36.1175 44.8957 37.6287H44.8909Z" fill="white"/>
<path d="M27.4992 6.97603C27.4992 8.44141 27.5198 9.82143 27.4818 11.1935C27.4754 11.5175 27.3486 11.8274 27.1261 12.063C26.6124 12.5056 25.8789 12.0883 25.8473 11.3548C25.8157 10.6213 25.8473 9.93208 25.8473 9.22231C25.8473 7.74112 25.8473 6.25993 25.8473 4.78033C25.8473 4.30609 25.9358 3.90615 26.429 3.7291C26.9222 3.55206 27.2194 3.83185 27.4866 4.17172C28.179 5.03166 28.8745 5.88687 29.6238 6.80847L31.2045 4.8641C31.4401 4.57324 31.6345 4.2318 31.927 4.00891C32.1625 3.83344 32.5593 3.68169 32.8059 3.76389C33.0525 3.84609 33.2359 4.2144 33.3765 4.49104C33.4572 4.64912 33.3987 4.87833 33.3987 5.07593C33.3987 7.03083 33.3987 8.98572 33.3987 10.9406C33.4058 11.0987 33.4026 11.2571 33.3892 11.4148C33.3212 11.9049 33.073 12.2305 32.5387 12.2131C32.0044 12.1958 31.7483 11.8812 31.7483 11.3706C31.7389 10.1265 31.7483 8.88245 31.7483 7.63837C31.7624 7.42304 31.7199 7.20777 31.625 7.01397C31.2472 7.47397 30.8663 7.93239 30.4885 8.39398C29.8862 9.13379 29.3819 9.13062 28.767 8.38133L27.7158 7.09932C27.6478 7.05119 27.5753 7.0099 27.4992 6.97603Z" fill="white"/>
<path d="M23.081 8.80799H20.6023V10.8298C20.6023 11.0069 20.6118 11.1855 20.6023 11.3625C20.5612 11.9047 20.2277 12.2446 19.7424 12.2146C19.2207 12.1829 18.952 11.8731 18.952 11.3657C18.9457 9.09569 18.9457 6.82517 18.952 4.55412C18.952 3.99294 19.2682 3.68468 19.8499 3.67836C21.1725 3.66255 22.495 3.66255 23.8176 3.67836C24.4136 3.67836 24.7313 3.99452 24.7345 4.60944C24.7482 6.83939 24.7482 9.0704 24.7345 11.3025C24.7345 11.8905 24.3788 12.2351 23.8761 12.2209C23.3734 12.2067 23.0857 11.8763 23.0857 11.2503C23.0747 10.4599 23.081 9.67109 23.081 8.80799ZM20.6308 7.0802H23.0352V5.36189H20.6308V7.0802Z" fill="white"/>
<path d="M5.90103 5.33022V7.11492H8.25006C8.5267 7.11492 8.80491 7.10544 9.07997 7.11492C9.66169 7.14654 10.0126 7.49114 9.99208 7.98909C9.97153 8.46332 9.63008 8.76208 9.06416 8.76683C8.03824 8.77631 7.00915 8.76683 5.9358 8.76683V10.561C6.86846 10.561 7.80903 10.561 8.74959 10.561C8.98355 10.561 9.29021 10.5215 9.43564 10.6464C9.67434 10.8535 9.96363 11.1933 9.94466 11.4557C9.92569 11.7181 9.55895 12.1529 9.32973 12.1623C7.85171 12.2272 6.36893 12.2161 4.88932 12.1829C4.46251 12.1734 4.23331 11.8304 4.23172 11.402C4.23172 9.09089 4.22066 6.77979 4.23172 4.46869C4.23172 3.94545 4.58107 3.67831 5.07902 3.66725C6.42268 3.64933 7.76634 3.64933 9.11 3.66725C9.65853 3.66725 9.99208 4.02134 9.98576 4.50506C9.97944 4.98877 9.64431 5.30809 9.0863 5.316C8.04773 5.33971 7.00757 5.33022 5.90103 5.33022Z" fill="white"/>
<path d="M22.6872 35.0805H31.1618C31.3198 35.0708 31.4784 35.074 31.636 35.09C32.0786 35.1658 32.3489 35.4219 32.3616 35.8803C32.3742 36.3388 32.1102 36.6138 31.6755 36.7118C31.4998 36.7383 31.3217 36.7457 31.1444 36.7339H14.1352C13.9382 36.7503 13.7399 36.7402 13.5456 36.7039C13.1188 36.5854 12.869 36.2977 12.9133 35.8329C12.92 35.6425 12.9966 35.4613 13.1284 35.3237C13.2601 35.1861 13.4379 35.1018 13.6278 35.0868C13.8048 35.0688 13.9829 35.0651 14.1605 35.0757L22.6872 35.0805Z" fill="white"/>
<path d="M22.6273 20.2701C19.7439 20.2701 16.8606 20.2828 13.9773 20.2512C13.6186 20.2392 13.2785 20.0885 13.0288 19.8307C12.6652 19.3928 13.0098 18.7399 13.6042 18.6309C13.8003 18.6065 13.9981 18.5997 14.1954 18.6103H31.0829C31.222 18.6103 31.3611 18.6103 31.4986 18.6103C32.0424 18.6498 32.3744 18.9802 32.3633 19.4639C32.3522 19.9476 32.0282 20.2543 31.4575 20.2543C29.6791 20.2638 27.9023 20.2543 26.124 20.2543L22.6273 20.2701Z" fill="white"/>
<path d="M22.6572 26.8481H31.0701C31.2867 26.8481 31.5602 26.7911 31.7024 26.8986C31.9601 27.0868 32.2462 27.3508 32.3253 27.6385C32.4343 28.04 32.1672 28.3561 31.7404 28.4573C31.5275 28.4985 31.3105 28.5145 31.0938 28.5047C25.4452 28.5047 19.7971 28.5047 14.1495 28.5047C13.9523 28.5136 13.7548 28.5024 13.5598 28.4715C13.4608 28.4605 13.3648 28.43 13.2777 28.3817C13.1905 28.3333 13.1138 28.2681 13.052 28.1899C12.9902 28.1116 12.9446 28.0219 12.9178 27.9259C12.891 27.8299 12.8836 27.7295 12.8959 27.6305C12.8918 27.4397 12.9615 27.2546 13.0905 27.1138C13.2195 26.9731 13.3978 26.8875 13.5883 26.8749C13.8045 26.8509 14.0221 26.842 14.2396 26.8481H22.6572Z" fill="white"/>
<path d="M14.4721 9.36761C13.8746 10.1833 13.3276 10.9484 12.757 11.6961C12.6084 11.8905 12.3902 12.1529 12.191 12.1624C11.897 12.1782 11.4607 12.0818 11.3279 11.8763C11.2516 11.7289 11.2106 11.5656 11.2085 11.3996C11.2063 11.2336 11.2428 11.0693 11.3153 10.9199C11.8723 10.0587 12.4738 9.22717 13.1174 8.42863C13.4067 8.06347 13.3798 7.81371 13.1031 7.46593C12.5641 6.7862 12.0709 6.07011 11.5603 5.36982C11.0228 4.6316 10.9991 4.17476 11.4829 3.83331C11.9666 3.49186 12.3633 3.66417 12.915 4.4182C13.4256 5.11374 13.9378 5.80927 14.4753 6.54276C15.076 5.72391 15.6308 4.96199 16.192 4.20005C16.6061 3.64204 17.0614 3.52506 17.4914 3.85386C17.885 4.15737 17.9103 4.64425 17.5356 5.16432C16.8686 6.09066 16.1936 7.01067 15.5043 7.95755C16.2125 8.92815 16.9097 9.87978 17.602 10.8362C17.8581 11.1902 17.9419 11.6123 17.602 11.9095C17.3447 12.0985 17.0266 12.1858 16.7089 12.1545C16.5081 12.1355 16.3042 11.8652 16.154 11.6661C15.6008 10.9326 15.0696 10.1817 14.4721 9.36761Z" fill="white"/>
<path d="M10.7904 35.9422C10.7904 36.5523 10.8015 37.1641 10.7904 37.7759C10.7793 38.3876 10.5185 38.6801 9.93993 38.6911C8.65844 38.7164 7.37643 38.7164 6.09389 38.6911C5.51849 38.6817 5.22288 38.375 5.21498 37.7917C5.19917 36.5271 5.19917 35.2624 5.21498 33.9978C5.22288 33.4303 5.53115 33.1173 6.10339 33.1063C7.36801 33.0831 8.63263 33.0831 9.89725 33.1063C10.5153 33.1173 10.7841 33.4224 10.7967 34.0405C10.8094 34.6586 10.7904 35.3099 10.7904 35.9422ZM9.09737 37.0029V34.8072H6.88428V37.0029H9.09737Z" fill="white"/>
<path d="M8.00336 24.8845C8.63568 24.8845 9.26799 24.8735 9.9003 24.8845C10.4773 24.8972 10.7808 25.1865 10.7871 25.7603C10.8029 27.0423 10.7998 28.3243 10.7871 29.6063C10.7871 30.1517 10.471 30.4505 9.93192 30.4552C8.6499 30.4678 7.36789 30.4647 6.08588 30.4552C5.54051 30.4552 5.22752 30.139 5.21804 29.6095C5.19432 28.3275 5.19749 27.0455 5.21804 25.7635C5.22594 25.196 5.54525 24.8972 6.11433 24.883C6.74032 24.8735 7.37263 24.8861 8.00336 24.8845ZM6.90789 26.5744V28.7574H9.10043V26.5728L6.90789 26.5744Z" fill="white"/>
<path d="M8.01467 19.8878C8.89358 18.9978 9.65236 18.2201 10.4206 17.455C10.8948 16.9808 11.3359 16.9476 11.7137 17.3143C12.0915 17.6811 12.0536 18.1553 11.603 18.6106C10.6609 19.5664 9.71242 20.5149 8.75763 21.456C8.25653 21.9476 7.87398 21.9428 7.37287 21.456C6.8333 20.9343 6.30321 20.4037 5.78261 19.8641C5.3637 19.4278 5.35422 18.9646 5.72254 18.6121C6.09086 18.2596 6.51293 18.2833 6.93026 18.688C7.29383 19.0516 7.61789 19.4484 8.01467 19.8878Z" fill="white"/>
</svg>
