<svg width="50" height="50" viewBox="0 0 50 50" fill="none" xmlns="http://www.w3.org/2000/svg">
<path d="M38.6989 20.6098L45.0694 14.2527C45.8219 13.5003 46.092 13.5016 46.8525 14.2621C47.7555 15.1642 48.658 16.0672 49.5601 16.9711C50.146 17.5596 50.1473 17.9117 49.5601 18.5042C46.0665 21.9979 42.5728 25.4871 39.0792 28.9718C38.9516 29.0869 38.8508 29.2287 38.784 29.387C38.7171 29.5454 38.6858 29.7164 38.6922 29.8882C38.7038 36.1866 38.7065 42.485 38.7002 48.7834C38.7002 49.7711 38.4826 49.9928 37.4828 49.9928H1.20934C0.219025 49.9928 0 49.7764 0 48.7767V1.20934C0 0.217681 0.214994 0 1.20934 0H37.4895C38.4812 0 38.6989 0.216338 38.6989 1.20934V20.6058V20.6098ZM1.65411 1.62589V48.3373H37.0555V31.029C36.8741 31.1996 36.7411 31.3206 36.6134 31.4469C34.6319 33.4302 32.6482 35.4131 30.6621 37.3955C30.4655 37.5998 30.2339 37.7673 29.9782 37.89C28.2126 38.6653 26.4375 39.4191 24.6679 40.1837C24.301 40.3422 23.9503 40.3785 23.6386 40.0816C23.3268 39.7846 23.3483 39.4016 23.5149 39.016C24.0618 37.7543 24.6007 36.4898 25.1408 35.2254C25.2121 35.0601 25.2752 34.8908 25.3679 34.6557H11.3261V33.0566H11.9671C16.5859 33.0566 21.2047 33.0566 25.8234 33.0566C25.9995 33.0566 26.2266 33.0647 26.3435 32.9639C26.8474 32.5111 27.3176 32.0233 27.9089 31.4361H11.3288V29.8358H11.9738C17.4333 29.8358 22.8915 29.8183 28.3496 29.8532C29.1666 29.8532 29.7659 29.6772 30.3128 29.047C31.0317 28.2193 31.8554 27.4816 32.7315 26.6028H11.3261V24.9984H11.9684C19.2585 24.9984 26.5482 24.9984 33.8373 24.9984C33.993 25.0086 34.149 24.9839 34.2938 24.926C34.4387 24.8681 34.5687 24.7785 34.6745 24.6638C35.3598 23.9472 36.0603 23.2462 36.776 22.5609C36.8849 22.4607 36.9697 22.3373 37.0244 22.1998C37.0791 22.0624 37.1021 21.9144 37.0918 21.7668C37.0855 15.2337 37.0855 8.70008 37.0918 2.16606V1.62858L1.65411 1.62589ZM44.7106 20.9955L42.769 19.0538L27.9492 33.8763L29.8855 35.8233L44.7106 20.9955ZM44.024 17.7034L45.963 19.6504L47.8858 17.7249L45.9401 15.7792L44.024 17.7034ZM26.846 35.3477C26.4859 36.1915 26.1312 37.0206 25.724 37.9719L28.3416 36.8446L26.846 35.3477Z" fill="#172F40"/>
<path d="M19.3494 3.22571H33.5081C34.4339 3.22571 34.6677 3.45952 34.6677 4.38399V16.5782C34.6677 17.5026 34.4326 17.7365 33.5068 17.7365H5.18941C4.26493 17.7365 4.03113 17.5026 4.03113 16.5768V4.37996C4.03113 3.45414 4.26359 3.22168 5.19075 3.22168L19.3494 3.22571ZM33.0338 4.87444H5.68524V16.0971H33.0338V4.87444Z" fill="#172F40"/>
<path d="M10.7093 18.7891L11.8246 19.9675C11.271 20.5198 10.7134 21.1137 10.1114 21.6606C9.95554 21.7944 9.8338 21.9634 9.75622 22.1536C9.67865 22.3438 9.64747 22.5497 9.66526 22.7544C9.69617 23.9785 9.68004 25.2039 9.67467 26.4281C9.67467 27.1214 9.38577 27.4157 8.70182 27.417C7.19328 27.4224 5.6834 27.4224 4.17217 27.417C3.52047 27.417 3.23157 27.1147 3.23157 26.4523C3.2262 24.9419 3.2262 23.432 3.23157 21.9226C3.23157 21.2669 3.52853 20.9739 4.18829 20.9712C5.4796 20.9645 6.77091 20.9565 8.06221 20.9712C8.21832 20.9799 8.37433 20.9526 8.51827 20.8916C8.66222 20.8306 8.79028 20.7374 8.89263 20.6192C9.4758 20.0024 10.0885 19.4099 10.7093 18.7891ZM6.73328 22.6133H4.86552V24.5119L6.73328 22.6133ZM6.04665 25.767H8.01921V23.7877L6.04665 25.767Z" fill="#172F40"/>
<path d="M9.86413 27.6406L11.0735 28.85C10.6945 29.2007 10.3008 29.5218 9.9676 29.89C9.80062 30.084 9.70237 30.3278 9.6881 30.5834C9.66123 31.876 9.67735 33.17 9.67332 34.4626C9.67332 35.1869 9.38846 35.4691 8.66688 35.4718C7.1888 35.4718 5.71072 35.4718 4.23264 35.4718C3.50972 35.4718 3.22754 35.1869 3.2262 34.464C3.2262 32.9859 3.2262 31.5078 3.2262 30.0297C3.2262 29.3055 3.50838 29.026 4.23264 29.0233C5.40838 29.0233 6.58548 28.987 7.75853 29.0381C8.33767 29.0636 8.75288 28.9037 9.10225 28.4603C9.33202 28.1768 9.60076 27.9228 9.86413 27.6406ZM4.87762 30.664V32.5223L6.75881 30.664H4.87762ZM8.01653 33.8419V32.0063L6.13533 33.8419H8.01653Z" fill="#172F40"/>
<path d="M11 23.5493V22H34.3349V23.5493H11Z" fill="#172F40"/>
<path d="M34.6436 41.1523V42.7057H11.3275V41.1523H34.6436Z" fill="#172F40"/>
<path d="M6.43236 43.5375C5.67585 43.5375 4.92068 43.5375 4.16552 43.5375C3.53397 43.5308 3.22492 43.2379 3.22492 42.6144C3.21686 41.087 3.21686 39.5588 3.22492 38.0297C3.22492 37.3981 3.52322 37.0891 4.1467 37.0891C5.67495 37.081 7.2032 37.081 8.73145 37.0891C9.36165 37.0891 9.67205 37.3887 9.67205 38.0108C9.68011 39.54 9.68011 41.0682 9.67205 42.5956C9.67205 43.2446 9.36702 43.5362 8.6992 43.5362C7.94403 43.5416 7.18752 43.5375 6.43236 43.5375ZM4.87365 38.7217V41.8848H8.03541V38.7217H4.87365Z" fill="#172F40"/>
<path d="M21.7493 37.9336V39.4762H11.3141V37.9336H21.7493Z" fill="#172F40"/>
<path d="M18.5216 12.8777V14.5062C17.1457 14.5062 15.7925 14.5264 14.4394 14.4941C13.9785 14.4834 13.7125 14.1502 13.7111 13.6879C13.7031 11.555 13.7031 9.42342 13.7111 7.29319C13.7111 6.82692 13.9691 6.48697 14.4287 6.47353C15.7831 6.4386 17.1389 6.46143 18.5189 6.46143V8.04568H15.3505V9.65813H18.5041V11.2706H15.3451V12.8709L18.5216 12.8777Z" fill="#172F40"/>
<path d="M24.9689 6.45064V8.06309C24.2057 8.06309 23.4424 8.05503 22.6846 8.06309C22.0786 8.07116 21.6768 8.49712 21.7937 9.01042C21.9052 9.49415 22.2533 9.64734 22.7249 9.68227C23.133 9.70442 23.5287 9.83026 23.8747 10.0479C24.2207 10.2655 24.5054 10.5678 24.702 10.9261C24.8987 11.2844 25.0007 11.6869 24.9985 12.0956C24.9963 12.5044 24.8899 12.9058 24.6894 13.2619C24.2755 14.0023 23.6292 14.4417 22.7881 14.4914C21.9469 14.5411 21.0829 14.5022 20.196 14.5022V12.9005C20.9203 12.9005 21.6351 12.9005 22.346 12.9005C22.9977 12.9005 23.3591 12.6237 23.3779 12.1238C23.3968 11.6239 23.0581 11.3404 22.4051 11.284C21.7867 11.2354 21.2106 10.9511 20.7959 10.4898C20.3812 10.0285 20.1596 9.42551 20.1768 8.80546C20.1941 8.1854 20.4489 7.59568 20.8886 7.15817C21.3283 6.72066 21.9193 6.46881 22.5395 6.45468C23.3443 6.43855 24.1452 6.45064 24.9689 6.45064Z" fill="#172F40"/>
<path d="M10.5011 14.4919H8.86853V8.07704H7.2937V6.4834H12.0652V8.03538H10.5011V14.4919Z" fill="#172F40"/>
<path d="M28.2367 8.057H26.6323V6.49023H31.4065V8.05565H29.8478V14.4719H28.2354L28.2367 8.057Z" fill="#172F40"/>
</svg>
