<svg width="20" height="21" viewBox="0 0 20 21" fill="none" xmlns="http://www.w3.org/2000/svg">
<path d="M0 5.32123C0.0960937 5.05443 0.15625 4.76849 0.294922 4.52435C0.715625 3.77435 1.37773 3.35248 2.23476 3.34584C4.6043 3.32474 6.97383 3.33529 9.34414 3.33842C9.72812 3.33842 10.0019 3.61498 10.0004 3.96888C9.99843 4.33021 9.71914 4.58568 9.31718 4.58568C7.00625 4.58568 4.69531 4.58568 2.38437 4.58568C1.79453 4.58568 1.37227 4.9142 1.26875 5.44506C1.25498 5.52843 1.24923 5.61293 1.25156 5.6974C1.25156 9.68177 1.25156 13.6661 1.25156 17.6505C1.25 18.3212 1.69141 18.7572 2.36953 18.7572C6.33411 18.7572 10.2986 18.7572 14.2629 18.7572C14.9891 18.7572 15.4191 18.3314 15.4195 17.6076C15.4195 15.3419 15.4195 13.0763 15.4195 10.8107C15.4195 10.7326 15.4195 10.6544 15.4238 10.5763C15.4347 10.43 15.4972 10.2923 15.6001 10.1878C15.703 10.0833 15.8397 10.0187 15.9858 10.0055C16.1319 9.9924 16.278 10.0316 16.3979 10.1161C16.5178 10.2006 16.6038 10.3249 16.6406 10.4669C16.662 10.562 16.6717 10.6593 16.6695 10.7568C16.6711 13.0484 16.6711 15.3401 16.6695 17.6318C16.6695 18.8486 15.9184 19.7478 14.7191 19.9798C14.6947 19.9872 14.6712 19.9972 14.6488 20.0095H1.99219C1.95138 19.9943 1.90978 19.9812 1.86758 19.9704C1.1918 19.8247 0.65664 19.4712 0.319922 18.865C0.175391 18.6017 0.104297 18.3001 0 18.0165V5.32123Z" fill="white"/>
<path d="M20 2.38797C19.9898 2.92756 19.7769 3.44353 19.4036 3.83329C18.9137 4.34579 18.4067 4.84227 17.9055 5.34383C15.5495 7.70034 13.1942 10.0571 10.8395 12.4141C10.67 12.5939 10.4477 12.715 10.2047 12.7598C9.2852 12.9333 8.36879 13.1243 7.45082 13.304C6.98207 13.3962 6.61293 13.0247 6.70512 12.5536C6.89262 11.597 7.07504 10.6395 7.28207 9.6868C7.31918 9.5161 7.43598 9.34071 7.56254 9.21375C9.93546 6.8286 12.3131 4.44774 14.6954 2.07118C15.1692 1.59735 15.6301 1.10907 16.1211 0.65399C16.8418 -0.0147595 17.6836 -0.174525 18.5961 0.192662C19.4621 0.541881 20.0024 1.38172 20 2.38797ZM15.3098 3.16922C15.2696 3.23666 15.2237 3.30056 15.1727 3.36024C13.1485 5.38758 11.1329 7.42274 9.0891 9.42977C8.65668 9.85438 8.3352 10.2891 8.30785 10.9044C8.30451 10.9236 8.29968 10.9425 8.2934 10.961L8.1141 11.8884C8.19496 11.8782 8.24574 11.8751 8.29496 11.8653C8.79223 11.7665 9.29066 11.6723 9.78559 11.5618C9.89657 11.5339 9.99803 11.4767 10.0793 11.3962C12.2786 9.20347 14.4759 7.0092 16.6715 4.81336C16.7207 4.76454 16.7993 4.7454 16.8559 4.71649L15.3098 3.16922ZM16.2735 2.26649L17.7344 3.73055C17.9782 3.49032 18.2493 3.24579 18.493 2.97665C18.6659 2.77732 18.7563 2.51956 18.7457 2.2559C18.7352 1.99224 18.6245 1.74253 18.4362 1.55765C18.248 1.37277 17.9963 1.26663 17.7325 1.26087C17.4687 1.25511 17.2126 1.35016 17.0164 1.52665C16.7539 1.76883 16.5098 2.03211 16.2735 2.26649Z" fill="white"/>
</svg>
