<svg width="20" height="18" viewBox="0 0 20 18" fill="none" xmlns="http://www.w3.org/2000/svg">
<path d="M0 9.2189V4.06305C0.0322892 3.89848 0.0604049 3.73339 0.0968604 3.56986C0.565574 1.46898 2.34512 0.0117997 4.49652 0.00555014C8.16759 -0.00486572 11.8397 0.00190459 15.5102 0.00555014C15.7317 0.00411756 15.9529 0.0204886 16.1717 0.0545048C18.4178 0.41906 19.9938 2.26996 19.9979 4.5479C19.9979 5.94728 20.0047 7.34717 19.9938 8.74654C19.9938 9.07911 19.9588 9.41077 19.8896 9.73605C19.4172 11.8593 17.6247 13.2842 15.4446 13.2852C13.4528 13.2852 11.4609 13.2852 9.46905 13.2852C9.40242 13.282 9.33589 13.2934 9.27416 13.3187C9.21243 13.344 9.157 13.3825 9.11179 13.4316C7.73864 14.8113 6.3634 16.1887 4.98607 17.5636C4.77775 17.7719 4.55433 17.8859 4.26894 17.7672C3.98354 17.6485 3.90021 17.4131 3.90126 17.1188C3.90698 15.9012 3.90126 14.6841 3.90126 13.467V13.2587C3.81741 13.2415 3.75387 13.2295 3.69294 13.2155C1.84204 12.8171 0.659315 11.7052 0.133835 9.88812C0.074985 9.66417 0.0447882 9.43815 0 9.2189ZM14.1843 9.67146C14.1843 9.83916 14.1739 10.0016 14.1843 10.1615C14.1877 10.2089 14.2004 10.2551 14.2217 10.2975C14.2431 10.3398 14.2727 10.3775 14.3087 10.4084C14.3447 10.4393 14.3866 10.4627 14.4317 10.4772C14.4769 10.4918 14.5245 10.4973 14.5718 10.4933C14.6641 10.493 14.7526 10.4565 14.8182 10.3916C14.8839 10.3268 14.9214 10.2387 14.9228 10.1464C14.9304 10.0556 14.9304 9.96434 14.9228 9.87353C14.9077 9.72771 14.9452 9.66522 15.1098 9.63189C15.9097 9.47565 16.3867 9.00068 16.4373 8.1945C16.493 7.30915 16.4893 6.41286 16.455 5.52387C16.4279 4.78851 16.0597 4.24012 15.3191 4.04378C14.9848 3.96362 14.6406 3.93239 14.2973 3.95108C13.2912 3.98649 12.6698 4.62446 12.6495 5.63063C12.6344 6.39151 12.635 7.15291 12.6469 7.91379C12.6672 8.93454 13.1417 9.47929 14.1843 9.66886V9.67146ZM10.4153 8.43771C10.495 8.72779 10.5867 8.99965 10.6424 9.27879C10.7065 9.5996 10.9127 9.67459 11.1877 9.63033C11.3346 9.60565 11.4764 9.55691 11.6074 9.48606C11.8506 9.3543 11.8954 9.21629 11.8157 8.95277C11.3522 7.43727 10.8856 5.9228 10.4273 4.40573C10.3492 4.14533 10.1935 3.97451 9.93621 3.93702C9.70679 3.90497 9.47402 3.90497 9.2446 3.93702C8.98733 3.97295 8.8316 4.14533 8.75348 4.40573C8.30299 5.90457 7.84313 7.40081 7.38692 8.89809C7.28276 9.24233 7.35098 9.40534 7.68585 9.54179C7.82392 9.59729 7.97008 9.63001 8.11864 9.63866C8.35247 9.65116 8.4608 9.55794 8.52486 9.33191C8.59725 9.07568 8.66078 8.81685 8.74307 8.56374C8.75661 8.53305 8.77737 8.50609 8.80358 8.48514C8.82978 8.4642 8.86066 8.44989 8.89358 8.44344C9.39302 8.43302 9.8935 8.43771 10.4153 8.43771ZM5.12251 4.99579C5.78757 4.99579 6.43127 4.99579 7.07497 4.99579C7.3088 4.99579 7.43952 4.87028 7.4916 4.61353C7.5468 4.33178 7.44369 4.03336 7.26141 3.95993C7.21879 3.94409 7.17355 3.93649 7.12809 3.93754C6.21045 3.93754 5.29334 3.93233 4.3757 3.94118C4.0299 3.94483 3.89969 4.09742 3.89969 4.43854C3.89969 5.98738 3.90543 7.53622 3.89553 9.08506C3.89293 9.43763 3.97105 9.56731 4.37622 9.6298C4.52436 9.64545 4.67413 9.63146 4.81681 9.58866C5.03971 9.52981 5.11627 9.40742 5.11627 9.17202C5.11627 8.6054 5.11627 8.03913 5.11627 7.4732V7.25551H5.39697C5.68966 7.25551 5.98287 7.26228 6.27503 7.25238C6.52189 7.24405 6.66093 7.06334 6.65729 6.78107C6.65364 6.4988 6.51303 6.32537 6.26721 6.32017C6.00057 6.31444 5.73341 6.32017 5.46676 6.32017H5.12408L5.12251 4.99579Z" fill="#062037"/>
</svg>
