<svg width="60" height="55" viewBox="0 0 60 55" fill="none" xmlns="http://www.w3.org/2000/svg">
<path fill-rule="evenodd" clip-rule="evenodd" d="M43.299 41.5634L46.0988 48.003C46.8688 49.7668 46.0568 51.8387 44.2929 52.5947L41.4371 53.8406C39.6732 54.6105 37.6014 53.7986 36.8314 52.0347L32.2677 41.5634H3.96151C2.5056 41.5634 1.31567 40.3734 1.31567 38.9175V3.96175C1.31567 2.50584 2.5056 1.31592 3.96151 1.31592H57.3541C58.81 1.31592 60 2.50584 60 3.96175V38.9175C60 40.3734 58.81 41.5634 57.3541 41.5634H43.299Z" fill="#CED3DB"/>
<path fill-rule="evenodd" clip-rule="evenodd" d="M41.9833 40.2474L44.7832 46.687C45.5531 48.4509 44.7412 50.5228 42.9773 51.2787L40.1215 52.5247C38.3576 53.2946 36.2857 52.4827 35.5157 50.7188L30.952 40.2474H2.64583C1.18992 40.2474 0 39.0575 0 37.6016V2.64583C0 1.18992 1.18992 0 2.64583 0H56.0384C57.4944 0 58.6843 1.18992 58.6843 2.64583V37.6016C58.6843 39.0575 57.4944 40.2474 56.0384 40.2474H41.9833Z" fill="white"/>
<path fill-rule="evenodd" clip-rule="evenodd" d="M2.64575 37.6018H56.0384V2.646H2.64575V37.6018Z" fill="#FF7069"/>
<path fill-rule="evenodd" clip-rule="evenodd" d="M54.9884 2.646H29.342V36.1739H54.9884V2.646Z" fill="#E4E7ED"/>
<path fill-rule="evenodd" clip-rule="evenodd" d="M54.0785 2.646H29.342V34.046H54.0785V2.646Z" fill="white"/>
<path fill-rule="evenodd" clip-rule="evenodd" d="M3.6958 2.646H29.3422V36.1739H3.6958V2.646Z" fill="#E4E7ED"/>
<path fill-rule="evenodd" clip-rule="evenodd" d="M4.60547 2.646H29.3419V34.046H4.60547V2.646Z" fill="white"/>
<path fill-rule="evenodd" clip-rule="evenodd" d="M28.9224 2.646H29.7623V34.046H28.9224V2.646Z" fill="#ECF0F1"/>
<path fill-rule="evenodd" clip-rule="evenodd" d="M6.71948 6.20172H19.9206V4.38184H6.71948V6.20172Z" fill="#FFE356"/>
<path fill-rule="evenodd" clip-rule="evenodd" d="M6.71948 20.1168H25.8143V21.0827H6.71948V20.1168ZM32.1699 20.1168H51.2647V21.0827H32.1699V20.1168ZM32.1699 7.32162H51.2647V8.28755H32.1699V7.32162ZM32.1699 17.107H40.5273V18.0729H32.1699V17.107ZM32.1699 15.1471H51.2647V16.1131H32.1699V15.1471ZM32.1699 13.1872H51.2647V14.1532H32.1699V13.1872ZM32.1699 11.2274H40.5273V12.1933H32.1699V11.2274ZM32.1699 9.26749H51.2647V10.2334H32.1699V9.26749ZM32.1699 29.8882H38.7355V30.8541H32.1699V29.8882ZM32.1699 27.9283H51.2647V28.8942H32.1699V27.9283ZM32.1699 25.9684H51.2647V26.9344H32.1699V25.9684ZM32.1699 24.0086H51.2647V24.9745H32.1699V24.0086ZM32.1699 22.0487H51.2647V23.0146H32.1699V22.0487ZM6.71948 7.30762H25.8143V8.27356H6.71948V7.30762ZM6.71948 17.093H15.077V18.0589H6.71948V17.093ZM6.71948 15.1331H25.8143V16.0991H6.71948V15.1331ZM6.71948 13.1732H25.8143V14.1392H6.71948V13.1732ZM6.71948 11.2134H25.8143V12.1793H6.71948V11.2134ZM6.71948 9.25349H25.8143V10.2194H6.71948V9.25349ZM6.71948 29.8742H13.2851V30.8401H6.71948V29.8742ZM6.71948 27.9143H25.8143V28.8802H6.71948V27.9143ZM6.71948 25.9544H25.8143V26.9204H6.71948V25.9544ZM6.71948 23.9946H25.8143V24.9605H6.71948V23.9946ZM6.71948 22.0347H25.8143V23.0006H6.71948V22.0347Z" fill="#ECF0F1"/>
<path fill-rule="evenodd" clip-rule="evenodd" d="M29.3422 7.93768C36.5658 8.73563 41.7594 15.2452 40.9615 22.4688C40.4715 26.9345 37.7977 30.6162 34.1159 32.5901L34.8019 34.158L33.164 34.872L32.492 33.3321C30.6161 34.032 28.5583 34.312 26.4304 34.074C19.2069 33.2761 14.0132 26.7665 14.8111 19.5429C15.6091 12.3194 22.1187 7.12574 29.3422 7.92369V7.93768ZM29.1742 9.46359C22.7906 8.74963 17.051 13.3553 16.337 19.7249C15.6231 26.1085 20.2288 31.8482 26.5984 32.5621C32.982 33.2761 38.7216 28.6704 39.4356 22.3008C40.1495 15.9172 35.5438 10.1775 29.1742 9.46359Z" fill="#6C7678"/>
<path fill-rule="evenodd" clip-rule="evenodd" d="M32.5479 35.1377L35.4037 33.8918C35.8377 33.7098 36.3417 33.9058 36.5237 34.3257L42.3613 47.7229C42.5433 48.1569 42.3473 48.6608 41.9273 48.8428L39.0715 50.0887C38.6375 50.2707 38.1336 50.0747 37.9516 49.6548L32.1139 36.2576C31.932 35.8237 32.1279 35.3197 32.5479 35.1377Z" fill="#FFE356"/>
<path fill-rule="evenodd" clip-rule="evenodd" d="M30.9659 9.75718C37.1815 11.4651 40.8352 17.8767 39.1413 24.0923C37.4335 30.3079 31.0219 33.9616 24.8063 32.2677C18.5907 30.5599 14.9369 24.1483 16.6308 17.9327C18.3387 11.7171 24.7503 8.06329 30.9659 9.77118V9.75718Z" fill="#ECF0F1"/>
<path fill-rule="evenodd" clip-rule="evenodd" d="M16.2249 20.5645H24.4424V21.9504H16.2529C16.2109 21.4885 16.2109 21.0265 16.2249 20.5645ZM33.5278 10.8071C34.1718 11.1571 34.7737 11.5771 35.3337 12.0391H33.5278V10.8071ZM36.7616 13.453C37.1396 13.8869 37.4756 14.3489 37.7836 14.8389H33.5418V13.453H36.7756H36.7616ZM38.5255 16.2528C38.7215 16.7008 38.9035 17.1627 39.0435 17.6387H33.5278V16.2528H38.5255ZM39.5334 20.5645C39.5474 21.0265 39.5474 21.4885 39.5054 21.9504H33.5278V20.5645H39.5334ZM39.2955 23.3643C39.2395 23.6163 39.1835 23.8543 39.1135 24.0923C39.0575 24.3163 38.9875 24.5263 38.9175 24.7503H33.5138V23.3643H39.2955ZM38.3435 26.1642C38.1055 26.6541 37.8396 27.1161 37.5456 27.5501H33.5278V26.1642H38.3435ZM36.4116 28.964C35.9357 29.468 35.4177 29.9439 34.8577 30.3499H33.5138V28.964H36.4116ZM29.9441 32.4918C29.5381 32.5618 29.1181 32.6178 28.7121 32.6458V9.36523C29.1181 9.39323 29.5381 9.44923 29.9441 9.51922V32.4778V32.4918ZM24.4284 32.1558C24.0644 32.0438 23.7005 31.9038 23.3505 31.7638H24.4284V32.1558ZM20.8866 30.3499C20.3267 29.9299 19.8087 29.468 19.3467 28.964H24.4424V30.3499H20.9006H20.8866ZM18.2268 27.5501C17.9328 27.1021 17.6528 26.6401 17.4148 26.1642H24.4284V27.5501H18.2128H18.2268ZM16.8409 24.7503C16.6869 24.3023 16.5609 23.8263 16.4629 23.3643H24.4424V24.7503H16.8409ZM17.9888 14.8389C18.2968 14.3489 18.6328 13.8869 19.0107 13.453H24.4424V14.8389H17.9888ZM20.4387 12.0391C21.0826 11.5071 21.7966 11.0311 22.5385 10.6532H24.4424V12.0391H20.4387Z" fill="#D0D1D4"/>
<path fill-rule="evenodd" clip-rule="evenodd" d="M17.9187 20.5649C18.1287 18.1991 19.1507 15.8892 20.9705 14.0693C22.7764 12.2774 25.0723 11.2695 27.4241 11.0595C27.6761 11.0315 27.9001 11.1155 28.0821 11.2835C28.2641 11.4515 28.3621 11.6615 28.3621 11.9135V12.0114C28.3621 12.4594 28.0261 12.8234 27.5781 12.8654C25.6322 13.0474 23.7424 13.8733 22.2445 15.3572C20.7466 16.8551 19.9066 18.759 19.7246 20.7189C19.6826 21.1669 19.3186 21.5028 18.8707 21.5028H18.7727C18.5207 21.5028 18.3107 21.4048 18.1427 21.2229C17.9747 21.0409 17.9047 20.8169 17.9187 20.5649ZM19.2347 22.4828C19.5986 22.8468 19.5986 23.4347 19.2347 23.7987C18.8707 24.1627 18.2827 24.1627 17.9187 23.7987C17.5548 23.4347 17.5548 22.8468 17.9187 22.4828C18.2827 22.1188 18.8707 22.1188 19.2347 22.4828Z" fill="white"/>
</svg>
