<svg width="261" height="75" viewBox="0 0 261 75" fill="none" xmlns="http://www.w3.org/2000/svg">
<path d="M73.152 57.4268H78.1442V36.5822L87.4717 57.4268H90.9312L100.215 36.5822V57.4268H105.207V26.992H99.8645L89.2233 50.8581L78.5383 26.992H73.152V57.4268ZM121.928 37.1077C125.65 37.1077 128.584 39.4724 128.672 43.1947H115.316C115.841 39.3848 118.556 37.1077 121.928 37.1077ZM133.226 50.245H127.84C126.92 52.128 125.212 53.6169 122.147 53.6169C118.469 53.6169 115.622 51.2084 115.272 47.2234H133.708C133.839 46.3914 133.883 45.6032 133.883 44.7711C133.883 37.677 129.022 32.9038 122.147 32.9038C115.009 32.9038 110.104 37.7646 110.104 45.3404C110.104 52.9163 115.228 57.8209 122.147 57.8209C128.059 57.8209 131.869 54.449 133.226 50.245ZM143.788 44.7274C143.788 39.6038 146.065 38.0711 149.744 38.0711H151.013V32.9038C147.598 32.9038 145.189 34.3927 143.788 36.8012V33.2979H138.796V57.4268H143.788V44.7274ZM155.602 57.4268H160.594V33.2979H155.602V57.4268ZM158.142 30.1011C159.894 30.1011 161.295 28.6998 161.295 26.9044C161.295 25.109 159.894 23.7077 158.142 23.7077C156.347 23.7077 154.945 25.109 154.945 26.9044C154.945 28.6998 156.347 30.1011 158.142 30.1011ZM167.937 50.7267C167.937 55.6313 170.608 57.4268 174.9 57.4268H178.841V53.2666H175.776C173.674 53.2666 172.973 52.5222 172.973 50.7267V37.3705H178.841V33.2979H172.973V27.2985H167.937V33.2979H165.091V37.3705H167.937V50.7267Z" fill="#062037"/>
<path d="M200.235 48.4058C200.235 50.9895 198.483 52.4346 195.505 52.4346H189.331V44.2019H195.374C198.352 44.2019 200.235 45.7783 200.235 48.4058ZM199.49 35.6626C199.49 38.1587 197.826 39.4724 194.936 39.4724H189.331V31.809H194.936C197.826 31.809 199.49 33.2103 199.49 35.6626ZM206.453 49.1503C206.453 45.5594 204.001 42.3626 200.541 41.7496C203.519 40.7862 205.752 38.4652 205.752 34.743C205.752 30.1887 202.205 26.8606 195.812 26.8606H183.2V57.4268H196.381C202.731 57.4268 206.453 54.0111 206.453 49.1503ZM221.761 37.8084C224.914 37.8084 227.454 39.8228 227.542 43.0195H216.025C216.506 39.6914 218.827 37.8084 221.761 37.8084ZM233.278 49.8071H226.666C225.878 51.4274 224.433 52.7411 221.805 52.7411C218.74 52.7411 216.287 50.7267 215.981 47.1359H233.716C233.848 46.3476 233.891 45.5594 233.891 44.7711C233.891 37.5456 228.943 32.7724 221.936 32.7724C214.755 32.7724 209.763 37.6332 209.763 45.2966C209.763 52.9163 214.886 57.8209 221.936 57.8209C227.936 57.8209 231.965 54.2738 233.278 49.8071ZM238.366 57.4268H244.497V25.0214H238.366V57.4268ZM250.554 57.4268H256.685V25.0214H250.554V57.4268Z" fill="#9F0D00"/>
<path d="M53.1636 0.172562C52.0789 0.897318 50.9942 1.627 49.9096 2.34683C43.1254 6.83342 36.3397 11.3167 29.5523 15.7967C29.2418 16.0151 28.8833 16.1555 28.5071 16.2059C23.8676 16.5708 19.2233 16.9159 14.5839 17.261C14.3728 17.2561 14.1621 17.2396 13.9528 17.2117C14.4458 16.6349 14.8353 16.1566 15.2642 15.7326C18.3457 12.7498 22.0138 10.6889 25.8989 8.96331C26.1464 8.82869 26.3822 8.67367 26.604 8.49986L26.4856 8.28293C26.3433 8.3031 26.203 8.3361 26.0666 8.38153C21.6539 10.2797 17.5026 12.5822 14.1451 16.0925C12.3504 17.9661 11.034 20.091 10.9995 22.7978C11.02 23.3327 11.0711 23.8661 11.1524 24.3952C13.4499 24.9227 13.7359 25.5538 12.7449 27.7922L13.1344 28.4282C14.6134 30.8933 14.0218 33.1317 12.4934 34.9411C11.9952 35.4443 11.3311 35.7492 10.6248 35.799C9.30727 35.8536 7.98746 35.7926 6.68057 35.6166C8.46042 33.6099 9.97895 31.5787 9.27885 28.7684C7.89343 28.1472 7.56803 27.7823 7.73073 26.8406C7.79479 26.4888 7.95718 26.1623 8.19911 25.8989C8.39601 25.7115 8.54393 25.4787 8.62988 25.2208C8.71584 24.9629 8.73722 24.6879 8.69214 24.4198C8.4062 22.3412 8.82081 20.2266 9.87049 18.4098C9.99374 18.2076 10.0825 17.9858 10.2698 17.6012L0.0690241 18.3506L0 18.2224C0.108551 18.115 0.223825 18.0145 0.345122 17.9217C8.14488 12.7481 15.9446 7.58611 23.7444 2.43558C24.0248 2.24935 24.3463 2.13428 24.6811 2.10031C34.006 1.39035 43.3325 0.690244 52.6607 0C52.8086 0 52.9614 0 53.1093 0L53.1636 0.162701" fill="#9F0D00"/>
<path d="M14.791 17.8326L18.119 17.5565C21.5455 17.3002 24.9672 17.0635 28.3888 16.7726C28.9157 16.7188 29.4225 16.5414 29.8679 16.2549C33.4621 13.913 37.0366 11.5317 40.616 9.16515C40.759 9.06655 40.9167 8.98766 41.1534 8.84961C41.2717 9.11585 41.3851 9.34264 41.4591 9.54972C41.888 10.7872 42.2183 12.0691 42.7558 13.2622C43.4361 14.7808 42.8642 15.8704 41.819 16.891C39.911 18.7497 37.5986 19.9823 35.2124 21.0817C31.8524 22.6622 28.285 23.7578 24.6171 24.3357C22.8051 24.5357 20.9819 24.6164 19.1593 24.5773C18.6855 24.5482 18.221 24.4329 17.7886 24.2371C17.5044 24.1342 17.2477 23.9672 17.0382 23.7492C16.8288 23.5312 16.6722 23.268 16.5807 22.9799C16.0236 21.3134 15.432 19.6569 14.791 17.8326Z" fill="#9F0D00"/>
<path d="M58.9023 55.8744C58.9203 56.0548 58.8983 56.2369 58.8381 56.4078C58.7779 56.5788 58.6809 56.7344 58.5539 56.8638C58.427 56.9931 58.2731 57.093 58.1033 57.1563C57.9335 57.2196 57.7518 57.2449 57.5712 57.2303C57.3246 57.2303 57.0781 57.2303 56.8464 57.2303H35.2664C28.0353 57.2303 20.8042 57.2303 13.573 57.2303C11.8376 57.2303 11.453 56.8013 11.6749 55.0609C11.808 53.9664 12.2172 52.9655 13.3019 52.4972C16.408 51.1808 17.5518 48.4937 18.2026 45.4862C19.1277 40.8841 19.5214 36.1909 19.376 31.499C19.3496 29.7061 19.6366 27.9225 20.224 26.2284H20.2733C22.0961 26.27 23.9196 26.1876 25.7312 25.9819C29.3996 25.406 32.9672 24.3104 36.3264 22.7279C38.7176 21.6334 41.0201 20.4008 42.9281 18.5372C43.1501 18.3164 43.3529 18.0772 43.5346 17.8223C46.8576 19.7451 49.1995 22.7526 50.4715 26.7905C50.851 28.211 51.0693 29.6697 51.1223 31.139C51.4428 35.2904 51.5808 39.4811 52.0098 43.6177C52.1971 45.3531 52.8726 47.0689 53.4889 48.7156C53.7877 49.5266 54.2476 50.2687 54.8407 50.8974C55.4338 51.5261 56.1479 52.0283 56.9401 52.3739C58.4685 53.074 58.9467 54.3066 58.9122 55.8744" fill="#062037"/>
<path d="M35.2616 60.1058C37.5591 60.1058 39.8517 60.1058 42.164 60.1058C43.3571 60.1058 43.5297 60.3523 43.2142 61.5158C42.7375 63.2447 41.7077 64.77 40.2823 65.8584C38.857 66.9468 37.1143 67.5385 35.3209 67.5429C33.5275 67.5474 31.782 66.9644 30.3511 65.8832C28.9203 64.8019 27.883 63.2818 27.3977 61.5553C27.0526 60.3375 27.2252 60.0762 28.4873 60.0762H35.2714L35.2616 60.1058Z" fill="#9F0D00"/>
</svg>
