<svg width="24" height="24" viewBox="0 0 24 24" fill="none" xmlns="http://www.w3.org/2000/svg">
<path d="M17.9684 24C17.6304 23.9454 17.2911 23.8982 16.9549 23.8354C15.6451 23.5914 14.419 23.1008 13.2283 22.5189C11.2781 21.5656 9.46435 20.3974 7.83839 18.9629C4.57959 16.09 2.00125 12.7308 0.551784 8.59605C0.193785 7.57633 -0.0213893 6.52369 0.00168738 5.43316C0.0272588 4.38301 0.369666 3.46078 1.11498 2.70686C1.77485 2.03987 2.41475 1.34805 3.12015 0.734476C4.26525 -0.259167 5.44465 -0.247368 6.54298 0.786642C7.65253 1.83121 8.7259 2.91925 9.76871 4.02778C10.6269 4.93821 10.6213 6.17343 9.78368 7.09938C9.19741 7.74773 8.56 8.35137 7.93506 8.96246C7.81032 9.08667 7.80034 9.16802 7.87269 9.31955C8.49638 10.6181 9.39637 11.7136 10.3718 12.7544C11.3641 13.8139 12.4562 14.7604 13.6855 15.541C14.008 15.7459 14.3572 15.9086 14.6872 16.1036C14.8188 16.1819 14.898 16.1657 15.0052 16.0589C15.5254 15.5286 16.0537 15.0032 16.5819 14.484C16.9948 14.076 17.4551 13.7475 18.0457 13.65C18.8428 13.5189 19.5183 13.7742 20.0809 14.3275C21.1029 15.3286 22.1182 16.3369 23.127 17.3525C24.2147 18.4418 24.3026 19.6752 23.2972 20.8303C22.6006 21.6302 21.8303 22.3686 21.0569 23.097C20.5081 23.6143 19.8139 23.8671 19.0611 23.9565C19.0081 23.9666 18.9559 23.9809 18.9052 23.9994L17.9684 24ZM1.22413 5.53688C1.22849 6.54791 1.48296 7.64837 1.91019 8.77553C2.99604 11.6211 4.71181 14.0623 6.77499 16.2738C8.76863 18.4121 11.1425 20.1645 13.7766 21.4426C15.0963 22.0879 16.4584 22.6114 17.936 22.7642C18.8353 22.8567 19.6892 22.7524 20.3684 22.104C21.0638 21.4401 21.7349 20.7489 22.386 20.0428C22.9112 19.474 22.9018 18.8908 22.3604 18.3381C21.3151 17.2716 20.2563 16.2181 19.184 15.1777C18.7511 14.7554 18.1942 14.7504 17.7121 15.1218C17.6023 15.2096 17.4981 15.3042 17.4002 15.405C16.8171 15.9832 16.2383 16.5657 15.6539 17.1439C15.2722 17.5165 14.863 17.5842 14.3884 17.3445C14.0466 17.1724 13.7023 16.9973 13.3762 16.8011C11.8244 15.8745 10.4779 14.7007 9.26477 13.3717C8.25439 12.2657 7.33132 11.0975 6.70763 9.72198C6.38581 9.01276 6.4488 8.70349 7.00887 8.16506C7.61697 7.57943 8.22632 6.99318 8.80511 6.37899C9.30032 5.8536 9.29471 5.30026 8.79388 4.77612C8.02924 3.97437 7.23652 3.19374 6.45129 2.40814C6.16377 2.12123 5.87687 1.83183 5.57251 1.5623C5.09975 1.14311 4.55464 1.1369 4.05569 1.52691C3.95738 1.60422 3.86367 1.68717 3.77503 1.77532C3.23117 2.31499 2.69479 2.86273 2.14407 3.39558C1.50603 4.01288 1.19793 4.75687 1.22413 5.53688Z" fill="#696969"/>
</svg>
