<svg width="22" height="26" viewBox="0 0 22 26" fill="none" xmlns="http://www.w3.org/2000/svg">
<path d="M10.0982 25.2947C9.9322 25.2539 9.76486 25.2203 9.60148 25.1715C8.1719 24.7394 7.27461 23.8032 6.93006 22.3447C6.91557 22.2788 6.89844 22.2175 6.87736 22.1325H6.61384C4.93391 22.1325 3.25398 22.1398 1.57405 22.1279C0.935672 22.124 0.454094 21.8156 0.17147 21.2405C-0.103907 20.6759 -0.043299 20.1206 0.322333 19.6093C0.417772 19.4854 0.526458 19.3723 0.64646 19.272C2.32507 17.7693 3.15384 15.8852 3.17031 13.64C3.17888 12.5279 3.15911 11.4159 3.18019 10.3045C3.23751 7.29379 5.2666 4.53277 8.12512 3.57686C8.37875 3.49187 8.44925 3.37922 8.44003 3.12822C8.41803 2.70082 8.4264 2.27241 8.46506 1.8462C8.52592 1.33729 8.77124 0.868339 9.15457 0.528116C9.53791 0.187892 10.0327 0 10.5452 0C11.0577 0 11.5525 0.187892 11.9358 0.528116C12.3192 0.868339 12.5645 1.33729 12.6254 1.8462C12.6734 2.31065 12.6557 2.78301 12.6543 3.25207C12.6543 3.40623 12.6965 3.47804 12.852 3.53404C15.6343 4.54419 17.2953 6.50653 17.8351 9.42104C17.9115 9.83872 17.9115 10.2729 17.9188 10.6998C17.9386 11.91 17.8918 13.1235 17.9669 14.3297C18.0848 16.2271 18.9011 17.8214 20.2812 19.1225C20.3708 19.2068 20.4664 19.2859 20.5559 19.3708C21.0619 19.8505 21.2147 20.5099 20.9749 21.1298C20.7351 21.7498 20.162 22.1299 19.4689 22.1312C17.8057 22.1343 16.1422 22.1343 14.4786 22.1312H14.215C14.186 22.2537 14.1623 22.3723 14.1294 22.4876C13.6902 24.016 12.6899 24.9357 11.1286 25.2466C11.0836 25.2591 11.0396 25.2747 10.9968 25.2934L10.0982 25.2947ZM10.5429 21.0824V21.0699C11.597 21.0699 12.6511 21.0699 13.7051 21.0699C15.5656 21.073 17.4258 21.0769 19.2858 21.0817C19.3925 21.086 19.4994 21.0789 19.6046 21.0607C19.6943 21.0446 19.7781 21.0051 19.8476 20.9462C19.917 20.8873 19.9697 20.8111 20.0002 20.7252C20.0307 20.6394 20.038 20.5471 20.0212 20.4575C20.0045 20.368 19.9645 20.2845 19.9051 20.2154C19.8502 20.1539 19.7907 20.0966 19.7272 20.0441C17.8386 18.3392 16.886 16.2148 16.8693 13.6709C16.8621 12.6505 16.8733 11.6287 16.8654 10.6089C16.8676 10.2796 16.8455 9.95063 16.7995 9.62461C16.2066 5.85761 12.6418 3.4978 8.94532 4.42012C6.26534 5.08814 4.26326 7.60013 4.22373 10.3625C4.20726 11.4824 4.22372 12.6024 4.21714 13.7223C4.20001 15.866 3.49246 17.7489 2.05892 19.3498C1.80792 19.6311 1.52003 19.8808 1.24926 20.1449C1.08324 20.3077 1.0088 20.4954 1.09181 20.7253C1.17482 20.9553 1.34874 21.058 1.57998 21.0784C1.66167 21.0857 1.74468 21.0824 1.82703 21.0824H10.5429ZM13.101 22.1464H7.98348C8.15213 23.3006 9.30964 24.2433 10.5429 24.2426C11.7762 24.242 12.935 23.3012 13.101 22.1464ZM11.5785 3.18817C11.5844 3.15923 11.5886 3.12998 11.591 3.10055C11.591 2.74678 11.6003 2.393 11.5864 2.04055C11.5654 1.52207 11.1813 1.12745 10.6523 1.05762C10.1786 0.991742 9.65221 1.29479 9.55866 1.7823C9.46906 2.24741 9.49673 2.73492 9.47433 3.19146L11.5785 3.18817Z" fill="#696969"/>
</svg>
