<svg width="29" height="20" viewBox="0 0 29 20" fill="none" xmlns="http://www.w3.org/2000/svg">
<path d="M28.3414 0H0.644122C0.289855 0 0 0.289855 0 0.644122V19.3237C0 19.3237 0 19.3237 0 19.3559C0 19.3881 0 19.3881 0 19.4203C0 19.4525 0 19.4525 0 19.4847C0 19.5169 -3.11941e-08 19.5169 0.0322061 19.5491C0.0322061 19.5813 0.0322061 19.5813 0.0644122 19.6135C0.0644122 19.6457 0.0966184 19.6457 0.0966184 19.6779C0.0966184 19.7101 0.128824 19.7101 0.128824 19.7424C0.128824 19.7424 0.128824 19.7424 0.128824 19.7746C0.128824 19.7746 0.128824 19.7746 0.161031 19.8068L0.193237 19.839L0.225443 19.8712C0.225443 19.8712 0.257649 19.9034 0.289855 19.9034C0.322061 19.9034 0.322061 19.9356 0.354267 19.9356C0.386473 19.9356 0.386473 19.9678 0.41868 19.9678C0.450886 19.9678 0.450886 19.9678 0.483092 20C0.515298 20 0.515298 20 0.547504 20C0.57971 20 0.57971 20 0.611916 20H0.644122H28.3414C28.4058 20 28.438 20 28.4702 20H28.5024C28.5346 20 28.5668 19.9678 28.599 19.9678L28.6312 19.9356C28.6634 19.9356 28.6956 19.9034 28.6956 19.8712L28.7279 19.839C28.7601 19.8068 28.7601 19.8068 28.7923 19.7746L28.8245 19.7424C28.8245 19.7424 28.8245 19.7424 28.8245 19.7101C28.8245 19.6779 28.8567 19.6779 28.8567 19.6457C28.8567 19.6457 28.8889 19.6135 28.8889 19.5813C28.8889 19.5491 28.8889 19.5491 28.9211 19.5169C28.9533 19.4847 28.9211 19.4847 28.9533 19.4525C28.9533 19.4203 28.9533 19.4203 28.9533 19.3881C28.9533 19.3559 28.9533 19.3559 28.9533 19.3237C28.9533 19.3237 28.9533 19.3237 28.9533 19.2915V0.644122C28.9855 0.289855 28.6956 0 28.3414 0ZM1.28824 4.219L9.98389 11.1111L1.28824 18.0032V4.219ZM2.51208 18.6796L11.0467 11.9163L14.1063 14.3317C14.2351 14.4283 14.3639 14.4605 14.4928 14.4605C14.6216 14.4605 14.7826 14.4283 14.8792 14.3317L17.9388 11.9163L26.4734 18.6796H2.51208ZM27.6973 18.0032L19.0016 11.1111L27.6973 4.219V18.0032ZM27.6973 2.57649L27.3108 2.89855L14.4928 13.0435L1.67472 2.89855L1.28824 2.57649V1.28824H27.6973V2.57649Z" fill="#696969"/>
</svg>
