<svg width="50" height="50" viewBox="0 0 50 50" fill="none" xmlns="http://www.w3.org/2000/svg">
<path d="M1.66657 46.6665H48.3332C48.5543 46.6665 48.7662 46.5787 48.9225 46.4224C49.0788 46.2661 49.1666 46.0542 49.1666 45.8332V27.4998C49.1666 27.4723 49.1532 27.4482 49.1507 27.4215C49.1452 27.365 49.134 27.3092 49.1174 27.2548C49.1024 27.205 49.0826 27.1567 49.0582 27.1107C49.0346 27.0651 49.0067 27.0219 48.9749 26.9815C48.9397 26.9375 48.8997 26.8976 48.8557 26.8623C48.8349 26.8448 48.8224 26.8207 48.7999 26.8057L36.2999 18.4723C36.1615 18.3808 35.9991 18.3324 35.8332 18.3332H34.1666V15.8332C34.1665 15.6894 34.1293 15.548 34.0585 15.4229C33.9877 15.2978 33.8857 15.1931 33.7624 15.119L25.4291 10.119C25.2995 10.0411 25.1511 10 24.9999 10C24.8487 10 24.7003 10.0411 24.5707 10.119L16.2374 15.119C16.1141 15.1931 16.0121 15.2978 15.9413 15.4229C15.8705 15.548 15.8333 15.6894 15.8332 15.8332V18.3332H14.1666C14.002 18.3334 13.8412 18.3821 13.7041 18.4732L1.20407 26.8065C1.18157 26.8215 1.16907 26.8457 1.14824 26.8632C1.10426 26.8984 1.0643 26.9384 1.02907 26.9823C0.997304 27.0227 0.969403 27.0659 0.945736 27.1115C0.921407 27.1575 0.901592 27.2058 0.886569 27.2557C0.869982 27.31 0.858816 27.3658 0.853236 27.4223C0.853236 27.449 0.837402 27.4732 0.837402 27.5007V45.8332C0.8374 46.0535 0.924625 46.2648 1.08 46.421C1.23539 46.5771 1.44628 46.6654 1.66657 46.6665ZM27.4999 44.9998H22.4999V36.6665H27.4999V44.9998ZM30.8332 44.9998H29.1666V35.8332C29.1666 35.6122 29.0788 35.4002 28.9225 35.2439C28.7662 35.0876 28.5543 34.9998 28.3332 34.9998H21.6666C21.4456 34.9998 21.2336 35.0876 21.0773 35.2439C20.921 35.4002 20.8332 35.6122 20.8332 35.8332V44.9998H19.1666V28.3332H30.8332V44.9998ZM34.1666 19.9998H35.5832L45.5832 26.6665H34.1666V19.9998ZM47.4999 28.3332V44.9998H32.4999V28.3332H47.4999ZM17.4999 16.3048L24.9999 11.8048L32.4999 16.3048V26.6665H17.4999V16.3048ZM14.4166 19.9998H15.8332V26.6665H4.41657L14.4166 19.9998ZM2.4999 28.3332H17.4999V44.9998H2.4999V28.3332Z" fill="#92210F"/>
<path d="M41.6667 31.6667H45C45.221 31.6667 45.433 31.5789 45.5893 31.4226C45.7456 31.2663 45.8334 31.0544 45.8334 30.8334C45.8334 30.6123 45.7456 30.4004 45.5893 30.2441C45.433 30.0878 45.221 30 45 30H41.6667C41.4457 30 41.2337 30.0878 41.0774 30.2441C40.9212 30.4004 40.8334 30.6123 40.8334 30.8334C40.8334 31.0544 40.9212 31.2663 41.0774 31.4226C41.2337 31.5789 41.4457 31.6667 41.6667 31.6667ZM41.6667 35H45C45.221 35 45.433 34.9122 45.5893 34.7559C45.7456 34.5997 45.8334 34.3877 45.8334 34.1667C45.8334 33.9457 45.7456 33.7337 45.5893 33.5774C45.433 33.4212 45.221 33.3334 45 33.3334H41.6667C41.4457 33.3334 41.2337 33.4212 41.0774 33.5774C40.9212 33.7337 40.8334 33.9457 40.8334 34.1667C40.8334 34.3877 40.9212 34.5997 41.0774 34.7559C41.2337 34.9122 41.4457 35 41.6667 35ZM41.6667 38.3334H45C45.221 38.3334 45.433 38.2456 45.5893 38.0893C45.7456 37.933 45.8334 37.721 45.8334 37.5C45.8334 37.279 45.7456 37.067 45.5893 36.9108C45.433 36.7545 45.221 36.6667 45 36.6667H41.6667C41.4457 36.6667 41.2337 36.7545 41.0774 36.9108C40.9212 37.067 40.8334 37.279 40.8334 37.5C40.8334 37.721 40.9212 37.933 41.0774 38.0893C41.2337 38.2456 41.4457 38.3334 41.6667 38.3334ZM41.6667 41.6667H45C45.221 41.6667 45.433 41.5789 45.5893 41.4226C45.7456 41.2663 45.8334 41.0544 45.8334 40.8334C45.8334 40.6123 45.7456 40.4004 45.5893 40.2441C45.433 40.0878 45.221 40 45 40H41.6667C41.4457 40 41.2337 40.0878 41.0774 40.2441C40.9212 40.4004 40.8334 40.6123 40.8334 40.8334C40.8334 41.0544 40.9212 41.2663 41.0774 41.4226C41.2337 41.5789 41.4457 41.6667 41.6667 41.6667ZM35 31.6667H38.3334C38.5544 31.6667 38.7663 31.5789 38.9226 31.4226C39.0789 31.2663 39.1667 31.0544 39.1667 30.8334C39.1667 30.6123 39.0789 30.4004 38.9226 30.2441C38.7663 30.0878 38.5544 30 38.3334 30H35C34.779 30 34.567 30.0878 34.4108 30.2441C34.2545 30.4004 34.1667 30.6123 34.1667 30.8334C34.1667 31.0544 34.2545 31.2663 34.4108 31.4226C34.567 31.5789 34.779 31.6667 35 31.6667ZM35 35H38.3334C38.5544 35 38.7663 34.9122 38.9226 34.7559C39.0789 34.5997 39.1667 34.3877 39.1667 34.1667C39.1667 33.9457 39.0789 33.7337 38.9226 33.5774C38.7663 33.4212 38.5544 33.3334 38.3334 33.3334H35C34.779 33.3334 34.567 33.4212 34.4108 33.5774C34.2545 33.7337 34.1667 33.9457 34.1667 34.1667C34.1667 34.3877 34.2545 34.5997 34.4108 34.7559C34.567 34.9122 34.779 35 35 35ZM35 38.3334H38.3334C38.5544 38.3334 38.7663 38.2456 38.9226 38.0893C39.0789 37.933 39.1667 37.721 39.1667 37.5C39.1667 37.279 39.0789 37.067 38.9226 36.9108C38.7663 36.7545 38.5544 36.6667 38.3334 36.6667H35C34.779 36.6667 34.567 36.7545 34.4108 36.9108C34.2545 37.067 34.1667 37.279 34.1667 37.5C34.1667 37.721 34.2545 37.933 34.4108 38.0893C34.567 38.2456 34.779 38.3334 35 38.3334ZM35 41.6667H38.3334C38.5544 41.6667 38.7663 41.5789 38.9226 41.4226C39.0789 41.2663 39.1667 41.0544 39.1667 40.8334C39.1667 40.6123 39.0789 40.4004 38.9226 40.2441C38.7663 40.0878 38.5544 40 38.3334 40H35C34.779 40 34.567 40.0878 34.4108 40.2441C34.2545 40.4004 34.1667 40.6123 34.1667 40.8334C34.1667 41.0544 34.2545 41.2663 34.4108 41.4226C34.567 41.5789 34.779 41.6667 35 41.6667ZM26.6667 48.3334H23.3334C23.1123 48.3334 22.9004 48.4212 22.7441 48.5774C22.5878 48.7337 22.5 48.9457 22.5 49.1667C22.5 49.3877 22.5878 49.5997 22.7441 49.7559C22.9004 49.9122 23.1123 50 23.3334 50H26.6667C26.8877 50 27.0997 49.9122 27.2559 49.7559C27.4122 49.5997 27.5 49.3877 27.5 49.1667C27.5 48.9457 27.4122 48.7337 27.2559 48.5774C27.0997 48.4212 26.8877 48.3334 26.6667 48.3334ZM15 30H11.6667C11.4457 30 11.2337 30.0878 11.0774 30.2441C10.9212 30.4004 10.8334 30.6123 10.8334 30.8334C10.8334 31.0544 10.9212 31.2663 11.0774 31.4226C11.2337 31.5789 11.4457 31.6667 11.6667 31.6667H15C15.221 31.6667 15.433 31.5789 15.5893 31.4226C15.7456 31.2663 15.8334 31.0544 15.8334 30.8334C15.8334 30.6123 15.7456 30.4004 15.5893 30.2441C15.433 30.0878 15.221 30 15 30ZM15 33.3334H11.6667C11.4457 33.3334 11.2337 33.4212 11.0774 33.5774C10.9212 33.7337 10.8334 33.9457 10.8334 34.1667C10.8334 34.3877 10.9212 34.5997 11.0774 34.7559C11.2337 34.9122 11.4457 35 11.6667 35H15C15.221 35 15.433 34.9122 15.5893 34.7559C15.7456 34.5997 15.8334 34.3877 15.8334 34.1667C15.8334 33.9457 15.7456 33.7337 15.5893 33.5774C15.433 33.4212 15.221 33.3334 15 33.3334ZM15 36.6667H11.6667C11.4457 36.6667 11.2337 36.7545 11.0774 36.9108C10.9212 37.067 10.8334 37.279 10.8334 37.5C10.8334 37.721 10.9212 37.933 11.0774 38.0893C11.2337 38.2456 11.4457 38.3334 11.6667 38.3334H15C15.221 38.3334 15.433 38.2456 15.5893 38.0893C15.7456 37.933 15.8334 37.721 15.8334 37.5C15.8334 37.279 15.7456 37.067 15.5893 36.9108C15.433 36.7545 15.221 36.6667 15 36.6667ZM15 40H11.6667C11.4457 40 11.2337 40.0878 11.0774 40.2441C10.9212 40.4004 10.8334 40.6123 10.8334 40.8334C10.8334 41.0544 10.9212 41.2663 11.0774 41.4226C11.2337 41.5789 11.4457 41.6667 11.6667 41.6667H15C15.221 41.6667 15.433 41.5789 15.5893 41.4226C15.7456 41.2663 15.8334 41.0544 15.8334 40.8334C15.8334 40.6123 15.7456 40.4004 15.5893 40.2441C15.433 40.0878 15.221 40 15 40ZM8.33335 30H5.00002C4.77901 30 4.56705 30.0878 4.41076 30.2441C4.25448 30.4004 4.16669 30.6123 4.16669 30.8334C4.16669 31.0544 4.25448 31.2663 4.41076 31.4226C4.56705 31.5789 4.77901 31.6667 5.00002 31.6667H8.33335C8.55437 31.6667 8.76633 31.5789 8.92261 31.4226C9.07889 31.2663 9.16669 31.0544 9.16669 30.8334C9.16669 30.6123 9.07889 30.4004 8.92261 30.2441C8.76633 30.0878 8.55437 30 8.33335 30ZM8.33335 33.3334H5.00002C4.77901 33.3334 4.56705 33.4212 4.41076 33.5774C4.25448 33.7337 4.16669 33.9457 4.16669 34.1667C4.16669 34.3877 4.25448 34.5997 4.41076 34.7559C4.56705 34.9122 4.77901 35 5.00002 35H8.33335C8.55437 35 8.76633 34.9122 8.92261 34.7559C9.07889 34.5997 9.16669 34.3877 9.16669 34.1667C9.16669 33.9457 9.07889 33.7337 8.92261 33.5774C8.76633 33.4212 8.55437 33.3334 8.33335 33.3334ZM8.33335 36.6667H5.00002C4.77901 36.6667 4.56705 36.7545 4.41076 36.9108C4.25448 37.067 4.16669 37.279 4.16669 37.5C4.16669 37.721 4.25448 37.933 4.41076 38.0893C4.56705 38.2456 4.77901 38.3334 5.00002 38.3334H8.33335C8.55437 38.3334 8.76633 38.2456 8.92261 38.0893C9.07889 37.933 9.16669 37.721 9.16669 37.5C9.16669 37.279 9.07889 37.067 8.92261 36.9108C8.76633 36.7545 8.55437 36.6667 8.33335 36.6667ZM8.33335 40H5.00002C4.77901 40 4.56705 40.0878 4.41076 40.2441C4.25448 40.4004 4.16669 40.6123 4.16669 40.8334C4.16669 41.0544 4.25448 41.2663 4.41076 41.4226C4.56705 41.5789 4.77901 41.6667 5.00002 41.6667H8.33335C8.55437 41.6667 8.76633 41.5789 8.92261 41.4226C9.07889 41.2663 9.16669 41.0544 9.16669 40.8334C9.16669 40.6123 9.07889 40.4004 8.92261 40.2441C8.76633 40.0878 8.55437 40 8.33335 40ZM25 14.1667C23.8463 14.1667 22.7185 14.5088 21.7592 15.1498C20.7999 15.7908 20.0522 16.7018 19.6107 17.7677C19.1692 18.8336 19.0537 20.0065 19.2788 21.138C19.5039 22.2696 20.0594 23.309 20.8752 24.1248C21.691 24.9406 22.7304 25.4962 23.862 25.7213C24.9935 25.9463 26.1664 25.8308 27.2323 25.3893C28.2982 24.9478 29.2093 24.2001 29.8503 23.2408C30.4912 22.2816 30.8334 21.1537 30.8334 20C30.8316 18.4535 30.2164 16.9708 29.1229 15.8772C28.0293 14.7836 26.5466 14.1685 25 14.1667ZM25 24.1667C24.1759 24.1667 23.3703 23.9223 22.6851 23.4645C21.9999 23.0066 21.4659 22.3559 21.1505 21.5945C20.8352 20.8332 20.7526 19.9954 20.9134 19.1871C21.0742 18.3789 21.471 17.6365 22.0537 17.0537C22.6365 16.471 23.3789 16.0742 24.1871 15.9134C24.9954 15.7526 25.8332 15.8352 26.5945 16.1505C27.3559 16.4659 28.0066 16.9999 28.4645 17.6851C28.9223 18.3703 29.1667 19.1759 29.1667 20C29.1654 21.1047 28.726 22.1637 27.9448 22.9448C27.1637 23.726 26.1047 24.1654 25 24.1667Z" fill="#92210F"/>
<path d="M25.8333 20V17.5C25.8333 17.279 25.7455 17.067 25.5893 16.9107C25.433 16.7545 25.221 16.6667 25 16.6667C24.779 16.6667 24.567 16.7545 24.4107 16.9107C24.2545 17.067 24.1667 17.279 24.1667 17.5V20.8333C24.1667 21.0543 24.2545 21.2663 24.4107 21.4226C24.567 21.5789 24.779 21.6667 25 21.6667H27.5C27.721 21.6667 27.933 21.5789 28.0893 21.4226C28.2455 21.2663 28.3333 21.0543 28.3333 20.8333C28.3333 20.6123 28.2455 20.4004 28.0893 20.2441C27.933 20.0878 27.721 20 27.5 20H25.8333ZM21.6667 31.6667H28.3333C28.5543 31.6667 28.7663 31.5789 28.9226 31.4226C29.0789 31.2663 29.1667 31.0543 29.1667 30.8333C29.1667 30.6123 29.0789 30.4004 28.9226 30.2441C28.7663 30.0878 28.5543 30 28.3333 30H21.6667C21.4457 30 21.2337 30.0878 21.0774 30.2441C20.9211 30.4004 20.8333 30.6123 20.8333 30.8333C20.8333 31.0543 20.9211 31.2663 21.0774 31.4226C21.2337 31.5789 21.4457 31.6667 21.6667 31.6667ZM49.1667 48.3333H35C34.779 48.3333 34.567 48.4211 34.4107 48.5774C34.2545 48.7337 34.1667 48.9457 34.1667 49.1667C34.1667 49.3877 34.2545 49.5996 34.4107 49.7559C34.567 49.9122 34.779 50 35 50H49.1667C49.3877 50 49.5996 49.9122 49.7559 49.7559C49.9122 49.5996 50 49.3877 50 49.1667C50 48.9457 49.9122 48.7337 49.7559 48.5774C49.5996 48.4211 49.3877 48.3333 49.1667 48.3333ZM0.833333 50H15C15.221 50 15.433 49.9122 15.5893 49.7559C15.7455 49.5996 15.8333 49.3877 15.8333 49.1667C15.8333 48.9457 15.7455 48.7337 15.5893 48.5774C15.433 48.4211 15.221 48.3333 15 48.3333H0.833333C0.61232 48.3333 0.400358 48.4211 0.244078 48.5774C0.0877973 48.7337 0 48.9457 0 49.1667C0 49.3877 0.0877973 49.5996 0.244078 49.7559C0.400358 49.9122 0.61232 50 0.833333 50ZM14.6033 14.8767L25 8.47833L35.3967 14.8767C35.4897 14.9412 35.5949 14.9861 35.7059 15.0086C35.8168 15.0312 35.9312 15.0309 36.0421 15.0077C36.1529 14.9846 36.2579 14.9391 36.3505 14.874C36.4432 14.8089 36.5216 14.7257 36.5811 14.6293C36.6405 14.5329 36.6796 14.4254 36.6961 14.3134C36.7126 14.2014 36.7061 14.0872 36.677 13.9777C36.6479 13.8683 36.5968 13.766 36.5268 13.677C36.4568 13.5879 36.3695 13.5141 36.27 13.46L25.8333 7.03417V5H27.5V5.83333C27.5 6.05435 27.5878 6.26631 27.7441 6.42259C27.9004 6.57887 28.1123 6.66667 28.3333 6.66667H35C35.1648 6.66663 35.3259 6.61774 35.4629 6.52617C35.5999 6.4346 35.7067 6.30446 35.7697 6.15221C35.8328 5.99996 35.8493 5.83243 35.8172 5.67081C35.785 5.50918 35.7057 5.36071 35.5892 5.24417L34.5117 4.16667L35.5892 3.08917C35.7057 2.97262 35.785 2.82415 35.8172 2.66253C35.8493 2.5009 35.8328 2.33337 35.7697 2.18112C35.7067 2.02887 35.5999 1.89874 35.4629 1.80717C35.3259 1.71559 35.1648 1.6667 35 1.66667H30.8333V0.833333C30.8333 0.61232 30.7455 0.400358 30.5893 0.244078C30.433 0.0877973 30.221 0 30 0H25C24.779 0 24.567 0.0877973 24.4107 0.244078C24.2545 0.400358 24.1667 0.61232 24.1667 0.833333V7.03417L13.73 13.4567C13.5548 13.5782 13.4329 13.7623 13.3893 13.971C13.3457 14.1797 13.3838 14.3972 13.4957 14.5787C13.6075 14.7602 13.7847 14.8919 13.9908 14.9467C14.1968 15.0015 14.4161 14.9752 14.6033 14.8733V14.8767ZM25.8333 1.66667H29.1667V2.5C29.1667 2.72101 29.2545 2.93298 29.4107 3.08926C29.567 3.24554 29.779 3.33333 30 3.33333H32.9883L32.7442 3.5775C32.5879 3.73377 32.5002 3.9457 32.5002 4.16667C32.5002 4.38764 32.5879 4.59956 32.7442 4.75583L32.9883 5H29.1667V4.16667C29.1667 3.94565 29.0789 3.73369 28.9226 3.57741C28.7663 3.42113 28.5543 3.33333 28.3333 3.33333H25.8333V1.66667Z" fill="#92210F"/>
</svg>
