<svg width="60" height="60" viewBox="0 0 60 60" fill="none" xmlns="http://www.w3.org/2000/svg">
<path d="M60 11.3188C58.6161 14.9935 56.3212 18.0047 54.1094 21.0571C51.939 24.0529 49.6764 26.9716 47.4715 29.9314C47.2704 30.2099 47.1526 30.5516 47.1347 30.9085C46.8026 44.4836 37.9621 56.3665 26.1047 59.2775C18.7426 61.0775 12.0078 59.4806 5.80815 54.8622C3.22264 52.9335 1.19528 50.4186 0.344204 46.9728C-0.148668 45.0439 -0.111481 42.9945 0.450966 41.0894C1.01341 39.1843 2.07529 37.511 3.49941 36.2856C4.44966 35.4524 5.43219 34.6578 6.34554 33.7732C8.57355 31.6106 8.58279 28.391 6.35939 26.2284C5.17158 25.0712 3.85461 24.0709 2.69909 22.8854C0.0905154 20.1776 -0.69598 15.6184 0.648668 11.9334C1.67964 9.10472 3.43713 6.96008 5.62824 5.24745C9.80749 1.99963 14.4619 0.0915686 19.5637 0.00413717C27.341 -0.129581 34.0089 2.97937 39.4889 9.15614C41.9234 11.9049 43.8441 15.1652 45.1397 18.7479C45.2066 18.9253 45.2873 19.0976 45.3957 19.3522C45.7901 18.9845 46.1499 18.6321 46.5258 18.3081C49.5242 15.7366 52.4995 13.1291 55.5209 10.5936C56.1588 10.0941 56.8489 9.68305 57.5759 9.36956C58.7292 8.81669 59.4603 9.16386 59.9977 10.4162L60 11.3188ZM44.7038 33.4646C42.1321 36.499 39.6481 39.4511 37.1387 42.3724C36.6967 42.8844 36.3792 43.5137 36.2161 44.2007C35.3512 47.5771 33.7205 50.3183 30.8167 51.9358C29.1208 52.8466 27.2528 53.2877 25.3713 53.2215C23.085 53.1798 20.8223 52.6987 18.6826 51.7995C18.0253 51.5295 17.7601 51.0821 17.8246 50.4289C17.88 49.8323 18.2398 49.4646 18.8948 49.3334L19.0125 49.318C20.1495 49.1766 20.8576 48.4488 21.2013 47.2608C21.3535 46.7465 21.4619 46.2142 21.5818 45.687C21.8932 44.319 22.14 42.9304 22.5228 41.588C23.5423 37.9879 25.9202 36.2239 29.1285 35.6015C29.4316 35.5604 29.7192 35.4289 29.9611 35.221C34.4202 30.6248 38.8693 26.021 43.3084 21.4094C43.4148 21.3243 43.4885 21.1975 43.5145 21.0545C43.5406 20.9114 43.5172 20.7626 43.4491 20.6379C43.1054 19.7868 42.8286 18.8996 42.4458 18.0664C38.2327 8.98042 31.5656 3.81769 22.4444 2.57822C18.4635 2.04078 14.6764 2.95623 11.0345 4.69715C8.24144 6.03176 5.72973 7.82151 3.84307 10.5602C1.53664 13.8748 1.55048 19.1156 5.14851 22.0163C6.18259 22.8365 7.17151 23.7253 8.10996 24.6778C10.7923 27.4447 10.993 31.878 8.49284 34.8404C7.43188 36.0953 6.12643 37.0982 4.91325 38.1834C2.60682 40.274 1.72346 43.3058 2.54916 46.4765C3.15114 48.7908 4.44273 50.5909 6.11489 51.9975C12.1577 57.0917 18.8971 58.8197 26.2662 56.6545C34.3387 54.281 39.9618 48.6417 43.2092 40.0837C44.0009 37.9729 44.5046 35.7418 44.7038 33.4646ZM56.9278 12.6123C53.0069 15.0063 33.9327 33.4415 31.8662 36.697L35.5403 40.7266C43.1031 31.8214 50.6013 22.7672 56.9371 12.6123H56.9278ZM22.0339 50.3903C23.2332 50.5215 24.2757 50.7118 25.3228 50.7272C26.8681 50.7503 28.3904 50.5215 29.8065 49.7294C32.2698 48.3563 33.4968 45.9622 34.1726 43.1335C34.1718 43.0424 34.1542 42.9525 34.1209 42.8693C34.0875 42.7861 34.0392 42.7115 33.9789 42.6501C32.6811 41.174 31.3742 39.7074 30.0579 38.2502C30.0028 38.1812 29.9358 38.1252 29.8609 38.0855C29.7861 38.0457 29.7049 38.0231 29.622 38.0188C27.7123 38.3788 25.9756 39.1091 25.0691 41.2049C24.6769 42.1481 24.3679 43.1316 24.1466 44.1416C23.6714 46.2502 23.5169 48.4848 22.0339 50.3903Z" fill="#92210F"/>
<path d="M11.2628 22.8209C8.65188 22.8389 6.45154 20.4705 6.44001 17.629C6.42617 14.4738 8.51579 12.0925 11.3066 12.0874C13.8921 12.0874 16.0763 14.4326 16.097 17.2458C16.1201 20.4165 14.0466 22.8055 11.2628 22.8209ZM11.2628 20.3471C11.7731 20.3434 12.2711 20.1721 12.6945 19.8545C13.1179 19.5369 13.4479 19.0871 13.6432 18.5615C13.8386 18.0359 13.8905 17.4577 13.7927 16.8993C13.6948 16.3409 13.4514 15.827 13.0929 15.4221C12.7344 15.0171 12.2768 14.739 11.7773 14.6225C11.2778 14.5061 10.7586 14.5564 10.2846 14.7672C9.8106 14.9781 9.40289 15.34 9.11248 15.8079C8.82207 16.2758 8.66186 16.8287 8.65187 17.3976C8.64321 17.7835 8.70418 18.1673 8.8311 18.5264C8.95802 18.8856 9.14833 19.2126 9.39076 19.4882C9.63318 19.7638 9.92277 19.9822 10.2424 20.1306C10.5619 20.2791 10.905 20.3544 11.2512 20.3522L11.2628 20.3471Z" fill="#172F40"/>
<path d="M35.1252 27.301C32.4359 27.2522 30.2217 24.8092 30.2817 21.9651C30.3509 18.8793 32.5028 16.5058 35.1736 16.5495C35.8155 16.5381 36.453 16.6697 37.0486 16.9365C37.6443 17.2033 38.1862 17.6001 38.6425 18.1034C39.0989 18.6068 39.4605 19.2067 39.7062 19.8679C39.9519 20.5292 40.0767 21.2384 40.0733 21.9541C40.0699 22.6699 39.9384 23.3776 39.6865 24.036C39.4346 24.6943 39.0673 25.2899 38.6063 25.7879C38.1452 26.2859 37.5996 26.6762 37.0014 26.9361C36.4033 27.1959 35.7646 27.32 35.1229 27.301H35.1252ZM37.7592 22.0063C37.7769 21.2274 37.5164 20.4726 37.035 19.9079C36.5536 19.3432 35.8907 19.0148 35.1921 18.995C34.4935 18.9752 33.8165 19.2657 33.31 19.8024C32.8035 20.3392 32.509 21.0783 32.4913 21.8571C32.4474 23.4515 33.6791 24.8247 35.1598 24.8298C35.8387 24.8333 36.4916 24.5393 36.9778 24.0112C37.464 23.483 37.7446 22.7629 37.7592 22.0063Z" fill="#172F40"/>
<path d="M19.3354 13.3915C19.2824 10.424 21.4435 8.00419 24.1789 7.96048C26.7852 7.91933 28.9579 10.3468 29.0224 13.3607C29.0801 16.2407 26.8636 18.6837 24.1513 18.7248C21.5727 18.7711 19.3908 16.3565 19.3354 13.3915ZM21.5473 13.3349C21.5476 13.7214 21.6165 14.104 21.7501 14.4606C21.8838 14.8172 22.0794 15.1408 22.3258 15.4126C22.5722 15.6845 22.8644 15.8992 23.1857 16.0444C23.5069 16.1896 23.8508 16.2625 24.1974 16.2587C24.5408 16.255 24.8803 16.1759 25.1964 16.026C25.5124 15.876 25.7988 15.6581 26.0394 15.3846C26.2799 15.1112 26.4698 14.7877 26.5981 14.4325C26.7265 14.0773 26.7908 13.6973 26.7875 13.3144C26.7842 12.9314 26.7132 12.553 26.5787 12.2006C26.4442 11.8482 26.2487 11.5288 26.0035 11.2607C25.7583 10.9925 25.4681 10.7808 25.1495 10.6377C24.8309 10.4946 24.4901 10.4229 24.1466 10.4266C23.4573 10.4327 22.7979 10.7413 22.3114 11.2857C21.8248 11.8301 21.5503 12.5664 21.5473 13.3349Z" fill="#172F40"/>
<path d="M17.4808 44.1647C17.4852 45.582 16.988 46.944 16.0971 47.955C15.2063 48.9661 13.9937 49.5446 12.7226 49.5649C9.96876 49.5829 7.82146 47.1759 7.80762 44.0618C7.80762 41.2332 9.99182 38.8185 12.575 38.7954C13.214 38.7862 13.8482 38.9181 14.4413 39.1834C15.0343 39.4488 15.5744 39.8423 16.0304 40.3414C16.4864 40.8405 16.8493 41.4353 17.0983 42.0915C17.3472 42.7476 17.4772 43.4522 17.4808 44.1647ZM15.2712 44.1981C15.2726 43.4294 15.0031 42.6909 14.5208 42.1417C14.0385 41.5924 13.382 41.2763 12.6926 41.2614C12.3492 41.2547 12.0079 41.3234 11.6882 41.4638C11.3686 41.6041 11.0769 41.8132 10.8297 42.0792C10.3306 42.6164 10.0433 43.3527 10.031 44.1261C10.0188 44.8995 10.2826 45.6466 10.7645 46.2032C11.2463 46.7597 11.9067 47.08 12.6004 47.0936C12.9475 47.1008 13.2924 47.031 13.6151 46.8884C13.9378 46.7458 14.2319 46.5332 14.4804 46.2629C14.7288 45.9926 14.9267 45.67 15.0624 45.3138C15.1982 44.9576 15.2692 44.5748 15.2712 44.1878V44.1981Z" fill="#172F40"/>
</svg>
