<svg width="60" height="60" viewBox="0 0 60 60" fill="none" xmlns="http://www.w3.org/2000/svg">
<path d="M44.5 46H43.5V52H44.5V46Z" fill="#667280"/>
<path d="M45.828 60H29C27.343 60 26 58.657 26 57C26 55.343 27.343 54 29 54H45.828C44.617 55.817 44.617 58.183 45.828 60Z" fill="#405D80"/>
<path d="M41 47H31V54H41V47Z" fill="#667280"/>
<path d="M36 42L27 46L36 50L45 46L36 42Z" fill="#404C59"/>
<path d="M10.555 49H9.445C6.45 49 4 46.55 4 43.555V42.445C4 39.45 6.45 37 9.445 37H10.555C13.55 37 16 39.45 16 42.445V43.555C16 46.55 13.55 49 10.555 49Z" fill="#404C59"/>
<path d="M14 52H6C2.686 52 0 54.686 0 58V60H20V58C20 54.686 17.314 52 14 52Z" fill="#759ACC"/>
<path d="M58 34H12C10.895 34 10 33.105 10 32V2C10 0.895 10.895 0 12 0H58C59.105 0 60 0.895 60 2V32C60 33.105 59.105 34 58 34Z" fill="#ADC4E6"/>
<path d="M58 2H35V20H58V2Z" fill="#404C59"/>
<path d="M40 5H38V7H40V5Z" fill="#E6E6E6"/>
<path d="M55 5H42V7H55V5Z" fill="#E6E6E6"/>
<path d="M40 10H38V12H40V10Z" fill="#E6E6E6"/>
<path d="M55 10H42V12H55V10Z" fill="#E6E6E6"/>
<path d="M40 15H38V17H40V15Z" fill="#E6E6E6"/>
<path d="M55 15H42V17H55V15Z" fill="#E6E6E6"/>
<path d="M41 55H30V56H41V55Z" fill="#E6E6E6"/>
<path d="M43 58H32V59H43V58Z" fill="#E6E6E6"/>
<path d="M27 24H19C15.686 24 13 26.686 13 30V34H33V30C33 26.686 30.314 24 27 24Z" fill="#405D80"/>
<path d="M23.209 24H22.791C19.056 24 16 20.944 16 17.209V14.791C16 11.056 19.056 8 22.791 8H23.209C26.944 8 30 11.056 30 14.791V17.209C30 20.944 26.944 24 23.209 24Z" fill="#FFDBAC"/>
<path d="M29.6898 13.945L29.9598 14.068C29.5958 10.67 26.6998 8 23.2088 8H22.7908C19.3788 8 16.5418 10.552 16.0748 13.84C16.1598 13.858 16.2438 13.878 16.3298 13.895C19.6298 13.555 22.5298 12.915 24.7098 12.055C25.7498 13.025 27.5298 13.695 29.6898 13.945Z" fill="#404C59"/>
<path d="M20 17C19.448 17 19 16.552 19 16C19 15.448 19.448 15 20 15C20.552 15 21 15.448 21 16C21 16.552 20.552 17 20 17ZM26 17C25.448 17 25 16.552 25 16C25 15.448 25.448 15 26 15C26.552 15 27 15.448 27 16C27 16.552 26.552 17 26 17Z" fill="#667280"/>
</svg>
