<svg width="60" height="60" viewBox="0 0 60 60" fill="none" xmlns="http://www.w3.org/2000/svg">
<path d="M0.0135797 35.0612L2.12392 34.5948C2.66658 34.4752 2.98463 33.7484 2.68617 33.2805C2.30782 32.6884 1.91137 32.107 1.54809 31.5573L5.45222 27.6855C5.92102 27.9883 6.47121 28.3654 7.02592 28.7303C7.62888 29.1316 8.32228 28.8499 8.46548 28.1443C8.57703 27.5886 8.66898 27.0253 8.81821 26.4787C8.85236 26.3928 8.90688 26.3166 8.97702 26.2567C9.04717 26.1968 9.13081 26.155 9.22069 26.135C10.8969 26.1107 12.5746 26.1198 14.3006 26.1198C14.4513 26.8436 14.5885 27.5508 14.7438 28.2518C14.7809 28.3837 14.8473 28.5054 14.9379 28.6079C15.0285 28.7104 15.141 28.7909 15.267 28.8435C15.3931 28.8961 15.5293 28.9193 15.6655 28.9115C15.8017 28.9037 15.9344 28.8651 16.0537 28.7984C16.643 28.4184 17.2219 28.0232 17.7465 27.6734L21.0175 30.9516L19.6608 32.163L17.7012 30.0265C17.1254 30.4126 16.6898 30.7457 16.2119 31.0016C15.9867 31.106 15.7306 31.1217 15.4944 31.0455C14.8161 30.8078 14.1513 30.5261 13.4986 30.2233C13.3075 30.1296 13.158 29.9676 13.0796 29.769C12.9454 29.342 12.9183 28.8802 12.7781 28.4547C12.7381 28.3631 12.6774 28.282 12.6007 28.2182C12.524 28.1543 12.4335 28.1093 12.3365 28.0868C11.8312 28.0376 11.3223 28.0376 10.817 28.0868C10.6542 28.1034 10.3844 28.3306 10.3814 28.4638C10.3633 29.7327 9.68646 30.2566 8.53633 30.723C7.52035 31.1364 6.82846 31.15 6.06723 30.4353C5.91756 30.3198 5.75761 30.2184 5.5894 30.1325L3.98705 31.7526C4.28852 32.1993 4.61261 32.6384 4.86886 33.1154C4.97207 33.3419 4.98766 33.5988 4.91258 33.8362C4.68195 34.4979 4.36087 35.1293 4.13326 35.794C4.02925 36.0969 3.8981 36.2362 3.58306 36.2861C3.04643 36.3694 2.51735 36.5042 1.9355 36.6268C1.9355 37.29 1.9174 37.9336 1.95057 38.5756C1.95057 38.7089 2.14954 38.9435 2.25204 38.9435C3.58608 38.9602 4.34127 39.6159 4.55984 40.9317C4.58999 41.1179 4.71058 41.2875 4.82364 41.5237L3.18209 42.4459C3.09891 42.3501 3.03126 42.2418 2.98161 42.1249C2.76003 41.0937 2.03346 40.7712 1.08833 40.7031C0.721005 40.6534 0.357417 40.579 0 40.4804L0.0135797 35.0612Z" fill="#172F40"/>
<path d="M18.3298 18.3611H16.4531V12.5814H19.2237C19.8267 10.9249 20.2487 9.31986 20.9753 7.86927C22.7495 4.33059 25.5924 1.96391 29.3398 0.696526C29.6774 0.582961 30.0422 0.520883 29.9261 0H37.5731L37.4872 0.142325C37.7088 0.319486 37.9017 0.570848 38.1535 0.658671C43.58 2.58574 46.8702 6.38032 48.0238 12.0424C48.1098 12.4633 48.2424 12.5905 48.6554 12.5754C49.4528 12.5436 50.2517 12.5663 51.0959 12.5663V18.3399H49.2207C49.391 18.6427 49.5222 18.8547 49.6277 19.0713C49.9676 19.7251 50.1523 20.449 50.1674 21.1864C50.1824 21.9238 50.0274 22.6548 49.7144 23.322C49.4014 23.9892 48.939 24.5746 48.3632 25.0324C47.7875 25.4902 47.1142 25.808 46.3958 25.9609C46.016 26.0411 45.8291 26.1955 45.7145 26.5544C45.196 28.1958 44.2493 29.5737 43.0495 30.7851C41.9204 31.9253 40.7884 33.0564 39.6533 34.1965C38.6614 35.1989 37.4932 35.794 36.0657 35.8001C34.5413 35.8082 33.0183 35.8082 31.4968 35.8001C30.8798 35.806 30.2678 35.6886 29.6964 35.4547C29.125 35.2207 28.6056 34.8749 28.1685 34.4373C26.7998 33.0947 25.4497 31.732 24.1182 30.349C23.0813 29.2494 22.2917 27.9388 21.8028 26.506C21.7547 26.3907 21.6827 26.287 21.5918 26.2017C21.5009 26.1163 21.393 26.0513 21.2753 26.0108C17.9032 25.2371 16.3732 21.6863 18.152 18.72C18.1957 18.6352 18.2333 18.5489 18.3298 18.3611ZM23.2228 18.3944C23.2009 18.5156 23.1863 18.6379 23.1791 18.7609C23.1791 20.2751 23.1685 21.7802 23.1911 23.2898C23.1949 25.4131 24.0159 27.4526 25.4824 28.9817C26.7817 30.3626 28.1399 31.689 29.4845 33.0276C29.7706 33.3108 30.1112 33.5327 30.4854 33.6795C30.8596 33.8263 31.2596 33.8951 31.6611 33.8816C33.068 33.8816 34.4749 33.8816 35.8818 33.8816C36.3123 33.8912 36.74 33.8109 37.1381 33.646C37.5361 33.481 37.8957 33.2348 38.1942 32.9231C39.4001 31.6981 40.6241 30.4853 41.8345 29.2603C43.167 27.9127 44.0956 26.3091 44.2614 24.4149C44.4287 22.4464 44.3533 20.4628 44.3805 18.4838C44.3805 18.455 44.3353 18.4247 44.3081 18.3899L23.2228 18.3944ZM35.7085 10.5766V1.92605H31.8375V10.5721H29.9156V2.60441C25.6949 3.67494 21.7998 8.34473 21.4742 12.5345H46.114C45.6497 7.90561 41.4215 3.46295 37.6183 2.61955V10.5766H35.7085ZM49.1905 14.5135H18.3796V16.4093H49.1905V14.5135ZM46.3265 23.9682C47.5716 23.5003 48.3419 22.3298 48.2484 21.12C48.155 19.9101 47.3606 18.8775 46.3265 18.6503V23.9682ZM21.2315 18.6185C19.9276 19.0395 19.1905 20.2675 19.3443 21.6711C19.4619 22.7492 20.3527 23.791 21.2315 23.8819V18.6185Z" fill="#92210F"/>
<path d="M40.5412 34.8628H42.3621C42.3953 34.9218 42.4284 34.9521 42.4315 34.9855C42.5174 36.1075 42.5189 36.0999 43.5741 36.4618C46.3024 37.3976 49.079 38.2152 51.7426 39.313C54.8312 40.5849 56.8571 42.9986 57.6214 46.2586C58.2967 49.1734 58.6766 52.1549 59.1876 55.1076C59.4649 56.7247 59.7257 58.3449 60 59.9999H7.56714C8.05402 57.0594 8.53789 54.14 9.0308 51.1691L10.9331 51.4765C10.5714 53.6827 10.2141 55.8541 9.84932 58.0709H16.5316C16.7325 56.4941 16.9305 54.9213 17.1255 53.3526C17.1752 52.9453 17.2415 52.5365 17.2641 52.1276C17.3109 51.263 17.4797 50.5544 18.3796 50.085C19.1107 49.7064 19.284 48.8555 19.3232 48.0423C19.3323 47.8682 19.3232 47.6926 19.3232 47.4745H21.1999C21.3763 49.1205 20.8985 50.5029 19.6564 51.6219C19.4238 51.8344 19.2653 52.1162 19.2042 52.4259C18.9404 54.2854 18.7203 56.1509 18.4806 58.0663H32.7812V55.2015H21.2678V53.2724H32.7857C32.8324 52.379 32.8686 51.5977 32.433 50.7906C30.1387 46.5584 27.9364 42.2778 25.6196 38.0577C25.0438 37.0099 25.0965 35.9833 25.1237 34.8689H26.9702C27.0058 34.9587 27.0262 35.0539 27.0305 35.1505C26.8798 36.224 27.3109 37.1189 27.8038 38.0274C29.7001 41.5389 31.5572 45.073 33.4309 48.598C33.5288 48.7843 33.6404 48.9645 33.7821 49.2037C33.9162 48.9705 34.0233 48.7979 34.1182 48.6178C36.1035 44.8868 38.0736 41.1482 40.0799 37.4278C40.4176 36.7994 40.6151 36.1832 40.5487 35.476C40.5261 35.2928 40.5412 35.1005 40.5412 34.8628ZM49.079 58.0815C48.8333 56.0858 48.5967 54.1264 48.3419 52.1761C48.3049 52.0071 48.2099 51.8565 48.0736 51.7506C46.7923 50.7331 46.2949 49.3824 46.307 47.7758C46.325 45.1684 46.3175 42.5609 46.307 39.952C46.307 39.7445 46.1864 39.4023 46.0417 39.3463C44.7091 38.8633 43.357 38.4302 41.9853 37.9745C41.8707 38.1774 41.7727 38.3424 41.6838 38.5135C39.48 42.6594 37.2928 46.8143 35.0618 50.945C34.6533 51.7021 34.7739 52.4411 34.7709 53.2799H46.2843V55.206H34.78V58.0829L49.079 58.0815ZM57.6877 58.0678C57.6651 57.8513 57.6546 57.659 57.6229 57.4621C57.1224 54.4338 56.5677 51.4054 56.1291 48.3649C55.4161 43.4816 52.433 41.0846 48.2907 40.1367C48.2816 40.3139 48.2651 40.485 48.2651 40.6561C48.2651 43.0667 48.2786 45.4788 48.2575 47.8894C48.247 49.0871 48.7233 49.9517 49.7769 50.5226C49.8699 50.5793 49.9503 50.6545 50.0133 50.7436C50.0763 50.8326 50.1205 50.9336 50.1432 51.0405C50.4367 53.234 50.711 55.4296 50.9663 57.6272C51.01 58.0088 51.1366 58.1148 51.5059 58.1117C53.4173 58.0966 55.3302 58.1117 57.234 58.1026C57.3727 58.1102 57.5114 58.086 57.6877 58.0678Z" fill="#92210F"/>
<path d="M21.6551 43.9797L17.7962 47.8667C17.249 47.4987 16.6687 47.1096 16.0823 46.722C15.962 46.6491 15.8264 46.6054 15.6863 46.5943C15.5463 46.5832 15.4056 46.6051 15.2754 46.6581C15.1452 46.7112 15.0291 46.7939 14.9363 46.8999C14.8435 47.0059 14.7765 47.1321 14.7407 47.2686C14.6186 47.8228 14.5101 48.38 14.4091 48.9342C14.3533 49.237 14.2493 49.4036 13.8845 49.3975C12.3621 49.3748 10.8396 49.3809 9.31716 49.3975C8.98402 49.3975 8.82875 49.3082 8.78052 48.9539C8.70967 48.4315 8.57401 47.9182 8.4685 47.4003C8.31776 46.6553 7.64094 46.3646 7.01688 46.778L5.40097 47.8546L2.17969 44.6309L3.47453 43.3029L5.41755 45.3834C5.50073 45.3763 5.58302 45.3611 5.66325 45.338C6.18632 44.9973 6.68525 44.4295 7.23847 44.3765C7.79168 44.3235 8.34337 44.8776 8.92975 44.9912C9.87036 45.1729 10.2548 45.7059 10.2985 46.6069C10.3315 46.8753 10.386 47.1406 10.4613 47.4003H12.7223C12.8595 46.7462 12.8173 45.9754 13.1746 45.5303C13.5318 45.0851 14.3368 45.076 14.8553 44.7277C15.609 44.2265 16.2225 44.3174 16.8526 44.9034C17.1081 45.1029 17.3788 45.2821 17.662 45.4394L18.8212 44.1902L19.2011 43.7799C18.889 43.312 18.5981 42.8502 18.2816 42.4065C18.1932 42.3073 18.1399 42.1816 18.1298 42.0488C18.1197 41.9161 18.1535 41.7837 18.2258 41.6721C18.5368 41.0641 18.798 40.4316 19.0066 39.7809C19.0412 39.6226 19.1261 39.4798 19.2484 39.3742C19.3708 39.2685 19.524 39.2055 19.685 39.1949C20.1824 39.1131 20.6738 39.0041 21.1923 38.9026C21.2074 38.783 21.23 38.6891 21.2315 38.5998C21.2315 37.9548 21.2315 37.3097 21.2315 36.6238C20.6376 36.4981 20.0648 36.3966 19.5086 36.2422C19.3257 36.1769 19.176 36.0412 19.0926 35.8652C18.8438 35.2716 18.6403 34.6538 18.3886 33.9694L20.0105 33.0503C20.1447 33.3107 20.3241 33.5363 20.3768 33.7892C20.517 34.4403 20.9481 34.6296 21.539 34.7129C22.0726 34.7871 22.7917 34.7916 23.063 35.1262C23.3343 35.4609 23.1715 36.168 23.1761 36.7131C23.1851 37.8109 23.1625 38.9087 23.1866 40.0065C23.1866 40.3729 23.0781 40.538 22.7193 40.5895C22.2565 40.6576 21.7998 40.7606 21.3416 40.8514C20.3995 41.0377 20.1357 41.6767 20.6572 42.4701L21.6551 43.9797Z" fill="#172F40"/>
<path d="M6.78321 37.7622C6.78202 36.8052 7.06359 35.8694 7.59227 35.0732C8.12095 34.2771 8.87295 33.6565 9.75303 33.29C10.6331 32.9235 11.6017 32.8276 12.536 33.0144C13.4704 33.2013 14.3285 33.6625 15.0018 34.3396C15.675 35.0168 16.1331 35.8794 16.3179 36.8182C16.5028 37.757 16.4061 38.7298 16.0401 39.6134C15.6741 40.497 15.0554 41.2516 14.2621 41.7817C13.4689 42.3118 12.5369 42.5934 11.5842 42.591C10.3117 42.585 9.09311 42.0742 8.19386 41.1697C7.29461 40.2653 6.78757 39.0405 6.78321 37.7622ZM14.4709 37.8379C14.4819 37.4553 14.4177 37.0743 14.282 36.7167C14.1462 36.3591 13.9415 36.0318 13.6797 35.7538C13.4179 35.4757 13.104 35.2522 12.7561 35.0962C12.4081 34.9402 12.033 34.8546 11.6521 34.8444C10.116 34.7974 8.76994 36.0875 8.70362 37.6684C8.63729 39.2492 9.93365 40.6044 11.5405 40.6483C12.2991 40.6645 13.0332 40.3777 13.5814 39.8508C14.1297 39.3239 14.4475 38.6 14.4649 37.8379H14.4709Z" fill="#172F40"/>
<path d="M27.9755 8.73535V10.5524H26.0928V8.73535H27.9755Z" fill="#92210F"/>
<path d="M41.4653 8.72949V10.5753H39.6157V8.72949H41.4653Z" fill="#92210F"/>
</svg>
