<svg width="60" height="60" viewBox="0 0 60 60" fill="none" xmlns="http://www.w3.org/2000/svg">
<path d="M0 55.9004V1.88309C0.156981 1.45283 0.406142 1.06209 0.730029 0.738245C1.05392 0.414395 1.4447 0.165264 1.875 0.00830078H44.7657C44.7766 0.137974 44.8547 0.194217 44.9719 0.253585C45.8922 0.722282 46.3094 1.47845 46.2954 2.51114C46.2719 3.98597 46.286 5.4608 46.2844 6.93564C45.7485 5.74515 44.8547 5.15615 43.5235 5.24833C42.925 5.29051 42.3204 5.26395 41.7188 5.26864C41.3375 5.12178 40.9563 5.27958 40.575 5.27958C29.2485 5.26708 17.9188 5.28895 6.59688 5.24677C6.23418 5.23611 5.87314 5.29986 5.53604 5.4341C5.19893 5.56835 4.8929 5.77022 4.63684 6.02728C4.38077 6.28435 4.1801 6.59114 4.04719 6.92874C3.91428 7.26634 3.85195 7.62759 3.86406 7.9902C3.91094 11.896 3.92969 15.8018 3.86406 19.7076C3.82656 21.7027 4.875 22.8666 6.98907 22.8588C18.1594 22.8229 29.3328 22.8432 40.4985 22.8416C40.9469 22.8416 41.3954 22.8416 41.8438 22.8307C42.3485 22.8307 42.8547 22.8307 43.3594 22.8526C44.6938 22.9182 45.7032 22.4307 46.2704 21.1762C46.2704 21.4684 46.2907 21.7605 46.2907 22.0527C46.2907 33.1691 46.2907 44.2845 46.2907 55.3989C46.2907 56.5316 46.4594 57.6392 47.0626 58.6469C47.3516 59.1297 47.8438 59.4625 48.0454 59.9999H27.4203H4.8672C3.86715 59.9972 2.89247 59.685 2.07696 59.1062C1.26145 58.5274 0.645093 57.7105 0.3125 56.7675C0.2125 56.4769 0.104688 56.1894 0 55.9004ZM7.34376 45.3375C6.27032 45.3375 5.19688 45.3375 4.12344 45.3375C3.29219 45.3375 3.02969 45.6 3.02032 46.4093C3.02032 47.9122 3.02032 49.4152 3.02032 50.9181C3.02032 51.6993 3.33282 52.0118 4.11407 52.0118C6.2422 52.0118 8.37032 52.0118 10.4985 52.0118C11.2797 52.0118 11.6016 51.6915 11.6047 50.9181C11.611 49.4152 11.611 47.9122 11.6047 46.4093C11.6047 45.6031 11.3297 45.3422 10.5 45.3375C9.45626 45.3328 8.40313 45.3375 7.34376 45.3375ZM7.32501 36.5588C6.23126 36.5588 5.13751 36.5588 4.04376 36.5588C3.30625 36.5588 3.02656 36.8463 3.02344 37.5931C3.01615 39.1169 3.01615 40.6391 3.02344 42.1598C3.02344 42.9097 3.33595 43.2331 4.08595 43.2362C6.23178 43.2424 8.37813 43.2424 10.525 43.2362C11.2797 43.2362 11.6094 42.9159 11.6188 42.1785C11.6281 40.6381 11.6281 39.0971 11.6188 37.5556C11.6188 36.8744 11.2969 36.5635 10.6078 36.5588C9.50939 36.5463 8.4172 36.5588 7.32501 36.5588ZM7.32501 27.7754C6.23126 27.7754 5.13751 27.7754 4.04376 27.7754C3.32657 27.7754 3.02032 28.0879 3.01719 28.8144C3.0099 30.3569 3.0099 31.8979 3.01719 33.4373C3.01719 34.1091 3.34844 34.4513 4.01875 34.4544C6.20625 34.4648 8.39375 34.4648 10.5813 34.4544C11.2828 34.4544 11.6094 34.1138 11.6125 33.4014C11.6198 31.8588 11.6198 30.3179 11.6125 28.7785C11.6125 28.0942 11.3 27.7817 10.6063 27.7754C9.51564 27.7614 8.42344 27.7692 7.33126 27.7692L7.32501 27.7754ZM25.625 34.4544H35.1141C36.0672 34.4544 36.5297 34.1419 36.5204 33.517C36.5094 32.9217 36.0391 32.6155 35.1329 32.6155H16.0938C15.8988 32.6069 15.7034 32.6131 15.5094 32.6343C15.025 32.7108 14.6547 33.1186 14.6969 33.5576C14.7453 34.0638 15.0297 34.3825 15.5516 34.4419C15.7268 34.4552 15.9026 34.4583 16.0781 34.4513L25.625 34.4544ZM25.6016 43.2346H35.325C36.0688 43.2346 36.5141 42.8894 36.5172 42.3222C36.5204 41.7551 36.061 41.4083 35.3266 41.4005H16.0625C15.8869 41.3903 15.7108 41.395 15.536 41.4145C15.0328 41.502 14.7266 41.802 14.7016 42.3207C14.6797 42.7987 15.0735 43.1846 15.5922 43.2315C15.7485 43.2456 15.9047 43.2315 16.061 43.2315L25.6016 43.2346ZM25.5407 52.0164H35.3204C36.0688 52.0164 36.5125 51.6712 36.5172 51.104C36.5219 50.5369 36.061 50.1885 35.3297 50.1791H16.0688C15.8545 50.1672 15.6396 50.1798 15.4281 50.2166C15.2221 50.2506 15.0354 50.3582 14.9026 50.5193C14.7698 50.6805 14.7001 50.8844 14.7063 51.0931C14.7063 51.5524 14.9735 51.8602 15.4203 51.9758C15.6118 52.0125 15.807 52.0256 16.0016 52.0149L25.5407 52.0164ZM31.4032 36.5494H23.2141C23.0391 36.5494 22.8625 36.5494 22.6875 36.5494C22.1453 36.5838 21.7953 36.9307 21.7907 37.429C21.786 37.9274 22.1344 38.2914 22.6688 38.3289C22.8438 38.3399 23.0188 38.3289 23.1953 38.3289H38.8813C39.2516 38.3289 39.6235 38.3414 39.9938 38.3289C40.5313 38.3024 40.8922 37.9415 40.8969 37.4493C40.9016 36.9572 40.5438 36.5901 40.0141 36.5526C39.8391 36.5401 39.6625 36.5526 39.4875 36.5526L31.4032 36.5494ZM31.3219 29.5549H37.9938C38.6766 29.5549 39.361 29.569 40.0422 29.544C40.2692 29.5399 40.4855 29.4466 40.6442 29.2844C40.803 29.1221 40.8915 28.9039 40.8907 28.6769C40.8952 28.4501 40.8125 28.2303 40.6595 28.0628C40.5066 27.8953 40.2951 27.793 40.0688 27.777C39.8743 27.7637 39.6792 27.7606 39.4844 27.7676H24.4485C23.8641 27.7676 23.2782 27.752 22.6938 27.7676C22.1094 27.7833 21.7703 28.1801 21.7922 28.705C21.8141 29.23 22.1891 29.5471 22.8422 29.5487C25.6714 29.556 28.5 29.5575 31.3282 29.5534L31.3219 29.5549ZM31.3344 45.3344H23.2047C23.0297 45.3344 22.8532 45.3344 22.6782 45.3344C22.1407 45.3703 21.7875 45.7265 21.7907 46.2218C21.7938 46.717 22.1453 47.0733 22.6813 47.1139C22.8172 47.1232 22.9547 47.1139 23.0922 47.1139H39.5954C39.7899 47.1289 39.9855 47.1211 40.1782 47.0904C40.6469 46.9717 40.925 46.653 40.8891 46.153C40.8876 45.9448 40.8073 45.7448 40.6645 45.5932C40.5216 45.4417 40.3266 45.3498 40.1188 45.336C39.9245 45.3187 39.7293 45.314 39.5344 45.3219L31.3344 45.3344ZM17.0313 29.5534C17.4797 29.5534 17.9266 29.5643 18.3735 29.5534C18.9391 29.5362 19.325 29.1597 19.3219 28.6597C19.3188 28.1598 18.9344 27.7848 18.361 27.7739C17.4464 27.7583 16.5318 27.7583 15.6172 27.7739C15.5 27.7699 15.3832 27.7892 15.2735 27.8307C15.1638 27.8722 15.0634 27.9349 14.9781 28.0154C14.8928 28.0959 14.8243 28.1925 14.7766 28.2996C14.7289 28.4067 14.7028 28.5222 14.7 28.6394C14.686 29.1456 15.0641 29.5284 15.6375 29.5487C16.0938 29.5659 16.5625 29.5518 17.0313 29.5534ZM16.9875 38.3352C17.4563 38.3352 17.925 38.3477 18.3938 38.3352C18.95 38.3164 19.3313 37.9259 19.3313 37.4259C19.3288 37.3089 19.3033 37.1935 19.256 37.0865C19.2087 36.9794 19.1407 36.8828 19.0558 36.8021C18.971 36.7215 18.871 36.6585 18.7617 36.6167C18.6523 36.575 18.5358 36.5553 18.4188 36.5588C17.4813 36.5416 16.5438 36.5401 15.6172 36.5588C15.5 36.5561 15.3834 36.5767 15.2742 36.6193C15.165 36.6619 15.0653 36.7257 14.9809 36.8071C14.8965 36.8884 14.829 36.9857 14.7824 37.0932C14.7358 37.2008 14.711 37.3165 14.7094 37.4337C14.7094 37.9352 15.0906 38.3149 15.6563 38.3336C16.0938 38.3461 16.5406 38.3352 16.9891 38.3352H16.9875ZM17.0219 47.117H18.3047C18.3438 47.117 18.3828 47.117 18.4219 47.117C18.9469 47.0748 19.3188 46.7061 19.3219 46.2265C19.3225 46.11 19.3001 45.9946 19.2559 45.8869C19.2117 45.7791 19.1466 45.6812 19.0644 45.5987C18.9822 45.5162 18.8845 45.4508 18.7769 45.4063C18.6693 45.3617 18.554 45.3389 18.4375 45.3391C17.5 45.3188 16.5625 45.3203 15.636 45.3391C15.0672 45.35 14.6985 45.7437 14.7078 46.2499C14.7168 46.4861 14.8184 46.7093 14.9906 46.8713C15.1628 47.0332 15.3918 47.1209 15.6281 47.1154C16.0938 47.1311 16.5625 47.117 17.0313 47.117H17.0219Z" fill="#EBF3FE"/>
<path d="M60.0001 20.3969V55.7835C59.9619 55.8265 59.9313 55.8756 59.9094 55.9288C59.3188 58.6456 57.361 60.1173 54.5251 59.9736C54.4157 59.9408 54.3063 59.9033 54.1954 59.8783C51.9454 59.3659 50.2782 57.4255 50.2766 55.2507C50.2766 43.0136 50.2766 30.7754 50.2766 18.5361C52.4641 18.5361 54.636 18.5767 56.8141 18.5096C58.3219 18.4658 59.4266 18.9408 60.0001 20.3969Z" fill="#B2E49E"/>
<path d="M50.2781 18.5393C50.2781 30.7754 50.2781 43.0136 50.2781 55.2539C50.2781 57.4286 51.9469 59.369 54.1969 59.8815C54.3078 59.9065 54.4172 59.944 54.5266 59.9768L48.0516 60.0002C47.8438 59.4628 47.3578 59.13 47.0688 58.6472C46.4656 57.6395 46.2984 56.5319 46.2969 55.3992C46.2875 44.2838 46.2875 33.1684 46.2969 22.053C46.2969 21.7608 46.2828 21.4687 46.2766 21.1765C46.4328 20.486 46.3953 19.7829 46.3953 19.0846C46.3953 17.2098 46.4172 15.3443 46.3953 13.4743C46.3641 11.2964 46.5188 9.11381 46.2969 6.93906C46.2969 5.46422 46.2844 3.98939 46.3078 2.51456C46.3219 1.48186 45.9047 0.7257 44.9844 0.257003C44.8672 0.197635 44.7891 0.141392 44.7781 0.0117188H48.411C49.8406 0.57103 50.3188 1.63653 50.3047 3.13636C50.2438 8.26859 50.2766 13.4039 50.2781 18.5393Z" fill="#DCE9FA"/>
<path d="M1.875 0.00837288C1.4447 0.165336 1.05392 0.414467 0.73003 0.738317C0.406142 1.06217 0.156981 1.4529 0 1.88316C0 1.33635 0.0125 0.789534 0 0.242721C0 0.038057 0.0359389 -0.00568802 0.240627 0.000561269C0.781253 0.0208715 1.32813 0.00837288 1.875 0.00837288Z" fill="#FEFEFE"/>
<path d="M41.8423 22.8275C41.3939 22.8275 40.9454 22.8385 40.497 22.8385C29.3267 22.8385 18.1532 22.8197 6.98757 22.8557C4.87038 22.8635 3.82194 21.6995 3.86256 19.7045C3.93288 15.7986 3.91413 11.8928 3.86256 7.98704C3.85045 7.62442 3.91278 7.26317 4.04569 6.92557C4.1786 6.58797 4.37927 6.28118 4.63534 6.02412C4.8914 5.76705 5.19743 5.56518 5.53454 5.43094C5.87164 5.2967 6.23269 5.23294 6.59539 5.2436C17.922 5.28578 29.2517 5.26391 40.5735 5.27641C40.9548 5.27641 41.336 5.12018 41.7173 5.26547C41.9048 5.36233 42.0939 5.45451 42.2767 5.55763C42.9626 5.94821 43.4564 6.5247 43.461 7.3168C43.4876 11.0992 43.461 14.8831 43.461 18.6655C43.2079 18.1796 42.822 18.0078 42.2657 18.0234C40.9579 18.0593 39.6485 18.039 38.3407 18.0234C38.1595 18.0234 37.9017 18.1328 37.8173 17.9234C37.7751 17.8187 37.9392 17.6109 38.0329 17.475C39.6746 14.9628 41.3199 12.4501 42.9689 9.93681C43.2204 9.55405 43.3892 9.15565 43.1829 8.73539C42.9548 8.26669 42.4907 8.21826 42.022 8.21982C40.8704 8.21982 39.7189 8.21982 38.5657 8.21982C37.8048 8.21982 37.0423 8.2042 36.2814 8.22763C36.0338 8.2314 35.7968 8.32814 35.6173 8.49862C35.4378 8.66911 35.329 8.90086 35.3126 9.14784C35.2923 9.58685 35.747 10.0337 36.2751 10.0712C36.5673 10.0899 36.861 10.0712 37.1532 10.0712H40.6704C40.5142 10.3446 40.4095 10.5289 40.2954 10.6961C38.6787 13.1812 37.059 15.6648 35.436 18.1468C35.197 18.5124 35.0314 18.8842 35.236 19.292C35.4564 19.731 35.8751 19.8044 36.3298 19.8013C38.2829 19.7888 40.236 19.7779 42.1892 19.8013C42.7564 19.8013 43.1751 19.6545 43.4579 19.1608C43.4579 19.5295 43.4579 19.8982 43.4829 20.2638C43.5657 21.1933 43.1314 21.8464 42.4204 22.3792C42.2282 22.5432 41.9251 22.5416 41.8423 22.8275ZM12.4673 19.8107C13.4485 19.8294 14.3016 19.7029 15.011 19.2514C15.7704 18.7686 16.311 18.7218 16.886 19.5014C17.1985 19.931 17.7751 19.8732 18.136 19.5232C18.3002 19.3535 18.3943 19.1281 18.3996 18.8921C18.4048 18.656 18.3207 18.4267 18.1641 18.2499C18.004 18.0528 17.8244 17.8722 17.6282 17.7109C17.3376 17.4781 17.3657 17.2735 17.547 16.9688C18.2475 15.8332 18.5144 14.4828 18.2985 13.1661C17.7813 9.86963 14.5829 7.6402 11.3548 8.36199C8.54226 8.98692 6.51101 11.746 6.80945 14.5363C7.13445 17.5578 9.6032 19.8076 12.4657 19.8107H12.4673ZM20.7485 12.6037C20.7485 13.5598 20.797 14.5191 20.7391 15.4706C20.5985 17.7594 22.3595 19.4029 24.2673 19.7529C26.6407 20.1872 29.461 18.4749 29.4048 15.6018C29.3642 13.5333 29.4048 11.4648 29.3954 9.39625C29.3954 8.7432 28.9985 8.24482 28.4907 8.2292C27.9313 8.21045 27.5423 8.68227 27.5407 9.39313C27.5407 11.4804 27.5188 13.5692 27.5517 15.6565C27.5696 15.9978 27.5011 16.3381 27.3525 16.6458C27.2039 16.9536 26.9801 17.2189 26.7017 17.4172C26.3254 17.7186 25.8734 17.9106 25.3953 17.9723C24.9171 18.034 24.4312 17.9631 23.9907 17.7672C23.0235 17.3703 22.5548 16.6282 22.5845 15.5096C22.6454 13.4786 22.6032 11.4476 22.6001 9.41656C22.6001 8.72758 22.1876 8.21514 21.6626 8.22138C21.1376 8.22763 20.747 8.74008 20.7454 9.43531C20.7485 10.4961 20.7516 11.5491 20.7516 12.6037H20.7485ZM33.2892 14.0692C33.2892 12.4897 33.2892 10.9117 33.2892 9.33376C33.2892 8.65259 32.9563 8.24013 32.422 8.24013C31.8876 8.24013 31.5204 8.66508 31.5204 9.31345C31.5204 12.4506 31.5204 15.5877 31.5204 18.7249C31.5204 19.3998 31.8579 19.8076 32.3985 19.8185C32.9392 19.8294 33.2876 19.4123 33.2892 18.7561C33.2954 17.186 33.2923 15.6237 33.2923 14.0692H33.2892Z" fill="#FEDF7D"/>
<path d="M7.34374 45.3375C8.39843 45.3375 9.45155 45.3375 10.5062 45.3375C11.3359 45.3375 11.6078 45.6031 11.6109 46.4093C11.6172 47.9122 11.6172 49.4152 11.6109 50.9181C11.6109 51.6993 11.2891 52.0118 10.5047 52.0118C8.37655 52.0118 6.24843 52.0118 4.1203 52.0118C3.33905 52.0118 3.02655 51.6993 3.02655 50.9181C3.02655 49.4152 3.02655 47.9122 3.02655 46.4093C3.02655 45.6 3.29843 45.3422 4.12968 45.3375C5.20155 45.3328 6.27499 45.3375 7.34374 45.3375Z" fill="#DE75A5"/>
<path d="M7.32492 36.5588C8.41867 36.5588 9.51242 36.5588 10.6062 36.5588C11.2952 36.5588 11.614 36.8712 11.6171 37.5555C11.6265 39.096 11.6265 40.637 11.6171 42.1784C11.6171 42.9159 11.2843 43.2346 10.5234 43.2361C8.37647 43.2361 6.23012 43.2361 4.08429 43.2361C3.34054 43.2361 3.02491 42.9096 3.02179 42.1597C3.02179 40.638 3.02179 39.1158 3.02179 37.593C3.02179 36.8462 3.3046 36.5635 4.0421 36.5588C5.13897 36.5463 6.23116 36.5588 7.32492 36.5588Z" fill="#DE75A5"/>
<path d="M7.33135 27.7691C8.42511 27.7691 9.51886 27.7613 10.6126 27.7691C11.3001 27.7691 11.6157 28.0816 11.6189 28.7721C11.6262 30.3126 11.6262 31.8535 11.6189 33.395C11.6189 34.1074 11.2892 34.4465 10.5876 34.448C8.40011 34.4574 6.21261 34.4574 4.0251 34.448C3.35479 34.448 3.02822 34.1027 3.02354 33.4309C3.01624 31.8905 3.01624 30.3495 3.02354 28.808C3.02354 28.0831 3.33604 27.7738 4.0501 27.7691C5.14698 27.7628 6.23917 27.7691 7.33135 27.7691Z" fill="#DE75A5"/>
<path d="M43.4642 18.669C43.4642 14.8866 43.4892 11.1027 43.4642 7.32028C43.4642 6.52818 42.9658 5.95168 42.2798 5.5611C42.097 5.45799 41.908 5.36581 41.7205 5.26895C42.322 5.26895 42.9267 5.29082 43.5251 5.24864C44.8564 5.15646 45.7501 5.74546 46.2861 6.93595C46.508 9.1107 46.3533 11.2933 46.3845 13.4711C46.4111 15.3459 46.3845 17.2113 46.3845 19.0814C46.3845 19.7798 46.4251 20.4875 46.2658 21.1734C45.6955 22.4232 44.6892 22.9154 43.3548 22.8498C42.8501 22.8248 42.3439 22.8341 41.8392 22.8279C41.922 22.542 42.2251 22.5435 42.4158 22.3998C43.1267 21.8671 43.5611 21.214 43.4783 20.2844C43.447 19.9188 43.4611 19.5501 43.4533 19.183C43.4595 19.0111 43.4611 18.8408 43.4642 18.669Z" fill="#FED066"/>
<path d="M25.625 34.4542H16.0828C15.9072 34.4613 15.7314 34.4582 15.5562 34.4449C15.0343 34.3855 14.75 34.0668 14.7015 33.5606C14.6593 33.1216 15.0296 32.7138 15.514 32.6373C15.708 32.6161 15.9034 32.6099 16.0984 32.6185H35.1344C36.0406 32.6185 36.5109 32.931 36.5219 33.52C36.5359 34.1449 36.0734 34.4574 35.1156 34.4574L25.625 34.4542Z" fill="#4F83AC"/>
<path d="M25.6078 43.2347H16.0609C15.9047 43.2347 15.7484 43.2441 15.5922 43.2347C15.0734 43.1878 14.6797 42.8019 14.7016 42.3239C14.7266 41.8052 15.0328 41.5052 15.5359 41.4177C15.7107 41.3982 15.8869 41.3935 16.0625 41.4037H35.3328C36.0672 41.4037 36.5266 41.7677 36.5234 42.3254C36.5203 42.8832 36.075 43.2378 35.3313 43.2378L25.6078 43.2347Z" fill="#5084AC"/>
<path d="M25.5468 52.0164H16.0015C15.8069 52.0271 15.6117 52.014 15.4203 51.9773C14.9734 51.8617 14.7031 51.5539 14.7062 51.0946C14.7 50.8859 14.7698 50.682 14.9025 50.5208C15.0353 50.3597 15.222 50.2521 15.4281 50.2182C15.6395 50.1813 15.8544 50.1687 16.0687 50.1807H35.3359C36.0672 50.19 36.5281 50.5478 36.5234 51.1055C36.5187 51.6633 36.075 52.0164 35.3265 52.0179L25.5468 52.0164Z" fill="#5084AC"/>
<path d="M31.4062 36.548H39.4844C39.6594 36.548 39.8359 36.548 40.0109 36.548C40.5406 36.5855 40.8984 36.9527 40.8937 37.4448C40.889 37.9369 40.5281 38.2978 39.9906 38.3244C39.6203 38.3431 39.2484 38.3244 38.8781 38.3244H23.1953C23.0187 38.3244 22.8437 38.3244 22.6687 38.3244C22.1343 38.2869 21.7859 37.926 21.7906 37.4245C21.7953 36.923 22.1453 36.5793 22.6874 36.5449C22.8624 36.534 23.039 36.5449 23.214 36.5449L31.4062 36.548Z" fill="#4A80A9"/>
<path d="M31.3281 29.5537C28.5 29.5537 25.6713 29.5537 22.8422 29.5537C22.189 29.5537 21.814 29.2412 21.7921 28.71C21.7703 28.1788 22.1281 27.7961 22.6937 27.7726C23.2593 27.7492 23.864 27.7726 24.4484 27.7726H39.4906C39.6854 27.7656 39.8805 27.7687 40.075 27.782C40.3013 27.798 40.5127 27.9003 40.6657 28.0678C40.8187 28.2353 40.9014 28.4551 40.8969 28.6819C40.8977 28.9089 40.8092 29.1271 40.6504 29.2894C40.4917 29.4516 40.2754 29.5449 40.0484 29.549C39.3672 29.574 38.6828 29.5599 38 29.5599L31.3281 29.5537Z" fill="#4A80A9"/>
<path d="M31.3406 45.3299H39.5312C39.7261 45.322 39.9213 45.3267 40.1156 45.3439C40.3234 45.3577 40.5184 45.4496 40.6613 45.6012C40.8041 45.7527 40.8844 45.9527 40.8859 46.161C40.9218 46.6563 40.6484 46.975 40.175 47.0984C39.9823 47.129 39.7867 47.1369 39.5922 47.1218H23.0921C22.9546 47.1218 22.8171 47.1218 22.6812 47.1218C22.1453 47.0812 21.7953 46.7281 21.7906 46.2297C21.7859 45.7314 22.1406 45.3783 22.6781 45.3424C22.8531 45.3299 23.0296 45.3424 23.2046 45.3424L31.3406 45.3299Z" fill="#4A80A9"/>
<path d="M17.0313 29.552C16.5625 29.552 16.0938 29.5661 15.625 29.552C15.0578 29.5317 14.6875 29.149 14.6875 28.6428C14.6903 28.5256 14.7164 28.4101 14.7641 28.3029C14.8118 28.1958 14.8803 28.0993 14.9656 28.0188C15.0509 27.9383 15.1513 27.8755 15.261 27.8341C15.3707 27.7926 15.4875 27.7733 15.6047 27.7772C16.5182 27.7585 17.4328 27.7585 18.3484 27.7772C18.9219 27.7882 19.3063 28.1616 19.3094 28.6631C19.3125 29.1646 18.9266 29.5395 18.3609 29.5567C17.9281 29.5645 17.4813 29.5536 17.0313 29.552Z" fill="#4B81AA"/>
<path d="M16.9891 38.3353C16.5406 38.3353 16.0938 38.3463 15.6469 38.3353C15.0813 38.3166 14.6938 37.937 14.7 37.4355C14.7016 37.3182 14.7265 37.2025 14.7731 37.095C14.8197 36.9874 14.8871 36.8901 14.9715 36.8088C15.0559 36.7274 15.1556 36.6636 15.2648 36.621C15.3741 36.5784 15.4906 36.5579 15.6078 36.5606C16.5453 36.5402 17.4828 36.5418 18.4094 36.5606C18.5264 36.557 18.6429 36.5767 18.7523 36.6185C18.8616 36.6602 18.9616 36.7232 19.0464 36.8039C19.1313 36.8845 19.1993 36.9811 19.2466 37.0882C19.2939 37.1953 19.3195 37.3106 19.3219 37.4276C19.3344 37.9276 18.9453 38.3182 18.3844 38.3369C17.9235 38.3478 17.4547 38.3353 16.9891 38.3353Z" fill="#4B81AA"/>
<path d="M17.0312 47.117C16.5625 47.117 16.0937 47.131 15.625 47.117C15.3886 47.1225 15.1596 47.0348 14.9874 46.8728C14.8152 46.7109 14.7136 46.4877 14.7047 46.2515C14.6875 45.7453 15.064 45.3516 15.6328 45.3406C16.5703 45.3234 17.5078 45.3219 18.4344 45.3406C18.5515 45.3394 18.6677 45.3615 18.7762 45.4055C18.8847 45.4496 18.9833 45.5149 19.0664 45.5975C19.1494 45.6801 19.2152 45.7784 19.2598 45.8866C19.3045 45.9949 19.3272 46.1109 19.3266 46.228C19.3266 46.7077 18.9516 47.0764 18.4266 47.1186C18.3875 47.1186 18.3484 47.1186 18.3094 47.1186H17.0312V47.117Z" fill="#4B81AA"/>
<path d="M12.4657 19.8108C9.60323 19.8108 7.13447 17.558 6.80947 14.5364C6.50791 11.7461 8.53759 8.99175 11.3548 8.36214C14.5829 7.64034 17.7814 9.86978 18.2985 13.1663C18.5144 14.483 18.2476 15.8334 17.547 16.969C17.3657 17.2814 17.3376 17.4783 17.6282 17.7111C17.8244 17.8724 18.004 18.053 18.1642 18.2501C18.3207 18.4268 18.4048 18.6562 18.3996 18.8922C18.3944 19.1283 18.3003 19.3537 18.136 19.5234C17.7798 19.8733 17.211 19.9311 16.886 19.5015C16.3048 18.7203 15.7642 18.7688 15.011 19.2515C14.3001 19.703 13.447 19.8296 12.4657 19.8108ZM15.9376 16.1488C16.7189 14.6958 16.7517 13.3709 16.0345 12.0945C15.272 10.7275 14.0626 10.051 12.4642 10.0776C11.6871 10.0885 10.9315 10.3341 10.2965 10.7822C9.66158 11.2302 9.17698 11.8598 8.90635 12.5882C8.33135 14.1505 8.59385 15.6144 9.76416 16.8143C10.9017 17.9829 12.336 18.2313 13.8704 17.7767C14.797 17.5017 14.7876 17.4314 14.0985 16.7393C14.0157 16.6565 13.9298 16.5831 13.8501 16.4909C13.3814 15.9988 13.361 15.5113 13.7782 15.1051C14.1454 14.7489 14.6892 14.777 15.1329 15.2129C15.4048 15.4832 15.6407 15.7957 15.9376 16.1488Z" fill="#DF76A4"/>
<path d="M20.7517 12.6037C20.7517 11.5491 20.7517 10.4961 20.7517 9.44155C20.7517 8.74632 21.1439 8.23544 21.6689 8.22763C22.1939 8.21982 22.6064 8.73382 22.6064 9.4228C22.6064 11.4538 22.6517 13.4848 22.5908 15.5159C22.5564 16.6345 23.0251 17.3766 23.997 17.7734C24.4375 17.9693 24.9234 18.0403 25.4016 17.9786C25.8797 17.9168 26.3316 17.7248 26.7079 17.4235C26.9863 17.2252 27.2102 16.9599 27.3588 16.6521C27.5074 16.3443 27.5759 16.004 27.5579 15.6627C27.5251 13.5755 27.5454 11.4866 27.547 9.39937C27.547 8.68851 27.9376 8.21669 28.497 8.23544C29.0048 8.25106 29.4001 8.74944 29.4017 9.40249C29.4017 11.471 29.3704 13.5395 29.4111 15.608C29.4673 18.4811 26.647 20.1935 24.2736 19.7591C22.3657 19.4092 20.6048 17.7656 20.7454 15.4768C20.8001 14.5191 20.7517 13.5598 20.7517 12.6037Z" fill="#DF77A3"/>
<path d="M43.4641 18.669C43.4641 18.8408 43.4641 19.0111 43.4641 19.183C43.1813 19.6751 42.7625 19.8298 42.1953 19.8219C40.2422 19.7923 38.2891 19.8032 36.3359 19.8219C35.8766 19.8219 35.4578 19.7516 35.2422 19.3126C35.0375 18.9049 35.2031 18.5315 35.4422 18.1674C37.0693 15.6886 38.6891 13.205 40.3016 10.7167C40.4156 10.5418 40.5156 10.3574 40.6766 10.0918H37.1469C36.8547 10.0918 36.5609 10.1059 36.2688 10.0918C35.7406 10.0543 35.286 9.60748 35.3063 9.16847C35.3227 8.92149 35.4315 8.68974 35.611 8.51925C35.7904 8.34877 36.0275 8.25203 36.275 8.24826C37.0359 8.22483 37.7985 8.24045 38.5594 8.24045C39.7125 8.24045 40.8641 8.24045 42.0156 8.24045C42.4844 8.24045 42.9531 8.29201 43.1766 8.75602C43.3828 9.17941 43.2141 9.57468 42.9625 9.95745C41.3125 12.4676 39.6703 14.9834 38.0359 17.505C37.9422 17.6472 37.7781 17.8487 37.8203 17.9534C37.9047 18.1628 38.1625 18.0518 38.3438 18.0534C39.6516 18.0628 40.961 18.0831 42.2688 18.0534C42.825 18.0112 43.211 18.1831 43.4641 18.669Z" fill="#DF76A4"/>
<path d="M33.2922 14.0691C33.2922 15.6314 33.2922 17.1937 33.2922 18.7451C33.2922 19.4013 32.9391 19.8122 32.4016 19.8075C31.8641 19.8028 31.5235 19.395 31.5235 18.7139C31.5235 15.5767 31.5235 12.4396 31.5235 9.30242C31.5235 8.65406 31.8985 8.2213 32.4251 8.22911C32.9516 8.23692 33.2907 8.64625 33.2922 9.32273C33.2954 10.9116 33.2922 12.4896 33.2922 14.0691Z" fill="#DE75A5"/>
<path d="M15.9375 16.1486C15.6344 15.7955 15.3985 15.483 15.1235 15.2112C14.6797 14.7753 14.136 14.7425 13.7688 15.1034C13.3516 15.5096 13.3766 15.9971 13.8406 16.4892C13.9203 16.5736 14.0063 16.6548 14.0891 16.7376C14.7781 17.4297 14.7875 17.5 13.861 17.775C12.3266 18.2296 10.8922 17.9812 9.7547 16.8126C8.59376 15.6143 8.32813 14.1426 8.90626 12.5881C9.17689 11.8596 9.66149 11.2301 10.2964 10.782C10.9314 10.3339 11.687 10.0883 12.4641 10.0774C14.0547 10.0509 15.2766 10.7273 16.0406 12.0944C16.7578 13.3708 16.7281 14.6956 15.9375 16.1486Z" fill="#FEDE7D"/>
</svg>
