<svg width="51" height="50" viewBox="0 0 51 50" fill="none" xmlns="http://www.w3.org/2000/svg">
<path d="M11.4268 18.7393C11.4131 19.6904 11.3997 20.641 11.3867 21.5908C11.2265 21.5693 11.1406 21.4414 11.0381 21.3408C9.62305 19.958 8.20604 18.5791 6.79881 17.1885C6.51888 16.8908 6.13294 16.7154 5.72459 16.7002C5.041 16.6777 4.37012 16.6855 3.68945 16.6172C2.34863 16.4834 1.35937 15.8428 0.630852 14.7383C0.296867 14.2324 0.164063 13.6553 0.00390625 13.0859V3.41797C0.245117 2.53906 0.602534 1.72656 1.29296 1.08301C1.90527 0.512695 2.64258 0.224609 3.42188 0H23.9297C23.9912 0.0976562 24.0957 0.0820309 24.1885 0.106445C25.124 0.354492 25.9072 0.822266 26.5069 1.6084C26.835 2.03809 26.9756 2.46484 26.7314 2.9541C26.498 3.42383 26.0478 3.43555 25.5947 3.42285C24.541 3.39258 23.4795 3.38477 22.4697 3.70508C19.7529 4.56543 18.0752 6.8916 18.0752 9.74512C18.0752 11.6475 18.0752 13.5492 18.0752 15.4502C18.0752 16.2793 17.6582 16.6953 16.8193 16.6973C15.6982 16.6973 14.5732 16.7607 13.4561 16.6787C12.4346 16.6045 11.2617 17.6514 11.4268 18.7393Z" fill="#8CAFFE"/>
<path d="M32.832 43.7529C33.7939 42.3369 35.1319 41.4668 36.7637 40.9971C37.3672 40.8232 37.9493 40.5742 38.5411 40.3584C39.7129 40.0732 40.9043 40.1553 42.0918 40.1309L43.3955 40.3604L45.7021 41.1973C45.7021 41.4248 45.8867 41.5273 46.0156 41.666C47.1357 42.8613 47.7432 44.2666 47.7549 45.9121C47.7637 47.2744 47.7549 48.6377 47.7549 50H31.9346C31.9346 49.2705 31.9561 48.5352 31.919 47.8115C31.8477 46.3701 32.0869 45.0068 32.832 43.7529Z" fill="#636363"/>
<path d="M0.00292969 44.4336C0.269531 43.8584 0.738282 43.6758 1.34668 43.6787C3.57617 43.6875 5.80469 43.6738 8.03418 43.6689H23.8349L23.9326 43.709C24.6308 43.7441 25.3291 43.8066 26.0244 43.6728H26.1406L30.5703 43.708C30.2109 44.6992 29.8867 45.6982 29.8867 46.7695C29.8867 47.6436 29.6729 47.8555 28.792 47.8555H0.00292969V44.4336Z" fill="#FD933C"/>
<path d="M0.00293255 47.8518H28.791C29.6699 47.8518 29.8828 47.6399 29.8857 46.7659C29.8857 45.6916 30.2129 44.6955 30.5693 43.7043C31.3232 43.676 32.0791 43.5803 32.8291 43.7532C32.084 45.0071 31.8447 46.3704 31.918 47.8118C31.9551 48.5403 31.9297 49.2707 31.9336 50.0002H0.683594C0.404321 49.8303 0.169893 49.5959 0 49.3166L0.00293255 47.8518Z" fill="#F17D27"/>
<path d="M44.1515 5.48523C44.9787 5.49109 45.8117 5.38758 46.632 5.54676C48.3663 5.88758 49.4425 6.93738 49.9093 8.63172C49.9347 8.68828 49.9675 8.74116 50.007 8.78894V20.8007C49.8214 21.3505 49.6662 21.912 49.3234 22.3964C48.4747 23.6014 47.3019 24.2011 45.8419 24.2079C42.5753 24.2206 39.3078 24.2079 36.0402 24.2079C35.8449 24.2079 35.6496 24.2186 35.4542 24.2235C35.3283 22.9843 36.4377 21.8993 37.7131 21.9423C40.2306 22.0272 42.7521 21.9696 45.2716 21.9667C46.7443 21.9667 47.4923 20.786 47.4796 19.7655C47.4357 16.3475 47.4796 12.9374 47.4533 9.52332C47.4416 8.12879 46.839 7.00574 45.6828 6.18055C45.2091 5.84754 44.6515 5.74207 44.1515 5.48523Z" fill="#F8C546"/>
<path d="M26.5654 0C27.2812 0.245117 27.9883 0.501953 28.5537 1.04297C29.4278 1.87891 29.9063 2.87891 29.8867 4.10156C29.8789 4.55469 29.8867 5.00781 29.8867 5.46094C27.9873 5.46777 26.0869 5.46094 24.1875 5.48438C22.0088 5.5127 20.1836 7.18164 20.1465 9.30469C20.0889 12.3564 20.1367 15.4102 20.1397 18.4629L20.125 18.7334L20.1016 18.7412H11.4287C11.2637 17.6533 12.4365 16.6064 13.4522 16.6807C14.5684 16.7627 15.6982 16.7012 16.8154 16.6992C17.6543 16.6992 18.0713 16.2812 18.0713 15.4521C18.0713 13.5505 18.0713 11.6488 18.0713 9.74707C18.0713 6.89356 19.749 4.57129 22.4658 3.70703C23.4795 3.38672 24.541 3.39453 25.5908 3.4248C26.0469 3.4375 26.4941 3.4248 26.7275 2.95605C26.9717 2.46777 26.8311 2.04004 26.503 1.61035C25.9033 0.829101 25.1201 0.356445 24.1846 0.108399C24.0918 0.0839844 23.9893 0.0976559 23.9258 0.0019528L26.5654 0Z" fill="#669AF6"/>
<path d="M0.00293064 13.0859C0.163087 13.6553 0.295892 14.2324 0.629876 14.7383C1.35839 15.8428 2.34766 16.4834 3.68848 16.6172C4.37207 16.6855 5.04491 16.6777 5.72362 16.7002C6.13197 16.7154 6.51791 16.8908 6.79784 17.1885C8.20409 18.5791 9.62207 19.958 11.0371 21.3408C11.1348 21.4385 11.2256 21.5693 11.3857 21.5908C11.4834 22.0352 11.3066 22.3574 10.9209 22.5605C10.5078 22.7783 10.1728 22.6113 9.87303 22.3086C9.13963 21.5703 8.32421 20.8955 7.68359 20.084C6.80468 18.9678 5.7451 18.5127 4.35545 18.7324C3.93651 18.7988 3.5127 18.7012 3.10449 18.5957C1.55371 18.1953 0.583973 17.1924 0.112293 15.6826C0.0839729 15.5928 0.112305 15.4873 0.00195312 15.4297L0.00293064 13.0859Z" fill="#679BF6"/>
<path d="M47.757 50C47.757 48.6328 47.7638 47.2744 47.757 45.9121C47.7453 44.2666 47.1378 42.8613 46.0177 41.666C45.8888 41.5273 45.7023 41.4248 45.7042 41.1973C47.9962 41.9434 49.3673 43.5215 49.9035 45.8516C49.923 45.9385 49.8751 46.0527 50.0011 46.0938V49.3164C49.8247 49.5905 49.5916 49.8236 49.3175 50H47.757Z" fill="#4A4A4A"/>
<path d="M20.1378 18.4629C20.1378 15.4102 20.087 12.3564 20.1446 9.30469C20.1847 7.18164 22.007 5.5127 24.1857 5.48438C26.0851 5.45898 27.9855 5.46777 29.8849 5.46094L38.4064 5.47656L44.1515 5.48535C44.6515 5.74219 45.2111 5.84766 45.6837 6.18555C46.84 7.01074 47.4416 8.13867 47.4543 9.52832C47.4826 12.9463 47.4366 16.3564 47.4806 19.7705C47.4933 20.791 46.7452 21.9688 45.2726 21.9717C42.7531 21.9717 40.2316 22.0322 37.714 21.9473C36.4386 21.9043 35.3292 22.9893 35.4552 24.2285C35.4487 25.1055 35.4425 25.9821 35.4367 26.8584C35.215 26.8408 35.1105 26.6572 34.9767 26.5234C33.6994 25.2507 32.4246 23.9756 31.1525 22.6982C30.9239 22.4586 30.6479 22.2692 30.3421 22.142C30.0362 22.0149 29.7072 21.9529 29.3761 21.96C27.4474 21.9404 25.5118 22.1191 23.5909 21.8672C22.0333 21.6631 20.9689 20.7783 20.3888 19.3125C20.3361 19.1777 20.3625 18.9639 20.131 18.9482C20.1203 18.8789 20.1105 18.8096 20.0997 18.7412L20.1232 18.7344C20.2589 18.6504 20.2296 18.5586 20.1378 18.4629Z" fill="#FED564"/>
<path d="M23.835 43.666H8.03419C8.06251 42.2266 7.86134 40.7734 8.19923 39.3525C8.6963 37.2656 9.96584 35.8174 11.9649 35.0322C12.5176 34.8154 13.0615 34.5566 13.6641 34.4902C14.0898 35.251 14.5098 36.0156 14.9424 36.7725C15.6357 37.9873 16.3379 39.1973 17.0644 40.457C17.1289 40.3672 17.1621 40.3301 17.1836 40.29L20.5127 34.4756C20.956 34.543 21.3643 34.7236 21.7822 34.8721C21.7871 35.0996 21.9776 35.1953 22.1084 35.334C23.2041 36.5176 23.8467 37.8838 23.835 39.5264C23.8223 40.9082 23.834 42.2871 23.835 43.666Z" fill="#636363"/>
<path d="M14.5597 34.0752C13.2354 33.0195 12.7237 31.624 12.7911 29.9619C12.8331 28.9287 12.7159 27.8877 13.1534 26.8955C13.8048 25.416 14.9542 24.6104 16.5099 24.3232C16.5099 24.5059 16.6632 24.5078 16.7794 24.5498C18.1309 25.0322 18.9786 25.9912 19.4239 27.335C19.7599 28.3486 19.6192 29.3955 19.6261 30.4287C19.6436 32.335 18.5743 33.8867 16.8107 34.5791C16.684 34.6113 16.5706 34.6823 16.4864 34.7822C15.7638 34.7637 15.1768 34.3799 14.5597 34.0752Z" fill="#FDCBC0"/>
<path d="M42.0918 40.1309C40.9043 40.1553 39.711 40.0732 38.5411 40.3584C37.3594 39.5977 36.7588 38.4873 36.7315 37.1074C36.71 36.04 36.6104 34.9648 36.8125 33.9004C37.1172 32.2969 38.5899 30.9082 40.2412 30.6689C40.3711 30.7285 40.4971 30.7998 40.6318 30.8457C41.7402 31.2363 42.5391 31.9551 43.0733 33.002C43.4531 33.7412 43.4785 34.5195 43.4639 35.3164C43.4473 36.0977 43.4991 36.8789 43.4141 37.6465C43.3047 38.6289 42.7383 39.4111 42.0918 40.1309Z" fill="#FDCBC0"/>
<path d="M20.131 18.9482C20.3625 18.9639 20.3361 19.1777 20.3888 19.3125C20.9689 20.7773 22.0333 21.6631 23.591 21.8672C25.5119 22.1191 27.4474 21.9404 29.3761 21.96C29.7073 21.9529 30.0362 22.0149 30.3421 22.142C30.6479 22.2692 30.9239 22.4586 31.1525 22.6982C32.4207 23.9795 33.6955 25.2546 34.9767 26.5234C35.1105 26.6572 35.215 26.8408 35.4367 26.8584C35.4474 26.9717 35.4621 27.085 35.467 27.1982C35.4875 27.5889 35.3546 27.9043 34.9718 28.0625C34.589 28.2207 34.2804 28.0947 34.0031 27.8154C32.9289 26.7314 31.8351 25.6572 30.7667 24.5645C30.6611 24.4451 30.5303 24.3508 30.3836 24.2883C30.237 24.2258 30.0784 24.1967 29.9191 24.2031C28.0802 24.2227 26.2414 24.1885 24.4035 24.2178C21.8185 24.2588 19.9836 22.1787 20.1173 19.9209C20.1369 19.5986 20.1271 19.2734 20.131 18.9482Z" fill="#F8C647"/>
<path d="M14.5597 34.0752C15.1769 34.3799 15.7638 34.7637 16.4864 34.7822C16.6105 34.8857 16.7599 34.8525 16.9025 34.8623C17.9083 34.9346 18.7833 34.5615 19.6241 34.0664C19.8702 34.3115 20.2618 34.2441 20.5128 34.4785L17.1818 40.293C17.1583 40.333 17.1271 40.3701 17.0626 40.46C16.336 39.2002 15.6339 37.9902 14.9405 36.7754C14.5079 36.0186 14.088 35.2539 13.6622 34.4932C13.9093 34.2393 14.3068 34.3115 14.5597 34.0752Z" fill="#DCF3FD"/>
<path d="M19.6232 34.0664C18.7823 34.5615 17.9073 34.9345 16.9015 34.8623C16.7589 34.8525 16.6085 34.8857 16.4855 34.7822C16.5697 34.6823 16.6831 34.6113 16.8097 34.5791C18.5733 33.8867 19.6417 32.333 19.6251 30.4287C19.6153 29.3955 19.7589 28.3486 19.423 27.3349C18.9777 25.9912 18.13 25.0322 16.7784 24.5498C16.6622 24.5078 16.5089 24.5058 16.5089 24.3232C19.0909 24.0302 20.8653 25.7275 21.1866 27.4755C21.5265 29.331 21.7052 31.2197 20.6359 32.958C20.3693 33.3935 19.9669 33.7021 19.6232 34.0664Z" fill="#F8B3A8"/>
<path d="M23.8351 43.666C23.8351 42.2871 23.8253 40.9082 23.8351 39.5293C23.8468 37.8867 23.2043 36.5205 22.1086 35.3369C21.9806 35.1982 21.7872 35.1025 21.7823 34.875C24.3878 35.6719 26.0792 37.9385 26.1456 40.7402C26.1681 41.7168 26.1456 42.6934 26.1456 43.6699H26.0294C25.3312 43.6611 24.633 43.5898 23.9377 43.7061L23.8351 43.666Z" fill="#4B4B4B"/>
<path d="M42.0919 40.1308C42.7384 39.4111 43.3048 38.6289 43.4123 37.6464C43.4972 36.8779 43.4454 36.0937 43.462 35.3164C43.4796 34.5195 43.4542 33.7412 43.0714 33.0019C42.5353 31.955 41.7365 31.2324 40.63 30.8457C40.4962 30.7998 40.3702 30.7285 40.2394 30.6689C41.254 30.5498 42.2336 30.6201 43.131 31.1777C44.4582 32.0039 45.1964 33.1855 45.2082 34.7558C45.216 35.8086 45.3595 36.8769 45.1046 37.914C44.8498 38.9511 44.3234 39.7978 43.3937 40.3603L42.0919 40.1308Z" fill="#F8B3A8"/>
<path d="M23.9347 43.7059C24.63 43.5897 25.3282 43.661 26.0265 43.6698C25.3312 43.8075 24.6329 43.7411 23.9347 43.7059Z" fill="#636363"/>
<path d="M20.1378 18.4629C20.2296 18.5605 20.2589 18.6504 20.1232 18.7344L20.1378 18.4629Z" fill="#F8C647"/>
</svg>
