<svg width="62" height="55" viewBox="0 0 62 55" fill="none" xmlns="http://www.w3.org/2000/svg">
<path d="M38.8918 1H1V47.2502H38.8918V1Z" fill="white"/>
<path d="M38.8918 1H1V47.2502H38.8918V1Z" stroke="#242C88" stroke-width="2" stroke-miterlimit="10" stroke-linecap="round" stroke-linejoin="round"/>
<path d="M13.259 17.1596H7.68673C7.07377 17.1596 6.57227 16.6581 6.57227 16.0452V10.4729C6.57227 9.85991 7.07377 9.3584 7.68673 9.3584H13.259C13.872 9.3584 14.3735 9.85991 14.3735 10.4729V16.0452C14.3735 16.6581 13.872 17.1596 13.259 17.1596ZM13.1476 28.3043H7.68673C7.07377 28.3043 6.57227 27.8028 6.57227 27.1898V21.6175C6.57227 21.0045 7.07377 20.503 7.68673 20.503H13.259C13.872 20.503 14.3735 21.0045 14.3735 21.6175V27.0784C14.3735 27.747 13.8163 28.3043 13.1476 28.3043ZM13.259 40.0061H7.68673C7.07377 40.0061 6.57227 39.5046 6.57227 38.8917V33.3194C6.57227 32.7064 7.07377 32.2049 7.68673 32.2049H13.259C13.872 32.2049 14.3735 32.7064 14.3735 33.3194V38.8917C14.3735 39.5046 13.872 40.0061 13.259 40.0061Z" fill="#83D689"/>
<path d="M13.259 17.1596H7.68673C7.07377 17.1596 6.57227 16.6581 6.57227 16.0452V10.4729C6.57227 9.85991 7.07377 9.3584 7.68673 9.3584H13.259C13.872 9.3584 14.3735 9.85991 14.3735 10.4729V16.0452C14.3735 16.6581 13.872 17.1596 13.259 17.1596ZM13.1476 28.3043H7.68673C7.07377 28.3043 6.57227 27.8028 6.57227 27.1898V21.6175C6.57227 21.0045 7.07377 20.503 7.68673 20.503H13.259C13.872 20.503 14.3735 21.0045 14.3735 21.6175V27.0784C14.3735 27.747 13.8163 28.3043 13.1476 28.3043ZM13.259 40.0061H7.68673C7.07377 40.0061 6.57227 39.5046 6.57227 38.8917V33.3194C6.57227 32.7064 7.07377 32.2049 7.68673 32.2049H13.259C13.872 32.2049 14.3735 32.7064 14.3735 33.3194V38.8917C14.3735 39.5046 13.872 40.0061 13.259 40.0061Z" stroke="#242C88" stroke-width="2" stroke-miterlimit="10" stroke-linecap="round" stroke-linejoin="round"/>
<path opacity="0.2" d="M38.8918 47.8077V4.90088H10.473C9.86003 4.90088 9.35852 5.40239 9.35852 6.01534V47.8077H38.8918Z" fill="#242C88"/>
<path d="M50.0364 7.68701H12.1447V53.9372H50.0364V7.68701Z" fill="white"/>
<path d="M50.0364 7.68701H12.1447V53.9372H50.0364V7.68701Z" stroke="#242C88" stroke-width="2" stroke-miterlimit="10" stroke-linecap="round" stroke-linejoin="round"/>
<path opacity="0.2" d="M29.976 21.0605H36.6628" stroke="#242C88" stroke-width="2" stroke-miterlimit="10" stroke-linecap="round" stroke-linejoin="round"/>
<path opacity="0.2" d="M29.976 18.2744H43.3496" stroke="#242C88" stroke-width="2" stroke-miterlimit="10" stroke-linecap="round" stroke-linejoin="round"/>
<path d="M24.9609 23.8467H19.3886C18.7756 23.8467 18.2741 23.3451 18.2741 22.7322V17.1599C18.2741 16.5469 18.7756 16.0454 19.3886 16.0454H24.9609C25.5739 16.0454 26.0754 16.5469 26.0754 17.1599V22.7322C26.0754 23.3451 25.5739 23.8467 24.9609 23.8467Z" fill="#83D689"/>
<path d="M20.1131 20.3358L21.7291 21.8403L24.9053 18.6084" stroke="#242C88" stroke-width="2" stroke-miterlimit="10" stroke-linecap="round" stroke-linejoin="round"/>
<path opacity="0.2" d="M29.976 32.7622H36.6628" stroke="#242C88" stroke-width="2" stroke-miterlimit="10" stroke-linecap="round" stroke-linejoin="round"/>
<path opacity="0.2" d="M29.976 29.4189H43.3496" stroke="#242C88" stroke-width="2" stroke-miterlimit="10" stroke-linecap="round" stroke-linejoin="round"/>
<path d="M24.9609 34.9912H19.3886C18.7756 34.9912 18.2741 34.4897 18.2741 33.8767V28.3044C18.2741 27.6914 18.7756 27.1899 19.3886 27.1899H24.8495C25.5182 27.1899 26.0754 27.7472 26.0754 28.4158V33.8767C26.0754 34.4897 25.5739 34.9912 24.9609 34.9912Z" fill="#83D689"/>
<path d="M20.1131 31.5921L21.7291 33.0966L24.9053 29.9204" stroke="#242C88" stroke-width="2" stroke-miterlimit="10" stroke-linecap="round" stroke-linejoin="round"/>
<path opacity="0.2" d="M29.976 43.9067H36.6628" stroke="#242C88" stroke-width="2" stroke-miterlimit="10" stroke-linecap="round" stroke-linejoin="round"/>
<path opacity="0.2" d="M29.976 41.1206H43.3496" stroke="#242C88" stroke-width="2" stroke-miterlimit="10" stroke-linecap="round" stroke-linejoin="round"/>
<path d="M24.9609 46.1357H19.3886C18.7756 46.1357 18.2741 45.6342 18.2741 45.0213V39.4489C18.2741 38.836 18.7756 38.3345 19.3886 38.3345H24.9609C25.5739 38.3345 26.0754 38.836 26.0754 39.4489V45.0213C26.0754 45.6342 25.5739 46.1357 24.9609 46.1357Z" fill="#83D689"/>
<path d="M24.9609 23.8467H19.3886C18.7756 23.8467 18.2741 23.3451 18.2741 22.7322V17.1599C18.2741 16.5469 18.7756 16.0454 19.3886 16.0454H24.9609C25.5739 16.0454 26.0754 16.5469 26.0754 17.1599V22.7322C26.0754 23.3451 25.5739 23.8467 24.9609 23.8467ZM24.9609 34.9913H19.3886C18.7756 34.9913 18.2741 34.4898 18.2741 33.8768V28.3045C18.2741 27.6916 18.7756 27.19 19.3886 27.19H24.8495C25.5182 27.19 26.0754 27.7473 26.0754 28.416V33.8768C26.0754 34.4898 25.5739 34.9913 24.9609 34.9913ZM24.9609 46.1359H19.3886C18.7756 46.1359 18.2741 45.6344 18.2741 45.0215V39.4491C18.2741 38.8362 18.7756 38.3347 19.3886 38.3347H24.9609C25.5739 38.3347 26.0754 38.8362 26.0754 39.4491V45.0215C26.0754 45.6344 25.5739 46.1359 24.9609 46.1359Z" stroke="#242C88" stroke-width="2" stroke-miterlimit="10" stroke-linecap="round" stroke-linejoin="round"/>
<path opacity="0.2" d="M50.0363 23.6235L31.2019 34.7124L24.738 44.4083L36.3284 43.4053L50.0363 35.3254V23.6235Z" fill="#242C88"/>
<path d="M56.9461 19.4446L35.9942 40.3965L25.0167 44.2414L28.8616 33.2639L49.8135 12.312L56.9461 19.4446Z" fill="white"/>
<path d="M49.8307 12.3394L28.8691 33.3018L36.001 40.4334L56.9627 19.4711L49.8307 12.3394Z" fill="#FFC408"/>
<path opacity="0.2" d="M54.8568 17.376L33.8951 38.3384L35.9835 40.4267L56.9451 19.4643L54.8568 17.376Z" fill="#242C88"/>
<path d="M26.6884 39.4492L25.0167 44.13L29.6975 42.4583L26.6884 39.4492Z" fill="#5E61A3"/>
<path d="M56.9461 19.4446L35.9942 40.3965L25.0167 44.2414L28.8616 33.2639L49.8135 12.312L56.9461 19.4446Z" stroke="#242C88" stroke-width="2" stroke-miterlimit="10" stroke-linecap="round" stroke-linejoin="round"/>
<path d="M56.9461 19.4442L60.2895 16.1008C61.2368 15.1536 61.2368 13.649 60.2895 12.7575L56.5003 8.96828C55.5531 8.02099 54.0485 8.02099 53.157 8.96828L49.8136 12.3117L56.9461 19.4442Z" fill="#F3877E"/>
<path d="M56.9461 19.4442L60.2895 16.1008C61.2368 15.1536 61.2368 13.649 60.2895 12.7575L56.5003 8.96828C55.5531 8.02099 54.0485 8.02099 53.157 8.96828L49.8136 12.3117L56.9461 19.4442Z" stroke="#242C88" stroke-width="2" stroke-miterlimit="10" stroke-linecap="round" stroke-linejoin="round"/>
<path d="M39.7833 32.4281L54.4385 17.7729" stroke="#242C88" stroke-width="2" stroke-miterlimit="10" stroke-linecap="round" stroke-linejoin="round"/>
<path d="M33.8766 38.3347L37.2758 34.9355" stroke="#242C88" stroke-width="2" stroke-miterlimit="10" stroke-linecap="round" stroke-linejoin="round"/>
<path d="M51.0783 11.1169L48.1625 14.0327L55.2945 21.1644L58.2102 18.2486L51.0783 11.1169Z" fill="white"/>
<path opacity="0.2" d="M51.0783 11.1169L48.1625 14.0327L55.2945 21.1644L58.2102 18.2486L51.0783 11.1169Z" fill="#242C88"/>
<path d="M51.0783 11.1169L48.1625 14.0327L55.2945 21.1644L58.2102 18.2486L51.0783 11.1169Z" stroke="#242C88" stroke-width="2" stroke-miterlimit="10" stroke-linecap="round" stroke-linejoin="round"/>
</svg>
