<svg width="60" height="58" viewBox="0 0 60 58" fill="none" xmlns="http://www.w3.org/2000/svg">
<path d="M57.4107 54.6455H60V57.1065C59.7891 57.0889 59.5764 57.059 59.3637 57.059H0.636335C0.423637 57.059 0.212697 57.0889 0 57.1065V54.6455H2.70003C2.93382 54.6455 3.16761 54.6684 3.40316 54.6684H18.2832C19.3379 54.6684 20.3926 54.6543 21.4473 54.6473H26.3692C28.754 54.7164 31.1394 54.7164 33.5253 54.6473H38.5545C38.7883 54.6473 39.0221 54.6701 39.2576 54.6701H54.1324C55.2257 54.6701 56.3173 54.6525 57.4107 54.6455Z" fill="#415B6E"/>
<path d="M57.4109 54.6456C56.3176 54.6456 55.2259 54.6667 54.1326 54.6667H39.2578C39.024 54.6667 38.7902 54.6509 38.5547 54.6439C38.5547 45.652 38.5547 36.6613 38.5547 27.6718C38.5547 25.2553 38.5588 22.8371 38.567 20.4172H43.5434L57.3582 20.4014C57.3864 20.5536 57.4052 20.7074 57.4144 20.8619C57.4144 32.1226 57.4133 43.3838 57.4109 54.6456ZM46.5124 26.0528C46.5124 27.8493 46.5083 29.6464 46.5001 31.4441C46.435 31.6198 46.5546 31.648 46.6759 31.648C47.6128 31.648 48.5497 31.648 49.4884 31.648C49.6782 31.648 49.7802 31.5671 49.7784 31.3685C49.7503 29.6335 49.8452 27.8985 49.7257 26.1653C49.7819 25.8313 49.52 25.9473 49.3847 25.9473C48.4706 25.9473 47.5565 25.9473 46.6425 25.9579C46.5651 25.9473 46.5177 25.9702 46.5106 26.0528H46.5124ZM41.1422 26.0528V31.4476C41.1809 31.7728 41.4375 31.6392 41.5993 31.6427C42.3586 31.6568 43.1215 31.6286 43.8844 31.6568C44.2887 31.6726 44.4241 31.5548 44.4118 31.1294C44.3889 29.5474 44.4118 27.9653 44.3995 26.3833C44.3995 26.2426 44.4803 26.0669 44.2993 25.9631L41.253 25.9508C41.1756 25.9491 41.1369 25.9754 41.1405 26.0528H41.1422ZM46.6407 43.668C46.5704 43.6504 46.53 43.668 46.5212 43.7489C46.4403 45.5454 46.4843 47.3419 46.4983 49.1384C46.4649 49.5022 46.7479 49.3528 46.8921 49.3546C47.6936 49.3704 48.4952 49.3423 49.295 49.3704C49.6905 49.3845 49.789 49.2403 49.7855 48.8659C49.7679 47.2645 49.7855 45.6631 49.7749 44.0618C49.7749 43.9352 49.8312 43.784 49.6835 43.6891C48.6675 43.61 47.6532 43.6504 46.6389 43.668H46.6407ZM41.2494 43.668C41.1768 43.6457 41.1434 43.6721 41.1492 43.7471C41.1 45.5805 41.0912 47.4157 41.1492 49.2491C41.2477 49.4337 41.4235 49.3528 41.5641 49.3546C42.3428 49.3634 43.1215 49.3335 43.8967 49.3686C44.3327 49.3862 44.4065 49.2069 44.4012 48.8237C44.3837 47.2505 44.4012 45.6754 44.3907 44.1004C44.3907 43.9598 44.4715 43.784 44.2905 43.6821L41.2494 43.668ZM41.1405 40.3492C41.2424 40.576 41.4463 40.4723 41.601 40.474C42.3621 40.4863 43.1233 40.4582 43.8862 40.4881C44.2975 40.5039 44.4135 40.3703 44.4135 39.9607C44.3924 38.3998 44.4135 36.8388 44.4012 35.2779C44.4012 35.1373 44.4856 34.9632 44.3063 34.856C43.3764 34.8455 42.4448 34.8455 41.5131 34.8191C41.202 34.8103 41.1158 34.9246 41.1194 35.2234C41.1281 36.9338 41.1317 38.6424 41.1387 40.351L41.1405 40.3492ZM49.687 34.8648C48.7343 34.8525 47.7798 34.8472 46.827 34.8226C46.5247 34.8226 46.4755 34.9667 46.4755 35.2181C46.4878 36.9338 46.493 38.6476 46.5018 40.3633C46.6214 40.5584 46.8165 40.4758 46.9782 40.4775C47.7376 40.4881 48.497 40.4617 49.2634 40.4898C49.6694 40.5057 49.7907 40.3773 49.7907 39.9625C49.7679 38.3804 49.7819 36.809 49.7784 35.2322C49.7732 35.1126 49.8329 34.9632 49.6853 34.8665L49.687 34.8648ZM51.8579 40.3475C51.8931 40.3861 51.93 40.4617 51.9652 40.4617C52.9355 40.4723 53.8988 40.4723 54.8761 40.4793C55.08 40.4793 55.1486 40.3721 55.1451 40.1875C55.117 38.4437 55.2119 36.6982 55.0959 34.9544C55.0748 34.9228 55.0537 34.863 55.0326 34.863C54.0435 34.849 53.0527 34.8384 52.0601 34.8314C51.8421 34.8314 51.8245 34.9878 51.8263 35.1548L51.8579 40.3475ZM51.8579 31.4405C51.8386 31.6023 51.9441 31.6427 52.0706 31.6444C52.9847 31.6444 53.8988 31.6444 54.8129 31.6444C55.022 31.6444 55.1539 31.5759 55.1504 31.3474C55.1222 29.6194 55.2259 27.8897 55.0959 26.1618C55.1134 26.0194 55.0537 25.942 54.906 25.942C53.9691 25.942 53.0339 25.942 52.0935 25.942C51.8386 25.942 51.8245 26.109 51.8263 26.2936L51.8579 31.4405ZM51.8579 49.1349C51.8316 49.286 51.9142 49.3528 52.0495 49.3528C52.9812 49.3528 53.9128 49.3528 54.8445 49.3528C55.0765 49.3528 55.1539 49.2333 55.1504 49.0276C55.1222 47.305 55.2224 45.5788 55.0976 43.8561C55.1134 43.6592 54.9834 43.6416 54.8357 43.6416C53.9427 43.6416 53.048 43.6416 52.155 43.6416C51.8896 43.6416 51.8281 43.7735 51.8298 44.0037C51.8368 45.7159 51.8439 47.4268 51.8509 49.1366L51.8579 49.1349Z" fill="#F4C258"/>
<path d="M21.4437 54.6456C20.389 54.6456 19.3343 54.6667 18.2796 54.6667H3.40137C3.16758 54.6667 2.93379 54.6527 2.69824 54.6439C2.69824 43.3844 2.69824 32.1255 2.69824 20.8672C2.70777 20.7142 2.72774 20.5621 2.75801 20.4119C8.77916 20.4119 14.7997 20.4119 20.8197 20.4119C21.0324 20.4119 21.2521 20.4506 21.4402 20.3047L21.4437 54.6456ZM15.9663 40.3457C15.9712 40.384 15.9908 40.4188 16.0211 40.4428C16.0513 40.4668 16.0897 40.478 16.1281 40.474C17.0632 40.474 17.9984 40.474 18.9406 40.474C19.2306 40.474 19.2359 40.2982 19.2359 40.0943C19.2254 38.3822 19.2177 36.6689 19.2131 34.9544C19.2086 34.9158 19.1892 34.8805 19.1589 34.8562C19.1286 34.8318 19.09 34.8204 19.0513 34.8244C18.1179 34.8244 17.1828 34.8244 16.2476 34.8244C15.9593 34.8244 15.947 34.9896 15.9488 35.2023C15.9546 36.9179 15.9605 38.6324 15.9663 40.3457ZM10.6612 34.8595C10.5856 34.8595 10.5593 34.8876 10.5804 34.958V40.2314C10.5364 40.4723 10.6999 40.4758 10.8634 40.4758C11.7423 40.4758 12.6212 40.4758 13.5001 40.4758C13.7901 40.4758 13.8622 40.358 13.8517 40.0926C13.8376 38.3787 13.8323 36.6666 13.8253 34.9527C13.7989 34.8314 13.704 34.8191 13.6056 34.8191L10.6612 34.8595ZM19.2025 26.0598C19.1814 26.0282 19.1621 25.9702 19.141 25.9702C18.1654 25.9596 17.1898 25.9561 16.2142 25.9456C15.9048 25.9456 15.9435 26.16 15.9452 26.3499C15.9452 28.0497 15.9576 29.7477 15.9628 31.4476C15.9628 31.6075 16.0577 31.6462 16.1861 31.6462C17.1019 31.6462 18.0177 31.6462 18.9336 31.6462C19.2254 31.6462 19.2289 31.4704 19.2271 31.2595C19.2189 29.5227 19.2107 27.7895 19.2025 26.0598ZM8.4481 34.958C8.42877 34.9263 8.40943 34.8665 8.38834 34.8648C7.39692 34.8507 6.40609 34.8402 5.41585 34.8331C5.19788 34.8331 5.18206 34.9914 5.18381 35.1566L5.21545 40.3492C5.25061 40.3879 5.28577 40.4635 5.32268 40.4635C6.293 40.474 7.25629 40.474 8.23189 40.4811C8.43756 40.4811 8.50084 40.3703 8.49732 40.1893C8.47095 38.4455 8.56412 36.7 8.4481 34.958ZM10.5804 31.4423C10.5698 31.6023 10.6735 31.6427 10.8001 31.6427C11.7177 31.6427 12.6353 31.6427 13.5511 31.6427C13.8376 31.6427 13.8517 31.4669 13.8499 31.256C13.8394 29.5602 13.8306 27.861 13.8235 26.1583V26.044C13.8235 25.9614 13.7884 25.9385 13.7163 25.9508C12.804 25.9508 11.8917 25.9508 10.9794 25.9262C10.6401 25.9174 10.5522 26.044 10.5557 26.3657C10.5716 28.0673 10.5733 29.7548 10.5804 31.4441V31.4423ZM10.5804 49.1384C10.5593 49.3388 10.6946 49.3563 10.8405 49.3563C11.7352 49.3563 12.63 49.3563 13.5265 49.3563C13.7901 49.3563 13.8534 49.2315 13.8517 49.0048C13.8394 47.2926 13.8341 45.5805 13.8253 43.8684C13.8359 43.6733 13.7005 43.6557 13.5581 43.6557C12.6634 43.6557 11.7704 43.6557 10.8774 43.6557C10.554 43.6557 10.5593 43.8561 10.561 44.0811C10.5669 45.7651 10.5727 47.4514 10.5786 49.1401L10.5804 49.1384ZM15.9786 49.2456C16.0208 49.279 16.063 49.344 16.1052 49.344C17.0386 49.3528 17.9738 49.344 18.9072 49.3599C19.1744 49.3599 19.2324 49.235 19.2306 49.0083C19.2183 47.2962 19.2131 45.584 19.206 43.8719C19.2341 43.675 19.1093 43.6539 18.9582 43.6539C18.0634 43.6539 17.1687 43.6539 16.274 43.6539C16.0138 43.6539 15.94 43.7682 15.9435 44.0055C15.9576 45.7493 15.9646 47.4983 15.9769 49.2474L15.9786 49.2456ZM8.44459 43.8649C8.46392 43.668 8.3356 43.6487 8.18619 43.6487C7.29321 43.6487 6.40023 43.6487 5.5055 43.6487C5.24006 43.6487 5.1803 43.7823 5.18206 44.0108C5.1926 45.7217 5.20198 47.4309 5.21018 49.1384C5.18206 49.2913 5.26819 49.3563 5.40354 49.3563C6.34047 49.3563 7.27739 49.3563 8.21607 49.3563C8.41646 49.3563 8.49732 49.2491 8.49556 49.0663C8.47271 47.3331 8.56939 45.5981 8.44459 43.8649ZM5.20842 31.4423C5.19084 31.604 5.29456 31.6444 5.42112 31.6462C6.33519 31.6462 7.24926 31.6462 8.16333 31.6462C8.37252 31.6462 8.5026 31.5759 8.49908 31.3474C8.47096 29.6194 8.57291 27.8915 8.44459 26.1653C8.46217 26.0229 8.40592 25.9438 8.2565 25.9438C7.32133 25.9438 6.38617 25.9438 5.44397 25.9438C5.18733 25.9438 5.17502 26.1196 5.17502 26.2954L5.20842 31.4423Z" fill="#F4C258"/>
<path d="M57.3581 20.3925L43.5433 20.4083H38.5669C38.5528 19.2411 38.5036 18.0721 38.544 16.9067C38.5616 16.3565 38.3454 16.0805 37.9059 15.8081C35.4889 14.3174 33.0912 12.7969 30.6865 11.2852L30.7129 10.1162C36.6637 10.1162 42.6152 10.1162 48.5672 10.1162C48.8941 10.1162 49.149 10.1566 49.3793 10.4432C51.9692 13.6776 54.5672 16.8979 57.1735 20.1042C57.2412 20.1962 57.3028 20.2925 57.3581 20.3925Z" fill="#65798A"/>
<path d="M21.4386 20.3047C21.2505 20.4506 21.0307 20.4119 20.818 20.4119C14.7981 20.4119 8.7775 20.4119 2.75635 20.4119C3.41202 19.3696 4.25578 18.4783 5.02043 17.515C6.87143 15.2 8.74879 12.9078 10.6033 10.5962C10.7109 10.4395 10.857 10.313 11.0275 10.229C11.198 10.145 11.3873 10.1062 11.5771 10.1163C17.4459 10.1339 23.3159 10.138 29.1871 10.1286C29.1976 10.5189 29.2076 10.9091 29.217 11.2994C26.756 12.8462 24.3038 14.3984 21.8341 15.9312C21.6981 15.9995 21.5858 16.107 21.5118 16.24C21.4378 16.3729 21.4055 16.525 21.4192 16.6766C21.4456 17.8859 21.435 19.0953 21.4386 20.3047Z" fill="#65798A"/>
<path d="M30.7147 0.831351C31.3563 1.49405 32.1385 1.55558 32.9858 1.38331C33.8735 1.20753 34.6786 0.803226 35.5065 0.463965C36.6859 -0.0207513 37.9863 -0.128816 39.2296 0.154587C39.8518 0.286424 40.2421 0.58174 40.4688 1.20928C41.0577 2.84407 41.0401 4.49467 40.7396 6.16636C40.6103 6.89335 40.3925 7.60176 40.0909 8.27576C39.6409 7.824 39.2876 7.34587 38.8218 6.97321C37.3012 5.74273 35.6682 5.65659 33.9473 6.44586C33.3092 6.73942 32.7502 7.1068 31.9908 6.64274C31.5672 6.38609 31.1119 6.80621 30.7129 7.04352C30.7152 4.97749 30.7158 2.90676 30.7147 0.831351Z" fill="#45C4A1"/>
<path d="M30.7146 0.831467C30.7146 2.90571 30.7146 4.98053 30.7146 7.05594V10.1251L30.6882 11.2941C30.1977 10.9284 29.7073 10.8863 29.2186 11.2941C29.2093 10.9038 29.1993 10.5136 29.1888 10.1234C29.1888 7.03309 29.2028 3.94107 29.2222 0.849045C29.2222 0.59416 29.0675 0.193374 29.3452 0.107241C29.7387 -0.00271012 30.1545 -0.00513819 30.5493 0.10021C30.8481 0.177554 30.6267 0.587128 30.7146 0.831467Z" fill="#DA8C4D"/>
<path d="M29.2169 11.2991C29.7056 10.886 30.196 10.9282 30.6865 11.2991C33.0912 12.8108 35.4889 14.3313 37.9059 15.822C38.3453 16.0945 38.5615 16.3704 38.544 16.9206C38.5035 18.0861 38.5528 19.255 38.5668 20.4222C38.5668 22.841 38.5627 25.2592 38.5545 27.6768C38.5545 36.6675 38.5545 45.6582 38.5545 54.6489H33.5254C33.5254 51.237 33.506 47.825 33.5254 44.4131C33.5254 43.8295 33.3496 43.71 32.8064 43.71C30.8728 43.7434 28.9392 43.7469 27.0161 43.71C26.4466 43.6977 26.3534 43.8998 26.3552 44.4131C26.3745 47.825 26.3552 51.237 26.3552 54.6507H21.4332V20.3097C21.4332 19.1003 21.4332 17.891 21.4157 16.6816C21.402 16.53 21.4342 16.3779 21.5082 16.245C21.5822 16.112 21.6945 16.0045 21.8305 15.9362C24.3038 14.3981 26.7595 12.846 29.2169 11.2991ZM35.8545 30.6493C34.3779 30.6493 32.8996 30.6387 31.4212 30.6264C31.198 30.6264 31.0503 30.6563 31.0556 30.9358C31.0767 32.2384 31.0855 33.5409 31.0978 34.8417C32.6412 35.028 34.1898 34.8786 35.7332 34.9191C35.9986 34.9191 35.9775 34.7257 35.9775 34.5499C35.9775 33.3265 35.9775 32.1024 35.9775 30.8778C35.9758 30.7829 35.9828 30.6792 35.8545 30.6493ZM31.1997 40.8148C31.2261 40.8412 31.2507 40.8904 31.2771 40.8904C32.7748 40.8904 34.2654 40.8904 35.7701 40.9097C36.0988 40.9097 36.0848 40.7076 36.083 40.4826C36.083 39.296 36.083 38.1095 36.083 36.923C36.083 36.8157 36.1199 36.6839 35.967 36.6312C34.4904 36.6312 33.0121 36.6206 31.5337 36.6013C31.2595 36.6013 31.1593 36.6857 31.1646 36.9669C31.1892 38.2484 31.1997 39.5316 31.1997 40.8148ZM23.7712 34.8733C25.2671 34.9911 26.7595 34.8927 28.2607 34.9243C28.5982 34.9243 28.5577 34.6923 28.5595 34.4796C28.5595 33.7202 28.5788 32.9608 28.5595 32.1944C28.5402 31.6811 28.6808 31.1573 28.4698 30.6546C26.9757 30.644 25.4815 30.6405 23.9891 30.6159C23.6147 30.6159 23.6534 30.8374 23.6534 31.0729C23.6534 32.1997 23.6534 33.3247 23.6534 34.4515C23.6551 34.6026 23.5954 34.7767 23.7764 34.8733H23.7712ZM23.8837 40.8605C25.3638 40.9713 26.8456 40.8781 28.3257 40.9097C28.5296 40.9097 28.6773 40.8623 28.6632 40.6232C28.6298 39.3189 28.7405 38.0146 28.6034 36.712C28.5384 36.6786 28.4751 36.6136 28.4118 36.6136C26.9704 36.6136 25.5307 36.6136 24.0893 36.6013C23.7799 36.6013 23.7378 36.7542 23.7378 37.0003C23.7378 38.1693 23.7378 39.3382 23.7378 40.5054C23.7553 40.639 23.7307 40.7832 23.8889 40.8605H23.8837ZM23.6587 20.5945C23.6552 21.8237 24.0161 23.0263 24.6959 24.0504C25.3757 25.0745 26.3437 25.8741 27.4777 26.3483C28.6118 26.8224 29.8609 26.9498 31.0673 26.7143C32.2737 26.4788 33.3832 25.891 34.2557 25.0251C35.1281 24.1593 35.7244 23.0543 35.9691 21.8497C36.2138 20.6452 36.0959 19.3951 35.6305 18.2575C35.165 17.1199 34.3727 16.1457 33.3538 15.4582C32.335 14.7707 31.1351 14.4005 29.906 14.3946C26.538 14.3489 23.678 17.1861 23.6639 20.5945H23.6587Z" fill="#FAD362"/>
<path d="M26.3711 54.6528C26.3711 51.2391 26.3834 47.8271 26.3711 44.4152C26.3711 43.9089 26.4625 43.712 27.032 43.712C28.9656 43.7507 30.8993 43.7472 32.8223 43.712C33.3708 43.7015 33.5466 43.8245 33.5413 44.4152C33.5149 47.8271 33.5307 51.2391 33.5413 54.651C31.1471 54.719 28.7571 54.7196 26.3711 54.6528Z" fill="#FEFEFE"/>
<path d="M49.722 26.1689C49.8415 27.9022 49.7466 29.6371 49.7747 31.3721C49.7747 31.5708 49.6745 31.6516 49.4847 31.6516C48.5478 31.6516 47.6108 31.6516 46.6722 31.6516C46.5509 31.6516 46.4313 31.6217 46.4964 31.4477C47.0606 30.8254 47.3753 30.0414 47.8095 29.3383C48.4669 28.2924 48.9661 27.1533 49.722 26.1689Z" fill="#3A96B3"/>
<path d="M49.6816 43.689C49.8292 43.7839 49.773 43.9351 49.773 44.0616C49.773 45.663 49.773 47.2644 49.7835 48.8658C49.7835 49.2402 49.6886 49.3843 49.2931 49.3703C48.4933 49.3421 47.6917 49.3703 46.8901 49.3545C46.746 49.3545 46.463 49.5021 46.4964 49.1382C46.6722 49.0996 46.7284 48.9501 46.8057 48.8148C47.1942 48.1415 47.6126 47.4859 47.9694 46.7968C48.5144 45.7456 49.2368 44.7929 49.6816 43.689Z" fill="#3A96B3"/>
<path d="M44.2938 25.9736C44.4696 26.0773 44.3922 26.2531 44.394 26.3938C44.394 27.9758 44.3834 29.5578 44.4063 31.1399C44.4063 31.5583 44.278 31.6672 43.8789 31.6672C43.1196 31.6391 42.3567 31.6672 41.5938 31.6532C41.432 31.6532 41.1754 31.7833 41.1367 31.4581C41.7203 30.7549 42.1141 29.9287 42.5535 29.1377C43.1336 28.076 43.8561 27.0986 44.2938 25.9736Z" fill="#3495B7"/>
<path d="M44.2936 43.6836C44.4694 43.7855 44.3938 43.9613 44.3938 44.102C44.3938 45.684 44.3938 47.252 44.4043 48.8252C44.4043 49.2085 44.3358 49.3878 43.8998 49.3702C43.1246 49.335 42.3459 49.3702 41.5672 49.3561C41.4266 49.3561 41.2508 49.4352 41.1523 49.2506C41.815 48.1081 42.4936 46.976 43.1369 45.8211C43.5307 45.1145 44.0317 44.4641 44.2936 43.6836Z" fill="#3495B7"/>
<path d="M49.6848 34.8662C49.8325 34.9629 49.7727 35.1123 49.7727 35.2389C49.7727 36.8209 49.7621 38.3924 49.785 39.9692C49.785 40.3788 49.6637 40.5071 49.2576 40.4965C48.4983 40.4684 47.7389 40.4965 46.9725 40.4842C46.8107 40.4842 46.6209 40.5651 46.4961 40.37C47.6387 38.5752 48.6864 36.7401 49.6848 34.8662Z" fill="#3A96B3"/>
<path d="M44.2972 34.8594C44.473 34.9666 44.3904 35.1406 44.3921 35.2813C44.3921 36.8422 44.3833 38.4032 44.4044 39.9641C44.4044 40.3719 44.2937 40.5055 43.8771 40.4915C43.1159 40.4616 42.3548 40.4915 41.5919 40.4774C41.4372 40.4774 41.2403 40.5794 41.1313 40.3526C41.8345 39.3946 42.3319 38.3153 42.9384 37.301C43.4236 36.5012 43.9351 35.7225 44.2972 34.8594Z" fill="#3093B8"/>
<path d="M44.2939 43.6835C44.0372 44.464 43.531 45.1144 43.1372 45.821C42.4939 46.9759 41.8153 48.1062 41.1526 49.2505C41.0893 47.4171 41.0981 45.582 41.1526 43.7485L41.2528 43.6694L44.2939 43.6835Z" fill="#27A1DA"/>
<path d="M49.6815 43.6887C49.2367 44.7927 48.5143 45.7454 47.9693 46.7966C47.6178 47.4857 47.1941 48.1413 46.8056 48.8146C46.7283 48.9499 46.6738 49.0993 46.4963 49.138C46.4822 47.3415 46.4383 45.545 46.5191 43.7485L46.6386 43.6677C47.6529 43.6501 48.6672 43.6096 49.6815 43.6887Z" fill="#28A1D9"/>
<path d="M44.2936 25.9737C43.8489 27.0987 43.1334 28.0831 42.5516 29.1273C42.1121 29.9183 41.7184 30.7427 41.1348 31.4476V26.0528L41.242 25.9614L44.2936 25.9737Z" fill="#27A1DA"/>
<path d="M49.7219 26.1689C48.966 27.1533 48.4668 28.2924 47.8111 29.333C47.3699 30.0361 47.0623 30.8184 46.498 31.4424C46.498 29.6435 46.5021 27.8465 46.5104 26.0511L46.6387 25.9597C47.5527 25.9597 48.4668 25.9439 49.3809 25.9492C49.5162 25.9509 49.7782 25.8419 49.7219 26.1689Z" fill="#27A1DA"/>
<path d="M44.2973 34.8596C43.9352 35.7227 43.4184 36.5015 42.9455 37.2995C42.3391 38.3138 41.8399 39.3931 41.1385 40.3511C41.1385 38.6425 41.1279 36.9339 41.1104 35.227C41.1104 34.9282 41.193 34.8139 41.5041 34.8227C42.4358 34.8491 43.3674 34.8491 44.2973 34.8596Z" fill="#27A1DA"/>
<path d="M49.6851 34.8666C48.6866 36.7352 47.639 38.5757 46.5034 40.3651C46.4946 38.6495 46.4894 36.9356 46.4771 35.22C46.4771 34.9686 46.5228 34.8174 46.8286 34.8245C47.7778 34.8491 48.7323 34.8543 49.6851 34.8666Z" fill="#27A1DA"/>
<path d="M46.6386 25.9614L46.5103 26.0528C46.5173 25.9702 46.5647 25.9473 46.6386 25.9614Z" fill="#3A96B3"/>
<path d="M41.2476 25.9614L41.1404 26.0528C41.1368 25.9754 41.1755 25.9491 41.2476 25.9614Z" fill="#3495B7"/>
<path d="M41.2476 43.6698L41.1474 43.7489C41.1427 43.6739 41.1761 43.6475 41.2476 43.6698Z" fill="#3495B7"/>
<path d="M46.6386 43.668L46.519 43.7489C46.5278 43.6751 46.5683 43.6505 46.6386 43.668Z" fill="#3A96B3"/>
<path d="M8.44466 26.1689C8.57298 27.8951 8.47103 29.6231 8.49915 31.351C8.49915 31.5795 8.37259 31.6499 8.1634 31.6499C7.24933 31.6499 6.33526 31.6499 5.42119 31.6499C5.29463 31.6499 5.19091 31.6077 5.20849 31.446C5.67608 31.0206 5.8958 30.4352 6.21397 29.9131C6.9716 28.6703 7.60266 27.3572 8.44466 26.1689Z" fill="#3495B7"/>
<path d="M5.21025 49.1367C5.20088 47.4281 5.1915 45.7189 5.18213 44.0092C5.18213 43.7806 5.24014 43.6435 5.50557 43.647C6.40031 43.647 7.29328 43.647 8.18626 43.647C8.33568 43.647 8.464 43.6664 8.44466 43.8633C7.72923 44.8793 7.20012 46.0043 6.54445 47.0555C6.10851 47.7551 5.82901 48.5549 5.21025 49.1367Z" fill="#28A1D9"/>
<path d="M5.21038 49.1365C5.82914 48.5546 6.10863 47.7548 6.54457 47.057C7.20024 46.0023 7.72935 44.8808 8.44479 43.8647C8.56959 45.598 8.47291 47.3329 8.49576 49.0679C8.49576 49.2437 8.41666 49.358 8.21627 49.358C7.27759 49.358 6.34067 49.358 5.40374 49.358C5.26839 49.3544 5.18401 49.2894 5.21038 49.1365Z" fill="#3294B7"/>
<path d="M8.44437 26.1685C7.60237 27.3568 6.97131 28.6699 6.21368 29.9091C5.89551 30.4365 5.67579 31.0166 5.2082 31.442L5.18359 26.3003C5.18359 26.114 5.1959 25.9488 5.45254 25.9488C6.38771 25.9488 7.32287 25.9488 8.26507 25.9488C8.4057 25.947 8.46195 26.0261 8.44437 26.1685Z" fill="#28A1D9"/>
<path d="M15.9771 49.2474C15.9647 47.4984 15.9577 45.7493 15.9419 43.9985C15.9419 43.7595 16.0122 43.647 16.2724 43.647C17.1671 43.6558 18.0618 43.647 18.9566 43.647C19.1077 43.647 19.2326 43.6681 19.2044 43.8667C18.6947 44.4608 18.4116 45.1939 18.0003 45.8478C17.2989 46.9658 16.7276 48.1664 15.9771 49.2474Z" fill="#28A1D9"/>
<path d="M10.5784 49.1402C10.5784 47.4504 10.572 45.7611 10.5591 44.0724C10.5591 43.8474 10.5591 43.6435 10.8755 43.647C11.7685 43.6576 12.6614 43.647 13.5562 43.647C13.6986 43.647 13.8339 43.6646 13.8234 43.8597C13.7636 43.9089 13.6845 43.9476 13.6476 44.0109C12.9972 45.1394 12.3749 46.2855 11.6964 47.3982C11.336 47.9906 11.1427 48.6937 10.5784 49.1402Z" fill="#27A1DA"/>
<path d="M13.8219 26.056V26.1703C13.7465 26.2272 13.6791 26.294 13.6215 26.3689C12.9641 27.5168 12.3313 28.6787 11.6492 29.8107C11.3135 30.3644 11.0902 30.999 10.584 31.442C10.584 29.7527 10.584 28.0652 10.5576 26.3759C10.5576 26.0542 10.642 25.9277 10.9813 25.9365C11.8936 25.9611 12.8059 25.954 13.7182 25.9611L13.8219 26.056Z" fill="#28A1D9"/>
<path d="M8.44798 34.958C8.564 36.7 8.47083 38.4455 8.4972 40.1893C8.4972 40.3651 8.43743 40.4829 8.23177 40.4811C7.26145 40.4811 6.29816 40.4811 5.32256 40.4635C5.28565 40.4635 5.25049 40.3879 5.21533 40.3493C5.59502 40.054 5.72686 39.5934 5.95889 39.2032C6.80265 37.7951 7.6218 36.3731 8.44798 34.958Z" fill="#3093B8"/>
<path d="M8.44788 34.958C7.6217 36.3643 6.80256 37.7952 5.9588 39.2032C5.72676 39.5934 5.59493 40.054 5.21523 40.3493L5.18359 35.1584C5.18359 34.9932 5.19766 34.8332 5.41563 34.835C6.40704 34.842 7.39787 34.8526 8.38812 34.8666C8.40921 34.8666 8.42855 34.9264 8.44788 34.958Z" fill="#27A1DA"/>
<path d="M15.9627 31.4459C15.9627 29.7478 15.9486 28.0498 15.9451 26.3482C15.9451 26.1583 15.9047 25.9404 16.214 25.9439C17.1896 25.9544 18.1652 25.958 19.1408 25.9685C19.1619 25.9685 19.1813 26.0265 19.2024 26.0581C18.5414 27.1937 17.9016 28.3433 17.2125 29.4631C16.8029 30.1275 16.5656 30.9027 15.9627 31.4459Z" fill="#28A1D9"/>
<path d="M10.5806 40.2348V34.9613L10.6614 34.8629L13.6058 34.833C13.7042 34.833 13.7992 34.8453 13.8255 34.9666C12.888 36.5791 11.9464 38.191 11.0007 39.8024C10.897 39.9782 10.8548 40.219 10.5806 40.2348Z" fill="#27A1DA"/>
<path d="M15.9665 40.3455C15.9595 38.6322 15.9513 36.9184 15.9419 35.2039C15.9419 34.9912 15.9524 34.8224 16.2407 34.826C17.1759 34.826 18.1111 34.826 19.0445 34.826C19.0831 34.822 19.1218 34.8334 19.152 34.8578C19.1823 34.8821 19.2018 34.9174 19.2062 34.956C18.6613 35.6943 18.2921 36.5381 17.7999 37.308C17.1759 38.3223 16.7048 39.4121 15.9665 40.3455Z" fill="#28A1D9"/>
<path d="M15.9629 31.4456C16.5659 30.9024 16.8032 30.1272 17.2127 29.4645C17.9018 28.3447 18.5417 27.1951 19.2026 26.0596C19.212 27.7928 19.2202 29.5266 19.2272 31.261C19.2272 31.4684 19.2272 31.6495 18.9337 31.6477C18.0178 31.6477 17.102 31.6477 16.1862 31.6477C16.0578 31.6424 15.9541 31.6055 15.9629 31.4456Z" fill="#3093B8"/>
<path d="M10.5803 31.4439C11.0866 31.0009 11.3098 30.3664 11.6456 29.8126C12.3276 28.6806 12.9604 27.5187 13.6179 26.3708C13.677 26.2949 13.7462 26.2275 13.8235 26.1704C13.8317 27.8673 13.8405 29.5665 13.8499 31.2681C13.8499 31.4791 13.8376 31.6566 13.5511 31.6548C12.6352 31.6548 11.7176 31.6548 10.8001 31.6548C10.6735 31.6425 10.5698 31.6039 10.5803 31.4439Z" fill="#3294B7"/>
<path d="M15.9771 49.2471C16.7276 48.1608 17.2989 46.9619 18.0003 45.8492C18.4116 45.1953 18.7034 44.4623 19.2044 43.8682C19.2044 45.5785 19.2167 47.2907 19.229 49.0028C19.229 49.2366 19.1728 49.3649 18.9056 49.3544C17.9722 49.342 17.037 49.3544 16.1036 49.3385C16.0614 49.3456 16.0192 49.2805 15.9771 49.2471Z" fill="#3093B8"/>
<path d="M10.5788 49.1402C11.1431 48.6849 11.3417 47.9906 11.6986 47.4052C12.3771 46.2925 12.9994 45.1464 13.6498 44.0179C13.6849 43.9546 13.764 43.9159 13.8256 43.8667C13.8256 45.5788 13.8396 47.291 13.8519 49.0031C13.8519 49.2369 13.7904 49.3634 13.5267 49.3546C12.6302 49.3459 11.7355 49.3546 10.8408 49.3546C10.6931 49.3582 10.5577 49.3406 10.5788 49.1402Z" fill="#3294B7"/>
<path d="M15.9663 40.3454C16.7046 39.412 17.1757 38.3133 17.8068 37.3149C18.2919 36.5432 18.6611 35.7012 19.213 34.9629C19.2201 36.6774 19.2277 38.3907 19.2359 40.1028C19.2359 40.3137 19.2359 40.486 18.9406 40.4825C18.0054 40.4719 17.0702 40.4825 16.128 40.4825C16.1083 40.4844 16.0885 40.4824 16.0696 40.4765C16.0507 40.4706 16.0332 40.4609 16.0182 40.4481C16.0031 40.4354 15.9907 40.4197 15.9818 40.402C15.9729 40.3844 15.9676 40.3651 15.9663 40.3454Z" fill="#3093B8"/>
<path d="M10.5805 40.2346C10.8547 40.2188 10.8969 39.978 11.0006 39.7987C11.9381 38.1862 12.8797 36.5742 13.8254 34.9629C13.8254 36.6768 13.8378 38.3889 13.8518 40.1028C13.8518 40.3682 13.7833 40.4895 13.5002 40.486C12.6213 40.4719 11.7424 40.486 10.8635 40.486C10.7 40.479 10.5365 40.4754 10.5805 40.2346Z" fill="#3093B8"/>
<path d="M10.6611 34.8594L10.5803 34.9579C10.5592 34.8876 10.5855 34.8542 10.6611 34.8594Z" fill="#3093B8"/>
<path d="M13.8216 26.0562L13.7144 25.9631C13.7864 25.9508 13.8304 25.9736 13.8216 26.0562Z" fill="#3294B7"/>
<path d="M23.6642 20.5945C23.6782 17.186 26.5382 14.3489 29.9115 14.3946C31.1451 14.3974 32.3502 14.7662 33.3741 15.4543C34.398 16.1424 35.1947 17.1188 35.6633 18.26C36.132 19.4012 36.2514 20.6557 36.0066 21.8648C35.7618 23.0739 35.1637 24.1832 34.2881 25.0522C33.4124 25.9212 32.2986 26.5108 31.0877 26.7464C29.8768 26.982 28.6231 26.8529 27.4856 26.3756C26.348 25.8983 25.3777 25.0942 24.6974 24.0651C24.0171 23.0359 23.6575 21.8281 23.6642 20.5945ZM24.4517 20.6173C24.4454 22.056 25.0109 23.4383 26.0237 24.4601C27.0366 25.4818 28.4139 26.0594 29.8526 26.0657C31.2913 26.072 32.6736 25.5065 33.6954 24.4936C34.7171 23.4808 35.2947 22.1035 35.301 20.6648C35.3361 17.6958 32.8963 15.1768 29.9009 15.1944C29.1864 15.1902 28.4781 15.3275 27.8168 15.5982C27.1555 15.8689 26.5542 16.2678 26.0477 16.7718C25.5412 17.2759 25.1395 17.8751 24.8655 18.5351C24.5916 19.1951 24.451 19.9027 24.4517 20.6173Z" fill="#415A6C"/>
<path d="M28.6084 36.7124C28.7456 38.015 28.6348 39.3193 28.6682 40.6236C28.6682 40.8626 28.5346 40.9136 28.3307 40.9101C26.8506 40.8785 25.3688 40.9716 23.8887 40.8609C24.0645 40.4548 24.4723 40.2966 24.7676 40.0294C26.0367 38.9079 27.3323 37.8163 28.6084 36.7124Z" fill="#3495B7"/>
<path d="M28.4682 30.6616C28.6792 31.1644 28.5385 31.6882 28.5579 32.2015C28.5842 32.9609 28.5579 33.7202 28.5579 34.4867C28.5579 34.6994 28.5965 34.9384 28.259 34.9314C26.7631 34.8998 25.2707 34.9982 23.7695 34.8804C24.2488 34.4374 24.7293 33.9951 25.211 33.5533C26.2867 32.5671 27.4487 31.6952 28.4682 30.6616Z" fill="#3495B7"/>
<path d="M35.9704 36.6313C36.1233 36.6841 36.0846 36.8159 36.0864 36.9231C36.0864 38.1097 36.0864 39.2962 36.0864 40.4828C36.0864 40.7078 36.1022 40.9134 35.7735 40.9099C34.2758 40.8994 32.7852 40.8994 31.2805 40.8906C31.2541 40.8906 31.2295 40.8413 31.2031 40.815C31.9168 40.2191 32.6586 39.6513 33.3406 39.0185C34.209 38.2134 35.1829 37.5243 35.9704 36.6313Z" fill="#3294B7"/>
<path d="M35.8546 30.6494C35.983 30.6793 35.9759 30.783 35.9759 30.8779C35.9759 32.1014 35.9759 33.3254 35.9759 34.55C35.9759 34.7258 35.997 34.9262 35.7316 34.9192C34.1882 34.8788 32.6396 35.0282 31.0962 34.8418C31.3353 34.8137 31.4478 34.6063 31.6042 34.4692C32.1052 34.0385 32.6255 33.6254 33.0984 33.1684C33.9966 32.3035 35.0478 31.6109 35.8546 30.6494Z" fill="#3294B7"/>
<path d="M35.8545 30.6494C35.0477 31.6109 33.9965 32.3035 33.1 33.1684C32.6272 33.6254 32.1068 34.0385 31.6059 34.4691C31.4477 34.6063 31.3369 34.8207 31.0979 34.8418C31.0855 33.541 31.0768 32.2385 31.0557 30.9359C31.0557 30.6564 31.198 30.6248 31.4213 30.6265C32.8996 30.6388 34.378 30.6424 35.8545 30.6494Z" fill="#28A1D9"/>
<path d="M35.9704 36.6315C35.1829 37.5244 34.2125 38.2135 33.3424 39.0186C32.6604 39.6514 31.9186 40.2192 31.2049 40.8151C31.1943 39.5319 31.1891 38.2487 31.168 36.9672C31.168 36.686 31.2629 36.5998 31.5371 36.6016C33.0154 36.6209 34.4938 36.6227 35.9704 36.6315Z" fill="#28A1D9"/>
<path d="M28.4679 30.6618C27.4484 31.6954 26.2864 32.5673 25.2177 33.5464C24.736 33.987 24.2555 34.4294 23.7762 34.8736C23.6005 34.7769 23.655 34.6029 23.655 34.4587C23.655 33.332 23.655 32.2069 23.655 31.0802C23.655 30.8446 23.6163 30.6179 23.9907 30.6231C25.4796 30.6477 26.9808 30.6513 28.4679 30.6618Z" fill="#28A1D9"/>
<path d="M28.6086 36.7122C27.3271 37.8161 26.0369 38.9078 24.773 40.0292C24.4724 40.2964 24.0611 40.4546 23.8941 40.8607C23.7359 40.7869 23.7605 40.6392 23.7587 40.5091C23.7587 39.3419 23.7587 38.173 23.7587 37.004C23.7587 36.7579 23.7939 36.6032 24.1103 36.605C25.5517 36.6173 26.9914 36.605 28.4328 36.6173C28.4803 36.6138 28.5436 36.6788 28.6086 36.7122Z" fill="#28A1D9"/>
<path d="M24.4512 20.6173C24.4505 19.9028 24.5912 19.1951 24.8651 18.5351C25.139 17.8752 25.5408 17.2759 26.0473 16.7718C26.5538 16.2678 27.155 15.8689 27.8163 15.5982C28.4776 15.3275 29.1859 15.1903 29.9005 15.1944C32.8888 15.1769 35.3357 17.6958 35.3005 20.6648C35.2943 22.1035 34.7167 23.4808 33.6949 24.4937C32.6732 25.5065 31.2909 26.072 29.8522 26.0657C28.4134 26.0594 27.0362 25.4819 26.0233 24.4601C25.0104 23.4383 24.4449 22.056 24.4512 20.6173ZM30.4753 21.2449L30.3681 21.1043C30.4437 20.8634 30.4173 20.656 30.1712 20.5242V17.8611H29.8794V20.4363C29.7142 20.4785 29.744 20.6666 29.6403 20.7527H27.6048V21.0076H29.6439C29.7079 21.1122 29.8073 21.1904 29.9241 21.2278C30.0409 21.2652 30.1673 21.2594 30.2802 21.2115L30.4226 21.3046C30.4753 21.3662 30.5263 21.4295 30.5773 21.491L30.688 21.614C30.8132 21.8655 31.0031 22.079 31.2382 22.2328L31.356 22.2943C31.3894 22.2293 31.3472 22.2011 31.2962 22.18C31.1694 21.9303 30.9821 21.7164 30.7513 21.5578L30.63 21.4312C30.579 21.3697 30.528 21.3064 30.4753 21.2449ZM32.3931 23.4316L32.2736 23.3701C32.2402 23.4369 32.2736 23.4633 32.3333 23.4861C32.3597 23.581 32.4283 23.6971 32.5091 23.625C32.59 23.5529 32.474 23.4738 32.3931 23.4316ZM32.0609 23.1715L32.1822 23.2347C32.2138 23.1679 32.1734 23.1398 32.1206 23.117C31.9945 22.8652 31.8048 22.6507 31.5704 22.4947L31.4509 22.4332C31.4175 22.5 31.4509 22.5281 31.5124 22.5509C31.6379 22.8021 31.827 23.016 32.0609 23.1715ZM25.0542 21.0621C25.6079 21.28 25.8874 21.0498 25.8135 20.4925C25.7837 20.2623 25.7116 20.0724 25.4409 20.0531C25.3927 20.0418 25.3428 20.0406 25.2942 20.0495C25.2456 20.0584 25.1993 20.0772 25.1582 20.1047C25.1172 20.1322 25.0822 20.1679 25.0555 20.2095C25.0289 20.2512 25.0111 20.2978 25.0032 20.3466C24.9628 20.6033 25.121 20.7404 25.3671 20.7808C25.4409 20.7931 25.5235 20.7808 25.5165 20.8986C25.4198 21.0955 25.2229 20.9197 25.0471 21.0709L25.0542 21.0621ZM30.2169 24.5461C29.904 24.3703 29.6544 24.4213 29.5296 24.75C29.4189 25.0453 29.4013 25.3811 29.7335 25.5621C29.7781 25.592 29.8289 25.6112 29.8821 25.6184C29.9353 25.6256 29.9894 25.6205 30.0403 25.6035C30.0912 25.5865 30.1375 25.5581 30.1757 25.5205C30.214 25.4829 30.2431 25.437 30.2609 25.3863C30.4366 24.9469 30.0148 24.9293 29.7739 24.801C29.846 24.5584 30.1185 24.7764 30.2169 24.5549V24.5461ZM33.9787 21.3011C34.2248 21.5226 34.4585 21.505 34.6326 21.3222C34.9138 21.0269 34.3478 20.6806 34.6519 20.3624C34.4392 20.2587 34.2318 20.2746 33.8855 20.3853C34.3566 20.547 34.1228 21.0005 34.4761 21.1148C34.3285 21.3222 34.1386 21.1605 33.9787 21.3099V21.3011ZM30.4243 15.8026C30.3077 16.0739 30.1387 16.3194 29.9269 16.5251C29.846 16.6077 29.6562 16.7501 29.8583 16.838C29.969 16.8947 30.0932 16.9197 30.2173 16.9104C30.3413 16.9011 30.4604 16.8578 30.5614 16.7853C30.4788 16.6095 30.3066 16.7026 30.1958 16.6235C30.2573 16.395 30.5579 16.2632 30.4243 15.8026ZM29.4663 16.954C29.5946 16.5216 29.5366 16.1999 29.5401 15.8853C29.5401 15.764 29.4575 15.7095 29.3485 15.7271C29.2835 15.7271 29.1394 15.7481 29.1974 15.8202C29.4417 16.1243 29.2114 16.5339 29.4663 16.954Z" fill="#FCFCFC"/>
<path d="M29.8794 20.438V17.8628H30.1712C30.1712 18.7511 30.1712 19.6388 30.1712 20.5259C30.1191 20.5359 30.0653 20.5331 30.0145 20.5178C29.9637 20.5025 29.9173 20.4751 29.8794 20.438Z" fill="#415B6E"/>
<path d="M25.0475 21.0712C25.211 20.92 25.4131 21.0905 25.5098 20.9077C25.5098 20.7952 25.4342 20.8022 25.3604 20.7899C25.1143 20.7495 24.9561 20.6141 24.9965 20.3557C25.0044 20.3069 25.0222 20.2603 25.0489 20.2187C25.0756 20.177 25.1105 20.1413 25.1516 20.1138C25.1926 20.0863 25.2389 20.0675 25.2875 20.0586C25.3362 20.0497 25.3861 20.0509 25.4342 20.0622C25.7049 20.0815 25.777 20.2714 25.8069 20.5016C25.8877 21.0589 25.6083 21.2891 25.0475 21.0712Z" fill="#65798A"/>
<path d="M30.217 24.5551C30.1185 24.7766 29.8461 24.5551 29.781 24.8065C30.0218 24.9348 30.4349 24.9524 30.2679 25.3919C30.2502 25.4425 30.2211 25.4884 30.1828 25.526C30.1446 25.5637 30.0983 25.5921 30.0474 25.609C29.9965 25.626 29.9423 25.6311 29.8892 25.6239C29.836 25.6167 29.7852 25.5975 29.7406 25.5676C29.4084 25.3919 29.4259 25.0508 29.5367 24.7555C29.6545 24.4356 29.9041 24.3741 30.217 24.5551Z" fill="#65798A"/>
<path d="M29.8798 20.438C29.9181 20.4751 29.9648 20.5023 30.0159 20.5173C30.0671 20.5323 30.1211 20.5346 30.1733 20.5241C30.4177 20.656 30.4441 20.8634 30.3685 21.1042L30.2823 21.2132C30.1694 21.2611 30.0431 21.2669 29.9263 21.2295C29.8095 21.1921 29.71 21.1139 29.646 21.0093V20.7544C29.7444 20.6683 29.7146 20.4802 29.8798 20.438Z" fill="#28A1D9"/>
<path d="M33.9789 21.3101C34.1389 21.1607 34.3305 21.3224 34.4764 21.1238C34.1248 21.0095 34.3568 20.556 33.8857 20.3943C34.2373 20.2835 34.4395 20.2677 34.6522 20.3714C34.3481 20.6896 34.9141 21.0359 34.6328 21.3312C34.4588 21.514 34.225 21.5316 33.9789 21.3101Z" fill="#65798A"/>
<path d="M29.6406 20.7544V21.0093H27.6016V20.7544H29.6406Z" fill="#415A6C"/>
<path d="M30.4247 15.8027C30.5583 16.2633 30.2489 16.3951 30.1961 16.6201C30.3069 16.6992 30.4791 16.599 30.5618 16.7818C30.4607 16.8544 30.3417 16.8977 30.2176 16.907C30.0936 16.9163 29.9694 16.8913 29.8586 16.8346C29.6565 16.7467 29.8463 16.6043 29.9272 16.5217C30.1386 16.317 30.3076 16.0727 30.4247 15.8027Z" fill="#65798A"/>
<path d="M29.4665 16.954C29.2116 16.5339 29.4331 16.1243 29.1976 15.8202C29.1395 15.7481 29.2837 15.734 29.3487 15.727C29.4577 15.7165 29.5421 15.7639 29.5403 15.8852C29.5368 16.1999 29.5948 16.5251 29.4665 16.954Z" fill="#65798A"/>
<path d="M31.5725 22.502C31.8059 22.6585 31.9949 22.8729 32.1209 23.1242C32.0998 23.1418 32.0805 23.1611 32.0611 23.1805C31.8276 23.024 31.6386 22.8096 31.5127 22.5582L31.5725 22.502Z" fill="#DA8C4D"/>
<path d="M30.7532 21.5581C30.9837 21.7178 31.1709 21.9322 31.2981 22.1821L31.2401 22.2349C31.006 22.0831 30.8162 21.872 30.6899 21.6231L30.7532 21.5581Z" fill="#DA8C4D"/>
<path d="M32.3933 23.4302C32.4741 23.4741 32.5972 23.5444 32.5093 23.6253C32.4214 23.7062 32.3599 23.5814 32.3335 23.4864C32.3546 23.4688 32.3739 23.4495 32.3933 23.4302Z" fill="#DA8C4D"/>
<path d="M30.5792 21.493L30.4263 21.3066C30.4421 21.2855 30.4579 21.2645 30.4755 21.2451C30.5282 21.3066 30.5792 21.3699 30.6319 21.4332L30.5792 21.493Z" fill="#DA8C4D"/>
<path d="M31.2982 22.1821C31.3492 22.2032 31.3914 22.2313 31.358 22.2964L31.2402 22.2349L31.2982 22.1821Z" fill="#DA8C4D"/>
<path d="M30.6898 21.6228L30.5791 21.4997L30.6318 21.4399L30.7531 21.5647L30.6898 21.6228Z" fill="#DA8C4D"/>
<path d="M30.2822 21.2135L30.3684 21.1045L30.4756 21.2451C30.458 21.2645 30.4422 21.2855 30.4264 21.3066L30.2822 21.2135Z" fill="#DA8C4D"/>
<path d="M32.1208 23.1172C32.1735 23.14 32.214 23.1682 32.1823 23.235L32.061 23.1734C32.0786 23.1541 32.0997 23.1348 32.1208 23.1172Z" fill="#DA8C4D"/>
<path d="M31.5124 22.5509C31.4596 22.528 31.4175 22.4999 31.4509 22.4331L31.5704 22.4946C31.5511 22.514 31.5317 22.5315 31.5124 22.5509Z" fill="#DA8C4D"/>
<path d="M32.3334 23.4861C32.2824 23.4633 32.2402 23.4369 32.2736 23.3701L32.3932 23.4316L32.3334 23.4861Z" fill="#DA8C4D"/>
</svg>
