<svg width="57" height="47" viewBox="0 0 57 47" fill="none" xmlns="http://www.w3.org/2000/svg">
<path d="M0.153809 2.92794C0.377696 2.44776 0.538249 1.92487 0.837257 1.49771C1.42644 0.65077 2.29548 0.232454 3.32801 0.172063C3.51066 0.161752 3.69625 0.172063 3.88037 0.172063H52.9751C55.4084 0.172063 56.7149 1.48446 56.7149 3.92954C56.7149 16.9622 56.7149 29.9953 56.7149 43.0289C56.7149 44.8759 55.6323 46.2296 53.9163 46.5227C53.6063 46.5638 53.2935 46.5791 52.981 46.5684C36.7275 46.5684 20.4731 46.5757 4.21766 46.5905C2.19972 46.5905 0.728261 45.8687 0.158232 43.8081L0.153809 2.92794ZM2.36323 10.1351V42.8963C2.36323 43.9892 2.72704 44.353 3.8185 44.353H53.0296C54.1564 44.353 54.5025 43.9995 54.5025 42.861V10.1351H2.36323ZM54.5055 7.87851V3.96048C54.5055 2.67902 54.1976 2.37559 52.9029 2.37559H4.35465C2.52378 2.37559 2.36323 2.53319 2.36323 4.34492V7.87998L54.5055 7.87851Z" fill="white"/>
<path d="M52.2945 18.8487C52.2798 19.7443 51.8173 20.6163 51.0513 21.3837C47.4514 24.9659 43.8589 28.5559 40.2738 32.1539C38.6344 33.7932 37.0039 35.4415 35.3468 37.0632C35.0589 37.3421 34.715 37.5565 34.3378 37.6921C32.7971 38.2356 31.2446 38.7232 29.6907 39.2535C29.181 39.4258 28.7185 39.4435 28.3149 39.0296C27.9113 38.6157 27.9511 38.1841 28.1176 37.6966C28.6567 36.1146 29.1707 34.5238 29.7216 32.9463C29.8265 32.6354 29.9985 32.3512 30.2254 32.1141C35.528 26.7948 40.8355 21.4848 46.1479 16.1842C47.2747 15.0603 48.621 14.7761 50.1042 15.3638C51.4402 15.8925 52.296 17.2138 52.2945 18.8487ZM35.7106 33.4692L45.9814 23.1998L44.1948 21.419L33.9548 31.6604C34.5234 32.2437 35.1317 32.8727 35.7106 33.4692ZM47.7122 21.5825C48.3941 20.9006 49.0746 20.2569 49.7124 19.5734C49.9522 19.3261 50.0863 18.9951 50.0863 18.6506C50.0863 18.3061 49.9522 17.9752 49.7124 17.7278C49.2234 17.2005 48.4221 17.1018 47.8786 17.6012C47.1539 18.2655 46.497 19.0034 45.8371 19.681L47.7122 21.5825ZM30.9206 36.4593C32.0017 35.9997 33.2434 35.9953 34.1522 35.1881L32.1903 33.2203C31.3801 34.1379 31.3698 35.3781 30.9162 36.4622L30.9206 36.4593Z" fill="white"/>
<path d="M21.3482 17.2949H6.1135C5.92984 17.3026 5.74588 17.2991 5.56262 17.2846C5.29331 17.2578 5.04338 17.1325 4.86073 16.9328C4.67808 16.7331 4.57555 16.473 4.57281 16.2023C4.57007 15.9317 4.66732 15.6696 4.84589 15.4662C5.02447 15.2628 5.27181 15.1325 5.54053 15.1002C5.70551 15.0848 5.87134 15.0803 6.03691 15.087H36.6742C36.8215 15.087 36.9688 15.087 37.116 15.087C37.3935 15.1043 37.6541 15.2261 37.8455 15.4277C38.0369 15.6294 38.1448 15.8961 38.1476 16.1741C38.1504 16.4521 38.0479 16.7208 37.8606 16.9263C37.6733 17.1318 37.4152 17.2587 37.1381 17.2817C36.9555 17.2994 36.7699 17.289 36.5858 17.289L21.3482 17.2949Z" fill="white"/>
<path d="M20.5395 26.1324H11.0493C10.8655 26.1403 10.6814 26.1349 10.4984 26.1162C10.2357 26.081 9.99458 25.952 9.81963 25.7529C9.64469 25.5538 9.54772 25.2981 9.54664 25.033C9.54556 24.768 9.64045 24.5115 9.81377 24.311C9.9871 24.1104 10.2272 23.9794 10.4896 23.9421C10.6725 23.9222 10.8566 23.9163 11.0404 23.9245H30.0208C30.1863 23.9185 30.352 23.9215 30.5172 23.9333C30.7906 23.9567 31.0453 24.0816 31.2313 24.2834C31.4172 24.4852 31.521 24.7492 31.5221 25.0236C31.5232 25.298 31.4216 25.5629 31.2372 25.7662C31.0529 25.9695 30.7992 26.0964 30.526 26.1221C30.3428 26.1366 30.1588 26.14 29.9751 26.1324H20.5395Z" fill="white"/>
<path d="M14.6256 34.9702C11.7003 34.9702 8.77654 34.9702 5.85274 34.9702C5.27976 34.9702 4.84672 34.7729 4.63903 34.2146C4.58553 34.062 4.56672 33.8993 4.58396 33.7385C4.6012 33.5777 4.65408 33.4228 4.73872 33.2849C4.82336 33.1471 4.93764 33.0299 5.07328 32.9418C5.20891 32.8536 5.36247 32.7969 5.5228 32.7756C5.70526 32.7561 5.88894 32.7507 6.07223 32.7593H23.1687C23.316 32.7593 23.4633 32.7593 23.6106 32.7593C23.8985 32.7723 24.1701 32.8969 24.3678 33.1067C24.5655 33.3165 24.6737 33.595 24.6696 33.8832C24.6649 34.1627 24.5529 34.4297 24.3569 34.629C24.1609 34.8283 23.8958 34.9446 23.6165 34.954C23.0273 34.982 22.4381 34.9629 21.8489 34.9643L14.6256 34.9702Z" fill="white"/>
<path d="M12.9732 37.1799C15.3299 37.1799 17.6866 37.1666 20.033 37.1946C20.3718 37.1946 20.8108 37.3139 21.0155 37.5437C21.2202 37.7735 21.3278 38.2419 21.2924 38.5851C21.2453 39.0343 20.8653 39.295 20.4086 39.3716C20.2257 39.3918 20.0415 39.3972 19.8578 39.3878H6.06953C5.93991 39.3878 5.81176 39.3878 5.68361 39.3878C5.04583 39.3481 4.59069 38.9003 4.57743 38.3082C4.57341 38.1604 4.59944 38.0133 4.65397 37.8759C4.70851 37.7384 4.7904 37.6135 4.89468 37.5087C4.99895 37.4039 5.12342 37.3213 5.26056 37.2661C5.39769 37.2108 5.54463 37.184 5.69244 37.1873C6.77653 37.1681 7.86209 37.1873 8.94617 37.1873L12.9732 37.1799Z" fill="white"/>
<path d="M27.997 19.5042C29.8352 19.5042 31.6734 19.5042 33.5117 19.5042C34.3203 19.5042 34.8241 19.9225 34.8373 20.5853C34.8506 21.2481 34.3336 21.7121 33.5014 21.7121C29.7895 21.7121 26.0767 21.7121 22.3629 21.7121C21.5543 21.7121 21.052 21.2953 21.0373 20.631C21.0226 19.9667 21.5396 19.5057 22.3732 19.5042C24.2488 19.4973 26.1234 19.4973 27.997 19.5042Z" fill="white"/>
<path d="M10.5852 21.7138C9.02386 21.7138 7.46205 21.7138 5.89975 21.7138C5.08963 21.7138 4.5903 21.297 4.5741 20.6297C4.5579 19.9625 5.0749 19.5073 5.91153 19.5059H15.2839C16.0911 19.5059 16.5948 19.9256 16.6095 20.5899C16.6243 21.2542 16.1058 21.7123 15.2721 21.7138C13.7088 21.7138 12.1465 21.7138 10.5852 21.7138Z" fill="white"/>
<path d="M10.5367 30.5517C8.99302 30.5517 7.44938 30.5517 5.90574 30.5517C5.09414 30.5517 4.59334 30.1378 4.58009 29.4735C4.56683 28.8092 5.07794 28.3452 5.90574 28.3438H15.2781C16.0882 28.3438 16.5905 28.7591 16.6037 29.4219C16.617 30.0848 16.1029 30.5502 15.2781 30.5517C13.6981 30.5517 12.1176 30.5517 10.5367 30.5517Z" fill="white"/>
<path d="M5.68627 26.1224C5.46754 26.1241 5.25324 26.0606 5.07077 25.94C4.8883 25.8194 4.74594 25.6471 4.66184 25.4452C4.57775 25.2433 4.55574 25.0208 4.59864 24.8064C4.64155 24.5919 4.74741 24.395 4.90271 24.241C5.058 24.0869 5.25569 23.9827 5.47052 23.9415C5.68535 23.9004 5.90759 23.9242 6.10882 24.0099C6.31006 24.0956 6.48117 24.2394 6.60031 24.4229C6.71946 24.6063 6.78122 24.8211 6.77771 25.0398C6.77017 25.3261 6.65249 25.5984 6.44917 25.8001C6.24586 26.0017 5.97259 26.1172 5.68627 26.1224Z" fill="white"/>
<path d="M43.9961 6.23759C43.777 6.23449 43.5638 6.16612 43.3837 6.04124C43.2037 5.91635 43.065 5.74061 42.9853 5.53648C42.9056 5.33235 42.8887 5.10911 42.9365 4.89528C42.9844 4.68145 43.0949 4.48675 43.254 4.33606C43.4131 4.18537 43.6135 4.08554 43.8296 4.04933C44.0457 4.01312 44.2677 4.04217 44.4672 4.13277C44.6667 4.22336 44.8347 4.37139 44.9496 4.55794C45.0646 4.74449 45.1213 4.96107 45.1125 5.18002C45.0978 5.46593 44.9736 5.73521 44.7658 5.93209C44.558 6.12896 44.2823 6.23835 43.9961 6.23759Z" fill="white"/>
<path d="M47.8728 6.2377C47.6536 6.23702 47.4396 6.171 47.2582 6.04809C47.0768 5.92518 46.9361 5.75096 46.8542 5.54769C46.7723 5.34443 46.7529 5.12136 46.7985 4.907C46.844 4.69264 46.9524 4.49673 47.1099 4.34432C47.2673 4.1919 47.4667 4.0899 47.6824 4.05136C47.8981 4.01281 48.1204 4.03948 48.3209 4.12794C48.5214 4.2164 48.691 4.36264 48.8079 4.54797C48.9249 4.7333 48.9839 4.94929 48.9775 5.16834C48.9661 5.45443 48.845 5.72514 48.6393 5.92428C48.4336 6.12341 48.1591 6.23565 47.8728 6.2377Z" fill="white"/>
<path d="M51.7305 4.03867C51.9497 4.03576 52.1647 4.09831 52.3482 4.21831C52.5316 4.33832 52.6751 4.51032 52.7603 4.71231C52.8454 4.91431 52.8684 5.13712 52.8263 5.35225C52.7841 5.56737 52.6787 5.76502 52.5236 5.91993C52.3685 6.07483 52.1707 6.17994 51.9555 6.22181C51.7403 6.26369 51.5176 6.24041 51.3157 6.15498C51.1138 6.06954 50.942 5.92582 50.8222 5.74221C50.7025 5.55859 50.6402 5.34342 50.6434 5.12423C50.6498 4.83808 50.7664 4.56544 50.969 4.36318C51.1715 4.16093 51.4443 4.04467 51.7305 4.03867Z" fill="white"/>
</svg>
