<svg width="50" height="51" viewBox="0 0 50 51" fill="none" xmlns="http://www.w3.org/2000/svg">
<path d="M17.8554 39.9901H2.42606C0.828881 39.9901 0 39.1708 0 37.5888C0 25.8532 0 14.1181 0 2.38338C0 0.833013 0.83852 0 2.39302 0C17.4653 0 32.5384 0 47.6125 0C49.1629 0 50 0.835766 50 2.38889C50 14.1245 50 25.8596 50 37.5943C50 39.1543 49.1739 39.9887 47.6194 39.9901H32.1336C32.1336 41.4179 32.1336 42.7893 32.146 44.1593C32.146 44.2515 32.3222 44.3823 32.442 44.4347C34.1356 45.0666 34.9934 46.2838 35.0017 48.0861C35.0017 48.4125 35.0017 48.7402 35.0017 49.0665C34.9934 49.7549 34.7593 50 34.075 50.0014C32.4228 50.0014 30.7705 50.0014 29.1182 50.0014H16.0572C15.1691 50.0014 14.9763 49.8114 14.986 48.8999C14.9695 48.3502 14.9952 47.8002 15.0631 47.2545C15.2916 45.8776 16.104 44.951 17.412 44.5007C17.7907 44.3713 17.865 44.1923 17.8609 43.8412C17.8471 42.5883 17.8554 41.3339 17.8554 39.9901ZM48.5598 32.8303V2.49078C48.5598 1.57928 48.4014 1.42782 47.4583 1.42782C32.4714 1.42782 17.4841 1.42782 2.49628 1.42782C1.5724 1.42782 1.41818 1.58203 1.41818 2.51143V32.8248L48.5598 32.8303ZM48.5598 34.3242H1.42369V37.3892C1.42369 38.4507 1.54761 38.576 2.61194 38.576H47.3729C47.5618 38.582 47.7508 38.5756 47.9388 38.5568C48.312 38.5086 48.546 38.2814 48.5501 37.9082C48.5639 36.7186 48.5515 35.5345 48.5515 34.3187L48.5598 34.3242ZM30.6714 40.0245H19.3245V44.2529H30.6714V40.0245ZM33.5256 48.5474C33.801 46.8635 32.7491 45.678 31.0335 45.7069C26.9386 45.7744 22.8424 45.7248 18.7462 45.7303C17.1077 45.7303 16.1632 46.9061 16.4881 48.5474H33.5256Z" fill="white"/>
<path d="M19.7335 7.76967C20.4412 7.4819 21.1462 7.21892 21.8318 6.90086C21.908 6.8523 21.9723 6.78725 22.02 6.71051C22.0676 6.63377 22.0975 6.54731 22.1072 6.4575C22.1389 5.80486 22.1155 5.15084 22.1224 4.49682C22.1306 3.80838 22.3661 3.56881 23.0614 3.56605C24.3355 3.55871 25.6086 3.55871 26.8809 3.56605C27.6313 3.56605 27.8447 3.79737 27.8529 4.5698C27.8529 5.20592 27.835 5.84341 27.8695 6.47815C27.8853 6.56762 27.9208 6.65246 27.9734 6.72652C28.026 6.80058 28.0945 6.86201 28.1737 6.90636C28.7741 7.19826 29.3895 7.45711 30.0133 7.7022C30.0925 7.72426 30.1757 7.7283 30.2567 7.714C30.3377 7.69971 30.4145 7.66745 30.4814 7.61959C30.9743 7.16522 31.4356 6.67643 31.9133 6.20416C32.3911 5.73189 32.7326 5.725 33.1925 6.17937C34.1343 7.11106 35.071 8.04825 36.0027 8.99096C36.4157 9.41366 36.4157 9.77165 36.0027 10.1957C35.7273 10.478 35.4313 10.7465 35.1504 11.0219C34.8695 11.2972 34.5996 11.5836 34.3449 11.848C34.6423 12.5846 34.9246 13.3199 35.2468 14.0372C35.3005 14.157 35.5222 14.2603 35.6777 14.2658C36.3304 14.2906 36.9858 14.2658 37.6384 14.2782C38.2911 14.2906 38.5527 14.5233 38.5582 15.1759C38.5674 16.4821 38.5674 17.7897 38.5582 19.0986C38.5582 19.7705 38.3241 19.9908 37.6494 19.9991C37.0133 20.0074 36.3758 20.0129 35.7397 19.9991C35.4409 19.9908 35.2908 20.0735 35.1821 20.3819C34.9384 21.0703 34.6313 21.7436 34.3188 22.4816C34.8213 22.9773 35.3611 23.5033 35.8939 24.0375C36.4268 24.5717 36.413 24.887 35.9091 25.3937C35.0113 26.297 34.1109 27.1974 33.2076 28.0952C32.7023 28.5977 32.3677 28.5798 31.8528 28.0814C31.3103 27.5582 30.7513 27.057 30.184 26.5407C29.5396 26.8023 28.8071 27.0845 28.087 27.4081C27.9686 27.4618 27.8722 27.6945 27.8667 27.8473C27.8419 28.5 27.8667 29.1554 27.8529 29.808C27.8392 30.4606 27.6051 30.7071 26.9442 30.7099C25.6362 30.7154 24.3281 30.7154 23.0201 30.7099C22.3647 30.7099 22.132 30.4661 22.1251 29.7956C22.1182 29.1251 22.1444 28.4876 22.1072 27.8349C22.0902 27.7385 22.052 27.6472 21.9953 27.5674C21.9387 27.4876 21.8649 27.4214 21.7795 27.3737C21.1131 27.0625 20.4247 26.7968 19.7376 26.5104C19.224 27.0019 18.6747 27.5141 18.1404 28.0428C17.5787 28.5936 17.2606 28.6101 16.7099 28.0621C15.8085 27.1644 14.9084 26.2639 14.0098 25.3607C13.5458 24.8925 13.554 24.5538 14.0098 24.0829C14.5482 23.5322 15.0838 22.969 15.618 22.4155C15.333 21.7064 15.0452 20.956 14.7216 20.2235C14.6746 20.1607 14.614 20.1093 14.5445 20.0731C14.4749 20.0369 14.398 20.0168 14.3196 20.0143C13.649 19.9922 12.9771 20.0143 12.3066 20.0019C11.6595 19.9922 11.424 19.7692 11.4199 19.1317C11.4089 17.8071 11.4089 16.4826 11.4199 15.158C11.4199 14.5315 11.676 14.2906 12.3052 14.2809C12.9758 14.2727 13.6477 14.2975 14.3182 14.2658C14.4076 14.2523 14.4928 14.2189 14.5676 14.1681C14.6424 14.1174 14.7049 14.0506 14.7506 13.9725C15.0631 13.2841 15.3344 12.5832 15.6207 11.8824C15.1154 11.3564 14.5867 10.7974 14.0483 10.248C13.543 9.7331 13.5334 9.40815 14.0483 8.89595C14.9442 7.99272 15.8443 7.09224 16.7484 6.19452C17.262 5.68507 17.5745 5.69609 18.1019 6.20829C18.6292 6.72049 19.191 7.24921 19.7335 7.76967ZM26.4292 29.2586C26.4292 28.4862 26.4471 27.7812 26.4292 27.0776C26.41 26.5269 26.6812 26.3011 27.1728 26.1304C28.0626 25.8237 28.9358 25.4707 29.7888 25.0729C30.4015 24.7879 30.5998 24.7617 31.0624 25.2257C31.5595 25.7242 32.0469 26.2322 32.5164 26.7128L34.5666 24.664C34.0751 24.1779 33.5546 23.6561 33.0231 23.1494C32.672 22.8121 32.6693 22.4706 32.8703 22.0355C33.2833 21.135 33.6799 20.2222 34.0131 19.2886C34.1921 18.7875 34.4496 18.5575 34.9769 18.5754C35.6764 18.6002 36.3786 18.5823 37.1138 18.5823V15.7074C36.3744 15.7074 35.6571 15.6909 34.9397 15.7074C34.389 15.7239 34.1604 15.4554 33.9869 14.9666C33.6606 14.0496 33.2847 13.1464 32.8758 12.2638C32.6651 11.8081 32.661 11.4597 33.0383 11.11C33.5684 10.6198 34.0833 10.1131 34.5638 9.65186L32.4848 7.57415C32.0139 8.06019 31.5072 8.57514 31.0115 9.09973C30.6604 9.47011 30.3093 9.46185 29.8549 9.24431C28.9916 8.83124 28.1063 8.46086 27.2072 8.13316C26.5724 7.90322 26.4334 7.7917 26.4306 7.11565C26.4306 6.41757 26.4306 5.71949 26.4306 5.01453H23.5571C23.5571 5.75529 23.5571 6.4575 23.5571 7.15971C23.5571 7.79445 23.3946 7.92939 22.8012 8.1428C21.8984 8.46526 21.0124 8.83289 20.1465 9.24431C19.6688 9.47149 19.3135 9.46874 18.95 9.08046C18.4585 8.55449 17.9504 8.04642 17.4685 7.55074L15.4032 9.61606C15.9168 10.1172 16.44 10.6363 16.9728 11.1458C17.3281 11.4845 17.3143 11.8273 17.1105 12.261C16.6975 13.1601 16.3078 14.0758 15.9691 15.0065C15.797 15.4774 15.5629 15.7294 15.0466 15.717C14.3292 15.6991 13.6105 15.717 12.8656 15.717V18.5768C13.5981 18.5768 14.2976 18.5768 14.9984 18.5768C15.6483 18.5768 15.7846 18.7351 15.9939 19.3162C16.3174 20.2167 16.6754 21.1061 17.0844 21.9722C17.3088 22.4444 17.3281 22.8052 16.937 23.1728C16.4111 23.6657 15.8989 24.1738 15.3963 24.6612L17.4492 26.7086C17.949 26.2061 18.4736 25.6884 18.9845 25.1583C19.3245 24.8044 19.6646 24.8127 20.0983 25.0109C20.9988 25.424 21.9158 25.8109 22.8521 26.151C23.3189 26.3231 23.5777 26.5531 23.5626 27.0735C23.5419 27.7909 23.5626 28.5096 23.5626 29.2586H26.4292Z" fill="white"/>
<path d="M22.8673 37.1164V35.7546H27.1136V37.1164H22.8673Z" fill="white"/>
<path d="M25.0068 10.7148C26.2764 10.7164 27.5169 11.0944 28.5717 11.801C29.6265 12.5075 30.4481 13.5109 30.9327 14.6843C31.4174 15.8577 31.5433 17.1484 31.2945 18.3933C31.0457 19.6382 30.4334 20.7815 29.5351 21.6785C28.6367 22.5755 27.4925 23.1861 26.2472 23.433C25.0019 23.6799 23.7114 23.5521 22.5387 23.0657C21.3661 22.5793 20.3639 21.7561 19.659 20.7003C18.954 19.6445 18.5779 18.4034 18.5782 17.1338C18.5749 16.2891 18.739 15.4522 19.061 14.6713C19.383 13.8904 19.8566 13.181 20.4543 12.5842C21.0521 11.9873 21.7622 11.5148 22.5435 11.194C23.3249 10.8731 24.1621 10.7103 25.0068 10.7148ZM20.0046 17.1559C20.0106 18.1435 20.3095 19.1072 20.8633 19.9249C21.4171 20.7427 22.201 21.3779 23.1159 21.75C24.0307 22.1222 25.0354 22.2146 26.0029 22.0156C26.9703 21.8167 27.8569 21.3352 28.5507 20.6323C29.2444 19.9293 29.7141 19.0363 29.9002 18.0663C30.0863 17.0964 29.9806 16.093 29.5964 15.1831C29.2121 14.2733 28.5666 13.4978 27.7416 12.9549C26.9166 12.412 25.949 12.1259 24.9614 12.133C24.3044 12.1335 23.654 12.2644 23.0479 12.5181C22.4418 12.7718 21.8921 13.1433 21.4307 13.611C20.9692 14.0787 20.6052 14.6334 20.3597 15.2428C20.1142 15.8523 19.9921 16.5044 20.0005 17.1614L20.0046 17.1559Z" fill="white"/>
</svg>
