<svg width="60" height="50" viewBox="0 0 60 50" fill="none" xmlns="http://www.w3.org/2000/svg">
<path d="M23.7828 40.5117H1.73621C0.415517 40.5088 0 40.1626 0 39.0637V1.46383C0 0.336149 0.408621 0 1.77759 0H58.2207C59.5914 0 60 0.336149 60 1.46239V39.0622C60 40.1626 59.5845 40.5088 58.2638 40.5088H36.2172L23.7828 40.5117ZM22.7586 34.4581H28.9655C29.0517 34.4581 29.1379 34.4739 29.2224 34.4739C38.5983 34.4739 47.973 34.4783 57.3465 34.4869C57.95 34.4869 57.9293 34.2513 57.9293 33.9008C57.9224 24.5279 57.9224 15.155 57.9293 5.78205C57.9293 5.2965 57.7931 5.15572 57.1914 5.15716C50.5103 5.17583 43.831 5.16865 37.15 5.17009C32.7305 5.17009 28.3126 5.17392 23.8966 5.18158C23.7948 5.03793 23.6879 4.91295 23.5914 4.77504C22.4249 3.06538 20.5217 1.78924 18.2678 1.20532C16.0139 0.621398 13.5779 0.773383 11.4534 1.63047C9.53448 2.39901 8.15345 3.64305 7.12414 5.18158C5.68103 5.18158 4.23966 5.19882 2.79828 5.15859C2.20517 5.14279 2.05517 5.28501 2.05517 5.77774C2.07356 14.7982 2.08046 23.8177 2.07586 32.8363C2.07586 33.3664 1.78621 34.0803 2.20345 34.3806C2.62069 34.6808 3.47759 34.4682 4.13966 34.4581C5.21724 34.4653 6.29483 34.4754 7.37241 34.4754L20.3034 34.4581H22.7586ZM29.931 37.9245H31.6103C33.1293 37.9245 33.1086 37.9245 33.1121 36.6589C33.1121 36.2624 32.9397 36.1863 32.5155 36.192C31.1603 36.2122 29.8034 36.2007 28.4466 36.2007C26.7879 36.2007 26.8017 36.2007 26.8845 37.5726C26.9017 37.8685 27.0328 37.9317 27.3483 37.9274C28.2121 37.9159 29.0741 37.9231 29.9345 37.9245H29.931ZM5.17241 2.5872C5.15517 1.60461 5.31552 1.72528 4.36552 1.72528C3.10345 1.71666 3.10345 1.7224 3.10345 2.422C3.10345 3.44625 3.10345 3.44625 3.97414 3.44768C5.17241 3.44768 5.17241 3.44768 5.17241 2.5872ZM50.6897 2.5872C50.7069 3.56979 50.5483 3.43906 51.5 3.44912C52.7586 3.45774 52.7586 3.44912 52.7586 2.74953C52.7586 1.72815 52.7586 1.72815 51.8845 1.72815C50.6897 1.7224 50.6897 1.7224 50.6897 2.58576V2.5872ZM56.8966 2.5872C56.8793 1.60748 57.0379 1.73964 56.081 1.73246C54.8276 1.72384 54.8276 1.73246 54.8276 2.43636C54.8276 3.45343 54.8276 3.45343 55.7069 3.45486C56.8966 3.44768 56.8966 3.44768 56.8966 2.58002V2.5872Z" fill="#4DCBFE"/>
<path d="M36.2069 43.0947C36.5362 44.4551 37.3052 45.5684 38.7793 46.2953C39.2737 46.513 39.7937 46.6878 40.331 46.8168C41.9517 47.2765 42.7241 48.3697 42.4207 49.7559C42.3897 49.8996 42.3414 49.9886 42.1517 49.9886C42 49.9886 41.85 49.9886 41.7 49.9886C33.9035 49.9886 26.1086 49.9815 18.3121 50.0001C17.7069 50.0001 17.5655 49.8565 17.5776 49.3753C17.6138 47.9387 18.1259 47.2118 19.6845 46.8297C21.9793 46.2652 23.3328 45.0283 23.8017 43.0947H36.2069Z" fill="#4DCBFE"/>
<path d="M36.2069 43.0946H23.7931C23.7931 42.2326 23.7885 41.3707 23.7793 40.5088H36.2138C36.2092 41.3717 36.2069 42.2336 36.2069 43.0946Z" fill="#25B0F9"/>
<path d="M23.9104 5.18311C28.3276 5.18311 32.7455 5.17928 37.1639 5.17162C43.8449 5.17162 50.5242 5.17162 57.2052 5.15869C57.807 5.15869 57.9449 5.30235 57.9432 5.78358C57.9259 15.1555 57.9259 24.5284 57.9432 33.9023C57.9432 34.2528 57.9639 34.4899 57.3604 34.4884C47.9857 34.4712 38.611 34.4669 29.2363 34.4755C29.1501 34.4755 29.0639 34.4654 28.9794 34.4597L32.0621 24.9972H32.4483C34.438 24.9872 35.6414 23.6009 35.007 22.0452C34.9259 21.844 34.7552 21.6673 34.7845 21.4389L37.2087 18.9523C42.9558 18.9523 48.7081 18.9556 54.4656 18.9624C55.3449 18.9624 55.8639 18.5228 55.8656 17.7858C55.8725 15.1292 55.8725 12.4726 55.8656 9.81594C55.8656 9.04739 55.3483 8.62361 54.4173 8.62361C46.4242 8.62361 38.4311 8.62361 30.438 8.62361C29.4707 8.62361 28.9742 9.04308 28.9725 9.85472C28.9725 12.475 28.9725 15.0957 28.9725 17.7169C28.9725 18.5544 29.4707 18.9595 30.4863 18.9638C31.8001 18.9695 33.1138 18.9738 34.4276 18.9767L32.8673 20.6862H31.7742C30.8966 20.6862 30.1276 20.9649 29.7052 21.5754C28.9849 22.6438 28.4299 23.7839 28.0535 24.9685C27.7794 25.1409 27.7087 25.4181 27.5776 25.6566C27.0604 26.5731 26.6225 27.5241 26.0259 28.4147C25.8086 27.5393 25.4916 26.6831 25.0794 25.8577L24.8259 25.2041C24.8259 24.9886 24.8449 24.7731 24.8449 24.5591C24.8449 19.6217 24.8207 14.6858 24.8587 9.74986C24.8535 8.16967 24.7035 6.63689 23.9104 5.18311ZM39.857 29.3054H35.5311C34.1294 29.3054 34.1621 29.3054 34.1225 30.4546C34.1052 30.9502 34.3104 31.045 34.8587 31.0407C37.9156 31.0206 40.9707 31.0321 44.0276 31.0321C45.569 31.0321 45.5518 31.0321 45.5276 29.7493C45.5276 29.3844 45.3639 29.2982 44.9587 29.3011C43.2587 29.3126 41.5518 29.3054 39.857 29.3054ZM44.4501 27.5816H48.2604C49.6725 27.5816 49.6397 27.5816 49.669 26.3835C49.6776 25.9396 49.4966 25.8462 49.0035 25.8491C46.269 25.8663 43.5363 25.8577 40.8018 25.8577C39.2604 25.8577 39.2776 25.8577 39.3001 27.1362C39.3001 27.4982 39.457 27.5916 39.8656 27.5873C41.3949 27.5715 42.9311 27.5801 44.4501 27.5816ZM51.1742 24.1339H54.4673C55.8811 24.1339 55.857 24.1339 55.8794 22.9387C55.8794 22.5077 55.707 22.3971 55.2173 22.4014C52.8276 22.4201 50.4397 22.41 48.0501 22.41C46.507 22.41 46.5225 22.41 46.5449 23.6857C46.5449 24.0434 46.6932 24.1454 47.107 24.1396C48.4587 24.1224 49.8156 24.1324 51.1708 24.1339H51.1742ZM51.7276 31.0292H54.4397C55.8914 31.0292 55.869 31.0292 55.8776 29.8039C55.8776 29.3887 55.7139 29.2925 55.2449 29.2968C53.2018 29.3155 51.157 29.3054 49.1121 29.3054C47.5225 29.3054 47.538 29.3054 47.5794 30.6112C47.5914 30.9488 47.7328 31.0422 48.1139 31.0335C49.3104 31.0192 50.5173 31.0278 51.7242 31.0292H51.7276ZM41.9311 22.41H40.8345C39.2466 22.41 39.2621 22.41 39.3035 23.7158C39.3156 24.052 39.457 24.1468 39.8363 24.1382C40.8897 24.1224 41.9432 24.1382 42.9983 24.1382C44.5776 24.1382 44.5656 24.1382 44.4949 22.8051C44.4794 22.4948 44.3483 22.4014 43.9949 22.41C43.3052 22.4201 42.6156 22.41 41.9276 22.41H41.9311ZM53.7639 27.5816C54.3225 27.5816 54.8811 27.5672 55.4397 27.5816C55.9242 27.5988 55.9345 27.3129 55.8501 27.0845C55.7035 26.678 56.3104 25.9856 55.469 25.8864C54.3725 25.7586 53.2397 25.8563 52.1207 25.8548C51.9087 25.8548 51.7759 25.8922 51.7259 26.1091C51.4535 27.3373 51.6742 27.5787 53.119 27.5787L53.7639 27.5816Z" fill="#F1F9FE"/>
<path d="M23.9104 5.18312C24.7035 6.6369 24.8535 8.16968 24.8414 9.74987C24.8035 14.6858 24.8276 19.6217 24.8276 24.5591C24.8276 24.7731 24.8156 24.9901 24.8087 25.2041C24.4725 24.6711 24.15 24.131 23.7966 23.6067C23.2018 22.7246 22.569 21.8627 21.5966 21.2192C20.8466 20.3572 19.7707 19.8659 18.6225 19.4651C18.3569 19.0773 18.3966 18.6205 18.2207 18.2125C18.0759 17.5239 17.9317 16.8353 17.788 16.1468C18.3052 15.8681 18.8397 15.5908 19.3621 15.3107C20.2242 14.851 20.6949 14.2117 20.6914 13.3455C20.6914 12.2322 20.6656 11.1189 20.7018 10.0084C20.7156 9.57748 20.5569 9.464 20.0518 9.47262C17.2311 9.51715 15.1863 8.48141 13.9673 6.35103C13.8294 6.10969 13.6931 6.06372 13.3794 6.11831C12.5297 6.27112 11.7672 6.65919 11.2162 7.21927C10.6652 7.77935 10.358 8.47842 10.3449 9.20255C10.3276 10.5658 10.3449 11.932 10.3363 13.2938C10.3363 14.229 10.8345 14.897 11.7794 15.3682C12.2759 15.6152 12.7569 15.8867 13.2449 16.1468C13.0989 16.8353 12.9535 17.5239 12.8087 18.2125C12.6363 18.6219 12.6673 19.0744 12.4225 19.4695C11.2656 19.8631 10.1811 20.3515 9.4328 21.2206C9.09441 21.4358 8.79126 21.6869 8.53108 21.9676C7.53453 22.9373 6.97935 24.1224 6.22073 25.2084C6.22073 24.9929 6.20177 24.7775 6.20177 24.5634C6.20177 19.626 6.22591 14.6887 6.18797 9.7513C6.17591 8.17111 6.32418 6.6369 7.11901 5.18169C8.15349 3.64316 9.5328 2.39912 11.4621 1.63201C13.5865 0.774928 16.0226 0.622943 18.2765 1.20686C20.5304 1.79078 22.4335 3.06692 23.6 4.77658C23.7018 4.91449 23.8087 5.04665 23.9104 5.18312Z" fill="#FA8656"/>
<path d="M6.22593 25.2085C6.97766 24.1196 7.53972 22.9373 8.53628 21.9677C8.79646 21.687 9.0996 21.4358 9.438 21.2207C9.48564 21.2776 9.52554 21.3388 9.55697 21.4031C10.0903 22.9622 10.6208 24.5218 11.1483 26.0819C11.3621 26.7111 11.3846 26.7197 11.988 26.3434C13.1202 25.6375 14.2506 24.9303 15.3794 24.2216H15.6552L19.0139 26.3218C19.6621 26.7255 19.6708 26.7212 19.8914 26.0561C19.9035 26.0216 19.9052 25.9842 19.9173 25.9497C20.4966 24.3782 20.9346 22.7721 21.5966 21.2192C22.569 21.8628 23.2018 22.7247 23.7966 23.6068C24.1414 24.1311 24.4725 24.6712 24.8087 25.2042L25.0621 25.8578C24.7639 25.8952 24.7328 26.1236 24.6397 26.2888C23.6052 28.1879 22.5466 30.0841 21.5363 31.9976C21.107 32.8106 20.5708 33.5878 20.2949 34.4555L7.36386 34.4727C6.28628 34.4727 5.20869 34.4627 4.1311 34.4555C4.15177 32.62 4.39613 30.791 4.86041 28.9966C5.1949 27.698 5.74835 26.4655 6.22593 25.2085Z" fill="#FCBE67"/>
<path d="M6.22583 25.2081C5.74825 26.4651 5.19135 27.6976 4.86894 28.9948C4.40465 30.7891 4.16029 32.6181 4.13963 34.4536C3.47756 34.4637 2.6379 34.6892 2.20342 34.3761C1.76894 34.0629 2.06894 33.3662 2.06894 32.8361C2.06894 23.8166 2.06434 14.7971 2.05514 5.77754C2.05514 5.2848 2.20514 5.14259 2.79825 5.15839C4.23963 5.19861 5.68101 5.1785 7.12411 5.18137C6.32928 6.63658 6.18101 8.1708 6.19308 9.75099C6.23101 14.6884 6.20687 19.6257 6.20687 24.5631C6.20687 24.7786 6.21894 24.9926 6.22583 25.2081Z" fill="#F1F9FE"/>
<path d="M32.0552 24.997L28.9655 34.4595H22.7586C23.2034 33.6507 23.6552 32.8434 24.0914 32.0303C24.7362 30.8279 25.3672 29.6212 26.0052 28.416C26.6069 27.5282 27.0396 26.5743 27.5569 25.6578C27.6948 25.4194 27.7586 25.1421 28.0327 24.9697L32.0552 24.997Z" fill="#FCBE67"/>
<path d="M26.0087 28.4145C25.3707 29.6198 24.7397 30.8264 24.0949 32.0288C23.6587 32.8419 23.2069 33.6492 22.7621 34.458H20.3C20.5759 33.5961 21.1121 32.8132 21.5414 32.0001C22.5466 30.0866 23.5983 28.1904 24.6449 26.2913C24.738 26.1232 24.769 25.8948 25.0673 25.8604C25.4776 26.6849 25.7928 27.5402 26.0087 28.4145Z" fill="#FCAD67"/>
<path d="M29.9344 37.9228C29.0724 37.9228 28.2103 37.9157 27.3482 37.9228C27.0327 37.9228 26.9017 37.8639 26.8844 37.568C26.8017 36.1947 26.7879 36.1961 28.4465 36.1961C29.8034 36.1961 31.1603 36.2076 32.5155 36.1875C32.9448 36.1875 33.1137 36.2579 33.112 36.6544C33.112 37.92 33.1293 37.92 31.6103 37.92L29.9344 37.9228Z" fill="#F1F9FE"/>
<path d="M5.17248 2.58727C5.17248 3.44919 5.17248 3.44919 3.9742 3.44919C3.10352 3.44919 3.10352 3.44919 3.10352 2.4235C3.10352 1.72391 3.10352 1.71816 4.36558 1.72678C5.31558 1.73253 5.15524 1.60468 5.17248 2.58727Z" fill="#F1F9FE"/>
<path d="M50.6897 2.58555C50.6897 1.72363 50.6897 1.72363 51.8845 1.72363C52.7587 1.72363 52.7587 1.72363 52.7587 2.74501C52.7587 3.44747 52.7587 3.45322 51.5 3.4446C50.5483 3.43742 50.7069 3.56814 50.6897 2.58555Z" fill="#F1F9FE"/>
<path d="M56.8966 2.58019C56.8966 3.44211 56.8966 3.44211 55.7069 3.44211C54.8276 3.44211 54.8276 3.44211 54.8276 2.42361C54.8276 1.71684 54.8276 1.70534 56.0811 1.71971C57.038 1.73264 56.8794 1.60048 56.8966 2.58019Z" fill="#F1F9FE"/>
<path d="M34.4225 18.9737C33.1087 18.9737 31.7949 18.9694 30.4811 18.9608C29.4656 18.9608 28.9673 18.5514 28.9673 17.7139C28.9673 15.0936 28.9673 12.4729 28.9673 9.85172C28.9673 9.04007 29.4656 8.62061 30.4328 8.62061C38.4259 8.62061 46.419 8.62061 54.4121 8.62061C55.3414 8.62061 55.8587 9.05157 55.8604 9.81293C55.8604 12.4696 55.8604 15.1262 55.8604 17.7828C55.8604 18.5198 55.3431 18.9593 54.4604 18.9593C48.7133 18.9593 42.961 18.956 37.2035 18.9493C38.8897 17.1795 40.5673 15.4039 42.2638 13.6341C43.2535 12.6041 43.2552 12.6285 42.05 11.7925C41.7328 11.5741 41.5742 11.5454 41.3035 11.8413C40.5363 12.6846 39.7259 13.5005 38.9276 14.3251C37.4288 15.8775 35.9271 17.427 34.4225 18.9737Z" fill="#B2E8FE"/>
<path d="M34.4224 18.9739C35.9247 17.4272 37.4259 15.8796 38.9259 14.331C39.7241 13.5064 40.5345 12.6905 41.3017 11.8472C41.5724 11.5513 41.731 11.58 42.0483 11.7984C43.2552 12.6287 43.2552 12.61 42.2621 13.64C40.5655 15.4041 38.8879 17.1796 37.2017 18.9552L34.7776 21.4418C34.1172 21.2292 33.6052 20.7552 32.8621 20.6891L34.4224 18.9739Z" fill="#FBBF69"/>
<path d="M32.862 20.6831C33.6051 20.7492 34.1172 21.2233 34.7775 21.4359C34.7482 21.6643 34.9189 21.841 34.9999 22.0421C35.6344 23.5979 34.431 24.9841 32.4413 24.9942H32.0551L28.0413 24.9654C28.4177 23.7808 28.9727 22.6407 29.693 21.5723C30.1224 20.9618 30.8913 20.6803 31.762 20.6831H32.862Z" fill="#FED3CE"/>
<path d="M39.8569 29.3055C41.5569 29.3055 43.2586 29.3055 44.9586 29.2983C45.3638 29.2983 45.5207 29.3817 45.5276 29.7465C45.5517 31.0294 45.5689 31.0294 44.0276 31.0294C40.9707 31.0294 37.9155 31.0179 34.8586 31.038C34.3103 31.038 34.1052 30.9475 34.1224 30.4519C34.162 29.3026 34.1224 29.3026 35.531 29.3026L39.8569 29.3055Z" fill="#B2E8FE"/>
<path d="M44.4501 27.5815C42.9225 27.5815 41.3949 27.5714 39.8656 27.5815C39.457 27.5815 39.307 27.4924 39.3001 27.1304C39.2777 25.8504 39.2604 25.8519 40.8018 25.8519C43.5363 25.8519 46.2691 25.8605 49.0035 25.8433C49.4932 25.8433 49.6777 25.9338 49.6691 26.3777C49.6466 27.5743 49.6691 27.5757 48.2604 27.5757L44.4501 27.5815Z" fill="#B2E8FE"/>
<path d="M51.1708 24.1337C49.8156 24.1337 48.4587 24.1222 47.1035 24.1337C46.6898 24.1337 46.5484 24.0375 46.5415 23.6798C46.5191 22.4027 46.5035 22.4041 48.0466 22.4041C50.4363 22.4041 52.8242 22.4142 55.2139 22.3955C55.7104 22.3955 55.8828 22.4946 55.8759 22.9328C55.8535 24.1265 55.876 24.128 54.4639 24.128L51.1708 24.1337Z" fill="#B2E8FE"/>
<path d="M51.7241 31.0292C50.5172 31.0292 49.3103 31.0192 48.1034 31.0292C47.7224 31.0292 47.5862 30.9445 47.5689 30.6069C47.5275 29.2997 47.512 29.3011 49.1017 29.3011C51.1465 29.3011 53.1913 29.3112 55.2344 29.2925C55.7034 29.2925 55.8707 29.3844 55.8672 29.7996C55.8586 31.0235 55.881 31.0249 54.4293 31.0249L51.7241 31.0292Z" fill="#B2E8FE"/>
<path d="M41.9277 22.4097C42.6173 22.4097 43.307 22.4198 43.9966 22.4097C44.3415 22.4011 44.4811 22.4945 44.4966 22.8048C44.5673 24.1379 44.5794 24.1379 43.0001 24.1379C41.9449 24.1379 40.8915 24.1264 39.838 24.1379C39.4587 24.1379 39.3208 24.0517 39.3053 23.7155C39.2639 22.4083 39.2484 22.4097 40.8363 22.4097H41.9277Z" fill="#B2E8FE"/>
<path d="M53.7604 27.5799H53.1156C51.6707 27.5799 51.45 27.3385 51.7225 26.1103C51.7707 25.8934 51.9052 25.856 52.1173 25.856C53.2362 25.856 54.369 25.7598 55.4656 25.8876C56.3069 25.9868 55.7 26.6792 55.8466 27.0857C55.9311 27.3141 55.9207 27.6 55.4362 27.5828C54.8776 27.5655 54.319 27.5799 53.7604 27.5799Z" fill="#B2E8FE"/>
<path d="M13.25 16.1467C12.7621 15.8867 12.2811 15.6152 11.7845 15.3681C10.8397 14.8969 10.3328 14.2289 10.3414 13.2938C10.3535 11.9305 10.3414 10.5644 10.35 9.20252C10.3629 8.47898 10.6693 7.78037 11.2193 7.22037C11.7694 6.66037 12.5307 6.27194 13.3793 6.11828C13.6931 6.06369 13.8293 6.10966 13.9673 6.351C15.1862 8.48138 17.2311 9.51137 20.0518 9.47258C20.5569 9.46397 20.7156 9.57745 20.7018 10.0084C20.6656 11.1189 20.6862 12.2322 20.6914 13.3455C20.6914 14.2074 20.2207 14.851 19.3621 15.3107C18.8449 15.598 18.3138 15.868 17.7897 16.1467C17.6697 16.1816 17.5542 16.2263 17.4449 16.2803C16.238 17.0173 15.0311 17.1322 13.7759 16.3565C13.6093 16.2723 13.4332 16.2021 13.25 16.1467Z" fill="#FED3CE"/>
<path d="M21.5966 21.2174C20.9345 22.7703 20.4966 24.3778 19.9173 25.9479C19.9052 25.9824 19.9035 26.0198 19.8914 26.0543C19.6707 26.7194 19.6621 26.7237 19.0138 26.32L15.6552 24.2212C15.6366 24.0586 15.692 23.8961 15.8104 23.7659C16.3655 23.0002 16.9604 22.2517 17.469 21.4674C17.8879 20.8167 18.6121 20.2823 18.6224 19.4663C19.7707 19.8657 20.8466 20.3555 21.5966 21.2174Z" fill="#FEFCF8"/>
<path d="M15.3794 24.2213C14.2495 24.93 13.119 25.6373 11.988 26.3431C11.3845 26.7195 11.3621 26.7108 11.1483 26.0816C10.6196 24.5216 10.0891 22.962 9.55695 21.4028C9.52552 21.3385 9.48562 21.2774 9.43799 21.2204C10.1932 20.3513 11.2707 19.8629 12.4276 19.4707C12.3535 19.7767 12.5121 20.0324 12.6914 20.2795C13.2673 21.0753 13.8828 21.8597 14.4156 22.667C14.7552 23.177 15.2932 23.6051 15.3794 24.2213Z" fill="#FEFCF8"/>
<path d="M15.3793 24.2214C15.2931 23.6052 14.7552 23.1771 14.4189 22.6671C13.8827 21.854 13.2672 21.0754 12.6948 20.2796C12.5224 20.0325 12.35 19.7768 12.431 19.4708C12.6758 19.0758 12.6414 18.6218 12.8172 18.2124C12.9593 18.2455 13.0987 18.2863 13.2345 18.3345C14.1583 18.7375 15.2108 18.8882 16.2431 18.7655C16.9603 18.6807 17.5569 18.3776 18.2241 18.2124C18.3965 18.6204 18.3603 19.0743 18.6258 19.4651C18.6155 20.281 17.8914 20.8154 17.4724 21.4662C16.9638 22.2519 16.3689 23.0004 15.8138 23.7646C15.6954 23.8949 15.6401 24.0574 15.6586 24.22L15.3793 24.2214Z" fill="#FED3CE"/>
<path d="M18.2206 18.2122C17.5534 18.3774 16.9568 18.6805 16.2396 18.7653C15.2073 18.888 14.1548 18.7373 13.231 18.3343C13.0952 18.2861 12.9558 18.2454 12.8137 18.2122C12.9585 17.5236 13.104 16.8351 13.2499 16.1465C13.4301 16.2023 13.6033 16.2725 13.7672 16.3562C15.0172 17.1319 16.2327 17.017 17.4361 16.2801C17.5454 16.2261 17.661 16.1813 17.781 16.1465C17.9304 16.836 18.0769 17.5246 18.2206 18.2122Z" fill="#FAB7AF"/>
</svg>
