<svg width="45" height="50" viewBox="0 0 45 50" fill="none" xmlns="http://www.w3.org/2000/svg">
<path d="M26.0911 49.9999L23.487 48.6705C22.1042 49.9986 20.2083 49.6965 19.2865 47.9687C17.3763 48.2825 16.5325 47.8254 15.8633 46.0989C14.431 46.1458 13.487 45.4999 13.0703 44.0676C11.7995 44.1327 10.8294 43.6405 10.3763 42.3892C9.92317 41.1379 10.612 40.1991 11.4375 39.1744C11.1549 39.1744 10.9688 39.121 10.8411 39.1835C9.8151 39.6848 8.83072 39.6067 7.86718 39.026C7.42056 38.7577 6.96614 38.5051 6.52604 38.2265C5.70833 37.7057 5.47004 36.8215 5.96353 35.9843C8.01648 32.4947 10.0786 29.0112 12.1497 25.5338C12.6549 24.6835 13.5599 24.4648 14.4271 24.953C14.9227 25.2317 15.4123 25.5216 15.8958 25.8228C16.8437 26.4127 17.3281 27.2747 17.2956 28.3892C17.2789 28.5147 17.3041 28.6421 17.3672 28.7518C17.4303 28.8615 17.5278 28.9473 17.6445 28.996C17.9419 29.1668 18.2732 29.2703 18.6149 29.2991C18.9567 29.3279 19.3006 29.2813 19.6224 29.1627C20.0963 28.9921 20.5664 28.8124 21.0313 28.6171C22.2409 28.108 23.418 28.1835 24.5469 28.8476C24.7018 28.9448 24.8771 29.0051 25.059 29.0238C25.241 29.0426 25.4248 29.0192 25.5963 28.9557C26.2018 28.7721 26.8307 28.6666 27.4362 28.4817C28.3168 28.216 29.2641 28.2808 30.1003 28.664C30.5698 28.8864 31.0577 29.0676 31.5586 29.2057C31.9805 29.3046 32.4362 29.2629 32.9349 29.2851C32.6745 28.0898 32.7682 27.0442 33.6211 26.3254C34.3798 25.7151 35.2107 25.2004 36.095 24.7929C36.7956 24.453 37.5547 24.8463 38.0143 25.6197C39.6385 28.3741 41.2669 31.128 42.8997 33.8814C43.2904 34.5533 43.7005 35.2213 44.0911 35.8971C44.6315 36.832 44.4036 37.72 43.4818 38.2773C43.0104 38.565 42.5351 38.8489 42.0495 39.121C41.4323 39.4687 40.7474 39.6549 40.0781 39.4374C39.4349 39.2304 39.0365 39.5611 38.5703 39.8736C39.2422 40.8958 39.3516 41.9322 38.6055 42.927C37.9036 43.8658 36.9323 44.0989 35.7917 43.7851C35.375 45.3385 34.3893 46.1015 32.7109 45.9205C32.5573 46.7629 32.1706 47.4674 31.375 47.8736C30.5794 48.2799 29.8125 48.233 28.9779 47.8437C28.7643 48.9973 28.0365 49.6601 26.9688 49.9908L26.0911 49.9999ZM27.4622 34.8632C26.9961 35.9583 26.2539 36.6796 25.1302 36.9622C23.7083 37.3189 22.7865 36.6093 22.7865 35.1523C22.7865 34.2083 22.7448 33.2616 22.8034 32.3215C22.8372 31.7825 23.0117 31.246 23.1706 30.7239C23.2461 30.4752 23.431 30.2603 23.5729 30.0247C23.3198 29.8779 23.0374 29.7889 22.7459 29.7642C22.4543 29.7394 22.1609 29.7794 21.8867 29.8814C21.319 30.0807 20.7617 30.3033 20.194 30.5155C19.3709 30.8473 18.4556 30.8699 17.6172 30.5794C17.2982 30.4687 16.9948 30.3124 16.6562 30.164C15.1241 32.7534 13.5937 35.338 12.0651 37.9179L12.1328 38.0585C12.333 38.0497 12.5317 38.0192 12.7253 37.9674C13.2176 37.7644 13.7623 37.7257 14.2784 37.8571C14.7945 37.9885 15.2544 38.2829 15.5898 38.6965C15.668 38.7903 15.7526 38.8801 15.8333 38.9713C17.2799 37.7239 19.4583 38.22 20.0547 40.3241C20.9518 40.2486 21.7227 40.5182 22.2995 41.2356C22.8763 41.953 22.9505 42.7642 22.7214 43.6262C23.5768 43.858 24.1992 44.3124 24.5365 45.1067C24.8737 45.901 24.7526 46.6575 24.3685 47.4231C24.9609 47.7695 25.5091 48.1171 26.0846 48.414C26.2891 48.5043 26.5166 48.5288 26.7357 48.4843C26.9221 48.4512 27.0932 48.3597 27.2243 48.223C27.3554 48.0864 27.4396 47.9116 27.4648 47.7239C27.5115 47.5317 27.4958 47.3297 27.4199 47.1471C27.3441 46.9645 27.212 46.8108 27.043 46.7083C26.6211 46.4335 26.1797 46.1874 25.7487 45.927C25.2565 45.6262 25.1068 45.233 25.3281 44.8411C25.5495 44.4491 25.9961 44.3762 26.5143 44.6731C26.599 44.7213 26.6823 44.7721 26.7656 44.8215C27.7174 45.384 28.6654 45.9543 29.6224 46.5142C30.2005 46.8476 30.7708 46.7174 31.0664 46.2109C31.362 45.7044 31.1823 45.1549 30.6237 44.802C30.5273 44.7408 30.4284 44.6848 30.3307 44.6262C29.2812 44.0047 28.2322 43.3832 27.1836 42.7616C26.8542 42.5676 26.6354 42.2734 26.7799 41.9179C26.9009 41.6665 27.1147 41.4718 27.3763 41.3749C27.5599 41.3137 27.8451 41.453 28.0456 41.5702C29.5495 42.4452 31.0404 43.3437 32.543 44.2187C32.7744 44.3659 33.0379 44.4552 33.3112 44.4791C33.7812 44.4882 34.0924 44.2083 34.2344 43.7525C34.3646 43.3189 34.1732 42.8827 33.7135 42.6041C32.22 41.7109 30.7187 40.8293 29.224 39.9426C29.0805 39.8662 28.943 39.7791 28.8125 39.6822C28.4922 39.4218 28.4102 39.0885 28.6237 38.7304C28.8372 38.3723 29.1719 38.2929 29.5521 38.4426C29.6854 38.503 29.8135 38.5745 29.9349 38.6562C31.9635 39.8576 33.9926 41.0581 36.0221 42.2577C36.5925 42.5937 37.1732 42.4739 37.4779 41.9882C37.7825 41.5025 37.6289 40.9023 37.0677 40.5689C33.8919 38.6653 30.7005 36.7799 27.4622 34.8632ZM36.5859 26.121C36.0651 26.4283 35.599 26.6952 35.1419 26.9687C34.2166 27.5234 34.0247 28.2651 34.5664 29.1939C34.8112 29.6145 35.0729 30.0286 35.306 30.4557C35.526 30.8619 35.4245 31.2721 35.082 31.483C34.7396 31.6939 34.3008 31.5846 34.0404 31.1835C33.8997 30.9687 33.78 30.7434 33.6289 30.4973C32.4193 30.9817 31.2773 30.789 30.1562 30.2851C29.881 30.1449 29.5928 30.0319 29.2956 29.9478C28.9375 29.8658 28.5469 29.7668 28.2005 29.832C27.3242 29.9986 26.4596 30.2369 25.5963 30.483C24.9362 30.6692 24.4062 31.1132 24.3607 31.7851C24.2773 33.026 24.3372 34.276 24.3372 35.5234C25.2266 35.6288 25.9818 34.996 26.1315 34.0142C26.3125 32.8228 26.6523 32.6692 27.7044 33.2942L27.7891 33.3437C30.8272 35.1423 33.8654 36.9387 36.9036 38.733C37.0482 38.8176 37.2786 38.8853 37.4141 38.8294C37.707 38.7083 37.9635 38.5012 38.2604 38.3085L37.2799 36.6497C36.8086 35.8515 36.3086 35.0689 35.8828 34.2473C35.826 34.1129 35.7984 33.9679 35.8017 33.822C35.8051 33.6761 35.8394 33.5326 35.9023 33.401C36 33.2252 36.3763 33.1015 36.6029 33.134C36.8294 33.1666 37.0443 33.3945 37.1693 33.5989C37.9102 34.8046 38.6172 36.0299 39.345 37.2447C39.7461 37.914 40.3867 38.233 41.0286 37.9609C41.6927 37.6809 42.3021 37.2682 42.9818 36.8892C40.8229 33.2747 38.7214 29.7265 36.5859 26.121ZM13.5078 26.121C11.3672 29.7356 9.26431 33.2825 7.13541 36.8788C7.65624 37.1939 8.14063 37.4921 8.62891 37.7747C9.50912 38.2825 10.2513 38.0885 10.7812 37.207C11.3841 36.2044 11.9779 35.1952 12.5742 34.1887C13.5677 32.509 14.5664 30.8333 15.5534 29.1497C16.0091 28.3684 15.8971 27.6197 15.2318 27.164C14.6979 26.7916 14.1237 26.4843 13.5078 26.1145V26.121ZM17.4141 39.7655C17.306 39.8254 17.0143 39.8958 16.875 40.0794C16.112 41.0885 15.3698 42.1145 14.6615 43.1601C14.3789 43.5741 14.5312 44.134 14.9219 44.4218C15.3424 44.7343 15.9115 44.7187 16.2357 44.2916C17.0013 43.2851 17.7578 42.2655 18.4492 41.2057C18.8476 40.5741 18.2969 39.7408 17.4154 39.759L17.4141 39.7655ZM20.2266 41.7968C20.1315 41.845 19.8503 41.8984 19.7227 42.0676C18.9414 43.1015 18.1732 44.151 17.444 45.2213C17.1836 45.6119 17.3529 46.1575 17.7253 46.4387C18.0977 46.72 18.7122 46.7356 19.0091 46.3463C19.7904 45.315 20.5716 44.2734 21.2695 43.1796C21.6602 42.5598 21.1016 41.7773 20.2279 41.7903L20.2266 41.7968ZM12.8763 42.5924C12.9701 42.5416 13.2513 42.4726 13.3971 42.2929C13.8186 41.7802 14.2053 41.2399 14.5547 40.6757C14.8151 40.2473 14.6471 39.7148 14.2383 39.4335C14.0465 39.2912 13.8078 39.2272 13.5705 39.2546C13.3333 39.2819 13.1153 39.3985 12.9609 39.5807C12.5456 40.078 12.1691 40.6064 11.8346 41.1614C11.4544 41.8124 11.9596 42.5963 12.8776 42.5859L12.8763 42.5924ZM20.6068 46.9465C20.6263 47.4674 20.8359 47.7838 21.2318 47.9439C21.4188 48.0301 21.6295 48.0503 21.8296 48.0013C22.0296 47.9524 22.2072 47.8372 22.3333 47.6744C22.6251 47.3264 22.8914 46.9578 23.1302 46.5715C23.2559 46.3605 23.2978 46.1101 23.2479 45.8696C23.198 45.6292 23.0597 45.4161 22.8604 45.2726C22.6612 45.1291 22.4153 45.0654 22.1714 45.0943C21.9275 45.1231 21.7033 45.2423 21.543 45.4283C21.2558 45.7798 20.9906 46.1485 20.7487 46.5325C20.682 46.6607 20.6346 46.798 20.6081 46.94L20.6068 46.9465Z" fill="#172F40"/>
<path d="M26.3841 0C27.3268 0.260417 27.9987 0.911458 28.6653 1.58594C30.6888 3.63542 32.7257 5.67187 34.776 7.69531C35.1326 8.02991 35.4144 8.43624 35.6027 8.88756C35.791 9.33888 35.8815 9.82495 35.8685 10.3138C35.8515 14.2839 35.8685 18.2565 35.8606 22.2253C35.8729 22.3875 35.8655 22.5505 35.8385 22.7109C35.7461 23.0872 35.4896 23.3034 35.0989 23.2878C34.9248 23.2913 34.756 23.2281 34.627 23.1112C34.4979 22.9943 34.4185 22.8324 34.4049 22.6589C34.388 22.4971 34.3841 22.3343 34.3932 22.1719V9.86719C34.1927 9.85547 34.0234 9.83594 33.8528 9.83594C32.5664 9.83594 31.2812 9.83594 29.9961 9.83594C27.6367 9.82422 26.0443 8.24089 26.0286 5.88542C26.0195 4.4388 26.0286 2.99219 26.0286 1.47396H3.98566C2.3906 1.47396 1.47002 2.38542 1.47002 3.98307C1.47002 16.7904 1.47002 29.5972 1.47002 42.4036C1.47002 43.9661 2.39581 44.8958 3.95441 44.901C6.34764 44.901 8.73956 44.901 11.1315 44.9089C11.3718 44.8952 11.6115 44.9445 11.8268 45.0521C11.9322 45.1225 12.0166 45.2201 12.071 45.3346C12.1254 45.4491 12.1478 45.5761 12.1358 45.7023C12.1238 45.8285 12.0778 45.9491 12.0028 46.0512C11.9277 46.1534 11.8264 46.2333 11.7096 46.2825C11.5434 46.3456 11.3664 46.3752 11.1888 46.3698C8.73174 46.3698 6.27471 46.388 3.81768 46.3698C1.92706 46.3542 0.446589 45.1497 0.0754952 43.3516C0.0159449 42.9989 -0.00847199 42.6413 0.00258681 42.2839C0.00258681 29.5582 0.00258681 16.8329 0.00258681 4.10807C0.00258681 1.91927 0.949196 0.675781 3.07289 0.071614C3.10024 0.0638015 3.12106 0.0325519 3.1458 0.0130206L26.3841 0ZM33.1002 8.36068L27.5013 2.75391C27.5013 3.70833 27.5013 4.74479 27.5013 5.78255C27.5001 5.96085 27.5088 6.13907 27.5273 6.31641C27.6705 7.51172 28.569 8.32422 29.8099 8.35547C30.7031 8.3776 31.5976 8.35547 32.4922 8.35547L33.1002 8.36068Z" fill="#92210F"/>
<path d="M17.8867 19.44H6.31898C6.17283 19.4485 6.02631 19.4485 5.88016 19.44C5.7069 19.4315 5.54333 19.3575 5.42249 19.2331C5.30165 19.1086 5.23254 18.9429 5.22912 18.7695C5.19787 18.3788 5.40881 18.1184 5.78381 18.0143C5.95951 17.9797 6.13895 17.9678 6.31768 17.9791H29.552C29.7139 17.9676 29.8766 17.976 30.0364 18.0038C30.427 18.1067 30.6523 18.3697 30.6132 18.7851C30.5768 19.1757 30.3385 19.3971 29.9466 19.4361C29.8004 19.444 29.6539 19.444 29.5078 19.4361L17.8867 19.44Z" fill="#92210F"/>
<path d="M17.9375 14.9338H6.36849C6.22265 14.9338 6.07422 14.9416 5.92969 14.9338C5.74067 14.9238 5.56232 14.8432 5.42993 14.7079C5.29754 14.5726 5.22078 14.3925 5.21484 14.2033C5.21484 13.8023 5.52084 13.5002 5.97136 13.4742C6.10157 13.4664 6.23178 13.4742 6.36199 13.4742H29.4987C30.293 13.4742 30.6315 13.702 30.6185 14.2242C30.6042 14.7177 30.2565 14.9442 29.5052 14.9442L17.9375 14.9338Z" fill="#92210F"/>
<path d="M11.9271 8.36069C13.7795 8.36069 15.6324 8.36069 17.4857 8.36069C17.6643 8.35566 17.8432 8.36306 18.0208 8.38283C18.1946 8.39357 18.3573 8.47144 18.4746 8.59998C18.592 8.72851 18.6548 8.89765 18.6497 9.07163C18.6641 9.46226 18.4466 9.71226 18.0638 9.8021C17.9529 9.82514 17.8398 9.83519 17.7266 9.83205C13.8733 9.83205 10.0208 9.83205 6.16926 9.83205C6.00911 9.83205 5.78775 9.85158 5.70052 9.76043C5.5039 9.556 5.23827 9.27866 5.25389 9.04819C5.26952 8.81772 5.5664 8.56903 5.79556 8.40757C5.92577 8.31252 6.17317 8.36199 6.36718 8.36199C8.22048 8.35592 10.0738 8.35548 11.9271 8.36069Z" fill="#92210F"/>
</svg>
