<svg width="60" height="60" viewBox="0 0 60 60" fill="none" xmlns="http://www.w3.org/2000/svg">
<path d="M21.2769 59.988L21.2905 57.4615C21.3026 54.3249 23.341 52.2775 26.4939 52.2684C30.6221 52.2564 34.7503 52.2684 38.8801 52.2684H39.6634V48.4463H27.2137C27.0209 47.4713 27.131 46.4609 27.5292 45.5498C27.9274 44.6388 28.5949 43.8702 29.4426 43.3466C30.2952 42.8505 31.2697 42.6006 32.2568 42.625C36.9158 42.625 41.5763 42.6039 46.2353 42.637C47.1048 42.637 47.9728 42.851 48.9285 42.9775L49.2793 40.7734C46.5967 39.9448 45.6062 38.9249 45.4989 36.9362C45.4097 35.2534 46.441 33.9035 48.5111 33.0523C47.4584 29.5203 45.4598 26.3406 42.7301 23.8548C40.9261 25.6536 39.1402 27.4359 37.2863 29.2784L39.1205 30.9929L34.8864 35.2112L22.0163 22.3889L26.2277 18.2323L27.9304 20.108L41.5839 6.5038L43.4332 8.49999L46.9249 4.96561L46.1098 4.11893L50.424 0L57.4556 6.93015L53.0824 11.0626L52.3521 10.3681L48.8514 13.8513L50.7643 15.5687L48.1467 18.1299C57.7868 28.3052 59.6392 39.6194 53.7841 52.2338C54.3632 52.2654 55.0029 52.2805 55.6365 52.3392C56.784 52.432 57.8581 52.9389 58.6572 53.7647C59.4562 54.5904 59.9253 55.6783 59.9764 56.8242C60.0294 57.8788 59.9764 58.9334 59.9764 59.988H21.2769ZM41.6126 52.2865H43.5315V54.2119H42.8087C37.3034 54.2119 31.7981 54.2119 26.2927 54.2119C24.1757 54.2119 22.7709 56.0469 23.344 58.0144H58.0378C58.3675 55.6973 56.94 54.1064 54.643 54.1847C51.8152 54.2812 48.9829 54.2074 46.1506 54.2074H45.5216V52.2488H51.2482C51.2482 51.0812 51.2996 49.989 51.2376 48.8983C51.1257 46.8795 49.556 45.153 47.4813 44.6799C45.5155 44.2279 43.3198 45.2027 42.3127 46.9126C41.3328 48.5909 41.7048 50.4063 41.6186 52.2865H41.6126ZM47.873 15.6772L41.664 9.4913L29.6135 21.5L35.83 27.686L47.873 15.6772ZM53.2321 48.4523C55.3976 43.102 55.7464 37.6428 54.2786 32.0746C53.0333 27.3289 50.4438 23.0404 46.819 19.7208C45.8769 20.6579 44.9908 21.5407 44.082 22.4432C44.1291 22.5042 44.1796 22.5625 44.2332 22.6179C47.1998 25.3938 49.3533 28.9208 50.4633 32.8218C50.5495 33.0477 50.7187 33.2325 50.9367 33.3386C53.6964 34.6643 54.0336 38.1595 51.5778 39.99C51.3921 40.1436 51.2654 40.3565 51.2194 40.5926C51.0259 41.6482 50.859 42.7098 50.7189 43.7775C50.7134 43.8759 50.7284 43.9743 50.763 44.0667C50.7976 44.159 50.8511 44.2431 50.92 44.3138C52.1346 45.3988 52.9505 46.857 53.2382 48.4568L53.2321 48.4523ZM26.1824 21.033L24.7458 22.407L34.8774 32.5009L36.2716 31.0983L26.1824 21.033ZM29.2067 46.4772C32.9115 46.4772 36.5075 46.4772 40.1049 46.4772C40.1697 46.4745 40.2332 46.4585 40.2915 46.4303C40.3498 46.402 40.4016 46.3621 40.4437 46.313C40.8323 45.7616 41.1998 45.1951 41.596 44.6016C38.2102 44.6016 34.8532 44.5534 31.4992 44.6302C30.4482 44.6453 29.7012 45.3805 29.2158 46.4802L29.2067 46.4772ZM47.4496 12.2076L50.7083 8.9399L48.3266 6.55051L45.0573 9.84383L47.4496 12.2076ZM53.1837 8.33728L54.6763 6.98138L50.356 2.69523L48.9028 4.06017L53.1837 8.33728ZM47.4526 36.8368C47.4502 37.2163 47.5613 37.5879 47.7716 37.9044C47.982 38.2208 48.2821 38.4677 48.6337 38.6136C48.9854 38.7595 49.3727 38.7978 49.7463 38.7237C50.1199 38.6496 50.4629 38.4664 50.7317 38.1974C51.0004 37.9284 51.1827 37.5857 51.2553 37.2132C51.3279 36.8406 51.2876 36.4549 51.1394 36.1053C50.9913 35.7556 50.7421 35.4578 50.4235 35.2498C50.1049 35.0417 49.7313 34.9328 49.3504 34.937C49.1004 34.937 48.8529 34.9862 48.622 35.0818C48.3912 35.1774 48.1816 35.3175 48.0052 35.494C47.8289 35.6705 47.6893 35.88 47.5945 36.1105C47.4996 36.3409 47.4514 36.5877 47.4526 36.8368Z" fill="#92210F"/>
<path d="M0.989553 59.9882C0.756678 57.4707 1.76681 55.3661 3.36669 53.5612C5.00437 51.7157 6.80084 50.0118 8.53077 48.2476C8.75003 48.0231 8.98442 47.8167 9.33827 47.4868C8.83471 47.0243 8.3236 46.5994 7.86541 46.1309C5.88446 44.0804 4.02902 41.9276 2.62723 39.4297C-1.05643 32.8717 -0.831113 26.3935 3.08088 20.0117C4.41009 17.8453 6.06743 15.935 7.82458 14.1075C8.28579 13.63 8.78784 13.1901 9.05852 12.9339C7.9637 11.7287 6.91123 10.5852 5.88295 9.42065C4.72009 8.09789 3.50581 6.80828 2.45485 5.39965C1.34189 3.90666 0.773306 2.18617 1.0213 0.242719H2.79055L3.2442 3.08257H18.0378L18.5202 0.241211H20.294C20.5284 2.18165 19.9704 3.90364 18.8544 5.39664C17.7959 6.81883 16.5604 8.12049 15.3855 9.46434C14.3753 10.6138 13.341 11.7407 12.3611 12.827C13.7221 14.4028 15.3492 16.1414 16.8175 17.9944C18.9602 20.7062 20.4709 23.7404 21.0516 27.1844C21.8334 31.8653 20.7491 36.156 18.2782 40.1408C16.9309 42.3193 15.2751 44.2552 13.4983 46.0917C13.0446 46.5693 12.5229 46.9956 11.9211 47.5531C12.1623 47.7215 12.394 47.9031 12.6151 48.0969C14.4056 49.9123 16.2444 51.684 17.9531 53.5717C19.1417 54.887 20.0384 56.4237 20.2728 58.2421C20.3469 58.8221 20.3227 59.4142 20.3439 60.0002H18.4506C18.3266 59.155 18.2223 58.3069 18.0575 57.4692C18.0287 57.3186 17.7444 57.1182 17.5781 57.1182C12.965 57.0981 8.35233 57.0981 3.7402 57.1182C3.57235 57.1182 3.28654 57.3216 3.26083 57.4677C3.09903 58.3053 2.99772 59.155 2.87674 60.0002L0.989553 59.9882ZM18.5066 34.9085H7.8019V32.9832H13.338C15.0876 32.9832 16.8371 32.9907 18.5852 32.9711C18.7727 32.9711 19.0933 32.837 19.1205 32.7165C19.2133 32.1848 19.2789 31.6488 19.3171 31.1105H1.99968C2.06353 31.5304 2.10493 31.9533 2.12368 32.3775C2.12368 32.9093 2.37319 33.0103 2.85254 32.9937C3.8279 32.9576 4.80477 32.9832 5.77105 32.9832V34.9417H2.72099C2.89186 35.4057 3.0703 35.7974 3.17464 36.2072C3.3062 36.7059 3.57688 36.8505 4.09858 36.8475C8.12702 36.8219 12.157 36.8339 16.1854 36.8339C18.0287 36.8339 18.0287 36.8339 18.5353 35.0667C18.5305 35.0133 18.5209 34.9603 18.5066 34.9085ZM16.8598 21.4264C16.4546 20.8102 16.134 20.2799 15.762 19.7873C15.6918 19.7053 15.6059 19.6381 15.5093 19.5897C15.4127 19.5414 15.3073 19.5127 15.1995 19.5055C12.1751 19.4874 9.15076 19.492 6.12641 19.4965C5.97519 19.4965 5.76651 19.4965 5.70149 19.5914C5.28715 20.1624 4.90608 20.759 4.44033 21.4565H12.5426V23.3397H11.8636C9.2309 23.3397 6.59821 23.3397 3.96551 23.3472C3.77195 23.3472 3.46347 23.3985 3.40449 23.5205C3.14137 24.0689 2.95084 24.6504 2.71948 25.2485H18.5973C18.4098 24.7378 18.2253 24.2873 18.0786 23.8263C17.9592 23.4572 17.7626 23.3126 17.3513 23.3292C16.444 23.3653 15.517 23.3397 14.5719 23.3397V21.4264H16.8598ZM19.3111 29.1023C19.2612 28.6367 19.1825 28.2134 19.181 27.7901C19.181 27.2974 18.9663 27.1875 18.499 27.1875C13.2714 27.204 8.04233 27.198 2.81474 27.1995C2.62269 27.1995 2.43217 27.2161 2.18871 27.2266L1.99968 29.0993L19.3111 29.1023ZM4.52199 5.07123C5.08755 5.72055 5.56388 6.28551 6.06894 6.82335C6.20749 6.92385 6.37742 6.97191 6.5483 6.95893C9.29542 6.96797 12.043 6.96797 14.7912 6.95893C14.9212 6.95893 15.1012 6.95894 15.1738 6.87608C15.697 6.31413 16.1975 5.73109 16.7827 5.06821L4.52199 5.07123ZM4.48116 38.818C4.85769 39.392 5.16315 39.9088 5.52758 40.3834C5.60211 40.4735 5.69406 40.5478 5.79796 40.6019C5.90187 40.656 6.01561 40.6888 6.13245 40.6982C9.1568 40.7178 12.1812 40.7133 15.2055 40.7088C15.3492 40.7088 15.5609 40.6922 15.6259 40.6018C16.0327 40.0444 16.4047 39.4613 16.8356 38.818H4.48116ZM16.7888 55.1461C16.2807 54.557 15.8709 54.0358 15.4066 53.5687C15.2174 53.3874 14.9687 53.2803 14.7065 53.2674C11.9967 53.2463 9.28534 53.2524 6.57401 53.2674C6.39255 53.2674 6.1506 53.3021 6.04021 53.4181C5.53515 53.9499 5.06638 54.5164 4.51443 55.1521L16.7888 55.1461ZM7.22727 42.6553L10.6554 46.2529L14.0668 42.6553H7.22727ZM7.26357 17.5199H14.0442L10.6554 13.9418L7.26357 17.5199ZM8.12097 8.90842L10.6569 11.3038L13.1807 8.90842H8.12097ZM10.6539 48.8954L8.16331 51.2471H13.1429L10.6539 48.8954Z" fill="#172F40"/>
</svg>
