<svg width="25" height="25" viewBox="0 0 25 25" fill="none" xmlns="http://www.w3.org/2000/svg">
<path d="M21.6548 7.10352V15.1471C20.6979 14.9203 19.6972 14.9594 18.7609 15.2603V12.9329H16.2614V15.4144H18.2131C16.9051 16.0795 15.94 17.0453 15.3935 18.3999C14.8471 19.7545 14.8742 21.1216 15.4081 22.5026H1.84688C0.681139 22.5026 0.00488281 21.8263 0.00488281 20.662V7.10352H21.6548ZM2.51412 10.8132H4.99002V8.35119H2.51412V10.8132ZM7.10558 8.34563V10.8132H9.57246V8.34563H7.10558ZM14.1514 10.8222V8.35535H11.6832V10.8222H14.1514ZM16.2573 10.8174H18.7339V8.35535H16.2566L16.2573 10.8174ZM2.52314 12.9288V15.3956H4.99002V12.9288H2.52314ZM7.09725 15.3963H9.57315V12.9322H7.09725V15.3963ZM14.1563 12.9315H11.6859V15.397H14.1563V12.9315ZM2.52245 17.514V19.9809H4.99002V17.5112L2.52245 17.514ZM9.57524 17.514H7.10211V19.9823H9.57524V17.514ZM11.6908 17.5063V19.9829H14.1514V17.505L11.6908 17.5063Z" fill="#ffcd29"/>
<path d="M0.00975379 6.23317C0.00975379 5.34793 -0.016631 4.48004 0.0173902 3.61424C0.0493284 2.78107 0.773492 2.11245 1.6143 2.08676C2.03783 2.07495 2.46275 2.08676 2.92307 2.08676C2.92307 1.65837 2.91474 1.24526 2.92307 0.832836C2.93765 0.235036 3.51323 -0.157248 4.0548 0.0614591C4.38112 0.193378 4.57692 0.448189 4.58178 0.800898C4.59427 1.65976 4.5915 2.51862 4.58178 3.37817C4.57831 3.70658 4.41375 3.9114 3.9937 4.15927C4.26101 4.15927 4.49082 4.18149 4.71439 4.15441C4.91012 4.127 5.08925 4.02946 5.21848 3.87992C5.34771 3.73038 5.41827 3.53901 5.41703 3.34137C5.42606 2.93451 5.41703 2.52764 5.41703 2.09162H7.49996V1.05779C7.50343 0.385701 7.81031 0.00105423 8.34215 0.00105423C8.87399 0.00105423 9.16977 0.391256 9.16977 1.06821C9.16977 1.74516 9.15519 2.4228 9.17463 3.09906C9.18782 3.56494 9.06215 3.93223 8.61918 4.16413C8.82331 4.16413 9.02744 4.17524 9.23087 4.16413C9.44144 4.14995 9.6386 4.05574 9.78191 3.90081C9.92521 3.74588 10.0038 3.54199 10.0016 3.33096C10.0092 2.92548 10.0016 2.51931 10.0016 2.0944H12.5011C12.5011 1.66323 12.4934 1.25081 12.5011 0.839085C12.5143 0.239202 13.0829 -0.15586 13.6258 0.0593762C13.964 0.192683 14.157 0.454438 14.1612 0.81895C14.1716 1.66045 14.1688 2.50265 14.1612 3.34415C14.1612 3.72949 13.932 3.97528 13.5904 4.14191C13.6048 4.15019 13.6199 4.15716 13.6356 4.16274C14.6076 4.2412 15.0749 3.99611 14.9999 2.87896C14.9825 2.62901 14.9999 2.37628 14.9999 2.08468H17.0828C17.0828 1.65559 17.0773 1.24248 17.0828 0.829365C17.0829 0.658573 17.1363 0.492072 17.2357 0.353144C17.335 0.214215 17.4753 0.109806 17.6369 0.054516C17.9611 -0.0628222 18.3228 0.0135518 18.5311 0.289887C18.649 0.437298 18.7213 0.615824 18.7394 0.803675C18.761 1.6542 18.754 2.50473 18.7471 3.35526C18.7471 3.69894 18.5895 3.90238 18.1638 4.15927C18.4263 4.15927 18.6568 4.18288 18.8811 4.15441C19.0768 4.12649 19.2557 4.02845 19.3846 3.87852C19.5134 3.72859 19.5834 3.53698 19.5816 3.33929C19.5893 2.93312 19.5816 2.52626 19.5816 2.12356C20.6675 1.89374 21.6486 2.65956 21.6646 3.74338C21.675 4.56683 21.6646 5.39028 21.6646 6.23317H0.00975379Z" fill="#ffcd29"/>
<path d="M15.8351 20.4038C15.837 19.4977 16.1075 18.6125 16.6124 17.8601C17.1173 17.1077 17.834 16.5218 18.6718 16.1766C19.5095 15.8314 20.4309 15.7423 21.3193 15.9207C22.2076 16.099 23.0232 16.5366 23.6629 17.1784C24.3026 17.8201 24.7377 18.6371 24.9132 19.5261C25.0887 20.415 24.9967 21.336 24.6488 22.1727C24.301 23.0094 23.7129 23.7242 22.9588 24.2267C22.2048 24.7292 21.3188 24.9969 20.4127 24.9959C19.8105 24.9953 19.2143 24.876 18.6583 24.6448C18.1023 24.4136 17.5972 24.0751 17.1721 23.6486C16.747 23.2221 16.4101 22.716 16.1807 22.1593C15.9512 21.6025 15.8338 21.006 15.8351 20.4038ZM20.0009 17.0954C20.0009 17.8932 20.0009 18.6715 20.0009 19.4498C20.0014 19.5923 19.9458 19.7292 19.8461 19.831C19.7211 19.9816 19.6698 20.1927 19.583 20.376C19.5351 20.4767 19.5024 20.6017 19.4233 20.6683C18.9866 21.0342 18.5373 21.3862 18.0729 21.7584L18.5936 22.4055C19.0546 22.0368 19.4962 21.6751 19.9482 21.3307C20.0486 21.2638 20.1691 21.2339 20.2891 21.246C20.4578 21.2651 20.6284 21.2345 20.78 21.158C20.9315 21.0816 21.0575 20.9625 21.1424 20.8155C21.3132 20.5086 21.2972 20.1087 21.032 19.881C20.832 19.7095 20.8286 19.5262 20.83 19.3088C20.83 18.575 20.83 17.8411 20.83 17.0954H20.0009Z" fill="#ffcd29"/>
</svg>
