<svg width="60" height="60" viewBox="0 0 60 60" fill="none" xmlns="http://www.w3.org/2000/svg">
<path d="M52.0353 60C50.9455 59.7071 49.8248 59.4655 48.9386 58.7215C48.2501 58.1487 47.6075 57.5229 47.0166 56.8499C40.1462 48.9809 33.2842 41.1046 26.4304 33.2209C26.3542 33.1345 26.2722 33.0525 26.1946 32.9705C24.2228 34.5199 21.8541 34.0615 20.4947 31.8736C20.1079 32.2954 19.7212 32.6805 19.3814 33.1052C19.2595 33.2707 19.2069 33.4771 19.2349 33.6807C19.6275 35.6138 18.6269 37.7886 16.6112 38.758C14.8533 39.6045 12.7293 39.2369 11.1794 37.7007C7.93613 34.4789 4.69137 31.2571 1.4891 28.0045C-0.929441 25.5413 -0.317101 21.8538 2.71084 20.3527C3.58978 19.9134 4.53758 19.8504 5.51027 19.9646C5.7435 19.9898 5.97722 19.9219 6.16068 19.7757C10.7038 15.2593 15.2342 10.7312 19.752 6.19141C19.8254 6.11314 19.8826 6.02104 19.92 5.92047C19.9575 5.81989 19.9746 5.71286 19.9703 5.60562C19.6685 3.53488 20.5078 1.65159 22.1822 0.698223C24.0309 -0.348864 26.1052 -0.258074 27.6566 1.24153C31.2055 4.6752 34.6939 8.17184 38.1218 11.7314C39.4827 13.1403 39.531 15.3121 38.5129 17.0723C37.6046 18.6422 35.649 19.5619 33.8121 19.2588C33.4532 19.2002 33.1851 19.2368 32.9331 19.5282C32.627 19.8797 32.271 20.1858 31.8828 20.5621C32.9258 21.1626 33.6158 21.9797 33.8209 23.1147C34.0259 24.2496 33.7227 25.2806 32.9287 26.1695C33.0752 26.316 33.1997 26.4317 33.3272 26.543C39.302 31.7535 45.2763 36.9646 51.2502 42.1761C53.427 44.0799 55.6141 45.9646 57.7631 47.8875C58.9402 48.9397 59.7024 50.3779 59.9121 51.9425C59.9327 52.0152 59.9622 52.0851 60 52.1505V53.7907C59.9573 53.8769 59.9234 53.9672 59.8989 54.0602C59.518 56.2729 58.352 57.9673 56.4007 59.0481C55.6009 59.4874 54.6634 59.6895 53.7888 60H52.0353ZM17.9384 31.0813L31.0639 17.9627C27.8074 14.7043 24.5158 11.4122 21.2667 8.15965L8.13389 21.29L17.9384 31.0813ZM45.6953 40.4319L31.3657 27.9342C30.1938 29.1058 29.079 30.229 27.9334 31.3786L40.4202 45.7186L45.6953 40.4319ZM45.1093 51.1225C46.6694 52.8915 48.1563 54.7001 49.7794 56.3769C50.9953 57.6334 52.5847 57.9468 54.2664 57.443C55.9906 56.9276 57.1127 55.7531 57.5243 54.0104C57.9638 52.152 57.3353 50.5923 55.9217 49.3446C54.5476 48.1306 53.1604 46.9326 51.779 45.7288C51.5475 45.5282 51.3102 45.3335 51.0934 45.1519C49.0938 47.1421 47.1353 49.1 45.1078 51.1239L45.1093 51.1225ZM22.2569 4.69913C22.235 5.48701 22.629 6.06694 23.1593 6.60293C26.3245 9.75835 29.4867 12.9177 32.646 16.0809C32.7673 16.2075 32.8959 16.3268 33.0313 16.4382C33.7886 17.0328 34.6207 17.1704 35.4996 16.7648C36.3551 16.3723 36.8048 15.6723 36.8546 14.7351C36.8942 13.9867 36.5749 13.3819 36.0519 12.8606C32.8184 9.63875 29.5873 6.4101 26.3586 3.17463C26.2627 3.07771 26.161 2.98674 26.054 2.90224C25.2908 2.31646 24.4558 2.18758 23.5856 2.60935C22.7155 3.03111 22.276 3.73698 22.2511 4.69913H22.2569ZM4.68991 22.2565C3.70257 22.2873 2.97013 22.7339 2.56435 23.6375C2.13513 24.5938 2.31092 25.493 3.03751 26.2252C6.33841 29.5446 9.65104 32.8563 12.9754 36.1601C13.1923 36.376 13.4496 36.5472 13.7326 36.6637C14.0157 36.7803 14.319 36.84 14.6251 36.8394C14.9312 36.8387 15.2342 36.7779 15.5168 36.6602C15.7994 36.5425 16.0561 36.3703 16.2721 36.1535C16.4881 35.9366 16.6594 35.6794 16.7759 35.3964C16.8925 35.1134 16.9522 34.8103 16.9516 34.5042C16.951 34.1982 16.8901 33.8953 16.7724 33.6128C16.6547 33.3303 16.4824 33.0737 16.2655 32.8577C12.9793 29.5451 9.6813 26.2462 6.37161 22.9609C6.15593 22.7328 5.89491 22.5522 5.6053 22.4309C5.31568 22.3096 5.00386 22.2502 4.68991 22.2565ZM22.5953 30.1924C22.6071 30.8836 22.8429 31.2439 23.297 31.4401C23.8332 31.6701 24.2902 31.4928 24.6799 31.1033C26.8235 28.9652 28.9632 26.8246 31.0991 24.6817C31.6499 24.1266 31.6718 23.4383 31.2148 22.9565C30.7577 22.4747 30.0077 22.4762 29.4437 23.0356C27.2952 25.1669 25.1565 27.3079 23.0275 29.4587C22.7989 29.693 22.6847 30.0401 22.5968 30.1924H22.5953ZM49.2198 43.5043L47.6465 42.1351L42.1107 47.6561L43.4892 49.2391L49.2198 43.5043Z" fill="#92210F"/>
<path d="M0.956444 59.9998C0.232785 59.7245 0.0320959 59.1753 0.00572777 58.4328C-0.0689819 56.2273 0.579991 54.3616 2.37449 52.9806C2.60301 52.8034 2.85348 52.6511 3.11717 52.471C2.97068 52.1679 2.80955 51.8852 2.68649 51.5835C2.45303 51.0186 2.3499 50.4084 2.38475 49.7982C2.41961 49.1879 2.59154 48.5934 2.88781 48.0587C3.18408 47.5241 3.59707 47.063 4.09606 46.7098C4.59506 46.3566 5.16724 46.1203 5.77011 46.0186C6.07812 45.9686 6.38975 45.9441 6.7018 45.9454C13.1845 45.9454 19.6661 45.9454 26.1468 45.9454C28.5346 45.9454 30.2603 47.4801 30.4683 49.753C30.5562 50.7254 30.2573 51.5982 29.7358 52.4065C30.2236 52.8093 30.7334 53.1681 31.1685 53.6016C32.6568 55.0894 32.9674 56.9566 32.8033 58.9542C32.7579 59.5048 32.3638 59.7918 31.8907 59.9954L0.956444 59.9998ZM2.39352 57.6186H30.4653C30.4653 57.5058 30.4653 57.4267 30.4653 57.3506C30.2602 55.4219 28.7836 54.1434 26.7313 54.1419C19.861 54.1419 12.9906 54.1419 6.1202 54.1419C5.92457 54.1392 5.72894 54.1475 5.53424 54.1668C4.67589 54.2507 3.87932 54.6503 3.29899 55.2881C2.71866 55.9258 2.39596 56.7564 2.39352 57.6186ZM16.4272 51.7973H25.9183C26.1332 51.8049 26.3484 51.8 26.5628 51.7827C26.9881 51.7234 27.3769 51.5106 27.656 51.1844C27.9351 50.8582 28.0851 50.4411 28.0777 50.0119C28.0703 49.5828 27.906 49.1711 27.6159 48.8547C27.3258 48.5383 26.9298 48.339 26.5028 48.2944C26.308 48.2782 26.1117 48.2856 25.9168 48.2856H6.93323C6.73786 48.2787 6.54227 48.2821 6.34727 48.2958C5.62654 48.3705 5.10067 48.7352 4.83405 49.4147C4.36675 50.5994 5.2325 51.79 6.58313 51.7944C9.8645 51.8047 13.1459 51.7959 16.4258 51.7973H16.4272Z" fill="#172F40"/>
<path d="M22.4319 13.1869C22.3381 13.3436 22.2063 13.7009 21.9631 13.9484C20.4206 15.5257 18.8575 17.0824 17.2886 18.6347C16.6792 19.2381 15.9702 19.2703 15.4795 18.7577C14.9887 18.2452 15.0327 17.5862 15.626 16.9901C17.1919 15.407 18.7711 13.8386 20.3473 12.2672C20.737 11.8777 21.1984 11.7005 21.7302 11.9275C22.177 12.1179 22.4216 12.4781 22.4319 13.1869Z" fill="#172F40"/>
<path d="M12.9923 22.4164C12.8409 22.418 12.6907 22.3893 12.5506 22.3321C12.4105 22.2748 12.2832 22.1902 12.1762 22.0831C12.0692 21.976 11.9847 21.8486 11.9276 21.7085C11.8705 21.5683 11.8421 21.4181 11.8438 21.2668C11.8446 20.9613 11.9666 20.6685 12.183 20.4527C12.3994 20.2369 12.6925 20.1157 12.9982 20.1157C13.3036 20.1231 13.5945 20.2474 13.8109 20.4629C14.0273 20.6785 14.1528 20.9688 14.1613 21.2741C14.1537 21.5792 14.0272 21.8693 13.8089 22.0826C13.5906 22.296 13.2976 22.4157 12.9923 22.4164Z" fill="#172F40"/>
</svg>
