<svg width="60" height="60" viewBox="0 0 60 60" fill="none" xmlns="http://www.w3.org/2000/svg">
<path d="M30.615 59.9869L11.0043 59.9719V43.3608C11.0043 41.981 11.0043 42.0026 9.62956 41.9843C9.143 41.9843 8.99304 42.1093 8.99304 42.6125C9.01304 48.3985 9.00803 54.186 9.0097 59.9719C6.15866 59.9719 3.30761 59.9803 0.454897 60.0003C0.0983086 60.0003 0 59.887 0 59.537C0.0116641 52.6062 -0.0199985 45.6738 0.0283243 38.7414C0.0483199 35.9784 2.26451 33.6137 5.09389 33.1404C9.39628 32.4228 13.6992 31.7101 18.0027 31.0024L20.0023 33.1154C19.6207 33.9003 19.4474 34.7586 19.1258 35.5635C19.0672 35.6938 19.0465 35.838 19.0663 35.9795C19.086 36.121 19.1454 36.2541 19.2375 36.3634C19.8423 37.2299 20.4189 38.1181 21.0054 38.9963C20.3922 40.5195 19.7812 42.0426 19.1725 43.5657C19.0596 43.8286 19.035 44.121 19.1025 44.399C19.779 47.2669 20.4355 50.1432 21.0904 53.0145C21.372 54.236 21.6569 55.4559 21.9402 56.6807C22.1735 56.6074 22.1235 56.4557 22.1485 56.3474C23.0666 52.3846 23.9814 48.4185 24.9012 44.4573C24.982 44.1589 24.9627 43.8422 24.8462 43.5557C24.2264 42.0343 23.6165 40.5095 23.0033 38.9863C23.601 38.0898 24.1997 37.1927 24.7996 36.295C24.9146 36.1284 25.0329 35.9767 24.9395 35.7318C24.6063 34.8636 24.4047 33.9503 24.0064 33.1054L26.006 30.9907L37.1569 32.8688C37.0306 33.4571 36.9779 34.0589 37.0002 34.6602C37.0119 35.7618 37.0002 36.865 37.0002 37.9665C35.0523 37.9665 33.1028 37.9765 31.1549 37.9865C30.365 37.9865 30.0051 38.3381 30.0034 39.113C30.0034 40.3978 30.0034 41.6843 30.0168 42.9692V55.6142V55.9825C30.0168 56.8523 30.0351 57.7222 29.9934 58.5905C29.9685 59.1887 30.1234 59.652 30.615 59.9869Z" fill="#E29854"/>
<path d="M20.0091 33.1152L18.0095 31.0021C18.0095 29.8589 17.9995 28.7157 18.0095 27.5726C18.0257 27.422 17.9948 27.2702 17.9211 27.138C17.8474 27.0058 17.7345 26.8997 17.5979 26.8343C15.3234 25.4678 13.8054 23.5298 13.2056 20.9101C12.9873 19.9502 12.999 18.977 13.0023 18.0038C13.0023 16.8823 13.0023 15.7591 13.0023 14.6376C13.0023 14.4193 13.0839 14.176 12.8773 13.9927L12.9073 13.841C13.1406 13.5327 12.9156 13.1511 13.0856 12.8211C13.6855 11.6557 14.2715 10.4842 14.8436 9.30661C14.9719 9.04331 15.0802 9.02498 15.3001 9.20995C15.6184 9.47825 15.9666 9.70989 16.2999 9.96319C19.1776 12.1062 22.2803 12.5962 25.6312 11.2264C26.7626 10.7647 27.6891 9.97985 28.6539 9.25828C28.9021 9.07163 29.0488 8.99165 29.1954 9.34827C29.8103 10.8481 30.8984 12.1512 31.1 13.831L31.1367 13.9977C30.9317 14.181 31.015 14.4259 31.0133 14.6426C31.0133 15.7641 31.0133 16.8856 31.0133 18.0071C31.1283 20.4518 30.5851 22.6949 29.0138 24.6346C28.2924 25.5229 27.4128 26.2698 26.4194 26.8377C26.2818 26.9018 26.1681 27.0077 26.0942 27.1402C26.0203 27.2727 25.9901 27.4252 26.0078 27.5759C26.0261 28.7174 26.0078 29.8606 26.0078 31.0038L24.0082 33.1185C23.3184 33.4235 22.9284 34.0651 22.4102 34.5617C22.097 34.8616 21.9237 34.86 21.6104 34.5617C21.0905 34.0617 20.6973 33.4201 20.0091 33.1152Z" fill="#F9DEB1"/>
<path d="M31.0884 13.8312C30.8867 12.1514 29.7987 10.8516 29.1838 9.34845C29.0372 8.99183 28.8905 9.07181 28.6422 9.25845C27.6775 9.98002 26.751 10.7583 25.6196 11.2265C22.2703 12.5963 19.1676 12.1064 16.2883 9.96337C15.955 9.71507 15.6134 9.47843 15.2885 9.21013C15.0685 9.02515 14.9552 9.04349 14.8319 9.30678C14.2676 10.4855 13.6877 11.657 13.0923 12.8213C12.9257 13.1546 13.1473 13.5329 12.914 13.8412C12.3708 12.7413 11.8176 11.6465 11.2844 10.54C10.9452 9.85753 10.7603 9.10887 10.7426 8.34701C10.725 7.58515 10.875 6.82873 11.1822 6.13133C11.4894 5.43392 11.9461 4.8126 12.5201 4.31137C13.0941 3.81015 13.7713 3.44129 14.5037 3.23091C14.8191 3.12331 15.1114 2.95709 15.3651 2.74097C16.8248 1.58446 18.3395 0.544599 20.2274 0.184646C22.0125 -0.183372 23.8673 0.00148388 25.5446 0.714575C26.5955 1.15896 27.6369 1.63112 28.6689 2.13106C32.1681 3.8225 33.6561 7.77531 32.1431 11.3615L31.0884 13.8312Z" fill="#C18E59"/>
<path d="M30.0186 55.9921C30.0186 55.8688 30.0186 55.7471 30.0186 55.6238C30.7851 55.6138 31.5466 55.5888 32.3131 55.5088C33.816 55.3508 35.2949 55.0151 36.7188 54.5089C39.0663 53.6667 41.2358 52.3934 43.1158 50.7544C43.7623 51.8043 44.5788 52.1992 45.5286 51.921C46.5283 51.631 46.9949 50.9061 46.9999 49.6796C46.9999 49.1213 46.9999 48.5614 47.0149 48.0015C49.3644 48.0015 51.7155 48.0148 54.0667 48.0015C55.6241 47.9933 57.1148 47.3684 58.2125 46.2634C59.1789 45.3335 59.6521 44.1603 59.9821 42.9038V55.9921C59.8154 55.9921 59.6488 56.0054 59.4822 56.0054L30.0186 55.9921Z" fill="#606060"/>
<path d="M30.0182 55.9923H59.4884C59.655 55.9923 59.8217 55.9923 59.9883 55.979C59.9883 56.9555 59.9983 57.9337 59.9999 58.912C59.9999 59.6719 59.6667 59.9935 58.8969 59.9935H31.6128C31.2796 59.9935 30.9463 59.9935 30.613 59.9935C30.1215 59.6602 29.9665 59.1952 29.9932 58.607C30.0365 57.7354 30.0132 56.8622 30.0182 55.9923Z" fill="#D4CDC1"/>
<path d="M59.9853 42.8907C59.652 44.1472 59.1821 45.3204 58.2157 46.2503C57.118 47.3552 55.6273 47.9802 54.0699 47.9884C51.7188 48.01 49.3676 47.9884 47.0181 47.9884C47.0059 47.3284 46.9948 46.6674 46.9848 46.0053L47.0148 45.857C48.4545 43.4306 49.3376 40.8276 49.5142 37.9997L51.0139 37.9863H58.9155C59.6754 37.9863 60.0003 38.3196 59.9986 39.0829C59.9953 40.3549 59.9908 41.6242 59.9853 42.8907Z" fill="#D4CDC1"/>
<path d="M52.9965 37.9947H50.9969C50.9969 36.7482 50.9969 35.495 50.9969 34.2518C50.9969 33.347 50.652 32.9987 49.7622 32.997C46.5807 32.997 43.3991 32.997 40.2176 32.997C39.9277 32.997 39.6311 32.9787 39.4128 33.2286C39.0512 33.4269 38.9995 33.7652 39.0012 34.1302C39.0012 35.4133 39.0012 36.6954 39.0012 37.9763H37.0016C37.0016 36.8748 37.0016 35.7716 37.0016 34.6701C36.9793 34.0688 37.0319 33.467 37.1583 32.8787C37.9248 31.4572 39.1145 30.9373 40.7175 30.9756C43.7368 31.0472 46.7578 30.9939 49.7772 30.9973C51.7651 30.9973 52.9981 32.2438 53.0015 34.2452C53.0015 35.495 52.9981 36.7382 52.9965 37.9947Z" fill="#8C8787"/>
<path d="M9.01472 59.9718C9.01472 54.1859 9.01471 48.3983 8.99805 42.6124C8.99805 42.1124 9.14802 41.9775 9.63458 41.9841C11.0093 42.0025 11.0093 41.9841 11.0093 43.3606V59.9718H9.01472Z" fill="#C06B3F"/>
<path d="M12.8805 13.9927C13.0871 14.176 13.0038 14.4193 13.0055 14.6376C13.0055 15.7591 13.0055 16.8823 13.0055 18.0038C12.3606 18.0038 11.7174 18.0038 11.0726 18.0038C9.87448 17.9888 8.993 17.1189 9.008 15.9741C9.023 14.8576 9.89781 14.0193 11.0709 14.006C11.6758 13.9927 12.279 13.9943 12.8805 13.9927Z" fill="#EEBE9A"/>
<path d="M31.0067 18.0041C31.0067 16.8826 31.0067 15.7611 31.0067 14.6395C31.0067 14.4229 30.925 14.1779 31.13 13.9946C31.7332 13.9946 32.3364 13.9946 32.9379 13.9946C34.1043 14.008 34.9874 14.8495 35.0024 15.9627C35.0174 17.1076 34.136 17.9774 32.9379 17.9924C32.2947 18.0058 31.6515 18.0024 31.0067 18.0041Z" fill="#EEBE9A"/>
<path d="M37.0035 37.9766H39.0031L43.872 37.9949L49.5091 38.0082C49.3425 40.8412 48.4544 43.4392 47.0097 45.8655C47.0097 45.4089 46.9814 44.9506 47.0097 44.4957C47.0264 44.1274 46.9114 43.9791 46.5198 43.9958C45.52 44.0191 44.5241 44.0191 43.5321 43.9958C43.1305 43.9858 42.9889 44.1074 42.9956 44.5207C43.0156 45.6872 42.9956 46.8537 42.9956 48.0069C40.5828 48.0069 38.1633 48.0302 35.7555 47.9936C34.0892 47.9669 32.7195 47.2553 31.5797 46.0572C30.7466 45.1856 30.3267 44.1208 30.0251 42.9876C30.0251 41.7027 30.0101 40.4162 30.0117 39.1314C30.0117 38.3565 30.3733 38.0099 31.1631 38.0049C33.1061 37.9866 35.0556 37.9832 37.0035 37.9766Z" fill="#E6E3DC"/>
<path d="M30.0201 42.979C30.3217 44.1122 30.7482 45.177 31.5747 46.0486C32.7145 47.2468 34.0909 47.9583 35.7505 47.985C38.1633 48.0217 40.5828 47.9967 42.9906 47.9983C42.9906 48.2233 42.9906 48.4499 43.0039 48.6749C43.0572 49.3215 42.8673 49.9864 43.1322 50.6197L43.1189 50.748C41.2389 52.3869 39.0694 53.6602 36.7219 54.5025C35.298 55.0087 33.8192 55.3443 32.3162 55.5023C31.5497 55.5823 30.7882 55.6073 30.0217 55.6173C30.0217 51.4079 30.0212 47.1951 30.0201 42.979Z" fill="#8B8686"/>
<path d="M23.0016 38.9961C23.6148 40.5192 24.2246 42.044 24.8445 43.5655C24.9609 43.8519 24.9803 44.1686 24.8995 44.467C23.973 48.4282 23.0666 52.3943 22.1468 56.3572C22.1218 56.4655 22.1718 56.6171 21.9385 56.6904C21.6552 55.4623 21.3703 54.2424 21.0887 53.0243C20.4221 50.153 19.7773 47.2767 19.1008 44.4087C19.0333 44.1307 19.0578 43.8383 19.1707 43.5755C19.785 42.0524 20.396 40.5292 21.0037 39.0061L23.0016 38.9961Z" fill="#E6E2DB"/>
<path d="M23.0014 38.9963H21.0118C20.4253 38.1181 19.8454 37.2299 19.2439 36.3633C19.1518 36.2541 19.0925 36.121 19.0727 35.9795C19.053 35.838 19.0736 35.6938 19.1322 35.5635C19.4538 34.7586 19.6321 33.897 20.0087 33.1154C20.6969 33.4204 21.0885 34.062 21.6067 34.5569C21.92 34.8569 22.0933 34.8585 22.4065 34.5569C22.9248 34.057 23.3147 33.4187 24.0045 33.1138C24.4028 33.9587 24.6061 34.8719 24.9376 35.7401C25.031 35.9851 24.9127 36.1317 24.7977 36.3034C24.1978 37.201 23.599 38.0987 23.0014 38.9963Z" fill="#D5CDC0"/>
<path d="M43.119 50.7481C43.119 50.7047 43.119 50.6614 43.1324 50.6197C44.692 49.3149 45.9167 47.7301 46.9848 46.0137C46.9948 46.6803 47.0059 47.3413 47.0182 47.9968C47.0182 48.5567 47.0048 49.1166 47.0032 49.6749C47.0032 50.9014 46.5249 51.6263 45.5318 51.9163C44.5854 52.1929 43.7655 51.7979 43.119 50.7481Z" fill="#F0C252"/>
<path d="M46.9847 46.0138C45.9182 47.7369 44.6918 49.315 43.1322 50.6198C42.8672 49.9866 43.0572 49.3217 43.0039 48.6751C42.9855 48.4501 43.0039 48.2235 42.9905 47.9985C42.9905 46.832 43.0139 45.6655 42.9905 44.5123C42.9905 44.099 43.1255 43.9774 43.5271 43.9874C44.5269 44.0107 45.5228 44.0107 46.5148 43.9874C46.9064 43.9874 47.0147 44.1274 47.0047 44.4873C46.983 44.9423 47.0047 45.4005 47.0047 45.8571L46.9847 46.0138Z" fill="#F6D780"/>
<path d="M39.4198 33.2285C41.7126 33.8951 43.2206 35.3549 43.8421 37.6863C43.8623 37.7879 43.874 37.891 43.8771 37.9946L39.0082 37.9762C39.0082 36.6953 39.0082 35.4132 39.0082 34.1301C39.0016 33.7651 39.0532 33.4268 39.4198 33.2285Z" fill="#E29854"/>
</svg>
