<svg width="50" height="47" viewBox="0 0 50 47" fill="none" xmlns="http://www.w3.org/2000/svg">
<path d="M47.6348 45.3126H2.32227V24.2187H11.6974L24.9786 10.9375L38.26 24.2187H47.6348V45.3126Z" fill="#FCD2B1"/>
<path d="M29.6662 35.9375H20.2913V45.3125H29.6662V35.9375Z" fill="#2A94F4"/>
<path d="M32.3141 4.68744L33.5873 2.77712C33.7468 2.53754 33.7621 2.22928 33.6261 1.97531C33.4903 1.72119 33.2257 1.5625 32.9374 1.5625H25.1249C24.693 1.5625 24.3436 1.9119 24.3436 2.34374V7.0313C24.3436 7.46314 24.693 7.81254 25.1249 7.81254H32.9374C33.2257 7.81254 33.4903 7.65385 33.6263 7.39973C33.7621 7.14576 33.7468 6.8375 33.5874 6.59792L32.3141 4.68744Z" fill="#FFBE55"/>
<path d="M25 11.7187C24.5682 11.7187 24.2186 11.3694 24.2186 10.9375V0.781235C24.2186 0.349398 24.5682 0 25 0C25.4319 0 25.7814 0.349398 25.7814 0.781235V10.9375C25.7814 11.3693 25.4319 11.7187 25 11.7187Z" fill="#0E538C"/>
<path d="M36.6973 29.2968C36.6973 28.2179 35.8231 27.3438 34.7443 27.3438C33.6655 27.3438 32.7911 28.2181 32.7911 29.2968C32.7911 29.4306 32.8049 29.5611 32.8304 29.6873H32.7911V32.8124H36.6973V29.6873H36.6579C36.6837 29.5611 36.6973 29.4304 36.6973 29.2968Z" fill="#F7F7F7"/>
<path d="M17.1876 36.7188H13.2812V41.4063H17.1876V36.7188Z" fill="#F7F7F7"/>
<path d="M10.135 36.7188H6.22864V41.4063H10.135V36.7188Z" fill="#F7F7F7"/>
<path d="M43.7501 36.7188H39.8438V41.4063H43.7501V36.7188Z" fill="#F7F7F7"/>
<path d="M36.6974 36.7188H32.7913V41.4063H36.6974V36.7188Z" fill="#F7F7F7"/>
<path d="M43.7072 29.2968C43.7072 28.2179 42.8328 27.3438 41.754 27.3438C40.6754 27.3438 39.8009 28.2181 39.8009 29.2968C39.8009 29.4306 39.8146 29.5611 39.8403 29.6873H39.8009V32.8124H43.7072V29.6873H43.6679C43.6934 29.5611 43.7072 29.4304 43.7072 29.2968ZM10.1135 29.2968C10.1135 28.2179 9.23911 27.3438 8.16044 27.3438C7.08162 27.3438 6.20728 28.2181 6.20728 29.2968C6.20728 29.4306 6.22104 29.5611 6.24656 29.6873H6.20728V32.8124H10.1135V29.6873H10.0742C10.0997 29.5611 10.1135 29.4304 10.1135 29.2968ZM17.1232 29.2968C17.1232 28.2179 16.249 27.3438 15.1702 27.3438C14.0914 27.3438 13.2171 28.2181 13.2171 29.2968C13.2171 29.4306 13.2308 29.5611 13.2565 29.6873H13.2171V32.8124H17.1232V29.6873H17.0841C17.1096 29.5611 17.1232 29.4304 17.1232 29.2968Z" fill="#F7F7F7"/>
<path d="M49.2188 46.0939H0.781235C0.349398 46.0939 0 45.7445 0 45.3126C0 44.8808 0.349398 44.5312 0.781235 44.5312H49.2188C49.6506 44.5312 50 44.8806 50 45.3126C50 45.7446 49.6506 46.0939 49.2188 46.0939Z" fill="#0E538C"/>
<path d="M20.5531 16.4884L13.0519 23.9898C12.9058 24.1359 12.7081 24.2185 12.5007 24.2185H0.781838C0.495545 24.2185 0.233071 24.0635 0.09557 23.8134C-0.0406938 23.5635 -0.0306406 23.2586 0.121863 23.0173L4.27675 16.4886H20.5531V16.4884ZM49.8832 23.8133C49.7455 24.0632 49.4831 24.2184 49.198 24.2184H37.4793C37.2705 24.2184 37.073 24.1359 36.9269 23.9896L29.4255 16.4883H45.7017L49.8568 23.017C50.0105 23.2585 50.0195 23.5633 49.8832 23.8133Z" fill="#2A94F4"/>
<path d="M38.2706 24.9895C38.0708 24.9895 37.8708 24.9132 37.7183 24.7607L25 12.0424L12.2818 24.7607C11.9765 25.0659 11.4822 25.0659 11.1769 24.7607C10.8717 24.4556 10.8717 23.9611 11.1769 23.6558L24.4475 10.3851C24.7527 10.08 25.2472 10.08 25.5525 10.3851L38.823 23.6558C39.1283 23.9609 39.1283 24.4554 38.823 24.7607C38.6703 24.9131 38.4705 24.9895 38.2706 24.9895Z" fill="#0E538C"/>
<path d="M24.9786 27.3435C26.5265 27.3435 27.7812 26.0887 27.7812 24.5409C27.7812 22.9931 26.5265 21.7383 24.9786 21.7383C23.4308 21.7383 22.176 22.9931 22.176 24.5409C22.176 26.0887 23.4308 27.3435 24.9786 27.3435Z" fill="#F7F7F7"/>
</svg>
