<svg width="50" height="50" viewBox="0 0 50 50" fill="none" xmlns="http://www.w3.org/2000/svg">
<path d="M7.72557 50.0002C7.57611 49.9407 7.42797 49.8758 7.27587 49.8243C6.64223 49.621 6.08652 49.2277 5.68424 48.6976C5.28196 48.1675 5.05262 47.5265 5.02737 46.8615C4.9996 46.2703 5.02737 45.6712 5.02737 45.0098C4.51419 45.0098 4.05788 45.0098 3.60156 45.0098C1.39407 45.0019 0 43.6012 0 41.4056C0 28.8264 0 16.2463 0 3.66526C0 1.43132 1.38481 0.0385742 3.61479 0.0385742C12.5911 0.0385742 21.5679 0.0385742 30.5452 0.0385742C32.7593 0.0385742 34.1295 1.4128 34.1348 3.62559C34.1348 5.65805 34.1348 7.6914 34.1348 9.72563C34.1443 9.8906 34.135 10.0561 34.107 10.219C34.0762 10.4011 33.9799 10.5656 33.8361 10.6816C33.6924 10.7976 33.5112 10.857 33.3267 10.8486C33.1426 10.8655 32.9589 10.8136 32.8108 10.7029C32.6628 10.5923 32.561 10.4307 32.5252 10.2494C32.4865 10.0549 32.4723 9.85625 32.4828 9.65818C32.4828 7.65834 32.4828 5.65717 32.4828 3.65733C32.4828 2.34262 31.8414 1.70246 30.5399 1.70246H3.6095C2.30669 1.70246 1.67447 2.34262 1.67447 3.6613V41.4017C1.67447 42.7071 2.31331 43.3446 3.62669 43.3446H30.5055C31.8414 43.3446 32.4776 42.7071 32.4815 41.3699C32.4815 40.4943 32.4815 39.6174 32.4815 38.7418C32.4815 38.1003 32.8069 37.7207 33.3148 37.726C33.8227 37.7313 34.1282 38.1096 34.1309 38.7537C34.1309 39.6968 34.1414 40.6385 34.1309 41.5815C34.1057 43.5285 32.8214 44.8749 30.8758 45.0045C30.6788 45.0164 30.479 45.0138 30.2806 45.0138H6.63307C6.6701 45.7571 6.64629 46.4687 6.75607 47.1565C6.85791 47.7914 7.49808 48.2596 8.14749 48.3138C8.3287 48.3297 8.51122 48.3244 8.69242 48.3244H35.4733C36.8846 48.3244 37.4798 47.7226 37.4798 46.2954V37.0211C37.4689 36.856 37.4746 36.6903 37.497 36.5264C37.5234 36.3433 37.6137 36.1755 37.7519 36.0525C37.8901 35.9296 38.0673 35.8594 38.2522 35.8545C38.4358 35.8297 38.6221 35.8738 38.775 35.9784C38.928 36.0829 39.0367 36.2405 39.0802 36.4206C39.1315 36.6281 39.1537 36.8418 39.1463 37.0555C39.1463 40.131 39.1463 43.2062 39.1463 46.2809C39.1463 48.2543 38.3527 49.3362 36.464 49.9354C36.4362 49.9446 36.4151 49.9764 36.3913 49.9989L7.72557 50.0002Z" fill="#92210F"/>
<path d="M26.564 37.4626C26.6248 36.3119 26.7505 35.1599 26.7346 34.0092C26.6963 31.192 26.1222 28.5057 24.6065 26.0733C24.1475 25.3366 24.3247 24.6356 25.0456 24.0722C27.2637 22.3382 29.4011 20.5103 31.1893 18.3253C31.9872 17.358 32.693 16.3183 33.2976 15.2197C35.882 10.4582 38.407 5.67022 40.953 0.891506C41.0396 0.713307 41.1364 0.540202 41.2427 0.373032C41.3494 0.202346 41.5169 0.0785644 41.7114 0.0267498C41.9059 -0.0250649 42.1128 -0.00104718 42.2902 0.0939476C42.4788 0.183973 42.6253 0.343307 42.6992 0.538718C42.7731 0.734129 42.7688 0.950539 42.687 1.14281C42.6097 1.32438 42.5214 1.50106 42.4225 1.67187C40.0179 6.19003 37.6125 10.7077 35.2062 15.225C35.1228 15.3824 35.0448 15.5424 34.9416 15.7355L42.2598 19.6374C42.359 19.4667 42.4529 19.3186 42.5349 19.1652L48.1932 8.54301C48.2236 8.48481 48.2554 8.42662 48.2871 8.36842C48.6204 7.75868 49.0503 7.57483 49.5211 7.82613C49.992 8.07744 50.07 8.5602 49.7526 9.14878C47.7885 12.8363 45.8561 16.5397 43.8457 20.2008C42.5852 22.4956 41.8617 24.9451 41.4649 27.5031C41.2004 29.1987 41.0496 30.9116 40.8631 32.6178C40.7705 33.4603 40.2348 33.9656 39.2825 33.996C37.7611 34.0556 36.2616 34.3801 34.8517 34.9549C32.7479 35.8042 30.8159 37.0286 29.1498 38.5684C28.9361 38.7736 28.6831 38.9335 28.406 39.0383C28.1289 39.1431 27.8334 39.1907 27.5375 39.1781C26.2003 39.1503 24.8604 39.1781 23.5206 39.1689C22.8725 39.1689 22.5074 38.8647 22.5008 38.3435C22.4942 37.8224 22.8606 37.5023 23.4994 37.497C24.4583 37.4878 25.4173 37.497 26.3748 37.4865C26.3914 37.4836 26.4075 37.4782 26.4225 37.4706L26.564 37.4626ZM28.5268 34.7525C28.5982 34.6295 28.6749 34.5092 28.7411 34.3835C29.4434 33.0609 30.1351 31.7224 30.8507 30.401C31.0094 30.1061 31.0319 29.9209 30.7845 29.6352C30.3099 29.0765 30.0344 28.3758 30.0014 27.6435C29.9683 26.9111 30.1796 26.1885 30.602 25.5893C31.0168 24.995 31.6126 24.5507 32.3005 24.3229C32.9885 24.095 33.7317 24.0957 34.4192 24.3248C35.8609 24.8102 36.7708 26.1765 36.6902 27.7386C36.6462 28.4619 36.3643 29.1505 35.8882 29.6969C35.4121 30.2433 34.7687 30.6169 34.0581 30.7595C33.5661 30.8573 33.0502 30.8243 32.4881 30.8547L29.9579 35.6638C31.3744 34.738 32.7963 33.8796 34.3795 33.3876C35.9627 32.8955 37.5538 32.5702 39.2164 32.1549C39.5325 28.4832 40.0325 24.7123 41.5112 21.124L34.1322 17.1997C31.9617 20.4495 29.1061 22.9506 26.1183 25.3644C27.7755 28.2756 28.5294 31.3996 28.5268 34.7539V34.7525ZM33.3373 25.8657C33.0113 25.8632 32.6919 25.9571 32.4191 26.1355C32.1464 26.314 31.9325 26.5692 31.8043 26.8689C31.6761 27.1686 31.6394 27.4995 31.6988 27.82C31.7581 28.1405 31.9109 28.4363 32.1379 28.6702C32.3649 28.9042 32.6559 29.0658 32.9745 29.1348C33.2931 29.2038 33.6249 29.1771 33.9284 29.058C34.2318 28.9389 34.4933 28.7328 34.6799 28.4656C34.8665 28.1984 34.97 27.8819 34.9773 27.556C34.9817 27.3371 34.9426 27.1195 34.8624 26.9158C34.7821 26.7121 34.6623 26.5264 34.5097 26.3693C34.3572 26.2122 34.175 26.087 33.9738 26.0007C33.7725 25.9145 33.5562 25.8691 33.3373 25.867V25.8657Z" fill="#172F40"/>
<path d="M26.6592 9.32456C26.6592 10.5599 26.6592 11.7966 26.6592 13.028C26.6665 13.2254 26.6446 13.4228 26.5944 13.6139C26.5496 13.7932 26.4405 13.9499 26.2879 14.0542C26.1353 14.1586 25.9498 14.2033 25.7664 14.18C25.3537 14.1535 25.1051 13.9049 25.0085 13.5187C24.9869 13.3876 24.9807 13.2544 24.99 13.1219C24.99 10.7914 24.99 8.46043 24.99 6.12905C24.99 5.51402 25.1884 5.17807 25.6037 5.07093C26.0442 4.95851 26.3669 5.13971 26.6618 5.67538C27.4554 7.10252 28.249 8.53098 29.1087 10.0771C29.1286 9.81262 29.1484 9.68036 29.1484 9.54809C29.1484 8.3749 29.1484 7.2004 29.1484 6.02721C29.1484 5.40821 29.4473 5.06167 29.9618 5.05374C30.4763 5.0458 30.8123 5.39631 30.8149 5.99547C30.8229 8.4093 30.8149 10.8218 30.8149 13.2356C30.8149 13.6986 30.6311 14.0543 30.1616 14.1615C29.692 14.2686 29.3812 14.0173 29.1616 13.6179C28.443 12.3164 27.7217 11.0167 26.9978 9.71871C26.9198 9.57719 26.8364 9.43831 26.7557 9.29678L26.6592 9.32456Z" fill="#92210F"/>
<path d="M15.8334 9.61324C15.7937 10.8777 15.5226 12.0668 14.6973 13.072C13.4699 14.5652 11.5428 14.5666 10.3021 13.0799C8.78505 11.2613 8.79563 7.92158 10.3233 6.12278C11.5507 4.67448 13.4831 4.68506 14.688 6.15452C15.5186 7.15709 15.7951 8.34747 15.8334 9.61324ZM14.1656 9.77725C14.1656 8.72707 13.8931 7.81841 13.446 7.26422C12.8495 6.53015 12.1327 6.53148 11.5428 7.26422C10.5957 8.44799 10.5984 10.7772 11.5428 11.9623C12.1327 12.699 12.8575 12.7016 13.4408 11.9623C13.9804 11.2811 14.1338 10.4809 14.1656 9.77725Z" fill="#92210F"/>
<path d="M18.5779 39.182C18.3465 39.182 18.1137 39.1648 17.8849 39.182C16.7752 39.2812 15.9247 38.9069 15.3599 37.907C15.1245 37.4903 14.901 37.5102 14.6206 37.9149C14.3402 38.3196 14.0558 38.768 13.7648 39.1886C13.2874 39.8764 12.6207 40.1872 11.7981 40.0615C10.9754 39.9359 10.449 39.4465 10.1738 38.6529C10.0631 38.3943 9.93031 38.1456 9.77705 37.9096C9.55912 38.0786 9.35195 38.2611 9.15673 38.4559C8.97114 38.6786 8.73963 38.8587 8.47803 38.9838C8.21643 39.1089 7.93091 39.1761 7.64098 39.1807C6.79845 39.1965 5.95593 39.1926 5.1134 39.1807C4.56054 39.1807 4.18755 38.8394 4.173 38.3672C4.15845 37.895 4.54599 37.5194 5.12002 37.5115C5.87922 37.4996 6.64106 37.53 7.39761 37.493C7.51185 37.4826 7.62286 37.4495 7.72415 37.3957C7.82544 37.3418 7.91497 37.2684 7.98751 37.1795C8.48483 36.4798 9.13557 36.1214 9.98074 36.2536C10.8259 36.3859 11.3761 36.8819 11.6288 37.7086C11.6426 37.7896 11.6675 37.8684 11.7028 37.9427C11.8126 38.108 11.9383 38.2627 12.0573 38.4228C12.216 38.2998 12.4104 38.2032 12.5268 38.0472C12.8059 37.6795 13.04 37.2787 13.3059 36.9004C14.1801 35.6558 15.8189 35.6307 16.6641 36.9004C16.9908 37.3898 17.3346 37.5842 17.9126 37.5353C18.5356 37.4837 19.1665 37.5194 19.7948 37.5247C20.423 37.53 20.8132 37.8421 20.8211 38.35C20.8291 38.8579 20.4362 39.1939 19.763 39.1979C19.3702 39.182 18.9747 39.182 18.5779 39.182Z" fill="#92210F"/>
<path d="M17.7234 14.1839C16.914 14.2077 16.533 13.6548 16.7433 13.0173C17.316 11.2622 17.9033 9.51363 18.4853 7.76113L19.1558 5.74409C19.2881 5.33407 19.5288 5.04441 20.0023 5.04838C20.4758 5.05235 20.6994 5.34069 20.8369 5.756C21.6305 8.14867 22.4241 10.5387 23.2177 12.9314C23.4161 13.5292 23.2269 13.9895 22.7415 14.1508C22.2561 14.3122 21.8448 14.0371 21.6332 13.4419C21.3065 12.516 21.3065 12.516 20.3251 12.516C20.2264 12.5227 20.1274 12.5227 20.0288 12.516C19.1188 12.3838 18.4033 12.516 18.2419 13.6376C18.2075 13.881 17.8305 14.0741 17.7234 14.1839ZM19.9957 8.51239C19.7153 9.35491 19.4759 10.0784 19.2273 10.8257H20.7655C20.501 10.0546 20.2655 9.34036 19.9891 8.51239H19.9957Z" fill="#92210F"/>
<path d="M9.61566 22.5166C11.3325 22.5166 13.0519 22.5166 14.774 22.5166C15.4353 22.5166 15.84 22.8406 15.8321 23.3578C15.8242 23.875 15.4353 24.1884 14.7555 24.1884C11.3051 24.1884 7.85478 24.1884 4.40444 24.1884C3.7246 24.1884 3.34632 23.8802 3.35691 23.3419C3.36749 22.8036 3.72592 22.5179 4.41502 22.5166H9.61566Z" fill="#92210F"/>
<path d="M9.60904 26.6884C11.3726 26.6884 13.1387 26.6884 14.9076 26.6884C15.3123 26.6884 15.6747 26.8392 15.7421 27.236C15.7838 27.5466 15.7047 27.8614 15.5213 28.1155C15.3811 28.2901 15.0226 28.3457 14.7568 28.3523C13.7674 28.3787 12.7728 28.3628 11.7861 28.3628H4.55389C4.3891 28.3686 4.22412 28.3611 4.06054 28.3404C3.85319 28.3138 3.66401 28.2085 3.53225 28.0462C3.4005 27.8839 3.33628 27.6771 3.35293 27.4687C3.35847 27.2594 3.44653 27.0608 3.5979 26.9161C3.74928 26.7714 3.9517 26.6924 4.16106 26.6963C4.78667 26.6765 5.41493 26.6963 6.04186 26.6963L9.60904 26.6884Z" fill="#92210F"/>
<path d="M9.61432 18.3583C11.3329 18.3583 13.0523 18.3583 14.7726 18.3583C15.434 18.3583 15.84 18.681 15.8308 19.1981C15.8215 19.7153 15.426 20.0314 14.7541 20.0314C11.3029 20.0314 7.85212 20.0314 4.40178 20.0314C3.72326 20.0314 3.35027 19.7206 3.35292 19.1836C3.35556 18.6466 3.72458 18.3583 4.41104 18.3583C6.1437 18.3565 7.87813 18.3565 9.61432 18.3583Z" fill="#92210F"/>
<path d="M9.60375 30.8494C11.3536 30.8494 13.1035 30.8494 14.8533 30.8494C15.4432 30.8494 15.8241 31.1854 15.8268 31.6761C15.8294 32.1668 15.4512 32.4974 14.8613 32.5186C14.7621 32.5186 14.6629 32.5186 14.5637 32.5186H4.60944C4.45998 32.5186 4.31052 32.5265 4.16371 32.512C3.6492 32.4591 3.32912 32.1073 3.35293 31.6311C3.37541 31.1761 3.69946 30.8574 4.20471 30.8521C5.3607 30.8388 6.51669 30.8521 7.67269 30.8521L9.60375 30.8494Z" fill="#92210F"/>
<path d="M5.00756 12.5203C5.77998 12.5203 6.47172 12.5203 7.16347 12.5203C7.34465 12.5153 7.52579 12.5317 7.70311 12.5693C7.89896 12.6126 8.07114 12.7285 8.185 12.8937C8.29886 13.0588 8.34596 13.261 8.31681 13.4594C8.25465 13.8893 7.99144 14.1684 7.56158 14.1776C6.42146 14.2001 5.28134 14.1975 4.14122 14.1776C4.0362 14.182 3.93143 14.1644 3.8336 14.126C3.73577 14.0875 3.64704 14.0291 3.57309 13.9544C3.49914 13.8797 3.44159 13.7904 3.40414 13.6922C3.36668 13.594 3.35014 13.489 3.35557 13.384C3.34323 10.8719 3.34323 8.35887 3.35557 5.84496C3.35176 5.73685 3.37047 5.62913 3.41051 5.52864C3.45055 5.42814 3.51104 5.33708 3.58815 5.26121C3.66527 5.18534 3.75731 5.12634 3.85844 5.08794C3.95957 5.04954 4.06758 5.03258 4.17561 5.03814C4.65176 5.03814 4.99168 5.36352 4.99962 5.90316C5.01946 7.19274 5.00888 8.48231 5.00888 9.77057C5.00888 10.6739 5.00756 11.5628 5.00756 12.5203Z" fill="#92210F"/>
<path d="M23.0762 18.3583C24.2983 18.3583 25.5204 18.3583 26.7412 18.3583C27.3787 18.3583 27.7583 18.6731 27.7623 19.1849C27.7662 19.6968 27.3814 20.0288 26.7544 20.0301C24.2784 20.0354 21.802 20.0354 19.3251 20.0301C18.6969 20.0301 18.3252 19.6928 18.3358 19.173C18.3464 18.6532 18.7035 18.3609 19.3119 18.3596C20.5671 18.3556 21.8236 18.3583 23.0762 18.3583Z" fill="#92210F"/>
<path d="M21.608 30.8496C22.3844 30.8496 23.1621 30.8496 23.9385 30.8496C24.4954 30.8496 24.8644 31.1842 24.8763 31.6591C24.8882 32.1339 24.5205 32.5082 23.9756 32.5122C22.3884 32.5272 20.8012 32.5272 19.214 32.5122C18.6612 32.5122 18.3173 32.1379 18.3345 31.6472C18.3517 31.1763 18.6916 30.8536 19.2273 30.8536C20.0209 30.8496 20.8144 30.8496 21.608 30.8496Z" fill="#92210F"/>
<path d="M20.8594 28.3615C20.3475 28.3615 19.8357 28.3615 19.3251 28.3615C18.6942 28.3496 18.3252 28.0229 18.3358 27.5017C18.3464 26.9806 18.7008 26.6936 19.3119 26.691C20.3506 26.6857 21.3898 26.6857 22.4294 26.691C22.9862 26.691 23.3552 27.0164 23.379 27.4846C23.4028 27.9528 23.018 28.3377 22.4426 28.3549C21.9149 28.3721 21.3871 28.3601 20.8594 28.3615Z" fill="#92210F"/>
<path d="M20.7655 24.195C20.255 24.195 19.7431 24.2069 19.2339 24.195C18.6797 24.1778 18.3319 23.8379 18.3358 23.3511C18.3398 22.8644 18.689 22.5337 19.2485 22.5284C20.2696 22.5179 21.2906 22.5179 22.3117 22.5284C22.8672 22.5284 23.2138 22.875 23.2098 23.367C23.2058 23.859 22.8553 24.1712 22.2958 24.1989H20.7655V24.195Z" fill="#92210F"/>
</svg>
