<svg width="50" height="50" viewBox="0 0 50 50" fill="none" xmlns="http://www.w3.org/2000/svg">
<path d="M44.7945 36.6309L48.6082 32.5309C49.0195 32.9073 49.3973 33.2555 49.7911 33.6184C48.5262 34.9842 47.3016 36.3204 46.0554 37.6377C45.8121 37.8958 45.7785 38.076 45.9439 38.4093C46.804 40.1544 47.002 42.1523 46.501 44.0322C46.0001 45.9121 44.8342 47.5466 43.2197 48.6322C41.6053 49.7179 39.6518 50.1811 37.7218 49.9359C35.7918 49.6907 34.0162 48.7537 32.7245 47.2989C32.582 47.1219 32.3991 46.9819 32.1911 46.8907C31.983 46.7994 31.7561 46.7596 31.5295 46.7746C21.953 46.789 12.3765 46.7926 2.80006 46.7854C0.93961 46.7854 0 45.8552 0 44.0095V2.77589C0 0.930226 0.940955 0 2.80006 0H40.7524C42.6343 0 43.5538 0.924846 43.5538 2.82293C43.5538 13.4873 43.5507 24.1558 43.5444 34.8282C43.5444 35.2826 43.6237 35.6227 44.0149 35.8942C44.2864 36.0851 44.5055 36.3499 44.7945 36.6309ZM24.2275 11.3173V45.1481H31.2579C28.4498 38.4645 35.1979 31.6908 41.9071 34.4935V11.3119L24.2275 11.3173ZM1.60772 11.3173V44.0082C1.60772 44.933 1.84295 45.1682 2.7678 45.1682H22.5539V11.3159L1.60772 11.3173ZM1.60772 9.64636H41.9353V2.81487C41.9353 1.82818 41.7175 1.6131 40.7174 1.6131H2.82966C2.69523 1.6131 2.56081 1.6131 2.42638 1.6131C1.94648 1.64805 1.61983 1.93438 1.61983 2.41024C1.60908 4.81242 1.61579 7.21192 1.61579 9.64501L1.60772 9.64636ZM44.527 39.2818C42.5268 41.4326 40.5588 43.5511 38.5653 45.6939L35.5972 40.743L36.9763 39.9176L38.8476 43.0228L43.6546 37.8448C41.6463 35.2517 37.7009 34.7355 35.003 36.6685C32.1182 38.7333 31.395 42.5698 33.3375 45.5097C35.2382 48.3864 39.1178 49.2615 42.0496 47.4548C45.2274 45.503 45.7974 41.7162 44.5351 39.2804L44.527 39.2818Z" fill="white"/>
</svg>
