<svg width="50" height="50" viewBox="0 0 50 50" fill="none" xmlns="http://www.w3.org/2000/svg">
<path d="M30.6626 49.9698H0V4.80486H10.4755V0H41.117V11.8726C41.117 16.7866 41.1204 21.7007 41.1271 26.6147C41.1271 26.8224 41.2188 27.1106 41.37 27.2195C42.0346 27.7154 42.7254 28.1754 43.4393 28.5974C43.778 28.7989 44.1932 28.9572 44.5773 28.9652C46.3825 28.9995 48.1887 28.9753 49.994 28.9723V30.6324C48.4004 30.6324 46.8058 30.6042 45.2123 30.6324C44.1171 30.6621 43.0414 30.3388 42.1441 29.7101C40.4558 28.551 38.7383 27.4352 37.0389 26.2922C36.5466 25.9388 35.9511 25.7587 35.3455 25.7801C35.2175 25.7862 35.0159 25.892 34.9857 25.9928C34.766 26.7185 34.5825 27.4553 34.3809 28.2103C34.5311 28.2506 34.64 28.2778 34.7468 28.3111C36.3232 28.7717 37.0056 30.6132 36.0914 31.9629C35.537 32.7803 34.7216 33.0545 33.7731 33.0514C31.1706 33.0454 28.5681 33.0454 25.9656 33.0514C25.6088 33.0514 25.249 33.0515 24.8942 33.0837C23.7189 33.1996 22.7684 34.2993 22.8783 35.4524H23.3984C25.0907 35.4524 26.7831 35.4866 28.4734 35.4443C30.6385 35.3753 32.7969 35.7205 34.8325 36.4613C36.8695 37.2082 38.955 37.2354 41.0706 36.7204C43.1329 36.2164 45.1609 35.5219 47.3199 35.4776C48.2129 35.4594 49.107 35.4443 50 35.4272V37.0872C46.9469 36.8453 44.032 37.5227 41.1069 38.4157V45.1417H30.6626V49.9698ZM1.64698 6.41757V48.3157H28.9794V41.9123C28.0067 41.6099 28.2486 42.5049 27.9714 42.894L26.4655 42.511C26.523 42.2771 26.6147 42.0735 26.6087 41.874C26.6026 41.6744 26.5583 41.4143 26.4272 41.3075C25.3629 40.4437 25.0091 39.3692 25.3689 38.0508C25.4526 37.7485 25.5272 37.432 25.6179 37.0731H23.3177C21.8996 37.0731 21.4742 36.7456 21.1345 35.3899C20.7314 35.3899 20.3131 35.4624 19.925 35.3778C19.5064 35.2865 19.1185 35.0884 18.7991 34.8028C18.4796 34.5173 18.2395 34.1539 18.102 33.7481C17.9646 33.3423 17.9344 32.9078 18.0145 32.4869C18.0947 32.066 18.2823 31.6729 18.5593 31.346C18.9775 30.842 19.4664 30.3905 20.0208 29.8069H16.9546V28.1942C18.4 28.1942 19.8131 28.1942 21.2263 28.1942C21.3845 28.1942 21.5972 28.2184 21.6919 28.1307C22.1959 27.667 22.6717 27.1721 23.1565 26.6873L23.094 26.5724H16.9455V24.9728H17.4939C19.8534 24.9728 22.213 24.9728 24.5726 24.9667C24.7802 24.9748 24.9861 24.9275 25.1693 24.8297C25.8869 24.3719 26.7267 24.1431 27.5773 24.1735C28.043 24.1836 28.5097 24.1735 28.9804 24.1735V6.41354H13.6989C13.6989 5.99524 13.6989 5.62432 13.6989 5.2534C13.6989 5.1274 13.7191 5.00141 13.7302 4.85929H30.6475V18.1047C30.7554 17.9837 30.8292 17.8362 30.8612 17.6773C31.5143 15.2623 32.1668 12.8472 32.8186 10.4322C33.2994 8.66024 34.8043 7.73193 36.5823 8.09983C38.2575 8.44757 39.2503 10.1076 38.7887 11.8383C37.7384 15.7783 36.672 19.7133 35.6116 23.6514C35.5713 23.8046 35.5401 23.9598 35.4897 24.1765C37.1225 24.116 38.198 25.2167 39.4771 25.9586V1.63287H12.0862V6.41757H1.64698ZM31.9478 37.2687C31.8903 37.4562 31.847 37.5922 31.8066 37.7283C31.5748 38.5216 31.3621 39.3219 31.1011 40.107C31.0003 40.4094 30.6929 40.6675 30.6717 40.9598C30.6122 41.7953 30.6505 42.638 30.6505 43.4796H39.4892V38.574C36.8262 39.0094 34.4303 37.9843 31.9478 37.2687ZM31.8399 31.4055C32.8922 27.5138 33.9394 23.6443 34.9917 19.7446L32.2259 18.8253C31.089 23.0335 29.9621 27.2034 28.8272 31.4055H31.8399ZM28.6598 25.8245C27.2044 25.6078 26.0835 25.9505 25.1048 27.0018C23.5002 28.7254 21.7887 30.3502 20.1246 32.0183C19.98 32.1487 19.8511 32.2955 19.7406 32.4557C19.5138 32.8257 19.5269 33.2047 19.8242 33.5322C19.9484 33.6864 20.1241 33.7905 20.3189 33.8254C20.5138 33.8602 20.7147 33.8234 20.8846 33.7217C21.0658 33.612 21.2298 33.4761 21.3714 33.3186C22.626 32.07 23.8788 30.8178 25.13 29.5619C25.8356 28.8564 26.651 28.3585 27.671 28.2516C27.8071 28.2375 28.0148 28.1377 28.047 28.0339C28.2708 27.3122 28.4562 26.5774 28.6598 25.8245ZM36.292 14.9478C36.6276 13.6959 36.9723 12.4803 37.2737 11.2537C37.4098 10.7003 37.2022 10.2236 36.7274 9.89295C35.8757 9.29827 34.7014 9.74277 34.3991 10.7789C34.1894 11.4946 34.005 12.2183 33.8124 12.94C33.7117 13.3079 33.627 13.6798 33.5302 14.0648C34.4031 14.3571 35.2165 14.6313 36.0309 14.9024C36.1171 14.9221 36.2042 14.9372 36.292 14.9478ZM30.3219 37.0762C29.7504 37.0762 29.2515 37.0691 28.7526 37.0762C28.2698 37.0852 27.6358 36.932 27.3415 37.177C27.024 37.4461 27.0068 38.0841 26.8889 38.5719C26.7054 39.3239 27.0572 39.9831 27.7376 40.2149C28.5167 40.48 29.3503 40.1816 29.6174 39.464C29.8956 38.708 30.078 37.9188 30.3219 37.0731V37.0762ZM35.409 18.1843L35.8576 16.5434L33.0918 15.6271C32.9386 16.2047 32.8035 16.7157 32.6563 17.2671L35.409 18.1843ZM33.5101 31.4337C33.8195 31.4166 34.0533 31.4337 34.269 31.3853C34.4488 31.3544 34.6104 31.2575 34.7223 31.1135C34.8342 30.9696 34.8883 30.789 34.8738 30.6072C34.8678 30.2191 34.6722 29.944 34.2922 29.8744C34.2112 29.8752 34.1318 29.8965 34.0613 29.9363C33.9908 29.9762 33.9315 30.0332 33.889 30.1022C33.7348 30.5074 33.6431 30.9378 33.5101 31.4307V31.4337ZM25.5473 31.4226C26.0886 31.4226 26.4918 31.4377 26.8929 31.4125C26.9564 31.4026 27.0167 31.3781 27.0691 31.3411C27.1216 31.304 27.1647 31.2553 27.1953 31.1988C27.3263 30.8047 27.415 30.3925 27.533 29.945C26.6691 30.1486 26.2095 30.7957 25.5513 31.4196L25.5473 31.4226Z" fill="white"/>
<path d="M3.23743 16.0668V8.08691H24.1734V16.0668H3.23743ZM22.5466 9.67442H4.88038V14.4581H22.5466V9.67442Z" fill="white"/>
<path d="M9.63996 22.5426H4.89155V28.9581H11.294V25.7993H12.8634V30.592H3.24658V20.9863H9.63794L9.63996 22.5426Z" fill="white"/>
<path d="M4.87751 42.6923H11.286V39.5304H12.8604V44.2788H3.25977V34.6802H9.64307V36.2717H4.87751V42.6923Z" fill="white"/>
<path d="M7.98381 39.2866L15.5535 31.7271L16.6017 32.7925L8.05134 41.3338L6.01025 39.2856L7.13713 38.2132C7.34175 38.4732 7.63103 38.8421 7.98381 39.2866Z" fill="white"/>
<path d="M8.05447 27.6215L5.95795 25.5229L7.09692 24.4071L8.00407 25.5038L15.5435 17.9714L16.6179 19.061L8.05447 27.6215Z" fill="white"/>
<path d="M16.9547 23.3199V21.7737H27.3858V23.3199H16.9547Z" fill="white"/>
<path d="M15.3479 45.9158V44.3455H24.1644V45.9158H15.3479Z" fill="white"/>
<path d="M27.4121 44.3516V45.9038H25.8336V44.3516H27.4121Z" fill="white"/>
<path d="M8.01425 12.8522H6.47815V11.311H8.01425V12.8522Z" fill="white"/>
<path d="M11.2678 11.3049V12.841H9.69739V11.3049H11.2678Z" fill="white"/>
<path d="M12.9158 12.837V11.308H14.4922V12.837H12.9158Z" fill="white"/>
<path d="M16.1482 11.2961H17.7145V12.8373H16.1482V11.2961Z" fill="white"/>
<path d="M19.3737 12.8311V11.2991H20.934V12.8311H19.3737Z" fill="white"/>
</svg>
