<svg width="25" height="26" viewBox="0 0 25 26" fill="none" xmlns="http://www.w3.org/2000/svg">
<path d="M6.39995 0C6.76604 0.0716538 7.13994 0.115948 7.49691 0.218869C9.49083 0.796659 10.7161 2.16003 11.3786 4.0784C11.6402 4.84233 11.7723 5.64461 11.7694 6.4521C11.7733 11.1578 11.7733 15.8637 11.7694 20.5698C11.7696 20.6354 11.7635 20.7008 11.7512 20.7653C11.5466 19.3393 10.892 18.1727 9.7527 17.2901C8.6134 16.4074 7.308 16.1286 5.86255 16.2341V0H6.39995Z" fill="white"/>
<path d="M0 5.8623H1.46239V22.0821H1.749C3.58073 22.0821 5.41246 22.0971 7.2442 22.0776C8.66685 22.0619 9.93512 22.4729 11.0536 23.3452C11.2285 23.4896 11.451 23.5637 11.6776 23.553C12.2391 23.5367 12.8013 23.538 13.3628 23.553C13.5734 23.5622 13.7799 23.4925 13.9419 23.3575C14.7444 22.7316 15.6394 22.3029 16.6523 22.1544C16.9661 22.108 17.2829 22.0843 17.6001 22.0834C19.4807 22.0769 21.3613 22.0802 23.2419 22.0802H23.5357V7.34488H25V23.5478H24.7036C22.3677 23.5478 20.0311 23.5549 17.6946 23.5478C16.4302 23.5425 15.3626 23.9822 14.4669 24.8688C14.3764 24.9541 14.2583 25.0043 14.134 25.0101C13.0514 25.0206 11.9688 25.0206 10.8862 25.0101C10.7616 25.005 10.643 24.9558 10.5513 24.8714C9.66023 23.9777 8.59064 23.5425 7.32692 23.5478C4.88483 23.5569 2.44144 23.5478 0 23.5478L0 5.8623Z" fill="white"/>
<path d="M22.0726 4.40873V20.6155H21.812C20.4206 20.6155 19.0286 20.607 17.6372 20.6155C16.0739 20.6233 14.6317 21.0213 13.3641 21.9665C13.338 21.9854 13.3087 21.9991 13.2377 22.0401V21.7411C13.2377 16.7683 13.2377 11.796 13.2377 6.82411C13.2377 6.48277 13.2247 6.14014 13.196 5.80011C13.1823 5.63791 13.2292 5.55323 13.3712 5.47441C14.5164 4.84646 15.7391 4.45498 17.0418 4.4211C18.7088 4.37876 20.377 4.40873 22.0726 4.40873Z" fill="white"/>
<path d="M4.38848 17.6851C5.1643 17.6851 5.89582 17.6806 6.62799 17.6851C7.47804 17.6882 8.30107 17.9841 8.95849 18.523C9.61591 19.0619 10.0676 19.8109 10.2374 20.6438C10.2732 20.8151 10.2869 20.9916 10.3058 21.133C9.70129 20.9851 9.11568 20.8171 8.51965 20.7044C8.13411 20.641 7.74365 20.6124 7.353 20.619C5.97724 20.6093 4.60149 20.6151 3.22509 20.6151H2.94629V2.94531H4.38848V17.6851Z" fill="white"/>
</svg>
