<svg width="50" height="46" viewBox="0 0 50 46" fill="none" xmlns="http://www.w3.org/2000/svg">
<path d="M30.1724 3.13135H19.8276C19.5989 3.13135 19.3797 3.22217 19.218 3.38384C19.0563 3.54551 18.9655 3.76478 18.9655 3.99342V7.82962C18.9655 8.64128 19.2879 9.41969 19.8619 9.99361C20.4358 10.5675 21.2142 10.89 22.0259 10.89H27.9741C28.7858 10.89 29.5642 10.5675 30.1381 9.99361C30.7121 9.41969 31.0345 8.64128 31.0345 7.82962V3.99342C31.0345 3.76478 30.9437 3.54551 30.782 3.38384C30.6203 3.22217 30.401 3.13135 30.1724 3.13135Z" fill="#424A4D"/>
<path d="M35.4225 2.1744L25.1811 0.0192229C25.0618 -0.00640765 24.9384 -0.00640765 24.8191 0.0192229L14.5777 2.1744C14.349 2.16868 14.1275 2.25402 13.9618 2.41165C13.7961 2.56928 13.6998 2.78628 13.6941 3.01491C13.6883 3.24355 13.7737 3.46509 13.9313 3.6308C14.0889 3.79651 14.3059 3.89282 14.5346 3.89853L24.7846 6.57957C24.9262 6.61394 25.074 6.61394 25.2156 6.57957L35.4656 3.85543C35.6552 3.80738 35.8228 3.6963 35.9409 3.54044C36.059 3.38458 36.1206 3.19319 36.1156 2.99769C36.1106 2.8022 36.0392 2.61422 35.9133 2.46462C35.7873 2.31501 35.6143 2.21267 35.4225 2.1744Z" fill="#1F2526"/>
<path d="M49.1379 16.0625H0.862069C0.385961 16.0625 0 16.4485 0 16.9246V44.5108C0 44.9869 0.385961 45.3728 0.862069 45.3728H49.1379C49.614 45.3728 50 44.9869 50 44.5108V16.9246C50 16.4485 49.614 16.0625 49.1379 16.0625Z" fill="#0A51AD"/>
<path d="M49.1379 16.0625H25V45.3728H49.1379C49.3666 45.3728 49.5858 45.282 49.7475 45.1204C49.9092 44.9587 50 44.7394 50 44.5108V16.9246C50 16.6959 49.9092 16.4767 49.7475 16.315C49.5858 16.1533 49.3666 16.0625 49.1379 16.0625Z" fill="#1E7EEB"/>
<path d="M45.6897 13.4763V38.4763C45.6897 38.705 45.5989 38.9242 45.4372 39.0859C45.2755 39.2476 45.0562 39.3384 44.8276 39.3384H34.2414C31.6981 39.3364 29.1894 39.9267 26.9138 41.0625C24.569 42.0798 25.6293 42.3125 23.0862 41.0625C20.8107 39.9267 18.3019 39.3364 15.7586 39.3384H5.17243C4.9438 39.3384 4.72453 39.2476 4.56286 39.0859C4.40119 38.9242 4.31036 38.705 4.31036 38.4763V13.4763C4.31036 13.2477 4.40119 13.0284 4.56286 12.8668C4.72453 12.7051 4.9438 12.6143 5.17243 12.6143H15.7586C15.9655 12.6143 16.1724 12.6143 16.3793 12.6143C19.4059 12.7525 22.3581 13.5968 25 15.0798C27.822 13.4887 31.0019 12.6403 34.2414 12.6143H44.8276C45.0562 12.6143 45.2755 12.7051 45.4372 12.8668C45.5989 13.0284 45.6897 13.2477 45.6897 13.4763Z" fill="#F08F1F"/>
<path d="M16.3793 12.6143V27.2694C16.3785 27.4247 16.3358 27.5768 16.2557 27.7098C16.1756 27.8428 16.0611 27.9517 15.9242 28.025C15.7874 28.0982 15.6333 28.1332 15.4782 28.1262C15.3231 28.1191 15.1728 28.0703 15.0431 27.9849L12.9311 26.5798L10.819 27.9849C10.6893 28.0703 10.539 28.1191 10.3839 28.1262C10.2289 28.1332 10.0748 28.0982 9.93789 28.025C9.80104 27.9517 9.68651 27.8428 9.6064 27.7098C9.5263 27.5768 9.48359 27.4247 9.48279 27.2694V12.6143C16.3793 12.6143 16.0862 12.6143 16.3793 12.6143Z" fill="#008ABD"/>
<path d="M44.8276 12.6143H34.2414C31.0003 12.6456 27.8204 13.4999 25 15.097V41.9246C25.3793 41.9246 25.6638 41.6143 26.9138 41.0625C29.1893 39.9267 31.6981 39.3364 34.2414 39.3384H44.8276C45.0562 39.3384 45.2755 39.2476 45.4372 39.0859C45.5988 38.9242 45.6897 38.705 45.6897 38.4763V13.4763C45.6897 13.2477 45.5988 13.0284 45.4372 12.8668C45.2755 12.7051 45.0562 12.6143 44.8276 12.6143Z" fill="#FFD138"/>
<path d="M40.5173 33.3037H30.1724V35.0278H40.5173V33.3037Z" fill="#008ABD"/>
<path d="M37.181 29.8555H30.1724V31.5796H37.181V29.8555Z" fill="#008ABD"/>
<path d="M40.5173 26.4072H30.1724V28.1314H40.5173V26.4072Z" fill="#008ABD"/>
<path d="M37.181 22.959H30.1724V24.6831H37.181V22.959Z" fill="#008ABD"/>
<path d="M40.5173 19.5107H30.1724V21.2349H40.5173V19.5107Z" fill="#008ABD"/>
<path d="M49.1379 16.0625H46.5517V45.3728H49.1379C49.3666 45.3728 49.5858 45.282 49.7475 45.1204C49.9092 44.9587 50 44.7394 50 44.5108V16.9246C50 16.6959 49.9092 16.4767 49.7475 16.315C49.5858 16.1533 49.3666 16.0625 49.1379 16.0625Z" fill="#31B6EB"/>
<path d="M0.862069 45.3728H3.44828V16.0625H0.862069C0.633434 16.0625 0.414163 16.1533 0.252494 16.315C0.0908248 16.4767 0 16.6959 0 16.9246V44.5108C0 44.7394 0.0908248 44.9587 0.252494 45.1204C0.414163 45.282 0.633434 45.3728 0.862069 45.3728Z" fill="#003996"/>
<path d="M44.8276 12.6143H42.2414V39.3384H44.8276C45.0562 39.3384 45.2755 39.2476 45.4372 39.0859C45.5988 38.9242 45.6897 38.705 45.6897 38.4763V13.4763C45.6897 13.2477 45.5988 13.0284 45.4372 12.8668C45.2755 12.7051 45.0562 12.6143 44.8276 12.6143Z" fill="#FFE37E"/>
<path d="M5.17243 39.3384H7.75864V12.6143H5.17243C4.9438 12.6143 4.72453 12.7051 4.56286 12.8668C4.40119 13.0284 4.31036 13.2477 4.31036 13.4763V38.4763C4.31036 38.705 4.40119 38.9242 4.56286 39.0859C4.72453 39.2476 4.9438 39.3384 5.17243 39.3384Z" fill="#F26C24"/>
</svg>
