<svg width="60" height="60" viewBox="0 0 60 60" fill="none" xmlns="http://www.w3.org/2000/svg">
<path d="M0 31.3746C0 22.1139 0 12.8525 0 3.59067C0 1.74118 1.87781 0 3.79228 0H34.3854C40.2538 0 46.1205 0.00499861 51.9856 0.0149958C51.9984 1.55966 51.8662 3.10211 51.5907 4.62205C51.3891 5.7534 51.1008 6.86976 50.8525 7.99278L43.7012 8.0311L43.3213 7.25632C42.5664 5.91458 41.3245 4.91446 39.8527 4.46297C38.3809 4.01148 36.7918 4.14318 35.4144 4.83082C34.037 5.51846 32.9767 6.70938 32.453 8.15709C31.9293 9.60479 31.9822 11.1984 32.6009 12.6082C33.3274 14.1077 34.5487 15.0525 36.025 15.719C36.015 15.9889 35.9983 16.2572 35.9967 16.5271L35.9867 26.6159C35.8675 26.6474 35.7515 26.6898 35.6401 26.7426C33.2153 28.1881 30.6597 29.402 28.0072 30.3682C28.0072 30.0966 27.9989 29.8267 27.9989 29.5568C27.9989 22.6043 28.0022 15.6512 28.0089 8.69758C28.0089 8.16773 27.9039 7.96279 27.3291 7.98778C26.2277 8.0361 25.123 7.99778 24.0183 8.00278C21.2502 8.01055 18.4826 8.02055 15.7156 8.03277L15.3574 7.30964C14.6206 5.93355 13.3764 4.89888 11.889 4.42536C10.4016 3.95184 8.78825 4.07677 7.39151 4.77363C5.99476 5.47048 4.92467 6.68437 4.4085 8.15748C3.89232 9.6306 3.97072 11.2469 4.62705 12.6631C5.35684 14.1377 6.56318 15.0658 8.02777 15.714C8.01777 15.8173 7.99944 15.9206 7.99944 16.0239C7.99944 21.1658 7.99944 26.306 7.98611 31.4479C7.98611 31.9745 8.22105 32.0011 8.62927 32.0011C13.0414 31.9944 17.454 31.9944 21.8673 32.0011C21.8356 32.0278 21.8073 32.0711 21.7723 32.0778C19.3003 32.5729 16.7933 32.8732 14.2744 32.9758C12.2008 33.0513 10.1246 32.9801 8.06109 32.7626C6.21193 32.5743 4.37344 32.2929 2.55262 31.9195C1.69953 31.7479 0.883088 31.4246 0 31.3746Z" fill="#C6E1FB"/>
<path d="M20.9775 45.9987L4.33213 45.987C1.6662 45.987 0 44.3208 0 41.6782C0 39.7854 0.00999722 37.8943 0.0149958 36.0015C0.306582 36.0015 0.598167 36.0015 0.889753 36.0015H55.4079C56.9275 36.0015 58.4471 36.0015 59.9667 36.0015C59.9667 38.0592 60.0133 40.1187 59.9667 42.1764C59.92 44.3325 58.1339 45.9837 55.9061 45.987C50.521 45.9959 45.1336 45.9959 39.744 45.987C39.494 45.987 39.2441 45.987 38.9958 45.9954L20.9775 45.9987ZM52.0355 41.0001C50.9858 41.0001 50.9858 41.0001 50.9858 41.7932C50.9858 42.9879 50.9858 42.9879 51.8189 42.9879C52.9936 42.9879 52.9936 42.9879 52.9936 42.1314C52.9853 40.9884 52.9853 40.9884 52.0355 40.9884V41.0001ZM54.9847 41.9498C54.9847 42.9995 54.9847 42.9995 55.7778 42.9995C56.9842 42.9995 56.9842 42.9995 56.9842 42.1747C56.9842 41.0084 56.9842 41.0084 56.1277 41.0084C54.9847 40.9884 54.9847 40.9884 54.9847 41.9415V41.9498Z" fill="#88919F"/>
<path d="M59.9668 36.0014C58.4472 36.0014 56.9277 36.0014 55.4081 36.0014H0.889894C0.598308 36.0014 0.306722 36.0014 0.0151367 36.0014C0.0151367 34.4608 0.0151367 32.9184 0.0151367 31.3744C0.89156 31.4244 1.708 31.7476 2.55943 31.9209C4.38025 32.2944 6.21874 32.5758 8.0679 32.764C10.1314 32.9815 12.2076 33.0528 14.2812 32.9773C16.8001 32.8747 19.3071 32.5744 21.7791 32.0792C21.8141 32.0792 21.8424 32.0292 21.8741 32.0026C23.3637 32.0026 24.8532 32.0026 26.3428 31.9876C26.8727 31.9876 27.5408 32.2225 27.8941 31.8659C28.2273 31.5327 27.954 30.8779 28.0074 30.3663C30.6599 29.4002 33.2154 28.1862 35.6402 26.7407C35.7516 26.6879 35.8676 26.6455 35.9868 26.6141C35.9868 28.2169 36.0051 29.8198 35.9868 31.4227C35.9868 31.8426 36.0885 32.0026 36.54 32.0009C42.8482 31.9898 49.1554 31.9898 55.4614 32.0009C55.8696 32.0009 55.9963 31.8759 55.9963 31.466C55.9863 23.8259 55.9863 16.187 55.9963 8.54907C55.9963 8.10087 55.8446 7.9859 55.4214 7.9909C53.9018 8.00922 52.3823 7.9909 50.8627 7.9909C51.1109 6.86787 51.3992 5.75152 51.6008 4.62017C51.8729 3.10046 52.0018 1.55857 51.9857 0.0147782C53.442 0.0147782 54.8999 -0.011881 56.3562 0.0147782C58.124 0.0297741 59.9835 1.83261 59.9835 3.60045C59.9935 14.3752 59.9935 25.155 59.9835 35.9398C59.9718 35.9598 59.9685 35.9898 59.9668 36.0014Z" fill="#A0CCFA"/>
<path d="M39.0043 53.9852C39.9824 53.9852 40.9604 53.9852 41.9385 53.9952C42.3398 53.9885 42.7383 54.0624 43.1105 54.2125C43.4828 54.3626 43.8211 54.5859 44.1054 54.8692C44.3897 55.1524 44.6143 55.4898 44.7659 55.8615C44.9174 56.2331 44.9928 56.6314 44.9876 57.0327C44.996 57.8241 44.961 58.6156 44.9993 59.4037C45.021 59.8686 44.8893 60.0035 44.4145 59.9985C42.1251 59.9735 39.8357 59.9869 37.548 59.9869C30.2634 59.9869 22.9799 59.9913 15.6974 60.0002C15.1209 60.0002 14.9493 59.8486 14.9843 59.2804C15.0343 58.4923 14.9843 57.6992 15.001 56.9094C15.022 56.1419 15.3367 55.4116 15.8801 54.8692C16.4235 54.3267 17.1543 54.0133 17.9218 53.9935C18.9399 53.9719 19.9613 53.9835 20.9793 53.9802L39.0043 53.9852Z" fill="#88929F"/>
<path d="M29.9916 55.6331C37.0312 55.6331 42.738 53.1064 42.738 49.9896C42.738 46.8728 37.0312 44.3462 29.9916 44.3462C22.9519 44.3462 17.2451 46.8728 17.2451 49.9896C17.2451 53.1064 22.9519 55.6331 29.9916 55.6331Z" fill="#9FA7B2"/>
<path d="M28.0008 30.368C27.9475 30.8779 28.2141 31.5343 27.8875 31.8676C27.5342 32.2241 26.8661 31.9825 26.3362 31.9892C24.8467 32.0109 23.3571 32.0009 21.8675 32.0042C17.4554 32.0042 13.0427 32.0042 8.62949 32.0042C8.22127 32.0042 7.98467 31.9775 7.98634 31.451C8.00633 26.3091 7.998 21.1689 7.99967 16.027C7.99967 15.9237 8.01799 15.8204 8.02799 15.7171C9.3134 16.0903 10.6779 16.0937 11.9652 15.7271C11.9752 16.9534 12.0069 18.1814 11.9852 19.4077C11.9852 19.8642 12.0969 20.0142 12.5751 20.0125C16.1963 19.9925 19.8175 19.9925 23.4387 20.0125C23.8753 20.0125 24.0052 19.8876 24.0019 19.4494C23.9819 17.2017 23.9702 14.9506 24.0019 12.7062C24.0119 12.1114 23.8186 11.9898 23.2654 11.9948C20.7478 12.0114 18.2302 11.9848 15.7125 11.9748C16.0799 10.6882 16.0765 9.32393 15.7025 8.0392C18.4695 8.0292 21.2371 8.0192 24.0052 8.00921C25.1099 8.00921 26.2146 8.04253 27.316 7.99421C27.8908 7.96922 27.9974 8.17416 27.9958 8.70401C27.9791 15.6576 27.9758 22.6107 27.9858 29.5632C27.9924 29.8248 27.9924 30.0964 28.0008 30.368ZM17.9636 24.9928H23.6487C25.0066 24.9928 24.9816 24.9928 25.0049 23.6032C25.0149 23.0933 24.8467 22.9817 24.3668 22.9834C20.3679 23.0017 16.369 22.9934 12.3701 22.9934C10.9738 22.9934 10.9955 22.9934 10.9822 24.4146C10.9822 24.8945 11.1321 25.0078 11.5887 25.0028C13.7147 24.9928 15.8392 24.9928 17.9636 24.9928ZM18.0152 26.9923H12.3301C10.9972 26.9923 11.0222 26.9923 10.9805 28.3252C10.9622 28.9101 11.1755 28.9917 11.6953 28.9917C15.6725 28.9717 19.6514 28.98 23.6287 28.98C25.0033 28.98 24.9766 28.98 25.0066 27.6121C25.0183 27.0622 24.82 26.9639 24.3251 26.9706C22.2224 27.0106 20.1196 26.9923 18.0152 26.9923Z" fill="#BEBEBE"/>
<path d="M50.8594 7.99756C52.379 7.99756 53.8986 8.01589 55.4182 7.99756C55.8414 7.99756 55.993 8.10753 55.993 8.55574C55.9819 16.1958 55.9819 23.8348 55.993 31.4727C55.993 31.8826 55.8664 32.0076 55.4582 32.0076C49.1521 31.9965 42.845 31.9965 36.5367 32.0076C36.0852 32.0076 35.9786 31.8493 35.9836 31.4294C36.0002 29.8265 35.9836 28.2236 35.9836 26.6207L35.9902 16.5269C35.9902 16.2569 36.0086 15.9887 36.0186 15.7187C37.307 16.0861 38.6724 16.0861 39.9608 15.7187C39.9708 16.9451 39.9991 18.1731 39.9775 19.3994C39.9775 19.8576 40.0908 20.0059 40.5673 20.0042C44.1885 19.9842 47.8097 19.9842 51.4309 20.0042C51.8675 20.0042 51.9974 19.8793 51.9941 19.441C51.9741 17.195 51.9625 14.9423 51.9941 12.6996C52.0041 12.1048 51.8125 11.9815 51.2577 11.9865C48.74 12.0048 46.2224 11.9865 43.7047 11.9715C44.0721 10.6831 44.0721 9.31762 43.7047 8.02922L50.8594 7.99756ZM46.0174 22.9934H40.3324C38.9744 22.9934 38.9994 22.9934 38.9761 24.3847C38.9761 24.8945 39.1427 25.0045 39.6142 25.0028C43.6131 24.9862 47.612 24.9928 51.6109 24.9928C53.0088 24.9928 52.9872 24.9928 52.9988 23.5716C52.9988 23.0917 52.8489 22.9784 52.3923 22.9834C50.2663 23.0101 48.1419 22.9934 46.0174 22.9934ZM46.0174 26.9923H40.3324C38.9744 26.9923 38.9994 26.9923 38.9761 28.3819C38.9761 28.8918 39.1427 29.0034 39.6142 29.0017C43.6131 28.9851 47.612 28.9917 51.6109 28.9917C53.0088 28.9917 52.9872 28.9917 52.9988 27.5705C52.9988 27.0923 52.8489 26.9773 52.3923 26.9823C50.2663 27.0089 48.1419 26.9923 46.0191 26.9923H46.0174Z" fill="#BEBEBE"/>
<path d="M11.965 15.724C10.6777 16.0907 9.31319 16.0872 8.02778 15.714C6.56319 15.0659 5.36186 14.1378 4.62706 12.6632C3.99602 11.2513 3.93468 9.65022 4.45586 8.19418C4.97704 6.73813 6.04045 5.53965 7.42412 4.84889C8.80779 4.15813 10.4048 4.02848 11.8818 4.487C13.3587 4.94552 14.6015 5.95678 15.3507 7.30969L15.709 8.03282C16.0829 9.31755 16.0864 10.6818 15.719 11.9684C15.3803 12.816 14.8729 13.586 14.2276 14.2316C13.5823 14.8772 12.8125 15.3849 11.965 15.724ZM9.02584 12.9964C9.3874 12.9864 9.64067 12.7798 9.8806 12.5382C10.8226 11.5929 11.7667 10.6488 12.7131 9.70569C13.7295 8.68764 13.7129 8.70597 12.7231 7.68625C12.4082 7.36301 12.2233 7.31469 11.89 7.66959C11.0569 8.54935 10.1839 9.38078 9.34075 10.2455C9.11082 10.4805 8.95919 10.5538 8.6926 10.2755C8.38102 9.94229 8.0811 9.35579 7.69287 9.4191C7.30465 9.48242 6.98807 10.0139 6.63983 10.3405C6.61209 10.3716 6.5826 10.4011 6.55153 10.4288C6.30493 10.6204 6.35825 10.7854 6.56319 10.9853C7.13136 11.5352 7.68454 12.1017 8.24606 12.6515C8.34407 12.7611 8.46431 12.8486 8.59877 12.908C8.73323 12.9675 8.87882 12.9977 9.02584 12.9964Z" fill="#78B75C"/>
<path d="M43.7079 8.03114C44.0753 9.31954 44.0753 10.685 43.7079 11.9734C43.3685 12.8195 42.8612 13.588 42.2165 14.2326C41.5719 14.8773 40.8034 15.3846 39.9573 15.724C38.6689 16.0914 37.3034 16.0914 36.015 15.724C34.5388 15.0575 33.3174 14.1178 32.591 12.6132C31.9256 11.1958 31.8408 9.57443 32.3548 8.09538C32.8687 6.61634 33.9407 5.39689 35.3416 4.69752C36.7425 3.99814 38.3614 3.87429 39.8524 4.35241C41.3434 4.83052 42.5884 5.87271 43.3213 7.25636L43.7079 8.03114ZM39.2825 12.6632C39.3958 12.5715 39.4974 12.4966 39.584 12.4183C39.7945 12.1884 40.017 11.9698 40.2505 11.7634C40.6637 11.4419 40.6421 11.1986 40.2505 10.8387C39.3874 10.0256 39.3858 9.98226 40.2622 9.15916C40.6637 8.7826 40.5954 8.57432 40.2339 8.23108C39.2775 7.31134 39.2808 7.28468 38.351 8.21775C38.0728 8.49601 37.9112 8.53433 37.6096 8.23108C36.6682 7.28801 36.6732 7.32134 35.7268 8.21609C35.3302 8.59098 35.3069 8.80759 35.7268 9.19082C36.5765 9.9756 36.5699 10.0239 35.7268 10.8254C35.3652 11.1703 35.3152 11.3819 35.7068 11.7551C36.6832 12.6848 36.6732 12.7148 37.6362 11.7668C37.8995 11.5085 38.0745 11.4335 38.3294 11.7551C38.5347 11.9908 38.7545 12.2133 38.9875 12.4216C39.0708 12.5049 39.1725 12.5749 39.2825 12.6632Z" fill="#DF757C"/>
<path d="M52.0355 40.9888C52.9852 40.9888 52.9852 40.9888 52.9852 42.1318C52.9852 42.9882 52.9852 42.9882 51.8189 42.9882C50.9858 42.9882 50.9858 42.9882 50.9941 41.7819C50.9858 40.9888 50.9858 40.9888 52.0355 40.9888Z" fill="#FEFEFE"/>
<path d="M54.9849 41.9419C54.9849 40.9922 54.9849 40.9922 56.1279 40.9922C56.9843 40.9922 56.9843 40.9922 56.9843 42.1585C56.9843 42.9916 56.9843 42.9916 55.778 42.9833C54.9849 42.9883 54.9849 42.9883 54.9849 41.9419Z" fill="#FEFEFE"/>
<path d="M11.9648 15.7239C12.8123 15.3848 13.5821 14.877 14.2274 14.2315C14.8727 13.5859 15.3801 12.8159 15.7188 11.9683C18.2364 11.9783 20.7541 12.0049 23.2717 11.9883C23.8249 11.9883 24.0182 12.1049 24.0082 12.6997C23.9698 14.9474 23.9815 17.1985 24.0082 19.4429C24.0082 19.8811 23.8815 20.0094 23.445 20.006C19.8249 19.9916 16.2037 19.9916 12.5813 20.006C12.1031 20.006 11.9848 19.8577 11.9915 19.4012C12.0065 18.1782 11.9748 16.9502 11.9648 15.7239Z" fill="#FEFEFE"/>
<path d="M17.9632 24.9928C15.8388 24.9928 13.7144 24.9812 11.5899 25.0028C11.1334 25.0028 10.9801 24.8945 10.9835 24.4147C10.9968 22.9934 10.9835 22.9934 12.3714 22.9934C16.3703 22.9934 20.3692 22.9934 24.3681 22.9834C24.8479 22.9834 25.0162 23.0934 25.0062 23.6032C24.9829 24.9928 25.0062 24.9928 23.6499 24.9928H17.9632Z" fill="#FEFEFE"/>
<path d="M18.0148 26.9924C20.1192 26.9924 22.222 27.0074 24.3247 26.9824C24.8246 26.9824 25.0179 27.0741 25.0062 27.6239C24.9762 28.9919 25.0062 28.9919 23.6282 28.9919C19.651 28.9919 15.6721 28.9835 11.6949 29.0035C11.175 29.0035 10.9618 28.9152 10.9801 28.337C11.0217 27.0041 10.9801 27.0041 12.3297 27.0041L18.0148 26.9924Z" fill="#FEFEFE"/>
<path d="M39.9604 15.7238C40.8065 15.3844 41.5751 14.877 42.2197 14.2324C42.8643 13.5878 43.3717 12.8192 43.7111 11.9731C46.2287 11.9731 48.7463 12.0065 51.264 11.9881C51.8188 11.9881 52.0104 12.1064 52.0004 12.7013C51.9621 14.9473 51.9738 17.2 52.0004 19.4427C52.0004 19.8809 51.8738 20.0092 51.4373 20.0059C47.816 19.9915 44.1948 19.9915 40.5736 20.0059C40.0971 20.0059 39.9771 19.8593 39.9838 19.4011C39.9988 18.1781 39.9704 16.9501 39.9604 15.7238Z" fill="#FEFEFE"/>
<path d="M46.017 22.9934C48.1414 22.9934 50.2658 23.0067 52.3902 22.9834C52.8467 22.9834 53 23.0917 52.9967 23.5716C52.985 24.9928 53.0067 24.9928 51.6087 24.9928C47.6099 24.9928 43.611 24.9928 39.6121 25.0028C39.1339 25.0028 38.9656 24.8945 38.9739 24.3847C38.9973 22.9934 38.9739 22.9934 40.3302 22.9934H46.017Z" fill="#FEFEFE"/>
<path d="M46.0186 26.9924C48.1414 26.9924 50.2658 27.0057 52.3902 26.9824C52.8467 26.9824 53 27.0924 52.9967 27.5706C52.985 28.9919 53.0067 28.9919 51.6087 28.9919C47.6099 28.9919 43.611 28.9919 39.6121 29.0019C39.1339 29.0019 38.9656 28.8919 38.9739 28.382C38.9973 26.9924 38.9739 26.9924 40.3302 26.9924H46.0186Z" fill="#FEFEFE"/>
<path d="M9.02609 12.9963C8.87967 12.9992 8.7343 12.971 8.59959 12.9136C8.46487 12.8561 8.34389 12.7708 8.24464 12.6631C7.68313 12.1066 7.12995 11.5401 6.56177 10.9969C6.35683 10.7969 6.30351 10.632 6.55011 10.4404C6.58119 10.4126 6.61067 10.3831 6.63842 10.3521C6.98665 10.0188 7.3049 9.49729 7.69146 9.43064C8.07802 9.36399 8.3746 9.96216 8.69118 10.2871C8.95777 10.5653 9.1094 10.492 9.33933 10.2571C10.1824 9.39232 11.0622 8.56088 11.8886 7.68113C12.2219 7.32622 12.4085 7.37454 12.7217 7.69779C13.7214 8.71251 13.7214 8.69751 12.7117 9.71723C11.7687 10.6592 10.8245 11.6034 9.87918 12.5498C9.64092 12.7814 9.38765 12.9963 9.02609 12.9963Z" fill="#FAFCF9"/>
<path d="M39.2824 12.6632C39.1724 12.5748 39.0708 12.4965 38.9841 12.4199C38.7511 12.2116 38.5313 11.9891 38.326 11.7534C38.0711 11.4385 37.8961 11.5068 37.6328 11.7651C36.6698 12.7131 36.6798 12.6831 35.7034 11.7534C35.3118 11.3802 35.3618 11.1686 35.7234 10.8237C36.5748 10.0172 36.5815 9.9739 35.7234 9.18912C35.3085 8.80589 35.3318 8.58928 35.7234 8.21439C36.6698 7.31964 36.6648 7.28631 37.6062 8.22938C37.9078 8.53263 38.0694 8.49431 38.3476 8.21606C39.2774 7.28298 39.2741 7.30964 40.2305 8.22938C40.5887 8.57262 40.6603 8.7809 40.2588 9.15746C39.3824 9.98056 39.384 10.0239 40.2471 10.837C40.6303 11.1969 40.652 11.4402 40.2471 11.7617C40.0136 11.9681 39.7911 12.1867 39.5806 12.4166C39.4973 12.4965 39.3957 12.5715 39.2824 12.6632Z" fill="#FDFBFB"/>
</svg>
