<svg width="18" height="19" viewBox="0 0 18 19" fill="none" xmlns="http://www.w3.org/2000/svg">
<path d="M0 8.47314V7.45361C0.0276855 7.23959 0.0496579 7.0247 0.0834958 6.81201C0.391113 4.85556 1.27002 3.19794 2.79888 1.93759C5.16401 -0.0127013 7.85259 -0.531256 10.7112 0.566938C13.7949 1.75346 15.4969 4.09487 15.8225 7.39296C15.9645 8.83041 15.6731 10.2055 15.0144 11.4887C14.7379 12.027 14.3873 12.5275 14.0506 13.0777C14.0955 13.1086 14.138 13.1428 14.1776 13.1801C15.3261 14.3262 16.4725 15.4742 17.6168 16.6241C17.7689 16.7779 17.8734 16.9757 18 17.1567V17.4731C17.953 17.6023 17.8782 17.7195 17.7811 17.8167C17.6839 17.9139 17.5666 17.9886 17.4375 18.0356H17.1211C16.9427 17.9091 16.7423 17.8045 16.5885 17.6524C15.4934 16.5701 14.407 15.478 13.3189 14.3877C13.2113 14.2801 13.1111 14.168 13.0135 14.0612C12.9945 14.0682 12.9762 14.0767 12.9586 14.0867C12.9073 14.1254 12.8562 14.1645 12.8052 14.204C11.4706 15.2407 9.95757 15.8067 8.27139 15.8801C6.54653 15.9548 4.95088 15.5163 3.52222 14.5437C1.68926 13.2957 0.55415 11.5744 0.135351 9.39072C0.0764643 9.08749 0.0439453 8.779 0 8.47314ZM7.90269 14.4207C11.435 14.4646 14.3503 11.5669 14.3846 7.98139C14.4185 4.44291 11.5242 1.52495 7.94048 1.50605C4.42485 1.48715 1.48887 4.3291 1.46821 7.93437C1.44756 11.4509 4.28862 14.4005 7.90269 14.4207Z" fill="#313131"/>
</svg>
