<svg width="60" height="60" viewBox="0 0 60 60" fill="none" xmlns="http://www.w3.org/2000/svg">
<path d="M31.8857 0.0087872C32.3897 0.229941 32.9344 0.391043 33.3854 0.682497C34.5214 1.41479 34.9709 2.50152 34.9771 3.75814C34.9865 5.39849 34.9865 7.03884 34.9771 8.67918C34.9693 10.217 34.2874 11.377 32.8001 12.0975C32.7149 12.1522 32.6435 12.2239 32.5911 12.3074C32.5388 12.391 32.5068 12.4843 32.4974 12.5809C32.4678 13.4786 32.4631 14.3779 32.4974 15.2742C32.5284 15.5204 32.6328 15.7534 32.7986 15.9465C34.6369 18.2635 36.4628 20.5893 38.3432 22.8755C39.4463 24.1873 40.0259 25.8198 39.9818 27.4904C39.9522 30.4196 39.974 33.3488 39.974 36.278V37.0191C40.244 36.8829 40.4422 36.7891 40.6279 36.6881C42.2899 35.8005 43.9175 34.8529 45.6217 34.0328C51.4972 31.1915 58.8333 34.7211 59.8648 40.8534C60.5359 44.8459 58.6819 48.5308 54.8882 50.6076C49.9506 53.3097 44.9881 55.9694 40.0442 58.6628C38.7474 59.3702 37.3445 59.7481 35.8869 60H33.8832C33.7488 59.9565 33.6118 59.9208 33.4727 59.8931C30.6122 59.4757 28.337 58.1649 26.6937 55.9299C26.5868 55.7601 26.4308 55.6221 26.2439 55.5319C26.0569 55.4417 25.8466 55.403 25.6372 55.4202C19.3154 55.4334 12.9967 55.3763 6.67022 55.4481C2.90929 55.4905 -0.0401608 52.7737 0.000413627 49.1928C0.0768808 41.8947 0.0347449 34.5937 0.0128972 27.2927C-0.0143421 25.7415 0.524778 24.2282 1.54068 23.0044C3.43051 20.6771 5.28601 18.3294 7.15868 15.9743C7.34857 15.7518 7.46855 15.484 7.50512 15.201C7.54882 14.3442 7.53945 13.4831 7.50512 12.6263C7.49526 12.5211 7.46076 12.4194 7.40411 12.3282C7.34746 12.2371 7.27004 12.1588 7.1774 12.099C5.72921 11.3799 5.02072 10.2639 5.02384 8.73044C5.02384 7.05202 4.96922 5.37066 5.05193 3.69517C5.09694 2.98171 5.29548 2.28421 5.63557 1.64474C6.13495 0.698608 7.13527 0.288525 8.17304 0L31.8857 0.0087872ZM2.54724 46.0336C2.7189 46.0424 2.8219 46.0527 2.92333 46.0527C10.518 46.0527 18.1127 46.0473 25.7074 46.0366C25.8498 46.0232 25.9876 45.9819 26.1118 45.9153C26.236 45.8487 26.3439 45.7583 26.4284 45.6499C27.2087 44.5412 28.1232 43.557 29.3342 42.8672C31.8654 41.4421 34.42 40.0566 36.9809 38.6741C37.3507 38.4734 37.4959 38.2596 37.4927 37.8524C37.4725 35.0404 37.4818 32.2284 37.4818 29.4164V28.8613H2.54724V46.0336ZM37.5973 26.4623C37.2103 25.7578 36.9606 25.1134 36.547 24.5832C34.6931 22.2062 32.7861 19.8643 30.915 17.499C30.8285 17.3706 30.7068 17.2664 30.5627 17.1973C30.4185 17.1283 30.2572 17.0969 30.0957 17.1065C27.8298 17.124 25.5623 17.1152 23.2948 17.1152C21.8388 17.1152 20.3828 17.1255 18.9253 17.1152C17.9718 17.1065 17.4131 16.5543 17.5208 15.7722C17.6128 15.1351 18.145 14.7777 19.0439 14.7777C22.4552 14.7777 25.8661 14.7777 29.2764 14.7777H29.9412V12.4739H10.0114C10.0114 13.5079 9.99264 14.5009 10.0114 15.4939C10.0277 16.0389 9.83808 16.5717 9.4761 16.9981C7.45518 19.5011 5.43739 22.007 3.45704 24.5407C3.02945 25.0885 2.76572 25.7476 2.36465 26.4593L37.5973 26.4623ZM37.9094 40.849C35.4125 42.2228 32.9156 43.4852 30.5545 44.9264C28.0436 46.4554 26.8997 49.4798 27.5895 52.1805C28.7864 56.857 34.1828 59.0436 38.7037 56.6651C40.8432 55.5403 42.9531 54.3672 45.0755 53.2145C45.1785 53.1589 45.2705 53.0857 45.3876 53.0051L37.9094 40.849ZM20.027 2.35214C16.3649 2.35214 12.7028 2.35214 9.04071 2.35214C7.97641 2.35214 7.52229 2.77833 7.51604 3.78012C7.50668 5.38092 7.51604 6.98171 7.51604 8.58251C7.51604 9.68682 7.95456 10.0823 9.15463 10.0837H30.8104C32.0214 10.0837 32.4755 9.66485 32.4802 8.53711C32.4865 7.01394 32.4865 5.49077 32.4802 3.96759C32.4802 2.75637 32.0464 2.35653 30.7636 2.35653L20.027 2.35214ZM40.0755 39.6802L47.5833 51.8803C49.8913 50.609 52.215 49.4666 54.3811 48.1046C57.5724 46.0966 58.4385 41.9357 56.4675 38.8425C54.47 35.7039 50.2253 34.4487 46.8155 36.1008C44.548 37.1978 42.3726 38.4544 40.0755 39.6802ZM25.0504 48.4253H2.57845C2.06503 51.501 4.22327 53.1413 6.79195 53.112C12.6752 53.0359 18.5616 53.0886 24.4481 53.0886H25.0504V48.4253Z" fill="#92210F"/>
<path d="M18.7491 36.6807V33.7735C18.7491 33.6168 18.7491 33.4601 18.7491 33.3048C18.7787 32.5198 19.2484 32.0189 19.9616 32.0028C20.6748 31.9867 21.2101 32.492 21.2303 33.2609C21.2678 34.2949 21.2428 35.3289 21.2459 36.3644C21.2459 36.4405 21.2616 36.5108 21.2787 36.6807H24.1205C24.4108 36.6807 24.7041 36.6661 24.9928 36.6895C25.7185 36.7496 26.2241 37.2461 26.2132 37.8612C26.2082 38.1583 26.0819 38.4423 25.8604 38.6546C25.6388 38.8669 25.3389 38.9913 25.0225 39.0021C24.5543 39.0402 24.0674 39.0168 23.5883 39.0182H21.2475C21.2475 39.4576 21.2475 39.8823 21.2475 40.2997C21.2475 41.0613 21.2756 41.8244 21.2132 42.5816C21.2078 42.7336 21.1703 42.883 21.103 43.0213C21.0357 43.1596 20.9399 43.2841 20.821 43.3874C20.7022 43.4908 20.5627 43.571 20.4106 43.6235C20.2586 43.676 20.097 43.6997 19.9351 43.6932C19.2609 43.6581 18.7803 43.1894 18.7615 42.4805C18.7366 41.5652 18.7522 40.6468 18.7506 39.73V39.0182H15.7856C15.5156 39.0182 15.2425 39.0314 14.9756 39.008C14.2313 38.9406 13.7584 38.4719 13.7662 37.8363C13.774 37.2007 14.2593 36.7144 15.0053 36.691C16.0025 36.6588 17.0012 36.6807 18 36.6793L18.7491 36.6807Z" fill="#172F40"/>
<path d="M14.9802 15.9246C14.9777 16.2301 14.8504 16.523 14.6245 16.743C14.3985 16.9629 14.0913 17.093 13.7661 17.1065C13.4438 17.102 13.1361 16.9799 12.9081 16.7662C12.6801 16.5524 12.5496 16.2638 12.5444 15.9614C12.5391 15.659 12.6594 15.3665 12.8799 15.1458C13.1003 14.9252 13.4036 14.7938 13.7255 14.7793C14.0512 14.7828 14.3631 14.9036 14.5966 15.1168C14.8301 15.3299 14.9674 15.6191 14.9802 15.9246Z" fill="#92210F"/>
</svg>
