<svg width="57" height="58" viewBox="0 0 57 58" fill="none" xmlns="http://www.w3.org/2000/svg">
<path d="M8.21919 38.0955C0.66536 31.3962 0.38255 20.7283 5.40779 13.7249C10.243 6.98457 20.2813 3.44942 29.3662 8.51267V7.99722C29.3662 6.21064 29.3662 4.42405 29.3662 2.63747C29.3662 1.39674 30.1143 0.642578 31.3429 0.642578C39.1481 0.642578 46.9579 0.642578 54.7722 0.642578C55.978 0.642578 56.7276 1.39371 56.7291 2.60402C56.7291 6.76613 56.7291 10.9277 56.7291 15.0888C56.7291 16.3219 55.9689 17.0655 54.7236 17.0655C52.5766 17.0655 50.4297 17.0655 48.2827 17.0655H47.6076C47.6076 18.1146 47.6076 19.1151 47.6076 20.1171C47.6076 21.2757 47.1028 22.0785 46.1784 22.41C45.2539 22.7415 44.3751 22.4541 43.6179 21.5494C42.4729 20.181 41.3371 18.7973 40.177 17.4441C39.9805 17.2366 39.715 17.1079 39.4304 17.0822C38.6382 17.035 37.84 17.0655 37.0493 17.0655C37.3853 18.2013 37.7731 19.2899 38.0285 20.4106C40.2515 30.1661 34.0281 39.9748 24.2574 42.1537C21.2804 42.8371 18.178 42.7476 15.2454 41.8937C14.8455 41.7781 14.6874 41.8693 14.4973 42.213C12.0838 46.5849 9.66214 50.9502 7.23239 55.309C6.09962 57.3465 4.37537 57.7585 2.42458 56.4585L1.81638 56.048C0.0921353 54.8969 -0.312327 53.2685 0.703364 51.4682C2.56141 48.1586 4.42199 44.85 6.2851 41.5424L8.21919 38.0955ZM31.2289 2.48542V15.2378H31.8903C34.6272 15.2378 37.3641 15.2485 40.1009 15.2272C40.3036 15.2109 40.5071 15.247 40.6919 15.3319C40.8767 15.4168 41.0365 15.5478 41.1562 15.7122C42.4228 17.2768 43.7197 18.8156 45.0213 20.3513C45.1475 20.5033 45.3801 20.558 45.5626 20.6554C45.6386 20.4592 45.7785 20.2631 45.78 20.0654C45.7998 18.6422 45.7906 17.2175 45.7906 15.7928V15.2135H54.8787V2.48238L31.2289 2.48542ZM29.3434 33.2572C33.5689 29.1945 34.1953 21.7851 30.8062 17.2099C30.7059 17.0754 30.5771 16.9648 30.4291 16.8861C30.19 16.7682 29.978 16.6021 29.8063 16.3983C29.6347 16.1944 29.5071 15.9572 29.4316 15.7016C29.3552 15.4899 29.2278 15.3003 29.0606 15.1496C26.0196 12.3352 22.4221 11.1203 18.3214 11.7407C8.6586 13.2019 4.18986 24.4901 10.1852 32.2066C10.4452 32.5426 10.7356 32.8543 11.0123 33.1766C10.8177 28.5665 12.6073 25.1803 16.8009 23.1794C13.7964 20.4805 14.5292 16.7933 16.4101 14.9809C17.4276 13.9888 18.7903 13.4301 20.2114 13.4224C21.6325 13.4148 23.0012 13.9587 24.0293 14.9398C25.9664 16.7827 26.681 20.4805 23.6553 23.2007C25.5707 23.99 27.1672 25.397 28.1909 27.1981C29.2522 29.0424 29.4681 31.0555 29.3465 33.2572H29.3434ZM29.3632 12.9586C29.3632 12.2972 29.3389 11.73 29.3723 11.1674C29.3936 10.8101 29.2461 10.6246 28.9603 10.4483C25.5984 8.38038 21.9569 7.55931 18.0492 8.08997C9.24399 9.29572 3.07989 17.1293 3.90856 25.9969C4.90905 36.6844 16.0877 43.6483 26.0774 39.6813C32.5289 37.1132 36.0351 32.1807 36.6236 25.2609C36.8547 22.5469 36.2724 19.9392 35.1152 17.4623C35.0407 17.3103 34.8552 17.0989 34.7093 17.0883C34.13 17.0442 33.5461 17.07 32.9379 17.07C37.6271 25.7095 32.8816 34.165 27.2558 37.1832C24.2124 38.8297 20.6849 39.3472 17.2968 38.6444C13.9086 37.9416 10.8781 36.0636 8.74071 33.3424C4.35864 27.7758 4.67186 19.7887 9.44622 14.5475C14.2829 9.23339 22.7323 7.8847 29.3662 12.9586H29.3632ZM12.9418 32.5C12.9418 33.2892 12.9646 33.8229 12.9418 34.352C12.9249 34.4994 12.9529 34.6485 13.022 34.7798C13.0912 34.9111 13.1984 35.0185 13.3296 35.0879C17.4167 37.8111 23.152 37.8035 27.2056 35.0377C27.2995 34.9595 27.3766 34.8631 27.4325 34.7545C27.4884 34.6458 27.5219 34.5271 27.531 34.4052C27.566 33.4564 27.5553 32.5061 27.5432 31.5573C27.5183 29.9794 26.9826 28.452 26.0163 27.2041C25.0501 25.9563 23.7055 25.0553 22.184 24.6362C20.6625 24.2171 19.0461 24.3024 17.5772 24.8794C16.1083 25.4564 14.866 26.494 14.0366 27.8367C13.0893 29.3556 12.8445 31.0191 12.9449 32.5H12.9418ZM10.576 45.5292L7.24911 43.5525L6.62721 44.6534C5.16551 47.2494 3.70432 49.8459 2.24363 52.4429C1.76315 53.3004 1.92889 53.939 2.74692 54.4834C3.03125 54.6719 3.31406 54.865 3.59992 55.052C4.42859 55.5933 5.05808 55.4474 5.54159 54.5959C5.71949 54.2827 5.89435 53.9679 6.0692 53.6516C7.56385 50.9634 9.05392 48.2767 10.579 45.5292H10.576ZM23.8879 18.9205C23.8933 18.1993 23.6848 17.4927 23.2889 16.8899C22.8929 16.2871 22.3272 15.8151 21.6632 15.5336C20.9992 15.2521 20.2667 15.1736 19.5581 15.3082C18.8496 15.4427 18.1968 15.7842 17.6822 16.2894C17.1675 16.7947 16.8142 17.4412 16.6667 18.1471C16.5193 18.8531 16.5843 19.587 16.8536 20.256C17.1229 20.925 17.5844 21.4993 18.1799 21.9062C18.7753 22.3131 19.478 22.5345 20.1992 22.5423C20.6799 22.5465 21.1568 22.456 21.6025 22.2758C22.0483 22.0957 22.4541 21.8295 22.797 21.4924C23.1398 21.1554 23.4129 20.7541 23.6006 20.3115C23.7883 19.8689 23.887 19.3936 23.8909 18.9129L23.8879 18.9205ZM11.4624 43.9326C11.9976 42.9671 12.4994 42.0655 12.9935 41.176L9.64844 39.2693C9.1558 40.1451 8.65709 41.03 8.14316 41.9469L11.4624 43.9326Z" fill="white"/>
<path d="M43.9067 33.4957H39.3452L47.6046 22.875L55.8396 33.4607H51.3161C51.1169 34.7623 50.9998 36.0106 50.7261 37.2239C49.2406 43.8275 45.0821 48.0088 38.81 50.2394C35.8663 51.287 32.801 51.6565 29.7022 51.8435C28.6044 51.9104 27.5082 51.9956 26.3693 51.9788L26.938 51.7067C29.4331 50.5085 31.9967 49.4259 34.4051 48.0818C37.9737 46.0793 40.8171 43.2998 42.5276 39.4971C43.373 37.6329 43.9022 35.3127 43.9067 33.4957ZM45.7784 31.6711C45.9928 39.234 42.5854 44.7869 36.6007 48.9743C45.4044 46.5659 49.5326 40.6694 49.4596 31.6407H52.1189L47.6122 25.8476L43.0887 31.6696L45.7784 31.6711Z" fill="white"/>
<path d="M53.06 4.32916V6.0823H33.0624V4.32764L53.06 4.32916Z" fill="white"/>
<path d="M33.0413 9.7229V7.96826H53.0586V9.7229H33.0413Z" fill="white"/>
<path d="M42.1124 11.628V13.3811H33.0624V11.6265L42.1124 11.628Z" fill="white"/>
<path d="M44.0101 11.6001H45.745V13.3806H44.0101V11.6001Z" fill="white"/>
<path d="M49.4048 13.3808H47.6501V11.6201H49.4002L49.4048 13.3808Z" fill="white"/>
<path d="M53.0585 13.39H51.2993V11.6201H53.06L53.0585 13.39Z" fill="white"/>
</svg>
