<svg width="60" height="60" viewBox="0 0 60 60" fill="none" xmlns="http://www.w3.org/2000/svg">
<path d="M31.9958 0C32.4306 0.157037 32.8864 0.273052 33.2966 0.478138C35.0545 1.35591 35.992 2.80206 36.0823 4.76034C36.1256 5.69202 36.0893 6.62721 36.0893 7.63272H43.6166C45.9686 7.63272 47.0807 8.75425 47.0807 11.125C47.0807 17.628 47.0878 24.1334 47.069 30.6328C47.069 31.145 47.2319 31.3758 47.696 31.5704C49.564 32.3579 51.411 33.1947 53.2661 34.0115C53.7349 34.2177 54.0713 34.5189 53.9693 35.0826C53.8521 35.7049 53.2755 35.9416 52.5852 35.6416C51.0828 34.99 49.5875 34.3209 48.0898 33.6611C46.1092 32.7892 44.124 31.9255 42.1505 31.0395C41.9891 30.9559 41.8104 30.9112 41.6286 30.9092C41.4469 30.9072 41.2672 30.9478 41.1039 31.0278C35.9342 33.3193 30.7617 35.6014 25.5865 37.8741C25.4131 37.9503 25.2502 38.0476 24.9619 38.1976C25.1541 38.3312 25.3541 38.4533 25.5608 38.5632C27.3597 39.3613 29.1597 40.1617 30.9704 40.934C31.2097 41.0288 31.4758 41.0313 31.7169 40.9411C33.7466 40.034 35.76 39.0929 37.7827 38.1718C38.071 38.0406 38.2515 37.9151 38.2234 37.5331C38.1765 36.7842 38.5937 36.244 39.1691 35.8151C40.4676 34.8576 42.7177 34.8553 44.0314 35.801C45.3451 36.7467 45.3545 38.3675 43.9845 39.25C42.6403 40.116 41.2012 40.1535 39.7281 39.5547C39.5523 39.4832 39.3004 39.4293 39.1422 39.4996C37.3104 40.3199 35.4905 41.1661 33.5685 42.0509C33.7865 42.168 33.9201 42.2501 34.0666 42.3145C36.4198 43.3564 38.7683 44.4064 41.1332 45.4213C41.4302 45.5392 41.7603 45.5434 42.0602 45.433C47.2776 43.1548 52.4876 40.861 57.6901 38.5515C57.8448 38.4835 57.9878 38.3886 58.2995 38.2152C57.8683 38.0077 57.5718 37.8636 57.2706 37.7218C56.8628 37.5343 56.4502 37.3702 56.0448 37.1675C55.5279 36.9108 55.3416 36.4784 55.5373 36.019C55.5788 35.9083 55.6427 35.8074 55.725 35.7226C55.8073 35.6377 55.9062 35.5708 56.0156 35.5261C56.125 35.4813 56.2424 35.4596 56.3606 35.4623C56.4787 35.4651 56.595 35.4922 56.7022 35.542C57.4265 35.8315 58.146 36.1385 58.8375 36.4971C59.1592 36.6635 59.4282 36.9163 59.6142 37.2271C59.8002 37.538 59.8958 37.8945 59.8903 38.2567C59.8848 38.6189 59.7785 38.9723 59.5832 39.2774C59.3879 39.5825 59.1113 39.827 58.7847 39.9836C57.8882 40.4137 56.98 40.8203 56.06 41.1954C55.6897 41.3465 55.5807 41.5469 55.583 41.9372C55.5994 44.5928 55.5619 47.2495 55.6053 49.9062C55.624 51.0348 55.1799 51.8633 54.3162 52.5091C52.8396 53.6083 51.1239 54.1357 49.3566 54.4861C43.7314 55.6041 38.112 55.5819 32.5267 54.1615C32.4342 54.1564 32.3414 54.1564 32.2489 54.1615C32.3755 54.472 32.4341 54.765 32.6005 54.9818C33.4056 56.0858 34.2412 57.1698 35.0615 58.2632C35.6557 59.0543 35.6334 59.3414 34.9443 60H34.3584L32.3661 57.7593C32.2278 58.5374 32.6087 59.4375 31.7802 60H31.077C30.2871 59.414 30.6785 58.521 30.5133 57.7042L28.616 60H28.03C27.2788 59.4762 27.2097 59.0777 27.7487 58.3593C28.6031 57.219 29.4668 56.087 30.3188 54.9443C30.8321 54.2564 30.6703 53.5509 29.9203 53.1501C29.7141 53.04 29.5125 52.9157 29.3144 52.7985C28.18 52.0766 27.5565 51.1286 27.6198 49.6965C27.7066 47.9245 27.6198 46.1444 27.6515 44.3677C27.6585 43.8814 27.5179 43.7408 27.0292 43.7443C24.2576 43.7665 21.4848 43.7548 18.7085 43.7548C14.8623 43.7548 11.0161 43.7654 7.16981 43.7548C4.42752 43.7443 2.30634 42.5653 0.948087 40.1816C0.505101 39.4047 0.319937 38.4824 0.0105504 37.6257V35.2818C0.27892 34.8517 0.630497 34.5482 1.16841 34.7264C1.70632 34.9045 1.77195 35.358 1.78367 35.8643C1.80007 36.5827 1.78367 37.3222 1.95242 38.0136C2.53252 40.4746 4.60331 41.9852 7.32685 41.9887C13.8896 41.9958 20.4524 41.9958 27.0151 41.9887C27.205 41.9887 27.3948 41.9712 27.5788 41.9618C27.696 41.5821 27.5952 41.3852 27.2554 41.2458C26.4256 40.9059 25.6147 40.5215 24.7943 40.1711C23.9365 39.8078 23.3447 39.2418 23.3388 38.2515C23.3329 37.2612 23.9048 36.6963 24.7674 36.3178C29.9437 34.0443 35.1213 31.7719 40.2813 29.4633C41.2188 29.0461 42.0567 29.0074 42.9661 29.4633C43.7044 29.8348 44.4779 30.1371 45.2701 30.4852V22.1645C42.9989 24.5025 42.9978 24.4978 39.9414 25.7084C39.8043 25.7635 39.6742 26.019 39.6672 26.1854C39.6367 26.8885 39.6672 27.5917 39.6508 28.2949C39.6297 29.4668 38.8644 30.2297 37.6983 30.2438C36.9179 30.2531 36.1362 30.2438 35.3545 30.2438C33.9752 30.2438 33.2322 29.4961 33.2204 28.105C33.2204 27.4265 33.2204 26.7491 33.2204 26.0459H13.8498C13.8498 26.8417 13.8638 27.5987 13.8498 28.3558C13.8251 29.4597 13.0564 30.2227 11.9548 30.2414C11.1157 30.2555 10.2754 30.2496 9.43631 30.2414C8.23743 30.232 7.45928 29.4773 7.42529 28.2749C7.40654 27.6315 7.40068 26.9858 7.42529 26.3424C7.44287 25.9334 7.33974 25.7401 6.8991 25.6158C5.04096 25.1023 3.38948 24.0215 2.17508 22.5243C2.07078 22.3977 1.95594 22.2794 1.76726 22.072V22.7692C1.76726 25.7381 1.76726 28.707 1.76726 31.6758C1.76726 32.1692 1.73093 32.6228 1.1895 32.8337C0.648075 33.0446 0.317591 32.7071 0 32.3509V9.96718C0.605883 8.19641 1.88328 7.56123 3.69858 7.62334C5.89828 7.696 8.10266 7.64092 10.3047 7.64092H10.9961C10.9961 6.64128 10.9774 5.70959 10.9961 4.78026C11.0524 2.49384 12.5665 0.651588 14.7943 0.124223C14.9032 0.0914597 15.01 0.0523282 15.1143 0.00703124H24.6068C24.7978 0.217977 25.0756 0.398448 25.1647 0.646895C25.3908 1.25747 24.9139 1.76608 24.1521 1.76725C21.418 1.76725 18.6851 1.76139 15.9487 1.76725C14.4252 1.77311 13.129 2.64151 12.9017 4.07125C12.7153 5.21973 12.8642 6.42095 12.8642 7.58701H14.1814V5.32286C14.1814 3.78999 14.7674 3.20051 16.3061 3.19934C21.1297 3.19934 25.9526 3.19934 30.7746 3.19934C32.2981 3.19934 32.8841 3.79468 32.89 5.33927C32.89 6.09164 32.89 6.84401 32.89 7.59053H34.3256C34.3256 6.70807 34.3256 5.87015 34.3256 5.0334C34.3092 3.08215 33.0001 1.78132 31.0383 1.76842C30.0035 1.76139 28.9664 1.80241 27.9351 1.74265C27.6433 1.72507 27.2319 1.486 27.1218 1.23755C27.0116 0.989101 27.1745 0.596507 27.26 0.277745C27.2893 0.168756 27.444 0.094923 27.5413 0.00468511L31.9958 0ZM39.6367 23.9072C39.7984 23.8673 39.8711 23.8544 39.9437 23.8322C42.829 22.9532 45.0791 20.2086 45.2397 17.1909C45.3568 15.0873 45.2982 12.972 45.3053 10.8625C45.3053 9.79374 44.8904 9.3988 43.7994 9.39763C42.3145 9.39763 40.8309 9.39763 39.3461 9.39763H3.31888C2.14696 9.39763 1.76726 9.78085 1.76609 10.9364C1.76609 12.7728 1.76609 14.608 1.76609 16.4444C1.75512 17.898 2.16189 19.3241 2.93801 20.5531C3.99273 22.2137 5.45295 23.3329 7.41357 23.9189C7.41357 23.2064 7.40302 22.5642 7.41357 21.9266C7.44053 20.6762 8.20227 19.9262 9.44099 19.9168C10.1828 19.9168 10.9246 19.9168 11.6676 19.9168C13.1396 19.9168 13.8416 20.6199 13.8462 22.1118C13.8462 22.8056 13.8462 23.5005 13.8462 24.2002H33.1138C33.1478 24.131 33.1782 24.097 33.1782 24.0619C33.1876 23.34 33.1783 22.6181 33.2017 21.8962C33.2357 20.6809 34.0009 19.9273 35.194 19.918C36.0143 19.9109 36.8346 19.9109 37.655 19.918C38.8269 19.9285 39.6004 20.6809 39.6238 21.8505C39.6484 22.5149 39.6367 23.1782 39.6367 23.9107V23.9072ZM32.3427 43.4911C32.3321 43.7337 32.3192 43.8884 32.3192 44.042C32.3192 46.5991 32.3298 49.1562 32.3075 51.7122C32.3075 52.1528 32.4528 52.311 32.8642 52.4153C38.3523 53.8287 43.8673 53.8544 49.3789 52.6415C50.6328 52.3649 51.8258 51.7731 53.0118 51.2563C53.5978 50.9996 53.8486 50.4817 53.8322 49.7797C53.7865 47.9468 53.8169 46.1116 53.8169 44.2716V42.2102C53.5497 42.3192 53.3482 42.3931 53.1618 42.4774C49.7023 44.0009 46.2405 45.5244 42.788 47.0596C41.9852 47.4112 41.2247 47.444 40.4277 47.0596C39.6308 46.6753 38.7871 46.3249 37.9667 45.9639C36.1245 45.1564 34.2728 44.3478 32.3427 43.4947V43.4911ZM31.0911 5.0123H15.9791V7.59053H31.0911V5.0123ZM30.5461 51.4661V43.5966C30.5461 42.5876 30.4758 42.5044 29.3918 42.2841V42.9286C29.3918 45.1928 29.4316 47.4569 29.373 49.7187C29.3496 50.593 29.7398 51.0594 30.5461 51.4696V51.4661ZM9.23122 24.2072H12.0438V21.7075H9.23122V24.2072ZM35.0346 21.6969V24.2002H37.8179V21.6969H35.0346ZM9.23122 28.439H12.0438V26.0483H9.23122V28.439ZM37.8425 26.0436H35.0299V28.4437H37.8425V26.0436ZM40.0023 37.519C40.6903 38.4027 42.5196 38.405 43.2181 37.519C42.5337 36.6319 40.6903 36.6295 39.9977 37.519H40.0023Z" fill="#92210F"/>
</svg>
