<svg width="61" height="62" viewBox="0 0 61 62" fill="none" xmlns="http://www.w3.org/2000/svg">
<path d="M16.3865 3.30762H57.9248C59.2032 3.30762 60.2324 4.33684 60.2324 5.61529V58.6921C60.2324 59.9706 59.2032 60.9998 57.9248 60.9998H16.3865C15.1081 60.9998 14.0789 59.9706 14.0789 58.6921V5.61529C14.0789 4.33684 15.1081 3.30762 16.3865 3.30762Z" fill="#7D9EC7" stroke="#105286" stroke-linecap="round" stroke-linejoin="round"/>
<path d="M19.919 53.5102H48.0345L56.1938 45.3584V6.60203C56.1938 5.09673 54.9808 3.88477 53.4741 3.88477H20.8369C19.3302 3.88477 18.1172 5.09673 18.1172 6.60203V50.6422C18.1172 52.1475 18.4322 53.2661 19.919 53.5102Z" fill="#FBFDFE"/>
<path d="M18.1172 45.6762V50.771C18.1172 52.2763 19.3302 53.4882 20.8369 53.4882H48.0345L56.1938 45.3364V6.60203C56.1938 5.09673 54.9808 3.88477 53.4741 3.88477H20.8369C19.3302 3.88477 18.1172 5.09673 18.1172 6.60203V24.8172V35.0068V41.0194" stroke="#105286" stroke-linecap="round" stroke-linejoin="round"/>
<path d="M48.0348 53.4882L56.1941 45.3364H50.7543C48.0348 45.3364 48.0348 48.0227 48.0348 48.0227V53.4882Z" fill="#105286" stroke="#105286" stroke-linecap="round" stroke-linejoin="round"/>
<path d="M45.2325 1H29.0788C28.4415 1 27.9249 1.51673 27.9249 2.15398V6.79215C27.9249 7.42939 28.4415 7.94599 29.0788 7.94599H45.2325C45.8697 7.94599 46.3863 7.42939 46.3863 6.79215V2.15398C46.3863 1.51673 45.8697 1 45.2325 1Z" fill="#2DBCA4" stroke="#105286" stroke-linecap="round" stroke-linejoin="round"/>
<path d="M53.309 11.3848H34.6606V13.6924H53.309V11.3848Z" fill="#8FB6D7"/>
<path d="M53.309 18.3076H34.6606V15.9999H53.309V18.3076Z" fill="#8FB6D7"/>
<path d="M53.309 20.6152H34.6606V22.9229H53.309V20.6152Z" fill="#8FB6D7"/>
<path d="M53.3094 27.5386H21.002V25.2309H53.3094V27.5386Z" fill="#8FB6D7"/>
<path d="M53.3094 29.8462H21.002V32.1539H53.3094V29.8462Z" fill="#8FB6D7"/>
<path d="M53.3094 36.769H21.002V34.4614H53.3094V36.769Z" fill="#8FB6D7"/>
<path d="M37.1557 41.3843H21.002V39.0766H37.1557V41.3843Z" fill="#8FB6D7"/>
<path d="M5.73194 40.4239L10.3473 48.418L40.3249 31.1104L35.7096 23.1163L5.73194 40.4239Z" fill="#EE7581" stroke="#105286" stroke-linecap="round" stroke-linejoin="round"/>
<path d="M40.3245 31.1104L35.7091 23.1164L46.0108 22.498L40.3245 31.1104ZM10.3469 48.418L7.34913 50.1487C5.68837 51.1076 3.57945 50.5423 2.62061 48.8817L1.46678 46.883C0.507936 45.2224 1.07302 43.1135 2.73378 42.1547L5.73154 40.4239L10.3469 48.418Z" fill="#E9EDED" stroke="#105286" stroke-linecap="round" stroke-linejoin="round"/>
<path d="M38.0167 27.1133L10.0376 43.267" stroke="#105286"/>
<path d="M44.5894 24.6511L46.011 22.498L43.4355 22.6527L44.5894 24.6514V24.6511Z" fill="#105286"/>
<path d="M5.73194 40.4239L10.3473 48.418L12.3458 47.2641L7.73044 39.2701L5.73194 40.4239Z" fill="#105286" stroke="#105286" stroke-linecap="round" stroke-linejoin="round"/>
<path d="M32.3532 11.3848H20.8148V22.9231H32.3532V11.3848Z" fill="#105286"/>
<path fill-rule="evenodd" clip-rule="evenodd" d="M24.2767 20.6158L26.0075 17.1543L27.7382 20.6158" fill="#8FB6D7"/>
<path fill-rule="evenodd" clip-rule="evenodd" d="M26.0077 20.6156L28.6038 15.4233L31.2 20.6156" fill="#406B95"/>
<path d="M24.2763 16.0001C24.9135 16.0001 25.4301 15.4835 25.4301 14.8462C25.4301 14.209 24.9135 13.6924 24.2763 13.6924C23.639 13.6924 23.1224 14.209 23.1224 14.8462C23.1224 15.4835 23.639 16.0001 24.2763 16.0001Z" fill="#F8B84E"/>
</svg>
