<svg width="50" height="50" viewBox="0 0 50 50" fill="none" xmlns="http://www.w3.org/2000/svg">
<g clip-path="url(#clip0)">
<path d="M17.26 5.7697C16.1246 5.32959 14.928 5.10563 13.7627 4.7749C13.3643 4.66293 13.0375 4.49105 12.9372 4.04964C12.8317 3.57829 13.113 3.17334 13.6677 3.0236C16.5621 2.24235 19.4579 1.47022 22.3497 0.67985C23.131 0.463705 23.9486 0.324382 24.7064 0.00146484H25.2924C26.5449 0.433757 27.8392 0.720215 29.1152 1.07048C31.5096 1.72933 33.9106 2.36475 36.3077 3.0236C36.9353 3.19417 37.1032 3.47152 37.0329 4.13819C36.8962 4.48584 36.6267 4.66553 36.2751 4.75668C35.9613 4.8361 35.6541 4.93636 35.3429 5.02751C34.4744 5.2736 33.5799 5.43246 32.7388 5.77621C32.6747 5.769 32.6101 5.769 32.5461 5.77621C30.4862 6.32829 28.4277 6.88211 26.3705 7.43767C25.683 7.62386 25.0111 7.82829 24.2807 7.61996C23.1505 7.28923 22.0138 6.96892 20.8706 6.68636C19.661 6.38688 18.4891 5.96501 17.26 5.7697Z" fill="#464F5E"/>
<path d="M2.03111e-05 46.2894C0.205744 45.9639 0.451831 45.7035 0.869789 45.6787C1.08072 45.6852 1.29165 45.6956 1.50259 45.6956L12.9111 45.7061L12.8903 49.1475C8.98416 49.1475 5.07801 49.1305 1.16405 49.1475C0.643233 49.1475 0.252618 49.0042 -0.00128174 48.5407L2.03111e-05 46.2894Z" fill="#ECC000"/>
<path d="M49.1042 25.0003C49.1107 25.2113 49.125 25.4222 49.125 25.6331C49.125 32.3172 49.125 39.0012 49.125 45.6852C48.9141 45.6852 48.7031 45.7022 48.4922 45.7022C44.6902 45.7074 40.8874 45.7108 37.0836 45.7126L36.9014 45.6891C36.5941 45.5342 36.2581 45.5941 35.9483 45.6253C35.4274 45.6787 35.3363 45.4756 35.3376 44.9977C35.3515 38.338 35.3537 31.6787 35.3441 25.0199L37.0993 24.9951L49.1042 25.0003ZM40.5224 30.2087C40.5224 29.9157 40.5328 29.6227 40.5224 29.3311C40.5232 29.1006 40.4347 28.8787 40.2754 28.7122C40.1161 28.5456 39.8985 28.4473 39.6682 28.4378C39.4448 28.4345 39.2288 28.5183 39.066 28.6714C38.9032 28.8245 38.8063 29.0349 38.7958 29.2581C38.7587 29.8748 38.7587 30.4931 38.7958 31.1097C38.8053 31.3381 38.9052 31.5535 39.0734 31.7083C39.2417 31.8631 39.4645 31.9447 39.693 31.9352C39.9214 31.9257 40.1367 31.8259 40.2915 31.6576C40.4463 31.4894 40.5279 31.2665 40.5185 31.0381C40.5328 30.7607 40.5211 30.4834 40.5224 30.2087ZM45.6941 30.1748C45.6941 29.8988 45.7032 29.6214 45.6941 29.3454C45.6733 28.8337 45.3204 28.4587 44.8543 28.4339C44.7397 28.4313 44.6257 28.4513 44.5189 28.4928C44.4121 28.5343 44.3145 28.5964 44.2316 28.6756C44.1488 28.7548 44.0824 28.8495 44.0362 28.9544C43.99 29.0593 43.9649 29.1722 43.9624 29.2868C43.9324 29.8714 43.9337 30.4587 43.9624 31.0433C43.9691 31.2742 44.0652 31.4935 44.2303 31.655C44.3954 31.8165 44.6168 31.9076 44.8478 31.9092C45.0694 31.8947 45.278 31.7991 45.4337 31.6405C45.5893 31.482 45.6811 31.2717 45.6915 31.0498C45.7123 30.7607 45.6941 30.4691 45.6941 30.1735V30.1748ZM40.5224 35.3649C40.5224 35.0889 40.5302 34.8115 40.5224 34.5355C40.5041 34.0147 40.1656 33.6449 39.6982 33.6136C39.5831 33.6073 39.468 33.6241 39.3595 33.6629C39.251 33.7017 39.1514 33.7618 39.0665 33.8397C38.9816 33.9176 38.9131 34.0117 38.865 34.1164C38.817 34.2211 38.7904 34.3344 38.7867 34.4495C38.7535 35.0502 38.7535 35.6523 38.7867 36.2529C38.794 36.4828 38.8922 36.7003 39.0599 36.8577C39.2275 37.015 39.4508 37.0994 39.6806 37.0921C39.9104 37.0849 40.1279 36.9866 40.2853 36.819C40.4427 36.6514 40.527 36.4281 40.5198 36.1982C40.5328 35.917 40.5224 35.6397 40.5224 35.3636V35.3649ZM45.6967 35.3506C45.6967 35.0745 45.7058 34.7985 45.6967 34.5225C45.6759 34.0094 45.3256 33.6344 44.8608 33.611C44.7462 33.6077 44.632 33.6271 44.5249 33.668C44.4178 33.7089 44.3198 33.7706 44.2366 33.8495C44.1534 33.9283 44.0865 34.0229 44.0399 34.1276C43.9933 34.2324 43.9678 34.3453 43.965 34.46C43.935 35.0433 43.9363 35.6318 43.965 36.2139C43.9717 36.445 44.0674 36.6647 44.2321 36.827C44.3968 36.9893 44.6178 37.0817 44.8491 37.085C45.3113 37.0693 45.6667 36.6943 45.6967 36.1735C45.7097 35.904 45.7019 35.6266 45.7019 35.3493L45.6967 35.3506ZM40.5224 40.5589C40.5224 40.266 40.5315 39.973 40.5224 39.6813C40.5015 39.1709 40.1435 38.7959 39.6773 38.7803C39.4542 38.7738 39.2373 38.8547 39.073 39.0057C38.9086 39.1568 38.8096 39.366 38.7971 39.5889C38.76 40.2051 38.76 40.8229 38.7971 41.4391C38.8167 41.6612 38.919 41.8678 39.0837 42.0181C39.2484 42.1683 39.4635 42.2512 39.6864 42.2503C40.1383 42.2412 40.5028 41.8506 40.5237 41.3389C40.5302 41.0837 40.5224 40.8232 40.5224 40.5641V40.5589ZM45.6941 40.5068C45.6941 40.2308 45.7032 39.9535 45.6941 39.6787C45.672 39.1696 45.3113 38.7946 44.8465 38.7803C44.7319 38.7786 44.6181 38.7994 44.5116 38.8417C44.4051 38.8839 44.308 38.9468 44.2258 39.0266C44.1435 39.1064 44.0778 39.2016 44.0324 39.3068C43.987 39.412 43.9628 39.5251 43.9611 39.6397C43.9324 40.223 43.9337 40.8115 43.9611 41.3949C43.9624 41.6242 44.0549 41.8435 44.218 42.0047C44.3811 42.1659 44.6015 42.2556 44.8308 42.2542C45.0601 42.2529 45.2795 42.1604 45.4406 41.9973C45.6018 41.8342 45.6916 41.6137 45.6902 41.3844C45.7123 41.0993 45.6941 40.805 45.6941 40.5121V40.5068Z" fill="#85B3CB"/>
<path d="M11.2914 18.0534L14.3772 14.2982C14.4801 14.168 14.5934 14.0547 14.6845 13.9219C14.9055 13.5684 15.2229 13.2855 15.5995 13.1067C15.976 12.9279 16.3959 12.8606 16.8095 12.9128C16.9552 12.9151 17.1009 12.9077 17.2457 12.8906C17.441 12.8906 17.6363 12.9076 17.8303 12.9076C21.6496 12.9076 25.469 12.9076 29.2883 12.9076C30.4432 12.9076 31.5968 12.8958 32.7505 12.8906C33.4145 12.9297 33.9327 13.2253 34.3975 13.7057C35.8155 15.1719 37.2621 16.6081 38.6943 18.0573C38.5159 18.0573 38.3376 18.0755 38.1592 18.0755H11.8265C11.6481 18.0742 11.4698 18.0599 11.2914 18.0534Z" fill="#4496D3"/>
<path d="M36.904 45.6826L37.0863 45.7061C37.0941 46.8536 37.101 48.0008 37.1071 49.1475C36.9769 49.7985 36.7243 50.0003 36.0889 50.0003H13.9085C13.2744 50.0003 13.0257 49.7933 12.8916 49.1475L12.9111 45.7035L13.0947 45.6787H21.5815H28.4172L36.904 45.6826Z" fill="#F7E7AB"/>
<path d="M32.753 12.8908C31.5994 12.8908 30.4458 12.9077 29.2909 12.9077C25.4715 12.9077 21.6522 12.9077 17.8329 12.9077C17.6375 12.9077 17.4422 12.896 17.2482 12.8908C17.2534 10.5176 17.2582 8.14386 17.2626 5.76973C18.493 5.96504 19.6674 6.38691 20.8731 6.68118C22.0163 6.96504 23.153 7.28405 24.2832 7.61478C25.0136 7.82832 25.6855 7.61478 26.373 7.43249C28.4302 6.87259 30.4888 6.31877 32.5486 5.77103C32.6126 5.76382 32.6773 5.76382 32.7413 5.77103L32.753 12.8908Z" fill="#393F4B"/>
<path d="M11.2914 18.0537C11.4698 18.0537 11.6481 18.0745 11.8265 18.0745H38.1631C38.3414 18.0745 38.5198 18.0628 38.6982 18.0563C38.917 18.6253 38.7386 19.2178 38.7985 19.7959C38.7883 19.8598 38.7814 19.9241 38.7776 19.9886C38.7308 21.4808 38.6279 21.5772 37.1071 21.5719C36.9548 21.43 36.766 21.4899 36.5941 21.4899C28.8643 21.4899 21.1344 21.4899 13.4046 21.4899C13.2327 21.4899 13.0439 21.43 12.8916 21.5719C12.6807 21.5719 12.4697 21.5719 12.2575 21.5719C11.5726 21.5719 11.238 21.2438 11.2237 20.5732C11.2237 20.3128 11.208 20.0524 11.2002 19.792C11.2562 19.2178 11.0909 18.6201 11.2914 18.0537Z" fill="#2B5781"/>
<path d="M37.1084 21.5731C38.6292 21.5731 38.7321 21.482 38.779 19.9898C38.7829 19.9235 38.7903 19.8574 38.8011 19.7919C40.6669 19.8023 42.5406 19.9143 44.3999 19.7919C46.0105 19.6838 46.9636 20.2658 47.5392 21.7541C47.9701 22.8674 48.5808 23.913 49.1081 24.9885H37.1058C37.1076 23.8505 37.1084 22.712 37.1084 21.5731Z" fill="#4397D4"/>
<path d="M37.1084 49.1475C37.1015 48.0008 37.0945 46.8536 37.0876 45.7061C40.8913 45.7061 44.6942 45.7026 48.4961 45.6956C48.7071 45.6956 48.918 45.6839 49.1289 45.6787C49.7891 45.8271 49.9948 46.0798 50 46.7529C50 47.1917 50 47.6292 50 48.068C50 48.8271 49.6979 49.1305 48.9375 49.1318C45.1894 49.1318 41.4408 49.1318 37.6917 49.1318C37.499 49.1331 37.3011 49.1423 37.1084 49.1475Z" fill="#ECC000"/>
<path d="M35.3429 5.02116C35.6541 4.93001 35.9614 4.82975 36.2752 4.75033C36.6267 4.65918 36.8963 4.47949 37.033 4.13184C37.141 5.24902 37.0707 6.36751 37.072 7.4847C37.072 8.04459 37.128 8.52637 37.6189 8.90657C37.9679 9.18001 37.9444 9.66048 37.6736 10.0055C37.5491 10.18 37.3611 10.2988 37.1501 10.3363C36.939 10.3738 36.7217 10.327 36.5447 10.2061C36.1823 9.98383 35.8826 9.67271 35.6741 9.30218C35.4656 8.93166 35.3552 8.51402 35.3533 8.08887C35.3325 7.06673 35.3455 6.0446 35.3429 5.02116Z" fill="#ECC207"/>
<path d="M13.0948 45.6811L12.9112 45.7059L1.50261 45.6955C1.29168 45.6955 1.08074 45.685 0.869812 45.6785C0.869812 38.9945 0.869812 32.3105 0.869812 25.6265C0.869812 25.4155 0.884135 25.2046 0.891947 24.9937H12.8929L14.6481 25.0184V41.2944C14.6481 42.577 14.6364 43.8608 14.6559 45.1434C14.6559 45.4962 14.5713 45.6343 14.195 45.6239C13.8187 45.6134 13.4515 45.5184 13.0948 45.6811ZM4.30332 30.172C4.30332 30.465 4.28899 30.758 4.30332 31.0496C4.31276 31.2717 4.40381 31.4824 4.55903 31.6415C4.71424 31.8006 4.9227 31.8967 5.14444 31.9116C5.53505 31.9285 5.99077 31.5835 6.01812 31.146C6.06191 30.4957 6.06191 29.8432 6.01812 29.1929C5.99795 28.9784 5.89616 28.7799 5.7338 28.6384C5.57145 28.4969 5.36092 28.4232 5.14574 28.4325C4.92278 28.4448 4.71262 28.5406 4.55702 28.7008C4.40143 28.8609 4.31179 29.0738 4.30592 29.297C4.28899 29.5848 4.30332 29.8791 4.30332 30.172ZM9.47896 30.1382C9.47896 30.4312 9.46855 30.7241 9.47896 31.0171C9.47902 31.2386 9.56185 31.4521 9.71121 31.6156C9.86056 31.7792 10.0657 31.8811 10.2862 31.9012C10.5002 31.9139 10.7112 31.8465 10.8782 31.7122C11.0452 31.5779 11.1563 31.3863 11.1899 31.1746C11.2732 30.4966 11.2732 29.811 11.1899 29.133C11.1505 28.9316 11.041 28.7506 10.8808 28.6223C10.7205 28.4941 10.52 28.4268 10.3149 28.4325C10.1016 28.4471 9.90081 28.5385 9.74975 28.6898C9.5987 28.8411 9.50758 29.042 9.49329 29.2554C9.46204 29.5575 9.47896 29.8452 9.47896 30.1382ZM9.47896 35.3335C9.47896 35.6265 9.46594 35.9194 9.47896 36.2111C9.48473 36.4332 9.57255 36.6452 9.72548 36.8063C9.87841 36.9674 10.0856 37.0662 10.3071 37.0835C10.6977 37.1095 11.1599 36.7697 11.1899 36.3296C11.2363 35.6649 11.2333 34.9977 11.1807 34.3335C11.1562 34.1193 11.048 33.9236 10.8797 33.789C10.7114 33.6543 10.4966 33.5917 10.2823 33.6147C10.0696 33.6338 9.87098 33.7294 9.72345 33.8839C9.57593 34.0384 9.48951 34.2412 9.48026 34.4546C9.46334 34.7463 9.47766 35.0405 9.47766 35.3335H9.47896ZM4.30722 35.314C4.30722 35.6239 4.28639 35.9338 4.30722 36.241C4.32008 36.4545 4.40852 36.6563 4.55669 36.8105C4.70485 36.9646 4.90306 37.0609 5.11579 37.0822C5.32957 37.0903 5.53889 37.0197 5.70419 36.8839C5.86949 36.7481 5.97931 36.5565 6.01291 36.3452C6.09234 35.6667 6.08841 34.9811 6.00119 34.3035C5.96763 34.0998 5.85915 33.9159 5.69704 33.788C5.53493 33.6601 5.33088 33.5974 5.12491 33.6121C4.91187 33.6274 4.71156 33.7193 4.56101 33.8708C4.41045 34.0223 4.31984 34.2232 4.30592 34.4364C4.28769 34.728 4.30462 35.0262 4.30592 35.314H4.30722ZM6.04546 40.5496H6.03895C6.05525 40.2251 6.05264 39.8999 6.03114 39.5757C6.01127 39.3539 5.90696 39.1482 5.73976 39.0011C5.57256 38.854 5.35525 38.7767 5.13272 38.7853C4.91102 38.7997 4.70293 38.8974 4.55011 39.0586C4.39729 39.2199 4.31101 39.4329 4.30852 39.6551C4.2903 40.2241 4.28769 40.7944 4.30852 41.3621C4.30733 41.5934 4.39601 41.8161 4.55585 41.9832C4.71569 42.1503 4.93419 42.2489 5.16527 42.258C5.61188 42.2658 6.00379 41.8843 6.04285 41.3791C6.06238 41.1043 6.04416 40.8257 6.04416 40.5496H6.04546ZM9.47896 40.5132C9.47896 40.8061 9.46594 41.0991 9.47896 41.3908C9.48457 41.6039 9.56653 41.8079 9.70993 41.9656C9.85332 42.1233 10.0486 42.2243 10.2602 42.2502C10.6821 42.2918 11.1547 41.9559 11.1886 41.4936C11.2354 40.8456 11.2354 40.1951 11.1886 39.547C11.1787 39.4373 11.1474 39.3306 11.0962 39.2331C11.045 39.1355 10.9751 39.0491 10.8904 38.9786C10.8057 38.9082 10.7079 38.8552 10.6026 38.8227C10.4974 38.7902 10.3868 38.7788 10.2771 38.7892C10.0565 38.8123 9.85246 38.9169 9.70503 39.0827C9.55761 39.2484 9.47744 39.4632 9.48026 39.6851C9.46724 39.9598 9.47636 40.2345 9.47766 40.5132H9.47896Z" fill="#85B3CB"/>
<path d="M12.8968 24.9883H0.895813C1.60152 23.5677 2.29161 22.1354 3.01946 20.7279C3.34497 20.099 3.91396 19.8229 4.62749 19.8255C6.62353 19.832 8.62087 19.8255 10.6169 19.8255C10.8109 19.8255 11.0075 19.8073 11.1989 19.7969C11.2067 20.0573 11.2172 20.3177 11.2224 20.5781C11.2367 21.2487 11.5713 21.5729 12.2562 21.5768C12.4684 21.5768 12.6794 21.5768 12.8903 21.5768C12.8903 22.714 12.8925 23.8511 12.8968 24.9883Z" fill="#4397D4"/>
<path d="M13.0947 45.681C13.4514 45.5182 13.8303 45.6081 14.1949 45.6172C14.5595 45.6263 14.6597 45.487 14.6558 45.1367C14.6363 43.8542 14.648 42.5703 14.648 41.2878V25.0117C19.4144 25.0065 24.1812 25.0026 28.9484 25C31.0799 25 33.2113 25.0065 35.3428 25.0117C35.3428 31.6706 35.3406 38.3299 35.3363 44.9896C35.3363 45.4675 35.4313 45.6706 35.9469 45.6172C36.2568 45.5859 36.598 45.526 36.9 45.681H28.4133C28.4133 42.2522 28.4159 38.8234 28.4211 35.3945C28.4211 34.8359 28.0734 34.4831 27.5097 34.4831C25.8361 34.4744 24.1625 34.4744 22.489 34.4831C21.9226 34.4831 21.5775 34.8372 21.5775 35.3945C21.5775 38.8225 21.5801 42.2513 21.5853 45.681H13.0947ZM23.2507 29.332C23.2507 29.0234 23.2637 28.7135 23.2507 28.4063C23.2525 28.3002 23.2327 28.1949 23.1925 28.0968C23.1524 27.9987 23.0926 27.9097 23.017 27.8354C22.9413 27.7611 22.8514 27.703 22.7525 27.6646C22.6537 27.6261 22.5481 27.6083 22.4421 27.612C21.946 27.5977 21.5918 27.8932 21.5736 28.3932C21.5502 29.0104 21.5528 29.6289 21.5736 30.2448C21.5875 30.4573 21.6802 30.6569 21.8337 30.8046C21.9871 30.9522 22.1902 31.0373 22.403 31.043C22.6149 31.0386 22.8178 30.9566 22.9733 30.8126C23.1288 30.6686 23.2261 30.4726 23.2467 30.2617C23.2702 29.9479 23.2533 29.6406 23.2533 29.332H23.2507ZM28.425 29.3503C28.425 29.026 28.4432 28.6992 28.425 28.3763C28.4232 28.27 28.3996 28.1652 28.3559 28.0684C28.3122 27.9715 28.2491 27.8845 28.1706 27.8129C28.0921 27.7412 27.9999 27.6863 27.8994 27.6515C27.799 27.6168 27.6925 27.6029 27.5865 27.6107C27.1112 27.6107 26.7688 27.8997 26.7519 28.3737C26.7284 28.9896 26.7297 29.6081 26.7519 30.224C26.762 30.4449 26.8572 30.6534 27.0177 30.8056C27.1782 30.9578 27.3913 31.0419 27.6125 31.0404C27.8246 31.0289 28.0251 30.9397 28.1757 30.7899C28.3263 30.64 28.4164 30.4399 28.4289 30.2279C28.4419 29.9362 28.4289 29.6432 28.4276 29.3503H28.425Z" fill="#A0C7D2"/>
<path d="M35.3468 25.0132C33.2153 25.0132 31.0839 25.0002 28.9524 25.0015C24.1852 25.0015 19.4184 25.0054 14.652 25.0132L12.8969 24.9885C12.8969 23.8504 12.8969 22.712 12.8969 21.5731C13.0492 21.4312 13.238 21.4911 13.4099 21.4911C21.1406 21.4911 28.8704 21.4911 36.5994 21.4911C36.7712 21.4911 36.96 21.4312 37.1124 21.5731C37.1124 22.7129 37.1124 23.8513 37.1124 24.9885L35.3468 25.0132Z" fill="#317FBB"/>
<path d="M40.5225 30.2084C40.5225 30.4845 40.5329 30.7618 40.5225 31.0379C40.5272 31.151 40.5096 31.2639 40.4706 31.3702C40.4317 31.4765 40.3722 31.5741 40.2955 31.6574C40.2189 31.7407 40.1266 31.8081 40.0239 31.8557C39.9212 31.9034 39.8101 31.9303 39.697 31.935C39.5839 31.9397 39.4709 31.9221 39.3646 31.8831C39.2584 31.8442 39.1608 31.7847 39.0775 31.708C38.9092 31.5532 38.8094 31.3379 38.7999 31.1095C38.7628 30.4928 38.7628 29.8745 38.7999 29.2579C38.8103 29.0347 38.9072 28.8242 39.07 28.6712C39.2328 28.5181 39.4488 28.4343 39.6722 28.4376C39.9025 28.447 40.1202 28.5454 40.2795 28.7119C40.4388 28.8785 40.5273 29.1003 40.5264 29.3308C40.5329 29.6212 40.5225 29.9142 40.5225 30.2084Z" fill="#475161"/>
<path d="M45.6941 30.1732C45.6941 30.4662 45.7123 30.7605 45.6941 31.0521C45.6837 31.2741 45.5919 31.4844 45.4362 31.6429C45.2806 31.8014 45.072 31.897 44.8504 31.9115C44.6194 31.9099 44.398 31.8188 44.2329 31.6573C44.0678 31.4958 43.9717 31.2765 43.965 31.0456C43.9376 30.461 43.9363 29.8738 43.965 29.2891C43.9675 29.1745 43.9926 29.0616 44.0388 28.9567C44.085 28.8518 44.1514 28.7571 44.2342 28.6779C44.3171 28.5987 44.4147 28.5366 44.5215 28.4951C44.6283 28.4537 44.7423 28.4337 44.8569 28.4363C45.323 28.4571 45.6759 28.8269 45.6967 29.3477C45.7084 29.6238 45.6967 29.9011 45.6967 30.1771L45.6941 30.1732Z" fill="#475161"/>
<path d="M40.5224 35.3634C40.5224 35.6395 40.5328 35.9168 40.5224 36.1929C40.5258 36.4193 40.4402 36.638 40.284 36.8021C40.1278 36.9661 39.9135 37.0622 39.6872 37.0699C39.4609 37.0776 39.2406 36.9962 39.0736 36.8431C38.9067 36.6901 38.8065 36.4776 38.7946 36.2515C38.7614 35.6508 38.7614 35.0487 38.7946 34.4481C38.7982 34.3329 38.8248 34.2196 38.8729 34.1149C38.9209 34.0102 38.9894 33.9161 39.0743 33.8382C39.1592 33.7604 39.2588 33.7002 39.3673 33.6614C39.4758 33.6226 39.5909 33.6058 39.706 33.6121C40.1734 33.6434 40.512 34.0158 40.5302 34.534C40.5302 34.8101 40.5224 35.0874 40.5224 35.3634Z" fill="#475161"/>
<path d="M45.7019 35.3492C45.7019 35.6265 45.7149 35.9038 45.7019 36.1786C45.6719 36.6994 45.3113 37.0692 44.8542 37.09C44.623 37.0868 44.402 36.9944 44.2373 36.8321C44.0725 36.6698 43.9768 36.4501 43.9702 36.219C43.9428 35.6356 43.9415 35.0471 43.9702 34.465C43.973 34.3504 43.9985 34.2375 44.0451 34.1327C44.0917 34.0279 44.1585 33.9334 44.2418 33.8545C44.325 33.7757 44.423 33.714 44.5301 33.6731C44.6372 33.6322 44.7513 33.6128 44.866 33.6161C45.3308 33.6382 45.681 34.0132 45.7019 34.5275C45.7019 34.7971 45.7019 35.0731 45.7019 35.3492Z" fill="#475161"/>
<path d="M40.5224 40.5638C40.5224 40.8243 40.5302 41.0847 40.5224 41.3451C40.5016 41.8568 40.1318 42.2474 39.6852 42.2565C39.4623 42.2574 39.2472 42.1745 39.0825 42.0243C38.9178 41.874 38.8155 41.6674 38.7959 41.4453C38.7588 40.8291 38.7588 40.2113 38.7959 39.5951C38.8084 39.3722 38.9073 39.163 39.0717 39.012C39.2361 38.8609 39.4529 38.78 39.6761 38.7865C40.1422 38.8021 40.5003 39.1771 40.5211 39.6875C40.5315 39.974 40.5224 40.2709 40.5224 40.5638Z" fill="#475161"/>
<path d="M45.6941 40.5118C45.6941 40.8048 45.7123 41.0991 45.6941 41.3894C45.6955 41.6187 45.6057 41.8392 45.4446 42.0023C45.2834 42.1654 45.064 42.2578 44.8347 42.2592C44.6054 42.2606 44.385 42.1708 44.2219 42.0097C44.0588 41.8485 43.9663 41.6291 43.965 41.3998C43.9376 40.8152 43.9363 40.228 43.965 39.6446C43.9667 39.5301 43.9909 39.4169 44.0363 39.3118C44.0817 39.2066 44.1474 39.1113 44.2297 39.0315C44.3119 38.9517 44.409 38.8889 44.5155 38.8467C44.622 38.8044 44.7358 38.7835 44.8504 38.7853C45.3152 38.7996 45.6759 39.1759 45.698 39.6837C45.7097 39.9584 45.698 40.2358 45.698 40.5118H45.6941Z" fill="#475161"/>
<path d="M21.5815 45.6761C21.5815 42.2473 21.5789 38.8185 21.5737 35.3896C21.5737 34.8337 21.9226 34.4782 22.4851 34.4782C24.1587 34.4695 25.8322 34.4695 27.5058 34.4782C28.0735 34.4782 28.4172 34.8311 28.4172 35.3896C28.4172 38.8176 28.4146 42.2464 28.4094 45.6761H21.5815Z" fill="#567580"/>
<path d="M4.30328 30.172C4.30328 29.879 4.28896 29.5848 4.30328 29.2931C4.31109 29.071 4.40176 28.8599 4.55744 28.7013C4.71311 28.5428 4.92251 28.4482 5.1444 28.4363C5.35958 28.427 5.57011 28.5008 5.73247 28.6423C5.89483 28.7838 5.99661 28.9823 6.01678 29.1967C6.06057 29.8471 6.06057 30.4996 6.01678 31.1499C5.98943 31.5874 5.54023 31.9311 5.1431 31.9155C4.92136 31.9006 4.7129 31.8044 4.55769 31.6454C4.40247 31.4863 4.31142 31.2756 4.30198 31.0535C4.28896 30.7579 4.30328 30.4689 4.30328 30.172Z" fill="#475161"/>
<path d="M9.47902 30.1383C9.47902 29.8454 9.46209 29.5524 9.47902 29.2607C9.49332 29.0474 9.58443 28.8465 9.73549 28.6952C9.88655 28.5439 10.0873 28.4525 10.3006 28.4378C10.5058 28.4322 10.7063 28.4995 10.8665 28.6277C11.0267 28.756 11.1362 28.9369 11.1756 29.1383C11.2589 29.8164 11.2589 30.502 11.1756 31.18C11.1411 31.3881 11.0316 31.5765 10.8678 31.7094C10.7039 31.8423 10.4971 31.9106 10.2863 31.9014C10.0655 31.8802 9.86064 31.7772 9.71197 31.6127C9.5633 31.4481 9.48159 31.2338 9.48293 31.012C9.46991 30.7191 9.48293 30.4261 9.48293 30.1331L9.47902 30.1383Z" fill="#475161"/>
<path d="M9.47756 35.3333C9.47756 35.0403 9.46323 34.7461 9.47756 34.4544C9.48698 34.24 9.57432 34.0363 9.72319 33.8817C9.87205 33.7271 10.0722 33.6321 10.2861 33.6146C10.5004 33.5915 10.7152 33.6541 10.8835 33.7888C11.0518 33.9234 11.16 34.1192 11.1845 34.3333C11.2383 34.997 11.2426 35.6638 11.1976 36.3281C11.1676 36.7682 10.7067 37.1094 10.3148 37.082C10.0933 37.0647 9.88612 36.966 9.73319 36.8048C9.58026 36.6437 9.49243 36.4317 9.48667 36.2096C9.46454 35.9192 9.47756 35.6263 9.47756 35.3333Z" fill="#475161"/>
<path d="M4.30464 35.3138C4.30464 35.0221 4.28771 34.7279 4.30464 34.4362C4.31856 34.2231 4.40917 34.0222 4.55972 33.8707C4.71027 33.7191 4.91058 33.6273 5.12363 33.612C5.32959 33.5972 5.53364 33.6599 5.69575 33.7879C5.85787 33.9158 5.96634 34.0996 5.9999 34.3034C6.08712 34.9809 6.09106 35.6666 6.01162 36.3451C5.97803 36.5563 5.8682 36.748 5.7029 36.8838C5.5376 37.0196 5.32828 37.0901 5.11451 37.082C4.90178 37.0608 4.70357 36.9644 4.5554 36.8103C4.40724 36.6562 4.3188 36.4543 4.30594 36.2409C4.28511 35.9375 4.30594 35.6237 4.30464 35.3138Z" fill="#475161"/>
<path d="M6.0441 40.5496C6.0441 40.8257 6.06233 41.1043 6.0441 41.3791C6.00504 41.8843 5.61312 42.2658 5.16652 42.258C4.93544 42.2488 4.71693 42.1503 4.55709 41.9832C4.39725 41.8161 4.30858 41.5934 4.30977 41.3621C4.28894 40.7944 4.29154 40.2241 4.30977 39.6551C4.31225 39.4329 4.39854 39.2199 4.55136 39.0586C4.70418 38.8974 4.91226 38.7997 5.13397 38.7853C5.35649 38.7767 5.5738 38.854 5.741 39.0011C5.9082 39.1482 6.01251 39.3539 6.03238 39.5757C6.05388 39.8999 6.05649 40.2251 6.04019 40.5496H6.0441Z" fill="#475161"/>
<path d="M9.47632 40.5133C9.47632 40.2373 9.46721 39.9599 9.47632 39.6852C9.4735 39.4634 9.55366 39.2485 9.70109 39.0828C9.84852 38.9171 10.0526 38.8124 10.2732 38.7894C10.3828 38.779 10.4935 38.7904 10.5987 38.8229C10.7039 38.8554 10.8017 38.9084 10.8864 38.9788C10.9711 39.0492 11.0411 39.1357 11.0922 39.2332C11.1434 39.3308 11.1748 39.4375 11.1846 39.5472C11.2315 40.1952 11.2315 40.8458 11.1846 41.4938C11.1508 41.956 10.6781 42.292 10.2562 42.2503C10.0447 42.2245 9.84937 42.1235 9.70598 41.9658C9.56259 41.808 9.48062 41.604 9.47502 41.3909C9.4646 41.0993 9.47762 40.8063 9.47632 40.5133Z" fill="#475161"/>
<path d="M23.2533 29.3322C23.2533 29.6408 23.2703 29.9494 23.2533 30.2567C23.2327 30.4676 23.1354 30.6636 22.9799 30.8076C22.8244 30.9515 22.6215 31.0335 22.4096 31.0379C22.1968 31.0322 21.9937 30.9472 21.8403 30.7995C21.6868 30.6519 21.5941 30.4522 21.5802 30.2397C21.5594 29.6239 21.5568 29.0054 21.5802 28.3882C21.5984 27.8895 21.9526 27.5939 22.4487 27.6069C22.5547 27.6032 22.6603 27.6211 22.7591 27.6595C22.858 27.6979 22.9479 27.756 23.0236 27.8304C23.0992 27.9047 23.159 27.9936 23.1991 28.0917C23.2393 28.1899 23.2591 28.2952 23.2573 28.4012C23.2729 28.7085 23.2573 29.0184 23.2573 29.327L23.2533 29.3322Z" fill="#47505F"/>
<path d="M28.4277 29.3506C28.4277 29.6436 28.442 29.9365 28.4277 30.2282C28.4152 30.4403 28.325 30.6403 28.1745 30.7902C28.0239 30.94 27.8234 31.0292 27.6113 31.0407C27.3901 31.0423 27.1769 30.9581 27.0164 30.8059C26.856 30.6537 26.7607 30.4452 26.7506 30.2243C26.7311 29.6084 26.7298 28.9899 26.7506 28.374C26.7675 27.9001 27.11 27.611 27.5852 27.611C27.6912 27.6032 27.7977 27.6171 27.8982 27.6519C27.9986 27.6866 28.0909 27.7415 28.1694 27.8132C28.2479 27.8849 28.3109 27.9718 28.3547 28.0687C28.3984 28.1656 28.4219 28.2703 28.4237 28.3766C28.4459 28.7008 28.4277 29.0264 28.4277 29.3506Z" fill="#47505F"/>
</g>
<defs>
<clipPath id="clip0">
<rect width="50" height="50" fill="white"/>
</clipPath>
</defs>
</svg>
