<svg width="60" height="61" viewBox="0 0 60 61" fill="none" xmlns="http://www.w3.org/2000/svg">
<path d="M34.6362 0C34.9015 0.227715 35.1832 0.438997 35.4309 0.685493C39.0579 4.30546 42.672 7.93834 46.3119 11.5454C46.547 11.7597 46.7326 12.0227 46.8559 12.316C46.9791 12.6093 47.037 12.9259 47.0256 13.2439C47.0033 18.7983 47.0126 24.3538 47.0126 29.9117V30.535L47.1124 30.5573C47.1817 30.4129 47.2568 30.2697 47.3178 30.1206C48.6881 26.7785 50.0575 23.4359 51.4261 20.0929C52.1163 18.4074 53.2619 17.9214 54.9393 18.6046C56.0602 19.0612 57.1824 19.5154 58.301 19.9779C59.8668 20.6247 60.3692 21.8172 59.7295 23.3819C58.1645 27.2163 56.5963 31.0471 55.0249 34.8745C54.969 35.0201 54.9007 35.1607 54.8207 35.2947C54.5566 35.7243 54.161 35.8534 53.7115 35.6633C53.2619 35.4731 53.0776 35.0764 53.2279 34.601C53.3875 34.0998 53.607 33.6174 53.8065 33.1302C54.4052 31.6653 55.005 30.2016 55.606 28.7391C55.6858 28.5431 55.7551 28.3435 55.8407 28.1029L50.9026 26.084C48.359 32.2992 45.8377 38.4569 43.2859 44.6909L48.2381 46.7192C48.7581 45.4562 49.264 44.2319 49.764 43.0065C50.4307 41.3804 51.0959 39.7539 51.7595 38.1271C51.7806 38.0731 51.8017 38.0179 51.824 37.9639C52.1363 37.2256 52.5612 36.965 53.0941 37.1833C53.627 37.4017 53.7772 37.9029 53.4849 38.6224C52.9931 39.8349 52.4943 41.0439 51.9977 42.2541C51.3181 43.9174 50.6115 45.5689 49.9683 47.2462C49.6584 48.055 49.264 48.791 48.5386 49.264C47.238 50.1126 46.8765 51.2665 46.9763 52.7854C47.1089 54.8113 47.0009 56.8514 47.015 58.8891C47.015 59.4267 46.8648 59.8434 46.3706 60.0981H0.00586752V11.0336C0.102389 10.9157 0.205868 10.8036 0.31575 10.6979C0.431886 10.5918 0.57472 10.5193 0.728926 10.4883C0.883133 10.4572 1.04289 10.4687 1.19106 10.5216C1.33922 10.5744 1.4702 10.6666 1.56993 10.7882C1.66967 10.9099 1.73439 11.0564 1.75717 11.212C1.78599 11.4645 1.79423 11.7189 1.78181 11.9727C1.78181 27.1537 1.78181 42.332 1.78181 57.5075V58.2869H45.171V52.3898L43.7319 53.6974C43.5441 53.8688 43.3798 54.1047 43.1603 54.1951C42.8598 54.3125 42.456 54.4615 42.2025 54.3512C41.9489 54.2409 41.6989 53.8371 41.6778 53.5448C41.5275 51.4578 41.5099 49.3602 41.3033 47.2803C41.1437 45.664 41.4782 44.2167 42.125 42.7541C43.1544 40.4347 44.0723 38.066 45.0219 35.7114C45.1401 35.4249 45.2034 35.1187 45.2085 34.8088C45.2195 27.9045 45.2218 20.9999 45.2156 14.0949C45.2156 13.9235 45.1968 13.7533 45.1815 13.5174H44.523C41.2763 13.5174 38.0289 13.5174 34.7806 13.5174C33.7347 13.5174 33.473 13.2509 33.4718 12.1933C33.4718 8.96541 33.4718 5.73788 33.4718 2.51074V1.8229H1.77947V3.93572C1.77947 5.08956 1.77947 6.24339 1.77947 7.39723C1.77947 7.90665 1.76069 8.38791 1.18436 8.60741C0.626807 8.81869 0.316923 8.45364 0 8.10385V0.00469482L34.6362 0ZM35.3111 3.21853V11.6933H43.7965L35.3111 3.21853ZM56.5345 26.4596C57.0944 25.0874 57.6366 23.7751 58.166 22.457C58.3268 22.0579 58.1097 21.8349 57.7575 21.6905C56.511 21.1842 55.2664 20.6755 54.0237 20.1645C53.6105 19.9943 53.3464 20.1258 53.1833 20.5167C52.9955 20.9674 52.8088 21.417 52.6257 21.8689C52.2842 22.7105 51.9449 23.5533 51.5893 24.4348L56.5345 26.4596ZM43.0793 46.5408C43.1708 48.2627 43.2565 49.8826 43.3493 51.6257L47.0901 48.1806L43.0793 46.5408Z" fill="#92210F"/>
<path d="M6.01216 36.5811C6.01216 35.5458 6.01216 34.5094 6.01216 33.4741C6.01216 32.4834 6.31382 32.1911 7.32093 32.1888C9.31637 32.1888 11.3118 32.1771 13.3073 32.1982C13.7193 32.1982 14.0115 32.1101 14.2357 31.7521C14.4056 31.4888 14.6023 31.2437 14.8226 31.0209C15.1748 30.6523 15.6748 30.6112 16.0387 30.8906C16.2182 31.0313 16.3356 31.2366 16.3658 31.4627C16.3961 31.6888 16.3368 31.9178 16.2007 32.1008C15.8814 32.5703 15.487 32.9834 15.1771 33.4553C15.0056 33.7051 14.905 33.9968 14.886 34.2993C14.8602 36.1163 14.8754 37.938 14.8707 39.7515C14.8707 40.761 14.582 41.0486 13.5796 41.0509C11.4879 41.0556 9.39658 41.0556 7.30567 41.0509C6.31029 41.0509 6.0145 40.7516 6.0145 39.748C6.0098 38.6928 6.01216 37.6375 6.01216 36.5811ZM13.0302 36.1691C12.603 36.7079 12.2767 37.1375 11.9292 37.5507C11.4268 38.1481 10.9421 38.1822 10.3845 37.6504C9.87588 37.1661 9.37898 36.6691 8.89381 36.1597C8.46538 35.7125 8.4419 35.1632 8.80578 34.8063C9.18843 34.4319 9.68729 34.4542 10.1556 34.9108C10.4432 35.1913 10.6862 35.5177 10.9879 35.8686L12.4304 34.0258H7.83387V39.2163H13.0302V36.1691Z" fill="#92210F"/>
<path d="M10.455 29.3281C9.36099 29.3281 8.26584 29.3364 7.16835 29.3281C6.3467 29.3199 6.01569 28.9971 6.01217 28.1919C6.00278 26.0008 6.00278 23.8098 6.01217 21.6187C6.01217 20.7865 6.34083 20.4789 7.21413 20.4742C9.16849 20.466 11.124 20.4472 13.0831 20.486C13.67 20.4977 14.0972 20.3486 14.3813 19.8298C14.4446 19.7309 14.516 19.6374 14.5949 19.5505C15.0644 18.9636 15.602 18.8227 16.0422 19.1725C16.4824 19.5223 16.4589 20.0587 15.9859 20.6726C15.7229 21.013 15.4177 21.3264 15.2018 21.6938C15.0178 21.9793 14.9077 22.306 14.8813 22.6446C14.8508 24.4428 14.8708 26.2411 14.8649 28.044C14.8649 29.0452 14.5738 29.3258 13.5643 29.3293C12.5279 29.3305 11.4914 29.3281 10.455 29.3281ZM7.87262 22.3053C7.84253 22.3614 7.82078 22.4215 7.80807 22.4838C7.8022 24.0484 7.80807 25.6119 7.79281 27.1789C7.79281 27.578 8.04165 27.5463 8.30224 27.5463H13.0091V24.4757C12.5819 25.0133 12.245 25.4699 11.8741 25.8971C11.4304 26.4077 10.935 26.4394 10.4491 25.9828C9.90681 25.4746 9.38212 24.9464 8.87035 24.4088C8.46891 23.9886 8.45365 23.4486 8.79757 23.0965C9.14149 22.7443 9.67557 22.735 10.1052 23.1399C10.4139 23.4298 10.6803 23.7632 11.0066 24.1235L12.4328 22.3053H7.87262Z" fill="#92210F"/>
<path d="M14.8649 48.3721C14.8649 49.4285 14.8719 50.4849 14.8649 51.5414C14.8578 52.4616 14.5808 52.7551 13.684 52.7598C11.5125 52.7691 9.34142 52.7691 7.17069 52.7598C6.31969 52.7598 6.0192 52.437 6.01685 51.5695C6.00981 49.4176 6.00981 47.2656 6.01685 45.1137C6.01685 44.2322 6.34082 43.9176 7.23173 43.9152C9.38367 43.9098 11.5356 43.9098 13.6876 43.9152C14.5421 43.9152 14.8614 44.2286 14.8614 45.089C14.8743 46.1795 14.8649 47.277 14.8649 48.3721ZM7.79632 50.9333H13.0162V45.6982C11.3506 45.6982 9.72955 45.6888 8.11794 45.7194C8.0076 45.7194 7.81509 46.0234 7.81157 46.1889C7.7834 47.2617 7.79632 48.3357 7.79632 49.4086V50.9333Z" fill="#92210F"/>
<path d="M29.6875 47.0829C26.6169 47.0829 23.5463 47.0829 20.4756 47.0735C20.1787 47.0735 19.8113 47.0301 19.6047 46.8552C19.3981 46.6803 19.2467 46.2906 19.3042 46.0511C19.3687 45.7847 19.6692 45.537 19.9228 45.3668C20.0777 45.2635 20.3406 45.3105 20.5543 45.3105C26.6369 45.3105 32.7194 45.3105 38.802 45.3105C38.9382 45.3105 39.0767 45.3034 39.2128 45.3163C39.7551 45.3644 40.1225 45.7307 40.1167 46.2119C40.1108 46.6932 39.7446 47.07 39.1929 47.0758C37.6282 47.0923 36.0636 47.084 34.4977 47.0852L29.6875 47.0829Z" fill="#92210F"/>
<path d="M29.7028 35.3617C26.6908 35.3617 23.6781 35.3617 20.6646 35.3617C20.4499 35.3668 20.2351 35.359 20.0214 35.3382C19.8229 35.3262 19.6359 35.2411 19.4965 35.0994C19.3572 34.9576 19.2752 34.7692 19.2666 34.5706C19.2173 34.1011 19.4474 33.7736 19.9005 33.6433C20.1086 33.593 20.3227 33.5721 20.5366 33.5811C26.6404 33.5811 32.7441 33.5811 38.8478 33.5811C39.0825 33.5811 39.3842 33.5517 39.5251 33.6785C39.7739 33.9039 40.0462 34.2255 40.0838 34.5342C40.1342 34.9403 39.8385 35.2655 39.3795 35.3312C39.166 35.3559 38.9511 35.3653 38.7363 35.3594C35.7259 35.3625 32.7147 35.3633 29.7028 35.3617Z" fill="#92210F"/>
<path d="M29.6899 23.6423H20.7691C20.593 23.6423 20.4169 23.6423 20.242 23.6423C19.6199 23.6036 19.2678 23.2902 19.2561 22.7808C19.2432 22.2491 19.6152 21.9051 20.2561 21.8605C20.3735 21.8523 20.4909 21.8605 20.6083 21.8605C26.6509 21.8605 32.694 21.8605 38.7375 21.8605C39.0074 21.8605 39.3514 21.8241 39.531 21.9685C39.7868 22.1739 40.0826 22.5425 40.0627 22.8195C40.0427 23.0965 39.6859 23.3923 39.4112 23.5848C39.2481 23.7022 38.957 23.6447 38.7234 23.6447C35.713 23.6431 32.7018 23.6423 29.6899 23.6423Z" fill="#92210F"/>
<path d="M28.2391 51.385C25.6982 51.385 23.1573 51.385 20.6165 51.385C20.3641 51.385 20.046 51.4237 19.8782 51.2922C19.6176 51.088 19.3453 50.7734 19.2913 50.4706C19.2103 50.0504 19.5119 49.7393 19.9521 49.6489C20.1631 49.6107 20.3775 49.5942 20.5918 49.5996C25.6931 49.5996 30.7944 49.5996 35.8957 49.5996C35.9743 49.5996 36.0518 49.5996 36.1305 49.5996C36.8758 49.6231 37.2573 49.933 37.2491 50.507C37.2409 51.081 36.8488 51.3885 36.0999 51.3897C33.4765 51.3897 30.8578 51.385 28.2391 51.385Z" fill="#92210F"/>
<path d="M27.7625 26.1592C30.2275 26.1592 32.6854 26.1522 35.1468 26.1686C35.4438 26.1686 35.8124 26.2109 36.0178 26.3858C36.1233 26.4901 36.2043 26.6166 36.255 26.756C36.3058 26.8954 36.325 27.0444 36.3112 27.1921C36.2643 27.4445 35.9837 27.6922 35.7466 27.8565C35.5929 27.9622 35.3335 27.9316 35.121 27.9316C30.2365 27.9316 25.3527 27.9316 20.4697 27.9316C20.3723 27.9316 20.2749 27.9316 20.1775 27.9316C19.5906 27.8835 19.2384 27.5173 19.2596 27.0008C19.2819 26.5125 19.6387 26.1721 20.1986 26.1674C21.8196 26.1533 23.4406 26.1604 25.0628 26.1604L27.7625 26.1592Z" fill="#92210F"/>
<path d="M24.1695 11.5198C22.4707 11.5198 20.7718 11.5198 19.0729 11.5198C18.8769 11.5284 18.6805 11.5198 18.486 11.494C18.0423 11.4165 17.7372 11.0996 17.7888 10.6911C17.8287 10.3836 18.1022 10.0631 18.3522 9.83893C18.4931 9.71333 18.7983 9.74737 19.0283 9.74737C22.4652 9.74268 25.902 9.74268 29.3389 9.74737C29.4957 9.73872 29.6529 9.74501 29.8084 9.76615C30.2908 9.85771 30.5714 10.1559 30.5878 10.6488C30.6043 11.1184 30.2486 11.4822 29.7345 11.5104C29.2204 11.5386 28.6781 11.5221 28.1534 11.5233L24.1695 11.5198Z" fill="#92210F"/>
<path d="M22.9781 37.8795C23.8773 37.8795 24.7752 37.8701 25.6778 37.8795C26.3316 37.8889 26.7131 38.214 26.7343 38.7352C26.7554 39.2563 26.3387 39.6507 25.6778 39.6554C23.8992 39.6671 22.1213 39.6671 20.3441 39.6554C19.6633 39.6554 19.2678 39.3033 19.269 38.7551C19.2701 38.2069 19.6587 37.8853 20.3524 37.8771C21.2257 37.8712 22.099 37.8795 22.9781 37.8795Z" fill="#92210F"/>
</svg>
