<svg width="50" height="50" viewBox="0 0 50 50" fill="none" xmlns="http://www.w3.org/2000/svg">
<path d="M50 37.2322C49.7424 37.4653 49.5128 37.752 49.2226 37.9409C44.0826 41.279 38.9251 44.5926 33.7932 47.9435C32.1172 49.0379 30.2745 49.489 28.3152 49.6393C26.3559 49.7897 24.5505 49.2524 22.7206 48.7279C19.8009 47.8934 16.8696 47.0962 13.9534 46.2488C12.8543 45.9294 11.8415 46.0157 10.8613 46.6078C10.4578 46.8515 10.0411 47.0726 9.61298 47.2698C9.33209 47.398 9.25633 47.5798 9.2505 47.8736C9.23302 48.8899 8.93697 49.165 7.90897 49.1393C5.63151 49.0795 3.35444 49.0162 1.07776 48.9493C0.32948 48.9284 -0.0190153 48.574 0.000798851 47.8129C0.109582 43.7297 0.222251 39.6472 0.338805 35.5655C0.37144 34.379 0.39475 33.1913 0.441372 32.0048C0.474007 31.1609 0.791033 30.866 1.63022 30.887C3.97217 30.9469 6.31412 31.0117 8.65608 31.0817C9.33325 31.1015 9.66893 31.45 9.67475 32.1213C9.67475 32.5759 9.67475 33.0304 9.67475 33.5421C9.82977 33.4803 9.96148 33.4361 10.0874 33.3789C13.6026 31.7868 17.1377 31.7588 20.5772 33.4873C22.2241 34.3417 24.053 34.7856 25.9084 34.7811C27.6485 34.7811 29.3886 34.8487 31.1288 34.8976C33.3212 34.9641 35.0263 35.9082 36.2152 37.7625C36.2665 37.8418 36.3213 37.921 36.3889 38.0201L41.8669 35.4385C42.5429 35.1191 43.2131 34.7869 43.8972 34.4874C44.9345 34.0288 46.1029 33.9625 47.1854 34.3008C48.2678 34.6391 49.1905 35.359 49.782 36.3266C49.8496 36.4338 49.9254 36.5364 49.9965 36.6413L50 37.2322ZM35.0998 39.9223C35.073 39.8162 35.0438 39.6624 34.9937 39.5155C34.4319 37.8733 32.9599 36.8196 31.1171 36.7637C29.328 36.7089 27.5378 36.6797 25.7498 36.625C25.0016 36.6028 24.2533 36.5667 23.5097 36.4898C22.0714 36.3406 20.8406 35.6191 19.5469 35.041C16.26 33.5689 13.0408 33.7694 9.91952 35.5725C9.80507 35.6267 9.70948 35.714 9.64508 35.8231C9.58068 35.9321 9.55042 36.058 9.5582 36.1844C9.49526 39.0469 9.41484 41.9095 9.34025 44.7732C9.34025 44.9224 9.34025 45.0728 9.34025 45.307C9.67476 45.1299 9.91719 45.0052 10.1561 44.8746C10.7725 44.5237 11.4537 44.3014 12.1585 44.2213C12.8633 44.1412 13.577 44.2048 14.2565 44.4084C17.3813 45.2931 20.5142 46.1567 23.6367 47.0484C25.1426 47.4796 26.6415 47.9039 28.2324 47.7791C29.8234 47.6544 31.3339 47.3129 32.7034 46.4236C37.5264 43.2813 42.358 40.1527 47.198 37.0376C47.3566 36.9362 47.5104 36.8266 47.6643 36.7205L47.6876 36.5527C47.1666 36.3581 46.6584 36.0795 46.1211 35.9956C45.655 35.9249 45.1785 35.9851 44.7446 36.1692C42.1583 37.3453 39.5953 38.5737 37.0066 39.7929C37.0322 40.0528 37.0649 40.2929 37.08 40.5342C37.15 41.561 36.7956 41.9328 35.7618 41.9095C32.2489 41.8163 28.7356 41.7191 25.2219 41.6181C24.5668 41.5995 24.1461 41.2125 24.1589 40.66C24.1717 40.1076 24.5878 39.7463 25.2615 39.7614C27.279 39.8092 29.2954 39.878 31.3118 39.9176C32.5612 39.9421 33.8142 39.9223 35.0998 39.9223ZM7.40429 47.2582C7.53716 42.4456 7.66887 37.7007 7.80057 32.922L2.27826 32.7717C2.14655 37.5842 2.01718 42.3291 1.88664 47.1078L7.40429 47.2582Z" fill="white"/>
<path d="M24.7206 31.2856C22.4968 31.2577 20.7088 30.3392 19.5596 28.3065C19.1649 27.6099 18.5739 27.0449 17.8602 26.6818C15.8066 25.5897 14.7529 23.8845 14.8147 21.5383C14.842 20.786 14.6387 20.0434 14.2319 19.41C12.9506 17.3975 12.9483 15.3811 14.2249 13.3608C14.639 12.7129 14.8463 11.9544 14.8194 11.186C14.7669 8.87702 15.7949 7.1905 17.8113 6.11005C18.5746 5.70611 19.2063 5.09217 19.6319 4.34076C20.7345 2.45375 22.4163 1.50501 24.5854 1.50501C25.5927 1.51141 26.584 1.25382 27.4608 0.757896C29.3256 -0.268942 31.2371 -0.24797 33.0915 0.79402C33.9242 1.27115 34.8697 1.51628 35.8293 1.50384C38.0439 1.49335 39.7479 2.44443 40.8656 4.36873C41.285 5.10631 41.9082 5.70727 42.6605 6.09955C44.6769 7.17767 45.7108 8.87119 45.6758 11.1708C45.6608 11.9862 45.887 12.7879 46.3262 13.4751C47.5115 15.3982 47.515 17.3493 46.3331 19.2736C45.8883 19.9759 45.6593 20.7933 45.6746 21.6245C45.7003 23.8577 44.7142 25.536 42.755 26.6025C41.9471 27.0293 41.2764 27.6758 40.8202 28.4674C39.7455 30.2996 38.0951 31.2379 35.989 31.2565C34.934 31.2546 33.8959 31.5213 32.9726 32.0316C31.1077 33.0468 29.1951 32.9966 27.3419 31.9477C26.5423 31.4896 25.723 31.1901 24.7206 31.2856ZM25.4654 29.3881C26.1134 29.3637 27.1799 29.6924 28.1857 30.2879C29.5319 31.0828 30.9096 31.1038 32.2651 30.3043C33.3163 29.6738 34.5274 29.3609 35.7524 29.4033C37.3352 29.4464 38.5497 28.7716 39.3213 27.3694C39.8735 26.3631 40.7202 25.5497 41.7479 25.0384C43.1769 24.3052 43.8785 23.1339 43.8249 21.5231C43.7774 20.4257 44.0771 19.3412 44.6816 18.4239C45.5756 17.0521 45.5709 15.6873 44.6746 14.3142C44.0757 13.4126 43.7783 12.3443 43.8249 11.2629C43.8855 9.63113 43.1893 8.44539 41.7363 7.70566C40.6982 7.1829 39.8443 6.35585 39.2886 5.33496C38.5276 3.96662 37.3317 3.31742 35.792 3.35355C34.5507 3.39572 33.3235 3.07971 32.257 2.44326C30.9248 1.66002 29.5576 1.66469 28.2277 2.45026C27.1768 3.08137 25.9655 3.39432 24.7404 3.35122C23.1576 3.30926 21.9513 3.98526 21.175 5.38741C20.6347 6.38151 19.8007 7.1846 18.7869 7.68701C17.3276 8.41896 16.6294 9.5915 16.6819 11.2279C16.7288 12.3098 16.4331 13.3788 15.8369 14.2828C14.9044 15.6873 14.9149 17.0731 15.8369 18.4787C16.4242 19.3502 16.7167 20.3869 16.6714 21.4369C16.5956 23.1677 17.3556 24.3507 18.8778 25.1188C19.8179 25.5843 20.5913 26.3288 21.0923 27.2506C21.9326 28.7786 23.2112 29.4872 25.4654 29.3881Z" fill="white"/>
<path d="M24.8221 26.1362C24.0505 26.1234 23.625 25.473 23.8768 24.8541C23.9387 24.7213 24.012 24.5942 24.0959 24.4741C27.6702 18.7397 31.2504 13.006 34.8363 7.27316C34.9566 7.06335 35.1208 6.88203 35.3177 6.74167C35.4759 6.63675 35.6653 6.58924 35.8543 6.60706C36.0432 6.62487 36.2204 6.70694 36.3562 6.83957C36.5069 6.95448 36.6151 7.11629 36.6636 7.29948C36.7121 7.48267 36.6983 7.67681 36.6243 7.85126C36.5543 8.01446 36.4688 8.17058 36.369 8.31747C32.8087 14.0263 29.2472 19.7327 25.6846 25.4369C25.4514 25.8145 25.209 26.149 24.8221 26.1362Z" fill="white"/>
<path d="M39.3634 21.283C39.3492 21.9435 39.1967 22.5937 38.9156 23.1915C38.6345 23.7894 38.2312 24.3217 37.7316 24.754C36.291 26.0267 34.2432 26.0256 32.7897 24.7633C30.7757 23.015 30.5752 19.6594 32.376 17.685C34.1464 15.7397 36.946 15.925 38.4566 18.0929C39.0743 18.9729 39.3657 19.959 39.3634 21.283ZM37.5078 21.0079C37.488 20.1548 37.2397 19.3657 36.5824 18.7515C35.777 18.0009 34.7082 18.016 33.9086 18.7736C32.714 19.9053 32.7081 22.1315 33.8982 23.2667C34.735 24.0663 35.8737 24.0465 36.6768 23.2096C37.2572 22.6012 37.4903 21.8564 37.5078 21.0079Z" fill="white"/>
<path d="M29.321 11.7313C29.341 12.7805 29.0262 13.8089 28.4223 14.6672C26.8221 16.961 23.7742 17.0111 22.097 14.7745C20.7752 13.011 20.7846 10.4142 22.1191 8.67173C23.808 6.46536 26.8186 6.52597 28.413 8.7976C29.0145 9.65673 29.332 10.6826 29.321 11.7313ZM27.4561 11.7417C27.4561 10.9165 27.1974 10.1753 26.7137 9.62979C25.892 8.69736 24.6611 8.67172 23.7998 9.5552C22.6891 10.6928 22.7019 12.8315 23.8278 13.9481C24.6623 14.7768 25.8302 14.7721 26.6426 13.9201C27.2207 13.3152 27.4619 12.5716 27.4596 11.7417H27.4561Z" fill="white"/>
</svg>
