<svg width="51" height="50" viewBox="0 0 51 50" fill="none" xmlns="http://www.w3.org/2000/svg">
<path d="M32.1611 17.289C32.1611 17.9579 32.1611 18.6268 32.1611 19.2957L32.1835 23.1275L32.1656 28.558H30.3792C30.3554 26.8386 30.3033 26.7865 28.5929 26.7865C26.8824 26.7865 26.8258 26.8372 26.8065 28.558C26.3286 28.6191 25.8299 28.4761 25.3714 28.7069C24.9517 28.3898 24.6003 28.5878 24.3294 28.9049C24.187 29.0544 24.1075 29.2529 24.1075 29.4594C24.1075 29.6659 24.187 29.8644 24.3294 30.0139C24.6018 30.3295 24.9517 30.5305 25.3714 30.2089C25.6246 30.3208 25.9004 30.3717 26.1768 30.3578C27.2799 30.3578 28.3845 30.3667 29.4875 30.3727C29.4875 30.9562 29.4875 31.5383 29.4875 32.1203L27.8783 32.1412C27.134 32.1516 26.8139 32.4687 26.8065 33.2338C26.8065 33.6953 26.8065 34.1578 26.8065 34.6212C26.8065 35.3849 27.1266 35.702 27.8783 35.7139L29.4875 35.7347V37.4794L27.8783 37.5003C27.134 37.5107 26.8139 37.8278 26.8065 38.5929C26.8065 39.0544 26.8065 39.5169 26.8065 39.9803C26.8065 40.744 27.1266 41.0611 27.8783 41.073L29.4875 41.0938C29.4027 42.9353 29.4875 44.7484 30.3807 46.4246H28.5735C28.5735 45.588 28.5899 44.7514 28.5839 43.9148C28.5839 43.1869 28.2535 42.8728 27.524 42.8594C26.6874 42.8489 25.8508 42.846 25.0142 42.8385C25.0142 39.9406 25.0142 37.0418 25.0142 34.1419C25.0142 33.3455 24.6986 33.0358 23.8947 33.0343C22.2979 33.0343 20.7001 33.0343 19.1013 33.0343C18.1471 33.0343 17.8702 33.3083 17.8702 34.255C17.8702 37.1182 17.8702 39.9798 17.8702 42.84L14.8527 42.8757C13.6544 42.8192 13.4028 43.0559 13.4043 44.2512C13.4043 44.9762 13.4043 45.7012 13.4162 46.4261H10.7099C10.7099 46.3323 10.7218 46.24 10.7218 46.1478C10.7218 38.6212 10.7218 31.0952 10.7218 23.5696C10.7218 23.4401 10.7084 23.3091 10.7009 23.1796C10.7009 21.8587 10.7049 20.5382 10.7128 19.2183L10.7203 17.2831C10.7434 17.2545 10.7711 17.2299 10.8022 17.2101C14.2429 15.7364 17.6831 14.2606 21.1229 12.7829C21.2419 12.7324 21.3708 12.7099 21.4999 12.7171C21.6289 12.7244 21.7546 12.7611 21.8672 12.8246C23.2278 13.4201 24.5929 13.9947 25.9535 14.5842C28.0217 15.4853 30.0909 16.3869 32.1611 17.289ZM21.4325 14.285C20.9037 14.2864 20.3871 14.4444 19.9479 14.7388C19.5087 15.0333 19.1664 15.4512 18.9641 15.9398C18.7619 16.4284 18.7088 16.966 18.8115 17.4847C18.9141 18.0035 19.168 18.4803 19.5411 18.855C19.9142 19.2298 20.3899 19.4858 20.9082 19.5907C21.4265 19.6957 21.9642 19.6449 22.4537 19.4449C22.9433 19.2448 23.3626 18.9044 23.6591 18.4665C23.9555 18.0285 24.1157 17.5127 24.1195 16.9839C24.1211 16.63 24.0527 16.2793 23.9184 15.9519C23.7841 15.6246 23.5864 15.3269 23.3367 15.0762C23.0871 14.8254 22.7903 14.6264 22.4635 14.4906C22.1368 14.3549 21.7864 14.285 21.4325 14.285ZM30.3733 23.2168C30.3733 21.4944 30.3048 21.4304 28.6063 21.4304C26.8526 21.4304 26.7991 21.484 26.7991 23.2376C26.7991 24.9347 26.869 25.0031 28.5854 25.0031C30.3018 25.0031 30.3733 24.9317 30.3733 23.2227V23.2168ZM16.0824 23.2168C16.0824 21.4989 16.0124 21.4304 14.3109 21.4304H14.2543C12.587 21.4304 12.5081 21.5078 12.5081 23.187C12.5081 24.9451 12.5662 25.0031 14.3079 25.0031C16.0109 25.0031 16.0824 24.9317 16.0824 23.2183V23.2168ZM21.4415 21.4304C19.7265 21.4304 19.6551 21.4989 19.6551 23.2049V23.26C19.6551 24.9243 19.7355 25.0031 21.4161 25.0031C23.1712 25.0031 23.2293 24.9466 23.2293 23.2004C23.2278 21.4929 23.1578 21.4304 21.4385 21.4304H21.4415ZM12.5096 28.5595C12.5096 30.2953 12.5751 30.3622 14.2677 30.3622C16.0243 30.3622 16.0838 30.3042 16.0838 28.564C16.0838 26.8595 16.0139 26.7895 14.2975 26.7895C12.5811 26.7895 12.5081 26.852 12.5081 28.5595H12.5096ZM21.4519 30.3622C23.1459 30.3622 23.2293 30.2819 23.2293 28.6354C23.2293 26.8386 23.1802 26.7895 21.4042 26.7895C19.7325 26.7895 19.6551 26.8669 19.6551 28.5431C19.6536 30.3027 19.7161 30.3622 21.4504 30.3622H21.4519ZM12.5096 33.9201C12.5096 35.6558 12.5751 35.7213 14.2692 35.7213C16.0258 35.7213 16.0838 35.6633 16.0838 33.9201C16.0838 32.2171 16.0139 32.1486 14.2975 32.1486C12.5811 32.1486 12.5081 32.2111 12.5081 33.9201H12.5096ZM16.0824 39.2956C16.0824 37.5777 16.0124 37.5092 14.3109 37.5092H14.2558C12.587 37.5092 12.5081 37.5866 12.5081 39.2658C12.5081 41.0239 12.5677 41.0819 14.3064 41.0819C16.0109 41.0804 16.0824 41.009 16.0824 39.2956Z" fill="#EFEFEF"/>
<path d="M44.6508 37.5005C44.6508 39.4536 44.7461 41.4127 44.6389 43.3583C44.5455 44.9692 43.9013 46.499 42.8142 47.6915C41.7272 48.884 40.2633 49.6666 38.668 49.9083C35.6043 50.3475 33.2329 49.1997 31.4734 46.6973C31.4109 46.6065 31.3394 46.5217 31.2724 46.4338C30.9598 45.6627 30.604 44.9154 30.473 44.0743C30.2869 42.8834 30.4313 41.6925 30.3643 40.5135V38.0781C30.3643 37.8861 30.3763 37.6925 30.3807 37.499L44.6508 37.5005ZM37.5247 42.867C36.9501 42.867 36.3755 42.8566 35.8008 42.867C35.1831 42.8819 34.8422 43.2422 34.8407 43.8466C34.8407 45.2206 36.0852 46.4338 37.5098 46.4368C38.9344 46.4398 40.1894 45.2459 40.1894 43.86C40.1894 43.2526 39.8544 42.8834 39.2426 42.867C38.6754 42.8551 38.0993 42.867 37.5247 42.867ZM33.9415 40.1994C33.9448 40.0221 33.8952 39.8478 33.799 39.6988C33.7029 39.5498 33.5646 39.4328 33.4017 39.3626C33.2388 39.2925 33.0587 39.2725 32.8844 39.3051C32.71 39.3377 32.5494 39.4214 32.4228 39.5456C32.2962 39.6699 32.2095 39.829 32.1737 40.0027C32.1379 40.1764 32.1546 40.3568 32.2217 40.521C32.2888 40.6851 32.4033 40.8256 32.5505 40.9245C32.6977 41.0234 32.871 41.0762 33.0484 41.0762C33.2824 41.0763 33.5072 40.9844 33.6742 40.8204C33.8413 40.6564 33.9372 40.4335 33.9415 40.1994ZM42.001 41.0762C42.1785 41.0734 42.3511 41.0178 42.4969 40.9165C42.6426 40.8151 42.7549 40.6727 42.8193 40.5073C42.8837 40.3418 42.8974 40.161 42.8585 39.9878C42.8197 39.8146 42.7301 39.6569 42.6013 39.5348C42.4724 39.4127 42.3101 39.3318 42.1351 39.3023C41.96 39.2729 41.7802 39.2963 41.6185 39.3695C41.4568 39.4428 41.3206 39.5625 41.2272 39.7135C41.1339 39.8645 41.0877 40.0399 41.0944 40.2173C41.1034 40.4505 41.2032 40.671 41.3727 40.8315C41.5421 40.9921 41.7676 41.0799 42.001 41.0762Z" fill="#EFC7A0"/>
<path d="M32.1611 17.2893C30.0909 16.3901 28.0198 15.491 25.9476 14.5919C24.587 13.9964 23.2219 13.4218 21.8613 12.8323C21.7487 12.7688 21.623 12.732 21.494 12.7248C21.3649 12.7176 21.2359 12.7401 21.1169 12.7906C17.6802 14.2792 14.2399 15.755 10.7962 17.2178C10.7652 17.2375 10.7375 17.2622 10.7144 17.2908C10.3883 17.4173 10.0594 17.5394 9.73334 17.6689C8.69129 18.0827 7.64924 17.6897 7.27262 16.7385C6.89599 15.7872 7.33663 14.8181 8.34742 14.3834C12.2476 12.7072 16.1479 11.0345 20.0481 9.36525C20.2178 9.29231 20.383 9.20745 20.5498 9.12707C20.8273 8.99833 21.1296 8.93164 21.4355 8.93164C21.7415 8.93164 22.0437 8.99833 22.3213 9.12707L33.2449 13.8312C33.6528 14.0068 34.0636 14.178 34.47 14.3581C35.5508 14.839 35.9974 15.8259 35.5746 16.7906C35.1518 17.7552 34.1217 18.0842 33.032 17.6317C32.7492 17.5096 32.4544 17.4024 32.1611 17.2893Z" fill="#C80C51"/>
<path d="M9.83008 46.4202C7.87848 46.4276 5.92538 46.4202 3.97229 46.447C3.64925 46.447 3.56589 46.3487 3.57035 46.0361C3.58673 44.8646 3.5778 43.693 3.5778 42.5214C3.5778 37.0889 3.57433 31.6574 3.56738 26.2268C4.03779 26.0125 4.49926 25.7802 4.97563 25.5867C6.59675 24.9183 8.17769 24.1531 9.82859 23.5532C9.82859 31.177 9.82909 38.7994 9.83008 46.4202ZM7.15053 28.5759C5.4386 28.5759 5.36417 28.6473 5.36417 30.3503V30.4054C5.36417 32.0682 5.44604 32.1486 7.12522 32.1486C8.87884 32.1486 8.93838 32.0891 8.93838 30.3459C8.93689 28.6459 8.86544 28.5759 7.14755 28.5759H7.15053ZM7.16691 33.935C5.43413 33.935 5.36565 34.0005 5.36565 35.6931C5.36565 37.4482 5.4252 37.5077 7.16691 37.5077C8.86693 37.5077 8.93987 37.4348 8.93987 35.7213C8.93987 34.0079 8.86395 33.935 7.16393 33.935H7.16691ZM7.13862 42.8668C8.86991 42.8668 8.93987 42.7983 8.93987 41.1072C8.93987 39.3521 8.88182 39.2941 7.13862 39.2941C5.43711 39.2941 5.36565 39.3655 5.36565 41.0804C5.36565 42.7953 5.43413 42.8668 7.13564 42.8668H7.13862Z" fill="#F9B300"/>
<path d="M44.6508 37.5003H30.3807C30.3748 36.7291 30.3683 35.958 30.3614 35.1869V32.683C30.3718 32.2067 30.3807 31.7303 30.3911 31.2524H44.6448C44.6458 33.3365 44.6478 35.4191 44.6508 37.5003Z" fill="#0A5078"/>
<path d="M14.8512 42.8834L17.8687 42.8477H25.0142C25.8508 42.8551 26.6874 42.8581 27.524 42.8685C28.2534 42.8774 28.5795 43.196 28.5839 43.9239C28.5839 44.7606 28.5839 45.5972 28.5735 46.4338L14.293 46.4219C14.293 45.6121 14.3153 44.8007 14.293 43.9924C14.2707 43.4982 14.4359 43.1379 14.8512 42.8834Z" fill="#C70A50"/>
<path d="M29.4756 30.3801C28.3725 30.3801 27.268 30.3637 26.1649 30.3652C25.8885 30.3792 25.6127 30.3282 25.3595 30.2163C24.8847 29.5732 24.8847 29.3589 25.3595 28.7143C25.818 28.4761 26.3167 28.619 26.7946 28.5654H30.3777H32.1641H39.3096L48.6269 28.5848C48.7952 28.5848 48.9634 28.5759 49.1301 28.5848C49.6586 28.622 50.0233 28.9822 50.0233 29.469C50.0233 29.9558 49.669 30.3205 49.142 30.3622C48.9932 30.3741 48.8443 30.3622 48.6954 30.3711H30.3629L29.4756 30.3801Z" fill="#0A5078"/>
<path d="M32.1775 23.1306L32.1552 19.2988C33.0335 19.537 33.8373 19.9598 34.6695 20.3126C37.0047 21.305 39.3369 22.3044 41.6661 23.3107C42.6709 23.7469 43.1041 24.6832 42.7662 25.6136C42.6107 26.0461 42.293 26.401 41.8804 26.6033C41.4678 26.8056 40.9926 26.8393 40.5556 26.6974C40.1358 26.5604 39.7279 26.3862 39.314 26.2284C39.2062 26.1589 39.0944 26.0957 38.9791 26.0394C36.7124 25.0658 34.4452 24.0962 32.1775 23.1306Z" fill="#C80C51"/>
<path d="M9.82861 23.5534C8.17771 24.1488 6.59677 24.9185 4.97564 25.5868C4.49928 25.7833 4.03781 26.0126 3.5674 26.227C3.20715 26.3684 2.84838 26.5172 2.48516 26.6527C2.04961 26.8289 1.5627 26.8291 1.12701 26.6533C0.69132 26.4775 0.340865 26.1395 0.149484 25.7104C0.0554648 25.4964 0.00476618 25.2659 0.000320187 25.0322C-0.00412581 24.7984 0.0377685 24.5662 0.12358 24.3487C0.209391 24.1313 0.337423 23.933 0.500282 23.7653C0.663141 23.5976 0.857604 23.4639 1.07244 23.3718C3.98422 22.1109 6.90641 20.8783 9.82563 19.6338V23.4953C9.82364 23.5147 9.82465 23.5343 9.82861 23.5534Z" fill="#C80C51"/>
<path d="M32.1775 23.1304C34.4452 24.099 36.7124 25.0686 38.9791 26.0392C39.0944 26.0955 39.2062 26.1587 39.3141 26.2282L39.3051 28.5594H32.1597L32.1775 23.1304Z" fill="#F9B300"/>
<path d="M22.3525 1.78076C23.7622 1.78076 25.1734 1.78076 26.5832 1.78076C27.5746 1.78076 28.0212 2.48191 27.4511 3.27982C26.8556 4.11792 26.8556 4.79823 27.4511 5.63782C28.0212 6.43424 27.5731 7.1339 26.5832 7.13688C25.1734 7.13688 23.7548 7.13688 22.3525 7.13688V1.78076Z" fill="#C70A50"/>
<path d="M9.83007 46.4202C9.83007 38.7984 9.83007 31.176 9.83007 23.5532C9.82711 23.534 9.82711 23.5144 9.83007 23.4952L10.7054 23.187C10.7054 23.3165 10.7262 23.4475 10.7262 23.577C10.7262 31.1026 10.7262 38.6286 10.7262 46.1552C10.7262 46.2475 10.7188 46.3398 10.7143 46.4336L9.83007 46.4202Z" fill="#DB9500"/>
<path d="M48.6761 39.3105C49.663 39.7021 50.0903 40.4255 50.0307 41.4854C49.9905 42.2074 50.0307 42.9339 50.0203 43.6574C50.0099 44.3094 49.6735 44.6384 49.014 44.6518C48.4766 44.6622 47.9377 44.6652 47.3988 44.6518C46.8034 44.6354 46.4654 44.3005 46.455 43.7124C46.4386 42.8193 46.4342 41.9261 46.455 41.0403C46.4759 40.1546 47.0207 39.6336 47.7948 39.3135L48.6761 39.3105Z" fill="#C80C51"/>
<path d="M22.3525 1.78056V7.13965C22.3436 7.8016 22.3351 8.46355 22.3272 9.12549C22.0497 8.99676 21.7474 8.93007 21.4415 8.93007C21.1355 8.93007 20.8333 8.99676 20.5557 9.12549C20.5557 6.43106 20.5557 3.73663 20.5557 1.04219C20.5557 0.39017 20.91 -0.00878493 21.4489 0.000146894C21.9878 0.00907872 22.3227 0.402081 22.3421 1.06006C22.3391 1.29824 22.3466 1.54535 22.3525 1.78056Z" fill="#01335A"/>
<path d="M30.3629 30.3667H44.6746C44.6657 30.6644 44.6557 30.9622 44.6448 31.2599H30.3911L30.3629 30.3667Z" fill="#01335A"/>
<path d="M48.6761 39.3104H47.7963L47.7829 30.3682H48.691C48.686 33.3484 48.681 36.3292 48.6761 39.3104Z" fill="#00143C"/>
<path d="M30.3644 40.5088C30.4314 41.6997 30.287 42.8832 30.473 44.0696C30.604 44.9107 30.9598 45.658 31.2724 46.4291H30.3792C29.4771 44.7529 29.3938 42.9397 29.4861 41.0983V41.0551C29.9312 41.1325 30.1366 40.805 30.3644 40.5088Z" fill="#D1D1D1"/>
<path d="M10.7009 23.1873L9.82562 23.4955V19.634L10.7188 19.2261C10.7119 20.547 10.7059 21.8674 10.7009 23.1873Z" fill="#A00129"/>
<path d="M14.8513 42.8832C14.4359 43.1377 14.2707 43.498 14.2885 43.9922C14.3153 44.8005 14.2885 45.6118 14.2885 46.4216L13.4103 46.4336C13.4103 45.7086 13.3998 44.9836 13.3983 44.2587C13.4013 43.0633 13.6529 42.8266 14.8513 42.8832Z" fill="#A00129"/>
<path d="M25.0142 42.8477H17.8687C17.8687 39.9865 17.8687 37.1248 17.8687 34.2627C17.8687 33.3159 18.1456 33.0435 19.0998 33.042C20.6976 33.042 22.2955 33.042 23.8933 33.042C24.6971 33.042 25.0112 33.3531 25.0127 34.1495C25.0157 37.0504 25.0162 39.9498 25.0142 42.8477Z" fill="#009FC7"/>
<path d="M21.4325 14.2852C21.9637 14.2834 22.4834 14.4396 22.9256 14.7338C23.3679 15.028 23.7127 15.447 23.9163 15.9376C24.1199 16.4282 24.1731 16.9682 24.0691 17.4891C23.9651 18.01 23.7087 18.4883 23.3324 18.8631C22.9561 19.238 22.4768 19.4925 21.9555 19.5945C21.4342 19.6964 20.8944 19.6411 20.4046 19.4356C19.9148 19.23 19.4972 18.8836 19.2047 18.4402C18.9122 17.9968 18.7581 17.4765 18.7619 16.9454C18.767 16.2396 19.0503 15.5644 19.5504 15.0663C20.0504 14.5682 20.7268 14.2875 21.4325 14.2852Z" fill="#02A0C8"/>
<path d="M30.3733 23.2227C30.3733 24.9316 30.3018 25.0091 28.5869 25.0091C26.872 25.0091 26.8006 24.9406 26.8006 23.2435C26.8006 21.4899 26.8542 21.4363 28.6078 21.4363C30.3048 21.4304 30.3733 21.5003 30.3733 23.2227Z" fill="#02A0C8"/>
<path d="M16.0824 23.2185C16.0824 24.9319 16.0109 25.0049 14.3079 25.0049C12.5662 25.0049 12.5081 24.9468 12.5081 23.1887C12.5081 21.5096 12.587 21.4322 14.2543 21.4322H14.3109C16.0124 21.4307 16.0824 21.5006 16.0824 23.2185Z" fill="#02A0C8"/>
<path d="M21.4385 21.4307C23.1579 21.4307 23.2249 21.4991 23.2249 23.2007C23.2249 24.9468 23.1668 25.0034 21.4117 25.0034C19.731 25.0034 19.6506 24.9245 19.6506 23.2602V23.2051C19.6536 21.4932 19.7236 21.4307 21.4385 21.4307Z" fill="#02A0C8"/>
<path d="M12.5081 28.5595C12.5081 26.858 12.5781 26.7896 14.2945 26.7896C16.0109 26.7896 16.0809 26.8595 16.0809 28.564C16.0809 30.3042 16.0213 30.3623 14.2647 30.3623C12.5707 30.3623 12.5081 30.2953 12.5081 28.5595Z" fill="#02A0C8"/>
<path d="M21.4504 30.3623C19.7132 30.3623 19.6536 30.3027 19.6536 28.5432C19.6536 26.867 19.731 26.7896 21.4028 26.7896C23.1787 26.7896 23.2278 26.8387 23.2278 28.6355C23.2278 30.2759 23.14 30.3623 21.4504 30.3623Z" fill="#02A0C8"/>
<path d="M12.5081 33.9204C12.5081 32.2174 12.5781 32.1489 14.2945 32.1489C16.0109 32.1489 16.0809 32.2174 16.0809 33.9204C16.0809 35.6636 16.0228 35.7217 14.2662 35.7217C12.5707 35.7217 12.5081 35.6562 12.5081 33.9204Z" fill="#02A0C8"/>
<path d="M16.0824 39.2957C16.0824 41.0091 16.0109 41.082 14.3064 41.082C12.5677 41.082 12.5081 41.024 12.5081 39.2659C12.5081 37.5867 12.587 37.5093 14.2558 37.5093H14.3109C16.0124 37.5078 16.0824 37.5778 16.0824 39.2957Z" fill="#02A0C8"/>
<path d="M29.4816 41.1012L27.8724 41.0804C27.1281 41.0685 26.808 40.7514 26.8006 39.9877C26.8006 39.5243 26.8006 39.0618 26.8006 38.6003C26.8006 37.8352 27.1206 37.5181 27.8724 37.5077L29.4816 37.4868V37.5285V41.0581V41.1012Z" fill="#02A0C8"/>
<path d="M29.4816 35.7423L27.8724 35.7215C27.1281 35.7096 26.808 35.3925 26.8006 34.6288C26.8006 34.1654 26.8006 33.7029 26.8006 33.2414C26.8006 32.4763 27.1206 32.1592 27.8724 32.1488L29.4816 32.1279V32.1696V35.6992V35.7423Z" fill="#02A0C8"/>
<path d="M30.3778 28.561H26.7946C26.8184 26.8402 26.8705 26.7896 28.581 26.7896C30.2914 26.7896 30.354 26.8417 30.3778 28.561Z" fill="#02A0C8"/>
<path d="M30.3614 35.1885C30.3683 35.9596 30.3748 36.7307 30.3807 37.5018C30.3807 37.6953 30.3703 37.8889 30.3643 38.0809C30.1381 37.7832 29.9326 37.4572 29.4712 37.5316V37.4899V35.7422V35.6991C29.9192 35.7839 30.1202 35.449 30.3614 35.1885Z" fill="#D1D1D1"/>
<path d="M30.3629 30.3667L30.3912 31.2524C30.3807 31.7303 30.3718 32.2067 30.3614 32.683C30.1187 32.4225 29.9148 32.0876 29.4682 32.1694V32.1278C29.4682 31.5457 29.4682 30.9636 29.4682 30.3801L30.3629 30.3667Z" fill="#D1D1D1"/>
<path d="M25.3595 28.7173C24.8847 29.3619 24.8847 29.5763 25.3595 30.2194C24.9397 30.5409 24.5899 30.3399 24.3175 30.0243C24.1751 29.8749 24.0956 29.6763 24.0956 29.4698C24.0956 29.2633 24.1751 29.0648 24.3175 28.9153C24.5884 28.5982 24.9397 28.4002 25.3595 28.7173Z" fill="#D1D1D1"/>
<path d="M37.5247 42.8671C38.0993 42.8671 38.6754 42.8552 39.2486 42.8671C39.8604 42.8835 40.1983 43.2527 40.1953 43.86C40.1953 45.24 38.9374 46.4398 37.5158 46.4369C36.0941 46.4339 34.8362 45.2206 34.8467 43.8466C34.8467 43.2422 35.189 42.882 35.8068 42.8671C36.3755 42.8567 36.9501 42.8671 37.5247 42.8671Z" fill="#C80C51"/>
<path d="M29.4756 37.5287C29.9327 37.4543 30.1381 37.7833 30.3688 38.078V40.509C30.1426 40.8067 29.9356 41.1327 29.4756 41.0583V37.5287Z" fill="#0282AA"/>
<path d="M33.9415 40.1995C33.9397 40.377 33.8849 40.5499 33.7843 40.6962C33.6837 40.8425 33.5418 40.9554 33.3768 41.0207C33.2117 41.086 33.0309 41.1005 32.8575 41.0626C32.6841 41.0246 32.5259 40.9359 32.4031 40.8076C32.2804 40.6794 32.1986 40.5175 32.1683 40.3426C32.138 40.1677 32.1605 39.9877 32.2329 39.8256C32.3054 39.6635 32.4245 39.5267 32.575 39.4326C32.7255 39.3386 32.9007 39.2915 33.0781 39.2974C33.3114 39.3051 33.5323 39.4039 33.6937 39.5725C33.855 39.7411 33.944 39.9661 33.9415 40.1995Z" fill="#00143C"/>
<path d="M42.001 41.0762C41.8235 41.0803 41.6488 41.0315 41.4992 40.9359C41.3497 40.8403 41.2319 40.7023 41.1611 40.5395C41.0903 40.3767 41.0696 40.1965 41.1017 40.0219C41.1338 39.8472 41.2172 39.6862 41.3412 39.5591C41.4652 39.4321 41.6243 39.345 41.7981 39.3088C41.9719 39.2726 42.1526 39.289 42.317 39.356C42.4814 39.4229 42.6222 39.5374 42.7213 39.6847C42.8204 39.832 42.8733 40.0054 42.8734 40.183C42.8734 40.4163 42.7822 40.6404 42.6192 40.8073C42.4561 40.9742 42.2343 41.0707 42.001 41.0762Z" fill="#00143C"/>
<path d="M7.14757 28.5762C8.86545 28.5762 8.93393 28.6461 8.93393 30.3462C8.93393 32.0894 8.87439 32.1489 7.12077 32.1489C5.44159 32.1489 5.35971 32.0685 5.35971 30.4057V30.3506C5.36269 28.6476 5.43563 28.5762 7.14757 28.5762Z" fill="#02A0C5"/>
<path d="M7.16395 33.9351C8.86397 33.9351 8.93692 34.008 8.93692 35.7214C8.93692 37.4348 8.86397 37.5078 7.16395 37.5078C5.42224 37.5078 5.3627 37.4482 5.3627 35.6931C5.3627 33.9976 5.42522 33.9351 7.16395 33.9351Z" fill="#02A0C5"/>
<path d="M7.13566 42.8672C5.43415 42.8672 5.3627 42.7957 5.3627 41.0808C5.3627 39.3659 5.43415 39.2944 7.13566 39.2944C8.87886 39.2944 8.93692 39.3525 8.93692 41.1076C8.93692 42.7987 8.86695 42.8672 7.13566 42.8672Z" fill="#02A0C5"/>
<path d="M29.4756 32.1696C29.9222 32.0847 30.1187 32.4226 30.3688 32.6832V35.1885C30.1277 35.452 29.9222 35.784 29.4756 35.7021V32.1696Z" fill="#0282AA"/>
</svg>
