<svg width="50" height="50" viewBox="0 0 50 50" fill="none" xmlns="http://www.w3.org/2000/svg">
<path d="M44.3163 46.4497C45.9478 46.4497 47.5793 46.468 49.2095 46.4588C49.5218 46.4588 49.7768 46.5215 49.9797 46.7589V49.5968C49.8773 49.6977 49.7549 49.7758 49.6204 49.8262C49.4859 49.8765 49.3424 49.898 49.1991 49.8891C33.0662 49.8821 16.9354 49.8821 0.80687 49.8891C0.663554 49.8984 0.519899 49.8771 0.385354 49.8268C0.250809 49.7764 0.128423 49.698 0.0262451 49.5968V46.7615C0.227907 46.5149 0.488115 46.4601 0.799064 46.4614C2.43447 46.4693 4.06858 46.4614 5.70399 46.4536H26.8589H29.3751H35.6396H44.3228L44.3163 46.4497Z" fill="#5A5A5A"/>
<path d="M0.0197803 49.5996C0.121958 49.7008 0.244345 49.7792 0.37889 49.8296C0.513434 49.8799 0.657089 49.9012 0.800405 49.8919C16.9333 49.8849 33.0662 49.8849 49.1991 49.8919C49.3424 49.9008 49.486 49.8793 49.6204 49.829C49.7549 49.7786 49.8773 49.7005 49.9798 49.5996C50.0539 49.9336 49.9251 50.0002 49.5895 50.0002C33.1963 49.9897 16.8032 49.9897 0.410093 50.0002C0.0757251 50.0002 -0.053078 49.9336 0.0197803 49.5996Z" fill="#FEFEFE"/>
<path d="M41.8755 46.4498H35.6306C35.6306 36.8728 35.6306 27.2958 35.6306 17.7188C35.6306 16.9203 35.7307 16.8185 36.5244 16.8198L41.5984 16.8277C41.7824 17.0556 41.8837 17.3395 41.886 17.6327C41.8773 27.2401 41.8738 36.8458 41.8755 46.4498Z" fill="#89C8FD"/>
<path d="M26.8524 46.4496H20.6763C20.6763 40.0667 20.6763 33.6842 20.6763 27.3022C20.6763 26.4436 20.7245 26.3967 21.5871 26.398C23.2758 26.398 24.9641 26.4019 26.652 26.4097C26.7937 26.5879 26.8646 26.8124 26.8511 27.0399C26.8493 33.5124 26.8498 39.9823 26.8524 46.4496Z" fill="#00C17A"/>
<path d="M11.9229 46.4496H5.69745C5.69745 42.8058 5.69745 39.1616 5.69745 35.5169C5.69745 34.7667 5.82755 34.6401 6.57175 34.6401H11.7291C11.8472 34.8852 11.9162 35.1512 11.932 35.423C11.919 39.1024 11.9229 42.778 11.9229 46.4496Z" fill="#FA2C3B"/>
<path d="M41.8755 46.45C41.8755 36.8443 41.8786 27.239 41.8846 17.6342C41.8824 17.3409 41.781 17.0571 41.5971 16.8291L43.6931 16.8174C44.1185 16.8174 44.3124 17.0431 44.315 17.4567V17.8481C44.315 27.3817 44.315 36.916 44.315 46.4513L41.8755 46.45Z" fill="#61B7FE"/>
<path d="M35.8985 9.86143C35.9883 9.28342 36.0599 8.7015 36.1783 8.1287C36.2195 7.98013 36.2175 7.82283 36.1726 7.67534C36.1276 7.52786 36.0416 7.39633 35.9245 7.29626C35.3586 6.76 34.807 6.20808 34.2462 5.6653C33.891 5.32345 33.7102 4.93202 33.8767 4.43751C34.0341 3.97171 34.3698 3.74077 34.8512 3.67684C35.6227 3.57245 36.3877 3.42501 37.1605 3.3389C37.5508 3.29454 37.7642 3.10535 37.9216 2.7635C38.2274 2.09937 38.5722 1.45873 38.8818 0.791994C39.0991 0.328801 39.4152 0.00913337 39.9487 0C40.5042 0 40.8269 0.33402 41.052 0.81287C41.3707 1.48874 41.7181 2.15156 42.0355 2.82743C42.0923 2.97027 42.1888 3.09371 42.3136 3.18301C42.4385 3.27232 42.5863 3.32371 42.7394 3.33107C43.334 3.39892 43.9233 3.51635 44.5153 3.6129C43.9845 4.1596 43.4446 4.69847 42.9254 5.2543C42.3166 5.90668 41.8924 6.66606 41.7896 7.56635C41.7168 8.19133 41.3603 8.50056 40.7384 8.38444C40.5503 8.34013 40.3588 8.31219 40.1659 8.30093C38.9664 8.28266 37.9542 8.82284 36.9485 9.38258C36.6115 9.57178 36.2993 9.80141 35.8985 9.86143Z" fill="#FD9902"/>
<path d="M5.98501 28.8551C6.06437 28.341 6.11512 27.8204 6.22961 27.3142C6.33109 26.8562 6.25823 26.5065 5.89004 26.1816C5.33449 25.7041 4.83359 25.1613 4.30277 24.6603C3.93457 24.3106 3.79926 23.8918 3.96319 23.4182C4.12712 22.9445 4.48361 22.7423 4.96239 22.681C5.75213 22.5818 6.53535 22.4357 7.32378 22.3326C7.46089 22.3201 7.5919 22.2699 7.70234 22.1875C7.81277 22.1051 7.89834 21.9936 7.94958 21.8655C8.28655 21.1609 8.64954 20.4694 8.98131 19.7622C9.19598 19.3068 9.52384 19.0185 10.0221 19.0133C10.5204 19.008 10.8626 19.2912 11.0786 19.7439C11.4156 20.4498 11.7759 21.1426 12.1103 21.8485C12.1634 21.9844 12.2538 22.1025 12.371 22.189C12.4882 22.2756 12.6274 22.3272 12.7725 22.3378C13.3684 22.4096 13.9604 22.5179 14.5537 22.6118C14.4132 23.0032 14.0801 23.2159 13.7874 23.4651C12.8285 24.2832 12.0869 25.237 11.8358 26.5104C11.6654 27.3781 11.4273 27.5347 10.5348 27.3338C10.3128 27.2863 10.0842 27.2783 9.85951 27.3103C8.67426 27.459 7.65555 28.024 6.64204 28.6033C6.44298 28.7194 6.24522 28.8695 5.98501 28.8551Z" fill="#FD9902"/>
<path d="M20.9301 19.6561C21.0172 19.1277 21.0849 18.594 21.1903 18.0708C21.2449 17.8757 21.2402 17.6688 21.177 17.4763C21.1137 17.2839 20.9947 17.1147 20.8351 16.9905C20.3016 16.5155 19.8125 15.9897 19.2959 15.4965C18.9395 15.1573 18.7404 14.7737 18.9056 14.2766C19.0709 13.7794 19.4456 13.5459 19.9621 13.4807C20.7336 13.3841 21.4999 13.2419 22.2714 13.1427C22.4164 13.1293 22.5547 13.0756 22.6708 12.9875C22.7869 12.8994 22.8762 12.7806 22.9285 12.6443C23.255 11.9541 23.605 11.2756 23.9303 10.5841C24.1501 10.117 24.4819 9.81556 25.0153 9.82339C25.524 9.82339 25.8467 10.1222 26.0562 10.5723C26.3827 11.2625 26.734 11.941 27.0567 12.6326C27.1117 12.7769 27.2064 12.9025 27.3299 12.9949C27.4533 13.0873 27.6004 13.1426 27.754 13.1545C28.333 13.2236 28.908 13.328 29.4844 13.4154C29.4753 13.602 29.3283 13.6946 29.2164 13.8068C28.7701 14.2596 28.3057 14.6902 27.8763 15.1625C27.3156 15.7875 26.8992 16.4908 26.8433 17.3676C26.8043 17.9691 26.5414 18.1987 25.9326 18.1856C25.5943 18.1778 25.2521 18.0773 24.9229 18.1139C24.0865 18.2179 23.2792 18.4885 22.5485 18.9098C22.0398 19.1968 21.5285 19.5296 20.9301 19.6561Z" fill="#FD9902"/>
<path d="M26.8524 46.4499C26.8524 39.98 26.8546 33.5097 26.8589 27.0389C26.8725 26.8114 26.8016 26.5869 26.6599 26.4087C27.3572 26.4022 28.0559 26.4009 28.7545 26.3865C29.1448 26.3774 29.3166 26.5888 29.3556 26.9423C29.3662 27.1052 29.3684 27.2685 29.3621 27.4316C29.3621 33.7719 29.3621 40.1127 29.3621 46.4538L26.8524 46.4499Z" fill="#0CB867"/>
<path d="M35.8985 9.86132C36.2888 9.8013 36.6115 9.57167 36.9485 9.38247C37.9542 8.81882 38.9664 8.28256 40.1659 8.30082C40.3588 8.31208 40.5503 8.34002 40.7384 8.38433C41.3603 8.50045 41.7168 8.19122 41.7896 7.56624C41.8924 6.66595 42.3166 5.90788 42.9254 5.25419C43.4459 4.69836 43.9845 4.15949 44.5153 3.61279C45.426 3.61279 45.9269 3.88679 46.0766 4.47916C46.1963 4.95279 46.044 5.3403 45.7019 5.67041C45.1502 6.20145 44.6129 6.74554 44.0508 7.26484C43.9209 7.37349 43.8252 7.51761 43.7753 7.67973C43.7254 7.84184 43.7235 8.01499 43.7698 8.17817C43.9338 8.97278 44.0678 9.7739 44.1914 10.575C44.2255 10.7712 44.203 10.9732 44.1265 11.157C44.05 11.3408 43.9226 11.4988 43.7594 11.6123C43.5945 11.748 43.3927 11.8309 43.1803 11.8505C42.9679 11.87 42.7545 11.8252 42.5677 11.7219C41.8443 11.3579 41.1287 10.9743 40.417 10.5868C40.2802 10.5019 40.1225 10.4569 39.9617 10.4569C39.8008 10.4569 39.6431 10.5019 39.5063 10.5868C38.8558 10.9508 38.1857 11.2809 37.53 11.6306C37.0629 11.8824 36.6037 11.9385 36.1639 11.598C35.7242 11.2574 35.6643 10.7864 35.7918 10.2749C35.8205 10.1392 35.8608 9.99963 35.8985 9.86132Z" fill="#FA8803"/>
<path d="M20.9301 19.6563C21.5285 19.5258 22.0398 19.197 22.559 18.9073C23.2896 18.486 24.0969 18.2154 24.9334 18.1114C25.2625 18.0749 25.6047 18.1753 25.943 18.1832C26.5467 18.1962 26.8095 17.9666 26.8537 17.3651C26.9096 16.4883 27.326 15.785 27.8867 15.16C28.3109 14.6877 28.7805 14.2571 29.2268 13.8044C29.3387 13.6922 29.487 13.5995 29.4948 13.4129C29.8043 13.3859 30.1159 13.4305 30.4055 13.5434C31.2005 13.79 31.4256 14.7673 30.8284 15.4001C30.308 15.9546 29.7589 16.4948 29.1826 16.9945C28.8066 17.322 28.7558 17.6821 28.8365 18.1271C28.9744 18.876 29.1305 19.6249 29.206 20.3817C29.3075 21.3864 28.4475 21.9474 27.542 21.4999C26.8329 21.1463 26.1303 20.7731 25.4382 20.3869C25.3095 20.3041 25.1598 20.2601 25.0069 20.2601C24.854 20.2601 24.7043 20.3041 24.5756 20.3869C23.955 20.7379 23.3149 21.0511 22.6891 21.3929C22.2077 21.6539 21.7328 21.7961 21.2345 21.4399C20.7362 21.0837 20.7622 20.5552 20.8364 20.0281C20.8596 19.9023 20.8909 19.7781 20.9301 19.6563Z" fill="#FA8803"/>
<path d="M5.98504 28.8547C6.24525 28.8691 6.44821 28.7243 6.65768 28.5938C7.67119 28.0145 8.6899 27.4495 9.87515 27.3008C10.0999 27.2688 10.3284 27.2768 10.5504 27.3242C11.4403 27.5252 11.6784 27.3686 11.8514 26.5009C12.1012 25.2275 12.8428 24.2737 13.803 23.4556C14.0957 23.2064 14.4288 22.9898 14.5693 22.6023C14.8672 22.5501 15.1561 22.6414 15.4306 22.7171C16.2216 22.9376 16.4714 23.9449 15.8782 24.5607C15.3161 25.1492 14.7293 25.7115 14.1426 26.2739C13.8902 26.5153 13.7679 26.7475 13.8537 27.1285C14.0229 27.8696 14.1139 28.6277 14.2441 29.3779C14.3312 29.8803 14.244 30.3226 13.803 30.6318C13.3867 30.9254 12.9547 30.8928 12.5202 30.6579C11.8488 30.3017 11.1658 29.9651 10.5049 29.5893C10.3625 29.4985 10.1969 29.4512 10.0282 29.4533C9.85955 29.4554 9.69514 29.5067 9.5551 29.6011C8.87856 29.9821 8.1851 30.3343 7.49425 30.6892C7.07401 30.9058 6.64076 30.9163 6.25826 30.6188C5.87575 30.3213 5.70401 29.9103 5.85103 29.4106C5.90177 29.2266 5.84713 29.0204 5.98504 28.8547Z" fill="#FA8802"/>
<path d="M11.923 46.4499C11.923 42.7757 11.923 39.1002 11.9334 35.426C11.9175 35.1542 11.8485 34.8882 11.7304 34.6431C12.3614 34.6431 12.9937 34.6287 13.626 34.6274C14.2245 34.6274 14.3676 34.7723 14.3676 35.3738C14.3676 39.0654 14.3676 42.757 14.3676 46.4486L11.923 46.4499Z" fill="#E31F2D"/>
</svg>
