<svg width="50" height="40" viewBox="0 0 50 40" fill="none" xmlns="http://www.w3.org/2000/svg">
<path d="M50 39.2063H30.797V38.4062C30.797 38.4062 30.797 37.8701 30.797 36.5419C30.797 35.2057 31.4691 34.7024 32.7973 34.2055C33.4526 33.9567 37.1252 32.6333 37.1252 32.6333L39.6144 33.6047L40.4137 32.8125L42.014 34.4056L43.7342 32.6333C43.7342 32.6333 47.3428 33.9567 47.9989 34.2055C49.3351 34.7024 49.9992 35.2057 49.9992 36.5419C49.9992 37.8701 49.9992 38.4062 49.9992 38.4062V39.2063H50Z" fill="#5D9CEC"/>
<path d="M41.5594 39.2064H39.3335L39.7336 34.8057H41.1586L41.5594 39.2064Z" fill="#E6E9ED"/>
<path d="M41.1586 34.8056H39.7336L39.3327 33.7183H41.5587L41.1586 34.8056Z" fill="#F5F7FA"/>
<path d="M48.4076 27.205C48.4076 27.6451 48.0475 28.0052 47.6074 28.0052H2.00032C1.56025 28.0052 1.2002 27.6451 1.2002 27.205V0.800125C1.2002 0.360056 1.56025 0 2.00032 0H47.6074C48.0475 0 48.4076 0.360056 48.4076 0.800125V27.205Z" fill="#48CFAD"/>
<path d="M15.2008 21.2C10.7897 21.2 7.20111 17.6114 7.20111 13.2003C7.20111 8.78924 10.7897 5.20068 15.2008 5.20068C19.6118 5.20068 23.1996 8.78924 23.1996 13.2003C23.1996 17.6114 19.6118 21.2 15.2008 21.2ZM15.2008 6.00081C11.2305 6.00081 8.00124 9.23011 8.00124 13.2003C8.00124 17.1706 11.2305 20.3999 15.2008 20.3999C19.1702 20.3999 22.3995 17.1706 22.3995 13.2003C22.3995 9.23011 19.1702 6.00081 15.2008 6.00081Z" fill="#E6E9ED"/>
<path d="M8.09423 20.7123C7.99182 20.7123 7.8894 20.6731 7.81099 20.5955C7.65496 20.4394 7.65496 20.1858 7.81099 20.0298L8.94236 18.8984C9.09839 18.7424 9.35203 18.7424 9.50805 18.8984C9.66408 19.0544 9.66408 19.3081 9.50805 19.4641L8.37668 20.5955C8.29906 20.6731 8.19665 20.7123 8.09423 20.7123ZM10.357 18.4495C10.2546 18.4495 10.1522 18.4103 10.0737 18.3327C9.91772 18.1767 9.91772 17.923 10.0737 17.767L11.2051 16.6348C11.3611 16.4788 11.6148 16.4788 11.7708 16.6348C11.9268 16.7909 11.9268 17.0445 11.7708 17.2005L10.6394 18.3327C10.5618 18.4103 10.4594 18.4495 10.357 18.4495ZM12.6197 16.186C12.5173 16.186 12.4149 16.1468 12.3365 16.0692C12.1805 15.9131 12.1805 15.6595 12.3365 15.5035L13.4679 14.3721C13.6239 14.2161 13.8775 14.2161 14.0336 14.3721C14.1896 14.5281 14.1896 14.7818 14.0336 14.9378L12.9022 16.0692C12.8246 16.1468 12.7222 16.186 12.6197 16.186ZM14.8825 13.9224C14.7801 13.9224 14.6777 13.8832 14.5992 13.8056C14.4432 13.6496 14.4432 13.3959 14.5992 13.2399L15.7314 12.1077C15.8875 11.9517 16.1411 11.9517 16.2971 12.1077C16.4531 12.2638 16.4531 12.5174 16.2971 12.6734L15.1649 13.8056C15.0873 13.884 14.9849 13.9224 14.8825 13.9224ZM17.1468 11.6589C17.0444 11.6589 16.942 11.6197 16.8636 11.542C16.7076 11.386 16.7076 11.1324 16.8636 10.9764L17.995 9.84499C18.151 9.68896 18.4046 9.68896 18.5607 9.84499C18.7167 10.001 18.7167 10.2546 18.5607 10.4107L17.4293 11.542C17.3509 11.6197 17.2493 11.6589 17.1468 11.6589ZM19.4096 9.39611C19.3072 9.39611 19.2048 9.35691 19.1264 9.2793C18.9703 9.12327 18.9703 8.86963 19.1264 8.71361L20.2577 7.58143C20.4138 7.42541 20.6674 7.42541 20.8234 7.58143C20.9794 7.73746 20.9794 7.9911 20.8234 8.14712L19.692 9.2793C19.6144 9.35691 19.512 9.39611 19.4096 9.39611ZM21.6724 7.13256C21.5699 7.13256 21.4675 7.09336 21.3891 7.01574C21.2331 6.85972 21.2331 6.60608 21.3891 6.45005L22.5205 5.31868C22.6765 5.16265 22.9302 5.16265 23.0862 5.31868C23.2422 5.4747 23.2422 5.72834 23.0862 5.88437L21.9548 7.01574C21.8772 7.09336 21.7748 7.13256 21.6724 7.13256Z" fill="#F5F7FA"/>
<path d="M42.0066 8.4012H27.6043C27.3835 8.4012 27.2043 8.22197 27.2043 8.00114C27.2043 7.7803 27.3835 7.60107 27.6043 7.60107H42.0066C42.2274 7.60107 42.4066 7.7803 42.4066 8.00114C42.4066 8.22197 42.2274 8.4012 42.0066 8.4012ZM42.0066 11.6017H27.6043C27.3835 11.6017 27.2043 11.4225 27.2043 11.2016C27.2043 10.9808 27.3835 10.8016 27.6043 10.8016H42.0066C42.2274 10.8016 42.4066 10.9808 42.4066 11.2016C42.4066 11.4225 42.2274 11.6017 42.0066 11.6017ZM42.0066 14.8022H27.6043C27.3835 14.8022 27.2043 14.623 27.2043 14.4021C27.2043 14.1813 27.3835 14.0021 27.6043 14.0021H42.0066C42.2274 14.0021 42.4066 14.1813 42.4066 14.4021C42.4066 14.623 42.2274 14.8022 42.0066 14.8022ZM34.759 18.0027H27.6043C27.3835 18.0027 27.2043 17.8235 27.2043 17.6026C27.2043 17.3818 27.3835 17.2026 27.6043 17.2026H34.759C34.9799 17.2026 35.1591 17.3818 35.1591 17.6026C35.1591 17.8235 34.9807 18.0027 34.759 18.0027Z" fill="#E6E9ED"/>
<path d="M48.4076 27.2041H1.20019L0 28.0034H49.6077L48.4076 27.2041Z" fill="#F7C292"/>
<path d="M49.6077 28.0034H0V29.6037H49.6077V28.0034Z" fill="#FFD2A6"/>
<path d="M40.4462 33.7189L42.0464 34.4054L43.7347 32.6331V31.0312L40.4462 32.7187V33.7189Z" fill="#87BCF4"/>
<path d="M40.4467 33.7189L38.8144 34.4054L37.1253 32.6331V31.0312L40.4467 32.6331V33.7189Z" fill="#87BCF4"/>
<path d="M43.5749 20.0261C43.5749 20.0261 46.8154 19.5717 45.9993 24.8037L44.399 22.4033C44.399 22.4033 42.5027 23.2034 40.4216 23.2034C38.3493 23.2034 36.3978 22.4033 36.3978 22.4033L34.8055 24.7957L34.7975 24.8037C33.9734 16.0023 44.407 17.7538 44.407 17.7538C42.854 18.3867 43.5749 20.0261 43.5749 20.0261Z" fill="#656D78"/>
<path d="M46.0224 25.6118C46.0224 29.4124 42.5587 32.9178 40.4215 32.9178C38.294 32.9178 34.8207 29.4124 34.8207 25.6118V24.8037L34.8047 24.7957L36.3969 22.4033C36.3969 22.4033 38.3484 23.2034 40.4207 23.2034C42.5019 23.2034 44.3982 22.4033 44.3982 22.4033L45.9984 24.8037H46.0216V25.6118H46.0224Z" fill="#EAC6BB"/>
</svg>
