<svg width="52" height="58" viewBox="0 0 52 58" fill="none" xmlns="http://www.w3.org/2000/svg">
<path d="M1.10123 57.2037C0.725654 56.9308 0.41636 56.6171 0.604146 56.099C0.791932 55.581 1.2139 55.5246 1.68779 55.5379C2.21911 55.5534 2.75264 55.5379 3.37012 55.5379C3.37012 54.9281 3.37012 54.346 3.37012 53.765C3.37012 53.2502 3.35798 52.7321 3.40659 52.2185C3.52809 50.936 4.57527 49.8182 5.86105 49.7883C8.34314 49.7265 10.8319 49.7673 13.3128 49.7795C13.5647 49.7795 13.8154 49.8734 14.1347 49.9363C14.1347 49.2139 14.1347 48.5003 14.1347 47.7956C14.1413 45.9641 15.2934 44.7999 17.1293 44.7767C17.8098 44.7678 18.4913 44.7623 19.1718 44.7767C19.4822 44.7844 19.6666 44.706 19.8102 44.3989C20.9248 42.0184 22.0636 39.649 23.1837 37.273C23.284 37.0568 23.3428 36.8237 23.3572 36.5859C23.461 34.6749 23.4676 32.754 23.6731 30.8551C23.8101 29.5892 24.2188 28.352 24.5203 27.106C24.6463 26.5879 24.8009 26.0776 24.9566 25.5673C25.1257 25.015 25.5156 24.762 25.9751 24.8846C26.4689 25.0172 26.6931 25.4491 26.5407 26.0135C26.3087 26.8785 26.0624 27.7412 25.7884 28.7243C26.829 28.299 27.7536 27.8737 28.7113 27.5457C29.3486 27.3247 29.6899 26.9801 29.8667 26.3206C30.1561 25.2403 30.556 24.1898 30.9073 23.1349C30.8763 23.094 30.8542 23.0432 30.8354 23.0443C30.3428 23.0797 29.9462 22.9339 29.8148 22.4158C29.6833 21.8977 30.0015 21.6105 30.4135 21.362C32.8536 19.8884 35.2827 18.3983 37.7228 16.9258C38.5976 16.3978 39.2206 15.6886 39.4824 14.6901C39.5285 14.467 39.5631 14.2417 39.5863 14.0151C39.3399 14.1377 39.1798 14.2129 39.024 14.2968C35.7775 16.0642 32.5377 17.8382 29.279 19.5791C28.5953 19.9447 28.1578 20.4485 27.9402 21.1709C27.7922 21.6635 27.6519 22.1584 27.4984 22.6489C27.3261 23.2012 26.9461 23.4398 26.47 23.3116C25.9773 23.1791 25.7442 22.7461 25.9177 22.1805C26.2225 21.2029 26.5617 20.2375 26.9118 19.198C25.9939 18.4612 25.6283 17.2362 25.066 16.136C24.7611 15.5373 24.8451 14.9021 25.0229 14.2582C25.361 13.0552 27.6818 11.8214 28.9499 12.2698C29.6204 12.5084 30.165 12.8829 30.4963 13.517C30.9647 14.4095 31.4054 15.3153 31.887 16.2785C32.5388 15.9272 33.2402 15.5506 33.9417 15.1739C35.3313 14.4194 36.7132 13.6506 38.1138 12.9182C38.4783 12.7283 38.591 12.5062 38.5888 12.1052C38.5733 8.69969 38.5888 5.29525 38.5733 1.8897C38.5733 1.38268 38.6551 0.947454 39.0947 0.642578H39.7575C39.9729 1.01925 40.1872 1.39593 40.4711 1.89412H40.9549C43.9374 1.89412 46.9199 1.89412 49.9023 1.89412C50.5342 1.89412 51.0821 2.01341 51.3494 2.66735C51.578 3.21966 51.4035 3.67587 50.7628 4.24033L48.6232 6.11819C49.36 6.76881 50.0669 7.38188 50.7628 8.0093C50.9778 8.18134 51.1619 8.38864 51.3074 8.62237C51.7493 9.45636 51.1086 10.339 50.0647 10.3423C47.0281 10.3522 43.9893 10.3423 40.9527 10.3423H40.3164C40.132 11.3033 40.1861 11.4403 40.8389 12.0832C40.972 12.2338 41.0634 12.4165 41.104 12.6134C41.4431 13.9853 41.1946 15.2645 40.5164 16.4939C40.355 16.7744 40.2637 17.0897 40.2501 17.413C40.2336 21.8491 40.2391 26.2864 40.2391 30.7225V31.3467C41.642 31.3467 42.9653 31.3467 44.2898 31.3467C44.7669 31.3467 45.2541 31.3135 45.7258 31.3886C47.1982 31.625 48.0852 32.7882 48.0864 34.4473C48.0864 41.2408 48.0864 48.0338 48.0864 54.8265V55.5412C48.8596 55.5412 49.5422 55.5257 50.2227 55.5412C50.8037 55.5589 51.1793 56.0085 51.0279 56.5354C50.9584 56.7773 50.7385 56.9772 50.5861 57.1981L1.10123 57.2037ZM26.5583 55.5037H35.6737C35.6737 53.8622 35.6671 52.2627 35.6737 50.6632C35.6737 50.1043 36.0117 49.7585 36.4988 49.7596C36.986 49.7607 37.3174 50.1087 37.324 50.6687C37.3361 51.6993 37.324 52.7299 37.324 53.7617V55.5235H46.3918C46.404 55.3545 46.4228 55.212 46.4228 55.0695C46.4228 48.1863 46.4228 41.3034 46.4228 34.4208C46.4228 33.4267 46.003 33.0168 45.0066 33.0146C42.9631 33.0146 40.9203 33.0146 38.8782 33.0146C37.6996 33.0146 37.3251 33.3891 37.3251 34.5611C37.3251 38.4442 37.3251 42.3273 37.3251 46.2105C37.3251 46.86 37.0235 47.24 36.5187 47.2565C35.9951 47.2731 35.6726 46.8788 35.6704 46.2027C35.6704 45.0429 35.6704 43.883 35.6704 42.7243C35.6704 41.4617 35.3003 41.0983 34.0134 41.0983H28.1589C26.9207 41.0983 26.5517 41.4683 26.5506 42.7154C26.5506 46.7827 26.5506 50.8499 26.5506 54.9171L26.5583 55.5037ZM24.8583 55.5279C24.8763 55.4412 24.8888 55.3534 24.8959 55.265C24.8959 52.7465 24.908 50.228 24.8959 47.7094C24.8959 46.8445 24.4386 46.4468 23.5118 46.4435C21.416 46.4347 19.3201 46.4347 17.2243 46.4435C16.1992 46.4435 15.7982 46.8622 15.7982 47.895C15.7982 50.2663 15.7982 52.6379 15.7982 55.0099V55.5235L24.8583 55.5279ZM38.5557 18.4292C38.4748 18.4537 38.3961 18.4847 38.3204 18.522C36.6701 19.5162 35.0164 20.5158 33.3772 21.5332C33.2137 21.6348 33.0944 21.8646 33.0281 22.0546C32.4515 23.7579 31.9014 25.4723 31.3182 27.1745C31.2022 27.5136 31.2497 27.7357 31.4828 28.0096C32.5808 29.2965 33.6589 30.5999 34.7292 31.91C34.9933 32.2189 35.1868 32.5816 35.2963 32.9728C35.4058 33.3641 35.4287 33.7746 35.3633 34.1756C35.244 34.9753 35.1612 35.7806 35.065 36.5826C34.9546 37.5248 34.8441 38.466 34.7248 39.4237L35.6759 39.6446V39.0072C35.6759 37.3878 35.6571 35.7685 35.6836 34.1469C35.7035 32.9263 36.3122 32.0547 37.429 31.5698C37.7736 31.4207 38.1624 31.3721 38.5557 31.2715V18.4292ZM48.9126 3.65047C48.8021 3.59302 48.769 3.5643 48.7381 3.5643C46.0362 3.5643 43.3343 3.5643 40.6324 3.55105C40.301 3.55105 40.238 3.70017 40.2402 3.9929C40.2491 5.22455 40.2402 6.45621 40.2402 7.68786V8.66214H48.9756L47.3407 7.20624C46.5056 6.46173 46.5078 5.79454 47.3507 5.03898C47.8577 4.58166 48.3669 4.13539 48.9126 3.65047ZM14.1358 55.5158C14.1358 54.5691 14.1413 53.6534 14.1358 52.7388C14.128 51.8551 13.7005 51.4276 12.8102 51.4132C11.9464 51.4011 11.0826 51.4132 10.2188 51.4132C8.91422 51.4132 7.60857 51.4044 6.30401 51.4188C5.58379 51.4265 5.09995 51.7855 5.07013 52.4129C5.02373 53.4347 5.05799 54.4609 5.05799 55.5158H14.1358ZM21.5257 44.6905L21.6494 44.8286C21.835 44.6872 22.0636 44.58 22.2017 44.4022C23.894 42.1764 25.5852 39.9495 27.2421 37.6982C27.5276 37.2983 27.7274 36.8436 27.8287 36.3628C28.1302 34.9433 28.3633 33.5095 28.6218 32.0812C28.793 31.1357 28.9631 30.1912 29.1509 29.1529C27.9435 29.6489 26.8478 30.1194 25.7343 30.5447C25.4029 30.6728 25.3035 30.8463 25.2925 31.1843C25.2129 32.966 25.1389 34.75 24.9986 36.5284C24.947 37.1296 24.7935 37.7175 24.5446 38.2671C23.6433 40.2554 22.6855 42.2239 21.7488 44.1989C21.666 44.3668 21.5986 44.5303 21.5257 44.6982V44.6905ZM33.0138 39.4027C33.0458 39.248 33.0856 39.1077 33.1021 38.9608C33.3032 37.3216 33.5274 35.6834 33.6776 34.0397C33.7014 33.6293 33.5913 33.2223 33.3639 32.8799C32.8768 32.1718 32.2891 31.5322 31.7379 30.8684C31.4275 30.495 31.1094 30.1283 30.7438 29.6941C30.5902 30.5425 30.4842 31.2892 30.3107 32.0194C30.1848 32.5485 30.2423 32.9119 30.7968 33.1538C31.6628 33.5305 31.9953 34.2408 32.0538 35.1742C32.1433 36.5793 32.3245 37.9777 32.4681 39.3972L33.0138 39.4027ZM28.4749 18.1409C29.0051 17.8095 29.5298 17.5775 29.9286 17.2064C30.1031 17.044 30.1373 16.5624 30.039 16.3039C29.7563 15.6282 29.429 14.9721 29.0592 14.3399C28.7952 13.8671 28.3313 13.7246 27.8276 13.9312C27.538 14.0469 27.2605 14.1908 26.9991 14.3609C26.5683 14.647 26.3849 15.0579 26.6147 15.5484C26.9215 16.2339 27.2679 16.9011 27.6519 17.5466C27.8055 17.7952 28.1457 17.9167 28.476 18.1453L28.4749 18.1409ZM30.788 39.4038C30.6444 37.9258 30.5195 36.5174 30.3549 35.1134C30.3306 34.9113 30.1097 34.7323 29.9794 34.5423C29.5088 36.2998 29.4933 38.0838 27.9678 39.4027L30.788 39.4038ZM24.0078 44.7745L24.8561 44.96V43.6588L24.0078 44.7745Z" fill="white"/>
</svg>
