<svg width="51" height="50" viewBox="0 0 51 50" fill="none" xmlns="http://www.w3.org/2000/svg">
<path d="M50.0185 23.2422V26.9531C49.9123 27.0105 49.9282 27.1155 49.9197 27.2095C49.573 30.9241 48.5134 34.4226 46.5725 37.6123C42.4526 44.386 36.4797 48.4521 28.6281 49.7314C28.0422 49.8267 27.4392 49.8108 26.8691 50H23.1582C23.0654 49.8706 22.9238 49.9133 22.7993 49.9011C21.7954 49.8125 20.7981 49.6604 19.8134 49.4458C13.832 48.1213 8.91623 45.0574 5.20773 40.188C0.603242 34.1418 -0.96292 27.3157 0.569063 19.8779C1.91184 13.3765 5.43113 8.23486 10.8608 4.42505C13.6365 2.46752 16.8003 1.12914 20.1382 0.500488C21.0146 5.66406 21.8915 10.828 22.7688 15.9924C22.5563 15.9924 22.3452 15.9839 22.134 15.9924C21.6091 15.9936 21.1037 16.1917 20.7176 16.5474C20.3316 16.9032 20.093 17.3907 20.049 17.9138C20.0125 18.2382 20.0096 18.5654 20.0405 18.8904C20.0893 19.3384 19.9062 19.4287 19.49 19.4263C16.6921 19.4092 13.893 19.4165 11.0952 19.4177C9.51437 19.4177 8.7917 20.1355 8.7917 21.7029C8.7917 27.2839 8.7917 32.8646 8.7917 38.4448C8.7917 40.0159 9.5168 40.741 11.0866 40.741H38.9577C40.5215 40.741 41.2441 40.0085 41.2441 38.4387C41.2441 32.8577 41.2441 27.277 41.2441 21.6968C41.2441 21.5503 41.2441 21.4038 41.2368 21.2573C41.2184 20.7809 41.0222 20.3286 40.6869 19.9897C40.3516 19.6507 39.9015 19.4497 39.4253 19.4263C39.2141 19.4128 39.0029 19.4153 38.7905 19.4153C36.0256 19.4153 33.2595 19.408 30.4897 19.4226C30.1076 19.4226 29.9587 19.3213 30.0014 18.9343C30.0252 18.6259 30.0252 18.3162 30.0014 18.0078C29.9779 17.4667 29.7466 16.9556 29.3558 16.5807C28.9649 16.2057 28.4446 15.9959 27.903 15.9949C27.6589 15.9949 27.4148 15.9802 27.1706 15.9729C27.2005 15.8802 27.2258 15.7861 27.2463 15.6909C28.1008 10.625 28.9553 5.55908 29.8098 0.493164C29.9067 0.49878 30.0033 0.509374 30.0991 0.524903C32.7736 1.09985 35.3164 2.03003 37.6516 3.45459C44.4094 7.58667 48.4755 13.5486 49.7548 21.3879C49.8488 22.002 49.8391 22.6355 50.0185 23.2422Z" fill="#FEC94F"/>
<path d="M26.7764 0C27.4709 0.0976562 28.168 0.187988 28.8613 0.297851C29.1763 0.3479 29.5034 0.351562 29.8037 0.48584C28.9508 5.55176 28.0964 10.6177 27.2402 15.6836C27.2197 15.7788 27.1945 15.8729 27.1645 15.9656C26.9106 15.9717 26.7983 16.0706 26.8581 16.3489C26.918 16.6272 26.9595 16.9104 27.0071 17.1924C26.8911 17.3035 26.7434 17.2974 26.5981 17.2974H23.3144C23.2502 17.3086 23.1844 17.306 23.1212 17.2898C23.0581 17.2736 22.9991 17.2441 22.9482 17.2034C22.9482 16.7895 22.8335 16.3953 22.7615 15.9937C21.8834 10.8301 21.0065 5.6661 20.1309 0.501709C20.8633 0.371094 21.5957 0.183105 22.3501 0.198974C22.6382 0.198974 22.9214 0.198974 23.157 0.0012205H24.0359L24.8904 4.97436L25.0124 4.9646C25.3054 3.31014 25.5988 1.65568 25.8926 0.0012205L26.7764 0Z" fill="#F7555B"/>
<path d="M25.8975 0C25.6037 1.65365 25.3103 3.3081 25.0173 4.96338L24.8953 4.97314L24.0408 0H25.8975Z" fill="#FEC750"/>
<path d="M27.0083 17.1922C26.9607 16.9102 26.9265 16.6258 26.8594 16.3487C26.7922 16.0716 26.9119 15.9715 27.1658 15.9654C27.4197 15.9593 27.654 15.9825 27.8982 15.9873C28.4398 15.9884 28.9601 16.1982 29.3509 16.5731C29.7418 16.9481 29.973 17.4592 29.9966 18.0003C30.0204 18.3087 30.0204 18.6184 29.9966 18.9268C29.9588 19.3174 30.1077 19.4151 30.4849 19.4151C33.251 19.4004 36.0171 19.4065 38.7857 19.4078C38.9981 19.4078 39.2092 19.4078 39.4204 19.4187C39.8966 19.4422 40.3468 19.6432 40.6821 19.9822C41.0174 20.3211 41.2136 20.7734 41.2319 21.2498C41.2405 21.3963 41.2393 21.5428 41.2393 21.6892C41.2393 27.2703 41.2393 32.8509 41.2393 38.4312C41.2393 40.0059 40.5166 40.7334 38.9529 40.7334H11.0916C9.52173 40.7334 8.79663 40.0083 8.79663 38.4373C8.79663 32.8579 8.79663 27.2772 8.79663 21.6954C8.79663 20.128 9.5193 19.4114 11.1001 19.4102C13.898 19.4102 16.697 19.4017 19.4949 19.4187C19.9111 19.4187 20.0943 19.3309 20.0454 18.8829C20.0145 18.5579 20.0174 18.2306 20.054 17.9063C20.0979 17.3832 20.3365 16.8956 20.7226 16.5399C21.1086 16.1841 21.614 15.9861 22.1389 15.9849C22.3501 15.9849 22.5613 15.9849 22.7737 15.9849C22.8457 16.3865 22.9629 16.7808 22.9605 17.1946C21.9106 17.2508 21.7397 17.4241 21.7397 18.4446C21.7483 18.591 21.7483 18.7377 21.7397 18.8841C21.6897 19.282 21.8411 19.4187 22.2537 19.4139C23.8809 19.3919 25.5081 19.4041 27.1365 19.4041C28.3267 19.4041 28.3267 19.4041 28.3071 18.2261C28.2949 17.5083 28.1252 17.3142 27.4075 17.2117C27.2695 17.2007 27.1389 17.2007 27.0083 17.1922ZM25.0283 20.7115H12.333C10.7571 20.7115 10.1357 21.3291 10.1357 22.8843V37.2886C10.1357 37.4681 10.1358 37.6475 10.1516 37.8245C10.1753 38.2013 10.3256 38.559 10.5782 38.8396C10.8309 39.1201 11.1709 39.307 11.5432 39.3699C11.7991 39.4149 12.0586 39.4361 12.3184 39.4334C20.7819 39.4334 29.2426 39.4334 37.7004 39.4334C37.8793 39.4369 38.0583 39.4299 38.2363 39.4126C39.2861 39.2906 39.8953 38.6497 39.8977 37.5987C39.9075 32.5718 39.9075 27.5446 39.8977 22.5169C39.8977 21.4927 39.2288 20.8177 38.2095 20.7249C38.0312 20.709 37.8518 20.7151 37.6724 20.7151L25.0283 20.7115Z" fill="#FCFDFD"/>
<path d="M27.0082 17.1924C27.1389 17.2009 27.2695 17.2009 27.3977 17.2192C28.1154 17.3218 28.2851 17.5159 28.2973 18.2336C28.3168 19.4116 28.3169 19.4116 27.1267 19.4116C25.5007 19.4116 23.8735 19.3994 22.2439 19.4214C21.8313 19.4214 21.6799 19.2896 21.7299 18.8916C21.7385 18.7452 21.7385 18.5985 21.7299 18.4521C21.7299 17.4316 21.8996 17.2583 22.9506 17.2021C23.0015 17.2429 23.0605 17.2724 23.1236 17.2886C23.1868 17.3048 23.2526 17.3074 23.3168 17.2961H26.5944C26.7446 17.2974 26.8923 17.3035 27.0082 17.1924Z" fill="#FECA52"/>
<path d="M25.0283 20.7117H37.6699C37.8494 20.7117 38.0288 20.7056 38.207 20.7214C39.2263 20.8142 39.8928 21.4893 39.8953 22.5134C39.9075 27.5403 39.9075 32.5675 39.8953 37.5952C39.8953 38.6462 39.2849 39.2822 38.2339 39.4092C38.0558 39.4265 37.8769 39.4334 37.698 39.4299C29.2345 39.4299 20.7738 39.4299 12.3159 39.4299C12.0561 39.4327 11.7967 39.4114 11.5408 39.3665C11.1685 39.3036 10.8284 39.1167 10.5758 38.8361C10.3232 38.5556 10.1728 38.1978 10.1492 37.821C10.1345 37.644 10.1333 37.4646 10.1333 37.2852V22.8809C10.1333 21.3257 10.7595 20.7092 12.3306 20.708L25.0283 20.7117ZM16.7996 30.4895C16.625 30.697 16.4504 30.9033 16.2771 31.1108C16.0096 31.1195 15.749 31.1982 15.5215 31.3391C14.8843 31.5344 14.2532 31.7493 13.6099 31.9177C13.385 31.9659 13.1807 32.0826 13.025 32.2519C12.8693 32.4211 12.77 32.6345 12.7407 32.8625C12.6358 33.4375 12.5857 34.0222 12.5076 34.602C12.4893 34.6978 12.4982 34.7968 12.5331 34.8878C12.568 34.9788 12.6277 35.0582 12.7053 35.1172C14.0713 36.2524 15.6179 36.9373 17.4111 37.0154C17.787 37.1442 18.195 37.1442 18.5708 37.0154C20.4019 36.9409 21.9656 36.2353 23.356 35.083C23.4229 35.0374 23.4755 34.9737 23.5077 34.8994C23.5398 34.825 23.5503 34.7431 23.5378 34.6631C23.4426 34.0381 23.3694 33.4082 23.251 32.7881C23.1826 32.428 23.0068 32.113 22.6162 31.9922L20.5252 31.344C20.2896 31.1902 20.0149 31.1438 19.7524 31.0608C19.54 30.8984 19.4436 30.6226 19.197 30.4944C19.1787 30.321 19.1592 30.1477 19.1409 29.9744C19.4351 29.4385 19.7341 28.9062 20.0186 28.3667C20.1406 28.1409 20.1614 27.8113 20.3384 27.6782C20.8267 27.3193 20.7534 26.8103 20.8084 26.3354C20.8328 26.123 20.7681 25.9143 20.5166 25.8411C20.6228 25.5347 20.7669 25.2307 20.7083 24.8962C20.5447 23.9514 19.9246 23.3813 19.0908 23.0334C18.2791 22.6953 17.4649 22.6965 16.7446 23.2776C16.481 23.49 16.2466 23.7183 15.9182 23.8513C15.7812 23.909 15.6639 24.0055 15.5809 24.1289C15.4978 24.2523 15.4526 24.3972 15.4507 24.5459C15.4299 24.9829 15.3359 25.4175 15.3909 25.8582C15.1895 26.0657 15.187 26.3245 15.2151 26.5833C15.2652 27.0459 15.4995 27.4109 15.729 27.8162C16.116 28.4961 16.4517 29.2139 16.8643 29.8914C16.8423 30.0916 16.8203 30.2905 16.7996 30.4895ZM31.4602 26.875H25.5081C25.253 26.875 25.0002 26.8115 25.0002 27.2412C25.0002 27.6526 25.2188 27.6245 25.4885 27.6245C29.4892 27.6245 33.4894 27.6245 37.4893 27.6245C37.7468 27.6245 38.002 27.6868 38.0032 27.2583C38.0044 26.8298 37.7786 26.8738 37.5039 26.8738C35.4922 26.877 33.4776 26.8774 31.4602 26.875ZM31.5139 23.5242H25.4702C25.2261 23.5242 25.0027 23.4729 25.0027 23.8757C25.0027 24.2786 25.2188 24.231 25.4666 24.231C29.4802 24.231 33.4935 24.231 37.5063 24.231C37.7725 24.231 38.0117 24.2749 38.0032 23.8538C37.9946 23.4326 37.7371 23.5266 37.5149 23.5266C35.5121 23.5234 33.5118 23.5225 31.5139 23.5242ZM31.459 25.9192C33.4756 25.9192 35.4918 25.9192 37.5076 25.9192C37.7834 25.9192 38.0093 25.9399 38.0032 25.5298C37.9971 25.1196 37.7481 25.1965 37.5149 25.1965H25.4678C25.2236 25.1965 25.0002 25.1501 25.0027 25.5493C25.0027 25.929 25.198 25.9155 25.4605 25.9155C27.46 25.9163 29.4595 25.9176 31.459 25.9192ZM34.0811 37.3938C35.2517 37.3938 36.4236 37.3877 37.5943 37.3938C37.8714 37.3938 38.0056 37.3389 38.0068 37.0203C38.0081 36.7017 37.8579 36.6541 37.5894 36.6541C35.2798 36.6606 32.9698 36.6606 30.6594 36.6541C30.3775 36.6541 30.2566 36.7163 30.2554 37.03C30.2542 37.3438 30.386 37.3962 30.6643 37.3962C31.8032 37.3828 32.9422 37.3901 34.0811 37.3901V37.3938ZM28.7258 29.3005C29.8147 29.3005 30.9048 29.3005 31.9937 29.3005C32.2463 29.3005 32.4295 29.3005 32.4221 28.9539C32.4221 28.6389 32.2903 28.5767 32.012 28.5779C29.8147 28.5852 27.6174 28.5852 25.4202 28.5779C25.1602 28.5779 25.0002 28.5962 25.0015 28.9343C25.0027 29.2725 25.1235 29.3005 25.4031 29.3005C26.5139 29.2895 27.6199 29.2969 28.7258 29.2969V29.3005Z" fill="#21CFC2"/>
<path d="M20.5166 25.8445C20.768 25.9178 20.8327 26.1265 20.8083 26.3389C20.7534 26.815 20.823 27.324 20.3383 27.6817C20.1613 27.8147 20.1381 28.1443 20.0185 28.3702C19.7341 28.9097 19.435 29.4419 19.1408 29.9778C18.8161 30.1682 18.7124 30.6126 18.2473 30.6675C17.5735 30.7456 17.1938 30.3843 16.8642 29.8911C16.4516 29.2185 16.1159 28.5008 15.729 27.816C15.4995 27.4107 15.2651 27.0457 15.2151 26.583C15.187 26.3243 15.1894 26.0655 15.3896 25.8579C15.7619 25.98 15.8132 26.3047 15.9182 26.6331C15.9182 26.1717 16.3125 25.8665 16.3405 25.4209C16.3613 25.095 16.5297 24.9778 16.8288 25.1682C17.8261 25.803 18.8698 26.0484 20.0026 25.5113C20.0185 25.8775 19.9587 26.2071 20.1675 26.5354C20.2798 26.2718 20.1992 25.9544 20.5166 25.8445Z" fill="#FBCF97"/>
<path d="M20.5251 31.3491L22.6162 31.9973C23.008 32.1194 23.1826 32.4331 23.251 32.7932C23.3731 33.4133 23.4426 34.0432 23.5378 34.6682C23.5503 34.7482 23.5398 34.8302 23.5076 34.9045C23.4755 34.9788 23.4229 35.0425 23.3559 35.0881C21.9656 36.2405 20.397 36.946 18.572 37.0205C19.0188 36.1562 19.468 35.2932 19.9148 34.4265C20.2261 33.8162 20.2236 33.8162 19.8525 33.3279C20.4763 32.9507 20.4629 32.9507 20.4409 32.2C20.4275 31.9192 20.3408 31.6165 20.5251 31.3491Z" fill="#656766"/>
<path d="M17.4111 37.0151C15.6179 36.937 14.0713 36.2522 12.7053 35.1169C12.6277 35.058 12.568 34.9785 12.5331 34.8875C12.4981 34.7965 12.4893 34.6976 12.5076 34.6018C12.5857 34.022 12.6357 33.4373 12.7407 32.8623C12.77 32.6342 12.8693 32.4209 13.025 32.2516C13.1806 32.0824 13.385 31.9656 13.6098 31.9175C14.2531 31.749 14.8843 31.5342 15.5215 31.3389C15.7973 31.6416 15.5129 31.9578 15.5385 32.2703C15.5715 32.6694 15.4531 33.1101 16.0268 33.2261C16.0567 33.2273 16.0853 33.2385 16.108 33.258C16.1307 33.2774 16.1462 33.304 16.152 33.3333C16.1578 33.3626 16.1535 33.3931 16.1399 33.4197C16.1263 33.4463 16.1041 33.4675 16.0769 33.48C15.6814 33.7327 15.9011 34.0012 16.028 34.2783C16.4626 35.2061 17.0595 36.0483 17.4111 37.0151Z" fill="#656766"/>
<path d="M17.4111 37.0151C17.0596 36.0483 16.4614 35.2061 16.0329 34.2783C15.9109 34.0012 15.6863 33.7327 16.0818 33.48C16.1089 33.4675 16.1311 33.4463 16.1448 33.4197C16.1584 33.3931 16.1627 33.3626 16.1569 33.3333C16.1511 33.304 16.1356 33.2774 16.1129 33.258C16.0902 33.2385 16.0616 33.2273 16.0317 33.2261C15.4531 33.1101 15.5715 32.6694 15.5434 32.2703C15.5178 31.9578 15.8022 31.6416 15.5264 31.3389C15.7539 31.1979 16.0145 31.1192 16.282 31.1106C16.3955 31.4951 16.5041 31.8809 16.6238 32.2642C16.6738 32.4192 16.6519 32.6304 16.8997 32.6572C17.0748 33.3449 17.3009 34.0185 17.5759 34.6726C17.6767 35.1345 17.832 35.5828 18.0386 36.0081C18.2046 35.4893 18.4048 35.0632 18.4792 34.5957C18.7169 33.9447 18.9553 33.2936 19.1946 32.6426C19.5608 32.1812 19.5461 31.5854 19.7573 31.0703C20.0198 31.1533 20.2944 31.1997 20.53 31.3535C20.3457 31.6209 20.4324 31.9236 20.4421 32.208C20.4641 32.9587 20.4775 32.9587 19.8538 33.3359C20.22 33.8242 20.2273 33.8242 19.916 34.4346C19.4729 35.3013 19.0237 36.1643 18.5732 37.0286C18.1951 37.1533 17.7862 37.1486 17.4111 37.0151Z" fill="#807D7D"/>
<path d="M20.5166 25.8449C20.1992 25.956 20.2798 26.2721 20.1724 26.5419C19.9636 26.2135 20.0234 25.8779 20.0076 25.5177C18.8711 26.0549 17.8274 25.8095 16.8337 25.1747C16.5335 24.9843 16.365 25.1015 16.3455 25.4274C16.3174 25.873 15.928 26.1781 15.9231 26.6396C15.8181 26.3112 15.7668 25.9804 15.3945 25.8644C15.3408 25.4238 15.4348 24.9892 15.4556 24.5522C15.4575 24.4035 15.5027 24.2585 15.5857 24.1351C15.6688 24.0118 15.786 23.9153 15.9231 23.8576C16.2515 23.7245 16.4859 23.4914 16.7495 23.2839C17.4697 22.7004 18.2839 22.6991 19.0957 23.0397C19.9295 23.3876 20.5496 23.9577 20.7131 24.9025C20.7669 25.2382 20.6228 25.5385 20.5166 25.8449Z" fill="#666767"/>
<path d="M31.4602 26.8748C33.4768 26.8748 35.493 26.8748 37.5088 26.8748C37.7834 26.8748 38.0093 26.8479 38.0081 27.2593C38.0068 27.6707 37.7517 27.6255 37.4941 27.6255C33.4943 27.6255 29.4941 27.6255 25.4934 27.6255C25.2187 27.6255 25.0051 27.6536 25.0051 27.2422C25.0051 26.8113 25.2578 26.876 25.5129 26.876L31.4602 26.8748Z" fill="#ECFAF9"/>
<path d="M31.5139 23.5242C33.5118 23.5242 35.5105 23.5242 37.51 23.5242C37.7371 23.5242 37.9983 23.4375 37.9983 23.8513C37.9983 24.2651 37.7676 24.2285 37.5015 24.2285C33.4878 24.2285 29.4745 24.2285 25.4617 24.2285C25.2175 24.2285 24.9978 24.27 24.9978 23.8733C24.9978 23.4765 25.2212 23.5217 25.4653 23.5217L31.5139 23.5242Z" fill="#FEFEFD"/>
<path d="M31.459 25.9191C29.4595 25.9191 27.46 25.9191 25.4604 25.9191C25.198 25.9191 25.0063 25.9276 25.0027 25.5528C25.0027 25.1537 25.2212 25.1988 25.4678 25.2001H37.5149C37.748 25.2001 37.9971 25.1232 38.0032 25.5333C38.0093 25.9435 37.7834 25.9227 37.5076 25.9227C35.491 25.9186 33.4748 25.9174 31.459 25.9191Z" fill="#FCFDFD"/>
<path d="M34.0811 37.3902C32.9422 37.3902 31.8032 37.3828 30.6631 37.3902C30.3848 37.3902 30.2529 37.3438 30.2542 37.0239C30.2554 36.7041 30.3762 36.6467 30.6582 36.648C32.9686 36.6569 35.2786 36.6569 37.5882 36.648C37.8567 36.648 38.0068 36.6895 38.0056 37.0142C38.0044 37.3389 37.8701 37.3902 37.593 37.3877C36.4236 37.3841 35.2517 37.3902 34.0811 37.3902Z" fill="#E8F9F8"/>
<path d="M28.7258 29.2969C27.6199 29.2969 26.5139 29.2896 25.408 29.2969C25.1309 29.2969 25.0063 29.2517 25.0063 28.9307C25.0063 28.6096 25.165 28.573 25.425 28.5742C27.6223 28.5808 29.8196 28.5808 32.0168 28.5742C32.2952 28.5742 32.4221 28.6353 32.427 28.9502C32.4343 29.2993 32.2512 29.2993 31.9985 29.2969C30.9048 29.292 29.8147 29.2969 28.7258 29.2969Z" fill="#FCFDFD"/>
<path d="M16.8643 29.8926C17.1939 30.3809 17.5735 30.7471 18.2473 30.6689C18.7124 30.614 18.8162 30.1697 19.1409 29.9792C19.1592 30.1526 19.1787 30.3259 19.197 30.4993C19.1274 30.8496 18.8967 31.0889 18.6562 31.333C18.478 31.5149 18.1814 31.5503 18.0789 31.8213L17.9153 31.8347C17.8909 31.6394 17.7114 31.5991 17.5845 31.51C17.2103 31.2757 16.9319 30.9156 16.7996 30.4944L16.8643 29.8926Z" fill="#EEBA80"/>
<path d="M18.0776 31.8142C18.1814 31.5481 18.478 31.5127 18.6562 31.3259C18.9004 31.0818 19.1274 30.8376 19.197 30.4922C19.4412 30.6143 19.54 30.8962 19.7524 31.0586C19.5413 31.5737 19.5523 32.1694 19.1897 32.6309C18.8797 32.4478 18.6465 32.1511 18.2998 32.0205L18.0776 31.8142Z" fill="#FCFDFD"/>
<path d="M16.7996 30.4893C16.9319 30.9104 17.2103 31.2706 17.5845 31.5049C17.7065 31.594 17.8909 31.6343 17.9153 31.8308L17.7029 32.0286C17.4057 32.1997 17.1338 32.4113 16.8948 32.6572C16.6506 32.6353 16.669 32.4131 16.6189 32.2642C16.4968 31.8809 16.3906 31.4951 16.2771 31.1106C16.4504 30.9031 16.625 30.6968 16.7996 30.4893Z" fill="#FCFDFD"/>
<path d="M17.7029 32.0288L17.9153 31.8311L18.0788 31.8164L18.2998 32.0288C18.2498 32.8918 18.3669 33.7439 18.4744 34.5923C18.3987 35.0598 18.1997 35.4858 18.0337 36.0046C17.8271 35.5794 17.6718 35.1311 17.571 34.6692C17.6064 34.2493 17.6723 33.8306 17.6687 33.4119C17.665 32.9529 17.8457 32.4939 17.7029 32.0288Z" fill="#FC5F65"/>
<path d="M18.4743 34.5962C18.3669 33.7417 18.2497 32.8872 18.2998 32.0327C18.6464 32.1621 18.8796 32.4587 19.1897 32.6431C18.952 33.2933 18.7136 33.9443 18.4743 34.5962Z" fill="#EBEAEC"/>
<path d="M17.7029 32.0288C17.8457 32.4939 17.665 32.9529 17.6687 33.4155C17.6687 33.8342 17.6065 34.2529 17.571 34.6729C17.296 34.0187 17.0699 33.3451 16.8948 32.6575C17.1338 32.4115 17.4057 32.2 17.7029 32.0288Z" fill="#EBEAEC"/>
</svg>
