<svg width="15" height="15" viewBox="0 0 15 15" fill="none" xmlns="http://www.w3.org/2000/svg">
<path d="M7.03203 0H7.96944C8.22459 0.0333952 8.4815 0.058588 8.73518 0.101357C10.1431 0.342154 11.3898 0.930964 12.4573 1.88068C13.7623 3.0416 14.5782 4.48374 14.8849 6.20711C14.9332 6.47984 14.9619 6.75608 15 7.03056V7.96797C14.9891 8.005 14.9809 8.0428 14.9757 8.08105C14.8878 9.23787 14.5556 10.3212 13.9504 11.3107C12.7599 13.2608 11.0409 14.4601 8.79055 14.8846C8.51899 14.9358 8.24246 14.9616 7.96827 14.9994H7.03086C6.84777 14.9769 6.66439 14.9572 6.48189 14.9312C4.99522 14.7176 3.67991 14.1241 2.55444 13.1278C1.24617 11.9695 0.429743 10.5283 0.117176 8.80666C0.0667904 8.52954 0.0386681 8.24832 0 7.96885V7.03056C0.0328093 6.7801 0.0571232 6.52788 0.0995995 6.27888C0.36471 4.71897 1.04931 3.3691 2.16014 2.24304C3.28181 1.10585 4.63197 0.392247 6.20769 0.115125C6.4813 0.0673762 6.75754 0.0377893 7.03203 0ZM7.49868 0.937409C3.88526 0.939166 0.944732 3.87911 0.938873 7.4937C0.933014 11.1083 3.88585 14.0626 7.50249 14.0611C11.1191 14.0597 14.0573 11.1191 14.0623 7.50454C14.0673 3.88995 11.1165 0.935651 7.49868 0.937409Z" fill="white"/>
<path d="M7.03204 7.03025C7.03204 6.10426 7.03204 5.20171 7.03204 4.29887C7.02945 4.23558 7.03397 4.17221 7.04552 4.10993C7.07122 3.99946 7.13628 3.90213 7.22852 3.83614C7.32077 3.77015 7.43389 3.74002 7.54674 3.75137C7.78724 3.77539 7.96711 3.97517 7.96769 4.23238C7.97004 5.10592 7.96769 5.97947 7.96769 6.85331V7.02907H8.13262C9.00617 7.02907 9.87972 7.02732 10.7533 7.02907C11.1341 7.02907 11.3684 7.40199 11.1892 7.72012C11.0919 7.89354 10.9372 7.96678 10.7395 7.96648C9.87561 7.96443 9.01115 7.96648 8.14785 7.96648H7.96945V8.12819C7.96945 9.00701 7.96945 9.88583 7.96945 10.7646C7.96945 10.9923 7.84056 11.163 7.63433 11.2266C7.44275 11.2852 7.22626 11.2202 7.12256 11.0438C7.0677 10.9474 7.03817 10.8387 7.03673 10.7277C7.02999 9.86884 7.03292 9.00964 7.03292 8.14986V7.96766H6.87415C6.0006 7.96766 5.12705 7.96912 4.25351 7.96766C3.8885 7.96766 3.6521 7.63839 3.78861 7.32114C3.87474 7.12106 4.03615 7.03025 4.2538 7.03054C5.12247 7.03054 5.99152 7.03054 6.86097 7.03054L7.03204 7.03025Z" fill="white"/>
</svg>
