<svg width="60" height="43" viewBox="0 0 60 43" fill="none" xmlns="http://www.w3.org/2000/svg">
<path d="M19.2262 42.1612H1.56543C1.56543 36.8679 1.56543 31.574 1.56543 26.2797C1.56543 26.0161 1.57616 25.751 1.58229 25.4858H19.2063L19.2262 42.1612ZM11.3904 35.3109H9.40583C8.53689 35.3109 7.66948 35.3017 6.80054 35.3017C5.77528 35.3017 5.46417 35.6281 5.51628 36.6488C5.50862 37.1162 5.49176 37.5851 5.49636 38.0525C5.49636 38.8188 5.89328 39.2157 6.65648 39.2219C7.57599 39.2219 8.49551 39.2219 9.41502 39.2219H11.3874C12.3253 39.2219 13.2632 39.2372 14.1996 39.2219C14.8892 39.2219 15.2877 38.8096 15.2984 38.1154C15.306 37.6265 15.2877 37.1376 15.28 36.6488C15.3306 35.6296 15.021 35.3017 13.9942 35.3032C13.1268 35.3017 12.2609 35.3078 11.3904 35.3109ZM11.3904 27.4643H9.40583C8.53689 27.4643 7.66948 27.4551 6.80054 27.4551C5.77528 27.4551 5.46417 27.7816 5.51628 28.8022C5.50862 29.262 5.49176 29.7386 5.49636 30.206C5.49636 30.9723 5.89328 31.3692 6.65648 31.3753C7.57599 31.3753 8.49551 31.3753 9.41502 31.3753H11.3874C12.3253 31.3753 13.2632 31.3907 14.1996 31.3753C14.8892 31.3677 15.2877 30.9631 15.2984 30.2689C15.306 29.78 15.2877 29.2911 15.28 28.8022C15.3306 27.7831 15.021 27.4551 13.9942 27.4567C13.1268 27.4551 12.2609 27.4613 11.3904 27.4643Z" fill="#EAC89F"/>
<path d="M58.4636 42.1612H40.8027L40.8119 25.4858H58.436C58.4421 30.2704 58.4477 35.0549 58.4528 39.8395C58.4579 40.6139 58.4615 41.3878 58.4636 42.1612ZM50.6232 27.4643H48.6385C47.7696 27.4643 46.9022 27.4551 46.0332 27.4551C45.008 27.4551 44.6953 27.7831 44.749 28.8022C44.7413 29.262 44.7245 29.7386 44.7291 30.206C44.7291 30.9723 45.126 31.3692 45.8892 31.3753C46.8087 31.3753 47.7282 31.3753 48.6477 31.3753H50.6201C51.558 31.3753 52.4959 31.3907 53.4323 31.3753C54.1219 31.3677 54.5204 30.9631 54.5311 30.2689C54.5388 29.78 54.5204 29.2911 54.5127 28.8022C54.5633 27.7831 54.2537 27.4551 53.2269 27.4567C52.3595 27.4551 51.4936 27.4613 50.6232 27.4643ZM48.6385 35.3109C47.7696 35.3109 46.9022 35.3017 46.0332 35.3017C45.008 35.3017 44.6953 35.6296 44.749 36.6488C44.7413 37.1162 44.7245 37.5851 44.7291 38.0525C44.7291 38.8188 45.126 39.2157 45.8892 39.2219C46.8087 39.2219 47.7282 39.2219 48.6477 39.2219H50.6201C51.558 39.2219 52.4959 39.2372 53.4323 39.2219C54.1219 39.2219 54.5204 38.8096 54.5311 38.1154C54.5388 37.6265 54.5204 37.1376 54.5127 36.6488C54.5633 35.6296 54.2537 35.3017 53.2269 35.3032C52.3595 35.3032 51.4906 35.3032 50.6216 35.3124L48.6385 35.3109Z" fill="#EAC89F"/>
<path d="M43.7497 17.6362L57.3279 17.6454C58.3056 17.6454 58.5079 17.7987 58.8236 18.735C59.1475 19.7005 59.4703 20.6655 59.7922 21.63C60.2672 23.0568 59.9715 23.4828 58.4665 23.5472C58.1815 23.5472 57.8949 23.5318 57.6098 23.5318L40.818 23.5196C40.8057 22.8698 40.794 22.2205 40.7827 21.5718L40.8287 17.765C41.3835 17.7803 41.713 18.2339 42.1635 18.4531C42.9819 18.8485 43.5872 18.5496 43.7497 17.6362Z" fill="#6F6571"/>
<path d="M1.56212 23.5473C1.31763 23.5472 1.07342 23.5308 0.831103 23.4983C0.250276 23.3864 -0.128258 22.8853 0.0403198 22.3351C0.463297 20.9558 0.924587 19.5857 1.40886 18.2264C1.5943 17.7053 2.07858 17.641 2.57665 17.6425C5.61616 17.6496 8.65464 17.6496 11.6921 17.6425C13.2246 17.6425 14.7495 17.6425 16.279 17.6333C16.4322 18.5528 17.0452 18.8486 17.8651 18.4501C18.3157 18.2325 18.6452 17.7774 19.1984 17.762C19.2158 19.031 19.2316 20.2999 19.2459 21.5688C19.2337 22.2186 19.2219 22.8679 19.2107 23.5167C18.3325 23.5167 17.4544 23.5259 16.5763 23.5274L1.56212 23.5473Z" fill="#6F6571"/>
<path d="M19.1983 17.765C18.645 17.7803 18.3155 18.2354 17.865 18.4531C17.0451 18.8515 16.4397 18.5496 16.2788 17.6362C16.3187 17.0692 16.7386 16.8133 17.16 16.5527C20.9576 14.2202 24.7532 11.8847 28.5467 9.54602C28.7444 9.42342 29.0172 9.36671 29.0662 9.074C29.3619 8.93177 29.6859 8.85791 30.0141 8.85791C30.3422 8.85791 30.6662 8.93177 30.9619 9.074C31.011 9.36671 31.2838 9.42342 31.4799 9.54602C35.2734 11.8867 39.0695 14.2223 42.8681 16.5527C43.2911 16.8133 43.7079 17.0692 43.7493 17.6362C43.5869 18.5557 42.9831 18.853 42.1632 18.4531C41.7126 18.2339 41.3831 17.7803 40.8283 17.765C40.8224 17.6973 40.7932 17.6337 40.7457 17.5851C40.6982 17.5365 40.6353 17.5058 40.5678 17.4983C40.531 17.4511 40.4888 17.4084 40.4421 17.3711C37.0818 15.2991 33.7159 13.2261 30.3443 11.1521C30.0669 10.982 29.8723 11.0326 29.624 11.1874C28.0838 12.1452 26.5345 13.0846 24.9927 14.0409C23.1455 15.1893 21.3024 16.3418 19.4634 17.4983C19.395 17.5048 19.3311 17.5351 19.2827 17.5838C19.2343 17.6325 19.2044 17.6966 19.1983 17.765Z" fill="#5F5561"/>
<path d="M1.5625 23.5476L16.5812 23.5307C17.4594 23.5307 18.3375 23.5307 19.2157 23.52V25.4863H1.59162C1.58038 24.8416 1.57067 24.1954 1.5625 23.5476Z" fill="#D6AE86"/>
<path d="M40.8175 23.52L57.6094 23.5323C57.8944 23.5323 58.181 23.5415 58.466 23.5476C58.4568 24.1943 58.4482 24.8405 58.44 25.4863H40.8159C40.8149 24.8324 40.8154 24.177 40.8175 23.52Z" fill="#D6AE86"/>
<path d="M30.957 9.07422C30.6612 8.93198 30.3373 8.85813 30.0091 8.85813C29.6809 8.85813 29.357 8.93198 29.0612 9.07422C29.0521 6.38157 29.0321 3.68893 29.0383 0.996288C29.0348 0.867871 29.0569 0.740043 29.1032 0.620228C29.1495 0.500413 29.2192 0.390994 29.3082 0.298322C29.3972 0.20565 29.5036 0.131574 29.6215 0.080388C29.7393 0.0292015 29.8661 0.00192633 29.9946 0.000146504C30.5371 -0.00904864 30.9509 0.415461 30.9861 1.03C31.003 1.33651 30.9984 1.64301 31.0045 1.94952V5.88351L30.957 9.07422Z" fill="#867E88"/>
<path d="M31.0098 5.88175V1.94775C32.3124 1.94775 33.6151 1.94775 34.9177 1.94775C35.6717 1.94775 35.7882 2.15005 35.4541 2.83509C35.4091 2.94878 35.3537 3.05806 35.2886 3.16152C34.9146 3.66265 34.9162 4.15459 35.2886 4.65573C35.366 4.77582 35.4317 4.9031 35.4847 5.03579C35.7759 5.6488 35.6503 5.86335 34.979 5.86795C33.6549 5.88328 32.3369 5.88021 31.0098 5.88175Z" fill="#E5646E"/>
<path d="M19.2153 25.4858V23.5196C19.2276 22.8698 19.2393 22.2205 19.2506 21.5718H23.1539C23.1539 22.2246 23.1539 22.8775 23.1539 23.5303C23.1539 28.4344 23.1539 33.3411 23.1539 38.2502C23.1539 38.9021 23.1539 39.5539 23.1539 40.2057L23.1417 42.1628H19.2261C19.223 36.6038 19.2194 31.0448 19.2153 25.4858Z" fill="#F9EAC7"/>
<path d="M40.8172 23.5197C40.8172 24.1757 40.8172 24.8311 40.8172 25.486L40.808 42.1614H36.8832L36.874 40.2013C36.874 39.5484 36.874 38.8966 36.874 38.2458V23.5274V21.5688H40.7774C40.7927 22.2207 40.806 22.871 40.8172 23.5197Z" fill="#F9EAC7"/>
<path d="M9.4089 31.3695C8.48939 31.3695 7.56987 31.3818 6.65036 31.3695C5.88409 31.3695 5.49636 30.9695 5.49023 30.2002C5.49023 29.7328 5.50249 29.2638 5.50862 28.7964C5.87337 29.2975 6.35918 29.4584 6.97678 29.4217C7.78136 29.3726 8.59207 29.4063 9.39971 29.4033C9.40379 30.0602 9.40686 30.7156 9.4089 31.3695Z" fill="#867E87"/>
<path d="M15.2793 28.8008C15.2793 29.2897 15.3054 29.7785 15.2977 30.2674C15.287 30.9616 14.8885 31.3662 14.1989 31.3739C13.2625 31.3846 12.3246 31.3739 11.3867 31.3739C11.3867 30.721 11.3867 30.0677 11.3867 29.4138C12.1944 29.4138 13.0051 29.3831 13.8096 29.4322C14.4303 29.4644 14.9161 29.3034 15.2793 28.8008Z" fill="#867E87"/>
<path d="M9.4089 39.2157C8.48939 39.2157 7.56987 39.228 6.65036 39.2157C5.88409 39.2157 5.49636 38.8157 5.49023 38.0464C5.49023 37.5866 5.50249 37.11 5.50862 36.6426C5.87183 37.1406 6.35458 37.3046 6.97065 37.2679C7.7737 37.2203 8.58134 37.2571 9.38745 37.2571H9.43649C9.42831 37.911 9.41912 38.5639 9.4089 39.2157Z" fill="#867E87"/>
<path d="M15.2798 36.6475C15.2798 37.1363 15.3059 37.6252 15.2982 38.1141C15.2875 38.8083 14.8891 39.2129 14.1994 39.2206C13.263 39.2313 12.3251 39.2206 11.3872 39.2206C11.377 38.5677 11.3658 37.9159 11.3535 37.2651H11.4026C12.2071 37.2651 13.0163 37.2283 13.8178 37.2758C14.4354 37.3095 14.9166 37.1471 15.2798 36.6475Z" fill="#867E87"/>
<path d="M9.40604 29.4091C8.59839 29.4091 7.78769 29.3784 6.98311 29.4275C6.3701 29.4642 5.8797 29.3033 5.51495 28.8022C5.46438 27.7815 5.77548 27.4536 6.80074 27.4551C7.66968 27.4551 8.53709 27.4551 9.40604 27.4643L9.42902 29.4228L9.40604 29.4091Z" fill="#6F6571"/>
<path d="M15.2797 28.8006C14.9165 29.3033 14.4307 29.4642 13.8131 29.4275C13.0085 29.3784 12.1978 29.4121 11.3902 29.4091L11.3672 29.4213L11.3902 27.4643C12.2576 27.4643 13.1265 27.4551 13.9955 27.4551C15.0192 27.4536 15.3257 27.7815 15.2797 28.8006Z" fill="#6F6571"/>
<path d="M9.39378 37.2634C8.58767 37.2634 7.78003 37.2266 6.97698 37.2741C6.36397 37.3109 5.87816 37.1469 5.51495 36.6489C5.46438 35.6282 5.77548 35.3002 6.80074 35.3018C7.66968 35.3018 8.53709 35.3018 9.40604 35.311C9.40195 35.9628 9.39786 36.6136 9.39378 37.2634Z" fill="#6F6571"/>
<path d="M15.2802 36.6473C14.917 37.1469 14.4358 37.3094 13.8181 37.2741C13.0166 37.2266 12.2075 37.2634 11.4029 37.2634C11.4029 36.6136 11.3988 35.9628 11.3906 35.311C12.258 35.311 13.127 35.3018 13.9959 35.3018C15.0196 35.3002 15.3261 35.6282 15.2802 36.6473Z" fill="#6F6571"/>
<path d="M11.3898 29.4092C11.3898 30.062 11.3898 30.7154 11.3898 31.3693H9.4082C9.4082 30.7164 9.4082 30.0631 9.4082 29.4092L9.43119 29.4214H11.3668L11.3898 29.4092Z" fill="#C8C5C9"/>
<path d="M11.3669 29.4229H9.42826L9.40527 27.4658H11.3899L11.3669 29.4229Z" fill="#B6B1B7"/>
<path d="M11.3909 35.311C11.3909 35.9629 11.395 36.6137 11.4032 37.2635H11.3541H9.44308H9.39404C9.39404 36.6137 9.39813 35.9629 9.4063 35.311H11.3909Z" fill="#B6B1B7"/>
<path d="M48.6413 31.3695C47.7218 31.3695 46.8023 31.3818 45.8828 31.3695C45.1165 31.3695 44.7288 30.9695 44.7227 30.2002C44.7227 29.7328 44.7349 29.2638 44.7426 28.7964C45.1058 29.2975 45.5916 29.4584 46.2092 29.4217C47.0138 29.3726 47.8245 29.4063 48.6321 29.4033C48.6362 30.0602 48.6393 30.7156 48.6413 31.3695Z" fill="#867E87"/>
<path d="M48.6413 39.2157C47.7218 39.2157 46.8023 39.228 45.8828 39.2157C45.1165 39.2157 44.7288 38.8157 44.7227 38.0464C44.7227 37.5866 44.7349 37.11 44.7426 36.6426C45.1058 37.1422 45.5885 37.3031 46.2046 37.2679C47.0061 37.2203 47.8138 37.2571 48.6199 37.2571H48.6689C48.6607 37.911 48.6515 38.5639 48.6413 39.2157Z" fill="#867E87"/>
<path d="M48.639 29.4091C47.8313 29.4091 47.0206 29.3784 46.216 29.4275C45.603 29.4642 45.1126 29.3033 44.7494 28.8022C44.6958 27.783 45.0084 27.4536 46.0337 27.4551C46.9026 27.4551 47.77 27.4551 48.639 27.4643L48.662 29.4213L48.639 29.4091Z" fill="#6F6571"/>
<path d="M48.6267 37.2634C47.8206 37.2634 47.013 37.2266 46.2114 37.2741C45.5984 37.3094 45.1126 37.1485 44.7494 36.6489C44.6958 35.6297 45.0084 35.3002 46.0337 35.3018C46.9026 35.3018 47.77 35.3018 48.639 35.311C48.6339 35.9628 48.6298 36.6136 48.6267 37.2634Z" fill="#6F6571"/>
<path d="M40.7818 21.572H36.8785H23.1486H19.2453C19.2299 20.3031 19.2141 19.0341 19.1978 17.7652C19.2037 17.6975 19.2329 17.6339 19.2804 17.5853C19.3279 17.5367 19.3907 17.5061 19.4583 17.4985C19.6238 17.7269 19.8675 17.6426 20.079 17.6426C26.7025 17.6426 33.3251 17.6426 39.9466 17.6426C40.1596 17.6426 40.4064 17.7269 40.5596 17.4985C40.6272 17.5061 40.69 17.5367 40.7375 17.5853C40.785 17.6339 40.8142 17.6975 40.8201 17.7652L40.7818 21.572Z" fill="#F4DBB3"/>
<path d="M40.5681 17.4984C40.4042 17.7267 40.1605 17.6424 39.9551 17.6424C33.3326 17.6424 26.71 17.6424 20.0875 17.6424C19.876 17.6424 19.6277 17.7267 19.4668 17.4984C21.314 16.3459 23.1602 15.1935 25.0053 14.041C26.5471 13.0847 28.0964 12.1453 29.6366 11.1874C29.8849 11.0342 30.0795 10.9821 30.3569 11.1522C33.7162 13.2323 37.0806 15.3053 40.4501 17.3712C40.4942 17.409 40.5337 17.4517 40.5681 17.4984Z" fill="#E9C89F"/>
<path d="M36.8761 23.5273V38.2472L32.9498 38.238C32.9498 36.9952 32.962 35.7508 32.9498 34.5079C32.9498 33.7248 32.5666 33.3478 31.785 33.3416C30.6019 33.3324 29.4193 33.3324 28.2372 33.3416C27.4541 33.3416 27.0756 33.7248 27.071 34.5079C27.071 35.7508 27.071 36.9952 27.071 38.238L23.1416 38.2472C23.1416 33.3432 23.1416 28.4365 23.1416 23.5273H36.8761ZM32.9268 26.9571C33.008 25.8077 32.7153 25.4936 31.569 25.492H28.4595C27.3116 25.492 27.0204 25.8077 27.1001 26.9571C27.0909 27.4261 27.0649 27.8966 27.0771 28.364C27.0955 28.9969 27.4848 29.4015 28.1146 29.4092C29.3805 29.4265 30.6469 29.4265 31.9138 29.4092C32.5421 29.4092 32.9329 28.9969 32.9513 28.364C32.9636 27.8904 32.936 27.4307 32.9268 26.9571Z" fill="#F4DBB3"/>
<path d="M36.8761 23.5274H23.1523C23.1523 22.8746 23.1523 22.2217 23.1523 21.5688H36.8822C36.8792 22.2217 36.8771 22.8746 36.8761 23.5274Z" fill="#EAC89F"/>
<path d="M32.9499 38.2383H27.0803C27.0803 36.9954 27.0666 35.751 27.0803 34.5081C27.0803 33.725 27.4635 33.348 28.2466 33.3419C29.4297 33.3327 30.6123 33.3327 31.7944 33.3419C32.576 33.3419 32.9545 33.725 32.9591 34.5081C32.9606 35.751 32.9499 36.9954 32.9499 38.2383Z" fill="#6F6571"/>
<path d="M32.9271 26.957C32.9363 27.426 32.9639 27.8949 32.9516 28.3639C32.9332 28.9968 32.5424 29.4014 31.9141 29.4091C30.6482 29.4264 29.3818 29.4264 28.115 29.4091C27.4851 29.4091 27.0958 28.9968 27.0774 28.3639C27.0652 27.8965 27.0912 27.426 27.1004 26.957C27.5694 27.4168 28.1349 27.4949 28.7678 27.4643C29.5969 27.4229 30.4321 27.4229 31.2612 27.4643C31.8926 27.4949 32.4581 27.4122 32.9271 26.957Z" fill="#867E88"/>
<path d="M32.9268 26.9573C32.4579 27.417 31.8924 27.4952 31.261 27.4645C30.4319 27.4232 29.5967 27.4232 28.7676 27.4645C28.1346 27.4952 27.5691 27.4109 27.1002 26.9573C27.0205 25.8079 27.3117 25.4937 28.4595 25.4922H31.5706C32.7154 25.4937 33.0081 25.8079 32.9268 26.9573Z" fill="#6F6571"/>
</svg>
