<svg width="60" height="60" viewBox="0 0 60 60" fill="none" xmlns="http://www.w3.org/2000/svg">
<path d="M52.1382 32.9274H54.0915V44.5032L54.267 44.5807C54.3899 44.4199 54.4977 44.248 54.5891 44.0673C55.6724 41.3769 56.7508 38.6865 57.8244 35.9961C57.8824 35.8476 57.9436 35.6991 58.0305 35.4811L59.8213 36.1817C58.7101 38.976 57.6135 41.7315 56.4894 44.5549H60C59.8051 48.6873 56.8968 51.6382 53.4103 52.1418C52.0882 52.3355 50.7227 52.2532 49.3764 52.2823C48.6743 52.2984 47.9705 52.2823 47.2829 52.2823C46.2748 54.9426 44.6837 56.1936 42.3922 56.1565C40.2101 56.1193 38.5724 54.7698 37.7446 52.3113H34.7993V60H5.78022C5.78022 58.5246 5.76409 57.0588 5.79147 55.5931C5.79952 55.1572 5.66752 54.9313 5.28586 54.6972C1.90407 52.6293 0.0553505 49.5994 0.00220802 45.6219C-0.0944146 38.4498 2.97981 33.0549 9.28122 29.5843C10.0883 29.1317 10.9491 28.783 11.8433 28.5463C12.7499 28.3171 13.0527 27.7634 13.1316 26.9095C11.8078 26.464 10.7788 25.652 10.1218 24.3864C10.0638 24.2766 9.82551 24.225 9.66769 24.2105C7.29239 24.0797 5.78026 22.4881 5.77543 20.0893C5.77543 18.5767 5.77543 17.0658 5.77543 15.5694C4.23107 15.1222 3.84297 14.6008 3.84297 13.0172V11.9874C3.84297 10.5184 4.44037 9.83233 5.92192 9.64185C6.01371 9.27703 6.0991 8.88961 6.20538 8.51187C7.66439 3.25749 12.3248 -0.145352 17.8516 0.00477366C23.058 0.145213 27.5509 3.9274 28.6894 9.15273C28.7715 9.52885 28.8843 9.66606 29.2773 9.72256C30.229 9.85816 30.8667 10.6459 30.8876 11.6225C30.9021 12.0858 30.8876 12.5507 30.8876 13.014C30.8876 14.6105 30.4963 15.1368 28.9552 15.5678C28.9552 17.09 28.9552 18.6203 28.9552 20.1522C28.9455 22.4961 27.4092 24.091 25.0661 24.2201C24.897 24.2298 24.6522 24.3186 24.5829 24.4461C23.9524 25.6257 22.8848 26.5098 21.6102 26.9079C21.7084 27.7457 22.008 28.2622 22.9066 28.5334C25.8053 29.4035 28.2353 31.0516 30.2756 33.2842L30.8876 33.9573V29.0564H34.7444V17.4241H38.619V13.5855H40.5386V17.366H42.4807V11.6387H44.4019V17.3838H46.344V13.5871H48.2942V17.3999H52.1462L52.1382 32.9274ZM12.5132 30.272C11.6935 30.6271 10.9125 30.8918 10.1991 31.2841C4.57243 34.3738 1.85248 39.1794 1.92334 45.5799C1.95555 48.3951 3.14564 50.6599 5.33092 52.4227C8.06856 54.6294 11.2812 54.2194 14.444 54.1984V52.0902C13.2813 51.8287 12.138 51.6059 11.0124 51.3121C8.29245 50.6067 6.47267 48.8907 5.97185 46.1239C5.64977 44.3644 5.78668 42.5241 5.71582 40.7033H7.71267C7.71267 42.0512 7.70301 43.3587 7.71267 44.6679C7.73361 47.3879 9.74659 49.467 12.51 49.6091L12.5132 30.272ZM28.5091 44.5419C27.3818 41.7073 26.2884 38.9679 25.1788 36.1785L26.9599 35.4715C27.0759 35.7459 27.1725 35.9654 27.2611 36.1882C28.3143 38.8226 29.3674 41.4593 30.4206 44.098C30.5097 44.2709 30.6177 44.4333 30.7426 44.5823L30.9037 44.4935C30.9037 42.2158 30.9037 39.9397 30.8941 37.662C30.8695 37.4442 30.7908 37.2361 30.6653 37.0567C29.4912 35.0196 27.8312 33.3063 25.8342 32.0702C24.707 31.3874 23.504 30.8547 22.2431 30.2074V50.3145C23.9871 50.5663 25.0677 51.6624 25.0983 53.1782C25.1289 54.7537 24.1192 55.8255 22.2383 56.2017V58.0451H27.0372C27.0372 55.5657 27.0179 53.1265 27.0501 50.689C27.0837 50.0528 26.8837 49.4263 26.488 48.9279C25.5105 47.6574 25.0999 46.1626 24.9743 44.5355L28.5091 44.5419ZM44.4518 29.0451V32.8806H50.1864V19.3839H36.7429V29.0403L44.4518 29.0451ZM11.5776 15.5064C11.5776 17.7551 11.5776 19.9327 11.5776 22.1119C11.5776 23.9231 12.8063 25.1548 14.6067 25.1629C16.4382 25.1704 18.2698 25.1704 20.1013 25.1629C21.9468 25.1629 23.1611 23.9376 23.1611 22.0861C23.1691 20.0683 23.1611 18.0505 23.1611 16.0327C23.1611 15.8599 23.1385 15.6856 23.1272 15.5064H11.5776ZM42.4695 31.0177H32.8828V44.5032H42.471L42.4695 31.0177ZM27.3222 46.4903C28.2096 48.5324 29.6219 49.9061 31.7137 50.1773C33.6559 50.4291 35.6463 50.3113 37.6158 50.329C37.7478 50.329 37.9202 50.1192 38.0071 49.9674C38.5933 48.9585 39.4564 48.4226 40.6207 48.4129C41.8693 48.4011 43.1168 48.4011 44.3632 48.4129C45.5307 48.4129 46.4165 48.944 46.9624 49.9739C47.0134 50.0992 47.1041 50.2043 47.2205 50.2728C47.3369 50.3414 47.4725 50.3696 47.6065 50.3532C49.1155 50.3387 50.626 50.3645 52.1349 50.3403C53.0144 50.3457 53.8835 50.1489 54.6752 49.7649C55.467 49.381 56.1603 48.8202 56.702 48.1256C57.0804 47.6558 57.3461 47.0941 57.7213 46.4903H27.3222ZM17.3749 36.4013C16.4667 37.5312 15.6132 38.5821 14.7983 39.6556C14.6126 39.9052 14.506 40.2049 14.4924 40.516C14.4666 42.5128 14.4778 44.5113 14.4778 46.5081V50.0385C14.911 50.3177 15.2267 50.2402 15.5118 49.877C16.4216 48.718 17.6149 48.2402 19.0739 48.4065C19.4523 48.4484 19.8324 48.4678 20.2237 48.4985C20.2465 48.4511 20.2618 48.4005 20.2688 48.3483C20.2688 45.6633 20.2688 42.9799 20.2688 40.2981C20.2737 40.1596 20.2367 40.0228 20.1625 39.9058C19.2575 38.7549 18.3412 37.6103 17.3749 36.4013ZM44.4566 44.5032H52.122V34.8936H44.4566V44.5032ZM5.82693 11.6274V13.4918H28.9342V11.6274H5.82693ZM14.4553 2.42615C11.1637 3.25749 8.28755 6.66517 8.00574 9.63055H14.4553V2.42615ZM20.2913 9.63539H26.7763C26.4993 6.61674 23.0998 2.85554 20.2913 2.44552V9.63539ZM32.7975 58.0629V52.4485L29.0019 51.4283V58.0629H32.7975ZM17.3749 33.1017C18.0996 32.0137 18.6987 30.9596 19.4507 30.0347C20.1045 29.2275 20.2044 28.4672 19.739 27.5826C19.7197 27.5471 19.7197 27.4938 19.6923 27.4729C19.5313 27.3469 19.3589 27.129 19.1866 27.1226C18.2655 27.0887 17.3411 27.1064 16.4184 27.1064C15.172 27.1064 15.1623 27.1064 14.7774 28.3171C14.7001 28.5609 14.6163 28.9128 14.7323 29.0936C15.5648 30.4124 16.4474 31.7054 17.3749 33.1017ZM16.4087 54.221C18.3283 54.221 20.1754 54.221 22.0241 54.221C22.7311 54.221 23.1675 53.8368 23.1658 53.2524C23.1642 52.6681 22.7311 52.2952 22.0209 52.2839C21.446 52.2839 20.8711 52.2839 20.272 52.2839C20.272 51.961 20.272 51.7141 20.272 51.4768C20.2543 50.7197 19.9049 50.4146 19.1625 50.3468C18.2043 50.2483 17.4136 50.4759 16.8483 51.2911C16.6873 51.5268 16.449 51.7754 16.4281 52.0321C16.3717 52.7213 16.4087 53.4284 16.4087 54.221ZM42.5242 50.3468C41.9203 50.3468 41.3181 50.3387 40.7142 50.3468C39.946 50.3597 39.5627 50.7746 39.6046 51.5236C39.6867 53.0022 40.9927 54.2178 42.5033 54.2178C44.0138 54.2178 45.3118 52.999 45.3939 51.5203C45.4342 50.7939 45.0589 50.3662 44.3391 50.3484C43.732 50.3355 43.1281 50.3468 42.5258 50.3468H42.5242ZM16.4505 1.96448V9.62086H18.2977V1.96448H16.4505ZM14.5053 58.0532H20.2253V56.1888H14.5053V58.0532ZM7.75938 55.9014V58.0451H12.51V56.2517L7.75938 55.9014ZM25.1241 22.2265C26.3045 22.1442 27.0968 21.2822 27.034 20.199C27.0106 19.713 26.7969 19.2558 26.4394 18.9267C26.0818 18.5976 25.6092 18.4231 25.1241 18.4411V22.2265ZM9.62743 18.404C8.44059 18.4831 7.65467 19.3403 7.71747 20.4315C7.74088 20.9175 7.9546 21.3747 8.31216 21.7038C8.66972 22.0329 9.14234 22.2074 9.62743 22.1894V18.404ZM14.531 32.3172V36.8597L16.1784 34.7886C15.6389 33.988 15.1204 33.2034 14.531 32.3237V32.3172ZM18.573 34.7902L20.2269 36.8629V32.3124L18.573 34.7902ZM25.1257 16.3474L26.9985 16.8688V15.5113H25.1257V16.3474ZM9.62256 15.5209H7.73359V16.8769L9.62256 16.3507V15.5209Z" fill="#92210F"/>
<path d="M38.6736 25.1919H40.5336V27.0547H38.6736V25.1919Z" fill="#172F40"/>
<path d="M46.3875 23.195V21.3306H48.2586V23.195H46.3875Z" fill="#172F40"/>
<path d="M44.4002 21.3257V23.1805H42.5386V21.3257H44.4002Z" fill="#172F40"/>
<path d="M38.6589 23.1952V21.334H40.527V23.1952H38.6589Z" fill="#172F40"/>
<path d="M48.2733 25.2129V27.0693H46.394V25.2129H48.2733Z" fill="#172F40"/>
<path d="M42.542 25.1885H44.3956V27.0691H42.542V25.1885Z" fill="#172F40"/>
<path d="M48.2537 30.9436H46.3921V29.084H48.2537V30.9436Z" fill="#172F40"/>
<path d="M40.5161 42.5742H38.6707V32.9468H40.5161V42.5742Z" fill="#172F40"/>
<path d="M36.6592 42.5662H34.7976V32.9614H36.6592V42.5662Z" fill="#172F40"/>
<path d="M50.177 38.7115H46.4087V36.8276H50.177V38.7115Z" fill="#172F40"/>
<path d="M50.2152 40.6982V42.5514H46.405V40.6982H50.2152Z" fill="#172F40"/>
</svg>
