<svg width="57" height="58" viewBox="0 0 57 58" fill="none" xmlns="http://www.w3.org/2000/svg">
<path d="M4.04241 57.1981C3.28658 56.7355 3.15709 56.4312 3.3098 55.557C3.54773 54.2179 3.79232 52.88 3.99483 51.5355C4.00169 51.4159 3.98435 51.2961 3.94385 51.1833C3.90335 51.0706 3.8405 50.9671 3.7591 50.8792C2.79191 49.8965 1.79926 48.9371 0.805508 47.9799C0.440319 47.628 0.174723 47.2473 0.330758 46.7161C0.486793 46.1849 0.905108 45.9569 1.44514 45.8828C2.81073 45.6969 4.17189 45.4678 5.53968 45.2985C5.9093 45.252 6.07971 45.086 6.22579 44.7817C6.81562 43.5567 7.4287 42.3471 8.02074 41.1187C8.25424 40.6363 8.56633 40.2866 9.1451 40.2976C9.69842 40.3065 9.99499 40.6517 10.2185 41.1121C10.8216 42.3504 11.4436 43.581 12.0378 44.8237C12.1806 45.1225 12.3576 45.2465 12.6952 45.2907C14.0984 45.4733 15.4949 45.7046 16.9004 45.9027C17.4083 45.9746 17.7591 46.2181 17.9096 46.7094C18.0601 47.2008 17.8609 47.5671 17.5223 47.8969C16.5197 48.8718 15.5304 49.8589 14.5134 50.8206C14.395 50.9178 14.3072 51.047 14.2604 51.1929C14.2137 51.3387 14.2101 51.495 14.25 51.6428C14.5012 52.9796 14.7236 54.3209 14.9549 55.661C15.0877 56.4356 14.9339 56.7466 14.209 57.1981H13.5451C12.1419 56.4445 10.7397 55.6876 9.3299 54.9461C9.26591 54.9179 9.19676 54.9033 9.12684 54.9033C9.05691 54.9033 8.98776 54.9179 8.92377 54.9461C7.51503 55.6876 6.11292 56.4434 4.70971 57.1959L4.04241 57.1981ZM9.11962 43.8953C8.6659 44.8138 8.25092 45.6072 7.8802 46.4217C7.60797 47.0193 7.18745 47.3159 6.53122 47.3834C5.64592 47.4752 4.76061 47.6379 3.93064 47.763C4.58687 48.4612 5.21433 49.154 5.87056 49.8191C6.26674 50.2197 6.42388 50.6446 6.30768 51.2123C6.12177 52.1231 5.99008 53.0449 5.81856 54.0652C6.49139 53.7144 7.11442 53.4699 7.64561 53.0947C8.66703 52.3721 9.61431 52.3998 10.6335 53.108C11.157 53.4743 11.7678 53.7155 12.4318 54.0619C12.2503 53.0073 12.0998 52.0855 11.9283 51.1681C11.8309 50.6513 11.9471 50.2285 12.3322 49.8689C12.6952 49.5303 13.0393 49.1717 13.4012 48.8331C13.7398 48.5166 14.0906 48.2145 14.4359 47.9057C13.5116 47.6576 12.5703 47.4783 11.6195 47.369C11.0662 47.2993 10.67 47.0536 10.4255 46.5302C10.0249 45.6836 9.59547 44.8547 9.11962 43.8953Z" fill="white"/>
<path d="M42.9217 57.1977C42.1637 56.7462 42.0254 56.4397 42.1781 55.5621C42.4116 54.2209 42.6583 52.8829 42.862 51.5384C42.8699 51.4196 42.8537 51.3005 42.8146 51.1882C42.7754 51.0758 42.714 50.9725 42.634 50.8844C41.6524 49.8884 40.6476 48.9135 39.6394 47.944C39.2654 47.5844 39.0463 47.1871 39.2189 46.6659C39.3816 46.1734 39.759 45.9632 40.2592 45.8912C41.6613 45.6965 43.0634 45.4973 44.4588 45.2605C44.5815 45.2297 44.6969 45.1747 44.798 45.0987C44.8991 45.0227 44.984 44.9272 45.0476 44.8178C45.6861 43.6005 46.2914 42.3578 46.8912 41.1161C47.1258 40.6314 47.4379 40.2861 48.0156 40.2961C48.5689 40.3061 48.8655 40.6547 49.089 41.1128C49.6921 42.3522 50.3129 43.5839 50.9083 44.8267C51.051 45.1266 51.2336 45.2472 51.5723 45.2903C52.9755 45.4729 54.3732 45.702 55.7775 45.9034C56.2102 45.9654 56.6119 46.1347 56.6993 46.5674C56.7867 47.0001 56.8343 47.4948 56.4071 47.8954C55.3846 48.8493 54.4063 49.8508 53.3905 50.8124C53.2709 50.9092 53.1815 51.0381 53.1329 51.184C53.0843 51.3299 53.0784 51.4866 53.116 51.6358C53.3683 52.9914 53.5852 54.3526 53.8375 55.7082C53.9681 56.4109 53.6904 56.8779 53.0895 57.1988H52.4255C51.0201 56.4474 49.6157 55.6916 48.2048 54.9512C48.141 54.9236 48.0723 54.9094 48.0028 54.9094C47.9334 54.9094 47.8646 54.9236 47.8009 54.9512C46.3921 55.6927 44.9911 56.4496 43.589 57.2032L42.9217 57.1977ZM42.8111 47.7614C43.4607 48.4575 44.0881 49.1514 44.7421 49.8198C45.1339 50.2204 45.2954 50.6409 45.1748 51.213C44.9845 52.1249 44.8583 53.0512 44.689 54.0659C45.5743 53.6012 46.4021 53.2005 47.1944 52.7457C47.7477 52.427 48.2579 52.427 48.8013 52.7535C49.1775 52.9748 49.5759 53.1674 49.9699 53.3721L51.2867 54.0593C51.1661 53.3145 51.1429 52.676 50.9548 52.0917C50.5475 50.8534 50.885 49.936 51.9054 49.1624C52.3989 48.7873 52.7907 48.2771 53.2887 47.7769C52.3845 47.6408 51.5734 47.4682 50.7556 47.4095C49.9378 47.3509 49.4497 46.9735 49.1366 46.2321C48.8123 45.4641 48.4073 44.7304 47.9934 43.8938C47.5419 44.8101 47.1236 45.6057 46.7529 46.4224C46.4806 47.02 46.0601 47.3155 45.4028 47.3841C44.5131 47.4748 43.6333 47.6386 42.8111 47.7614Z" fill="white"/>
<path d="M23.372 57.1979C22.7302 56.8017 22.5553 56.2528 22.708 55.5125C22.9725 54.1978 23.1828 52.8731 23.3809 51.5463C23.3918 51.4291 23.3792 51.3108 23.3438 51.1985C23.3085 51.0862 23.2511 50.9821 23.175 50.8923C22.2067 49.9096 21.2163 48.9501 20.217 47.9984C19.8275 47.6288 19.584 47.2238 19.7456 46.6804C19.9071 46.1371 20.352 45.9478 20.8821 45.8759C22.2466 45.6889 23.6122 45.4974 24.97 45.2673C25.0939 45.2398 25.211 45.1876 25.3142 45.1139C25.4175 45.0401 25.5048 44.9462 25.5709 44.8379C26.2172 43.6007 26.828 42.3457 27.4367 41.0897C27.658 40.6227 27.9723 40.2963 28.5223 40.2974C29.0723 40.2985 29.3788 40.6294 29.6046 41.0941C30.1988 42.3114 30.8152 43.5287 31.4051 44.746C31.56 45.0681 31.7282 45.244 32.1244 45.2927C33.511 45.4598 34.8909 45.6977 36.2698 45.8925C36.7733 45.9633 37.1418 46.1869 37.2923 46.6815C37.4428 47.1762 37.2569 47.5668 36.8951 47.9198C35.9268 48.8494 34.985 49.8078 33.9968 50.7152C33.6504 51.0339 33.5807 51.3404 33.6648 51.7765C33.9016 53.0214 34.0676 54.2797 34.3288 55.5191C34.4892 56.2738 34.2945 56.805 33.646 57.1923H32.982C31.5932 56.4542 30.2088 55.7083 28.81 54.9901C28.7155 54.9506 28.6139 54.9309 28.5115 54.9322C28.4091 54.9335 28.308 54.9559 28.2146 54.9979C26.8136 55.7139 25.427 56.4564 24.036 57.1923L23.372 57.1979ZM31.8178 54.0594C31.6552 53.1066 31.5345 52.2567 31.3608 51.4179C31.2169 50.7252 31.3464 50.1829 31.8953 49.6871C32.5405 49.1039 33.1126 48.4355 33.7467 47.7671C32.8614 47.6343 31.996 47.4728 31.124 47.3854C30.4434 47.3178 30.0173 47.008 29.7418 46.3894C29.3766 45.5705 28.9505 44.7792 28.5156 43.9039C28.2036 44.5336 27.8649 45.0669 27.668 45.649C27.243 46.9051 26.4352 47.517 25.0928 47.5115C24.4908 47.5115 23.8888 47.6852 23.2945 47.7793C23.8788 48.3957 24.379 49.0176 24.9755 49.5278C25.6627 50.1154 25.8608 50.7606 25.6395 51.6304C25.4458 52.394 25.3684 53.1863 25.2223 54.0727C26.1242 53.6002 26.9166 53.2151 27.6768 52.7758C28.2456 52.4438 28.758 52.4294 29.3368 52.7592C30.1081 53.1996 30.917 53.5902 31.8189 54.0594H31.8178Z" fill="white"/>
<path d="M7.57597 15.0111C7.57597 12.1397 7.57597 9.26841 7.57597 6.39707C7.57597 3.03401 9.9508 0.642578 13.3006 0.642578C23.4609 0.642578 33.6213 0.642578 43.7817 0.642578C47.1646 0.642578 49.5362 3.02515 49.5362 6.42141C49.5421 12.1449 49.5421 17.8691 49.5362 23.5941C49.5362 26.9782 47.1481 29.3486 43.7562 29.3553C40.5359 29.3553 37.3145 29.363 34.0931 29.3464C33.7113 29.3464 33.5055 29.4692 33.3185 29.7891C32.1211 31.7954 30.906 33.7895 29.6931 35.7859C28.986 36.9501 28.1162 36.9401 27.4035 35.7638C26.2017 33.7829 24.9922 31.8064 23.8081 29.8145C23.6045 29.4715 23.3909 29.342 22.9858 29.3442C19.7832 29.363 16.5807 29.3575 13.3781 29.3541C9.94751 29.3541 7.57929 26.9871 7.57597 23.5665C7.57302 20.7158 7.57302 17.864 7.57597 15.0111ZM28.5455 33.3878C28.6927 33.1598 28.7957 33.0116 28.8886 32.8577C29.8846 31.2233 30.8883 29.5976 31.8566 27.9487C32.1886 27.3733 32.6246 27.1365 33.2897 27.1409C36.7866 27.1608 40.2836 27.153 43.7806 27.1486C45.9407 27.1486 47.3306 25.7532 47.3328 23.5842C47.3328 17.8607 47.3328 12.1368 47.3328 6.41256C47.3328 4.24245 45.9429 2.85473 43.7784 2.85473H13.3548C11.157 2.85473 9.78591 4.2347 9.78481 6.44575C9.78481 12.1515 9.78481 17.857 9.78481 23.562C9.78481 25.7664 11.1637 27.1475 13.3626 27.1497C16.8418 27.1497 20.32 27.163 23.7981 27.1398C24.4886 27.1398 24.9258 27.3855 25.2733 27.9753C26.3268 29.7658 27.4201 31.532 28.5455 33.3878Z" fill="white"/>
<path d="M28.5631 9.48086H15.7527C15.5507 9.49012 15.3484 9.48383 15.1474 9.46204C14.8798 9.42421 14.6357 9.28905 14.4616 9.08245C14.2875 8.87584 14.1957 8.61229 14.2038 8.34224C14.2119 8.07219 14.3193 7.81459 14.5054 7.61877C14.6915 7.42294 14.9433 7.30264 15.2126 7.28087C15.3599 7.2705 15.5077 7.26791 15.6553 7.27312H41.4398C41.587 7.27312 41.7353 7.26538 41.8825 7.27977C42.1576 7.29683 42.4162 7.41677 42.607 7.61575C42.7977 7.81474 42.9066 8.0782 42.9121 8.35379C42.9175 8.62938 42.8191 8.89693 42.6363 9.10328C42.4536 9.30963 42.1999 9.43968 41.9256 9.46758C41.7417 9.48466 41.5569 9.48947 41.3723 9.48197L28.5631 9.48086Z" fill="white"/>
<path d="M28.6196 20.5227C32.9443 20.5227 37.2698 20.5227 41.596 20.5227C42.4813 20.5227 43.0578 21.1126 42.8852 21.8374C42.7612 22.3575 42.416 22.6586 41.8815 22.7227C41.7165 22.7351 41.551 22.7381 41.3857 22.7316H15.7118C15.5273 22.7399 15.3423 22.7347 15.1585 22.7161C14.8915 22.6786 14.6473 22.545 14.4718 22.3402C14.2964 22.1354 14.2018 21.8736 14.2057 21.6039C14.2114 21.3344 14.316 21.0763 14.4997 20.879C14.6833 20.6816 14.9332 20.5588 15.2017 20.5338C15.3858 20.5205 15.5705 20.5172 15.755 20.5239L28.6196 20.5227Z" fill="white"/>
<path d="M19.7444 16.1043C18.2726 16.1043 16.7997 16.1143 15.3268 16.0977C15.1787 16.1024 15.0313 16.0768 14.8935 16.0225C14.7557 15.9682 14.6305 15.8863 14.5255 15.7818C14.4205 15.6774 14.338 15.5526 14.283 15.4151C14.2281 15.2775 14.2018 15.1302 14.2057 14.9822C14.2157 14.3636 14.686 13.9242 15.3633 13.8999C15.4186 13.8999 15.4739 13.8999 15.5282 13.8999C18.3265 13.8999 21.1244 13.8999 23.922 13.8999C24.7254 13.8999 25.2344 14.3271 25.2411 14.9899C25.2477 15.6528 24.7309 16.0966 23.9419 16.1032C22.5431 16.1076 21.1432 16.1043 19.7444 16.1043Z" fill="white"/>
<path d="M37.4261 16.1039C36.0085 16.1039 34.5909 16.1039 33.1733 16.1039C32.3699 16.1039 31.873 15.6712 31.8763 14.9973C31.8796 14.3234 32.3699 13.9039 33.1844 13.9028C35.9819 13.9028 38.7799 13.9028 41.5782 13.9028C42.386 13.9028 42.8951 14.32 42.9061 14.9807C42.9172 15.6414 42.3927 16.105 41.5627 16.1061C40.1871 16.1061 38.806 16.1039 37.4261 16.1039Z" fill="white"/>
<path d="M29.6587 15.0006C29.6587 15.2924 29.5428 15.5722 29.3365 15.7784C29.1302 15.9847 28.8505 16.1006 28.5587 16.1006C28.267 16.1006 27.9872 15.9847 27.7809 15.7784C27.5746 15.5722 27.4587 15.2924 27.4587 15.0006C27.46 14.8546 27.4902 14.7102 27.5476 14.5758C27.605 14.4415 27.6884 14.3198 27.793 14.2179C27.8976 14.1159 28.0214 14.0357 28.1572 13.9818C28.293 13.9279 28.4381 13.9015 28.5842 13.904C28.8696 13.9144 29.1402 14.034 29.3402 14.238C29.5401 14.4421 29.6541 14.715 29.6587 15.0006Z" fill="white"/>
</svg>
