<svg width="50" height="48" viewBox="0 0 50 48" fill="none" xmlns="http://www.w3.org/2000/svg">
<path d="M17.2866 8.88994C17.2866 7.42815 17.2866 6.05713 17.2866 4.69018C17.2866 2.99944 18.4002 1.88718 20.0815 1.88176C21.3685 1.88176 22.6555 1.87092 23.9412 1.88854C24.2514 1.88854 24.3557 1.81267 24.3395 1.4943C24.2501 -0.249277 24.6037 0.0149018 25.8758 0.013547C31.5459 0.00451531 37.2169 0.00406372 42.8889 0.0121923C43.8616 0.0121923 43.9727 0.121928 43.9727 1.0811C43.9727 1.87634 43.9727 1.87634 44.7679 1.87634C45.6146 1.87634 46.4614 1.87634 47.3081 1.87634C48.8593 1.89125 50 3.02383 50 4.58586C50 15.778 50 26.9701 50 38.1623C50 39.788 48.843 40.884 47.1686 40.8853C39.7354 40.8853 32.3023 40.8813 24.8692 40.8731C24.3733 40.8731 24.2568 40.9951 24.2677 41.4801C24.3029 43.038 24.2826 44.596 24.2799 46.154C24.2799 46.8314 24.0943 47.021 23.4033 47.021C15.9025 47.021 8.40117 47.021 0.899409 47.021C0.170547 47.021 0.0120404 46.8558 0.0120404 46.1188C0.0120404 44.4429 -0.019119 42.7657 0.0188143 41.0899C0.0662309 38.9805 1.08366 37.4537 2.98709 36.565C4.39469 35.9093 5.83209 35.3267 7.27356 34.732C7.55399 34.6155 7.64476 34.4692 7.63528 34.1738C7.6136 33.4802 7.77075 32.7486 7.59057 32.1011C7.41039 31.4535 6.58805 31.2882 6.10033 30.8465C4.10613 29.0217 3.04806 26.7823 3.05212 24.0727C3.05212 23.7083 2.95323 23.5173 2.62808 23.329C0.776125 22.2601 0.917021 19.5546 2.56305 18.8867C2.80962 18.7878 2.75408 18.6049 2.75814 18.4302C2.78795 17.2298 2.71072 16.0282 2.84755 14.8279C3.27701 11.0345 6.59211 7.66117 10.3705 7.14772C12.8091 6.81715 15.0404 7.31842 17.0549 8.74227C17.1064 8.78291 17.162 8.81272 17.2866 8.88994ZM9.86522 8.57834C9.74728 8.5763 9.62951 8.58812 9.51433 8.61357C6.85765 9.49552 5.09646 11.273 4.28631 13.954C3.79995 15.5662 4.00858 17.238 3.97472 18.8867C3.97472 19.1075 4.07497 19.2837 4.28631 19.2633C4.49765 19.243 4.48817 19.0195 4.47598 18.8569C4.42179 18.0942 4.59113 17.3436 4.583 16.5836C4.583 16.0986 4.78622 15.8141 5.29425 15.7924C7.14829 15.8593 9.00407 15.723 10.8285 15.386C12.8958 14.9877 14.8927 14.4038 16.6471 13.1764C17.273 12.7347 17.6348 12.7347 17.8827 13.1181C18.1306 13.5015 17.9897 13.74 17.3543 14.1911C15.6094 15.4267 13.6193 16.0404 11.5668 16.4942C11.033 16.6134 10.483 16.6947 9.84489 16.8112C10.6045 17.3165 11.4235 17.726 12.2835 18.0305C13.5858 18.4925 14.9458 18.772 16.3247 18.861C17.3218 18.9301 18.3067 18.9965 19.3052 18.8461C19.4949 18.819 19.633 18.7946 19.6303 18.5629C19.6141 17.28 19.7333 15.9889 19.4881 14.7195C18.9679 12.0289 17.4559 10.0862 14.9605 8.94413C13.4391 8.22393 11.7136 8.05904 10.0833 8.47809C10.041 8.46947 9.9971 8.47454 9.95789 8.49257C9.91867 8.51059 9.88621 8.54064 9.86522 8.57834ZM10.2784 34.8715C11.9177 35.278 13.5231 35.1181 15.1041 34.5721C15.2992 34.5058 15.4644 34.4367 15.4522 34.1657C15.4292 33.6441 15.4387 33.1198 15.4522 32.5969C15.4522 32.3558 15.3588 32.2907 15.1501 32.3747C13.5746 33.0128 11.9421 33.0968 10.2798 32.8733C9.89095 32.7635 9.50214 32.6579 9.11739 32.5414C8.97378 32.498 8.88708 32.4587 8.84644 32.6768C8.57548 34.2362 8.7665 34.5572 10.231 34.877C10.247 34.8776 10.263 34.8758 10.2784 34.8715ZM3.97472 20.572C3.80131 20.4709 3.62835 20.3688 3.45584 20.2659C2.96677 19.9759 2.66873 20.1087 2.54951 20.6723C2.45511 21.0472 2.51337 21.4443 2.7115 21.7763C2.90963 22.1083 3.23143 22.348 3.60622 22.443C4.10613 22.5893 4.29579 22.8684 4.26734 23.3615C4.25109 23.6473 4.26734 23.9359 4.26734 24.2231C4.2615 25.8072 4.77602 27.3493 5.73184 28.6125C6.80346 30.0499 8.18125 31.0633 9.96411 31.4575C12.8619 32.2162 15.352 31.4575 17.4248 29.3563C19.0098 27.7523 19.6181 25.7526 19.5355 23.5173C19.5043 22.7044 19.5355 22.6963 20.2766 22.4172C20.6249 22.2977 20.9167 22.0534 21.0956 21.7314C21.2745 21.4094 21.3278 21.0326 21.2452 20.6736C21.1477 20.2076 20.7778 19.9001 20.3497 19.9692C18.8095 20.2063 17.2445 20.2373 15.6961 20.0613C12.969 19.7714 10.4505 18.9341 8.27608 17.2082C8.13032 17.0693 7.93547 16.9938 7.73418 16.9982C7.21124 17.0253 6.68559 17.0429 6.1613 17.0307C5.87138 17.0226 5.78468 17.1269 5.77248 17.4046C5.73997 18.1145 5.68307 18.823 5.62888 19.5316C5.51508 20.946 5.27393 21.0963 3.97472 20.572ZM3.66989 45.7706C9.99934 45.776 16.3283 45.7832 22.6569 45.7923C23.0118 45.7923 23.0741 45.6568 23.0633 45.3411C23.0511 43.9539 23.0836 42.5652 23.0525 41.178C23.0159 39.5414 22.2477 38.333 20.7494 37.6556C19.251 36.9782 17.7039 36.355 16.1811 35.7034C16.1002 35.6596 16.011 35.6334 15.9192 35.6264C15.8275 35.6194 15.7353 35.6318 15.6487 35.6627C13.4675 36.4891 11.2633 36.5189 9.04288 35.8266C8.74618 35.7494 8.50097 35.5205 8.13383 35.679C6.50812 36.3902 4.85802 37.0337 3.25669 37.7883C2.68126 38.0482 2.18953 38.4631 1.8366 38.9867C1.48367 39.5102 1.28347 40.1217 1.25842 40.7526C1.16223 42.3173 1.2381 43.8929 1.22726 45.4631C1.22726 45.7462 1.3519 45.799 1.5944 45.7936C2.28668 45.7787 2.98032 45.7787 3.66989 45.7719V45.7706ZM48.7834 21.3686C48.7834 15.8141 48.7834 10.2596 48.7834 4.70508C48.7834 3.66598 48.2198 3.1024 47.1875 3.09698C46.3408 3.09698 45.4941 3.09698 44.6473 3.09698C43.9808 3.09698 43.9808 3.09698 43.97 3.76759C43.97 4.55606 43.8047 4.71592 43.0216 4.71592H25.2919C25.1903 4.71592 25.0887 4.71592 24.9871 4.71592C24.9061 4.72106 24.825 4.70975 24.7486 4.68266C24.6721 4.65557 24.602 4.61328 24.5423 4.55833C24.4827 4.50338 24.4348 4.43691 24.4016 4.36294C24.3683 4.28897 24.3504 4.20903 24.349 4.12795C24.3235 3.94295 24.3203 3.75556 24.3395 3.56979C24.3855 3.19994 24.2677 3.07666 23.8734 3.08479C22.6203 3.11324 21.3671 3.08479 20.114 3.09698C19.0776 3.09698 18.5113 3.66192 18.5072 4.69695C18.5072 6.35654 18.5072 8.01612 18.5005 9.67435C18.493 9.90937 18.577 10.1381 18.7348 10.3124C19.4867 11.2086 20.0552 12.2439 20.408 13.3593C20.8754 14.7872 20.8564 16.2625 20.8225 17.7352C20.809 18.3231 20.8591 18.7187 21.4999 19.0899C23.0118 19.9583 22.7978 22.3847 21.1761 23.3222C20.8198 23.5281 20.7399 23.7422 20.7426 24.1107C20.7699 26.1789 20.0514 28.1878 18.7186 29.7695C18.5738 29.9333 18.4964 30.1458 18.5018 30.3643C18.5099 31.9046 18.514 33.4463 18.5018 34.9867C18.5018 35.2576 18.5736 35.4053 18.8391 35.511C19.6398 35.8307 20.4283 36.1789 21.2195 36.5189C21.8165 36.7642 22.3584 37.1266 22.8131 37.5847C23.2677 38.0429 23.626 38.5875 23.8667 39.1865C24.0252 39.5712 24.2026 39.6742 24.5982 39.6742C32.0657 39.6624 39.5336 39.6593 47.0019 39.6647C48.2727 39.6647 48.7848 39.1512 48.7848 37.8818C48.7848 32.3761 48.7839 26.8721 48.7821 21.37L48.7834 21.3686ZM34.0978 3.49935C36.7884 3.49935 39.4789 3.49935 42.1695 3.50612C42.5502 3.50612 42.7344 3.43161 42.6965 3.00486C42.6626 2.58285 42.6626 2.15881 42.6965 1.7368C42.7249 1.34663 42.5718 1.25315 42.202 1.25586C40.1197 1.27077 38.0388 1.26264 35.9579 1.26264C32.6753 1.26264 29.3914 1.26264 26.1088 1.25586C25.7457 1.25586 25.5791 1.33444 25.6089 1.73274C25.6421 2.15432 25.6421 2.57786 25.6089 2.99944C25.5737 3.41806 25.7444 3.50883 26.1305 3.50612C28.7844 3.49257 31.4411 3.49935 34.0978 3.49935ZM17.2419 34.7713V31.2408C16.7542 31.4142 16.6228 31.7258 16.6539 32.1891C16.6966 32.8107 16.6966 33.4344 16.6539 34.056C16.6214 34.5247 16.7989 34.7428 17.2419 34.7713Z" fill="#2A4469"/>
<path d="M48.7821 21.3699C48.7821 26.8729 48.7821 32.3764 48.7821 37.8804C48.7821 39.1498 48.27 39.6632 46.9992 39.6632C39.5309 39.6632 32.063 39.6664 24.5955 39.6727C24.1999 39.6727 24.0225 39.5697 23.8639 39.185C23.6233 38.5861 23.265 38.0414 22.8104 37.5833C22.3557 37.1251 21.8138 36.7627 21.2167 36.5175C20.4256 36.172 19.6439 35.8293 18.831 35.5095C18.5601 35.4039 18.4923 35.2616 18.4937 34.9852C18.5086 33.4449 18.5045 31.9032 18.4937 30.3628C18.4883 30.1443 18.5657 29.9318 18.7104 29.7681C20.045 28.1889 20.7663 26.182 20.7426 24.1146C20.7426 23.7461 20.8198 23.5321 21.1761 23.3262C22.8018 22.3887 23.0118 19.9623 21.4999 19.0939C20.8591 18.7254 20.809 18.3298 20.8225 17.7391C20.8564 16.2665 20.8753 14.7912 20.408 13.3633C20.0552 12.2478 19.4867 11.2126 18.7348 10.3164C18.577 10.1421 18.493 9.91334 18.5004 9.67831C18.5113 8.02008 18.5004 6.3605 18.5072 4.70092C18.5072 3.66588 19.0776 3.10501 20.114 3.10095C21.3671 3.10095 22.6203 3.1172 23.8734 3.08875C24.2677 3.08062 24.3855 3.20391 24.3395 3.57376C24.3203 3.75952 24.3235 3.94691 24.349 4.13192C24.3504 4.213 24.3683 4.29293 24.4016 4.3669C24.4348 4.44087 24.4827 4.50734 24.5423 4.56229C24.602 4.61724 24.6721 4.65954 24.7485 4.68662C24.825 4.71371 24.9061 4.72502 24.987 4.71988C25.0887 4.71988 25.1903 4.71988 25.2919 4.71988H43.0216C43.8087 4.71988 43.9699 4.55731 43.9699 3.77155C43.9699 3.10095 43.9699 3.10095 44.6473 3.10095C45.4941 3.10095 46.3408 3.10095 47.1875 3.10095C48.2198 3.10095 48.7834 3.66994 48.7834 4.70905C48.7861 10.2618 48.7857 15.8154 48.7821 21.3699ZM21.5514 14.9754C21.5514 16.3013 21.9445 17.5973 22.6809 18.6998C23.4174 19.8023 24.4642 20.6616 25.689 21.1692C26.9139 21.6769 28.2617 21.81 29.5621 21.5517C30.8625 21.2934 32.0572 20.6554 32.9951 19.7183C33.933 18.7812 34.572 17.587 34.8313 16.2868C35.0906 14.9865 34.9586 13.6386 34.452 12.4134C33.9453 11.1882 33.0868 10.1407 31.985 9.40329C30.8831 8.66592 29.5873 8.27178 28.2615 8.27071C27.38 8.26964 26.5068 8.44222 25.692 8.77858C24.8771 9.11495 24.1365 9.60852 23.5124 10.2311C22.8883 10.8537 22.393 11.5931 22.0546 12.4071C21.7163 13.2212 21.5416 14.0939 21.5405 14.9754H21.5514ZM36.7477 26.6264C35.8337 26.6264 34.9197 26.6264 34.0057 26.6264C33.5654 26.6264 33.1251 26.6264 32.6861 26.6345C32.3298 26.644 32.105 26.8404 32.0833 27.194C32.0589 27.5761 32.2865 27.7887 32.6536 27.8443C32.8048 27.8603 32.957 27.8649 33.1088 27.8578H39.1524C39.6767 27.8578 40.2024 27.8727 40.7253 27.8484C41.1128 27.8294 41.3769 27.6113 41.3566 27.2021C41.3376 26.8242 41.0857 26.6413 40.709 26.6291C40.5898 26.6291 40.472 26.6291 40.3527 26.6291L36.7477 26.6264ZM27.2454 33.9421H30.3939C30.7651 33.9421 31.0713 33.8323 31.1349 33.411C31.1986 32.9897 30.906 32.7106 30.3113 32.7092C28.2629 32.7092 26.2145 32.7092 24.1661 32.7092C23.6011 32.7092 23.2909 32.9463 23.3017 33.3406C23.3126 33.7348 23.6174 33.9394 24.1972 33.9421C25.2079 33.9461 26.2239 33.9434 27.24 33.9434L27.2454 33.9421ZM42.1776 9.75418H40.1455C39.7458 9.75418 39.441 9.88965 39.4166 10.3435C39.3949 10.7404 39.6564 10.9775 40.1536 10.9802C41.5084 10.9902 42.8595 10.9902 44.207 10.9802C44.692 10.9802 44.9996 10.7282 44.9725 10.3584C44.94 9.89236 44.627 9.74605 44.1989 9.75011C43.5297 9.7623 42.8536 9.75418 42.1776 9.75418ZM39.2242 14.8345C38.5468 14.8345 37.8695 14.8345 37.1989 14.8345C36.7735 14.8345 36.4605 14.97 36.4212 15.4401C36.3914 15.8045 36.7044 16.0619 37.1853 16.0647C38.5184 16.0728 39.8515 16.0647 41.1846 16.0647C41.6059 16.0647 41.9216 15.9156 41.9595 15.4523C41.9893 15.0838 41.6885 14.8427 41.1981 14.8359C40.5411 14.8305 39.8826 14.8372 39.2242 14.8372V14.8345ZM42.1803 21.2561C42.8577 21.2561 43.5351 21.2561 44.2125 21.2561C44.6975 21.2561 44.9847 21.0122 44.9874 20.641C44.9901 20.2698 44.7164 20.0395 44.2165 20.0368C42.8482 20.0368 41.4799 20.0368 40.1116 20.0368C39.697 20.0368 39.3611 20.1276 39.3258 20.6166C39.2974 21.0231 39.5765 21.2547 40.1075 21.2602C40.7944 21.2696 41.4867 21.2588 42.1803 21.2588V21.2561ZM42.5867 33.9407C43.1435 33.9407 43.7004 33.9407 44.2585 33.9407C44.6649 33.9407 44.9711 33.7592 44.9738 33.3284C44.9765 32.8976 44.6758 32.7119 44.2639 32.7106C43.1801 32.7106 42.0963 32.7011 41.0233 32.7106C40.5438 32.7106 40.2376 32.9815 40.2755 33.346C40.3202 33.7768 40.6101 33.9407 41.0166 33.9407H42.5867ZM25.6671 26.625H23.9967C23.6038 26.625 23.3193 26.8065 23.3071 27.2048C23.2909 27.637 23.5876 27.8456 23.9926 27.8497C25.0873 27.8615 26.1824 27.8615 27.2779 27.8497C27.6844 27.8497 27.9729 27.66 27.9553 27.2116C27.9431 26.7916 27.6654 26.6304 27.2779 26.6264C26.7442 26.6209 26.205 26.625 25.6658 26.625H25.6671ZM34.8876 32.712C34.3647 32.712 33.8404 32.7038 33.3175 32.712C32.911 32.7214 32.6184 32.9003 32.632 33.3473C32.6428 33.7646 32.9286 33.9339 33.3093 33.9367C34.357 33.9448 35.4038 33.9448 36.4497 33.9367C36.8629 33.9367 37.1474 33.7361 37.1365 33.2999C37.1271 32.8935 36.8426 32.7147 36.4592 32.7092C35.9335 32.7065 35.4092 32.712 34.8863 32.712H34.8876ZM43.6231 26.6358C43.3522 26.6358 43.0812 26.6196 42.8103 26.6358C42.7382 26.6358 42.6668 26.6502 42.6004 26.6781C42.5339 26.706 42.4737 26.7469 42.4232 26.7984C42.3727 26.8499 42.3331 26.9109 42.3065 26.9779C42.2799 27.0449 42.2669 27.1165 42.2684 27.1886C42.2467 27.5205 42.4038 27.7657 42.7303 27.8118C43.3146 27.8923 43.9072 27.8923 44.4915 27.8118C44.564 27.8045 44.6343 27.7826 44.6982 27.7475C44.762 27.7124 44.8181 27.6648 44.8631 27.6075C44.9082 27.5502 44.9412 27.4844 44.9602 27.414C44.9792 27.3437 44.9839 27.2702 44.9738 27.1981C44.9766 27.1252 44.9646 27.0526 44.9386 26.9845C44.9126 26.9163 44.8731 26.8542 44.8225 26.8017C44.7719 26.7492 44.7112 26.7074 44.6441 26.679C44.577 26.6505 44.5048 26.6358 44.4319 26.6358C44.165 26.6209 43.8941 26.6358 43.6231 26.6358ZM36.5215 21.2507C36.7748 21.2507 37.0309 21.2683 37.2829 21.2507C37.65 21.2182 37.8979 21.0109 37.8925 20.6343C37.8871 20.2576 37.6568 20.0449 37.2734 20.0395C36.7829 20.0314 36.2912 20.0327 35.8007 20.0395C35.7238 20.033 35.6463 20.0424 35.5731 20.0672C35.5 20.0921 35.4327 20.1317 35.3756 20.1837C35.3185 20.2358 35.2728 20.299 35.2412 20.3696C35.2097 20.4401 35.1931 20.5164 35.1925 20.5936C35.164 20.9702 35.3943 21.1992 35.7615 21.2439C36.014 21.2617 36.2673 21.264 36.5201 21.2507H36.5215ZM30.2422 27.8551C30.9615 27.8551 31.3504 27.427 31.0645 26.9298C30.8572 26.5695 30.4969 26.6304 30.1636 26.6237C29.8615 26.6169 29.5932 26.6738 29.4456 26.9813C29.218 27.4528 29.5783 27.8497 30.2408 27.8551H30.2422ZM38.4927 33.9434C39.002 33.9434 39.3136 33.7023 39.3055 33.3229C39.2974 32.9436 38.9763 32.6998 38.4303 32.7106C37.9209 32.7201 37.6175 32.9653 37.6432 33.3555C37.669 33.7456 37.9684 33.9475 38.4913 33.9434H38.4927ZM44.1826 14.8413C43.6475 14.8413 43.3793 15.0513 43.3874 15.4631C43.3955 15.875 43.6584 16.0647 44.1528 16.0728C44.6473 16.0809 44.9779 15.8506 44.9779 15.4631C44.9779 15.0757 44.6947 14.8386 44.1772 14.8372L44.1826 14.8413ZM37.1961 10.9884C37.6866 10.9884 38.009 10.7418 38.0022 10.3584C37.9955 9.975 37.7001 9.75418 37.2246 9.75418C36.7166 9.75418 36.4117 9.98855 36.4117 10.376C36.4253 10.7459 36.7288 10.9829 37.1961 10.9884Z" fill="#E3F3FB"/>
<path d="M9.05089 35.8267C11.2713 36.519 13.4755 36.4891 15.6567 35.6627C15.7433 35.6318 15.8355 35.6194 15.9272 35.6264C16.019 35.6334 16.1082 35.6596 16.1891 35.7034C17.7119 36.355 19.2482 36.9728 20.7574 37.6556C22.2666 38.3384 23.0225 39.5428 23.0605 41.178C23.0916 42.5653 23.0605 43.9539 23.0713 45.3412C23.0713 45.6514 23.0131 45.7936 22.6649 45.7923C16.3354 45.7787 10.0065 45.7715 3.67791 45.7706C3.67791 44.1666 3.67791 42.5625 3.67791 40.9585C3.67537 40.7567 3.69307 40.5552 3.73075 40.357C4.09111 38.5362 5.26163 37.4768 6.92798 36.8251C7.65007 36.5433 8.42499 36.3374 9.05089 35.8267Z" fill="#50A5E9"/>
<path d="M3.97475 20.5721C5.27396 21.0964 5.51511 20.946 5.62484 19.5316C5.67903 18.8231 5.73594 18.1146 5.76845 17.4047C5.78064 17.1337 5.86735 17.0226 6.15727 17.0307C6.68156 17.0429 7.20721 17.0307 7.73014 16.9982C7.93144 16.9938 8.12628 17.0693 8.27205 17.2082C10.4397 18.9342 12.9649 19.7714 15.6921 20.0613C17.2405 20.2374 18.8054 20.2064 20.3457 19.9692C20.7738 19.9001 21.1436 20.2077 21.2412 20.6737C21.3237 21.0326 21.2704 21.4095 21.0916 21.7314C20.9127 22.0534 20.6209 22.2977 20.2725 22.4173C19.5301 22.6964 19.5003 22.7031 19.5315 23.5173C19.6141 25.7527 19.0058 27.7523 17.4207 29.3564C15.348 31.4535 12.8579 32.2163 9.96008 31.4576C9.92621 31.3302 9.8246 31.2815 9.71893 31.2178C7.13269 29.5677 5.71561 27.2456 5.70613 24.1446C5.70613 23.5336 5.70613 23.0974 4.98404 22.798C4.06416 22.4146 3.89211 21.5096 3.97475 20.5721Z" fill="#FDD7B6"/>
<path d="M10.0685 8.47932C11.6987 8.06028 13.4243 8.22516 14.9456 8.94536C17.437 10.0874 18.953 12.0302 19.4732 14.7207C19.7185 15.9901 19.5992 17.2812 19.6155 18.5642C19.6155 18.7958 19.48 18.8202 19.2904 18.8473C18.2987 18.9923 17.3138 18.9313 16.3099 18.8622C14.9309 18.7732 13.5709 18.4937 12.2686 18.0317C11.4087 17.7272 10.5896 17.3177 9.83006 16.8125C10.4749 16.6959 11.0182 16.6147 11.552 16.4954C13.6044 16.0348 15.5946 15.4211 17.3395 14.1923C17.9749 13.7412 18.1063 13.5001 17.8679 13.1194C17.6294 12.7387 17.265 12.7333 16.6391 13.1709C14.8847 14.3983 12.8878 14.9822 10.8204 15.3805C8.99601 15.7174 7.14023 15.8537 5.28619 15.7869C5.32142 15.5728 5.3458 15.3561 5.39457 15.1447C5.8579 13.1722 6.59218 11.3379 8.09326 9.88963C8.63516 9.37211 9.299 9.04426 9.86664 8.57551C9.90598 8.58062 9.94595 8.57427 9.98176 8.5572C10.0176 8.54014 10.0477 8.51309 10.0685 8.47932Z" fill="#4A5160"/>
<path d="M34.0979 3.49936C31.4412 3.49936 28.7845 3.49936 26.1292 3.50613C25.7404 3.50613 25.5724 3.41807 25.6076 2.99945C25.6408 2.57787 25.6408 2.15433 25.6076 1.73275C25.5778 1.33445 25.7431 1.25452 26.1075 1.25588C29.3901 1.26807 32.674 1.26265 35.9566 1.26265C38.0375 1.26265 40.1184 1.27078 42.2007 1.25588C42.5706 1.25588 42.7236 1.34665 42.6952 1.73682C42.6613 2.15882 42.6613 2.58287 42.6952 3.00487C42.7331 3.43162 42.5489 3.50749 42.1682 3.50613C39.479 3.49259 36.7884 3.49936 34.0979 3.49936Z" fill="#475672"/>
<path d="M9.05108 35.8268C8.42518 36.3376 7.65026 36.5435 6.92139 36.8267C5.25504 37.4783 4.08453 38.5377 3.72416 40.3585C3.68649 40.5568 3.66879 40.7583 3.67132 40.96C3.67132 42.5641 3.67132 44.1681 3.67132 45.7721C2.9804 45.7789 2.28811 45.7789 1.59583 45.7938C1.35333 45.7938 1.22598 45.7464 1.22869 45.4633C1.23953 43.8931 1.16366 42.3175 1.25985 40.7528C1.28587 40.1207 1.48768 39.5084 1.84261 38.9848C2.19753 38.4611 2.6915 38.0468 3.26896 37.7885C4.86758 37.0312 6.52039 36.3904 8.1461 35.6792C8.50375 35.5207 8.75438 35.7496 9.05108 35.8268Z" fill="#71BBED"/>
<path d="M3.97469 20.5721C3.89205 21.5096 4.06817 22.4146 4.98805 22.798C5.70608 23.0974 5.70879 23.5336 5.71014 24.1446C5.71963 27.2457 7.1367 29.5637 9.72294 31.2178C9.82319 31.2815 9.93022 31.3303 9.96409 31.4576C8.18123 31.0634 6.80343 30.05 5.73182 28.6126C4.77524 27.3492 4.26021 25.8065 4.26597 24.2219C4.26597 23.9346 4.25106 23.6461 4.26597 23.3602C4.29442 22.8671 4.10475 22.588 3.60484 22.4417C3.23005 22.3468 2.90826 22.107 2.71013 21.775C2.512 21.443 2.45373 21.0459 2.54813 20.671C2.66735 20.1088 2.9654 19.976 3.45447 20.2646C3.62787 20.3685 3.80128 20.471 3.97469 20.5721Z" fill="#E5BA9D"/>
<path d="M10.2758 32.8704C11.938 33.0939 13.5705 33.0059 15.1529 32.3718C15.3615 32.2878 15.4604 32.3529 15.455 32.594C15.4455 33.117 15.436 33.6412 15.455 34.1628C15.4672 34.4338 15.3019 34.5056 15.1068 34.5693C13.5258 35.1112 11.9204 35.2724 10.2812 34.8687C10.2776 34.2021 10.2758 33.536 10.2758 32.8704Z" fill="#EBC296"/>
<path d="M9.86659 8.57689C9.29894 9.04563 8.62969 9.37349 8.0932 9.89101C6.59213 11.3379 5.85785 13.1722 5.40265 15.1502C5.35388 15.3615 5.32949 15.5783 5.29427 15.7923C4.78623 15.814 4.5776 16.0985 4.58302 16.5835C4.59115 17.3435 4.4218 18.0941 4.47599 18.8568C4.48819 19.0194 4.48548 19.2456 4.28633 19.2632C4.08718 19.2809 3.97067 19.1074 3.97473 18.8866C4.0086 17.2379 3.79997 15.5661 4.28633 13.9539C5.09918 11.2729 6.86037 9.49541 9.5157 8.61211C9.63088 8.58666 9.74865 8.57484 9.86659 8.57689Z" fill="#575F6C"/>
<path d="M10.2756 32.8704C10.2756 33.537 10.2756 34.204 10.2756 34.8714C10.259 34.8741 10.2421 34.8741 10.2255 34.8714C8.76098 34.5517 8.56589 34.2306 8.84091 32.6713C8.8802 32.4545 8.9669 32.4938 9.11186 32.5358C9.49797 32.6496 9.88949 32.7607 10.2756 32.8704Z" fill="#D4AA81"/>
<path d="M17.2418 34.7713C16.792 34.7429 16.6213 34.5248 16.6539 34.0574C16.6965 33.4358 16.6965 32.8121 16.6539 32.1905C16.6227 31.7258 16.7541 31.4142 17.2418 31.2422V34.7713Z" fill="#FDFDFE"/>
<path d="M10.0684 8.47944C10.0479 8.51394 10.0177 8.54168 9.98162 8.55925C9.94552 8.57682 9.90506 8.58346 9.86523 8.57833C9.88551 8.54358 9.91565 8.51564 9.95183 8.49803C9.988 8.48042 10.0286 8.47395 10.0684 8.47944Z" fill="#575F6C"/>
<path d="M21.5406 14.9753C21.5412 13.6476 21.9359 12.35 22.6748 11.2469C23.4136 10.1438 24.4633 9.28495 25.6909 8.77912C26.9184 8.27328 28.2685 8.14329 29.57 8.40561C30.8715 8.66793 32.0658 9.31075 33.0016 10.2526C33.9374 11.1944 34.5724 12.3929 34.8263 13.6961C35.0802 14.9993 34.9414 16.3485 34.4277 17.5727C33.9139 18.797 33.0482 19.8411 31.9403 20.5728C30.8325 21.3045 29.5323 21.6908 28.2047 21.6827C26.4319 21.6756 24.7345 20.9652 23.4851 19.7076C22.2356 18.4501 21.5363 16.7481 21.5406 14.9753ZM27.129 20.2697C27.1656 20.3713 27.2523 20.3591 27.3336 20.3591C27.9138 20.4796 28.5118 20.4869 29.0948 20.3808C31.6214 20.0137 33.7009 17.7268 33.7267 15.1731C33.7497 12.9378 32.7783 11.2199 30.8112 10.1361C29.7423 9.54544 28.5678 9.30835 27.3376 9.59421C27.22 9.59652 27.1027 9.60784 26.9867 9.62808C22.9563 10.5764 21.3821 15.5416 24.1512 18.6183C24.9451 19.5016 25.9043 20.1437 27.1317 20.2684L27.129 20.2697Z" fill="#2A4569"/>
<path d="M36.7422 26.624H40.3473C40.4665 26.624 40.5843 26.624 40.7036 26.624C41.0761 26.6362 41.3322 26.8191 41.3511 27.197C41.3715 27.6035 41.1073 27.8243 40.7198 27.8433C40.1969 27.8676 39.6712 27.8527 39.1469 27.8527H33.1034C32.9515 27.8598 32.7993 27.8552 32.6482 27.8392C32.281 27.7836 32.0534 27.5682 32.0778 27.1889C32.0995 26.8353 32.3244 26.6389 32.6807 26.6294C33.1196 26.6172 33.5599 26.6213 34.0002 26.6213C34.9151 26.6222 35.8291 26.6231 36.7422 26.624Z" fill="#2E486D"/>
<path d="M27.2401 33.9433C26.2241 33.9433 25.208 33.9433 24.1919 33.9433C23.6121 33.9433 23.3086 33.7333 23.2964 33.3418C23.2842 32.9502 23.5958 32.7118 24.1608 32.7104C26.2092 32.7104 28.2576 32.7104 30.306 32.7104C30.9007 32.7104 31.1987 32.9719 31.1297 33.4122C31.0606 33.8525 30.7598 33.9419 30.3886 33.9433H27.2401Z" fill="#2E486D"/>
<path d="M42.1777 9.75439C42.8551 9.75439 43.5324 9.75439 44.2098 9.75439C44.6379 9.75439 44.9509 9.88987 44.9834 10.3627C45.0105 10.7325 44.703 10.9818 44.218 10.9845C42.8632 10.9926 41.512 10.9926 40.1645 10.9845C39.6673 10.9845 39.4058 10.7447 39.4275 10.3478C39.4519 9.88987 39.7567 9.75981 40.1564 9.75846L42.1777 9.75439Z" fill="#2E486D"/>
<path d="M39.2242 14.8374C39.8826 14.8374 40.541 14.8374 41.1981 14.8374C41.6858 14.8374 41.9893 15.0853 41.9595 15.4538C41.9215 15.9171 41.6059 16.0675 41.1845 16.0661C39.8515 16.0661 38.5184 16.0661 37.1853 16.0661C36.7044 16.0661 36.3914 15.806 36.4212 15.4416C36.4605 14.9783 36.7734 14.832 37.1988 14.836C37.8749 14.8428 38.5495 14.8374 39.2242 14.8374Z" fill="#2E486D"/>
<path d="M42.1804 21.259C41.4867 21.259 40.7944 21.259 40.1021 21.259C39.5711 21.259 39.2893 21.026 39.3204 20.6155C39.3557 20.1264 39.6917 20.0343 40.1062 20.0357C41.4745 20.0357 42.8428 20.0357 44.2111 20.0357C44.7083 20.0357 44.9847 20.2646 44.982 20.6399C44.9793 21.0152 44.6921 21.2495 44.2071 21.2549C43.531 21.2698 42.855 21.259 42.1804 21.259Z" fill="#2E486D"/>
<path d="M42.5853 33.9434H41.0151C40.6087 33.9434 40.3188 33.7795 40.2741 33.3487C40.2361 32.9829 40.545 32.7187 41.0219 32.7133C42.1057 32.7025 43.1827 32.7133 44.2625 32.7133C44.6689 32.7133 44.9751 32.9003 44.9724 33.3311C44.9697 33.7619 44.6676 33.9421 44.2571 33.9434C43.6989 33.9448 43.1421 33.9434 42.5853 33.9434Z" fill="#2E486D"/>
<path d="M25.6658 26.6254C26.2077 26.6254 26.7496 26.6254 27.2834 26.6254C27.6708 26.6254 27.9486 26.7907 27.9607 27.2106C27.9729 27.6591 27.6803 27.8447 27.2834 27.8487C26.1887 27.8605 25.0936 27.8605 23.9981 27.8487C23.5916 27.8487 23.2963 27.636 23.3126 27.2039C23.3288 26.8056 23.6093 26.624 24.0021 26.624L25.6658 26.6254Z" fill="#2E486D"/>
<path d="M34.8864 32.7124C35.4093 32.7124 35.9336 32.7124 36.4565 32.7124C36.844 32.7124 37.1339 32.8939 37.1339 33.3031C37.1447 33.7393 36.863 33.9371 36.447 33.9398C35.3994 33.947 34.3526 33.947 33.3067 33.9398C32.9233 33.9398 32.6375 33.7678 32.6293 33.3505C32.6158 32.9034 32.9084 32.7246 33.3148 32.7151C33.8391 32.7043 34.3634 32.7124 34.8864 32.7124Z" fill="#2E486D"/>
<path d="M43.6231 26.636C43.8941 26.636 44.165 26.6211 44.436 26.636C44.5089 26.6359 44.5811 26.6506 44.6482 26.6791C44.7153 26.7076 44.7759 26.7493 44.8265 26.8018C44.8771 26.8543 44.9166 26.9165 44.9426 26.9846C44.9686 27.0527 44.9806 27.1254 44.9779 27.1982C44.9879 27.2704 44.9833 27.3438 44.9643 27.4142C44.9452 27.4845 44.9122 27.5503 44.8672 27.6076C44.8222 27.6649 44.7661 27.7125 44.7022 27.7476C44.6384 27.7827 44.5681 27.8046 44.4956 27.8119C43.9113 27.8924 43.3187 27.8924 42.7344 27.8119C42.4093 27.7659 42.2508 27.5206 42.2724 27.1887C42.271 27.1167 42.2839 27.045 42.3105 26.978C42.3371 26.911 42.3768 26.85 42.4273 26.7985C42.4777 26.747 42.538 26.7062 42.6044 26.6782C42.6709 26.6503 42.7423 26.636 42.8143 26.636C43.0853 26.6157 43.3562 26.636 43.6272 26.636H43.6231Z" fill="#2E486D"/>
<path d="M36.5202 21.251C36.2671 21.2666 36.0133 21.2666 35.7602 21.251C35.3931 21.2063 35.1628 20.98 35.1912 20.6007C35.1919 20.5235 35.2085 20.4472 35.24 20.3767C35.2715 20.3061 35.3173 20.2429 35.3744 20.1908C35.4315 20.1388 35.4987 20.0992 35.5719 20.0743C35.645 20.0495 35.7225 20.0401 35.7995 20.0466C36.2899 20.0398 36.7817 20.0385 37.2721 20.0466C37.6555 20.0466 37.8872 20.2688 37.8912 20.6414C37.8953 21.0139 37.6487 21.2253 37.2816 21.2578C37.0296 21.2794 36.7736 21.2578 36.5202 21.2578V21.251Z" fill="#2E486D"/>
<path d="M30.2409 27.855C29.5784 27.855 29.2181 27.4486 29.4443 26.9812C29.592 26.6736 29.8602 26.6167 30.1623 26.6235C30.4956 26.6235 30.856 26.5693 31.0633 26.9297C31.3491 27.4269 30.9603 27.8604 30.2409 27.855Z" fill="#2E486D"/>
<path d="M38.4913 33.9437C37.9684 33.9437 37.6663 33.7377 37.6473 33.3557C37.6283 32.9736 37.925 32.7203 38.4344 32.7108C38.9763 32.7 39.3082 32.9289 39.3096 33.3232C39.311 33.7174 39.0007 33.9396 38.4913 33.9437Z" fill="#2E486D"/>
<path d="M44.1773 14.8374C44.6948 14.8374 44.9902 15.0704 44.9821 15.4633C44.9739 15.8562 44.6569 16.077 44.1475 16.0689C43.6381 16.0608 43.3889 15.8521 43.3821 15.4592C43.3753 15.0664 43.6422 14.8374 44.1773 14.8374Z" fill="#2E486D"/>
<path d="M37.1961 10.9883C36.7287 10.9883 36.4252 10.7458 36.4171 10.3787C36.4103 9.99123 36.7165 9.75415 37.2299 9.75686C37.7054 9.75686 38.0008 9.98852 38.0076 10.3584C38.0143 10.7282 37.6865 10.9938 37.1961 10.9883Z" fill="#2E486D"/>
<path d="M27.3416 9.59982C28.5718 9.30855 29.7463 9.54563 30.8152 10.1417C32.7756 11.2255 33.7537 12.9434 33.7307 15.1787C33.7036 17.7324 31.6254 20.0193 29.0988 20.3864C28.5158 20.4926 27.9178 20.4852 27.3376 20.3647C27.3164 20.331 27.2856 20.3044 27.2491 20.2884C27.2126 20.2725 27.1721 20.2679 27.133 20.2753C27.0927 20.182 27.0214 20.1054 26.9311 20.0586C26.2006 19.5688 25.5793 18.9332 25.1063 18.1917C23.8043 16.1921 23.9032 13.3606 25.3339 11.4328C25.8907 10.6877 26.5911 10.12 27.3416 9.59982ZM31.9234 12.7659C31.9234 12.2836 31.4913 12.0032 31.0781 12.2132C30.9177 12.3057 30.7728 12.4227 30.6486 12.56C29.4849 13.7169 28.3211 14.8739 27.1709 16.0444C26.9609 16.2571 26.8322 16.3045 26.6141 16.0553C26.3106 15.7145 25.9876 15.3915 25.6468 15.088C25.3528 14.817 25.0101 14.7357 24.6985 15.0541C24.3869 15.3725 24.5088 15.6678 24.7825 15.9415C25.3343 16.4915 25.8844 17.042 26.4326 17.5929C26.7482 17.9099 27.0463 17.8842 27.3538 17.5767C28.7989 16.1271 30.244 14.6797 31.6891 13.2346C31.8367 13.0978 31.9451 12.9529 31.9234 12.7659Z" fill="#48BF60"/>
<path d="M27.3416 9.59961C26.5911 10.1198 25.8906 10.6834 25.3392 11.4312C23.9086 13.3591 23.8097 16.1905 25.1117 18.1901C25.5847 18.9316 26.206 19.5673 26.9365 20.057C27.0267 20.1039 27.098 20.1804 27.1384 20.2738C25.9083 20.1491 24.9491 19.507 24.1579 18.6237C21.3888 15.547 22.963 10.5805 26.9934 9.63348C27.1084 9.61338 27.2248 9.60206 27.3416 9.59961Z" fill="#59DC6F"/>
<path d="M27.1344 20.2701C27.1736 20.2626 27.214 20.2672 27.2505 20.2832C27.287 20.2991 27.3179 20.3257 27.339 20.3595C27.2577 20.3595 27.171 20.3717 27.1344 20.2701Z" fill="#59DC6F"/>
<path d="M31.9233 12.7659C31.945 12.9529 31.8353 13.0978 31.6984 13.2346C30.2533 14.6797 28.8083 16.1271 27.3632 17.5766C27.0557 17.8842 26.7576 17.9099 26.442 17.5929C25.8946 17.0402 25.3446 16.4897 24.7919 15.9415C24.5209 15.6705 24.4098 15.363 24.7079 15.0541C25.0059 14.7452 25.3595 14.8224 25.6562 15.088C25.997 15.3915 26.32 15.7145 26.6235 16.0553C26.8416 16.3045 26.9703 16.2571 27.1803 16.0444C28.3305 14.8739 29.4942 13.7169 30.658 12.56C30.7822 12.4227 30.9271 12.3057 31.0874 12.2132C31.4912 12.0032 31.922 12.2836 31.9233 12.7659Z" fill="#2A4469"/>
</svg>
