<svg width="60" height="60" viewBox="0 0 60 60" fill="none" xmlns="http://www.w3.org/2000/svg">
<path d="M17.343 0.00623792H18.0462C18.9994 0.26565 19.5697 0.918876 20.0197 1.77212C21.4682 4.51314 22.9652 7.22759 24.4325 9.95767C24.6064 10.2618 24.7393 10.5876 24.8278 10.9266C26.1331 16.4669 27.43 22.0084 28.7186 27.5508C29.0092 28.801 29.3046 30.0371 29.6062 31.3013C30.2875 30.8325 30.8859 30.3637 31.5391 29.9824C31.9641 29.7386 32.1298 29.487 32.1079 28.9823C31.9516 25.499 32.236 22.0422 32.761 18.5995C32.7862 18.2831 32.6945 17.9684 32.5032 17.715C30.2531 14.8318 30.7656 11.5235 32.7673 9.3951C33.9986 8.0871 35.0064 6.55094 35.994 5.03666C36.3315 4.5295 36.5578 3.95661 36.658 3.3557C36.7582 2.75478 36.73 2.13945 36.5753 1.55021C36.4003 0.870425 36.5659 0.371928 37.1488 0H37.8519C39.7191 1.48361 41.2908 3.30509 42.485 5.36952C44.9851 9.75452 44.9695 14.0473 41.9459 18.212C41.8189 18.4216 41.7524 18.6623 41.7537 18.9074C41.66 21.2671 41.5974 23.6268 41.4912 25.985C41.4584 26.7398 41.3349 27.4899 41.2552 28.1915L44.8288 29.4839C45.5398 27.7743 46.2352 26.0365 46.979 24.3269C47.904 22.2016 48.565 20.0169 48.7978 17.6978C48.8781 17.242 49.1353 16.8364 49.5135 16.5695C51.7854 15.0896 54.095 13.6676 56.4029 12.2424C57.1733 11.7736 57.8326 12.0439 58.0592 12.9144C58.2545 13.6691 58.414 14.4333 58.5937 15.1928C59.0624 17.1618 59.5312 19.1309 60 21.0999V21.3343C59.7703 21.7359 59.5858 22.1719 59.303 22.5313C58.2085 23.9078 57.3088 25.4286 56.6295 27.0507C55.0544 30.8492 53.4918 34.6518 51.9417 38.4586C51.8448 38.7499 51.8061 39.0573 51.8276 39.3635C51.8495 40.4917 51.9136 41.6185 51.9292 42.7467C51.9127 43.1592 51.8725 43.5703 51.8089 43.9782C52.0823 44.0032 52.3152 44.0251 52.5464 44.0438C56.8123 44.3767 60.0109 47.9897 59.8906 52.3262C59.7671 56.5034 56.2451 59.9836 52.0152 59.9836C37.3113 60.0055 22.6073 60.0055 7.90344 59.9836C3.83135 59.9836 0.559301 56.9113 0.0514617 52.7357C-0.40325 48.9851 2.20317 45.2549 5.97836 44.2735C6.47839 44.1438 6.99248 44.0704 7.54095 43.961C7.46594 43.7531 7.40815 43.5719 7.33471 43.3953C6.55342 41.5044 5.77213 39.6135 4.99084 37.7226C3.42201 33.9408 1.8542 30.1585 0.287451 26.3756C-0.201637 25.1942 0.160839 24.0831 1.25933 23.6174C4.05948 22.4298 6.87213 21.2681 9.69728 20.1326C10.6926 19.7309 11.7365 20.1919 12.1974 21.1608C12.4162 21.6171 12.5944 22.0985 12.7881 22.5673C14.3507 26.3314 15.9133 30.0949 17.4759 33.858C17.5493 34.0314 17.729 34.3096 17.8337 34.2971C18.54 34.2221 19.24 34.083 19.9447 33.9627C19.9306 33.8345 19.9307 33.7548 19.9135 33.6814C18.5353 27.7962 17.1415 21.9141 15.7804 16.0226C15.4195 14.4599 14.9257 12.9222 15.0367 11.2516C15.2211 8.46684 15.2742 5.67268 15.3632 2.88165C15.4023 1.1736 15.7804 0.604761 17.343 0.00623792ZM29.9999 58.0177H52.0324C55.545 57.9521 58.2608 55.0235 57.9998 51.5824C57.7342 48.0709 54.5731 45.5706 51.0511 46.0863C49.7104 46.2816 49.2603 45.7862 49.6104 44.486C50.0455 42.879 50.1239 41.1962 49.8401 39.5557C48.9729 34.444 44.896 30.6622 39.5754 30.0449C34.7439 29.4839 29.8296 32.4421 27.903 37.0678C27.4123 38.2461 26.9279 38.3774 25.8576 37.6679C23.4856 36.1052 20.9088 35.6113 18.1446 36.3224C16.1695 36.8208 14.4088 37.9454 13.126 39.528C11.8433 41.1106 11.1075 43.0661 11.0286 45.1018C11.0036 45.6362 10.8521 46.105 10.3005 46.2332C9.98798 46.3082 9.60822 46.2238 9.27383 46.1504C4.97829 45.2127 1.12186 49.1617 2.18597 53.4248C2.87976 56.2096 5.23302 58.0146 8.20817 58.0177C15.4669 58.026 22.7308 58.026 29.9999 58.0177ZM14.9726 33.1079C14.7195 33.211 14.521 33.2891 14.3257 33.3704C13.2975 33.7908 12.2756 34.2283 11.2396 34.6206C11.1214 34.6687 10.9949 34.693 10.8673 34.6921C10.7397 34.6911 10.6137 34.665 10.4962 34.6152C10.3787 34.5654 10.2723 34.4929 10.1829 34.4018C10.0936 34.3108 10.023 34.203 9.97546 34.0846C9.76451 33.5845 9.95513 33.0751 10.4677 32.8016C10.6395 32.7109 10.8239 32.6453 11.0052 32.5703L14.2069 31.2326L13.4412 29.398C12.8803 29.6277 12.3583 29.8433 11.8364 30.0543C11.0973 30.3528 10.5552 30.1981 10.3005 29.6214C10.0458 29.0448 10.3193 28.5275 11.0521 28.215L12.6772 27.5227L11.913 25.7115C11.7396 25.774 11.6287 25.8084 11.5209 25.8521C10.4271 26.3038 9.33324 26.7695 8.22069 27.2039C8.10033 27.2589 7.96997 27.2885 7.83767 27.291C7.70537 27.2935 7.57395 27.2688 7.4516 27.2184C7.32926 27.168 7.21857 27.093 7.12642 26.998C7.03427 26.903 6.96262 26.7901 6.91591 26.6663C6.70965 26.1616 6.90338 25.6693 7.42528 25.3927C7.58154 25.3114 7.74722 25.2536 7.90817 25.1864L11.1474 23.8347L10.3661 22L2.05474 25.438C4.46268 31.2404 6.84876 36.9912 9.2942 42.8874C10.3255 39.1759 12.4897 36.6255 15.7695 35.0097L14.9726 33.1079ZM24.1637 34.5878C24.1402 34.3971 24.1371 34.2471 24.1043 34.1033C23.5928 31.9155 23.0803 29.7319 22.5668 27.5524C22.2808 26.3366 21.9839 25.1255 21.7105 23.9065C21.5058 22.997 22.0729 22.3266 22.8714 22.5157C23.3793 22.6345 23.5668 23.0283 23.6746 23.494C24.3371 26.3434 25.0038 29.1917 25.6747 32.039C25.9263 33.1079 26.1825 34.1768 26.456 35.3207C26.9154 34.6268 27.3342 34.0439 27.6936 33.4251C27.8359 33.1859 27.8911 32.9049 27.8499 32.6297C26.454 26.5871 25.045 20.5477 23.623 14.5115C23.5902 14.3755 23.5356 14.2442 23.4981 14.1301C23.0293 14.4818 22.6121 14.8474 22.1433 15.1131C21.812 15.3022 21.7761 15.4803 21.8636 15.8132C22.073 16.6055 22.2417 17.4072 22.4229 18.2073C22.5792 18.8871 22.3168 19.4122 21.7558 19.5575C21.1573 19.7138 20.6619 19.3778 20.4916 18.6667C20.29 17.8526 20.1135 17.0321 19.9072 16.2195C19.8697 16.0726 19.751 15.8538 19.6463 15.8304C19.0213 15.6976 18.3712 15.6132 17.6883 15.5053C18.0852 17.1978 18.4774 18.8652 18.8681 20.5326C19.889 24.901 20.913 29.2683 21.9401 33.6345C21.9823 33.8158 22.1073 34.0721 22.2526 34.1158C22.8542 34.308 23.4824 34.4331 24.1559 34.5893L24.1637 34.5878ZM38.6347 3.48956C38.3802 4.90063 37.8045 6.2342 36.9519 7.387C36.0534 8.61217 35.0924 9.79514 34.1032 10.9484C32.7532 12.5221 32.6625 14.7771 33.9892 16.3664C34.1996 16.6067 34.4899 16.7627 34.8064 16.8055C36.4393 16.9399 38.0769 17.004 39.7114 17.1275C39.8819 17.151 40.0555 17.1223 40.2094 17.0454C40.3634 16.9684 40.4904 16.8466 40.5739 16.6961C42.1131 14.4318 42.6944 11.9923 41.9522 9.30601C41.3575 7.11593 40.2129 5.11426 38.6269 3.49112L38.6347 3.48956ZM54.9309 15.5241C53.5637 16.3773 52.3402 17.1212 51.1433 17.9057C50.9292 18.0753 50.7784 18.312 50.7151 18.5777C50.3088 20.1185 49.9239 21.6646 49.5604 23.2158C49.4957 23.4692 49.5121 23.7364 49.6072 23.98C50.0329 24.8561 50.7612 25.5485 51.6577 25.9294C52.5541 26.3103 53.558 26.3539 54.484 26.0522C54.7748 25.9315 55.0191 25.7206 55.1809 25.4505C55.9622 24.2003 56.6623 22.8908 57.4842 21.664C57.7889 21.2093 57.9218 20.8358 57.7343 20.3404C57.7002 20.2286 57.673 20.1149 57.653 19.9997C57.378 18.8214 57.1014 17.6447 56.7951 16.3351C56.6529 16.6477 56.5685 16.8165 56.4951 16.9931C56.0982 17.9448 55.7138 18.9058 55.3029 19.8497C55.256 19.9739 55.1843 20.0872 55.0921 20.1826C54.9998 20.2781 54.8891 20.3537 54.7666 20.4048C54.6442 20.4558 54.5125 20.4813 54.3798 20.4797C54.2471 20.478 54.1161 20.4492 53.995 20.3951C53.5168 20.1935 53.2902 19.6731 53.4543 19.1246C53.5122 18.9589 53.5785 18.7961 53.6528 18.637C54.0637 17.6494 54.4606 16.6664 54.9309 15.5241ZM46.5133 30.6669C48.3606 32.0527 49.8367 33.8736 50.8104 35.9676L53.9871 28.2884C51.7261 28.3853 49.9244 27.6149 48.4384 26.0131L46.5133 30.6669ZM17.0117 8.85594C17.0117 10.0421 16.9977 11.111 17.0243 12.1783C17.0544 12.3852 17.1529 12.5761 17.304 12.7206C18.1493 13.6098 19.2134 13.9707 20.3901 13.6895C21.5667 13.4082 22.3198 12.5612 22.6605 11.3876C22.7177 11.2263 22.7177 11.0503 22.6605 10.889C22.1511 9.90766 21.6167 8.93877 21.0651 7.91987C19.8947 8.84344 18.6024 9.08568 17.0117 8.85127V8.85594ZM39.6692 24.1535L34.1564 23.8222V28.5838L39.2708 27.8587C39.3973 26.6913 39.5317 25.4021 39.6708 24.1488L39.6692 24.1535ZM39.7395 19.1434L34.7393 18.8449C34.6158 19.8278 34.5002 20.7452 34.3643 21.8328L39.7395 22.1313V19.1434ZM20.0838 6.13682C19.39 4.84914 18.7102 3.57707 18.0118 2.31751C17.9661 2.25077 17.9066 2.19461 17.8373 2.15283C17.768 2.11104 17.6906 2.08459 17.6102 2.07528C17.5352 2.07528 17.3743 2.29407 17.3727 2.41597C17.3555 3.87555 17.3618 5.3367 17.3618 6.8541C18.3197 7.1057 19.2525 6.92912 20.0853 6.13213L20.0838 6.13682Z" fill="#92210F"/>
<path d="M30.8972 44.0659C32.2223 44.0972 33.7442 44.7816 34.9286 46.16C35.1615 46.4303 35.3303 46.46 35.66 46.3381C36.7864 45.9175 38.0273 45.9204 39.1518 46.3464C40.2763 46.7725 41.2077 47.5926 41.7727 48.6541C42.1227 49.3151 42.0243 49.8855 41.5055 50.1949C40.9867 50.5043 40.4118 50.2996 40.0164 49.6261C39.0664 48.004 37.235 47.543 35.6959 48.5322C34.8302 49.0916 34.3818 48.976 33.8567 48.0634C33.4181 47.2777 32.7268 46.6634 31.8952 46.32C31.0635 45.9767 30.1403 45.9244 29.2752 46.1718C28.4101 46.4191 27.654 46.9516 27.1295 47.6828C26.6051 48.4139 26.3431 49.3008 26.386 50.1996C26.428 50.6452 26.5208 51.0846 26.6626 51.5092C26.8657 52.2015 26.6938 52.7203 26.1485 52.9359C25.5766 53.1625 25.0547 52.8812 24.7828 52.1999C23.2436 48.3009 26.1735 44.0644 30.8972 44.0659Z" fill="#172F40"/>
<path d="M37.9877 32.9983C37.9877 33.5843 37.6189 33.95 36.9361 34.0063C35.3407 34.1375 34.1234 34.8689 33.3421 36.2831C33.1905 36.5982 33.061 36.9236 32.9546 37.2567C32.7343 37.838 32.2655 38.11 31.7232 37.9678C31.181 37.8255 30.9295 37.3302 31.0436 36.7176C31.5124 34.1891 34.3984 31.8934 36.9626 32.0106C37.5689 32.0388 37.9814 32.4373 37.9877 32.9983Z" fill="#172F40"/>
<path d="M14.0072 43.8374C14.0447 41.7542 15.6307 39.6805 17.6496 39.0757C18.1965 38.9101 18.7059 39.1289 18.9153 39.618C18.9716 39.7381 19.0022 39.8687 19.0051 40.0013C19.0081 40.134 18.9834 40.2658 18.9325 40.3883C18.8816 40.5109 18.8057 40.6214 18.7096 40.7129C18.6136 40.8044 18.4995 40.8749 18.3746 40.9197C16.9292 41.4995 16.1432 42.5403 15.9792 44.0874C15.9734 44.22 15.9404 44.35 15.8821 44.4693C15.8239 44.5885 15.7417 44.6945 15.6406 44.7806C15.5396 44.8667 15.4219 44.931 15.2949 44.9696C15.1679 45.0081 15.0344 45.0201 14.9025 45.0047C14.3369 44.9453 13.9947 44.5 14.0072 43.8374Z" fill="#172F40"/>
<path d="M40.9569 10.8625C40.9566 12.3735 40.496 13.8485 39.6365 15.0912C39.2084 15.7163 38.6677 15.8726 38.1521 15.5413C37.6364 15.21 37.5567 14.613 37.9661 14.0051C38.7865 12.7862 39.0599 11.4485 38.9037 10.0014C38.8177 9.22006 39.1005 8.76842 39.7021 8.68091C40.3272 8.58871 40.7756 8.99346 40.8803 9.75607C40.9241 10.1217 40.9382 10.4937 40.9569 10.8625Z" fill="#172F40"/>
</svg>
