<svg width="60" height="60" viewBox="0 0 60 60" fill="none" xmlns="http://www.w3.org/2000/svg">
<path d="M0.00156403 57.9999H3.02658V57.2936C3.02658 51.3561 3.02658 45.4186 3.02658 39.4811C3.02658 38.2811 3.31252 37.9936 4.50783 37.9936H13.5297C14.7141 37.9936 15.0063 38.2921 15.0063 39.4921V57.9686H17.0031V25.5984C17.0031 24.2765 17.2625 24.014 18.5656 24.014H27.4109C28.7578 24.014 28.9969 24.2562 28.9969 25.6296V57.9733H31.0015V35.5874C31.0015 34.2421 31.2547 33.9952 32.6219 33.9952H41.5281C42.6797 33.9952 43 34.3077 43 35.4499C43 42.7145 43 49.9786 43 57.2421V57.9686H44.9969V21.5624C44.9969 20.2796 45.2516 20.0249 46.5375 20.0249H55.5594C56.6813 20.0249 56.9765 20.3202 56.9765 21.4468V58.0093H60V59.9999H0L0.00156403 57.9999ZM54.936 57.9686V22.0624H47.025V57.9686H54.936ZM26.9484 57.9686V26.0562H19.0344V57.9686H26.9484ZM33.0422 57.9468H40.9516V36.0296H33.0422V57.9468ZM5.07343 40.0311V57.9499H12.9781V40.0296L5.07343 40.0311Z" fill="#92210F"/>
<path d="M51.6813 0C53.0188 0.332812 54.2266 0.892179 55.0344 2.06249C56.2406 3.81405 56.3797 5.66564 55.3094 7.51407C54.3063 9.24688 52.7359 10.1016 50.7297 9.96719C50.0328 9.92031 49.3406 9.64217 48.6719 9.39842C48.3594 9.28435 48.175 9.24219 47.9156 9.50469C45.7875 11.6547 43.6479 13.7948 41.4969 15.925C41.2453 16.1734 41.2203 16.3547 41.3875 16.6734C42.7313 19.2469 41.7485 22.2313 39.1516 23.5328C36.7485 24.7344 33.7281 23.6734 32.5047 21.1625C31.9697 20.1259 31.8577 18.9222 32.1922 17.8047C32.3156 17.3969 32.2547 17.1531 31.8938 16.8828C30.0657 15.5141 28.2656 14.1109 26.5344 12.7797C25.7531 13.1516 25.0407 13.5781 24.2782 13.8203C23.6806 14.011 23.0493 14.0728 22.4261 14.0017C21.8028 13.9306 21.2018 13.7282 20.6625 13.4078C20.35 13.2297 20.1703 13.2515 19.9188 13.5094C17.7885 15.6594 15.649 17.7995 13.5 19.9297C13.2453 20.1812 13.2313 20.3563 13.3938 20.6766C14.3172 22.4875 14.2219 24.2828 13.0375 25.9218C11.7875 27.6406 10.0281 28.3218 7.94377 27.875C5.91252 27.4375 4.59533 26.1047 4.15158 24.089C3.70315 22.0484 4.35626 20.2844 6.05157 19.0281C7.65938 17.8359 9.43125 17.6969 11.2359 18.589C11.6312 18.7844 11.8531 18.7828 12.1734 18.4547C14.2411 16.3537 16.3245 14.2703 18.4234 12.2047C18.7437 11.8922 18.7641 11.6734 18.5531 11.2672C17.5703 9.3922 17.9156 7.20468 19.3984 5.57811C20.7344 4.10936 22.9922 3.64064 24.9422 4.43283C25.8542 4.82226 26.6298 5.47405 27.1703 6.30539C27.7109 7.13672 27.9921 8.11002 27.9781 9.10156C27.9625 9.61874 27.7703 10.1281 27.7031 10.6469C27.6781 10.8406 27.7109 11.1406 27.8359 11.239C29.6609 12.6734 31.5063 14.0812 33.2938 15.4578C33.9985 15.0625 34.6219 14.6109 35.3172 14.3437C35.9546 14.0894 36.641 13.9814 37.3257 14.0276C38.0104 14.0739 38.676 14.2732 39.2735 14.6109C39.6297 14.8031 39.8328 14.7797 40.1203 14.4891C42.2172 12.3625 44.3391 10.2547 46.45 8.14529C46.6688 7.92654 46.8094 7.76873 46.6234 7.40779C44.9969 4.26873 46.711 0.75626 50.1719 0.0890731C50.2442 0.0669176 50.3138 0.037048 50.3797 0H51.6813ZM48.0094 5.04688C48.0108 5.43793 48.0895 5.82485 48.2409 6.18541C48.3923 6.54597 48.6134 6.87306 48.8916 7.1479C49.1698 7.42274 49.4995 7.6399 49.8619 7.78694C50.2242 7.93397 50.6121 8.00798 51.0031 8.00468C51.7928 7.99977 52.5489 7.68398 53.1074 7.1257C53.666 6.56742 53.9822 5.81157 53.9875 5.02186C53.9875 3.37811 52.5813 1.9828 50.9485 2.02186C50.1587 2.03666 49.4067 2.36283 48.8563 2.92938C48.3058 3.49593 48.0014 4.257 48.0094 5.04688ZM20.0234 8.99375C20.0163 9.78336 20.3213 10.5438 20.872 11.1098C21.4227 11.6757 22.1746 12.0012 22.9641 12.0156C23.7585 12.0224 24.5231 11.7134 25.0896 11.1565C25.6562 10.5996 25.9783 9.8405 25.9852 9.04609C25.992 8.25169 25.683 7.48711 25.1261 6.92054C24.5692 6.35398 23.81 6.03184 23.0156 6.02501C22.2264 6.02539 21.4692 6.33761 20.9091 6.89365C20.349 7.44969 20.0312 8.20452 20.025 8.99375H20.0234ZM39.9781 19.0375C39.9829 18.6474 39.9107 18.2601 39.7657 17.8979C39.6207 17.5357 39.4056 17.2056 39.133 16.9266C38.8603 16.6475 38.5353 16.4249 38.1765 16.2716C37.8178 16.1182 37.4323 16.0371 37.0422 16.0328C36.2532 16.0247 35.4933 16.3304 34.9296 16.8826C34.366 17.4348 34.0448 18.1883 34.0367 18.9773C34.0286 19.7664 34.3344 20.5263 34.8866 21.0899C35.4388 21.6535 36.1922 21.9747 36.9812 21.9828C37.372 21.9882 37.76 21.916 38.1228 21.7706C38.4855 21.6251 38.8158 21.4092 39.0946 21.1354C39.3734 20.8615 39.5952 20.5351 39.7471 20.175C39.899 19.8149 39.9781 19.4283 39.9797 19.0375H39.9781ZM11.9938 23.0203C11.9983 22.2321 11.6902 21.4742 11.137 20.9127C10.5837 20.3512 9.83044 20.032 9.04222 20.025C8.25195 20.0208 7.4924 20.3308 6.93067 20.8867C6.36894 21.4425 6.05102 22.1988 6.04688 22.989C6.04273 23.7793 6.35271 24.5388 6.90858 25.1006C7.46445 25.6623 8.22067 25.9802 9.01094 25.9844C9.40172 25.9864 9.78908 25.9113 10.1508 25.7633C10.5125 25.6153 10.8414 25.3974 11.1186 25.122C11.3959 24.8466 11.6161 24.5192 11.7665 24.1586C11.917 23.7979 11.9947 23.4111 11.9953 23.0203H11.9938Z" fill="#172F40"/>
</svg>
