<svg width="50" height="50" viewBox="0 0 50 50" fill="none" xmlns="http://www.w3.org/2000/svg">
<path d="M47.6421 48.157C47.495 48.8913 46.9768 49.3769 46.2581 49.4394C46.0315 49.459 45.8024 49.455 45.5745 49.455C32.9141 49.455 20.2536 49.4095 7.59313 49.4811C3.54397 49.5045 0.703063 46.8146 0.122379 43.7068C0.105453 43.6183 0.122386 43.5024 0 43.4685V41.2226C0.223941 40.9349 0.187473 40.5638 0.312463 40.2435C0.528592 39.6954 0.687432 39.1212 1.0598 38.646C1.11188 39.892 1.02465 41.1393 1.2564 42.3814C1.86703 45.6533 4.82772 48.1557 8.14387 48.1557L47.6421 48.157Z" fill="#D73724"/>
<path d="M49.9961 24.5251C49.6055 25.3505 48.9415 25.6187 48.0652 25.5667C47.3075 25.525 46.5458 25.5523 45.7855 25.5497C44.8155 25.0381 44.4835 24.4222 44.7855 23.628C45.0772 22.8572 45.3948 22.0956 45.7047 21.3313C45.8011 21.0943 45.9573 20.8873 46.2385 20.9134C47.077 20.9915 47.8322 20.722 48.5821 20.3926C49.0912 21.4915 49.4479 22.6541 50 23.7348L49.9961 24.5251Z" fill="#FBCB09"/>
<path d="M47.6421 48.157H8.14389C4.82774 48.157 1.86704 45.6546 1.25641 42.3827C1.02466 41.1407 1.11189 39.8934 1.05981 38.6474C2.38133 36.546 4.28613 35.4171 6.75729 35.2622C7.50202 35.2166 8.25066 35.244 8.99799 35.2362C9.15944 35.244 9.32088 35.2557 9.48363 35.2557H42.8729C43.1659 35.2557 43.4576 35.2414 43.7505 35.2349C44.4979 35.2349 45.2465 35.2427 45.9951 35.2505C46.9677 35.2609 47.6499 35.8793 47.6877 36.7725C47.7203 37.6839 47.1096 38.3492 46.1448 38.4442C45.9352 38.4651 45.7243 38.4755 45.5134 38.4898C42.485 38.4377 39.4553 38.4573 36.4256 38.4807H33.3008C32.8034 38.2919 32.31 38.5836 31.8139 38.4937C31.6355 38.4846 31.4572 38.4664 31.2788 38.4664H7.40176C7.20647 38.4664 7.01117 38.4664 6.81587 38.4781C4.55042 38.594 2.82139 40.8282 3.27188 43.0546C3.67159 45.0271 5.23136 46.2705 7.34057 46.2718C19.9359 46.2718 32.5313 46.2718 45.1267 46.2718C45.2881 46.2718 45.4496 46.247 45.6097 46.2327C45.7542 46.2457 45.8988 46.2626 46.0433 46.2679C47.1526 46.3069 47.7827 47.049 47.6421 48.157Z" fill="#EE5328"/>
<path d="M43.0539 24.2333L42.7766 24.2489C42.5657 24.2489 42.3547 24.2307 42.1438 24.2307H20.4007C19.5883 24.2307 18.7759 24.2385 17.9647 24.2424H14.6421H13.3062C12.1032 24.2424 10.8989 24.2216 9.69584 24.2333C7.62178 24.2515 5.89403 25.9962 5.86799 28.0768C5.84065 30.2823 7.60876 32.0348 9.88592 32.0361C20.7358 32.0361 31.5856 32.0361 42.4355 32.0361C42.5813 32.0361 42.7271 32.0231 42.8729 32.0153C43.0187 32.0074 43.1932 32.0335 43.3534 32.0361C44.395 32.0569 45.0459 32.76 44.9965 33.8016C33.4184 33.8016 21.8398 33.8016 10.2609 33.8016C9.85625 33.8119 9.45176 33.7761 9.05524 33.6948C6.17917 33.0256 4.31994 31.2861 3.49579 28.44C3.20024 27.4167 3.37731 26.3738 3.30701 25.3426C3.66245 24.1773 4.44624 23.3206 5.35502 22.5733C6.68955 21.477 8.25065 21.0109 9.96145 21.0005C10.1567 21.0005 10.352 21.0109 10.546 21.0109H37.2367C37.432 21.0109 37.6273 21.0018 37.8213 20.9966C39.5438 20.9966 41.2663 21.0096 42.9875 21.007C43.3772 20.9922 43.7666 21.0424 44.1398 21.1554C44.0018 21.5148 43.852 21.8702 43.727 22.2348C43.4966 22.9014 43.0643 23.4964 43.0539 24.2333Z" fill="#B7E446"/>
<path d="M7.71031 11.5481C5.65188 10.8437 3.59472 10.1354 1.53499 9.43757C1.03112 9.26701 0.493414 9.1264 0.505132 8.45457C0.518152 7.8127 1.04938 7.68771 1.53372 7.51975C8.53057 5.09807 15.527 2.67247 22.523 0.242976C23.3998 -0.0773742 24.361 -0.0810591 25.2402 0.23256C32.3282 2.69157 39.417 5.14798 46.5068 7.60178C47.2098 7.84525 47.3283 8.04445 47.258 8.80351C47.0447 9.10197 46.7331 9.31583 46.3779 9.40763C46.1735 9.47403 45.9326 9.48965 45.7907 9.69276C45.5667 9.61985 45.3779 9.74354 45.1839 9.80994C43.4705 10.3906 41.7597 10.9817 40.0476 11.5637C40.0476 11.3528 40.0307 11.1419 40.0372 10.9309C40.0815 9.43887 38.9514 8.1447 37.3642 7.91816C35.3527 7.63172 33.345 7.32706 31.3217 7.12135C29.4547 6.93256 27.5825 6.82319 25.7115 6.76721C23.0063 6.68996 20.2988 6.77692 17.6041 7.0276C16.72 7.10963 15.8308 7.1578 14.9506 7.26456C13.4637 7.44944 11.9847 7.70203 10.5031 7.92206C9.85206 8.01971 9.25707 8.22933 8.7532 8.68242C7.88999 9.4597 7.66865 10.4531 7.71031 11.5481Z" fill="#868491"/>
<path d="M7.71034 11.548C7.66868 10.4531 7.89002 9.46488 8.75193 8.68369C9.2558 8.2306 9.84949 8.02098 10.5018 7.92333C11.9834 7.70329 13.4625 7.45071 14.9493 7.26583C15.8295 7.15646 16.7188 7.11089 17.6028 7.02887C20.2975 6.77818 23.005 6.69123 25.7102 6.76847C27.5812 6.82446 29.4534 6.93382 31.3205 7.12261C33.3437 7.32832 35.3566 7.63299 37.363 7.91942C38.9501 8.14597 40.0802 9.44014 40.0359 10.9322C40.0359 11.1431 40.0424 11.3541 40.0463 11.565L38.2874 12.1873C38.26 11.7512 38.2613 11.3176 38.1923 10.8853C38.0895 10.2343 37.8734 9.91666 37.2341 9.77996C35.2447 9.35291 33.2227 9.12115 31.202 8.92716C28.947 8.68734 26.6798 8.58082 24.4122 8.60817C23.1779 8.63551 21.9384 8.55088 20.7067 8.63291C18.8722 8.7553 17.0338 8.84904 15.2058 9.0873C14.0861 9.23312 12.969 9.39196 11.8532 9.55211C11.4991 9.60289 11.4119 9.73439 11.4145 10.0729C11.4301 12.3488 11.4236 14.6298 11.4249 16.9005L9.58127 16.9239C9.57476 15.4996 9.55786 14.0765 9.57349 12.6521C9.57349 12.3188 9.48233 12.1626 9.16074 12.0688C8.66859 11.923 8.19338 11.7238 7.71034 11.548Z" fill="#77777F"/>
<path d="M3.30834 25.3467C3.37865 26.3778 3.20157 27.4207 3.49712 28.4441C4.32127 31.2902 6.1805 33.0297 9.05658 33.6989C9.4531 33.7802 9.85758 33.816 10.2622 33.8057C21.8412 33.8057 33.4197 33.8057 44.9978 33.8057C44.9249 34.5868 44.4288 34.9892 43.7505 35.2378C43.4576 35.2443 43.1659 35.2587 42.8729 35.2587H9.48363C9.32088 35.2587 9.15944 35.2469 8.99799 35.2391C6.97992 34.8967 5.26521 34.0192 4.05046 32.3279C2.59354 30.2968 2.31232 28.0743 3.08179 25.7086C3.12867 25.5719 3.15861 25.4196 3.30834 25.3467Z" fill="#ACD441"/>
<path d="M9.58257 16.9229L11.4262 16.8994L11.4171 16.945C11.4171 17.4332 11.4171 17.9202 11.4171 18.4071C11.4171 19.1206 11.5473 19.2508 12.2738 19.2508C18.0277 19.2508 23.7807 19.2508 29.5328 19.2508C32.4258 19.2508 35.3184 19.2473 38.2106 19.2404C38.2939 19.5086 38.1806 19.7755 38.2106 20.0437C38.2535 20.4343 38.1533 20.7676 37.8134 20.9994C37.6182 20.9994 37.4229 21.0137 37.2289 21.0137H10.5382C10.3442 21.0137 10.1476 21.0059 9.95365 21.0033C9.63466 20.7533 9.537 20.4304 9.54872 20.0268C9.58647 18.993 9.57606 17.9579 9.58257 16.9229Z" fill="#F8AB19"/>
<path d="M43.054 24.2331C43.0644 23.4962 43.4966 22.9012 43.7245 22.2371C43.8547 21.8726 43.9992 21.5171 44.1372 21.1578C44.3898 20.5602 44.6333 19.96 44.9002 19.3689C45.0304 19.0733 45.0681 18.8403 44.783 18.5981C44.5591 18.3825 44.3995 18.1089 44.3221 17.8078C43.9159 16.5839 44.4523 15.4955 45.7933 14.795C46.2191 14.7429 46.6448 14.6192 47.0719 14.7833C47.0627 14.92 46.9495 14.9682 46.8544 15.0242C46.2399 15.3861 45.904 15.946 45.753 16.6178C45.559 17.4901 45.8936 18.1997 46.4873 18.8207C46.9599 19.3155 47.4664 19.2921 48.0067 18.9509L48.5783 20.3961C47.8322 20.7216 47.0771 20.9911 46.2347 20.9169C45.9535 20.8909 45.7972 21.0979 45.7009 21.3349C45.391 22.0991 45.0733 22.8608 44.7817 23.6316C44.4809 24.4258 44.8116 25.0416 45.7816 25.5533C45.4118 25.5533 45.0421 25.5689 44.6723 25.5598C43.7193 25.539 43.2792 25.1731 43.054 24.2331Z" fill="#F8AB19"/>
<path d="M48.0067 18.9562C47.4664 19.2921 46.9651 19.3156 46.4872 18.826C45.8935 18.205 45.559 17.4954 45.7529 16.6231C45.904 15.9512 46.2399 15.3914 46.8544 15.0294C46.9495 14.9735 47.0627 14.9253 47.0718 14.7886H47.2646C48.3673 15.3094 48.9571 16.1374 48.8269 17.4056C48.7683 18.0396 48.3673 18.4849 48.0067 18.9562Z" fill="#FBCB09"/>
<path d="M47.2646 14.7888H47.0718C46.6448 14.6247 46.2191 14.7484 45.7946 14.7992V9.69931C45.9365 9.4962 46.1774 9.48058 46.3818 9.41418C46.737 9.32239 47.0486 9.10852 47.262 8.81006C47.262 10.8012 47.2628 12.7941 47.2646 14.7888Z" fill="#77777F"/>
<path d="M45.0161 40.0522C44.7355 41.5683 44.7355 43.123 45.0161 44.6391C32.4216 44.6391 19.827 44.6443 7.23252 44.6548C6.09068 44.6548 4.81214 43.5897 4.86292 42.4948C4.93062 41.0209 5.79776 40.0522 7.22733 40.0522H31.7892C31.7892 41.0118 31.8074 41.9701 31.8009 42.9283C31.8009 43.3189 31.9246 43.4491 32.2931 43.2642C32.6616 43.0794 33.0743 43.0299 33.4063 42.7942C33.9635 42.4896 34.4882 42.6445 35.0129 42.8932C35.2733 43.0234 35.5532 43.1093 35.8254 43.2161C36.4073 43.4426 36.4308 43.427 36.436 42.8255C36.4412 41.9019 36.4473 40.9788 36.4542 40.0562L45.0161 40.0522Z" fill="#F0F1F1"/>
<path d="M42.2805 25.8906C41.9954 27.3878 42.0397 28.8851 42.2805 30.3837C31.4967 30.3837 20.7123 30.3872 9.9276 30.3941C9.13339 30.3941 8.50192 30.1545 8.00327 29.5504C7.72505 29.2378 7.54741 28.8487 7.49353 28.4337C7.43966 28.0187 7.51202 27.5971 7.7012 27.2238C8.05534 26.453 8.65163 25.9023 9.57473 25.8945C10.8116 25.8814 12.0485 25.8945 13.2841 25.8945C13.2841 26.828 13.3023 27.7628 13.3036 28.6963C13.3036 29.0426 13.4208 29.1846 13.7724 29.0244C14.0627 28.8942 14.3595 28.7757 14.6538 28.6534C15.4102 28.2055 16.1315 28.393 16.8502 28.7601C17.0494 28.8643 17.2734 28.9216 17.4791 29.0205C17.8541 29.195 17.9712 29.0531 17.9686 28.6729C17.9621 27.7485 17.9686 26.8241 17.9803 25.901L42.2805 25.8906Z" fill="#F0F1F1"/>
<path d="M31.7892 40.0524H7.23377C5.80159 40.0524 4.93709 41.0211 4.86938 42.495C4.81861 43.5899 6.09715 44.6576 7.23898 44.655C19.8326 44.6315 32.4271 44.6263 45.0225 44.6393L45.6162 46.2277C45.4561 46.2421 45.2946 46.2668 45.1332 46.2668C32.5378 46.2668 19.9424 46.2668 7.34706 46.2668C5.23785 46.2668 3.67807 45.0221 3.27837 43.0496C2.82788 40.8232 4.55691 38.589 6.82236 38.4731C7.01765 38.464 7.21295 38.4614 7.40825 38.4614H31.2814C31.4598 38.4614 31.6381 38.4797 31.8165 38.4888L31.7892 40.0524Z" fill="#DEDEDD"/>
<path d="M13.2854 25.8905C12.0485 25.8905 10.8117 25.8814 9.57607 25.8905C8.65296 25.8983 8.05667 26.4491 7.70253 27.2199C7.51336 27.5931 7.44099 28.0147 7.49487 28.4297C7.54875 28.8447 7.72638 29.2339 8.0046 29.5465C8.50326 30.1506 9.13472 30.3915 9.92893 30.3902C20.7128 30.3754 31.4971 30.372 42.2819 30.3798L42.8743 32.0125C42.7284 32.0203 42.5826 32.0333 42.4368 32.0333C31.587 32.0333 20.7371 32.0333 9.88726 32.0333C7.6101 32.0333 5.84199 30.2795 5.86933 28.074C5.89537 25.9908 7.62312 24.2487 9.69718 24.2305C10.9002 24.2188 12.1045 24.2305 13.3076 24.2396L13.2854 25.8905Z" fill="#DDE0DF"/>
<path d="M42.2806 25.8907H17.9817C17.9764 25.3404 17.9717 24.7901 17.9673 24.2397C18.7785 24.2397 19.5909 24.228 20.4033 24.228H42.1464C42.3574 24.228 42.5683 24.2397 42.7792 24.2463L42.2806 25.8907Z" fill="#DEE1E1"/>
<path d="M45.016 40.0524H36.4477L36.4203 38.4809C39.4501 38.4575 42.4798 38.438 45.5082 38.49C45.4379 39.0408 45.1996 39.5368 45.016 40.0524Z" fill="#DDE0DF"/>
<path d="M36.4203 38.481L36.4477 40.0524C36.4407 40.976 36.4346 41.8991 36.4294 42.8218C36.4294 43.4272 36.4008 43.4428 35.8188 43.2124C35.5467 43.1056 35.2694 43.0145 35.0064 42.8895C34.4856 42.6408 33.957 42.4859 33.3997 42.7905C33.2396 42.6499 33.3008 42.4611 33.3008 42.2906C33.3008 41.0185 33.3008 39.7452 33.3008 38.4731L36.4203 38.481Z" fill="#FBCB09"/>
<path d="M33.2969 38.4771C33.2969 39.7491 33.2969 41.0225 33.2969 42.2945C33.2969 42.4651 33.2357 42.6539 33.3958 42.7945C33.0586 43.0301 32.6433 43.0835 32.2826 43.2645C31.922 43.4455 31.7879 43.3166 31.7905 42.9286C31.797 41.9703 31.784 41.0121 31.7787 40.0525L31.8061 38.4901C32.31 38.58 32.7995 38.2883 33.2969 38.4771Z" fill="#F8AB19"/>
<path d="M17.9674 24.2425C17.9674 24.7928 17.9721 25.3431 17.9817 25.8934C17.9817 26.8165 17.9635 27.7409 17.97 28.6653C17.97 29.0455 17.8554 29.1861 17.4804 29.013C17.2747 28.9179 17.0508 28.8606 16.8516 28.7526C16.1329 28.3802 15.4116 28.1979 14.6551 28.6458L14.6447 24.2412L17.9674 24.2425Z" fill="#EE5328"/>
<path d="M14.6447 24.245L14.6551 28.6496C14.3608 28.7719 14.064 28.8891 13.7736 29.0206C13.4221 29.1808 13.3049 29.0388 13.3049 28.6925C13.3049 27.759 13.2919 26.8242 13.2854 25.8907L13.3089 24.2437L14.6447 24.245Z" fill="#D73724"/>
<path d="M38.2887 12.1872C38.1585 12.3604 38.2145 12.5622 38.2132 12.751C38.1988 14.1415 38.191 15.532 38.1806 16.9173L37.902 16.9421C37.6911 16.9343 37.4802 16.9173 37.2692 16.9173H22.5894C19.3527 16.9173 16.1159 16.9173 12.8792 16.9173C12.3923 16.9173 11.904 16.9317 11.4171 16.9395L11.4262 16.8939C11.4262 14.618 11.4262 12.337 11.4158 10.0663C11.4158 9.72389 11.5004 9.59239 11.8545 9.54552C12.9703 9.38537 14.0874 9.22653 15.2071 9.08071C17.0299 8.84245 18.8735 8.7487 20.708 8.62632C21.9384 8.54429 23.1818 8.62632 24.4135 8.60158C26.681 8.57423 28.9483 8.68074 31.2033 8.92056C33.224 9.11456 35.246 9.34631 37.2354 9.77336C37.8747 9.91007 38.0908 10.2304 38.1936 10.8787C38.2626 11.3175 38.2613 11.7511 38.2887 12.1872Z" fill="#858390"/>
<path d="M11.4171 16.945C11.904 16.9372 12.3922 16.9229 12.8792 16.9229C16.1159 16.9229 19.3526 16.9229 22.5894 16.9229H37.2692C37.4801 16.9229 37.691 16.9398 37.902 16.9476C37.9827 17.0257 38.0829 17.0023 38.1793 17.0049C38.2652 17.7496 38.1975 18.4956 38.2158 19.2404C35.3228 19.2404 32.4302 19.2439 29.538 19.2508C23.785 19.2508 18.032 19.2508 12.2789 19.2508C11.5563 19.2508 11.4249 19.1206 11.4223 18.4071C11.421 17.9202 11.4184 17.4332 11.4171 16.945Z" fill="#FBCB09"/>
<path d="M38.1793 17.0049C38.083 17.0049 37.9827 17.0257 37.902 16.9476L38.1806 16.9229C38.1865 16.9358 38.1895 16.9498 38.1893 16.964C38.189 16.9782 38.1856 16.9922 38.1793 17.0049Z" fill="#F8AB19"/>
</svg>
