<svg width="60" height="60" viewBox="0 0 60 60" fill="none" xmlns="http://www.w3.org/2000/svg">
<path d="M38.3165 0C39.5915 0.292983 40.8467 0.619659 41.9153 1.35212C43.8972 2.71009 44.9856 4.47678 45.0731 6.70785C45.093 7.23522 45.0913 7.76259 45.0731 8.28996C45.0566 8.7851 44.761 9.09419 44.1928 9.1484C43.6247 9.2026 43.2184 8.91401 43.1507 8.37932C43.083 7.84462 43.1243 7.32751 43.0929 6.8016C42.9162 3.88789 40.5362 1.79599 37.243 1.76962C32.4225 1.73055 27.601 1.73055 22.7784 1.76962C19.4554 1.79306 16.9978 3.88642 16.9086 6.83236C16.8211 9.87499 16.8888 12.922 16.8888 15.9939L18.6362 16.5111V15.8606C18.6362 13.8303 18.6362 11.7999 18.6362 9.76805C18.6461 7.4403 20.2977 5.97392 22.9303 5.95049C23.5034 5.95049 24.0765 5.97246 24.648 5.95049C25.9776 5.85707 27.2956 6.2294 28.3194 6.98765C28.785 7.34503 29.3801 7.54173 29.9958 7.54173C30.6115 7.54173 31.2066 7.34503 31.6722 6.98765C32.6944 6.2261 34.0126 5.85056 35.3436 5.9417C35.9134 5.96953 36.4882 5.9417 37.0596 5.9417C39.6873 5.96514 41.3405 7.43005 41.3538 9.7578C41.3637 11.7691 41.3538 13.7805 41.3538 15.7918V16.492L43.1061 15.9983V15.3816C43.1061 14.4646 43.0929 13.5461 43.1061 12.629C43.121 11.9303 43.4992 11.5611 44.1301 11.5758C44.761 11.5904 45.0665 11.9435 45.0748 12.6232C45.0847 13.4816 45.0517 14.343 45.0946 15.2C45.1229 15.4556 45.2557 15.6932 45.4679 15.868C46.0509 16.3279 46.4836 16.8553 46.5414 17.5526C46.6187 18.2116 46.6292 18.8754 46.5728 19.5361C46.4076 20.8941 45.3143 21.7569 43.661 21.8404C43.1655 21.8653 43.0004 22.0147 42.9013 22.4264C42.348 24.6164 41.1919 26.5501 39.6064 28.286C39.4709 28.4325 39.3372 28.5864 39.2761 28.6611C40.3149 29.247 41.4066 29.7305 42.3199 30.4058C43.969 31.6143 45.033 33.3376 45.2928 35.221C45.3556 35.6311 45.562 35.7674 45.9633 35.8728C48.3862 36.5086 50.8008 37.1678 53.2303 37.8124C55.351 38.3778 56.6161 39.6128 56.9926 41.5567C57.9836 46.6693 58.9707 51.7823 59.9539 56.8958C60.2066 58.2143 59.4023 59.3789 57.972 59.8535C57.8515 59.8945 57.7358 59.9487 57.6186 60H2.37796C2.24088 59.9443 2.10545 59.8843 1.96507 59.8359C0.605811 59.373 -0.181996 58.2377 0.0360132 56.9574C0.329996 55.302 0.637191 53.6467 1.01045 52.0045C1.0604 51.8239 1.15172 51.6544 1.27873 51.5064C1.40574 51.3585 1.56572 51.2353 1.74871 51.1446C2.44403 50.8677 3.06998 51.4566 2.93455 52.2316C2.66204 53.7932 2.35484 55.3489 2.0526 56.9061C1.87258 57.8334 2.23262 58.245 3.28468 58.245C21.0965 58.245 38.9089 58.245 56.7218 58.245C57.7375 58.245 58.1141 57.8261 57.9456 56.9471C56.9888 51.9869 56.0358 47.0262 55.0867 42.065C54.8324 40.7159 54.0363 39.8457 52.5201 39.4648C50.3731 38.9169 48.226 38.3178 46.0789 37.7421C45.8923 37.6923 45.7024 37.6586 45.4282 37.5956C45.4282 39.0971 45.4183 40.5532 45.448 42.0108C45.448 42.1236 45.709 42.2833 45.8824 42.3361C49.1377 43.3102 50.4837 46.3865 48.7909 49.0131C47.7404 50.6407 45.4547 51.5255 43.3406 51.1168C41.1655 50.6949 39.5271 49.0805 39.3421 47.1761C39.1192 44.8923 40.4982 43.0392 42.9657 42.3419C43.334 42.2394 43.4447 42.1002 43.4414 41.7735C43.4232 40.3277 43.4414 38.8832 43.4166 37.4388C43.4048 37.3366 43.3657 37.2384 43.3025 37.1523C43.2393 37.0662 43.1538 36.9947 43.0532 36.9437C42.0788 36.6507 41.0845 36.4061 40.0176 36.1233C39.7402 36.6903 39.4511 37.2308 39.205 37.7875C36.5163 43.9079 33.8308 50.0303 31.1486 56.1546C30.9256 56.66 30.7803 57.265 29.9925 57.2738C29.1667 57.2826 29.023 56.6527 28.7918 56.1297C25.9808 49.7251 23.1626 43.3205 20.3373 36.9159C20.2267 36.6654 20.083 36.4266 19.931 36.1409C18.8724 36.4207 17.8434 36.6844 16.8227 36.9745C16.7005 37.0096 16.608 37.1781 16.5436 37.3026C16.5023 37.3832 16.5436 37.4945 16.5337 37.5956C16.4032 38.6284 16.4858 39.3711 17.9392 39.793C19.5908 40.2735 20.4282 41.6241 20.5818 43.1623C20.8691 45.9222 21.097 48.6879 21.3118 51.4537C21.4158 52.7838 20.4562 53.7507 18.9648 53.8796C18.504 53.9177 18.0401 53.9177 17.5792 53.8796C16.945 53.8283 16.5882 53.4577 16.6262 52.9523C16.6576 52.4821 17.0374 52.1803 17.6436 52.1451H17.7096C19.3612 52.0807 19.3893 52.0777 19.2704 50.6187C19.0744 48.2045 18.858 45.7918 18.6213 43.3805C18.4908 42.0108 17.3149 41.0762 15.6947 41.0074C14.0745 40.9385 12.7598 41.7706 12.5567 43.1374C12.3007 44.8953 12.1884 46.6722 12.0199 48.4418C11.9274 49.4145 11.8366 50.3872 11.7623 51.3614C11.716 51.9781 11.8861 52.129 12.5765 52.1437C12.9068 52.151 13.2371 52.1437 13.5675 52.1568C13.8035 52.1567 14.0305 52.2376 14.2008 52.3826C14.371 52.5276 14.4714 52.7255 14.4808 52.9347C14.532 53.3947 14.2644 53.7565 13.7392 53.8371C11.4088 54.196 9.55246 53.3844 9.78698 51.0684C10.0562 48.4052 10.2412 45.7347 10.5467 43.0758C10.7614 41.2169 12.0183 40.0288 13.987 39.4546C14.4345 39.3242 14.5881 39.1689 14.5485 38.7719C14.5122 38.4072 14.5485 38.0395 14.5485 37.5839C13.7673 37.7904 13.0621 37.9765 12.3535 38.1698C10.7119 38.6093 9.07845 39.0693 7.42851 39.4883C5.97842 39.853 5.16254 40.6836 4.91645 41.9874C4.55971 43.8732 4.19801 45.7576 3.83136 47.6405C3.80458 47.7945 3.76595 47.9468 3.71575 48.0961C3.55059 48.5488 3.18063 48.7802 2.66369 48.7143C2.11701 48.6454 1.77348 48.3217 1.83789 47.8178C1.94029 47.0062 2.10215 46.1976 2.25575 45.3904C2.50348 44.0822 2.75122 42.7755 3.02539 41.4703C3.40525 39.6289 4.62412 38.4233 6.6308 37.871C9.08341 37.1795 11.5608 36.5262 14.0183 35.8802C14.4147 35.7762 14.6179 35.6429 14.6955 35.2341C15.2669 32.2516 17.1365 30.1611 20.2845 28.9819C20.4067 28.9365 20.5289 28.8925 20.6478 28.8354C20.6842 28.8193 20.7139 28.787 20.6858 28.8076C19.9211 27.7308 19.0656 26.7054 18.4314 25.5847C17.8467 24.549 17.4768 23.4152 17.0556 22.3121C16.9417 22.0191 16.8475 21.8727 16.4544 21.8463C14.3619 21.713 13.366 20.7227 13.3561 18.8344C13.3561 17.9115 13.2421 16.8934 14.1191 16.2679C14.9317 15.6819 14.9135 15.0227 14.9069 14.261C14.8887 11.9171 14.8953 9.57322 14.9069 7.22936C14.9119 3.46159 17.3413 0.846721 21.5083 0.0893598C21.5689 0.0686044 21.6249 0.0383352 21.6735 0L38.3165 0ZM41.0746 18.8696C39.6411 18.6762 39.3669 18.3905 39.3669 17.0751C39.3669 14.595 39.3669 12.1148 39.3669 9.63475C39.3669 8.6679 38.7657 7.82118 37.826 7.78017C36.0208 7.70106 34.2073 7.39343 32.5227 8.54925C30.9587 9.6201 29.0891 9.56297 27.459 8.55803C26.4185 7.91494 25.3796 7.59705 24.1409 7.69959C23.7924 7.72889 23.4373 7.69959 23.0839 7.69959C21.3646 7.69959 20.6247 8.35441 20.623 9.8662C20.623 12.2687 20.623 14.6711 20.623 17.0736C20.623 18.392 20.3373 18.685 18.7402 18.8813C18.8625 20.0664 18.836 21.2925 19.1399 22.4498C19.6899 24.5403 20.9418 26.3421 22.6297 27.8788C25.0807 30.1113 28.0188 31.2159 31.5681 30.7061C34.2618 30.3194 36.3577 29.0273 38.0605 27.1903C40.2802 24.7673 41.5652 22.0689 41.0746 18.8696ZM36.5163 35.259C35.3816 34.1208 35.5022 32.7614 35.4526 31.4019C31.7762 32.987 28.1757 32.9708 24.4861 31.3887C24.5588 32.82 24.534 34.1457 23.4951 35.2708C25.6158 36.6786 27.672 38.0541 29.7415 39.4004C29.8204 39.4372 29.9083 39.4564 29.9974 39.4564C30.0866 39.4564 30.1745 39.4372 30.2534 39.4004C32.3179 38.0497 34.3742 36.68 36.5163 35.259ZM44.3563 49.4687C44.9769 49.4786 45.5867 49.3245 46.1082 49.0261C46.6297 48.7277 47.0394 48.2984 47.2851 47.7929C47.5307 47.2874 47.6013 46.7285 47.4878 46.1873C47.3744 45.6461 47.0819 45.1471 46.6478 44.7537C46.2136 44.3603 45.6574 44.0904 45.0498 43.9783C44.4421 43.8661 43.8106 43.9168 43.2356 44.1239C42.6606 44.331 42.168 44.6852 41.8205 45.1413C41.4731 45.5974 41.2865 46.1349 41.2844 46.6854C41.2859 47.4125 41.6082 48.1102 42.1823 48.6293C42.7564 49.1484 43.5367 49.4476 44.3563 49.4629V49.4687ZM29.9925 53.9089C30.412 52.9333 30.7076 52.1012 31.1189 51.3189C31.6202 50.4286 31.7377 49.4065 31.4492 48.4448C31.1618 47.4501 31.0033 46.4276 30.7886 45.3904C30.4833 45.4061 30.1772 45.4061 29.8719 45.3904C29.35 45.3318 29.1238 45.5032 29.0676 45.9764C28.9999 46.5623 28.8331 47.1278 28.7208 47.7035C28.5754 48.4521 28.1791 49.2563 28.3607 49.939C28.701 51.2442 29.3798 52.4821 29.9925 53.9089ZM43.2052 35.1257C42.9409 32.7936 40.31 30.5772 37.5435 30.2915C37.5435 31.2994 37.5221 32.3058 37.5601 33.3122C37.5986 33.5643 37.7191 33.801 37.9069 33.9934C38.0499 34.1176 38.2375 34.1933 38.4371 34.2072C39.1208 34.2907 39.8244 34.2878 40.4949 34.4211C41.395 34.6086 42.2671 34.8826 43.2085 35.1301L43.2052 35.1257ZM22.4613 30.2886C19.5958 30.6724 16.9004 32.9752 16.8095 35.1228C17.8467 34.8489 18.8674 34.5661 19.8996 34.3156C20.2732 34.2103 20.6639 34.1608 21.0558 34.1691C21.9839 34.2277 22.3523 34.0725 22.4348 33.2375C22.5339 32.2779 22.4613 31.3038 22.4613 30.2886ZM24.7091 41.7149L28.0122 40.4654L22.6677 36.9261L22.5637 37.0008C23.2689 38.5492 23.9725 40.0947 24.7091 41.7179V41.7149ZM31.9661 40.4697L35.2792 41.7105C36.0158 40.0903 36.7194 38.5449 37.4263 36.9994L37.3222 36.9261L31.9661 40.4697ZM27.7909 42.4869C28.6365 44.2346 31.6457 43.9973 32.1693 42.4767C29.9991 41.5406 29.9991 41.5406 27.7909 42.4899V42.4869ZM15.3413 17.6288C15.3413 18.1899 15.3231 18.6542 15.3413 19.1142C15.3776 19.9067 15.8995 20.2173 16.8277 20.0049V17.828L15.3413 17.6288ZM43.1424 20.0356C44.0013 20.1484 44.4753 19.9961 44.5611 19.4717C44.6569 18.8857 44.5826 18.2895 44.5826 17.6361L43.1424 17.8309V20.0356ZM26.8214 46.536L26.942 46.5242C27.0395 46.0481 27.1518 45.5721 27.2244 45.093C27.2565 44.9275 27.2214 44.7573 27.1253 44.6125C26.7669 44.195 26.3755 43.801 25.9692 43.4157C25.89 43.3395 25.7165 43.3395 25.5877 43.3044C25.5695 43.4098 25.5018 43.5314 25.5382 43.6179C25.961 44.5935 26.3937 45.5589 26.8214 46.536ZM33.0975 46.6825C33.5929 45.5691 34.0207 44.5993 34.4336 43.6237C34.4716 43.5314 34.3775 43.3952 34.3461 43.2795C34.2127 43.3165 34.0868 43.3719 33.9728 43.4435C32.6086 44.6404 32.6037 44.6682 33.0116 46.3382C33.0314 46.3983 33.0413 46.4554 33.0991 46.6869L33.0975 46.6825Z" fill="#92210F"/>
</svg>
