<svg width="50" height="50" viewBox="0 0 50 50" fill="none" xmlns="http://www.w3.org/2000/svg">
<path d="M25 0L12.931 4.31034L18.9655 6.46552H31.0345L34.4828 5.23362V3.38707L25 0Z" fill="#A3A2A2"/>
<path d="M31.0759 8.62061H49.1379C49.3666 8.62061 49.5858 8.71143 49.7475 8.8731C49.9092 9.03477 50 9.25404 50 9.48267V38.793C50 39.0217 49.9092 39.2409 49.7475 39.4026C49.5858 39.5643 49.3666 39.6551 49.1379 39.6551H0.862069C0.633434 39.6551 0.414163 39.5643 0.252494 39.4026C0.0908248 39.2409 0 39.0217 0 38.793V9.48267C0 9.25404 0.0908248 9.03477 0.252494 8.8731C0.414163 8.71143 0.633434 8.62061 0.862069 8.62061H18.9095" fill="#0D6BA0"/>
<path d="M46.5518 12.0688H3.4483V36.2068H46.5518V12.0688Z" fill="#56CBF4"/>
<path d="M40.4914 12.0688C40.2431 17.4115 37.9456 22.453 34.0764 26.1456C30.2072 29.8381 25.064 31.8978 19.7155 31.8964H3.4483V12.0688H40.4914Z" fill="#71E1FF"/>
<path d="M16.3793 46.5518C17.1999 45.6255 17.7851 44.515 18.0852 43.3145C18.3854 42.114 18.3916 40.8588 18.1035 39.6553H31.8966C31.8366 39.9399 31.7935 40.2277 31.7673 40.5173C31.6392 42.6863 32.2972 44.8287 33.6207 46.5518H16.3793Z" fill="#0D6BA0"/>
<path d="M14.6552 46.5518H35.3448C35.8021 46.5518 36.2406 46.7334 36.564 47.0567C36.8873 47.3801 37.069 47.8186 37.069 48.2759V50H12.931V48.2759C12.931 47.8186 13.1127 47.3801 13.436 47.0567C13.7594 46.7334 14.1979 46.5518 14.6552 46.5518Z" fill="#005C84"/>
<path d="M28.4482 39.6553C28.4508 39.9464 28.4131 40.2365 28.3361 40.5173C28.1433 41.2553 27.7112 41.9084 27.1075 42.3746C26.5038 42.8408 25.7626 43.0937 24.9999 43.0937C24.2372 43.0937 23.496 42.8408 22.8923 42.3746C22.2887 41.9084 21.8566 41.2553 21.6637 40.5173C21.5867 40.2365 21.549 39.9464 21.5516 39.6553H28.4482Z" fill="#F2F2F2"/>
<path d="M30.1724 7.75879C31.2437 8.56118 32.1132 9.60229 32.7117 10.7995C33.3103 11.9966 33.6215 13.3169 33.6207 14.6553V23.276C34.0779 23.276 34.5165 23.4577 34.8398 23.781C35.1632 24.1044 35.3448 24.5429 35.3448 25.0002C35.3448 25.4574 35.1632 25.896 34.8398 26.2193C34.5165 26.5427 34.0779 26.7243 33.6207 26.7243H16.3793C15.922 26.7243 15.4835 26.5427 15.1601 26.2193C14.8368 25.896 14.6552 25.4574 14.6552 25.0002C14.6552 24.5429 14.8368 24.1044 15.1601 23.781C15.4835 23.4577 15.922 23.276 16.3793 23.276V14.6553C16.3783 13.3168 16.6894 11.9966 17.288 10.7994C17.8866 9.60218 18.7562 8.56108 19.8276 7.75879" fill="#A67C52"/>
<path d="M32.7586 26.7241H34.4828C35.1687 26.7241 35.8265 26.9966 36.3115 27.4816C36.7965 27.9666 37.069 28.6244 37.069 29.3103V36.2069H12.931V29.3103C12.931 28.6244 13.2035 27.9666 13.6885 27.4816C14.1735 26.9966 14.8313 26.7241 15.5172 26.7241H17.2414L25 33.6207L32.7586 26.7241Z" fill="#B3B3B3"/>
<path d="M18.9655 31.0347H17.2414V36.2071H18.9655V31.0347Z" fill="#999999"/>
<path d="M32.7586 31.0347H31.0345V36.2071H32.7586V31.0347Z" fill="#999999"/>
<path d="M31.0345 8.62068C27.0936 7.47154 22.9064 7.47154 18.9655 8.62068V5.1724C22.9064 4.02326 27.0936 4.02326 31.0345 5.1724V8.62068Z" fill="#B3B3B3"/>
<path d="M21.5517 39.6553C21.5491 39.9464 21.5868 40.2365 21.6638 40.5173H18.2586C18.2229 40.2273 18.1711 39.9395 18.1035 39.6553H21.5517ZM31.8966 39.6553C31.8366 39.9399 31.7934 40.2277 31.7672 40.5173H28.3362C28.4132 40.2365 28.4509 39.9464 28.4483 39.6553H31.8966Z" fill="#005C84"/>
<path d="M27.5862 22.4136V26.7239C27.423 27.2835 27.0827 27.775 26.6164 28.1248C26.1501 28.4745 25.5829 28.6636 25 28.6636C24.4171 28.6636 23.85 28.4745 23.3836 28.1248C22.9173 27.775 22.577 27.2835 22.4138 26.7239V22.4136H27.5862Z" fill="#F9AF8A"/>
<path d="M27.5862 22.4136V23.4394C26.8011 23.8967 25.9087 24.1377 25 24.1377C24.0914 24.1377 23.199 23.8967 22.4138 23.4394V22.4136H27.5862Z" fill="#EA9E7D"/>
<path d="M20.6896 12.9312H22.5621C23.3351 12.9312 24.1005 12.779 24.8146 12.4832C25.5288 12.1873 26.1776 11.7537 26.7241 11.207C27.516 12.4642 28.7438 13.3851 30.1724 13.7932V18.1036C30.1724 19.4754 29.6275 20.791 28.6574 21.761C27.6874 22.731 26.3718 23.276 25 23.276C23.6282 23.276 22.3126 22.731 21.3425 21.761C20.3725 20.791 19.8276 19.4754 19.8276 18.1036V13.7932C19.8276 13.5646 19.9184 13.3453 20.0801 13.1837C20.2417 13.022 20.461 12.9312 20.6896 12.9312Z" fill="#F9AF8A"/>
<path d="M32.7586 26.7241L25 33.6207L17.2414 26.7241H22.4138C22.577 27.2837 22.9173 27.7752 23.3836 28.125C23.85 28.4747 24.4171 28.6638 25 28.6638C25.5829 28.6638 26.1501 28.4747 26.6164 28.125C27.0827 27.7752 27.423 27.2837 27.5862 26.7241H32.7586Z" fill="#C1272D"/>
<path d="M37.069 4.3102L36.2069 4.00244V4.61796L37.069 4.3102Z" fill="#A3A2A2"/>
<path d="M34.4828 5.23368V7.75868C34.4828 7.98732 34.5736 8.20659 34.7353 8.36826C34.897 8.52992 35.1162 8.62075 35.3449 8.62075C35.5735 8.62075 35.7928 8.52992 35.9544 8.36826C36.1161 8.20659 36.2069 7.98732 36.2069 7.75868V4.61816L34.4828 5.23368Z" fill="#999999"/>
<path d="M36.2069 4.00272L34.4828 3.38721V5.23376L36.2069 4.61824V4.00272Z" fill="#999999"/>
</svg>
