<svg width="60" height="60" viewBox="0 0 60 60" fill="none" xmlns="http://www.w3.org/2000/svg">
<path d="M0 57.5446V24.7325C0.198435 24.4966 0.382807 24.245 0.599992 24.0278C2.40309 22.2153 4.21869 20.4169 6.01555 18.5873C6.19304 18.3964 6.40989 18.2464 6.65108 18.1477C6.89227 18.0489 7.15204 18.0038 7.4124 18.0154C11.2389 18.0341 15.0686 18.0248 18.8904 18.0248H19.5904C19.4654 17.7623 19.381 17.5732 19.2888 17.3873C16.1889 11.2186 18.8966 3.70777 25.2497 1.00937C26.3809 0.529684 27.6325 0.329683 28.8277 0H31.1715C31.2972 0.045205 31.4262 0.0807237 31.5574 0.106247C38.5792 0.968736 43.3807 7.95303 41.637 14.8186C41.362 15.8998 40.8995 16.9326 40.5104 18.0248H41.1182C46.2536 18.0248 51.3894 18.0248 56.5258 18.0248C56.9347 18.0119 57.3437 18.0465 57.7446 18.1279C58.9945 18.4294 59.6336 19.3435 59.9992 20.5029V57.5336C59.9535 57.6152 59.9133 57.6998 59.8789 57.7868C59.432 59.1758 58.3602 59.9898 56.9102 59.9914C49.2947 59.9977 41.6791 59.9925 34.0636 59.9758C33.5007 59.9619 32.9496 59.8118 32.4574 59.5383C31.3371 58.9133 30.9902 57.8618 30.9918 56.618C31.0043 46.4098 31.0043 36.1974 30.9918 25.9809C30.9918 25.2528 30.8355 24.4747 31.6324 23.9841H28.9965V56.3274C28.9965 56.6196 28.9965 56.9133 28.9777 57.2055C28.8559 58.7852 27.6325 59.9867 26.0497 59.9898C18.356 60.0034 10.6629 60.0034 2.97027 59.9898C2.35049 59.9862 1.74738 59.7887 1.24553 59.425C0.743673 59.0613 0.368239 58.5496 0.171873 57.9617C0.121873 57.8227 0.0578117 57.6852 0 57.5446ZM33.0324 26.0215C33.0214 26.2637 33.0058 26.4356 33.0058 26.609C33.0058 36.6277 33.0058 46.6463 33.0058 56.6649C33.0058 57.7086 33.3183 58.0086 34.3792 58.0086H56.5868C57.6805 58.0086 57.993 57.6961 57.993 56.6258V21.4138C57.993 20.3357 57.6805 20.031 56.5868 20.031H39.062C39.0383 20.0933 39.0205 20.1576 39.0089 20.2232C39.0089 21.4138 39.0089 22.606 38.9979 23.7966C38.987 25.2028 38.1808 26.0153 36.7792 26.02C35.5573 26.0247 34.3292 26.0215 33.0324 26.0215ZM2.00466 26.0215V26.5559C2.00466 36.6152 2.00466 46.6734 2.00466 56.7305C2.00466 57.6586 2.35622 58.0133 3.27496 58.0149H25.7169C26.6543 58.0149 26.9918 57.6805 26.9918 56.7461C26.9918 45.8681 26.996 34.9902 27.0043 24.1122C27.0043 23.7184 26.8481 23.5731 26.5075 23.4716C24.5726 22.8885 22.8174 21.8241 21.406 20.3779C21.1865 20.1757 20.9025 20.0578 20.6044 20.0451C16.6013 20.0247 12.5967 20.0294 8.59364 20.0326C8.4077 20.0326 8.22333 20.0544 8.05927 20.0654C8.03818 20.1217 8.02197 20.1797 8.01083 20.2388C8.01083 21.431 8.01083 22.6216 7.9999 23.8138C7.98896 25.2387 7.20616 26.0169 5.78117 26.0215C4.55307 26.0247 3.32339 26.0215 2.00466 26.0215ZM39.9823 12.0389C39.9817 10.0647 39.3957 8.13492 38.2984 6.49368C37.2011 4.85245 35.6418 3.57342 33.8176 2.81834C31.9935 2.06325 29.9864 1.86601 28.0502 2.25155C26.1139 2.63708 24.3355 3.58809 22.9397 4.98431C21.5439 6.38054 20.5934 8.15929 20.2085 10.0957C19.8236 12.032 20.0215 14.039 20.7771 15.863C21.5328 17.6869 22.8123 19.2458 24.4539 20.3426C26.0954 21.4393 28.0254 22.0247 29.9996 22.0247C32.6463 22.0202 35.1833 20.9665 37.0545 19.0947C38.9257 17.2229 39.9786 14.6856 39.9823 12.0389ZM36.987 21.9028L36.8308 21.7607L34.3933 23.9778H36.9855L36.987 21.9028ZM5.96711 21.6747L3.63902 23.9934H5.96711V21.6747Z" fill="#92210F"/>
<path d="M46.2572 31.3449C44.1588 28.7872 44.9572 25.8263 46.5994 24.3263C47.4977 23.4986 48.6674 23.0277 49.8886 23.0021C51.1098 22.9765 52.2983 23.3979 53.2305 24.1872C54.8618 25.5575 55.957 28.5403 53.6993 31.3965C55.7961 32.5184 56.2352 34.3824 55.9149 36.5308C55.8174 37.2162 55.4766 37.8436 54.9548 38.2986C54.433 38.7536 53.765 39.0057 53.0727 39.0089C51.0248 39.0433 48.9759 39.0433 46.9259 39.0089C46.1944 39.0065 45.4904 38.7302 44.9525 38.2345C44.4146 37.7388 44.0818 37.0596 44.0197 36.3308C43.8635 34.8386 43.9681 33.3871 45.1259 32.2481C45.4681 31.9262 45.8556 31.6653 46.2572 31.3449ZM49.9524 37.0246C50.9274 37.0246 51.9009 37.0339 52.8743 37.0246C53.4993 37.0167 53.9118 36.723 53.9555 36.1746C54.0104 35.5952 53.9852 35.0111 53.8805 34.4386C53.7897 34.0533 53.5747 33.7084 53.2686 33.4571C52.9626 33.2059 52.5825 33.0621 52.1868 33.048C50.7285 33.0189 49.2702 33.0189 47.8118 33.048C47.3792 33.0692 46.9672 33.2395 46.6459 33.5301C46.3246 33.8206 46.1138 34.2134 46.0494 34.6418C45.9993 35.0276 45.982 35.417 45.9978 35.8058C46.0103 36.6589 46.3665 37.0152 47.2103 37.0214C48.1243 37.0245 49.0384 37.0246 49.9524 37.0246ZM52.9774 28.02C52.9774 27.2264 52.6622 26.4654 52.101 25.9042C51.5399 25.3431 50.7788 25.0278 49.9853 25.0278C49.1917 25.0278 48.4306 25.3431 47.8695 25.9042C47.3083 26.4654 46.9931 27.2264 46.9931 28.02C46.9931 28.8135 47.3083 29.5746 47.8695 30.1357C48.4306 30.6969 49.1917 31.0121 49.9853 31.0121C50.7788 31.0121 51.5399 30.6969 52.101 30.1357C52.6622 29.5746 52.9774 28.8135 52.9774 28.02Z" fill="#92210F"/>
<path d="M45.49 41.0169H54.5696C54.7452 41.0095 54.921 41.0132 55.0961 41.0278C55.3374 41.0523 55.5613 41.1645 55.7254 41.3431C55.8895 41.5217 55.9823 41.7543 55.9864 41.9968C55.9904 42.2393 55.9054 42.4748 55.7473 42.6588C55.5893 42.8428 55.3693 42.9624 55.1289 42.9949C54.9546 43.014 54.7791 43.0197 54.604 43.0121H36.387C36.2307 43.0177 36.0742 43.0146 35.9183 43.0028C35.6675 42.9828 35.4338 42.8683 35.2642 42.6825C35.0947 42.4967 35.002 42.2535 35.005 42.002C35.008 41.7505 35.1064 41.5095 35.2803 41.3278C35.4542 41.146 35.6906 41.0371 35.9417 41.0231C36.1167 41.0075 36.2933 41.0231 36.4683 41.0231L45.49 41.0169Z" fill="#92210F"/>
<path d="M45.4682 51.0041C42.4229 51.0041 39.3745 51.0041 36.3308 51.0041C36.0308 51.0041 35.6386 50.99 35.4527 50.8103C35.3281 50.6881 35.2292 50.5423 35.1618 50.3812C35.0944 50.2202 35.06 50.0474 35.0605 49.8728C35.0902 49.5963 35.4042 49.2994 35.6683 49.1166C35.848 48.9901 36.1542 49.0229 36.4058 49.0229C42.4578 49.0229 48.5098 49.0229 54.5618 49.0229C54.679 49.0229 54.7962 49.0229 54.9118 49.0229C55.5493 49.0572 55.9899 49.4744 55.9852 50.0322C55.9805 50.59 55.5462 51.0103 54.8915 51.0135C52.7243 51.0244 50.5572 51.0135 48.39 51.0135L45.4682 51.0041Z" fill="#92210F"/>
<path d="M45.4916 54.9932C42.3864 54.9932 39.2823 54.9932 36.1792 54.9932C35.4871 54.9932 35.1011 54.7026 35.0261 54.1635C34.9767 53.9208 35.0254 53.6683 35.1615 53.4613C35.2976 53.2543 35.5102 53.1096 35.7527 53.0589C36.0009 53.0087 36.2543 52.9883 36.5074 52.9979C42.5 52.9979 48.4931 52.9979 54.4868 52.9979C54.72 52.9894 54.9535 53.0046 55.1837 53.0432C55.4162 53.0876 55.625 53.2138 55.7724 53.399C55.9198 53.5842 55.9958 53.8161 55.9868 54.0526C55.9788 54.3009 55.8758 54.5366 55.699 54.711C55.5222 54.8855 55.2851 54.9854 55.0368 54.9901C54.3743 55.0166 53.7103 55.001 53.0462 55.0026L45.4916 54.9932Z" fill="#92210F"/>
<path d="M40.4682 47.0074C39.0448 47.0074 37.6214 47.0074 36.1964 47.0074C35.4448 47.0074 35.0214 46.634 35.023 46.009C35.0245 45.384 35.4526 45.0152 36.2058 45.0137C39.0734 45.0137 41.9406 45.0137 44.8072 45.0137C45.5494 45.0137 45.9869 45.3996 45.9837 46.0168C45.9806 46.634 45.5478 47.0043 44.7994 47.0074C43.3478 47.0105 41.9041 47.0074 40.4682 47.0074Z" fill="#92210F"/>
<path d="M38.437 39.0197C37.6761 39.0197 36.9136 39.0197 36.1526 39.0197C35.4464 39.0088 35.0214 38.6322 35.0136 38.0322C35.0058 37.4322 35.4183 37.0322 36.1214 37.0275C37.7037 37.0182 39.2859 37.0182 40.8682 37.0275C41.5698 37.0275 41.9838 37.4213 41.9776 38.0322C41.9713 38.6431 41.5448 39.0103 40.8385 39.0197C40.0385 39.0275 39.2385 39.0197 38.437 39.0197Z" fill="#92210F"/>
<path d="M38.5245 29.031C39.3057 29.031 40.087 29.0216 40.8682 29.031C41.5588 29.042 41.9619 29.3904 41.976 29.9685C41.9979 30.5779 41.5947 31.006 40.8979 31.0154C39.2979 31.0362 37.6974 31.0362 36.0964 31.0154C35.3995 31.006 35.0026 30.5779 35.0183 29.9685C35.0386 29.3873 35.4355 29.031 36.1261 29.031C36.9245 29.0216 37.7245 29.031 38.5245 29.031Z" fill="#92210F"/>
<path d="M38.4933 33.0325C39.2932 33.0325 40.0948 33.0231 40.8948 33.0325C41.5729 33.0419 41.9666 33.4059 41.976 33.9997C41.9854 34.5934 41.5823 35.0075 40.9276 35.0153C39.3068 35.033 37.6865 35.033 36.0667 35.0153C35.412 35.0153 35.0105 34.5903 35.0152 34.0043C35.0199 33.4184 35.4183 33.0434 36.0917 33.0341C36.8917 33.0231 37.6933 33.0325 38.4933 33.0325Z" fill="#92210F"/>
<path d="M22.7372 31.3996C23.8309 31.9949 24.6575 32.8542 24.8637 34.1027C25.0081 34.9481 25.0223 35.8107 24.9059 36.6604C24.7075 38.0042 23.4684 38.9854 22.0716 39.0042C20.0231 39.0323 17.9716 39.0401 15.9232 39.0042C15.5359 38.9987 15.1536 38.9169 14.7979 38.7635C14.4423 38.6101 14.1204 38.3881 13.8506 38.1102C13.5809 37.8323 13.3685 37.504 13.2257 37.1439C13.083 36.7839 13.0126 36.3993 13.0186 36.012C12.9946 35.2923 13.0555 34.5722 13.1998 33.8667C13.4732 32.7277 14.2623 31.9433 15.281 31.3964C13.4904 28.6246 13.6482 26.0684 15.7013 24.2668C16.5973 23.4808 17.7445 23.0407 18.9363 23.0258C20.1281 23.0109 21.2859 23.4222 22.2012 24.1856C24.3122 25.9543 24.5043 28.4605 22.7372 31.3996ZM19.0013 37.0245H21.0466C22.9012 37.0245 23.0778 36.8432 22.9887 34.9683C22.9387 33.862 22.1512 33.0558 21.0497 33.0402C19.6872 33.0204 18.3237 33.0204 16.9591 33.0402C16.4461 33.0409 15.9539 33.2434 15.5888 33.6038C15.2237 33.9642 15.015 34.4537 15.0076 34.9667C14.9935 35.2573 15.0076 35.5511 15.0076 35.8417C15.0217 36.6464 15.3873 37.0151 16.1998 37.0229C17.131 37.0245 18.0654 37.0245 19.0013 37.0245ZM16.0185 28.0059C16.0156 28.4016 16.0912 28.7939 16.2408 29.1603C16.3904 29.5266 16.6111 29.8597 16.8902 30.1402C17.1693 30.4208 17.5012 30.6432 17.8668 30.7947C18.2324 30.9463 18.6243 31.0238 19.02 31.023C19.4138 31.0212 19.8033 30.9418 20.1664 30.7894C20.5295 30.637 20.859 30.4146 21.1361 30.1349C21.4132 29.8551 21.6325 29.5235 21.7815 29.159C21.9305 28.7946 22.0062 28.4043 22.0044 28.0105C22.0025 27.6168 21.9231 27.2273 21.7708 26.8642C21.6184 26.5011 21.396 26.1716 21.1162 25.8945C20.8365 25.6174 20.5049 25.398 20.1404 25.2491C19.7759 25.1001 19.3857 25.0244 18.9919 25.0262C18.2031 25.0283 17.4473 25.3428 16.89 25.901C16.3327 26.4592 16.0193 27.2155 16.0185 28.0043V28.0059Z" fill="#92210F"/>
<path d="M14.4717 41.0166C17.5764 41.0166 20.681 41.0041 23.7841 41.0354C24.1621 41.0473 24.5221 41.2 24.7934 41.4635C25.2716 41.9979 24.8919 42.8541 24.1685 42.99C23.9753 43.0159 23.7802 43.0237 23.5856 43.0135H5.4312C5.31401 43.0135 5.19683 43.0135 5.07964 43.0135C4.45465 42.9838 4.00309 42.5619 4.00934 42.0041C4.01559 41.4463 4.45934 41.026 5.10308 41.0229C7.42648 41.0135 9.74989 41.0229 12.0733 41.0229L14.4717 41.0166Z" fill="#92210F"/>
<path d="M14.5061 51.0039H5.48589C5.27155 51.0141 5.05673 51.0063 4.84371 50.9805C4.6269 50.9554 4.42595 50.8544 4.27641 50.6954C4.12686 50.5364 4.03835 50.3297 4.02653 50.1117C3.99075 49.8961 4.03437 49.6749 4.14929 49.489C4.26422 49.3031 4.44266 49.1652 4.65152 49.1008C4.85313 49.0351 5.06453 49.0044 5.27651 49.0102C11.4264 49.0102 17.5764 48.9993 23.7247 49.0243C24.1208 49.037 24.4979 49.1969 24.7825 49.4727C24.9606 49.6633 24.995 50.1961 24.8513 50.4258C24.7453 50.5773 24.6086 50.7047 24.45 50.7998C24.2914 50.8948 24.1145 50.9553 23.931 50.9774C22.47 51.0367 21.0044 51.0039 19.5404 51.0055L14.5061 51.0039Z" fill="#92210F"/>
<path d="M14.5092 54.9931H5.49057C5.27578 55.002 5.06063 54.9952 4.84683 54.9728C4.62962 54.9507 4.42751 54.8516 4.27705 54.6934C4.12658 54.5352 4.03772 54.3283 4.02652 54.1103C3.98825 53.8942 4.03079 53.6717 4.14604 53.4849C4.2613 53.2982 4.44122 53.1604 4.65152 53.0978C4.9124 53.0204 5.18429 52.9866 5.45619 52.9978C11.4894 52.9978 17.5217 52.9978 23.5528 52.9978C23.8053 52.9874 24.0579 53.0138 24.3028 53.0759C24.7966 53.2322 25.0278 53.59 24.9794 54.1025C24.9309 54.615 24.6294 54.9322 24.1169 54.9743C23.6481 55.0134 23.1794 54.9931 22.7107 54.9931H14.5092Z" fill="#92210F"/>
<path d="M9.43269 47.0074C8.02646 47.0074 6.62023 47.0074 5.21399 47.0074C4.4765 47.0074 4.01401 46.6215 4.0062 46.0246C3.99839 45.4277 4.47494 45.0152 5.19056 45.0137C8.05927 45.0137 10.9275 45.0137 13.7951 45.0137C14.5389 45.0137 14.9889 45.3933 14.9951 46.0012C15.0014 46.609 14.5592 47.0027 13.8186 47.0058C12.3592 47.0105 10.8952 47.0074 9.43269 47.0074Z" fill="#92210F"/>
<path d="M7.54368 29.031C8.32492 29.031 9.10616 29.0216 9.87959 29.031C10.5749 29.0404 11.0108 29.4357 11.0061 30.0216C11.0061 30.5826 10.5827 31.0091 9.92803 31.0185C8.31242 31.0393 6.69786 31.0393 5.08434 31.0185C4.43904 31.0107 4.01248 30.5701 4.01404 30.0138C4.01404 29.4326 4.45466 29.042 5.15153 29.031C5.94683 29.0216 6.74526 29.031 7.54368 29.031Z" fill="#92210F"/>
<path d="M7.53426 33.0325C8.33268 33.0325 9.12955 33.0231 9.92797 33.0325C10.578 33.0419 11.0045 33.4419 11.0061 34.0106C11.0076 34.5793 10.5764 35.0075 9.93735 35.0137C8.32174 35.0314 6.70718 35.0314 5.09366 35.0137C4.45461 35.0137 4.01711 34.5778 4.01243 34.02C4.00774 33.4622 4.45461 33.0387 5.1421 33.0309C5.9374 33.0247 6.73583 33.0325 7.53426 33.0325Z" fill="#92210F"/>
<path d="M7.50927 37.0247C8.3077 37.0247 9.10612 37.0247 9.90299 37.0247C10.5592 37.034 10.9873 37.42 11.0061 37.984C11.0248 38.5481 10.5702 39.009 9.91236 39.0137C8.31759 39.0262 6.72126 39.0262 5.12336 39.0137C4.45306 39.0137 3.99994 38.5653 4.01869 37.9872C4.03744 37.409 4.47181 37.034 5.1218 37.0247C5.91241 37.0153 6.71865 37.0247 7.50927 37.0247Z" fill="#92210F"/>
<path d="M26.57 13.6261C27.0387 11.7512 27.5075 9.88557 27.9762 8.01684C28.1684 7.26216 28.6621 6.9028 29.2543 7.0653C29.8465 7.22779 30.0887 7.75591 29.8965 8.52934C29.3132 10.8741 28.7278 13.2178 28.1403 15.5605C27.8965 16.5324 27.3418 17.0136 26.4997 17.0152C25.6575 17.0167 25.0809 16.5105 24.845 15.5683C24.2606 13.2454 23.6794 10.921 23.1013 8.59496C23.0825 8.51996 23.0731 8.43872 23.0575 8.36528C22.9263 7.72466 23.1888 7.21998 23.7341 7.06686C24.2794 6.91374 24.8106 7.23405 24.984 7.8981C25.3387 9.2559 25.6684 10.6184 26.0106 11.9793C26.1512 12.5371 26.2965 13.0933 26.4387 13.6496L26.57 13.6261Z" fill="#92210F"/>
<path d="M33.1246 17.0107C32.7542 17.0107 32.3824 17.0232 32.0121 17.0107C31.4261 16.9857 31.0449 16.6123 31.0246 16.0732C31.0154 15.9409 31.0335 15.8081 31.0779 15.683C31.1222 15.558 31.1919 15.4435 31.2825 15.3466C31.3731 15.2497 31.4827 15.1725 31.6045 15.1198C31.7262 15.0671 31.8575 15.0401 31.9902 15.0404C32.5949 15.0092 33.2011 15.0404 33.8058 15.0279C34.5464 15.0279 35.0027 14.6357 35.0027 14.0358C35.0027 13.4358 34.5777 13.0795 33.8683 13.0264C32.1699 12.8998 30.9558 11.5764 31.0215 9.92175C31.0871 8.26708 32.3605 7.0671 34.0402 7.04523C34.6652 7.03585 35.2902 7.03429 35.9151 7.04523C36.5401 7.05616 36.9995 7.46397 37.0089 8.02646C37.0183 8.58895 36.573 9.01551 35.9401 9.0327C35.3542 9.04832 34.7683 9.0327 34.1824 9.0327C33.4621 9.0327 33.0464 9.39207 33.0292 9.99675C33.0121 10.6014 33.3996 10.9733 34.123 11.0295C35.7417 11.1561 36.9026 12.2983 37.0151 13.8748C37.0511 14.5767 36.8369 15.2686 36.4105 15.8274C35.9842 16.3862 35.3735 16.7756 34.687 16.9263C34.1808 17.0388 33.6417 17.0092 33.1246 17.0435V17.0107Z" fill="#92210F"/>
</svg>
