<svg width="50" height="50" viewBox="0 0 50 50" fill="none" xmlns="http://www.w3.org/2000/svg">
<path d="M0 14.8672C0.311174 14.4596 0.58719 14.0183 0.940027 13.6498C1.92172 12.6304 2.95549 11.6604 3.93458 10.6318C4.18753 10.3476 4.50087 10.1236 4.85165 9.97628C5.20242 9.82894 5.58174 9.76199 5.96176 9.78033C9.03704 9.81288 12.1123 9.79335 15.1889 9.79335H15.7032C16.168 8.21405 16.2604 8.14764 17.9231 8.14764C18.992 8.14764 18.992 8.14764 19.4334 7.01622C19.0428 6.64255 18.6027 6.25326 18.1913 5.83793C17.5885 5.2286 17.5325 4.56589 18.091 3.92922C18.6074 3.34511 19.1606 2.79455 19.7471 2.28092C20.32 1.77835 20.9905 1.82522 21.5491 2.34471C21.9188 2.68713 22.2756 3.04648 22.6193 3.41494C22.7886 3.59591 22.9396 3.65972 23.1622 3.5191C23.2852 3.43861 23.4214 3.38043 23.5646 3.34724C23.8822 3.27954 23.9551 3.09335 23.9421 2.78738C23.9161 2.31737 23.9265 1.84344 23.9421 1.37213C23.963 0.590939 24.433 0.0701463 25.2011 0.0297848C25.9693 -0.0105766 26.7284 -0.00927462 27.4887 0.0297848C28.3168 0.0688443 28.7816 0.587036 28.8024 1.42421C28.8272 1.83049 28.8272 2.23789 28.8024 2.64417C28.7608 3.06731 28.9157 3.24698 29.3102 3.42535C29.7594 3.62586 30.0354 3.59331 30.3362 3.21183C30.5906 2.91509 30.866 2.63706 31.1603 2.37987C31.7371 1.83304 32.4063 1.77184 32.9974 2.29133C33.5969 2.81676 34.1622 3.37993 34.69 3.97739C35.1873 4.53985 35.1366 5.2299 34.6223 5.78194C34.2786 6.1517 33.9218 6.50975 33.5508 6.85087C33.3633 7.02403 33.3268 7.17506 33.4518 7.39509C33.539 7.54873 33.5651 7.74273 33.6692 7.88074C33.76 8.01099 33.8952 8.10359 34.0494 8.14114C34.3905 8.16437 34.7325 8.16872 35.0741 8.15415C36.4646 8.15415 36.7432 8.3807 37.0179 9.80116C37.2523 9.80116 37.5062 9.79075 37.7575 9.80116C38.2431 9.8259 38.5465 10.1293 38.5321 10.5602C38.5178 10.9912 38.2249 11.2425 37.7509 11.2607C37.5244 11.2698 37.2966 11.2607 37.0179 11.2607C36.988 11.4612 36.958 11.6513 36.9346 11.8323C36.9094 12.1526 36.7646 12.4516 36.5288 12.67C36.2931 12.8883 35.9839 13.0099 35.6626 13.0105C35.1418 13.0288 34.621 13.0288 34.1002 13.0105C33.9984 12.9939 33.8941 13.0166 33.8083 13.0738C33.7226 13.1311 33.6617 13.2187 33.638 13.3191C33.3333 14.1003 33.3229 14.1003 33.9153 14.694C34.1562 14.9362 34.4062 15.1705 34.6366 15.4218C35.1144 15.9426 35.1847 16.6248 34.7264 17.1482C34.1648 17.7844 33.5606 18.3817 32.918 18.9359C32.3803 19.4046 31.7241 19.3382 31.1929 18.846C30.8231 18.5036 30.4651 18.1469 30.1239 17.7771C29.9417 17.5792 29.7919 17.5466 29.5381 17.6638C28.7998 18.0036 28.7933 17.9893 28.7933 18.8109C28.7933 19.152 28.8063 19.4944 28.7933 19.8355C28.7556 20.5764 28.3272 21.0789 27.5916 21.1271C26.7817 21.1798 25.9693 21.1798 25.1595 21.1271C24.3783 21.0737 23.9525 20.5581 23.9356 19.7587C23.9144 19.3523 23.9165 18.9449 23.9421 18.5388C23.9838 18.1169 23.8718 17.8578 23.4305 17.7732C23.2506 17.7195 23.0762 17.6489 22.9097 17.5623C22.8992 17.7784 22.8849 17.9464 22.8849 18.1156C22.8849 19.6285 22.8849 21.1419 22.8849 22.6556C22.8849 22.7689 22.8849 22.8835 22.8849 22.9967C22.8706 23.5813 22.6115 23.8912 22.1467 23.8834C21.6819 23.8756 21.428 23.5605 21.4241 22.972C21.4163 21.9135 21.4241 20.8563 21.4241 19.7978V18.9658C20.4437 19.5738 19.8057 19.0257 19.1977 18.4255C18.7877 18.0303 18.3992 17.6135 18.0337 17.1769C17.565 16.6027 17.6028 15.9569 18.1093 15.4114C18.4634 15.0299 18.8579 14.6849 19.199 14.293C19.249 14.2233 19.2828 14.1432 19.2979 14.0588C19.313 13.9743 19.309 13.8875 19.2862 13.8048C18.9842 13.0053 18.9725 13.0092 18.091 13.0092C17.7812 13.0092 17.4726 13.0092 17.1627 13.0092C16.3815 12.991 15.9037 12.5535 15.8047 11.7632C15.7839 11.6044 15.7553 11.4456 15.7266 11.2568H15.0249C11.9652 11.2568 8.90554 11.249 5.84719 11.2698C5.56644 11.2831 5.29904 11.3936 5.09074 11.5823C3.96236 12.6655 2.8574 13.7696 1.77589 14.8945C1.59731 15.0906 1.49318 15.3431 1.48164 15.608C1.46602 22.4278 1.46039 29.2467 1.46473 36.0647C1.46473 36.4228 1.50638 36.6428 1.95556 36.6415C6.43178 36.6285 10.9067 36.6337 15.3816 36.6324C15.461 36.6324 15.5404 36.6181 15.6342 36.609C15.8165 32.8866 17.7369 30.6524 21.4241 29.853C21.4241 28.9559 21.4241 28.0302 21.4241 27.1084C21.4167 26.9134 21.4224 26.7181 21.441 26.5238C21.4983 26.0968 21.8043 25.8338 22.2066 25.8728C22.6089 25.9119 22.8693 26.154 22.8771 26.5707C22.894 27.4821 22.8862 28.3935 22.8888 29.3048V29.8777C23.1818 29.9493 23.4617 30.0079 23.7377 30.0834C27.0421 30.9362 29.0837 34.1118 28.5069 37.5047C27.96 40.7219 24.9238 43.0954 21.6207 42.7777C18.9165 42.5173 17.0546 41.0435 16.0651 38.5098C15.9349 38.1909 15.8047 38.0841 15.4779 38.1023C14.9793 38.1297 14.4767 38.1023 13.9624 38.1023C13.8661 38.7117 14.1018 39.554 13.1734 39.5423C12.2803 39.5306 12.5224 38.709 12.4235 38.1023H11.8441C8.65427 38.1023 5.46441 38.075 2.27586 38.1179C1.22126 38.1323 0.445266 37.8302 0.00389387 36.8407L0 14.8672ZM32.1186 3.38239C31.6642 3.86933 31.284 4.29378 30.8895 4.69739C30.4286 5.17392 29.8883 5.25855 29.2842 4.99815C28.9417 4.84972 28.5967 4.70781 28.2504 4.5685C27.6085 4.3081 27.339 3.92922 27.339 3.22485C27.339 2.65719 27.339 2.09083 27.339 1.46848H25.4017C25.4017 2.11036 25.4017 2.69364 25.4017 3.27823C25.4157 3.5571 25.3373 3.83282 25.1786 4.06258C25.02 4.29235 24.7899 4.46331 24.5241 4.54897C24.252 4.65573 23.9773 4.75728 23.7117 4.87707C22.7664 5.30672 22.3863 5.24813 21.6689 4.52162C21.3186 4.16748 20.9853 3.79512 20.6494 3.43447L19.1808 4.82108C19.6664 5.28459 20.0922 5.68169 20.5101 6.09181C20.9697 6.5449 21.0309 7.07611 20.7848 7.65419C20.639 7.99661 20.4919 8.34034 20.3526 8.68667C20.0922 9.33766 19.7224 9.59805 19.0154 9.59805C18.4478 9.59805 17.8801 9.59805 17.2565 9.59805V11.5341C17.8528 11.5341 18.4035 11.5341 18.949 11.5341C19.7029 11.5341 20.0896 11.8075 20.3617 12.4976C20.4919 12.8139 20.6156 13.129 20.7523 13.4415C21.0491 14.1198 20.9749 14.5938 20.445 15.125C20.044 15.5273 19.6222 15.9062 19.1769 16.3254L20.5921 17.7888C21.0674 17.2836 21.4684 16.8384 21.8941 16.4126C22.3199 15.9869 22.8524 15.9048 23.42 16.1444C23.7624 16.2902 24.1049 16.44 24.4512 16.578C25.123 16.8462 25.3938 17.229 25.4004 17.949C25.4004 18.514 25.4004 19.0804 25.4004 19.678H27.3377C27.3377 19.0361 27.3377 18.4515 27.3377 17.8669C27.3377 17.242 27.645 16.8253 28.2217 16.6014C28.5394 16.4712 28.8571 16.3527 29.1683 16.2108C29.9338 15.8684 30.3726 15.9387 30.9689 16.5363C31.3595 16.9269 31.728 17.3175 32.1003 17.7081L33.5481 16.3215C33.0703 15.8684 32.6368 15.4752 32.2253 15.0625C31.7696 14.6107 31.7045 14.0782 31.9506 13.5001C32.0912 13.172 32.2305 12.8426 32.3607 12.5106C32.6303 11.8205 33.0235 11.5419 33.7682 11.5367C34.3306 11.5367 34.8931 11.5367 35.4868 11.5367V9.61107C34.8645 9.61107 34.2981 9.61107 33.7317 9.61107C33.0052 9.60326 32.6342 9.33765 32.366 8.65672C32.2475 8.35466 32.129 8.0526 31.9975 7.75575C31.672 7.02533 31.7371 6.56574 32.3256 5.99807C32.7162 5.61659 33.1419 5.26896 33.6159 4.84972L32.1186 3.38239ZM17.1458 36.3225C17.1422 37.3117 17.4321 38.2798 17.9789 39.1041C18.5256 39.9285 19.3047 40.5722 20.2174 40.9537C21.1301 41.3351 22.1354 41.4373 23.1062 41.2472C24.077 41.057 24.9695 40.5832 25.6709 39.8857C26.3723 39.1881 26.851 38.2981 27.0464 37.3284C27.2419 36.3587 27.1452 35.3528 26.7688 34.438C26.3923 33.5232 25.7529 32.7407 24.9315 32.1894C24.1102 31.6382 23.1437 31.343 22.1545 31.3411C20.8301 31.3387 19.5589 31.8619 18.6198 32.7958C17.6807 33.7298 17.1506 34.9981 17.1458 36.3225Z" fill="white"/>
<path d="M41.1454 23.4173H41.7156C43.9446 23.4173 46.174 23.4173 48.4039 23.4173C49.59 23.4173 49.9962 23.8222 49.9962 24.9927C49.9962 26.5863 49.9962 28.1813 49.9962 29.7762C49.9962 30.7227 49.5353 31.1875 48.5927 31.1888C46.3142 31.194 44.0362 31.194 41.7586 31.1888H41.187V32.6601H48.4664C49.5588 32.6601 49.9962 33.104 49.9975 34.2029C49.9975 35.8139 49.9975 37.4249 49.9975 39.0359C49.9975 39.9694 49.5197 40.442 48.5849 40.4459C47.9183 40.4459 47.2504 40.4537 46.5837 40.4459C46.0812 40.4459 45.7752 40.1647 45.7635 39.7363C45.7518 39.2872 46.0669 38.9929 46.5929 38.9864C47.2243 38.9773 47.8545 38.9864 48.5094 38.9864V34.1574H32.3544V38.9864H42.6648C42.795 38.9864 42.9252 38.9864 43.0554 38.9864C43.5072 39.0203 43.7975 39.321 43.7858 39.7363C43.7858 39.8306 43.767 39.9238 43.7304 40.0107C43.6938 40.0975 43.6402 40.1761 43.5727 40.2419C43.5052 40.3077 43.4253 40.3593 43.3375 40.3936C43.2498 40.428 43.1561 40.4445 43.0619 40.442C42.4474 40.4603 41.8302 40.442 41.1818 40.442V41.9119H48.5198C49.5497 41.9119 49.9988 42.365 50.0001 43.4014C50.0001 45.0289 50.0001 46.6564 50.0001 48.2839C50.0001 49.2148 49.521 49.6991 48.5875 49.7004C43.153 49.7004 37.7181 49.7004 32.2828 49.7004C31.3154 49.7004 30.8597 49.2304 30.8506 48.2565C30.8506 47.931 30.8506 47.6055 30.8506 47.28C30.8506 46.9076 30.9222 46.5548 30.46 46.2996C30.0694 46.0822 30.1905 45.4885 30.572 45.1747C30.7149 45.0498 30.8074 44.8772 30.8324 44.6891C30.8688 44.2204 30.8415 43.7465 30.8467 43.2738C30.8558 42.3963 31.3284 41.9159 32.2047 41.9133C34.5001 41.9133 36.7941 41.9133 39.0882 41.9133H39.6468V40.4446H32.3101C31.2985 40.4446 30.848 39.9967 30.8467 38.9916C30.8467 37.3641 30.8467 35.7371 30.8467 34.1105C30.8467 33.1106 31.3024 32.6601 32.314 32.6588C34.576 32.6588 36.838 32.6588 39.1 32.6588H39.6507V31.1875H39.1169C36.8558 31.1875 34.5942 31.1875 32.3323 31.1875C31.2724 31.1875 30.8467 30.7644 30.8454 29.715C30.8454 28.1049 30.8454 26.4939 30.8454 24.882C30.8454 23.86 31.2737 23.4199 32.2958 23.416C34.5743 23.4082 36.8527 23.416 39.1299 23.416H39.6793C39.6793 22.8835 39.6689 22.4005 39.6793 21.9161C39.695 21.3784 39.9814 21.0789 40.4332 21.0907C40.885 21.1024 41.1232 21.3849 41.1363 21.9122C41.1545 22.3966 41.1454 22.8809 41.1454 23.4173ZM48.5159 43.4131H32.3466V48.207H48.5159V43.4131ZM48.5081 24.9172H32.3544V29.6981H48.5081V24.9172Z" fill="white"/>
<path d="M11.4237 18.1067C9.7819 18.1067 8.13879 18.1067 6.49699 18.1067C5.91631 18.1067 5.59472 17.7786 5.65331 17.2864C5.70279 16.8763 6.00486 16.6498 6.54258 16.6472C7.71436 16.6472 8.88614 16.6472 10.0579 16.6472C12.1411 16.6472 14.2243 16.6354 16.3074 16.6615C16.6054 16.6716 16.8894 16.7895 17.1068 16.9935C17.237 17.1237 17.2657 17.5325 17.1576 17.694C17.0748 17.8053 16.9698 17.8982 16.8492 17.9667C16.7287 18.0353 16.5951 18.0781 16.4572 18.0924C15.1747 18.1314 13.8896 18.1106 12.6046 18.1119L11.4237 18.1067Z" fill="white"/>
<path d="M11.468 23.7362C13.1098 23.7362 14.7529 23.7362 16.3947 23.7362C17.0639 23.7362 17.474 24.283 17.1537 24.7778C17.0713 24.891 16.966 24.9857 16.8447 25.0557C16.7234 25.1257 16.5887 25.1694 16.4494 25.184C13.1163 25.21 9.78191 25.2061 6.44883 25.1983C5.94627 25.1983 5.65072 24.9015 5.64941 24.4679C5.64941 24.0109 5.94237 23.7427 6.49181 23.7414C8.15053 23.7323 9.80925 23.7362 11.468 23.7362Z" fill="white"/>
<path d="M11.4234 28.7503C9.78165 28.7503 8.13854 28.7503 6.49674 28.7503C5.91605 28.7503 5.59577 28.4235 5.65306 27.9313C5.69993 27.5407 5.99418 27.2973 6.49284 27.2908C7.33783 27.2803 8.18542 27.2908 9.0291 27.2908H16.1041C16.2503 27.2849 16.3968 27.2875 16.5428 27.2986C16.9634 27.3454 17.2563 27.6501 17.2576 28.0277C17.2576 28.4313 16.9543 28.7347 16.4973 28.749C16.0103 28.7646 15.5221 28.749 15.0338 28.7555L11.4234 28.7503Z" fill="white"/>
<path d="M11.4743 20.2066C13.133 20.2066 14.7918 20.2066 16.4492 20.2066C16.9401 20.2066 17.259 20.5152 17.2551 20.9305C17.2551 21.3211 16.9492 21.6179 16.4883 21.6596C16.3437 21.6726 16.1966 21.6596 16.0495 21.6596H6.72991C6.59957 21.6632 6.46913 21.6588 6.33932 21.6466C5.87581 21.5867 5.60761 21.2911 5.64537 20.8654C5.68573 20.4162 5.96304 20.2014 6.3966 20.1988C7.5827 20.191 8.77012 20.1988 9.95623 20.1988L11.4743 20.2066Z" fill="white"/>
<path d="M8.69077 30.8502C9.38993 30.8502 10.0904 30.8423 10.7896 30.8502C11.3481 30.858 11.6371 31.1106 11.6371 31.5728C11.6371 32.035 11.339 32.3032 10.7908 32.3071C9.35867 32.3183 7.92649 32.3183 6.49431 32.3071C5.94487 32.3071 5.64803 32.0258 5.64673 31.574C5.64543 31.1223 5.93447 30.858 6.49302 30.8502C7.22734 30.8423 7.95905 30.8502 8.69077 30.8502Z" fill="white"/>
<path d="M14.8023 45.5731C14.8205 46.1564 14.3518 46.547 13.8818 46.3882C13.5701 46.2921 13.2879 46.1184 13.0617 45.8834C12.8356 45.6484 12.6729 45.3597 12.5889 45.0445C12.5353 44.8877 12.5436 44.7162 12.6121 44.5653C12.6805 44.4143 12.804 44.2951 12.9573 44.2321C13.1012 44.1537 13.2679 44.1281 13.4287 44.1597C13.5894 44.1913 13.7341 44.2782 13.8375 44.4053C14.0797 44.6565 14.3322 44.8974 14.5575 45.163C14.6533 45.2907 14.7353 45.4282 14.8023 45.5731Z" fill="white"/>
<path d="M41.2468 11.9195C41.153 12.5002 40.9031 12.8309 40.4656 12.866C40.0281 12.9012 39.7586 12.6056 39.6714 12.0705C39.6291 11.8522 39.5563 11.641 39.4553 11.443C39.2665 11.0524 39.3355 10.6761 39.6623 10.4547C39.7372 10.3982 39.8231 10.3577 39.9144 10.3358C40.0057 10.3138 40.1006 10.311 40.1931 10.3274C40.2855 10.3437 40.3737 10.379 40.4519 10.4309C40.5302 10.4828 40.5969 10.5504 40.6479 10.6292C40.8992 11.0289 41.0515 11.4872 41.2468 11.9195Z" fill="white"/>
<path d="M41.1283 15.1837C41.142 15.4096 41.142 15.6362 41.1283 15.8621C41.0801 16.2592 40.8158 16.4649 40.4343 16.474C40.0737 16.4818 39.7742 16.2956 39.7378 15.9285C39.6883 15.4302 39.6883 14.9282 39.7378 14.4299C39.7768 14.0393 40.0763 13.8505 40.4682 13.87C40.5539 13.8674 40.6393 13.8818 40.7194 13.9123C40.7996 13.9428 40.8729 13.9888 40.9352 14.0477C40.9975 14.1066 41.0476 14.1773 41.0825 14.2556C41.1174 14.3339 41.1365 14.4184 41.1387 14.5041C41.1505 14.7305 41.1505 14.9573 41.1387 15.1837H41.1283Z" fill="white"/>
<path d="M41.1284 18.798C41.1421 19.0239 41.1421 19.2504 41.1284 19.4763C41.0789 19.8734 40.8146 20.0791 40.4318 20.0869C40.0725 20.0869 39.7704 19.9073 39.7379 19.5388C39.6884 19.0251 39.691 18.5078 39.7457 17.9946C39.7874 17.6314 40.0959 17.4634 40.4631 17.483C40.8302 17.5025 41.075 17.7017 41.1245 18.0715C41.1408 18.3134 41.1408 18.5561 41.1245 18.798H41.1284Z" fill="white"/>
<path d="M13.9312 41.8781C13.9315 42.1043 13.9193 42.3303 13.8947 42.5552C13.8807 42.7287 13.7996 42.8899 13.6685 43.0044C13.5374 43.1189 13.3668 43.1778 13.193 43.1684C12.7868 43.1684 12.5094 42.938 12.4795 42.5174C12.4489 42.0814 12.4489 41.6437 12.4795 41.2076C12.5068 40.7936 12.7685 40.5566 13.1826 40.5566C13.5966 40.5566 13.8479 40.791 13.9025 41.1998C13.9169 41.4257 13.9169 41.6523 13.9025 41.8781H13.9312Z" fill="white"/>
<path d="M17.0911 46.5235C16.8651 46.5352 16.6387 46.5352 16.4128 46.5235C16.2482 46.516 16.0927 46.4464 15.9774 46.3287C15.8622 46.211 15.7958 46.0541 15.7917 45.8894C15.7566 45.4988 15.9219 45.1798 16.3125 45.1343C16.8252 45.0763 17.3427 45.0763 17.8554 45.1343C18.2459 45.1772 18.4178 45.4975 18.384 45.8842C18.3812 46.0489 18.3162 46.2065 18.2019 46.3251C18.0876 46.4437 17.9326 46.5146 17.7681 46.5235C17.5426 46.5358 17.3166 46.5358 17.0911 46.5235Z" fill="white"/>
<path d="M20.6897 46.5207C20.4638 46.5337 20.2373 46.5337 20.0114 46.5207C19.8456 46.5116 19.6898 46.4388 19.5764 46.3175C19.4631 46.1961 19.4011 46.0357 19.4034 45.8697C19.3747 45.4791 19.5531 45.1679 19.9411 45.1236C20.4381 45.069 20.9395 45.0663 21.4371 45.1158C21.8277 45.1549 22.0204 45.4543 22.0008 45.8449C22.004 45.9309 21.99 46.0166 21.9599 46.0971C21.9297 46.1776 21.8838 46.2513 21.825 46.314C21.7662 46.3767 21.6955 46.4272 21.6171 46.4624C21.5386 46.4976 21.454 46.517 21.3681 46.5194C21.1441 46.5415 20.9163 46.5194 20.6897 46.5194V46.5207Z" fill="white"/>
<path d="M24.2833 46.5298C24.0893 46.5298 23.8927 46.5415 23.7013 46.5298C23.286 46.5012 23.0386 46.2694 23.0151 45.8554C22.9917 45.4414 23.2091 45.1484 23.6193 45.1094C24.0855 45.0625 24.5553 45.0625 25.0215 45.1094C25.4316 45.1523 25.6399 45.4518 25.6126 45.8645C25.6135 45.9505 25.5973 46.0359 25.5649 46.1156C25.5326 46.1954 25.4848 46.2679 25.4243 46.3291C25.3637 46.3902 25.2917 46.4387 25.2123 46.4718C25.1328 46.505 25.0477 46.522 24.9616 46.522C24.7364 46.5415 24.5085 46.522 24.282 46.522L24.2833 46.5298Z" fill="white"/>
<path d="M27.9249 45.0928C28.1502 45.0752 28.3766 45.0752 28.6019 45.0928C29.0094 45.154 29.2412 45.4092 29.2269 45.8271C29.2125 46.245 28.9782 46.495 28.5603 46.5184C28.14 46.5406 27.7189 46.5406 27.2986 46.5184C26.8807 46.4976 26.6476 46.2463 26.6281 45.8323C26.6086 45.4183 26.839 45.1566 27.2465 45.0941C27.4723 45.0767 27.6991 45.0763 27.9249 45.0928Z" fill="white"/>
<path d="M25.9732 15.7499C24.17 15.6457 22.5151 14.664 21.6337 12.6394C20.7718 10.6578 21.0764 8.75692 22.5269 7.14897C24.0033 5.51108 25.8664 5.04757 27.9861 5.68554C28.5069 5.84308 28.7191 6.14254 28.6475 6.55657C28.5615 7.05002 28.141 7.25313 27.5512 7.07736C26.1399 6.64901 24.8743 6.91592 23.7989 7.92235C23.1535 8.53192 22.7511 9.35491 22.6663 10.2386C22.5815 11.1224 22.8202 12.0068 23.338 12.728C23.8481 13.4484 24.5988 13.9628 25.4548 14.1785C26.3108 14.3941 27.2157 14.2967 28.0062 13.9039C28.7967 13.5111 29.4208 12.8487 29.7659 12.0362C30.111 11.2237 30.1544 10.3147 29.8883 9.47301C29.8596 9.38057 29.8219 9.28943 29.7906 9.19829C29.6005 8.66058 29.7398 8.27128 30.1812 8.10983C30.6226 7.94839 30.9624 8.1515 31.1707 8.70745C31.7852 10.3193 31.6342 11.8687 30.7359 13.3321C29.801 14.8463 28.1384 15.7499 25.9732 15.7499Z" fill="white"/>
<path d="M28.6227 10.6035C28.6172 11.0514 28.4789 11.4875 28.2254 11.8568C27.9718 12.226 27.6144 12.5117 27.1984 12.6777C26.7823 12.8436 26.3264 12.8823 25.8883 12.789C25.4502 12.6956 25.0497 12.4743 24.7375 12.1531C24.4253 11.832 24.2154 11.4254 24.1344 10.9848C24.0535 10.5443 24.1051 10.0896 24.2827 9.67845C24.4603 9.26726 24.756 8.91804 25.1323 8.67502C25.5085 8.43199 25.9484 8.3061 26.3963 8.31328C26.6931 8.3165 26.9864 8.3784 27.2593 8.49542C27.5321 8.61245 27.7791 8.78227 27.986 8.99513C28.1929 9.20799 28.3557 9.45968 28.465 9.73571C28.5743 10.0117 28.6279 10.3066 28.6227 10.6035ZM27.1553 10.567C27.1579 10.46 27.1389 10.3536 27.0994 10.2542C27.0599 10.1547 27.0007 10.0643 26.9254 9.98822C26.8501 9.91217 26.7603 9.85209 26.6612 9.81158C26.5622 9.77106 26.456 9.75095 26.349 9.75244C26.242 9.75393 26.1364 9.77699 26.0385 9.82025C25.9406 9.8635 25.8525 9.92606 25.7794 10.0042C25.7062 10.0823 25.6496 10.1744 25.6129 10.2749C25.5761 10.3754 25.5601 10.4823 25.5656 10.5891C25.5763 10.7946 25.6662 10.988 25.8164 11.1286C25.9666 11.2692 26.1654 11.3462 26.3711 11.3433C26.5769 11.3404 26.7735 11.258 26.9197 11.1132C27.0659 10.9685 27.1504 10.7727 27.1553 10.567Z" fill="white"/>
<path d="M21.7431 36.9501L23.9187 34.7745C24.0186 34.6677 24.1237 34.566 24.2338 34.4698C24.558 34.2094 24.985 34.2094 25.2454 34.4932C25.5293 34.7992 25.567 35.1638 25.2806 35.4593C24.2841 36.4861 23.2729 37.4986 22.247 38.4968C21.9488 38.7872 21.5765 38.7676 21.2796 38.4799C20.521 37.7447 19.7736 36.9974 19.0376 36.2379C18.9695 36.1729 18.9151 36.095 18.8775 36.0088C18.8399 35.9225 18.8199 35.8296 18.8187 35.7355C18.8174 35.6414 18.835 35.548 18.8704 35.4607C18.9058 35.3735 18.9582 35.2943 19.0246 35.2276C19.0894 35.153 19.1693 35.0933 19.2592 35.0523C19.349 35.0114 19.4466 34.9902 19.5454 34.9902C19.6441 34.9902 19.7417 35.0114 19.8315 35.0523C19.9214 35.0933 20.0014 35.153 20.0662 35.2276C20.6247 35.7653 21.1533 36.3394 21.7431 36.9501Z" fill="white"/>
</svg>
