<svg width="50" height="50" viewBox="0 0 50 50" fill="none" xmlns="http://www.w3.org/2000/svg">
<path d="M14.4525 0.00519827H15.0385C15.8328 0.221375 16.3081 0.76573 16.6831 1.47677C17.8902 3.76095 19.1377 6.02299 20.3604 8.29806C20.5053 8.5515 20.6161 8.82298 20.6898 9.10546C21.7775 13.7224 22.8583 18.3403 23.9322 22.959C24.1744 24.0008 24.4205 25.0309 24.6718 26.0845C25.2395 25.6938 25.7383 25.3031 26.2826 24.9853C26.6368 24.7822 26.7748 24.5725 26.7566 24.1519C26.6264 21.2491 26.8633 18.3685 27.3008 15.4996C27.3218 15.2359 27.2454 14.9737 27.086 14.7625C25.2109 12.3598 25.638 9.60294 27.3061 7.82925C28.3322 6.73925 29.172 5.45911 29.995 4.19721C30.2762 3.77458 30.4648 3.29718 30.5483 2.79642C30.6318 2.29565 30.6083 1.78287 30.4794 1.29184C30.3336 0.725354 30.4716 0.30994 30.9573 0H31.5433C33.0993 1.23634 34.409 2.75424 35.4041 4.4746C37.4876 8.12877 37.4746 11.7061 34.9549 15.1766C34.8491 15.3513 34.7937 15.5519 34.7948 15.7562C34.7166 17.7226 34.6645 19.689 34.576 21.6541C34.5486 22.2831 34.4457 22.9082 34.3793 23.493L37.3574 24.5699C37.9498 23.1452 38.5293 21.6971 39.1492 20.2724C39.92 18.5013 40.4708 16.6808 40.6648 14.7482C40.7317 14.3684 40.9461 14.0304 41.2612 13.808C43.1545 12.5747 45.0792 11.3896 47.0024 10.202C47.6444 9.8113 48.1939 10.0366 48.3827 10.762C48.5454 11.391 48.6783 12.0278 48.8281 12.6607C49.2187 14.3015 49.6094 15.9424 50 17.5833V17.7786C49.8086 18.1133 49.6549 18.4766 49.4192 18.7761C48.507 19.9232 47.7574 21.1905 47.1912 22.5423C45.8786 25.7077 44.5765 28.8765 43.2848 32.0489C43.204 32.2916 43.1717 32.5477 43.1897 32.8029C43.2079 33.7431 43.2613 34.682 43.2743 35.6223C43.2606 35.966 43.2271 36.3086 43.1741 36.6485C43.4019 36.6693 43.596 36.6875 43.7887 36.7032C47.3436 36.9806 50.0091 39.9914 49.9088 43.6052C49.806 47.0862 46.8709 49.9863 43.346 49.9863C31.0927 50.0046 18.8394 50.0046 6.5862 49.9863C3.19279 49.9863 0.466084 47.4261 0.0428848 43.9464C-0.336041 40.8209 1.83597 37.7124 4.98197 36.8946C5.39866 36.7865 5.82707 36.7253 6.28412 36.6341C6.22162 36.4609 6.17346 36.3099 6.11226 36.1627C5.46118 34.587 4.81011 33.0112 4.15903 31.4355C2.85167 28.284 1.54517 25.1321 0.239543 21.9797C-0.168031 20.9952 0.134033 20.0693 1.04945 19.6812C3.3829 18.6915 5.72678 17.7235 8.08107 16.7771C8.91054 16.4425 9.78037 16.8266 10.1645 17.634C10.3468 18.0143 10.4953 18.4154 10.6568 18.8061C11.9589 21.9428 13.2611 25.0791 14.5632 28.215C14.6244 28.3595 14.7742 28.5913 14.8614 28.5809C15.45 28.5184 16.0333 28.4025 16.6206 28.3022C16.6089 28.1954 16.6089 28.129 16.5946 28.0678C15.4461 23.1635 14.2845 18.2617 13.1504 13.3522C12.8496 12.0499 12.4381 10.7685 12.5306 9.37634C12.6842 7.0557 12.7285 4.72723 12.8027 2.40138C12.8353 0.977997 13.1504 0.503968 14.4525 0.00519827ZM24.9999 48.3481H43.3603C46.2875 48.2934 48.5507 45.8529 48.3332 42.9853C48.1118 40.0591 45.4776 37.9755 42.5426 38.4052C41.4253 38.568 41.0503 38.1552 41.342 37.0717C41.7045 35.7325 41.7699 34.3302 41.5334 32.9631C40.8107 28.7033 37.4133 25.5518 32.9795 25.0374C28.9533 24.5699 24.858 27.0351 23.2525 30.8898C22.8436 31.8717 22.4399 31.9811 21.548 31.3899C19.5713 30.0876 17.424 29.6761 15.1205 30.2687C13.4746 30.684 12.0073 31.6212 10.9384 32.94C9.86941 34.2588 9.25621 35.8884 9.1905 37.5848C9.16967 38.0302 9.0434 38.4209 8.58374 38.5277C8.32331 38.5902 8.00685 38.5198 7.72819 38.4586C4.14857 37.6773 0.934879 40.9681 1.82164 44.5207C2.3998 46.8414 4.36085 48.3455 6.84014 48.3481C12.8891 48.355 18.9423 48.355 24.9999 48.3481ZM12.4772 27.5899C12.2662 27.6758 12.1008 27.7409 11.9381 27.8087C11.0812 28.159 10.2296 28.5236 9.36631 28.8505C9.26784 28.8906 9.1624 28.9108 9.05609 28.91C8.94978 28.9093 8.84471 28.8875 8.74683 28.846C8.64895 28.8045 8.56023 28.7441 8.48576 28.6682C8.4113 28.5923 8.35254 28.5025 8.31289 28.4038C8.13709 27.9871 8.29594 27.5625 8.72305 27.3347C8.86629 27.2591 9.01993 27.2044 9.17098 27.1419L11.8391 26.0272L11.201 24.4983C10.7335 24.6897 10.2986 24.8694 9.8637 25.0452C9.24779 25.294 8.79599 25.1651 8.58374 24.6845C8.37149 24.204 8.59938 23.7729 9.21009 23.5125L10.5643 22.9356L9.92754 21.4262C9.783 21.4783 9.69058 21.507 9.60073 21.5434C8.68923 21.9198 7.7777 22.3079 6.85057 22.6699C6.75027 22.7157 6.64164 22.7404 6.53139 22.7425C6.42114 22.7446 6.31162 22.724 6.20967 22.682C6.10771 22.64 6.01547 22.5775 5.93868 22.4983C5.86189 22.4192 5.80218 22.3251 5.76326 22.2219C5.59138 21.8013 5.75281 21.3911 6.18773 21.1606C6.31795 21.0929 6.45602 21.0447 6.59014 20.9887L9.2895 19.8622L8.63842 18.3333L1.71228 21.1983C3.7189 26.0337 5.7073 30.826 7.74516 35.7395C8.60458 32.6466 10.4081 30.5213 13.1413 29.1747L12.4772 27.5899ZM20.1364 28.8231C20.1169 28.6643 20.1143 28.5392 20.0869 28.4194C19.6607 26.5963 19.2336 24.7765 18.8056 22.9603C18.5673 21.9471 18.3199 20.9379 18.0921 19.9221C17.9215 19.1642 18.3941 18.6055 19.0595 18.7631C19.4827 18.8621 19.639 19.1902 19.7288 19.5783C20.281 21.9528 20.8365 24.3264 21.3956 26.6991C21.6052 27.5899 21.8188 28.4806 22.0466 29.4339C22.4295 28.8557 22.7785 28.37 23.078 27.8543C23.1966 27.6549 23.2426 27.4207 23.2082 27.1914C22.045 22.1559 20.8708 17.1231 19.6859 12.0929C19.6585 11.9796 19.613 11.8702 19.5817 11.7751C19.1911 12.0681 18.8434 12.3729 18.4528 12.5942C18.1767 12.7518 18.1467 12.9003 18.2197 13.1777C18.3942 13.8379 18.5347 14.506 18.6858 15.1727C18.816 15.7392 18.5973 16.1768 18.1298 16.2979C17.6311 16.4281 17.2183 16.1481 17.0763 15.5556C16.9084 14.8771 16.7613 14.1934 16.5894 13.5162C16.5581 13.3938 16.4592 13.2115 16.3719 13.192C15.8511 13.0813 15.3093 13.011 14.7403 12.9211C15.071 14.3315 15.3979 15.721 15.7234 17.1105C16.5741 20.7508 17.4275 24.3902 18.2834 28.0288C18.3186 28.1798 18.4228 28.3934 18.5439 28.4298C19.0452 28.59 19.5687 28.6942 20.1299 28.8244L20.1364 28.8231ZM32.1956 2.90796C31.9835 4.08386 31.5037 5.19517 30.7933 6.15583C30.0445 7.17681 29.2436 8.16262 28.4194 9.1237C27.2943 10.4351 27.2188 12.3143 28.3243 13.6387C28.4997 13.8389 28.7416 13.9689 29.0053 14.0046C30.3661 14.1166 31.7308 14.17 33.0928 14.2729C33.2349 14.2925 33.3796 14.2686 33.5079 14.2045C33.6362 14.1403 33.742 14.0389 33.8116 13.9134C35.0942 12.0265 35.5787 9.99361 34.9601 7.75501C34.4646 5.92994 33.5107 4.26188 32.1891 2.90927L32.1956 2.90796ZM45.7758 12.9367C44.6364 13.6478 43.6168 14.2677 42.6194 14.9214C42.441 15.0628 42.3153 15.26 42.2626 15.4814C41.924 16.7654 41.6033 18.0538 41.3003 19.3465C41.2464 19.5576 41.2601 19.7804 41.3394 19.9833C41.6941 20.7134 42.301 21.2905 43.048 21.6079C43.7951 21.9253 44.6317 21.9616 45.4034 21.7101C45.6457 21.6096 45.8493 21.4338 45.9841 21.2088C46.6352 20.167 47.2186 19.0757 47.9035 18.0534C48.1574 17.6744 48.2681 17.3632 48.1119 16.9503C48.0835 16.8572 48.0609 16.7624 48.0442 16.6664C47.815 15.6845 47.5845 14.7039 47.3293 13.6126C47.2108 13.8731 47.1404 14.0137 47.0792 14.1609C46.7485 14.954 46.4282 15.7549 46.0857 16.5414C46.0467 16.6449 45.9869 16.7393 45.91 16.8189C45.8332 16.8984 45.7409 16.9614 45.6389 17.004C45.5368 17.0465 45.4271 17.0678 45.3165 17.0664C45.2059 17.065 45.0968 17.041 44.9958 16.9959C44.5973 16.8279 44.4085 16.3943 44.5453 15.9372C44.5935 15.7991 44.6487 15.6634 44.7106 15.5309C45.0531 14.7078 45.3838 13.8887 45.7758 12.9367ZM38.7611 25.5557C40.3005 26.7106 41.5306 28.228 42.342 29.973L44.9893 23.5737C43.105 23.6544 41.6037 23.0124 40.3653 21.6776L38.7611 25.5557ZM14.1764 7.37995C14.1764 8.36838 14.1647 9.25913 14.1869 10.1486C14.212 10.321 14.2941 10.4801 14.42 10.6005C15.1244 11.3415 16.0112 11.6423 16.9917 11.4079C17.9722 11.1735 18.5998 10.4676 18.8837 9.48964C18.9314 9.35527 18.9314 9.20858 18.8837 9.07421C18.4592 8.25638 18.0139 7.44898 17.5542 6.5999C16.5789 7.36954 15.502 7.5714 14.1764 7.37606V7.37995ZM33.0577 20.1279L28.4637 19.8518V23.8198L32.7256 23.2156C32.8311 22.2428 32.9431 21.1684 33.059 20.124L33.0577 20.1279ZM33.1163 15.9528L28.9494 15.7041C28.8465 16.5232 28.7502 17.2876 28.6369 18.194L33.1163 18.4427V15.9528ZM16.7365 5.11402C16.1583 4.04095 15.5919 2.98089 15.0098 1.93126C14.9717 1.87564 14.9221 1.82884 14.8644 1.79402C14.8067 1.7592 14.7422 1.73716 14.6752 1.7294C14.6127 1.7294 14.4786 1.91173 14.4773 2.0133C14.4629 3.22962 14.4682 4.44725 14.4682 5.71175C15.2664 5.92142 16.0437 5.77426 16.7378 5.11011L16.7365 5.11402Z" fill="#92210F"/>
<path d="M25.7477 36.7212C26.8519 36.7472 28.1202 37.3176 29.1072 38.4662C29.3012 38.6915 29.4419 38.7163 29.7166 38.6147C30.6554 38.2642 31.6895 38.2666 32.6265 38.6216C33.5636 38.9767 34.3398 39.6601 34.8106 40.5447C35.1023 41.0955 35.0203 41.5708 34.588 41.8287C34.1556 42.0865 33.6765 41.9159 33.347 41.3547C32.5553 40.0029 31.0292 39.6187 29.7466 40.4431C29.0252 40.9093 28.6515 40.8129 28.214 40.0524C27.8484 39.3977 27.2724 38.8857 26.5793 38.5996C25.8863 38.3135 25.1169 38.2699 24.396 38.4761C23.6751 38.6822 23.045 39.1259 22.608 39.7352C22.1709 40.3445 21.9526 41.0836 21.9884 41.8326C22.0234 42.204 22.1007 42.5701 22.2188 42.9239C22.3881 43.5008 22.2449 43.9332 21.7904 44.1129C21.3138 44.3017 20.8789 44.0673 20.6523 43.4995C19.3697 40.2503 21.8113 36.7199 25.7477 36.7212Z" fill="#172F40"/>
<path d="M31.6564 27.499C31.6564 27.9873 31.3491 28.2921 30.7801 28.3389C29.4506 28.4483 28.4362 29.0578 27.7851 30.2363C27.6587 30.4989 27.5508 30.77 27.4622 31.0477C27.2786 31.5321 26.8879 31.7587 26.436 31.6402C25.9842 31.5217 25.7746 31.1089 25.8697 30.5984C26.2603 28.4913 28.6654 26.5783 30.8022 26.6759C31.3074 26.6994 31.6512 27.0315 31.6564 27.499Z" fill="#172F40"/>
<path d="M11.6726 36.5312C11.7039 34.7953 13.0256 33.0672 14.708 32.5632C15.1637 32.4251 15.5882 32.6075 15.7627 33.0151C15.8097 33.1152 15.8351 33.224 15.8376 33.3345C15.8401 33.4451 15.8195 33.5549 15.7771 33.657C15.7347 33.7591 15.6714 33.8513 15.5914 33.9275C15.5113 34.0038 15.4162 34.0625 15.3122 34.0999C14.1077 34.583 13.4527 35.4503 13.316 36.7396C13.3112 36.8501 13.2836 36.9584 13.2351 37.0578C13.1866 37.1572 13.118 37.2455 13.0339 37.3172C12.9497 37.389 12.8516 37.4426 12.7458 37.4747C12.6399 37.5068 12.5286 37.5168 12.4188 37.504C11.9474 37.4545 11.6622 37.0834 11.6726 36.5312Z" fill="#172F40"/>
<path d="M34.1308 9.05191C34.1305 10.3111 33.7466 11.5403 33.0304 12.5758C32.6736 13.0968 32.2231 13.227 31.7934 12.9509C31.3637 12.6748 31.2973 12.1774 31.6384 11.6708C32.3221 10.655 32.55 9.54026 32.4197 8.33436C32.3481 7.68322 32.5838 7.30686 33.0851 7.23393C33.606 7.1571 33.9797 7.49439 34.0669 8.12989C34.1034 8.43462 34.1152 8.74457 34.1308 9.05191Z" fill="#172F40"/>
</svg>
