<svg width="61" height="60" viewBox="0 0 61 60" fill="none" xmlns="http://www.w3.org/2000/svg">
<path d="M11.1528 0.0124905C11.2153 0.0812262 11.3091 0.139037 11.3356 0.218708C11.4309 0.556138 11.6059 0.912314 11.5574 1.23412C11.4981 1.64029 11.1122 1.77775 10.6982 1.77619C9.05952 1.77619 7.41768 1.77619 5.77896 1.77619C3.27948 1.77619 1.78136 3.28837 1.77979 5.79566C1.77979 10.2458 1.77979 14.6969 1.77979 19.1491C1.77979 21.5814 3.29353 23.0968 5.71803 23.1046C6.67564 23.1046 7.63169 23.1249 8.58774 23.0967C8.82963 23.0782 9.07209 23.1249 9.28973 23.2321C9.50738 23.3393 9.69223 23.5029 9.82499 23.706C10.817 25.0604 11.8308 26.3976 12.8384 27.7395C12.9634 27.9067 13.0978 28.0676 13.2696 28.2832C14.1288 27.1365 14.9458 26.0258 15.7878 24.9323C17.5062 22.6984 16.6533 23.1093 19.4511 23.1046C31.0112 23.0874 42.5713 23.0655 54.1314 23.1233C56.5606 23.1358 58.3164 21.4471 58.2727 18.9648C58.1946 14.5735 58.2524 10.1791 58.2508 5.7863C58.2508 3.28682 56.7371 1.76994 54.2423 1.76994H16.1049C15.9487 1.76994 15.7925 1.76994 15.6363 1.76994C15.1786 1.784 14.699 1.79806 14.4881 1.28098C14.2772 0.763896 14.5084 0.343686 14.9021 0.0078185H55.3233C55.4467 0.0499972 55.5686 0.101538 55.6951 0.132781C57.6822 0.623304 59.0304 1.82306 59.7177 3.75235C59.8396 4.09602 59.913 4.45845 60.0099 4.81151V20.0427C59.9505 20.2677 59.8911 20.491 59.8333 20.716C59.2085 23.1655 57.1402 24.8323 54.5954 24.8464C50.5556 24.8714 46.5158 24.8558 42.476 24.8558C34.5714 24.8558 26.6673 24.8521 18.7638 24.8448C18.2451 24.8448 17.9124 24.9854 17.6046 25.4103C16.4721 26.9725 15.3004 28.5113 14.1397 30.0547C13.5461 30.8358 12.9618 30.8358 12.362 30.0375C11.1794 28.4613 9.98902 26.8897 8.82676 25.2994C8.72806 25.1479 8.59039 25.0258 8.42823 24.9458C8.26606 24.8658 8.08536 24.8309 7.90507 24.8448C6.75688 24.8448 5.58837 24.9136 4.46829 24.7339C1.8782 24.3168 0.0457707 22.0985 0.0332733 19.4678C0.0134857 14.7813 0.0134857 10.0948 0.0332733 5.40825C0.0336234 4.15693 0.468886 2.94464 1.26453 1.97886C2.06018 1.01308 3.16676 0.353865 4.39487 0.114036C4.5015 0.0832147 4.60589 0.0451154 4.70731 0L11.1528 0.0124905Z" fill="#92210F"/>
<path d="M12.0901 60.0002C10.8404 59.6877 9.56094 59.4956 8.37056 59.0457C3.00449 57.0148 -0.513519 51.3317 0.061361 45.7578C0.686231 39.6653 5.03376 34.8679 10.8404 33.8587C18.2295 32.5746 25.0936 37.4861 26.2418 44.8768C27.3682 52.1346 22.0412 59.1019 14.7661 59.8924C14.6146 59.9191 14.4649 59.9551 14.3178 60.0002H12.0901ZM21.8303 54.2201C25.5139 50.146 25.8154 43.0896 21.0492 38.5265C16.4595 34.1321 9.11416 34.3821 4.77912 39.117C0.378475 43.9238 1.27048 50.7037 4.56354 54.178C5.42794 51.4275 7.18071 49.4789 9.82183 48.3323C7.38015 45.3235 7.24112 42.5522 9.39692 40.3824C10.3231 39.44 11.5673 38.8767 12.8865 38.8025C14.2058 38.7283 15.5053 39.1484 16.5314 39.9809C17.5391 40.7755 18.2142 41.9174 18.4247 43.1834C18.7872 45.2454 18.0295 46.9138 16.5189 48.3182C19.2183 49.4992 20.957 51.4644 21.8303 54.2217V54.2201ZM12.8806 58.2365C15.6128 58.2365 18.0451 57.4273 19.9432 56.0291C20.2056 55.8354 20.3321 55.6526 20.2728 55.3058C19.7151 52.0471 16.6923 49.4977 13.3133 49.4539C9.84682 49.4086 6.77402 51.8597 6.12728 55.1699C6.07742 55.3349 6.08505 55.5119 6.1489 55.672C6.21276 55.832 6.32905 55.9657 6.47877 56.051C8.50178 57.4882 10.7435 58.213 12.8806 58.238V58.2365ZM13.193 40.5495C12.2459 40.5495 11.3375 40.9258 10.6678 41.5955C9.99811 42.2652 9.62186 43.1735 9.62186 44.1207C9.62186 45.0678 9.99811 45.9761 10.6678 46.6458C11.3375 47.3156 12.2459 47.6918 13.193 47.6918C14.1401 47.6918 15.0485 47.3156 15.7182 46.6458C16.3879 45.9761 16.7641 45.0678 16.7641 44.1207C16.7641 43.1735 16.3879 42.2652 15.7182 41.5955C15.0485 40.9258 14.1401 40.5495 13.193 40.5495Z" fill="#92210F"/>
<path d="M60.0099 56.368C59.938 56.5445 59.863 56.7195 59.7943 56.896C59.3631 58.0005 58.5711 58.6301 57.3807 58.7316C57.1292 58.7535 56.8746 58.7613 56.6215 58.7613H40.6873C40.4728 58.7658 40.2583 58.7553 40.0453 58.73C39.5844 58.6613 39.3782 58.3567 39.3673 57.9146C39.3532 57.4459 39.5579 57.1179 40.0421 57.0351C40.2742 57.0056 40.5083 56.9957 40.742 57.0054C46.0721 57.0054 51.4023 57.0054 56.7324 57.0054C57.8478 57.0054 58.393 56.4742 58.279 55.5276C58.2611 55.2519 58.1445 54.9918 57.9506 54.795C57.7567 54.5982 57.4983 54.4779 57.2229 54.4559C57.0487 54.4359 56.8734 54.4275 56.6981 54.4309H33.2654C32.3281 54.4309 31.911 54.6934 31.7376 55.3839C31.5283 56.2212 32.0157 56.946 32.878 56.9851C33.8325 57.0288 34.7917 56.9945 35.7477 57.0132C36.357 57.0257 36.6647 57.3069 36.696 57.824C36.7272 58.3411 36.4538 58.7269 35.9321 58.7363C34.723 58.7566 33.5044 58.805 32.3063 58.6847C30.9003 58.5426 29.963 57.2225 29.9989 55.6213C30.027 54.1044 30.9987 52.9188 32.3859 52.7313C32.7342 52.6891 33.0849 52.6703 33.4357 52.675C41.0695 52.675 48.7034 52.675 56.3372 52.675C58.5961 52.675 59.1585 53.0437 60.0052 55.0839L60.0099 56.368Z" fill="#92210F"/>
<path d="M44.8708 40.9541C40.906 40.9541 36.9427 40.926 32.9779 40.9541C30.2129 40.9806 29.4068 38.3609 30.1223 36.6362C30.5472 35.6114 31.3095 35.0147 32.4202 34.8975C32.7504 34.8655 33.0821 34.8514 33.4138 34.8553C41.0684 34.8553 48.7231 34.8553 56.3777 34.8553C56.8646 34.8404 57.3514 34.885 57.8274 34.9881C59.1834 35.3365 60.0145 36.6768 59.8817 38.2062C59.7489 39.7356 58.7288 40.8307 57.2869 40.9041C55.9232 40.9728 54.5547 40.94 53.1878 40.9416C50.4196 40.9541 47.6473 40.9583 44.8708 40.9541ZM44.8286 39.1966H56.4168C56.6504 39.2016 56.884 39.1933 57.1166 39.1716C57.3816 39.1516 57.631 39.0388 57.821 38.8531C58.011 38.6674 58.1294 38.4206 58.1555 38.1562C58.3039 37.1877 57.7462 36.6222 56.6105 36.6222C48.7871 36.6222 40.9643 36.6222 33.142 36.6222C32.9664 36.6233 32.7911 36.6353 32.6171 36.6581C32.3815 36.678 32.1588 36.7737 31.9822 36.9309C31.8056 37.088 31.6847 37.2981 31.6376 37.5298C31.3642 38.4952 31.95 39.1935 33.0654 39.1951C36.9865 39.2003 40.9075 39.2008 44.8286 39.1966Z" fill="#92210F"/>
<path d="M44.9115 49.8582C40.9685 49.8582 37.024 49.8192 33.0795 49.8707C30.2676 49.9082 29.3772 47.1854 30.2551 45.3717C30.4452 44.9384 30.7487 44.5646 31.1337 44.2896C31.5186 44.0146 31.9707 43.8487 32.4422 43.8095C32.7333 43.7793 33.0259 43.7647 33.3186 43.7658C39.0778 43.7658 44.8375 43.7658 50.5978 43.7658H50.7149C51.5851 43.7658 51.9459 44.036 51.9366 44.664C51.9272 45.292 51.5929 45.5217 50.7399 45.5217H38.1457C36.4867 45.5217 34.8261 45.506 33.167 45.5341C32.8011 45.5287 32.4403 45.6209 32.1219 45.8013C31.6252 46.1246 31.5564 46.6777 31.7064 47.2197C31.7595 47.4618 31.8932 47.6786 32.0856 47.8347C32.278 47.9908 32.5178 48.0769 32.7655 48.0789C32.9796 48.0914 33.1936 48.0977 33.4092 48.0977H56.4872C56.7213 48.1031 56.9556 48.0937 57.1886 48.0695C57.8384 47.9883 58.2524 47.4947 58.2556 46.8198C58.2587 46.1449 57.8541 45.6326 57.198 45.5607C56.7153 45.5092 56.2232 45.5357 55.7358 45.5217C55.0437 45.5029 54.7266 45.2342 54.7157 44.6671C54.7048 44.1001 55.0406 43.7767 55.7545 43.7704C56.3204 43.7542 56.8868 43.7694 57.4511 43.8157C58.9507 43.972 59.9662 45.2217 59.9505 46.8432C59.9349 48.4648 58.9007 49.7083 57.3948 49.8114C56.4997 49.8754 55.5999 49.8504 54.7016 49.852C51.4367 49.8582 48.1733 49.8603 44.9115 49.8582Z" fill="#92210F"/>
<path d="M42.0682 17.7372C42.2244 16.8561 42.3682 15.8532 42.5666 14.8612C42.607 14.704 42.6002 14.5385 42.5472 14.3851C42.4941 14.2318 42.3971 14.0974 42.2682 13.9989C41.6074 13.3896 40.981 12.7491 40.3295 12.1243C39.9453 11.7603 39.7437 11.3338 39.8999 10.812C40.0562 10.2903 40.4623 10.0106 41.0247 9.93878C41.9714 9.81537 42.9165 9.67946 43.8554 9.50449C44.0845 9.4475 44.2817 9.30201 44.4037 9.09989C44.8552 8.25944 45.2676 7.39712 45.6831 6.53792C45.9159 6.05677 46.2721 5.75684 46.8173 5.75684C47.3625 5.75684 47.7171 6.06146 47.9498 6.53792C48.3669 7.39556 48.7793 8.25632 49.2308 9.09833C49.3542 9.29737 49.5513 9.43948 49.7791 9.49356C50.7368 9.67165 51.7022 9.806 52.6676 9.94347C52.9021 9.96157 53.1261 10.0487 53.3112 10.1938C53.4963 10.3389 53.6344 10.5355 53.708 10.7589C53.8908 11.2651 53.7268 11.6837 53.3721 12.0368C52.7098 12.6976 52.0412 13.3553 51.357 13.9942C51.0945 14.2394 50.9742 14.4628 51.0617 14.8518C51.2601 15.7438 51.3741 16.6546 51.5413 17.5559C51.6334 18.0761 51.5413 18.5323 51.0992 18.8619C50.6571 19.1915 50.1962 19.1744 49.7245 18.9291C48.9152 18.5011 48.0935 18.0933 47.2984 17.6387C47.1559 17.5422 46.9878 17.4907 46.8157 17.4907C46.6436 17.4907 46.4755 17.5422 46.333 17.6387C45.5003 18.1074 44.6552 18.5542 43.7944 18.9666C42.9337 19.379 42.0464 18.8213 42.0682 17.7372ZM46.811 8.22664C46.4533 8.95149 46.1174 9.58417 45.8268 10.2387C45.7214 10.5127 45.5397 10.7508 45.3033 10.9249C45.0669 11.099 44.7857 11.2019 44.4927 11.2213C43.7851 11.3026 43.0868 11.4213 42.3463 11.5338C42.8821 12.0946 43.3586 12.6273 43.8788 13.1194C44.1027 13.3086 44.2685 13.5573 44.357 13.8368C44.4454 14.1163 44.453 14.4151 44.3787 14.6987C44.2225 15.3923 44.1381 16.1047 44.0038 16.9076C44.7521 16.514 45.3988 16.2 46.0205 15.8422C46.2597 15.6897 46.5375 15.6086 46.8212 15.6086C47.1048 15.6086 47.3826 15.6897 47.6218 15.8422C48.2466 16.1937 48.8871 16.5109 49.6214 16.8951C49.5042 16.1703 49.4479 15.5485 49.2949 14.9518C49.0808 14.1192 49.2746 13.4787 49.9463 12.921C50.4321 12.5226 50.8555 12.0461 51.3772 11.5353C50.5259 11.4119 49.8151 11.2932 49.1011 11.2088C48.8182 11.1881 48.5469 11.0874 48.319 10.9184C48.0911 10.7494 47.9159 10.5191 47.8139 10.2543C47.5218 9.60292 47.1797 8.96868 46.811 8.22664Z" fill="#92210F"/>
<path d="M8.45642 17.7462C8.61263 16.7964 8.80322 15.781 8.94225 14.7577C8.95282 14.642 8.94046 14.5253 8.90588 14.4143C8.8713 14.3033 8.81519 14.2003 8.74074 14.111C8.094 13.4346 7.41132 12.7925 6.7349 12.1442C6.34123 11.7662 6.11002 11.3397 6.30061 10.7851C6.49119 10.2306 6.89268 10.004 7.44726 9.93686C8.37519 9.81814 9.30156 9.68535 10.2201 9.50883C10.4645 9.44479 10.6741 9.28782 10.8044 9.07141C11.2512 8.24971 11.6542 7.40458 12.0541 6.56257C12.2853 6.08298 12.6305 5.77211 13.1773 5.7643C13.7506 5.75649 14.1146 6.07673 14.3474 6.58131C14.7332 7.38896 15.1503 8.1841 15.5315 8.99487C15.6877 9.31824 15.858 9.50258 16.2517 9.54475C17.1999 9.64786 18.1419 9.82127 19.087 9.9603C19.3219 9.98239 19.5447 10.0749 19.7261 10.2257C19.9076 10.3765 20.0393 10.5786 20.104 10.8054C20.2602 11.285 20.104 11.6943 19.7697 12.0333C19.0776 12.7207 18.3637 13.3815 17.6842 14.0876C17.521 14.2796 17.4407 14.5284 17.4608 14.7796C17.5764 15.6872 17.7482 16.587 17.9091 17.49C18.0029 18.0211 17.9576 18.5116 17.4952 18.8631C17.0328 19.2146 16.5251 19.1756 16.0173 18.8944C15.2488 18.4726 14.4552 18.0899 13.6944 17.6603C13.3554 17.4697 13.0851 17.44 12.7274 17.6446C11.901 18.1133 11.0527 18.5632 10.1936 18.9772C9.29843 19.4115 8.41892 18.8053 8.45642 17.7462ZM8.68292 11.5365C9.225 12.0817 9.67805 12.5894 10.1858 13.0331C10.7481 13.5268 10.9122 14.0891 10.745 14.8109C10.5888 15.4592 10.5232 16.1246 10.3982 16.8948C11.1246 16.5152 11.7417 16.2262 12.3228 15.8778C12.5829 15.7041 12.8887 15.6114 13.2015 15.6114C13.5143 15.6114 13.8201 15.7041 14.0802 15.8778C14.6723 16.2231 15.2956 16.5152 16.0158 16.8885C15.8783 16.0809 15.7799 15.4092 15.644 14.7452C15.5081 14.0813 15.6268 13.5689 16.1454 13.1143C16.6641 12.6597 17.1702 12.1223 17.7592 11.5521C16.9343 11.4319 16.2314 11.3131 15.5237 11.2319C15.2311 11.2125 14.9503 11.1098 14.7142 10.936C14.4781 10.7622 14.2966 10.5244 14.1912 10.2509C13.9022 9.59631 13.5663 8.96519 13.2007 8.24191C12.8227 9.00425 12.4806 9.6791 12.1525 10.3618C12.0597 10.5876 11.9076 10.7843 11.7125 10.9311C11.5173 11.0779 11.2862 11.1694 11.0434 11.196C10.2935 11.2835 9.54056 11.4069 8.68292 11.5365Z" fill="#92210F"/>
<path d="M36.9553 11.3727C36.8386 11.627 36.6906 11.8658 36.5148 12.0835C35.8899 12.749 35.2291 13.3957 34.548 14.0097C34.2356 14.2877 34.1949 14.5658 34.2652 14.947C34.4339 15.8483 34.5777 16.7544 34.7339 17.6558C34.8229 18.165 34.6933 18.5931 34.2652 18.8961C33.8372 19.1992 33.392 19.1976 32.9405 18.9617C32.111 18.529 31.2752 18.1072 30.4598 17.6464C30.3247 17.5555 30.1656 17.507 30.0028 17.507C29.8401 17.507 29.681 17.5555 29.5459 17.6464C28.7476 18.0963 27.9244 18.5009 27.1152 18.9305C26.6465 19.1789 26.1779 19.2211 25.7404 18.8915C25.303 18.5618 25.1765 18.1338 25.2718 17.598C25.4436 16.6982 25.5686 15.789 25.7404 14.8907C25.7836 14.7334 25.7795 14.5669 25.7287 14.4119C25.6778 14.2568 25.5825 14.1202 25.4546 14.019C24.7797 13.3942 24.1423 12.7349 23.4784 12.1022C23.0879 11.7289 22.9254 11.2946 23.091 10.7791C23.2566 10.2636 23.6503 10.0198 24.1845 9.94955C25.1125 9.82614 26.0341 9.65587 26.9636 9.54652C27.1064 9.54093 27.2444 9.49354 27.3605 9.41023C27.4766 9.32691 27.5656 9.21135 27.6166 9.07787C28.0056 8.24835 28.4289 7.43447 28.8226 6.60808C29.0601 6.10974 29.4053 5.77231 29.9818 5.76763C30.5582 5.76294 30.9097 6.10036 31.1487 6.59557C31.5549 7.43758 31.9563 8.28429 32.3984 9.10756C32.4588 9.20688 32.5382 9.29332 32.632 9.36194C32.7258 9.43057 32.8322 9.48001 32.9452 9.50746C33.9231 9.68868 34.912 9.81053 35.893 9.97612C36.5851 10.0777 36.9678 10.5369 36.9553 11.3727ZM27.1933 16.9028C27.9509 16.506 28.6149 16.1779 29.2585 15.8093C29.4829 15.6699 29.7418 15.5961 30.006 15.5961C30.2701 15.5961 30.529 15.6699 30.7535 15.8093C31.4127 16.1748 32.0891 16.5107 32.8202 16.8903C32.7343 16.3748 32.7249 15.9124 32.5797 15.4984C32.1235 14.1955 32.5578 13.2395 33.6185 12.4615C33.9434 12.2225 34.2043 11.896 34.5683 11.5367C33.7122 11.4133 33.0202 11.2962 32.3235 11.2243C32.0304 11.2044 31.7491 11.1009 31.5132 10.9258C31.2772 10.7508 31.0965 10.5117 30.9925 10.237C30.705 9.59027 30.3676 8.96382 30.0083 8.23116C29.6099 9.03412 29.2725 9.71212 28.9413 10.3932C28.8484 10.6091 28.6998 10.7963 28.5107 10.9358C28.3215 11.0752 28.0987 11.1619 27.865 11.1868C27.098 11.2883 26.3356 11.4164 25.5467 11.5367C26.0966 12.11 26.6074 12.6631 27.1386 13.1942C27.5276 13.5816 27.701 14.005 27.5869 14.5642C27.4338 15.3016 27.3323 16.0514 27.1933 16.9028Z" fill="#92210F"/>
</svg>
