<svg width="50" height="50" viewBox="0 0 50 50" fill="none" xmlns="http://www.w3.org/2000/svg">
<path d="M0 0H49.9543V37.0906H49.3465C43.3801 37.0906 37.4146 37.0906 31.45 37.0906C31.1857 37.0876 30.9241 37.1446 30.6849 37.2573C26.6323 39.289 22.6443 39.2016 18.7181 36.9306C18.6186 36.8727 18.515 36.8217 18.4303 36.7759L16.8424 38.3612L18.1009 39.4288C17.9221 39.6224 17.832 39.7219 17.7446 39.8147C14.799 42.763 11.8517 45.709 8.90254 48.6527C6.94213 50.6024 3.96655 50.4074 2.38934 48.2493C1.14828 46.5511 1.33249 44.2922 2.86936 42.7365C4.57968 41.0006 6.31152 39.2876 8.03394 37.5639C8.15899 37.4375 8.27731 37.3057 8.46017 37.1107H0V0ZM46.7582 25.8068H37.0556C37.1636 27.587 36.8814 29.3694 36.2287 31.0292C35.556 32.697 34.533 34.201 33.2289 35.4394H48.3435V8.07965H1.61351V35.4771C4.38875 35.4771 7.12634 35.4771 9.86527 35.465C10.0578 35.4417 10.2359 35.3512 10.3681 35.2095C10.9235 34.6542 11.4559 34.0773 12.1269 33.3714L13.1891 34.716L14.7905 33.1146C13.3934 30.94 12.7281 28.3756 12.8919 25.796H3.19206C3.07105 22.1078 4.68187 19.5692 8.02049 18.113C5.70914 15.8272 6.17571 12.8301 7.7314 11.1951C8.5607 10.3079 9.69393 9.76591 10.9051 9.67719C12.1163 9.58847 13.3164 9.95954 14.2661 10.7164C14.7657 11.1044 15.1821 11.589 15.4905 12.1414C15.7989 12.6937 15.993 13.3024 16.0612 13.9313C16.2548 15.5704 15.6685 16.9472 14.4907 18.117L15.7855 18.7261C18.273 15.9818 21.3199 14.5028 25.0081 14.5122C28.6963 14.5216 31.731 16.0248 34.1701 18.7302L35.4246 18.1264C33.3768 15.4534 33.3432 12.9619 35.3157 11.0404C36.1639 10.2081 37.2898 9.71869 38.4769 9.66632C39.6641 9.61395 40.8288 10.0023 41.7469 10.7567C42.7173 11.5329 43.3421 12.6607 43.4855 13.895C43.6912 15.5542 43.1036 16.9445 41.923 18.1143C45.2791 19.588 46.8631 22.1185 46.7582 25.8068ZM48.3462 1.6283H1.61351V6.40833H48.3462V1.6283ZM35.4609 26.5799C35.4564 24.5056 34.8369 22.4792 33.6807 20.7571C32.5245 19.0349 30.8836 17.6942 28.9655 16.9046C27.0474 16.115 24.9382 15.9119 22.9046 16.321C20.8711 16.7301 19.0045 17.733 17.541 19.203C16.0774 20.6729 15.0826 22.5438 14.6824 24.5791C14.2822 26.6144 14.4944 28.7227 15.2924 30.6374C16.0904 32.5521 17.4382 34.1871 19.1654 35.3358C20.8926 36.4844 22.9217 37.0951 24.996 37.0906C27.7761 37.0799 30.4386 35.9676 32.4002 33.9975C34.3617 32.0274 35.4624 29.36 35.4609 26.5799ZM15.6578 39.5969L11.979 35.8925C10.7083 37.1659 9.40408 38.4742 8.09848 39.7811C6.72296 41.1593 5.33265 42.5268 3.96789 43.9198C3.71676 44.1635 3.51787 44.4558 3.38334 44.7789C3.2488 45.102 3.18143 45.4491 3.18533 45.799C3.18923 46.149 3.26432 46.4945 3.40602 46.8145C3.54772 47.1345 3.75307 47.4223 4.00957 47.6604C5.05701 48.6648 6.63287 48.6299 7.71796 47.5515C10.3175 44.969 12.9081 42.3797 15.4897 39.7838C15.5704 39.7031 15.643 39.6144 15.6578 39.5969ZM4.88087 24.1206C4.93196 24.1435 4.94675 24.1569 4.96289 24.1569C7.59695 24.1664 10.2323 24.1785 12.8664 24.1677C12.9753 24.1677 13.1353 23.9714 13.1824 23.8356C13.5212 22.9629 13.8197 22.0742 14.168 21.2042C14.3266 20.8103 14.5713 20.4499 14.804 20.0143C14.3401 19.8435 13.93 19.6001 13.497 19.5517C12.4509 19.4347 11.3954 19.3688 10.3439 19.3541C9.20865 19.3439 8.1014 19.7067 7.19222 20.3867C6.57224 20.8181 6.04727 21.372 5.64973 22.0142C5.25219 22.6564 4.99052 23.3733 4.88087 24.1206ZM45.0936 24.1825C44.6902 22.1387 43.6334 20.7013 41.8182 19.8516C40.292 19.1376 38.6705 19.2976 37.065 19.4186C36.3804 19.4761 35.7218 19.7075 35.1517 20.0909C35.9053 21.2462 36.4471 22.5265 36.7517 23.8719C36.827 24.2148 37.0207 24.1906 37.2573 24.1906C38.8861 24.1906 40.5148 24.1906 42.1436 24.1906L45.0936 24.1825ZM14.4839 14.5216C14.4879 13.8838 14.3028 13.2592 13.952 12.7266C13.6012 12.1939 13.1004 11.7772 12.5129 11.529C11.9254 11.2808 11.2775 11.2122 10.6511 11.3319C10.0247 11.4517 9.44777 11.7544 8.99324 12.2018C8.53872 12.6492 8.22695 13.2212 8.09733 13.8457C7.9677 14.4701 8.02601 15.119 8.26491 15.7104C8.50381 16.3017 8.91258 16.809 9.4396 17.1682C9.96662 17.5274 10.5883 17.7223 11.226 17.7284C11.6507 17.7325 12.072 17.6527 12.4658 17.4936C12.8596 17.3346 13.2181 17.0993 13.5207 16.8014C13.8234 16.5035 14.0643 16.1487 14.2296 15.7575C14.3949 15.3663 14.4813 14.9463 14.4839 14.5216ZM38.6866 11.2771C38.0488 11.2771 37.4253 11.4661 36.8949 11.8202C36.3644 12.1743 35.9508 12.6777 35.7063 13.2667C35.4617 13.8558 35.3972 14.504 35.5208 15.1297C35.6445 15.7554 35.9507 16.3304 36.401 16.7822C36.8512 17.2339 37.4252 17.5421 38.0505 17.6678C38.6757 17.7935 39.3243 17.7312 39.9141 17.4886C40.5039 17.246 41.0087 16.834 41.3646 16.3048C41.7204 15.7755 41.9115 15.1527 41.9136 14.5149C41.9152 14.0902 41.833 13.6694 41.6716 13.2765C41.5102 12.8837 41.2729 12.5266 40.9732 12.2257C40.6735 11.9248 40.3174 11.6859 39.9253 11.5229C39.5331 11.3599 39.1126 11.2759 38.688 11.2757L38.6866 11.2771ZM16.9849 35.8025L15.8541 34.6206L14.5337 35.9006L15.6685 37.0785L16.9849 35.8025Z" fill="#92210F"/>
<path d="M3.21497 28.9881V27.4297H11.218V28.9827L3.21497 28.9881Z" fill="#172F40"/>
<path d="M38.7136 27.4297H46.722V28.9961H38.7136V27.4297Z" fill="#92210F"/>
<path d="M11.2354 30.6714V32.2231H3.22705V30.6714H11.2354Z" fill="#172F40"/>
<path d="M38.7123 32.2151V30.6567H46.7153V32.2098L38.7123 32.2151Z" fill="#172F40"/>
<path d="M20.965 9.68115H22.5193V11.2449H20.965V9.68115Z" fill="#172F40"/>
<path d="M24.1932 9.68115H25.7449V11.2409H24.1932V9.68115Z" fill="#172F40"/>
<path d="M28.9693 11.2543H27.4297V9.68115H28.976L28.9693 11.2543Z" fill="#172F40"/>
<path d="M4.7935 3.24854V4.78137H3.22705V3.24854H4.7935Z" fill="#172F40"/>
<path d="M6.4541 3.22705H8.00038V4.7935H6.4541V3.22705Z" fill="#172F40"/>
<path d="M11.2502 3.23779V4.78004H9.68103V3.23779H11.2502Z" fill="#172F40"/>
<path d="M33.8475 26.6227C33.844 28.3772 33.3206 30.0912 32.3434 31.5483C31.3662 33.0053 29.979 34.1401 28.3571 34.8091C26.7353 35.4781 24.9515 35.6513 23.2312 35.3069C21.5109 34.9625 19.9313 34.116 18.6919 32.8742C17.4526 31.6324 16.6091 30.0511 16.2681 28.3301C15.9271 26.6092 16.1039 24.8257 16.7761 23.2052C17.4483 21.5846 18.5857 20.1997 20.0447 19.2253C21.5037 18.251 23.2187 17.731 24.9732 17.731C27.3284 17.7356 29.5856 18.6744 31.2493 20.3415C32.9131 22.0085 33.8475 24.2675 33.8475 26.6227ZM17.7124 26.5878C17.7095 28.0229 18.1319 29.4267 18.9264 30.6219C19.7208 31.8171 20.8516 32.75 22.176 33.3029C23.5004 33.8557 24.9589 34.0037 26.3673 33.7282C27.7757 33.4526 29.0709 32.7659 30.0893 31.7546C31.1076 30.7434 31.8034 29.4531 32.0889 28.0467C32.3743 26.6402 32.2366 25.1807 31.693 23.8525C31.1495 22.5243 30.2245 21.3869 29.035 20.5841C27.8454 19.7813 26.4446 19.349 25.0095 19.3418C23.082 19.3364 21.2311 20.0962 19.8632 21.4542C18.4953 22.8122 17.7223 24.6576 17.7137 26.5851L17.7124 26.5878Z" fill="#92210F"/>
<path d="M20.965 24.1539V22.605H28.9734V24.1539H20.965Z" fill="#172F40"/>
<path d="M28.984 25.8311V27.384H20.9756V25.8311H28.984Z" fill="#172F40"/>
<path d="M28.9773 30.6122H20.9756V29.0552H28.9746L28.9773 30.6122Z" fill="#172F40"/>
</svg>
