<svg width="61" height="60" viewBox="0 0 61 60" fill="none" xmlns="http://www.w3.org/2000/svg">
<path d="M13.7113 22.4871C13.6949 23.6285 13.6789 24.7691 13.6633 25.909C13.4711 25.8832 13.368 25.7297 13.2449 25.609C11.5469 23.9496 9.84647 22.2949 8.15779 20.6262C7.82188 20.2689 7.35875 20.0584 6.86873 20.0402C6.04842 20.0133 5.24336 20.0227 4.42656 19.9406C2.81758 19.7801 1.63046 19.0113 0.756241 17.6859C0.35546 17.0789 0.196094 16.3863 0.00390625 15.7031V4.10156C0.293359 3.04688 0.72226 2.07187 1.55078 1.29961C2.28554 0.615234 3.17031 0.269531 4.10547 0H28.7148C28.7887 0.117188 28.9141 0.0984371 29.0254 0.127734C30.148 0.42539 31.0879 0.986719 31.8074 1.93008C32.2012 2.4457 32.3699 2.95781 32.0769 3.54492C31.7969 4.10859 31.2566 4.12266 30.7129 4.10742C29.4484 4.07109 28.1746 4.06172 26.9629 4.44609C23.7027 5.47852 21.6894 8.26992 21.6894 11.6941C21.6894 13.977 21.6894 16.259 21.6894 18.5402C21.6894 19.5352 21.1891 20.0344 20.1824 20.0367C18.8371 20.0367 17.4871 20.1129 16.1465 20.0145C14.9207 19.9254 13.5133 21.1816 13.7113 22.4871Z" fill="#8CAFFE"/>
<path d="M39.3986 52.5037C40.5529 50.8045 42.1584 49.7604 44.1166 49.1967C44.8408 48.9881 45.5393 48.6893 46.2495 48.4303C47.6557 48.0881 49.0854 48.1865 50.5104 48.1572L52.0748 48.4326L54.8428 49.4369C54.8428 49.71 55.0643 49.833 55.2189 49.9994C56.5631 51.4338 57.292 53.1201 57.3061 55.0947C57.3166 56.7295 57.3061 58.3654 57.3061 60.0002H38.3217C38.3217 59.1248 38.3475 58.2424 38.303 57.374C38.2174 55.6443 38.5045 54.0084 39.3986 52.5037Z" fill="#636363"/>
<path d="M0.00341797 53.3204C0.32334 52.6302 0.885841 52.411 1.61592 52.4145C4.29131 52.4251 6.96553 52.4087 9.64092 52.4028H28.6018L28.719 52.4509C29.5569 52.4931 30.3948 52.5681 31.2292 52.4075H31.3687L36.6843 52.4497C36.253 53.6392 35.864 54.838 35.864 56.1235C35.864 57.1724 35.6073 57.4267 34.5503 57.4267H0.00341797V53.3204Z" fill="#FD933C"/>
<path d="M0.00351906 57.4217H34.5492C35.6039 57.4217 35.8594 57.1674 35.8629 56.1185C35.8629 54.8295 36.2554 53.6342 36.6832 52.4447C37.5879 52.4107 38.4949 52.2959 39.3949 52.5033C38.5008 54.008 38.2137 55.6439 38.3015 57.3736C38.3461 58.2478 38.3156 59.1244 38.3203 59.9998H0.820313C0.485185 59.7959 0.203872 59.5146 0 59.1795L0.00351906 57.4217Z" fill="#F17D27"/>
<path d="M52.9817 6.58257C53.9742 6.58961 54.9738 6.46539 55.9582 6.6564C58.0395 7.06539 59.3309 8.32515 59.891 10.3584C59.9214 10.4262 59.9609 10.4897 60.0082 10.547V24.9611C59.7856 25.6209 59.5992 26.2947 59.1879 26.8759C58.1696 28.322 56.7621 29.0416 55.0102 29.0498C51.0903 29.065 47.1692 29.0498 43.2481 29.0498C43.0137 29.0498 42.7793 29.0627 42.5449 29.0685C42.3938 27.5814 43.7251 26.2794 45.2555 26.331C48.2766 26.433 51.3024 26.3638 54.3258 26.3603C56.093 26.3603 56.9907 24.9435 56.9754 23.7189C56.9227 19.6173 56.9754 15.5252 56.9438 11.4283C56.9297 9.75484 56.2067 8.40718 54.8192 7.41695C54.2508 7.01734 53.5817 6.89078 52.9817 6.58257Z" fill="#F8C546"/>
<path d="M31.8786 0C32.7376 0.294141 33.5861 0.602344 34.2646 1.25156C35.3134 2.25469 35.8876 3.45469 35.8642 4.92188C35.8548 5.46562 35.8642 6.00937 35.8642 6.55312C33.5849 6.56133 31.3044 6.55313 29.0251 6.58125C26.4107 6.61523 24.2204 8.61797 24.1759 11.1656C24.1067 14.8277 24.1642 18.4922 24.1677 22.1555L24.1501 22.4801L24.122 22.4895H13.7146C13.5165 21.184 14.9239 19.9277 16.1427 20.0168C17.4821 20.1152 18.838 20.0414 20.1786 20.0391C21.1853 20.0391 21.6856 19.5375 21.6856 18.5426C21.6856 16.2605 21.6856 13.9785 21.6856 11.6965C21.6856 8.27227 23.6989 5.48555 26.9591 4.44844C28.1755 4.06406 29.4493 4.07344 30.7091 4.10977C31.2563 4.125 31.7931 4.10977 32.0732 3.54727C32.3661 2.96133 32.1974 2.44805 31.8036 1.93242C31.0841 0.994922 30.1442 0.427734 29.0216 0.130078C28.9103 0.100781 28.7872 0.117187 28.7111 0.00234336L31.8786 0Z" fill="#669AF6"/>
<path d="M0.00361443 15.7031C0.195802 16.3863 0.355168 17.0789 0.755949 17.6859C1.63017 19.0113 2.81729 19.7801 4.42627 19.9406C5.24658 20.0227 6.05399 20.0133 6.86844 20.0402C7.35846 20.0584 7.82158 20.2689 8.1575 20.6262C9.845 22.2949 11.5466 23.9496 13.2446 25.609C13.3618 25.7262 13.4708 25.8832 13.663 25.909C13.7802 26.4422 13.568 26.8289 13.1052 27.0727C12.6095 27.334 12.2075 27.1336 11.8477 26.7703C10.9677 25.8844 9.98915 25.0746 9.2204 24.1008C8.16571 22.7613 6.89422 22.2152 5.22664 22.4789C4.72391 22.5586 4.21533 22.4414 3.72549 22.3148C1.86455 21.8344 0.700865 20.6309 0.13485 18.8191C0.100865 18.7113 0.134863 18.5848 0.00244141 18.5156L0.00361443 15.7031Z" fill="#679BF6"/>
<path d="M57.308 59.9998C57.308 58.3592 57.3162 56.7291 57.308 55.0943C57.294 53.1197 56.5651 51.4334 55.2209 49.999C55.0662 49.8326 54.8424 49.7096 54.8447 49.4365C57.5951 50.3318 59.2404 52.2256 59.8838 55.0217C59.9072 55.126 59.8498 55.2631 60.001 55.3123V59.1795C59.7893 59.5084 59.5096 59.7881 59.1807 59.9998H57.308Z" fill="#4A4A4A"/>
<path d="M24.1653 22.1556C24.1653 18.4923 24.1044 14.8278 24.1735 11.1657C24.2216 8.61807 26.4083 6.61533 29.0228 6.58135C31.3021 6.55088 33.5825 6.56143 35.8618 6.55322L46.0876 6.57197L52.9817 6.58252C53.5817 6.89072 54.2532 7.01728 54.8204 7.42275C56.2079 8.41299 56.9298 9.7665 56.9451 11.4341C56.979 15.5356 56.9239 19.6278 56.9767 23.7247C56.9919 24.9493 56.0942 26.3626 54.3271 26.3661C51.3036 26.3661 48.2778 26.4388 45.2568 26.3368C43.7263 26.2853 42.395 27.5872 42.5462 29.0743C42.5384 30.1267 42.531 31.1786 42.524 32.2302C42.2579 32.2091 42.1326 31.9888 41.972 31.8282C40.4392 30.3009 38.9095 28.7708 37.3829 27.238C37.1086 26.9504 36.7774 26.7231 36.4104 26.5705C36.0434 26.418 35.6486 26.3436 35.2513 26.3521C32.9368 26.3286 30.6142 26.5431 28.3091 26.2407C26.4399 25.9958 25.1626 24.9341 24.4665 23.1751C24.4032 23.0134 24.4349 22.7567 24.1572 22.738C24.1443 22.6548 24.1325 22.5716 24.1196 22.4896L24.1478 22.4813C24.3107 22.3806 24.2755 22.2704 24.1653 22.1556Z" fill="#FED564"/>
<path d="M28.6018 52.3991H9.64084C9.67482 50.6718 9.43341 48.928 9.83888 47.2229C10.4354 44.7187 11.9588 42.9808 14.3576 42.0386C15.0209 41.7784 15.6736 41.4679 16.3967 41.3882C16.9076 42.3011 17.4115 43.2187 17.9307 44.1269C18.7627 45.5847 19.6053 47.0366 20.4771 48.5483C20.5545 48.4405 20.5943 48.396 20.6201 48.348L24.615 41.3706C25.1471 41.4515 25.6369 41.6683 26.1385 41.8464C26.1443 42.1194 26.3729 42.2343 26.5299 42.4007C27.8448 43.821 28.6158 45.4604 28.6018 47.4315C28.5865 49.0897 28.6006 50.7444 28.6018 52.3991Z" fill="#636363"/>
<path d="M17.4715 40.8903C15.8825 39.6235 15.2684 37.9489 15.3493 35.9544C15.3997 34.7146 15.259 33.4653 15.784 32.2747C16.5657 30.4993 17.945 29.5325 19.8118 29.188C19.8118 29.4071 19.9958 29.4095 20.1352 29.4599C21.7571 30.0388 22.7743 31.1896 23.3087 32.8021C23.7118 34.0185 23.543 35.2747 23.5512 36.5146C23.5723 38.8021 22.2891 40.6642 20.1727 41.495C20.0208 41.5337 19.8847 41.6189 19.7836 41.7388C18.9165 41.7165 18.2122 41.256 17.4715 40.8903Z" fill="#FDCBC0"/>
<path d="M50.51 48.157C49.085 48.1863 47.653 48.0879 46.2491 48.4301C44.8311 47.5172 44.1104 46.1848 44.0776 44.5289C44.0518 43.248 43.9323 41.9578 44.1748 40.6805C44.5405 38.7562 46.3076 37.0898 48.2893 36.8027C48.4451 36.8742 48.5963 36.9598 48.758 37.0148C50.0881 37.4836 51.0467 38.3461 51.6877 39.6023C52.1436 40.4895 52.174 41.4234 52.1565 42.3797C52.1365 43.3172 52.1987 44.2547 52.0967 45.1758C51.9655 46.3547 51.2858 47.2934 50.51 48.157Z" fill="#FDCBC0"/>
<path d="M24.157 22.7378C24.4347 22.7565 24.403 23.0132 24.4663 23.1749C25.1624 24.9327 26.4398 25.9956 28.3089 26.2405C30.614 26.5429 32.9367 26.3284 35.2511 26.3519C35.6485 26.3434 36.0432 26.4178 36.4102 26.5704C36.7772 26.7229 37.1084 26.9502 37.3828 27.2378C38.9046 28.7753 40.4343 30.3054 41.9718 31.828C42.1324 31.9886 42.2578 32.2089 42.5238 32.23C42.5367 32.3659 42.5543 32.5019 42.5601 32.6378C42.5847 33.1065 42.4253 33.4851 41.9659 33.6749C41.5066 33.8647 41.1363 33.7136 40.8034 33.3784C39.5144 32.0776 38.2019 30.7886 36.9198 29.4772C36.7931 29.334 36.6361 29.2208 36.4601 29.1458C36.2842 29.0709 36.0938 29.0359 35.9027 29.0437C33.696 29.0671 31.4894 29.0261 29.2839 29.0612C26.182 29.1105 23.98 26.6144 24.1406 23.905C24.164 23.5183 24.1523 23.128 24.157 22.7378Z" fill="#F8C647"/>
<path d="M17.4715 40.8904C18.2121 41.2561 18.9164 41.7166 19.7836 41.7389C19.9324 41.8631 20.1117 41.8232 20.2828 41.835C21.4899 41.9217 22.5398 41.474 23.5488 40.8799C23.8441 41.174 24.3141 41.0932 24.6152 41.3744L20.618 48.3518C20.5898 48.3998 20.5523 48.4443 20.475 48.5521C19.6031 47.0404 18.7605 45.5885 17.9285 44.1307C17.4094 43.2225 16.9055 42.3049 16.3945 41.392C16.691 41.0873 17.168 41.174 17.4715 40.8904Z" fill="#DCF3FD"/>
<path d="M23.5474 40.8795C22.5385 41.4737 21.4884 41.9213 20.2814 41.8346C20.1103 41.8229 19.9299 41.8627 19.7822 41.7385C19.8833 41.6187 20.0193 41.5334 20.1713 41.4948C22.2877 40.6639 23.5697 38.7995 23.5498 36.5143C23.5381 35.2745 23.7104 34.0182 23.3072 32.8018C22.7729 31.1893 21.7557 30.0385 20.1338 29.4596C19.9943 29.4092 19.8103 29.4069 19.8103 29.1877C22.9088 28.8362 25.038 30.8729 25.4236 32.9706C25.8314 35.1971 26.0459 37.4635 24.7627 39.5495C24.4428 40.0721 23.9599 40.4424 23.5474 40.8795Z" fill="#F8B3A8"/>
<path d="M28.602 52.3993C28.602 50.7446 28.5902 49.0899 28.602 47.4353C28.616 45.4642 27.845 43.8247 26.5301 42.4044C26.3766 42.238 26.1445 42.1231 26.1387 41.8501C29.2652 42.8063 31.2949 45.5263 31.3746 48.8884C31.4016 50.0603 31.3746 51.2321 31.3746 52.404H31.2352C30.3973 52.3935 29.5594 52.3079 28.725 52.4474L28.602 52.3993Z" fill="#4B4B4B"/>
<path d="M50.5102 48.1571C51.286 47.2934 51.9657 46.3547 52.0946 45.1758C52.1965 44.2536 52.1344 43.3125 52.1543 42.3797C52.1754 41.4235 52.1449 40.4895 51.6855 39.6024C51.0422 38.3461 50.0836 37.479 48.7559 37.0149C48.5953 36.9598 48.4441 36.8743 48.2871 36.8028C49.5047 36.6598 50.6801 36.7442 51.7571 37.4133C53.3497 38.4047 54.2356 39.8227 54.2497 41.7071C54.259 42.9704 54.4313 44.2524 54.1254 45.4969C53.8196 46.7415 53.1879 47.7575 52.0723 48.4325L50.5102 48.1571Z" fill="#F8B3A8"/>
<path d="M28.7217 52.4471C29.5561 52.3077 30.3939 52.3932 31.2318 52.4038C30.3975 52.569 29.5596 52.4893 28.7217 52.4471Z" fill="#636363"/>
<path d="M24.165 22.1553C24.2752 22.2725 24.3104 22.3803 24.1475 22.4811L24.165 22.1553Z" fill="#F8C647"/>
</svg>
