<svg width="60" height="60" viewBox="0 0 60 60" fill="none" xmlns="http://www.w3.org/2000/svg">
<path d="M59.9922 58.6778C59.572 59.5087 58.8848 59.7414 57.9789 59.7414C39.3172 59.7237 20.655 59.719 1.99227 59.7274C0.488152 59.7274 0.0320665 59.2463 0.0117617 57.725C-0.0413432 53.9171 -0.0772547 53.9342 3.77285 53.9936C4.71 54.0092 5.64713 53.9936 6.64987 53.9936V51.0385C6.64987 50.6293 6.6405 50.2185 6.64987 49.8092C6.67174 49.2485 7.00755 48.8799 7.48393 48.8612C7.96031 48.8424 8.37578 49.2267 8.38828 49.7983C8.41171 50.8713 8.39766 51.9444 8.39922 53.019V53.9421H16.6961V42.0716H8.41015V44.8283C8.41015 45.0626 8.41015 45.2969 8.41015 45.5312C8.37735 46.1762 8.0431 46.5324 7.498 46.5152C6.95289 46.498 6.67174 46.1622 6.66549 45.5234C6.65299 44.2926 6.64675 43.0634 6.66549 41.8341C6.68111 40.8376 7.2512 40.2816 8.24614 40.2722C11.1148 40.2649 13.9846 40.2649 16.8554 40.2722C17.9347 40.2722 18.4985 40.8455 18.5079 41.9482C18.5188 43.4117 18.5079 44.8767 18.5079 46.3402V53.9405H24.0808V32.7766C24.0742 32.5428 24.0795 32.3087 24.0964 32.0753C24.1807 31.2163 24.7383 30.6837 25.6036 30.6805C28.5327 30.6701 31.4613 30.6701 34.3894 30.6805C35.289 30.6805 35.8466 31.2163 35.9279 32.1081C35.9466 32.3206 35.9388 32.5361 35.9388 32.7516C35.9388 39.5647 35.9388 46.3777 35.9388 53.1908V53.9717H41.5117V53.233C41.5117 42.6724 41.5117 32.1113 41.5117 21.5496C41.5037 21.2772 41.5226 21.0046 41.5679 20.7359C41.6169 20.4335 41.7656 20.1561 41.9903 19.9478C42.215 19.7395 42.5028 19.6123 42.8081 19.5863C43.3727 19.5434 43.9397 19.5434 44.5043 19.5863C44.9979 19.6207 45.2759 19.9487 45.3118 20.436C45.3156 20.5489 45.2968 20.6614 45.2567 20.767C45.2166 20.8726 45.1559 20.9692 45.0782 21.0512C45.0004 21.1331 44.9072 21.1988 44.8038 21.2444C44.7005 21.2901 44.5891 21.3147 44.4762 21.3169C44.1076 21.3435 43.7358 21.3169 43.3157 21.3169V53.9608H51.5688V21.3169H49.1963C48.962 21.3276 48.7272 21.3234 48.4934 21.3044C48.003 21.2388 47.7125 20.9467 47.7031 20.4485C47.6937 19.9502 47.9952 19.5988 48.484 19.5832C49.693 19.5457 50.905 19.5363 52.1124 19.5926C52.8105 19.6269 53.2916 20.2173 53.3509 20.9358C53.3713 21.1873 53.365 21.4419 53.365 21.6965C53.365 32.1987 53.365 42.701 53.365 53.2033V53.9998C54.9753 53.9998 56.5138 54.0358 58.0507 53.9858C58.9473 53.9561 59.597 54.2419 60 55.0495L59.9922 58.6778ZM25.8629 53.9561H34.1285V32.4643H25.8629V53.9561ZM1.79703 57.9234H58.2038V55.7804H1.79703V57.9234Z" fill="#92210F"/>
<path d="M55.4704 6.64439C55.4814 7.05205 55.2283 7.58154 54.7754 8.02824C54.1912 8.60146 53.5805 9.15126 53.0261 9.74634C52.8542 9.95849 52.7703 10.2285 52.7918 10.5007C52.8824 11.2739 53.0526 12.0377 53.1791 12.8077C53.3353 13.7261 53.1135 14.5258 52.3248 15.0818C51.536 15.6379 50.7254 15.6051 49.8975 15.1568C49.2462 14.8054 48.5731 14.4899 47.9342 14.1166C47.7941 14.0155 47.6263 13.9601 47.4536 13.9579C47.2809 13.9556 47.1116 14.0067 46.969 14.1041C46.3302 14.4789 45.6617 14.7991 45.0072 15.149C44.1857 15.5879 43.3641 15.6472 42.5769 15.0959C41.7897 14.5445 41.5382 13.7698 41.7038 12.8374C41.8444 12.0564 41.9412 11.2551 42.1114 10.4742C42.1495 10.3361 42.145 10.1898 42.0984 10.0543C42.0519 9.91884 41.9655 9.80061 41.8506 9.71511C41.2649 9.16844 40.6979 8.60459 40.1325 8.0423C39.4796 7.39879 39.2219 6.63658 39.5218 5.74786C39.8107 4.89662 40.4277 4.4093 41.3258 4.28435C42.0974 4.17501 42.8674 4.05006 43.6421 3.95322C44.0185 3.9048 44.2669 3.77829 44.4371 3.3925C44.7339 2.69589 45.1072 2.02895 45.4352 1.34484C45.8444 0.492034 46.5035 -0.00465287 47.4563 3.28587e-05C48.409 0.00471858 49.0619 0.509214 49.4649 1.36358C49.757 1.97897 50.1131 2.56937 50.3583 3.20351C50.5645 3.73456 50.8956 3.9298 51.4407 3.98446C52.2217 4.05319 52.9901 4.18439 53.7555 4.32808C54.7629 4.51863 55.4548 5.37925 55.4704 6.64439ZM43.4188 13.22C43.4188 13.6886 43.6874 13.8448 44.1341 13.6214C44.9151 13.2294 45.696 12.8405 46.4614 12.3985C47.1174 12.022 47.7296 12.0017 48.3903 12.3828C49.051 12.7639 49.7585 13.1326 50.463 13.4637C50.7191 13.5855 51.0315 13.5871 51.3189 13.6449C51.3407 13.3481 51.4126 13.0451 51.3735 12.7577C51.2689 11.9861 51.1205 11.2192 50.9815 10.4523C50.8566 9.76821 51.0143 9.2028 51.5516 8.71392C52.1764 8.1532 52.7668 7.55655 53.3478 6.95209C53.504 6.78653 53.6961 6.50382 53.6508 6.32732C53.6055 6.15083 53.2838 6.02275 53.0635 5.98371C52.2201 5.82751 51.3704 5.71349 50.5192 5.61197C50.2175 5.5907 49.9273 5.48774 49.6797 5.31412C49.432 5.1405 49.2363 4.90277 49.1135 4.62641C48.7246 3.8189 48.3325 3.01139 47.9186 2.2195C47.8202 2.03364 47.6062 1.7931 47.45 1.78842C47.2938 1.78373 47.0799 2.02895 46.9815 2.21326C46.58 2.96922 46.2005 3.73612 45.8366 4.51395C45.7143 4.82331 45.5067 5.0916 45.238 5.28764C44.9692 5.48367 44.6503 5.59939 44.3184 5.62134C43.4484 5.71662 42.58 5.85094 41.7163 5.99932C41.5304 6.03212 41.2727 6.16489 41.2211 6.3117C41.1696 6.45852 41.3055 6.71468 41.4351 6.84744C42.0599 7.48991 42.7024 8.11467 43.3625 8.72173C43.8811 9.20748 44.0388 9.77446 43.9014 10.4695C43.7093 11.3988 43.5718 12.3251 43.4188 13.22Z" fill="#92210F"/>
<path d="M12.5351 22.0995C12.9414 22.0848 13.3432 22.189 13.6911 22.3993C14.039 22.6096 14.318 22.9169 14.4938 23.2834C14.8827 24.0254 15.2154 24.7969 15.623 25.5263C15.7639 25.7565 15.9874 25.9242 16.2478 25.9949C17.01 26.1511 17.7847 26.2495 18.5578 26.3542C19.495 26.4791 20.1729 26.9336 20.4821 27.8364C20.7914 28.7392 20.5165 29.5217 19.8449 30.1793C19.2716 30.7369 18.6797 31.2726 18.1361 31.863C17.9765 32.0573 17.8982 32.3058 17.9175 32.5565C18.0174 33.4077 18.1861 34.2496 18.3158 35.0962C18.3794 35.487 18.3338 35.8878 18.184 36.2543C18.0342 36.6209 17.7861 36.9389 17.4669 37.1734C17.1478 37.4078 16.7702 37.5495 16.3756 37.5829C15.981 37.6163 15.5849 37.54 15.231 37.3625C14.4641 36.9798 13.7206 36.5503 12.9444 36.1864C12.7115 36.0918 12.4509 36.0918 12.2181 36.1864C11.459 36.5378 10.728 36.9501 9.98452 37.3344C9.20357 37.7342 8.43669 37.7139 7.71352 37.2204C7.37229 37.0034 7.10361 36.6894 6.94193 36.3188C6.78025 35.9481 6.73294 35.5376 6.80604 35.1399C6.92006 34.3105 7.05596 33.4811 7.22621 32.6627C7.27141 32.5061 7.26848 32.3396 7.21778 32.1847C7.16708 32.0299 7.07096 31.8938 6.94193 31.7943C6.35153 31.2554 5.79393 30.6806 5.22383 30.1215C4.5772 29.4967 4.37572 28.7251 4.6428 27.8723C4.92082 26.982 5.57994 26.5166 6.48897 26.3776C7.25899 26.2589 8.02902 26.1183 8.80373 26.0558C9.22701 26.0199 9.40976 25.8137 9.56907 25.4701C9.90488 24.747 10.2625 24.0316 10.6296 23.3225C10.7946 22.9559 11.0625 22.6452 11.4008 22.4281C11.7391 22.2109 12.1332 22.0968 12.5351 22.0995ZM8.56632 35.1696C8.52727 35.7943 8.7678 35.9615 9.26918 35.7084C10.0689 35.3039 10.867 34.8931 11.6495 34.4589C11.9238 34.2885 12.24 34.1975 12.5629 34.1961C12.8858 34.1947 13.2028 34.283 13.4785 34.4511C14.2626 34.8843 15.056 35.3008 15.8589 35.7006C16.0151 35.7787 16.2931 35.8334 16.3852 35.7522C16.4503 35.6768 16.4987 35.5887 16.5275 35.4934C16.5563 35.3982 16.5648 35.298 16.5524 35.1992C16.4274 34.3105 16.2775 33.4265 16.1088 32.544C15.9807 31.8755 16.1291 31.3226 16.6367 30.8493C17.3052 30.2246 17.9581 29.5779 18.6 28.9219C18.7203 28.7985 18.8609 28.544 18.8093 28.4346C18.7552 28.3501 18.6843 28.2777 18.601 28.2218C18.5177 28.1659 18.4238 28.1278 18.3251 28.1097C17.5004 27.9645 16.6711 27.838 15.837 27.7458C15.0279 27.6584 14.461 27.3054 14.1361 26.5291C13.842 25.8495 13.5125 25.1859 13.149 24.5408C13.0115 24.2878 12.7741 24.091 12.582 23.8676C12.3836 24.0816 12.1337 24.2659 11.9978 24.5127C11.6339 25.1796 11.2903 25.859 10.9888 26.5556C10.6655 27.3022 10.1189 27.649 9.32697 27.7443C8.49447 27.8348 7.66509 27.9645 6.8404 28.1082C6.6561 28.141 6.39526 28.2644 6.35152 28.4096C6.30779 28.5549 6.43743 28.8142 6.56707 28.9485C7.14966 29.5514 7.7385 30.1543 8.36795 30.7072C8.9974 31.2601 9.1661 31.9083 9.00366 32.7033C8.83029 33.5421 8.70064 34.3902 8.56632 35.1696Z" fill="#92210F"/>
<path d="M24.2291 24.4986C24.3557 23.7442 24.5321 22.8258 24.6508 21.898C24.6746 21.6464 24.5995 21.3955 24.4416 21.1983C23.8715 20.5844 23.2514 20.0175 22.6563 19.4255C22.0003 18.7742 21.791 17.9963 22.1003 17.1217C22.4033 16.272 23.0468 15.819 23.9339 15.6941C24.7446 15.5801 25.5583 15.4801 26.3611 15.3255C26.592 15.2697 26.7913 15.1249 26.9156 14.9225C27.3092 14.2072 27.6528 13.4637 28.009 12.728C28.4135 11.9018 29.0632 11.4332 29.9941 11.4316C30.925 11.4301 31.5779 11.9002 31.9856 12.7202C32.3229 13.4012 32.6775 14.0744 32.9883 14.7663C33.1554 15.1427 33.3632 15.3317 33.8036 15.3661C34.5846 15.4286 35.3468 15.5785 36.1168 15.6988C37.0024 15.8378 37.6366 16.3142 37.9177 17.1685C38.1989 18.0229 37.988 18.7867 37.3523 19.4208C36.7572 20.0143 36.1356 20.5797 35.5655 21.1936C35.4058 21.3895 35.3285 21.6399 35.3499 21.8917C35.4514 22.743 35.6311 23.5833 35.7513 24.4314C35.8716 25.2795 35.5951 26.0167 34.8657 26.5212C34.1363 27.0257 33.3398 27.0445 32.5463 26.6259C31.8216 26.2432 31.1078 25.8449 30.3596 25.4982C30.1262 25.4037 29.8652 25.4037 29.6318 25.4982C28.8383 25.8684 28.0855 26.3244 27.2889 26.6931C25.7957 27.3881 24.1682 26.3041 24.2291 24.4986ZM25.9988 24.5345C25.9769 25.128 26.2081 25.2858 26.6907 25.0421C27.4576 24.6579 28.2292 24.2783 28.9664 23.8441C29.7036 23.4099 30.3471 23.4365 31.0578 23.8441C31.7685 24.2518 32.4948 24.6251 33.2304 24.9843C33.326 25.0339 33.4304 25.064 33.5376 25.0728C33.6449 25.0817 33.7528 25.0691 33.8552 25.0359C33.9692 24.9765 34.0114 24.6579 33.9817 24.4689C33.863 23.6395 33.7334 22.8101 33.5615 21.9917C33.4054 21.2108 33.5772 20.586 34.1863 20.0503C34.8267 19.4802 35.4358 18.8648 36.0278 18.2509C36.1496 18.1275 36.2855 17.8776 36.2371 17.7636C36.1862 17.6791 36.1182 17.6062 36.0376 17.5494C35.9569 17.4927 35.8653 17.4534 35.7685 17.4341C34.8486 17.2779 33.9223 17.131 32.9961 17.0108C32.704 16.9804 32.4255 16.8716 32.1902 16.6959C31.9548 16.5202 31.7713 16.2842 31.6591 16.0127C31.2733 15.2037 30.8782 14.3977 30.4643 13.6043C30.3768 13.4356 30.1519 13.1997 30.0316 13.2185C29.9277 13.2494 29.8311 13.3011 29.7476 13.3703C29.6641 13.4396 29.5955 13.525 29.5459 13.6214C29.1179 14.4305 28.7243 15.2583 28.3198 16.0799C28.2093 16.3307 28.0349 16.548 27.8139 16.71C27.593 16.872 27.3332 16.9731 27.0609 17.003C26.1534 17.1295 25.2459 17.2638 24.3447 17.4247C24.1401 17.4606 23.8027 17.6043 23.7949 17.7168C23.8085 17.9532 23.9098 18.176 24.0792 18.3415C24.6462 18.9319 25.2272 19.513 25.8379 20.0596C26.4486 20.6063 26.6064 21.2295 26.4424 22.0073C26.258 22.8648 26.1347 23.7348 25.9988 24.5282V24.5345Z" fill="#92210F"/>
</svg>
