<svg width="60" height="53" viewBox="0 0 60 53" fill="none" xmlns="http://www.w3.org/2000/svg">
<path d="M0 25.0969V12.4268C0.0517747 12.3785 0.0964805 12.3233 0.13279 12.2625C0.934214 10.2853 2.07308 9.51418 4.20709 9.51418C7.5211 9.51418 10.8351 9.51418 14.1491 9.51418C16.0238 9.51418 17.8985 9.49854 19.7606 9.49072H23.6756C25.2378 9.50011 26.8001 9.51574 28.3623 9.51418C31.0181 9.51418 33.6739 9.49854 36.3203 9.49072H40.2337C40.4868 9.49072 40.7398 9.51418 40.9929 9.51418C46.0275 9.51418 51.062 9.51418 56.0966 9.51418C58.229 9.51418 59.9537 11.0549 59.9756 13.09C60.0178 16.9379 59.9756 20.7875 59.9756 24.6355C59.5288 26.1246 58.393 26.9974 57.1729 27.8046C53.9579 29.9256 50.4178 31.2818 46.7201 32.2641C42.4052 33.4091 37.9903 33.8722 33.5489 34.1412C33.5489 33.966 33.5301 33.7924 33.5301 33.6172C33.5208 32.444 33.1115 32.0264 31.9601 32.0248H28.1592C26.8641 32.0248 26.4829 32.4002 26.472 33.6766C26.472 33.8331 26.4595 33.9895 26.4517 34.1459C26.0252 34.1068 25.5987 34.0473 25.1722 34.0333C22.4062 33.923 19.6527 33.5998 16.9361 33.0666C12.3432 32.2094 7.90488 30.8767 3.87433 28.4349C2.47926 27.5918 0.993578 26.8254 0.248395 25.2314C0.215588 25.1626 0.0843604 25.1407 0 25.0969Z" fill="#407093"/>
<path d="M1.56369 29.2048C1.51683 28.9248 1.26843 28.8091 1.09503 28.6479C0.549808 28.1583 0.371713 27.4513 0.00146484 26.8569V25.0972C0.0858253 25.141 0.217053 25.1629 0.249859 25.2317C0.993481 26.8256 2.47916 27.5921 3.87423 28.4352C7.90479 30.877 12.3431 32.2097 16.936 33.0669C19.653 33.5948 22.4065 33.9128 25.1721 34.0179C25.5986 34.032 26.0251 34.0914 26.4516 34.1305L26.4985 36.0076L26.4516 36.2422C25.1846 36.2579 23.927 36.1265 22.6663 36.0201C19.2479 35.7404 15.8627 35.1445 12.554 34.24C8.78745 33.2014 5.2115 31.7216 2.03393 29.4066C1.90233 29.2914 1.73776 29.2208 1.56369 29.2048Z" fill="#365E7D"/>
<path d="M59.963 24.6309C60.052 25.9823 60.0536 27.3088 59.1006 28.4288C58.8788 28.69 58.5304 28.8417 58.4273 29.2109C58.2532 29.2272 58.0889 29.299 57.9586 29.4158C55.5387 31.2146 52.8454 32.4864 50.0084 33.4499C44.6718 35.2644 39.1634 36.1091 33.541 36.2546C33.5238 36.1748 33.5081 36.0981 33.4925 36.0184L33.5394 34.1413C37.9808 33.8785 42.3957 33.4155 46.7106 32.2642C50.4084 31.2819 53.9484 29.9179 57.1634 27.8047C58.3804 26.9928 59.5162 26.12 59.963 24.6309Z" fill="#385F7E"/>
<path d="M33.5364 34.1304L33.4895 36.0074C33.4411 36.1544 33.388 36.3015 33.3427 36.4485C33.2063 36.9025 32.9789 37.3238 32.6744 37.6868C32.37 38.0497 31.9948 38.3467 31.5717 38.5596C31.1487 38.7725 30.6868 38.8967 30.2142 38.9248C29.7416 38.9529 29.2683 38.8842 28.8231 38.7229C27.5187 38.2661 26.8407 37.2838 26.4985 36.0074L26.4517 34.1304C26.4595 33.9739 26.472 33.8175 26.472 33.6611C26.4829 32.3847 26.8641 32.0093 28.1592 32.0093H31.9476C33.0989 32.0093 33.5098 32.4285 33.5176 33.6016C33.5176 33.7815 33.5301 33.9552 33.5364 34.1304Z" fill="#FEE179"/>
<path d="M23.6569 7.38232L23.6757 9.48307H19.7607L19.7842 7.38389L23.6569 7.38232Z" fill="#D56E41"/>
<path d="M36.314 9.48307L36.3311 7.38232H40.2039L40.2274 9.48151L36.314 9.48307Z" fill="#D56E41"/>
<path d="M58.4167 31.4258C58.43 31.4824 58.4389 31.5399 58.4432 31.5978C58.4432 37.326 58.4667 43.0526 58.4339 48.7792C58.4214 51.0035 56.7357 52.5333 54.4283 52.5427C43.8478 52.5427 33.2674 52.5427 22.6869 52.5427H5.64611C5.11808 52.5427 4.59161 52.5427 4.10107 52.2987C4.04014 51.6933 3.58397 51.8779 3.22778 51.8591C3.221 51.8612 3.21385 51.8619 3.20681 51.861C3.19977 51.8601 3.19299 51.8578 3.18693 51.8541C3.18087 51.8504 3.17567 51.8454 3.17167 51.8396C3.16767 51.8337 3.16496 51.827 3.16373 51.82C3.12155 51.0207 2.92783 50.8408 2.41542 51.124L2.1889 50.8111C2.51072 50.3419 2.17952 49.4033 1.60931 49.1624C1.57798 48.9918 1.55659 48.8194 1.54526 48.6462C1.54526 43.0036 1.54526 37.3615 1.54526 31.7199C1.54526 31.6229 1.564 31.5259 1.57338 31.4305C1.8057 31.4564 2.02415 31.5543 2.19827 31.7105C3.94484 33.0135 5.87888 34.0052 7.88791 34.8201C13.7681 37.229 19.9452 38.1722 26.2457 38.4741C26.2347 38.8715 26.3691 39.1514 26.8159 39.1749C26.8302 39.1878 26.8419 39.2035 26.8502 39.2209C26.8585 39.2384 26.8633 39.2573 26.8643 39.2766C26.5316 39.8053 26.8643 39.8741 27.283 39.8835L28.0172 40.542C27.9798 41.1677 28.4859 41.1677 28.8702 41.2772C29.1467 41.3617 29.4686 41.5635 29.6513 41.1208H30.3325C30.4528 41.4555 30.7371 41.4508 30.948 41.3148C31.3495 41.0551 32.065 41.1943 32.0962 40.4466L32.7039 39.8772C33.0882 39.8444 33.4288 39.7787 33.1211 39.2688C33.122 39.2495 33.127 39.2307 33.1356 39.2135C33.1442 39.1962 33.1562 39.181 33.171 39.1687C33.6647 39.1952 33.7553 38.8261 33.8584 38.4679C35.4898 38.4258 37.1179 38.2974 38.7357 38.0831C42.1726 37.6592 45.5908 37.0507 48.909 35.9776C52.0662 34.9562 55.0673 33.6313 57.7902 31.7183C57.9824 31.5932 58.162 31.4258 58.4167 31.4258Z" fill="#365E7C"/>
<path d="M40.2039 7.38386H36.3311C36.3233 6.87705 36.2874 6.36869 36.3171 5.86345C36.3405 5.46457 36.1827 5.27842 35.8265 5.12513C33.152 3.9723 30.3759 3.72672 27.5217 4.15375C26.3659 4.33323 25.2377 4.65966 24.1645 5.12513C23.8099 5.28155 23.6458 5.45988 23.6724 5.86345C23.7036 6.36869 23.6724 6.87705 23.6568 7.38386H19.784C19.7202 6.27324 19.7166 5.15997 19.7731 4.04895C19.8027 3.32315 20.2323 2.83199 20.8244 2.45658C22.8553 1.1661 25.0924 0.470023 27.4577 0.171258C31.0992 -0.290186 34.6111 0.161872 37.9449 1.75894C37.9808 1.77614 38.0136 1.79804 38.0496 1.81212C39.6759 2.45814 40.507 3.57343 40.2539 5.3973C40.1648 6.04958 40.2164 6.72063 40.2039 7.38386Z" fill="#E7834E"/>
<path d="M58.4163 31.4259C58.1616 31.4259 57.982 31.5932 57.7914 31.7246C55.0684 33.6424 52.0674 34.9626 48.9101 35.984C45.5919 37.0571 42.1816 37.6655 38.7369 38.0894C37.119 38.3037 35.491 38.4322 33.8596 38.4742C33.7153 38.473 33.5769 38.4171 33.4722 38.3178C33.494 37.6296 33.5154 36.9418 33.5362 36.2546C39.1602 36.1091 44.6671 35.2645 50.0037 33.45C52.8407 32.4864 55.534 31.2147 57.9539 29.4158C58.0842 29.2991 58.2484 29.2273 58.4225 29.2109C58.4215 29.9472 58.4194 30.6855 58.4163 31.4259Z" fill="#2B4D66"/>
<path d="M26.2456 38.4741C19.9451 38.1722 13.7681 37.2228 7.88782 34.8201C5.87879 34.0052 3.94475 33.0135 2.20443 31.7058C2.0303 31.5496 1.81185 31.4517 1.57953 31.4258L1.57016 29.2046C1.74422 29.2222 1.90826 29.2945 2.03883 29.4111C5.22265 31.7261 8.79235 33.2059 12.5589 34.2445C15.8676 35.149 19.2528 35.7449 22.6712 36.0246C23.9319 36.1309 25.1895 36.2623 26.4565 36.2467C26.5252 36.9834 26.4034 37.728 26.569 38.4585L26.2456 38.4741Z" fill="#2B4D66"/>
<path d="M1.60889 49.1577C2.1791 49.397 2.51029 50.3387 2.18847 50.8064C1.82165 50.3344 1.61821 49.7557 1.60889 49.1577Z" fill="#365E7D"/>
<path d="M2.41537 51.1257C2.92779 50.8426 3.1215 51.0225 3.16368 51.8218C2.85986 51.6563 2.60252 51.4169 2.41537 51.1257Z" fill="#365E7D"/>
<path d="M3.22754 51.8611C3.58373 51.8799 4.0399 51.6953 4.10083 52.3006C3.77481 52.2376 3.47256 52.0855 3.22754 51.8611Z" fill="#365E7D"/>
<path d="M26.5641 38.4586C26.3985 37.7281 26.5204 36.9836 26.4517 36.2468L26.4985 36.0122C26.8407 37.2886 27.5187 38.2709 28.8231 38.7277C29.2683 38.889 29.7416 38.9577 30.2142 38.9296C30.6868 38.9015 31.1487 38.7773 31.5717 38.5644C31.9948 38.3515 32.37 38.0545 32.6744 37.6916C32.9789 37.3286 33.2063 36.9073 33.3427 36.4533C33.388 36.3063 33.4411 36.1592 33.4895 36.0122C33.5051 36.0904 33.5208 36.1686 33.5379 36.2484C33.5161 36.9346 33.4947 37.6223 33.4739 38.3116L33.1739 39.175C33.1591 39.1874 33.1471 39.2026 33.1385 39.2199C33.1298 39.2371 33.1249 39.2559 33.1239 39.2752L32.7068 39.8836L32.0991 40.453C31.5587 40.7867 30.9604 41.0155 30.3354 41.1272H29.6542C29.0804 41.0225 28.5274 40.8249 28.017 40.5422L27.2828 39.8836L26.8641 39.2767C26.8631 39.2574 26.8583 39.2385 26.85 39.2211C26.8417 39.2036 26.83 39.188 26.8157 39.175L26.5641 38.4586Z" fill="#F6CD58"/>
<path d="M30.3354 41.1273C30.9605 41.0156 31.5588 40.7869 32.0992 40.4531C32.068 41.2008 31.3525 41.0616 30.951 41.3213C30.7401 41.4574 30.4557 41.4621 30.3354 41.1273Z" fill="#365E7D"/>
<path d="M28.0171 40.542C28.5275 40.8247 29.0805 41.0223 29.6543 41.127C29.4684 41.5634 29.1466 41.3617 28.8732 41.2834C28.4858 41.1599 27.9796 41.1614 28.0171 40.542Z" fill="#365E7D"/>
<path d="M33.1742 39.175L33.4741 38.3115C33.5788 38.4109 33.7173 38.4668 33.8615 38.4679C33.7584 38.8324 33.6678 39.2016 33.1742 39.175Z" fill="#365E7D"/>
<path d="M26.5639 38.4585L26.8155 39.1749C26.3687 39.1515 26.2343 38.8715 26.2452 38.4741L26.5639 38.4585Z" fill="#365E7D"/>
<path d="M26.8643 39.2769L27.283 39.8838C26.8659 39.8744 26.5316 39.8056 26.8643 39.2769Z" fill="#365E7D"/>
<path d="M32.7069 39.8839L33.124 39.2754C33.4318 39.7931 33.0912 39.851 32.7069 39.8839Z" fill="#365E7D"/>
</svg>
