<svg width="51" height="50" viewBox="0 0 51 50" fill="none" xmlns="http://www.w3.org/2000/svg">
<path d="M0 35.0493C0.062495 34.9035 0.130189 34.7602 0.186174 34.6118C0.379272 34.0892 0.726005 33.6373 1.18078 33.3154C1.63555 32.9936 2.17708 32.8169 2.73416 32.8086C4.42673 32.7929 6.1193 32.7968 7.81187 32.8086C8.58004 32.8086 9.22061 33.1341 9.77786 33.6601C9.84499 33.7131 9.92282 33.7509 10.006 33.7709C10.0892 33.7909 10.1757 33.7926 10.2596 33.7759C10.6632 33.6666 11.0512 33.4986 11.4509 33.3515C11.2361 32.4622 10.9744 31.6094 10.8285 30.7358C9.8742 25.0371 11.3207 20.0244 15.2865 15.8125C17.4048 13.5627 19.6377 11.421 21.8342 9.24665C22.0946 8.98625 22.148 8.79226 22.0243 8.45114C21.3967 6.7104 20.79 4.96054 20.1885 3.20937C19.8474 2.21727 20.2119 1.30328 21.0921 0.921795C21.743 0.637964 22.3602 0.73431 22.9226 1.18219C23.6309 1.74074 24.0124 1.73944 24.6738 1.13272C25.3352 0.525993 26.1255 0.240866 26.9536 0H28.223C29.1976 0.204145 30.098 0.670533 30.827 1.34885C31.211 1.7095 31.6993 1.62877 32.168 1.315C32.4974 1.09496 32.8645 0.847585 33.2382 0.794204C34.5727 0.614531 35.5141 1.83579 35.0766 3.14427C34.4855 4.91627 33.8658 6.67785 33.2382 8.43682C33.1197 8.76883 33.1497 8.97715 33.414 9.23624C35.1196 10.9132 36.8122 12.6058 38.4917 14.314C38.6974 14.5223 38.9357 14.8347 38.924 15.086C38.8871 15.4277 38.7286 15.7447 38.4774 15.9792C38.1857 16.2487 37.7743 16.1927 37.4358 15.9662C37.294 15.8582 37.1632 15.7365 37.0452 15.6029C35.2953 13.8557 33.5416 12.111 31.8034 10.352C31.7014 10.2403 31.5758 10.1526 31.4358 10.0952C31.2957 10.0378 31.1447 10.0121 30.9936 10.02C28.7646 10.0313 26.5356 10.0313 24.3066 10.02C24.1554 10.0111 24.0041 10.0356 23.8634 10.0919C23.7228 10.1482 23.5962 10.2348 23.4929 10.3455C21.2379 12.6214 18.9008 14.8217 16.7226 17.1666C12.6982 21.4879 11.5837 26.5408 13.2073 32.2162C13.253 32.352 13.3056 32.4854 13.3648 32.6159C14.146 32.3854 14.9011 32.1172 15.6732 31.948C18.5037 31.3295 21.2314 31.6732 23.8444 32.9192C26.0292 33.9608 28.2126 35.0059 30.3947 36.0544C32.1211 36.8838 32.8685 38.1988 32.7213 40.0996C32.7213 40.1791 32.7057 40.2585 32.6797 40.5085C33.2929 40.0489 33.8306 39.6999 34.3084 39.2807C36.4229 37.4241 38.4592 35.4711 40.6491 33.7082C41.9029 32.6992 42.3937 31.4714 42.6099 29.9781C42.9604 27.5376 42.7407 25.0491 41.968 22.7078C41.7831 22.1336 42.0448 21.6389 42.5773 21.4579C43.1098 21.2769 43.5928 21.5412 43.8155 22.1089C43.8285 22.1388 43.835 22.1714 43.8454 22.2026C44.6725 24.6806 44.9192 27.3154 44.5667 29.9039C44.5537 30.0002 44.542 30.0965 44.5368 30.1942C44.5448 30.2343 44.5588 30.2729 44.5785 30.3088C45.3844 29.9481 46.2281 29.8062 47.0926 30.0197C48.5247 30.3752 49.4361 31.284 49.8723 32.6888L50.0025 33.1054V34.2772C49.7187 35.4711 48.9271 36.307 48.073 37.1259C45.1982 39.8879 42.3369 42.6632 39.489 45.4521C36.3643 48.4987 32.625 50.0146 28.2712 49.9999C23.0633 49.9921 17.8553 49.9921 12.6474 49.9999C9.39421 49.9999 6.13927 49.9999 2.88258 49.9999C1.55196 49.9999 0.539021 49.2591 0.115878 48.0105C0.0817436 47.9217 0.0430652 47.8348 0 47.7501V35.0493ZM10.546 48.0183C10.5864 48.0183 10.6984 48.0352 10.8064 48.0352C16.8099 48.0352 22.8146 48.0639 28.8193 48.0196C31.9441 47.9975 34.8253 47.0145 37.1324 44.8948C40.6764 41.6399 44.0876 38.2339 47.5274 34.8631C47.81 34.5871 47.9779 34.0962 48.0144 33.6913C48.0795 32.9492 47.7006 32.3646 47.0171 32.0495C46.2567 31.7006 45.568 31.875 44.9482 32.4271C41.7883 35.2407 38.6414 38.0686 35.4438 40.8392C34.6803 41.495 33.8266 42.0378 32.9088 42.451C31.2241 43.2101 29.4456 43.6072 27.6007 43.0421C25.6282 42.4367 23.6674 41.7961 21.7027 41.1699C20.6963 40.8496 19.6872 40.5397 18.6873 40.2012C18.465 40.1355 18.2751 39.9894 18.1548 39.7912C18.0344 39.5931 17.9922 39.3572 18.0363 39.1297C18.0615 38.9172 18.1598 38.7202 18.3145 38.5724C18.4692 38.4246 18.6705 38.3353 18.8839 38.3198C19.1101 38.3206 19.3345 38.3611 19.5466 38.4396C22.4904 39.3679 25.4289 40.3093 28.3727 41.2324C29.3739 41.5448 30.3062 41.1022 30.659 40.1908C31.004 39.3015 30.6264 38.3472 29.7099 37.9045C27.3402 36.7588 24.9759 35.6013 22.5828 34.5063C20.6559 33.6249 18.5949 33.2734 16.5377 33.7942C14.5626 34.2941 12.6539 35.0571 10.7218 35.7237C10.6281 35.7562 10.5499 35.9698 10.546 36.1013C10.5291 36.7353 10.5382 37.3707 10.5382 38.0048L10.546 48.0183ZM8.59306 41.3951C8.59306 39.5411 8.59306 37.6867 8.59306 35.8318C8.59306 35.0506 8.30141 34.7576 7.54236 34.7563C6.02946 34.7563 4.51656 34.7563 3.00366 34.7563C2.26283 34.7563 1.95427 35.0558 1.95427 35.7823C1.95427 39.5242 1.95427 43.2656 1.95427 47.0066C1.95427 47.7345 2.26283 48.0326 3.00366 48.0352C4.50007 48.0352 5.99647 48.0352 7.49288 48.0352C8.31573 48.0352 8.59176 47.7501 8.59306 46.9103C8.5948 45.0719 8.5948 43.2335 8.59306 41.3951ZM33.0156 3.12995C31.5665 3.78094 30.3569 3.60387 29.2398 2.58052C28.2607 1.68475 26.9549 1.76157 25.912 2.61437C25.4623 2.98015 24.9502 3.26157 24.4004 3.44503C23.6947 3.67678 22.9682 3.4867 22.2196 3.12865C22.795 4.77175 23.3302 6.3185 23.8887 7.85614C23.9252 7.95769 24.1322 8.05534 24.2611 8.05664C26.5057 8.06792 28.7503 8.06792 30.9949 8.05664C31.0749 8.0472 31.1515 8.01862 31.2182 7.97329C31.2848 7.92796 31.3395 7.86722 31.3777 7.79624C31.9284 6.27683 32.4544 4.7405 33.0156 3.12995Z" fill="#92210F"/>
<path d="M24.4016 26.6778C24.3912 25.8627 24.7362 25.437 25.2818 25.3888C25.8273 25.3406 26.2361 25.713 26.3416 26.3132C26.5095 27.2767 27.4769 27.7337 28.331 27.248C28.6786 27.0514 28.969 26.7494 28.8804 26.3536C28.7937 26.0203 28.6048 25.7225 28.3401 25.5021C28.1396 25.3367 27.7959 25.3042 27.5121 25.2886C25.9588 25.1974 24.6868 24.1689 24.4316 22.7679C24.1764 21.367 24.9237 20.1197 26.3598 19.4531C26.5005 19.3754 26.6056 19.2461 26.6528 19.0924C26.7934 18.5847 27.128 18.2696 27.5993 18.2566C27.8299 18.2448 28.0567 18.319 28.2359 18.4647C28.415 18.6104 28.5338 18.8174 28.5693 19.0456C28.6161 19.3216 28.7502 19.414 28.9729 19.5104C29.9455 19.9322 30.573 20.6548 30.8048 21.7003C30.8354 21.8433 30.8524 21.9889 30.8555 22.1352C30.8686 22.7367 30.5092 23.1767 29.9702 23.2249C29.8398 23.2391 29.7079 23.2258 29.5829 23.186C29.458 23.1461 29.3427 23.0805 29.2446 22.9935C29.1465 22.9064 29.0677 22.7998 29.0133 22.6804C28.9589 22.5611 28.93 22.4317 28.9286 22.3005C28.9117 21.4451 27.8128 20.8683 26.9236 21.3618C26.5759 21.5584 26.352 21.8409 26.3572 22.2615C26.3532 22.4508 26.4071 22.6368 26.5119 22.7946C26.6166 22.9524 26.7671 23.0744 26.9431 23.1442C27.1954 23.2516 27.4647 23.3133 27.7386 23.3265C29.301 23.4137 30.5274 24.4097 30.8178 25.8458C31.0886 27.1934 30.3334 28.4784 28.8935 29.1567C28.754 29.2383 28.6503 29.3694 28.6031 29.5239C28.4443 30.0525 28.0823 30.3715 27.6006 30.3585C27.1189 30.3455 26.8038 30.0213 26.6515 29.5213C26.5803 29.3441 26.4457 29.1997 26.2739 29.1164C25.1516 28.5813 24.498 27.7298 24.4016 26.6778Z" fill="#172F40"/>
<path d="M40.912 17.4751C41.0431 17.4745 41.1729 17.5003 41.2938 17.5511C41.4146 17.6019 41.524 17.6765 41.6153 17.7705C41.7066 17.8646 41.778 17.9761 41.8252 18.0983C41.8724 18.2206 41.8944 18.3512 41.8899 18.4822C41.8855 18.6132 41.8546 18.7419 41.7992 18.8607C41.7438 18.9795 41.6649 19.0859 41.5674 19.1735C41.4699 19.2611 41.3557 19.3281 41.2317 19.3705C41.1076 19.4129 40.9763 19.4298 40.8456 19.4203C40.5945 19.4019 40.3603 19.287 40.1921 19.0998C40.0239 18.9125 39.9347 18.6673 39.9433 18.4157C39.9519 18.1641 40.0576 17.9257 40.2382 17.7503C40.4188 17.5749 40.6603 17.4763 40.912 17.4751Z" fill="#172F40"/>
</svg>
