<svg width="48" height="48" viewBox="0 0 48 48" fill="none" xmlns="http://www.w3.org/2000/svg">
<path d="M23.0624 0.121875C22.3031 0.346875 21.9468 0.6 19.2468 2.86875L16.575 5.10938L20.2874 5.1375C22.3312 5.14688 25.6687 5.14688 27.7124 5.1375L31.4343 5.10938L28.7718 2.86875C25.7343 0.31875 25.3781 0.103125 24.2062 0.0374999C23.7749 0.0187497 23.3156 0.046875 23.0624 0.121875Z" fill="white"/>
<path d="M5.55 8.07209C5.1375 8.19397 4.5375 8.81272 4.41563 9.25334C4.35 9.47834 4.3125 11.2596 4.3125 14.2221V18.8346L13.95 26.3627C22.65 33.169 23.6156 33.8908 23.9625 33.919C24.3375 33.9565 24.45 33.8721 33.9938 26.4096L43.6406 18.8721V14.044V9.22522L43.3875 8.84084C43.2469 8.63459 42.975 8.36272 42.7781 8.24084L42.4219 8.01584L24.1406 7.99709C12.7781 7.98772 5.74688 8.01584 5.55 8.07209ZM27.6562 14.2315C28.125 14.4658 28.4063 14.9346 28.4063 15.469C28.4063 16.0033 28.125 16.4721 27.6562 16.7065C27.3563 16.8658 26.8125 16.8752 20.3906 16.8752C12.6562 16.8752 13.0406 16.9033 12.5906 16.2283C12.1406 15.5627 12.4031 14.5877 13.125 14.2315C13.425 14.0721 13.9688 14.0627 20.3906 14.0627C26.8125 14.0627 27.3563 14.0721 27.6562 14.2315ZM34.875 19.8565C35.3438 20.0908 35.625 20.5596 35.625 21.094C35.625 21.6283 35.3438 22.0971 34.875 22.3315C34.5656 22.4908 33.8531 22.5002 24 22.5002C12.2344 22.5002 13.05 22.5471 12.5906 21.8533C12.1406 21.1877 12.4031 20.2127 13.125 19.8565C13.4344 19.6971 14.1469 19.6877 24 19.6877C33.8531 19.6877 34.5656 19.6971 34.875 19.8565Z" fill="white"/>
<path d="M0.0187303 32.0719C0.0468553 44.5688 0.0562303 45.1594 0.22498 45.5344C0.31873 45.7594 0.41248 45.9375 0.43123 45.9375C0.48748 45.9375 18.1031 33.3 18.1219 33.2438C18.1312 33.225 14.1375 30.075 9.23435 26.25C4.3406 22.425 0.253105 19.2281 0.159355 19.1438C-1.96574e-05 19.0031 -1.96593e-05 19.5844 0.0187303 32.0719Z" fill="white"/>
<path d="M38.9532 26.1094C33.9938 29.9719 29.9344 33.1781 29.9251 33.2156C29.9063 33.2813 47.4657 45.9375 47.5688 45.9375C47.5876 45.9375 47.6813 45.7594 47.7751 45.5344C47.9438 45.1594 47.9532 44.6344 47.9813 34.6406C47.9907 28.8656 47.9907 22.9969 47.9813 21.6094L47.9532 19.0688L38.9532 26.1094Z" fill="white"/>
<path d="M20.3063 35.1281C20.2875 35.175 16.3219 38.025 11.4938 41.4844C6.675 44.9437 2.71875 47.7937 2.71875 47.8219C2.71875 47.8594 2.87813 47.9062 3.06563 47.9437C3.53438 48.0188 44.4656 48.0188 44.9344 47.9437C45.1219 47.9062 45.2812 47.8594 45.2812 47.8219C45.2812 47.775 27.7219 35.1562 27.5625 35.0812C27.525 35.0719 27.1688 35.3156 26.7563 35.6344C25.5844 36.5437 25.1813 36.7031 24 36.7031C22.8188 36.7031 22.3875 36.5344 21.2625 35.6344C20.55 35.0719 20.4 34.9969 20.3063 35.1281Z" fill="white"/>
</svg>
