<svg width="50" height="54" viewBox="0 0 50 54" fill="none" xmlns="http://www.w3.org/2000/svg">
<path d="M25.6104 12.6284H24.3812V0.614582C24.3812 0.277825 24.659 0 24.9958 0C25.3326 0 25.6104 0.277825 25.6104 0.614582V12.6284Z" fill="#E8AA60"/>
<path d="M34.0124 6.4154C30.6533 3.35933 28.9695 9.47147 25.6104 6.4154C25.6104 4.20122 25.6104 3.09834 25.6104 0.884165C28.9695 3.94023 30.6533 -2.17191 34.0124 0.884165C34.0124 3.09834 34.0124 4.20122 34.0124 6.4154Z" fill="#51BF9F"/>
<path d="M50 24.9707H0V27.7658H50V24.9707Z" fill="#B33254"/>
<path d="M50 27.7656H0V53.8811H50V27.7656Z" fill="#7CA3C2"/>
<path d="M36.0412 27.7656H13.95V47.668H36.0412V27.7656Z" fill="#5E5E61"/>
<path d="M14.9437 27.7656H9.14306V28.9274C9.14306 29.3652 9.49666 29.7272 9.94286 29.7272H14.1523C14.5901 29.7272 14.9521 29.3736 14.9521 28.9274V27.7656H14.9437ZM14.1439 45.7064H9.93444C9.49666 45.7064 9.13464 46.06 9.13464 46.5062V47.668H14.9353V46.5062C14.9437 46.06 14.5901 45.7064 14.1439 45.7064Z" fill="#D3D3D3"/>
<path d="M13.9502 29.7271H10.1365V45.7062H13.9502V29.7271Z" fill="#E1E2E0"/>
<path d="M27.9001 27.7656H22.0995V28.9274C22.0995 29.3652 22.4531 29.7272 22.8993 29.7272H27.1087C27.5465 29.7272 27.9085 29.3736 27.9085 28.9274V27.7656H27.9001ZM27.1003 45.7064H22.8909C22.4531 45.7064 22.0911 46.06 22.0911 46.5062V47.668H27.8917V46.5062C27.9001 46.06 27.5381 45.7064 27.1003 45.7064Z" fill="#D3D3D3"/>
<path d="M26.907 29.7271H23.0933V45.7062H26.907V29.7271Z" fill="#E1E2E0"/>
<path d="M40.8487 27.7656H35.0481V28.9274C35.0481 29.3652 35.4017 29.7272 35.8479 29.7272H40.0574C40.4951 29.7272 40.8572 29.3736 40.8572 28.9274V27.7656H40.8487ZM40.0489 45.7064H35.8395C35.4017 45.7064 35.0397 46.06 35.0397 46.5062V47.668H40.8403V46.5062C40.8487 46.06 40.4951 45.7064 40.0489 45.7064Z" fill="#D3D3D3"/>
<path d="M39.8553 29.7271H36.0415V45.7062H39.8553V29.7271Z" fill="#E1E2E0"/>
<path d="M44.5782 47.668H5.40491V50.7746H44.5782V47.668Z" fill="#E1E2E0"/>
<path d="M44.5782 22.167H5.40491V27.7656H44.5782V22.167Z" fill="#F2F2F2"/>
<path d="M47.0282 50.7744H2.9635V53.881H47.0282V50.7744Z" fill="#D3D3D3"/>
<path d="M24.9957 10.2793L5.40491 22.1668H44.5866L24.9957 10.2793Z" fill="#DA4765"/>
<path d="M24.7601 17.5453V19.9952C23.4636 19.8857 22.4196 18.8502 22.3102 17.5453H24.7601ZM24.7601 14.6323V17.0822H22.3102C22.428 15.7857 23.4636 14.7502 24.7601 14.6323Z" fill="#F9F9F9"/>
<path d="M24.9957 14.1606C23.253 14.1606 21.8386 15.575 21.8386 17.3177C21.8386 19.0605 23.253 20.4748 24.9957 20.4748C26.7384 20.4748 28.1528 19.0605 28.1528 17.3177C28.1528 15.575 26.7384 14.1606 24.9957 14.1606ZM24.76 19.995C23.4635 19.8855 22.4195 18.85 22.3101 17.5451H24.76V19.995ZM24.76 17.082H22.3101C22.4195 15.7855 23.4551 14.7415 24.76 14.6321V17.082ZM25.2314 14.6321C26.528 14.7415 27.5719 15.7771 27.6814 17.082H25.2314V14.6321ZM25.2314 19.995V17.5451H27.6814C27.5635 18.85 26.528 19.8855 25.2314 19.995Z" fill="#B33254"/>
<path d="M27.6812 17.5453C27.5718 18.8418 26.5278 19.8857 25.2313 19.9952V17.5453H27.6812ZM27.6812 17.0822H25.2313V14.6323C26.5278 14.7502 27.5634 15.7857 27.6812 17.0822Z" fill="#F9F9F9"/>
<path d="M47.3903 31.874H43.4502V35.8141H47.3903V31.874Z" fill="#F9F9F9"/>
<path d="M47.3903 39.6196H43.4502V43.5597H47.3903V39.6196Z" fill="#F9F9F9"/>
<path d="M6.54138 31.874H2.60132V35.8141H6.54138V31.874Z" fill="#F9F9F9"/>
<path d="M6.54162 39.6196H2.60156V43.5597H6.54162V39.6196Z" fill="#F9F9F9"/>
</svg>
