<svg width="50" height="49" viewBox="0 0 50 49" fill="none" xmlns="http://www.w3.org/2000/svg">
<path d="M0 35.5026V2.88459C0.402842 0.942406 1.90556 0 3.67196 0C17.8951 0.0170903 32.1171 0.0219732 46.3378 0.0146488C46.7115 0.00358998 47.0852 0.0396826 47.4499 0.122073C49.0735 0.540785 50 1.81279 50 3.59506C50 13.9444 50 24.2938 50 34.6432C50 36.9748 48.6352 38.3371 46.3 38.3383H30.0142C30.1033 38.9377 30.146 39.4858 30.2705 40.0144C30.7796 42.1763 32.0052 43.3617 34.2587 43.325C34.7469 43.3165 35.2352 43.325 35.7235 43.3372C36.9076 43.3702 37.8378 44.005 38.1809 45.0035C38.7656 46.704 37.5705 48.3093 35.6747 48.3337C33.7789 48.3581 31.9002 48.3398 30.0117 48.3398C24.8545 48.3398 19.6965 48.3398 14.5377 48.3398C13.8736 48.3398 13.2401 48.2592 12.6895 47.8515C12.2744 47.5452 11.965 47.1171 11.8042 46.6269C11.6434 46.1367 11.6392 45.6086 11.7923 45.1158C12.1146 44.055 13.0057 43.3922 14.2142 43.3421C14.8636 43.3153 15.5155 43.3421 16.1674 43.3116C17.5285 43.2616 18.5905 42.6658 19.2046 41.4427C19.4975 40.8567 19.6489 40.1926 19.8149 39.5518C19.9138 39.1745 19.915 38.7705 19.9639 38.3408H19.2876C14.0641 38.3408 8.84055 38.353 3.61825 38.3237C3.00369 38.3119 2.39707 38.1826 1.8311 37.9428C0.776386 37.5009 0.288093 36.5597 0 35.5026ZM5.02087 29.9373H44.973V5.05017H5.02087V29.9373ZM48.3325 31.7256H1.70903C1.69343 31.765 1.68197 31.8059 1.67485 31.8477C1.67485 32.76 1.67485 33.6711 1.67485 34.5809C1.67485 36.0836 2.2669 36.6733 3.77329 36.6733H46.2279C46.3915 36.6733 46.5539 36.6733 46.7162 36.6733C47.6049 36.6244 48.2971 35.9738 48.3239 35.0863C48.3581 33.9767 48.3325 32.8719 48.3325 31.7256ZM3.32772 29.9617V29.3647C3.32772 21.1297 3.32772 12.8942 3.32772 4.65832C3.31869 4.47952 3.32441 4.30028 3.34481 4.12242C3.41805 3.66952 3.67074 3.38998 4.15171 3.35702C4.31285 3.34725 4.47643 3.34847 4.64001 3.34847H45.3624C45.5248 3.34847 45.6884 3.34847 45.8507 3.35824C46.3305 3.38631 46.5832 3.66952 46.6564 4.12242C46.6768 4.30028 46.6825 4.47952 46.6735 4.65832C46.6735 12.8934 46.6735 21.1293 46.6735 29.366V29.9519H48.341V29.4307C48.341 20.8367 48.341 12.2427 48.341 3.64877C48.341 2.30596 47.7148 1.68095 46.3671 1.68095H3.63778C2.29498 1.68095 1.66386 2.30719 1.66386 3.64877C1.66386 12.2427 1.66386 20.8367 1.66386 29.4307V29.9617H3.32772ZM21.6448 38.3567C21.5142 40.1646 21.1223 41.8479 19.959 43.2823H30.0532C28.8471 41.8174 28.498 40.1182 28.3442 38.3567H21.6448ZM24.9518 46.6686C28.4341 46.6686 31.9169 46.6686 35.4 46.6686C35.5951 46.6756 35.7903 46.6654 35.9835 46.6381C36.1642 46.619 36.3313 46.5335 36.4524 46.3982C36.5736 46.2628 36.6401 46.0873 36.6391 45.9057C36.6647 45.4821 36.4694 45.1793 36.0507 45.0707C35.845 45.0234 35.6341 45.0029 35.4232 45.0096C33.6007 45.0158 31.7781 45.0414 29.9568 45.0402C25.0739 45.0345 20.1909 45.0243 15.308 45.0096C14.854 44.994 14.3995 45.0165 13.9493 45.0768C13.5257 45.1476 13.3389 45.4821 13.3597 45.9057C13.3587 46.0873 13.4252 46.2628 13.5464 46.3982C13.6675 46.5335 13.8346 46.619 14.0152 46.6381C14.2085 46.6654 14.4037 46.6756 14.5987 46.6686C18.0502 46.6702 21.5012 46.6702 24.9518 46.6686Z" fill="white"/>
<path d="M37.7658 22.5226C38.4384 23.1916 39.0415 23.7836 39.636 24.383C40.2085 24.9592 40.2073 25.3437 39.636 25.9223C38.9849 26.5815 38.329 27.2375 37.6681 27.8902C37.0761 28.4773 36.6781 28.481 36.0946 27.8999C35.5111 27.3189 34.9068 26.7061 34.2733 26.0688C33.8863 26.4631 33.5408 26.8281 33.1832 27.1748C32.5997 27.7339 31.9221 27.5667 31.6731 26.7988C31.4595 26.1348 31.2324 25.4707 31.0811 24.7907C30.9749 24.3024 30.7759 24.1608 30.2693 24.162C24.2169 24.1828 18.1645 24.1755 12.1121 24.1755C11.072 24.1755 10.8389 23.9472 10.8376 22.9267C10.8376 17.8997 10.8376 12.8723 10.8376 7.84451C10.8376 6.90577 11.0708 6.67017 12.0193 6.67017C19.5683 6.67017 27.1177 6.67017 34.6676 6.67017C35.6002 6.67017 35.8444 6.91431 35.8444 7.8555C35.8444 11.4835 35.8444 15.1115 35.8309 18.7396C35.8309 19.1204 35.953 19.2816 36.3058 19.3731C36.998 19.5526 37.6791 19.7698 38.3627 19.9835C39.2612 20.2581 39.4382 20.9222 38.7814 21.5826C38.4689 21.8866 38.1381 22.1759 37.7658 22.5226ZM30.3608 22.5006C29.9946 21.2567 29.6369 20.047 29.2732 18.8384C29.1511 18.449 29.0876 18.0743 29.4148 17.7495C29.7419 17.4248 30.1118 17.4883 30.5037 17.6067C31.7097 17.9729 32.9207 18.3257 34.1329 18.6834V12.5419H12.5393V22.5006H30.3608ZM12.5003 10.8048H34.1378V8.38896H12.5003V10.8048ZM32.9012 25.0874L33.1844 24.8188C34.0535 23.9643 34.5186 23.9643 35.3817 24.842C35.87 25.3303 36.34 25.843 36.7514 26.2764L38.038 25.1167C37.4191 24.5063 36.8112 23.9216 36.224 23.3173C35.7137 22.7924 35.7223 22.3126 36.224 21.7816C36.3815 21.6132 36.5438 21.4484 36.7526 21.2323L31.2861 19.6221L32.9012 25.0874Z" fill="white"/>
<path d="M25.0251 33.348C25.8052 33.348 26.584 33.3419 27.3641 33.348C27.95 33.3542 28.3126 33.6728 28.3199 34.1623C28.3272 34.6518 27.9622 35.0009 27.386 35.0046C25.7942 35.016 24.2024 35.016 22.6105 35.0046C22.0356 35.0046 21.6706 34.6469 21.6791 34.1586C21.6876 33.6703 22.0453 33.3542 22.6374 33.348C23.4382 33.3419 24.2304 33.348 25.0251 33.348Z" fill="white"/>
<path d="M18.3597 15.849C19.3998 15.849 20.435 15.8416 21.4799 15.849C22.1977 15.849 22.4834 16.1395 22.4919 16.8561C22.5025 17.8473 22.5025 18.8389 22.4919 19.831C22.4834 20.5354 22.1794 20.8405 21.475 20.843C19.3794 20.8503 17.283 20.8503 15.1858 20.843C14.4863 20.843 14.1726 20.5219 14.1665 19.8249C14.1567 18.8336 14.1567 17.8424 14.1665 16.8512C14.1665 16.1529 14.4778 15.8551 15.1907 15.849C16.2479 15.8416 17.3038 15.849 18.3597 15.849ZM15.8426 19.1523H20.7878V17.5555H15.8426V19.1523Z" fill="white"/>
</svg>
