<svg width="60" height="60" viewBox="0 0 60 60" fill="none" xmlns="http://www.w3.org/2000/svg">
<path d="M15.8639 4.0796L4.19184 7.50065L3.86719 7.3965V32.2693C3.86719 32.2693 4.6552 35.4324 9.36898 34.6843L23.4781 27.614V2.74121L15.8639 4.07953V4.0796Z" fill="#FF9554"/>
<path d="M8.00157 35.4336C4.06868 35.4336 3.30514 32.5509 3.27466 32.4281C3.26155 32.3763 3.2549 32.3229 3.25488 32.2694V7.3965C3.25488 7.19426 3.34756 7.00446 3.50361 6.88534C3.66033 6.76505 3.86124 6.73159 4.04836 6.78982L4.19961 6.83826L15.6977 3.46811L23.3759 2.11475C23.5558 2.0837 23.7358 2.13583 23.8733 2.25612C23.9413 2.3157 23.996 2.38998 24.0335 2.47375C24.0709 2.55753 24.0903 2.64879 24.0903 2.74115V27.6139C24.0903 27.8571 23.9558 28.0804 23.7441 28.1858L9.63505 35.2562C9.58019 35.2835 9.52177 35.3023 9.46164 35.312C8.95224 35.3927 8.46137 35.4336 8.00157 35.4336ZM4.47941 32.1725C4.59959 32.5199 5.30812 34.1634 8.00157 34.1634C8.37286 34.1634 8.77111 34.1324 9.18666 34.0703L22.8658 27.2159V3.49295L15.9661 4.70605L4.47941 8.0762V32.1725Z" fill="#4D4D4D"/>
<path d="M23.4781 2.74126L9.36898 9.81038C4.06388 10.7903 3.86719 7.39662 3.86719 7.39662L17.7676 0.63623C17.7676 0.63623 18.7834 2.87147 23.4781 2.74126Z" fill="white"/>
<path d="M7.59487 10.6229C3.48739 10.6241 3.25778 7.46601 3.256 7.43502C3.2486 7.308 3.27808 7.18159 3.34065 7.07214C3.40321 6.96268 3.49598 6.87521 3.60697 6.82101L17.5073 0.0607444C17.58 0.0250753 17.6588 0.00467347 17.7391 0.000713266C17.8194 -0.00324694 17.8997 0.0093127 17.9754 0.0376692C18.051 0.0660258 18.1205 0.109619 18.1798 0.16594C18.2391 0.222261 18.2871 0.290197 18.321 0.365839C18.3253 0.372063 19.2406 2.11118 23.088 2.11118L23.4617 2.10619C23.7619 2.10865 24.0047 2.29968 24.0728 2.59116C24.106 2.73237 24.0914 2.88111 24.0315 3.01251C23.9717 3.14392 23.8702 3.25004 23.7439 3.31313L9.63492 10.3822C9.58472 10.407 9.53149 10.4256 9.47649 10.4355C8.80324 10.5595 8.1701 10.6228 7.59493 10.6228L7.59487 10.6229ZM4.56899 7.75626C4.77584 8.34549 5.44367 9.35265 7.59493 9.35265C8.07558 9.35265 8.60774 9.30182 9.17934 9.20014L21.1127 3.22131C19.087 2.86661 18.0497 2.00075 17.5701 1.43388L4.56899 7.75626Z" fill="#4D4D4D"/>
<path d="M9.36907 34.9201C9.28866 34.9202 9.20902 34.9038 9.13472 34.8719C9.06042 34.84 8.99291 34.7932 8.93605 34.7342C8.87919 34.6752 8.83409 34.6052 8.80334 34.5281C8.77259 34.451 8.75679 34.3684 8.75684 34.285V9.81038C8.75679 9.72696 8.77259 9.64436 8.80334 9.56728C8.83409 9.49021 8.87919 9.42018 8.93605 9.3612C8.99291 9.30221 9.06042 9.25544 9.13472 9.22354C9.20902 9.19164 9.28866 9.17524 9.36907 9.17529C9.44949 9.17524 9.52913 9.19162 9.60344 9.22352C9.67774 9.25541 9.74526 9.30219 9.80213 9.36117C9.859 9.42016 9.9041 9.49019 9.93485 9.56727C9.9656 9.64435 9.98141 9.72696 9.98136 9.81038V34.285C9.98141 34.3684 9.9656 34.4511 9.93485 34.5281C9.9041 34.6052 9.859 34.6752 9.80213 34.7342C9.74526 34.7932 9.67774 34.84 9.60344 34.8719C9.52913 34.9038 9.44949 34.9202 9.36907 34.9201Z" fill="#4D4D4D"/>
<path d="M23.8271 7.77155L12.1551 11.1913L11.8317 11.0859V35.9612C11.8317 35.9612 12.6197 39.1243 17.3329 38.375L31.4408 31.3059V6.43311L23.8271 7.77155Z" fill="#5FD4AF"/>
<path d="M15.9637 39.125C12.0325 39.125 11.2696 36.2423 11.2391 36.1195C11.226 36.0676 11.2194 36.0143 11.2194 35.9607V11.0855C11.2194 10.8832 11.312 10.6934 11.4693 10.5731C11.547 10.5146 11.6369 10.4758 11.7316 10.4596C11.8264 10.4435 11.9235 10.4505 12.0152 10.4801L12.1646 10.5285L23.6609 7.15954L31.3385 5.80625C31.5184 5.77396 31.6984 5.82609 31.836 5.94761C31.904 6.00719 31.9586 6.08146 31.9961 6.16522C32.0336 6.24899 32.053 6.34023 32.0529 6.43258V31.3054C32.0529 31.5486 31.9185 31.7719 31.7068 31.8773L17.5989 38.9464C17.5441 38.9737 17.4856 38.9925 17.4255 39.0022C16.9155 39.0828 16.4241 39.125 15.9637 39.125ZM12.4439 35.8639C12.5634 36.2113 13.272 37.8548 15.9637 37.8548C16.3356 37.8548 16.7343 37.8226 17.1505 37.7605L30.8285 30.9073V7.18432L23.9294 8.39742L12.4439 11.7664V35.864V35.8639Z" fill="#4D4D4D"/>
<path d="M31.4408 6.43267L17.3329 13.5017C12.0278 14.4817 11.8317 11.0855 11.8317 11.0855L25.7309 4.32764C25.7309 4.32764 26.7468 6.56541 31.4408 6.43267Z" fill="white"/>
<path d="M15.56 14.3143C11.4519 14.3143 11.2223 11.1549 11.2205 11.124C11.2131 10.997 11.2426 10.8706 11.3051 10.7611C11.3677 10.6517 11.4605 10.5642 11.5714 10.51L25.4707 3.75214C25.6177 3.68091 25.7858 3.67304 25.9384 3.73024C26.0909 3.78745 26.2154 3.90506 26.2844 4.05729C26.2886 4.06352 27.2028 5.80387 31.0443 5.80387L31.4239 5.79764C31.7342 5.81366 31.968 5.99237 32.0356 6.28261C32.0688 6.42382 32.0542 6.57255 31.9943 6.70394C31.9344 6.83534 31.8329 6.94144 31.7067 7.00452L17.5989 14.0737C17.5486 14.0985 17.4954 14.1171 17.4404 14.127C16.7672 14.2511 16.1346 14.3143 15.56 14.3143V14.3143ZM12.5335 11.4452C12.7397 12.0357 13.4076 13.0441 15.56 13.0441C16.0401 13.0441 16.5723 12.9933 17.1432 12.8915L29.0742 6.91277C27.0497 6.55801 26.013 5.69214 25.5328 5.12534L12.5335 11.4451V11.4452Z" fill="#4D4D4D"/>
<path d="M17.3327 38.614C17.2523 38.614 17.1726 38.5976 17.0983 38.5657C17.024 38.5338 16.9565 38.487 16.8997 38.4281C16.8428 38.3691 16.7977 38.299 16.7669 38.2219C16.7362 38.1449 16.7204 38.0623 16.7205 37.9788V13.5017C16.7204 13.4183 16.7362 13.3357 16.767 13.2586C16.7977 13.1816 16.8428 13.1116 16.8997 13.0526C16.9566 12.9936 17.0241 12.9468 17.0984 12.9149C17.1727 12.883 17.2523 12.8667 17.3327 12.8667C17.4131 12.8666 17.4927 12.883 17.567 12.9149C17.6413 12.9468 17.7089 12.9936 17.7657 13.0526C17.8226 13.1115 17.8677 13.1816 17.8985 13.2586C17.9292 13.3357 17.945 13.4183 17.945 13.5017V37.9789C17.945 38.0623 17.9292 38.1449 17.8985 38.222C17.8677 38.2991 17.8226 38.3691 17.7658 38.4281C17.7089 38.4871 17.6414 38.5339 17.5671 38.5658C17.4928 38.5976 17.4131 38.614 17.3327 38.614Z" fill="#4D4D4D"/>
<path d="M32.6512 27.4702L27.1195 41.2934L39.942 46.2514L53.0178 41.2934L47.2338 27.4702H32.6512Z" fill="#A6A6A6"/>
<path d="M39.9419 46.8863C39.8694 46.8863 39.7972 46.8726 39.7278 46.8466L26.9054 41.8885C26.8283 41.8586 26.7578 41.8128 26.6981 41.754C26.6385 41.6952 26.5908 41.6246 26.558 41.5463C26.5252 41.4681 26.5079 41.3839 26.5072 41.2986C26.5065 41.2133 26.5224 41.1288 26.5538 41.05L32.0855 27.2269C32.1319 27.1109 32.2104 27.0118 32.3111 26.9421C32.4117 26.8724 32.53 26.8351 32.6511 26.835H47.2337C47.4777 26.835 47.6983 26.985 47.7951 27.217L53.5792 41.0402C53.6125 41.1196 53.6298 41.2052 53.63 41.2918C53.6302 41.3784 53.6133 41.4642 53.5803 41.5438C53.514 41.705 53.3861 41.8291 53.2282 41.8898L40.1523 46.8478C40.0849 46.8734 40.0136 46.8864 39.9418 46.8862L39.9419 46.8863ZM27.9283 40.9286L39.9436 45.5739L52.1974 40.9286L46.8319 28.1052H33.0601L27.9284 40.9286H27.9283Z" fill="#4D4D4D"/>
<path d="M39.9421 46.8862C39.8617 46.8863 39.7821 46.8699 39.7078 46.838C39.6335 46.8061 39.566 46.7593 39.5091 46.7004C39.4522 46.6414 39.4071 46.5714 39.3764 46.4943C39.3456 46.4172 39.3298 46.3346 39.3298 46.2512V27.9935C39.3298 27.9101 39.3456 27.8275 39.3763 27.7504C39.4071 27.6733 39.4522 27.6033 39.5091 27.5443C39.5659 27.4853 39.6335 27.4385 39.7078 27.4066C39.7821 27.3747 39.8617 27.3583 39.9421 27.3584C40.0225 27.3584 40.1022 27.3748 40.1765 27.4067C40.2507 27.4386 40.3183 27.4853 40.3751 27.5443C40.432 27.6033 40.4771 27.6733 40.5078 27.7504C40.5385 27.8275 40.5544 27.9101 40.5543 27.9935V46.2512C40.5543 46.3346 40.5385 46.4172 40.5078 46.4943C40.477 46.5713 40.4319 46.6413 40.3751 46.7003C40.3182 46.7593 40.2507 46.8061 40.1764 46.838C40.1022 46.8699 40.0225 46.8863 39.9421 46.8862Z" fill="#4D4D4D"/>
<path d="M21.8867 25.9929L39.8175 18.9561L57.7471 25.9929L39.8175 33.0273L21.8867 25.9929Z" fill="#A6A6A6"/>
<path d="M39.8175 33.6622C39.7435 33.6622 39.6702 33.6484 39.601 33.6213L21.6702 26.587C21.4322 26.4939 21.2744 26.257 21.2744 25.9928C21.2744 25.7286 21.4317 25.4917 21.6702 25.3986L39.601 18.3617C39.7405 18.3072 39.8944 18.3072 40.0339 18.3617L57.9636 25.3986C58.2016 25.4917 58.3593 25.7286 58.3593 25.9928C58.3593 26.257 58.2016 26.4939 57.9636 26.587L40.0339 33.6212C39.9647 33.6483 39.8914 33.6622 39.8175 33.6621V33.6622ZM23.617 25.9927L39.8175 32.3486L56.0168 25.9927L39.8175 19.6344L23.617 25.9927Z" fill="#4D4D4D"/>
<path d="M57.3767 34.5389C57.2962 34.539 57.2166 34.5226 57.1423 34.4907C57.068 34.4588 57.0005 34.412 56.9436 34.353C56.8868 34.294 56.8417 34.224 56.8109 34.1469C56.7802 34.0698 56.7644 33.9872 56.7644 33.9038V26.6276H39.7746C39.6942 26.6276 39.6146 26.6113 39.5403 26.5794C39.466 26.5475 39.3985 26.5007 39.3416 26.4417C39.2847 26.3827 39.2396 26.3127 39.2089 26.2356C39.1781 26.1585 39.1623 26.0759 39.1624 25.9925C39.1623 25.9091 39.1781 25.8265 39.2089 25.7494C39.2396 25.6723 39.2847 25.6023 39.3416 25.5433C39.3985 25.4843 39.466 25.4375 39.5403 25.4056C39.6146 25.3738 39.6942 25.3574 39.7746 25.3574H57.3767C57.4571 25.3574 57.5368 25.3738 57.611 25.4057C57.6853 25.4376 57.7528 25.4844 57.8097 25.5433C57.8666 25.6023 57.9116 25.6724 57.9424 25.7494C57.9731 25.8265 57.9889 25.9091 57.9889 25.9925V33.9038C57.9889 33.9872 57.9731 34.0698 57.9424 34.1469C57.9116 34.224 57.8666 34.294 57.8097 34.353C57.7528 34.412 57.6853 34.4587 57.611 34.4906C57.5368 34.5225 57.4571 34.5389 57.3767 34.5389H57.3767Z" fill="#4D4D4D"/>
<path d="M57.3766 33.729L55.7001 37.5558L57.7126 41.2063L59.3879 37.3821L57.3766 33.729Z" fill="white"/>
<path d="M57.7126 41.8417C57.6047 41.8416 57.4987 41.812 57.4053 41.7558C57.312 41.6996 57.2346 41.6188 57.181 41.5217L55.1686 37.8711C55.1205 37.7838 55.0931 37.6858 55.0887 37.5853C55.0842 37.4849 55.1028 37.3847 55.1428 37.2931L56.8194 33.4663C56.8659 33.3598 56.94 33.2688 57.0334 33.2033C57.1268 33.1379 57.2358 33.1006 57.3484 33.0956C57.5834 33.0645 57.7939 33.2072 57.9081 33.4143L59.92 37.0673C59.9678 37.1548 59.995 37.2528 59.9994 37.3532C60.0037 37.4537 59.9851 37.5538 59.9451 37.6453L58.2698 41.4696C58.2235 41.5761 58.1496 41.6672 58.0562 41.7327C57.9629 41.7982 57.8539 41.8355 57.7414 41.8404C57.7317 41.8417 57.7222 41.8417 57.7126 41.8417ZM56.3871 37.5225L57.6504 39.8136L58.7015 37.4159L57.4387 35.1223L56.3871 37.5225Z" fill="#4D4D4D"/>
<path d="M0.612305 46.2228V49.4106C0.612305 49.4106 6.07762 49.2928 10.3622 53.9096C10.3622 53.9096 16.7662 53.225 22.4952 59.365L34.5559 53.5822V49.918L4.5847 45.5977L0.612305 46.2228Z" fill="#CCCCCC"/>
<path d="M22.4951 60.0002C22.413 60.0002 22.3318 59.9831 22.2562 59.9498C22.1806 59.9166 22.1122 59.8679 22.0551 59.8067C17.605 55.0372 12.8123 54.5225 10.9581 54.5225C10.6293 54.5225 10.4398 54.5399 10.4237 54.5411C10.2336 54.5647 10.0512 54.4902 9.92086 54.3501C6.03811 50.1662 1.19043 50.0457 0.649898 50.0457C0.312117 50.0457 0 49.7617 0 49.4107V46.2229C0 45.9091 0.221227 45.6424 0.520156 45.5952L4.49261 44.9701C4.55109 44.9616 4.61039 44.9612 4.66899 44.9688L34.6401 49.2891C34.7866 49.3101 34.9207 49.3854 35.0178 49.501C35.1149 49.6167 35.1683 49.7648 35.1681 49.9182V53.5823C35.1681 53.8304 35.0294 54.0549 34.813 54.1591L22.7522 59.942C22.6716 59.9806 22.5839 60.0004 22.4951 60.0002V60.0002ZM10.9582 53.2523C12.9253 53.2523 17.9386 53.7807 22.6284 58.601L33.9436 53.1766V50.4712L4.58825 46.239L1.22447 46.7686V48.8016C2.85432 48.9232 7.07189 49.5955 10.6037 53.2585C10.7005 53.2547 10.8195 53.2523 10.9582 53.2523Z" fill="#4D4D4D"/>
<path d="M0.612305 46.223C0.612305 46.223 6.96853 46.1336 10.3622 50.4255C10.3622 50.4255 16.3722 49.4964 22.4678 55.3263L34.5392 49.8226C34.5392 49.8226 30.2224 44.5545 22.8563 44.6427C22.8563 44.6427 19.0759 40.651 13.0103 40.4736L0.612305 46.223Z" fill="white"/>
<path d="M22.4675 55.9613C22.3169 55.9613 22.168 55.9031 22.0526 55.7927C17.5349 51.4723 13.0501 51.0058 11.3318 51.0058C10.7901 51.0058 10.4738 51.0505 10.4505 51.0542C10.243 51.0827 10.0242 50.9997 9.8885 50.8285C6.78479 46.9025 0.891334 46.8579 0.642008 46.8579C0.353297 46.8579 0.0883475 46.6483 0.0279914 46.3555C-0.0317707 46.0616 0.0985653 45.7651 0.362208 45.6436L12.7602 39.8942C12.8445 39.8545 12.939 39.8384 13.0274 39.8384C18.5687 40.0009 22.2355 43.1776 23.1013 44.0062C30.5146 44.0359 34.8254 49.1912 35.0054 49.4107C35.0672 49.4862 35.1111 49.5757 35.1337 49.6719C35.1564 49.7682 35.157 49.8686 35.1357 49.9652C35.1142 50.0615 35.0713 50.1514 35.0105 50.2276C34.9497 50.3038 34.8726 50.3643 34.7854 50.4043L22.7139 55.908C22.6362 55.9433 22.5523 55.9614 22.4675 55.9613ZM11.3318 49.7357C13.1559 49.7357 17.8494 50.2145 22.5841 54.5795L33.4795 49.6116C32.1062 48.2807 28.4124 45.2763 23.0385 45.2763L22.8633 45.2776C22.6684 45.2293 22.5369 45.2118 22.4203 45.0879C22.3838 45.0506 18.7827 41.3369 13.1309 41.1136L3.00374 45.8097C5.20519 46.1781 8.41167 47.1593 10.6209 49.7604C10.7967 49.7481 11.0364 49.7357 11.3318 49.7357V49.7357Z" fill="#4D4D4D"/>
<path d="M10.3623 54.2767C10.2819 54.2768 10.2022 54.2604 10.1279 54.2285C10.0536 54.1966 9.9861 54.1498 9.92924 54.0908C9.87237 54.0318 9.82727 53.9618 9.79651 53.8847C9.76576 53.8077 9.74995 53.725 9.75 53.6416V50.4252C9.75 50.1747 9.89234 49.9476 10.113 49.8447L22.6072 44.0619C22.9163 43.9205 23.2774 44.0631 23.4155 44.3832C23.5536 44.7044 23.4149 45.079 23.1058 45.2229L10.9745 50.8371V53.6416C10.9746 53.725 10.9588 53.8076 10.928 53.8847C10.8973 53.9618 10.8522 54.0318 10.7953 54.0908C10.7385 54.1498 10.6709 54.1966 10.5966 54.2285C10.5223 54.2604 10.4427 54.2768 10.3623 54.2767Z" fill="#4D4D4D"/>
<path d="M22.4677 59.6402C22.3873 59.6403 22.3077 59.6239 22.2334 59.592C22.1591 59.5601 22.0915 59.5133 22.0347 59.4543C21.9778 59.3953 21.9327 59.3253 21.902 59.2482C21.8712 59.1711 21.8554 59.0885 21.8555 59.0051V55.326C21.8554 55.2426 21.8712 55.16 21.902 55.0829C21.9327 55.0058 21.9778 54.9358 22.0347 54.8768C22.0915 54.8178 22.1591 54.7711 22.2334 54.7392C22.3077 54.7073 22.3873 54.6909 22.4677 54.6909C22.5481 54.6909 22.6278 54.7072 22.7021 54.7391C22.7764 54.771 22.8439 54.8178 22.9008 54.8768C22.9576 54.9358 23.0027 55.0058 23.0335 55.0829C23.0642 55.16 23.08 55.2426 23.08 55.326V59.0051C23.08 59.0885 23.0642 59.1712 23.0335 59.2482C23.0027 59.3253 22.9576 59.3953 22.9008 59.4543C22.8439 59.5133 22.7764 59.5601 22.7021 59.592C22.6278 59.6239 22.5481 59.6403 22.4677 59.6402Z" fill="#4D4D4D"/>
<path d="M35.4312 44.0558C35.4312 44.0558 34.5165 40.3916 33.9125 40.3916C33.3111 40.3916 32.4441 44.0532 32.4441 44.0532L33.909 45.842L35.4312 44.0558Z" fill="white"/>
<path d="M33.9088 46.4769H33.9029C33.815 46.4762 33.7284 46.4558 33.6489 46.4171C33.5694 46.3783 33.499 46.3221 33.4425 46.2523L31.9777 44.4637C31.9149 44.3873 31.8705 44.2965 31.8482 44.1987C31.826 44.101 31.8265 43.9992 31.8497 43.9017C32.8308 39.7563 33.5615 39.7563 33.9124 39.7563C34.2622 39.7563 34.9904 39.7563 36.0237 43.8968C36.075 44.1002 36.0248 44.3185 35.8896 44.476L34.3674 46.2623C34.31 46.3297 34.2394 46.3837 34.1604 46.4207C34.0813 46.4577 33.9955 46.4768 33.9088 46.4769ZM33.1149 43.8918L33.9178 44.8718L34.7549 43.8906C34.4864 42.8746 34.1642 41.9121 33.9184 41.37C33.6792 41.9183 33.3666 42.8909 33.1148 43.8918H33.1149Z" fill="#4D4D4D"/>
<path d="M32.4443 44.0532L35.4315 44.0557L35.4219 57.3988H32.4348L32.4443 44.0532Z" fill="#FF9554"/>
<path d="M35.4219 58.0338H32.4348C32.3544 58.0338 32.2748 58.0174 32.2005 57.9855C32.1262 57.9536 32.0587 57.9067 32.0019 57.8477C31.8873 57.7285 31.8227 57.5671 31.8225 57.3987L31.8321 44.0531C31.8321 43.8844 31.8967 43.7231 32.0115 43.6041C32.1264 43.485 32.2824 43.418 32.4444 43.418H32.445L35.4321 43.4204C35.7699 43.4204 36.0437 43.7057 36.0437 44.0556L36.0341 57.3987C36.0341 57.7498 35.7597 58.0338 35.4219 58.0338ZM33.0476 56.7635H34.8102L34.8185 44.6906L33.0559 44.6881L33.0476 56.7635Z" fill="#4D4D4D"/>
</svg>
