<svg width="39" height="50" viewBox="0 0 39 50" fill="none" xmlns="http://www.w3.org/2000/svg">
<path d="M1.78645 50L1.39583 49.8255C0.552082 49.4427 0.0716141 48.8034 0.00781216 47.8724C0.00130176 47.7917 0 47.7096 0 47.6289C0 34.6081 0 21.5903 0 8.57562C0 7.14333 0.90234 6.23187 2.35416 6.21755C4.17707 6.19542 5.99998 6.21755 7.8229 6.21755H8.43097C8.43097 5.75011 8.43097 5.34516 8.43097 4.94021C8.4531 3.76834 9.27602 2.95193 10.4427 2.94152C11.2239 2.93371 11.9974 2.94152 12.8073 2.94152C12.8268 2.58345 12.8177 2.26053 12.8672 1.94543C12.935 1.40516 13.1996 0.908857 13.6104 0.551418C14.0212 0.193979 14.5493 0.000483788 15.0937 0.00793098C16.0703 -0.00508982 17.0468 0.000118501 18.0234 0.00793098C19.4166 0.0157435 20.3385 0.932408 20.3671 2.32954C20.3671 2.50532 20.3671 2.6824 20.3671 2.93631H22.4752C24.0442 2.93631 24.776 3.66287 24.7799 5.22667C24.7799 5.53266 24.7799 5.83735 24.7799 6.21625C25.4309 6.21625 26.0208 6.21625 26.6171 6.21625C27.0169 6.21625 27.3111 6.37901 27.414 6.79177C27.5299 7.25791 27.19 7.65635 26.6327 7.67198C26.0351 7.6902 25.4348 7.67198 24.7747 7.67198C24.7747 8.24359 24.7747 8.76051 24.7747 9.27744C24.7604 10.6433 23.9778 11.4259 22.6171 11.4272C18.6145 11.4272 14.6115 11.4272 10.608 11.4272C9.22133 11.4272 8.43227 10.6329 8.42706 9.24749C8.42706 8.74749 8.42706 8.24619 8.42706 7.685H2.54687C1.69661 7.685 1.46354 7.90895 1.46354 8.73968C1.46354 21.645 1.46354 34.5491 1.46354 47.4518C1.46354 48.3099 1.69791 48.5365 2.57421 48.5365C11.9292 48.5365 21.2855 48.5365 30.6432 48.5365C31.5273 48.5365 31.7629 48.2982 31.7629 47.4037C31.7629 46.0378 31.7629 44.6693 31.7629 43.3034C31.7629 42.7344 32.0416 42.3919 32.4895 42.3919C32.9374 42.3919 33.2239 42.7318 33.2252 43.2969C33.2304 44.7127 33.2304 46.1285 33.2252 47.5443C33.2252 48.7643 32.7343 49.4622 31.5781 49.9128C31.5381 49.9361 31.5021 49.9655 31.4713 50H1.78645ZM16.6002 9.96624C18.5967 9.96624 20.5972 9.96624 22.6015 9.96624C23.1653 9.96624 23.3098 9.83603 23.3124 9.28395C23.3203 7.86859 23.3124 6.45453 23.3124 5.03917C23.3124 4.59386 23.1119 4.38813 22.6614 4.39724C21.8159 4.41026 20.9704 4.41026 20.125 4.39724C19.3763 4.38813 18.9453 3.96756 18.9088 3.22537C18.8919 2.90115 18.9153 2.57433 18.8971 2.25011C18.8697 1.77746 18.595 1.4884 18.125 1.48058C17.1171 1.46409 16.1089 1.46409 15.1002 1.48058C14.6367 1.48709 14.3437 1.78006 14.3086 2.2423C14.2851 2.54959 14.3086 2.85949 14.2994 3.16938C14.2851 3.97146 13.8659 4.39334 13.0547 4.40115C12.2435 4.40896 11.4284 4.40115 10.6159 4.40115C10.0429 4.40115 9.89971 4.54698 9.89841 5.1238C9.89841 6.48925 9.89841 7.85557 9.89841 9.22275C9.89841 9.82301 10.0429 9.96494 10.6484 9.96624C12.6319 9.96798 14.6158 9.96798 16.6002 9.96624Z" fill="#92210F"/>
<path d="M34.3476 9.53111H30.7096V30.6951H34.3476V30.1535C34.3476 29.0311 34.3398 27.9074 34.3476 26.785C34.3541 26.2641 34.6353 25.979 35.0676 25.9751C35.4999 25.9712 35.7981 26.255 35.7994 26.768C35.8059 29.2902 35.8137 31.8136 35.7799 34.3344C35.757 34.8036 35.6475 35.2645 35.457 35.6938C34.9283 36.9698 34.3463 38.2224 33.7968 39.4907C33.552 40.0558 33.1913 40.4529 32.5299 40.462C31.8463 40.4711 31.4726 40.0714 31.2187 39.4855C30.6718 38.2172 30.0768 36.9685 29.5624 35.6886C29.3506 35.18 29.2354 34.6365 29.2226 34.0857C29.2026 24.4365 29.1987 14.7859 29.2109 5.13398C29.2109 3.62617 30.207 2.6418 31.7226 2.61185C32.2265 2.60143 32.7317 2.60404 33.2356 2.61185C34.8098 2.63268 35.7955 3.60273 35.8098 5.17435C35.8254 6.76939 35.8098 8.36444 35.8098 9.95819V10.565C36.246 10.565 36.6445 10.565 37.0442 10.565C38.108 10.5754 38.7226 11.1704 38.7265 12.2225C38.7326 14.8423 38.7326 17.4625 38.7265 20.0832C38.7265 20.7095 38.4661 21.0233 37.983 21.0115C37.4999 20.9998 37.2655 20.686 37.2642 20.048C37.2642 17.5897 37.2642 15.1322 37.2642 12.6756V12.0624H35.8124V23.1834C35.8172 23.3624 35.8116 23.5415 35.7955 23.7199C35.746 24.1417 35.483 24.3709 35.0754 24.3709C34.9012 24.381 34.7301 24.3222 34.5988 24.2072C34.4675 24.0923 34.3866 23.9303 34.3736 23.7563C34.351 23.5623 34.3427 23.3669 34.3489 23.1717C34.3489 18.8427 34.3489 14.5137 34.3489 10.1848L34.3476 9.53111ZM30.7265 32.2433C30.7265 33.0896 30.5377 33.936 30.7669 34.6613C31.2044 36.0402 31.8801 37.3422 32.5012 38.7771C33.0429 37.5506 33.5077 36.4113 34.0442 35.3058C34.5273 34.3071 34.2734 33.2811 34.3515 32.2433H30.7265ZM34.3228 8.00377C34.3228 6.94387 34.3515 5.90872 34.3098 4.87877C34.2903 4.40482 33.94 4.11575 33.4622 4.09752C32.8307 4.06888 32.1952 4.06758 31.5637 4.09752C31.0351 4.12096 30.707 4.47903 30.6796 5.00898C30.6614 5.39961 30.6718 5.79023 30.6718 6.18085C30.6718 6.79023 30.6718 7.3983 30.6718 8.00377H34.3228Z" fill="#172F40"/>
<path d="M8.60544 32.9427C7.66143 32.9427 6.71872 32.9505 5.77472 32.9427C4.83071 32.9349 4.39191 32.4935 4.388 31.5651C4.37758 29.6779 4.37758 27.7912 4.388 25.9049C4.388 24.9935 4.86716 24.5247 5.77601 24.5234C7.66316 24.5182 9.55032 24.5182 11.4375 24.5234C12.3086 24.5234 12.8046 25.013 12.8085 25.8815C12.8181 27.7851 12.8181 29.6884 12.8085 31.5911C12.8085 32.4648 12.3255 32.931 11.4349 32.9414C10.4922 32.9557 9.54554 32.9427 8.60544 32.9427ZM5.88018 26.013V31.4479H11.319V26.0169L5.88018 26.013Z" fill="#92210F"/>
<path d="M8.57941 34.8361C9.52212 34.8361 10.4661 34.8283 11.4101 34.8361C12.3541 34.8439 12.8086 35.3127 12.8112 36.2593C12.8112 38.1134 12.8112 39.9676 12.8112 41.8218C12.8112 42.7801 12.3281 43.2541 11.3659 43.2541C9.5117 43.2541 7.65711 43.2541 5.80208 43.2541C4.85677 43.2541 4.39193 42.7918 4.38672 41.8452C4.37891 39.9737 4.37891 38.103 4.38672 36.2332C4.38672 35.2723 4.83203 34.8387 5.79817 34.8296C6.72525 34.8296 7.65233 34.8361 8.57941 34.8361ZM11.3138 41.7775V36.3361H5.88411V41.7775H11.3138Z" fill="#92210F"/>
<path d="M8.59765 14.2503C9.54165 14.2503 10.4844 14.2503 11.4284 14.2503C12.3398 14.2503 12.8073 14.7255 12.8099 15.6396C12.816 17.5267 12.816 19.4135 12.8099 21.2997C12.8099 22.176 12.319 22.6591 11.4466 22.6617C9.54295 22.6669 7.63975 22.6669 5.73698 22.6617C4.8789 22.6617 4.39714 22.1969 4.39062 21.3401C4.3776 19.4208 4.3776 17.5016 4.39062 15.5823C4.39062 14.6943 4.86718 14.2555 5.76822 14.2503C6.71093 14.2464 7.65494 14.2503 8.59765 14.2503ZM11.3138 21.1812V15.7477H5.88541V21.1812H11.3138Z" fill="#92210F"/>
<path d="M21.9075 40.2567C19.8762 40.2567 17.845 40.2567 15.8125 40.2567C15.4218 40.2567 15.1015 40.1525 14.9713 39.7462C14.9382 39.6494 14.9265 39.5465 14.9371 39.4446C14.9477 39.3428 14.9803 39.2445 15.0327 39.1565C15.0851 39.0686 15.1561 38.9931 15.2406 38.9353C15.3251 38.8775 15.4211 38.8387 15.5221 38.8218C15.6984 38.7924 15.8774 38.7819 16.0559 38.7905H27.7096C27.7916 38.7905 27.8723 38.7905 27.953 38.7905C28.5129 38.8087 28.8476 39.0991 28.832 39.5535C28.8189 39.9845 28.496 40.2515 27.9544 40.2528C25.9387 40.2588 23.9231 40.2601 21.9075 40.2567Z" fill="#92210F"/>
<path d="M21.9153 41.7969H27.7669C27.9132 41.7886 28.0599 41.7921 28.2057 41.8073C28.3699 41.8234 28.5229 41.898 28.6367 42.0175C28.7505 42.1371 28.8175 42.2935 28.8255 42.4584C28.8503 42.6223 28.8133 42.7896 28.7216 42.9278C28.6299 43.0659 28.4901 43.165 28.3294 43.2058C28.1569 43.2505 27.9787 43.2685 27.8007 43.2592C23.8511 43.2592 19.9015 43.2592 15.9518 43.2592C15.8214 43.2678 15.6905 43.2626 15.5612 43.2435C15.1706 43.155 14.9258 42.9128 14.9453 42.4909C14.9648 42.0691 15.2057 41.8321 15.625 41.8034C15.9648 41.78 16.3073 41.7956 16.6484 41.7956L21.9153 41.7969Z" fill="#92210F"/>
<path d="M20.8554 18.2112H25.6809C25.8432 18.2048 26.0056 18.2122 26.1666 18.2333C26.5572 18.3036 26.776 18.551 26.776 18.9403C26.7866 19.1137 26.7293 19.2844 26.6163 19.4164C26.5033 19.5483 26.3435 19.6311 26.1705 19.6474C26.0097 19.6697 25.8472 19.6784 25.6848 19.6734C22.467 19.6734 19.25 19.6734 16.0338 19.6734C15.8556 19.6799 15.6772 19.6685 15.5013 19.6396C15.344 19.6027 15.2038 19.5138 15.1035 19.3872C15.0031 19.2606 14.9485 19.1038 14.9485 18.9423C14.9485 18.7808 15.0031 18.624 15.1035 18.4974C15.2038 18.3708 15.344 18.2819 15.5013 18.245C15.6772 18.2155 15.8556 18.2041 16.0338 18.2112H20.8554Z" fill="#92210F"/>
<path d="M20.8841 28.5028H25.7096C25.8724 28.5028 26.0807 28.452 26.1875 28.5315C26.4127 28.7033 26.7187 28.9312 26.7422 29.1617C26.7656 29.3921 26.5208 29.6942 26.3164 29.8778C26.1862 29.9924 25.9153 29.9624 25.707 29.9637C22.4726 29.9637 19.2387 29.9637 16.0052 29.9637C15.8592 29.9719 15.7127 29.9662 15.5677 29.9468C15.1771 29.8635 14.9284 29.6239 14.9453 29.2007C14.9622 28.7775 15.2057 28.5497 15.6185 28.508C15.7643 28.4937 15.9115 28.4989 16.0573 28.4989L20.8841 28.5028Z" fill="#92210F"/>
<path d="M20.8333 22.6639C19.1744 22.6639 17.5169 22.6639 15.8593 22.6639C15.2708 22.6639 14.9479 22.4152 14.9479 21.9582C14.9349 21.4803 15.2643 21.2017 15.8685 21.2017C19.1992 21.2017 22.5308 21.2017 25.8632 21.2017C26.4557 21.2017 26.8046 21.4946 26.789 21.9608C26.7721 22.4061 26.44 22.6639 25.8619 22.6639C24.1857 22.6656 22.5095 22.6656 20.8333 22.6639Z" fill="#92210F"/>
<path d="M20.8229 32.9427H16.0469C15.8681 32.9497 15.689 32.941 15.5117 32.9166C15.3565 32.896 15.214 32.8201 15.1102 32.703C15.0065 32.5858 14.9484 32.4351 14.9466 32.2786C14.9202 32.1155 14.9562 31.9485 15.0474 31.8107C15.1386 31.673 15.2783 31.5746 15.4388 31.5351C15.5958 31.4934 15.7582 31.4749 15.9206 31.4804C19.2018 31.4804 22.4839 31.4804 25.7669 31.4804C25.8476 31.4804 25.9297 31.4804 26.0104 31.4804C26.4948 31.5221 26.802 31.8294 26.7812 32.2487C26.7604 32.6679 26.4635 32.9284 25.9895 32.9362C25.194 32.9505 24.3984 32.9362 23.6015 32.9362L20.8229 32.9427Z" fill="#92210F"/>
<path d="M8.22654 28.3541C8.53123 28.0728 8.79165 27.8332 9.05857 27.5898C9.40493 27.2799 9.80857 27.276 10.1002 27.5715C10.2354 27.7046 10.3126 27.8857 10.315 28.0754C10.3175 28.265 10.245 28.448 10.1133 28.5845C9.72263 29.022 9.32159 29.4491 8.89842 29.8541C8.50779 30.2265 7.98696 30.2056 7.58332 29.8345C7.41838 29.6777 7.2615 29.5125 7.11327 29.3398C6.79686 28.9778 6.77733 28.5898 7.05207 28.2916C7.32681 27.9934 7.6966 27.9752 8.10024 28.2603C8.15753 28.2968 8.20571 28.3385 8.22654 28.3541Z" fill="#92210F"/>
<path d="M8.25518 38.6888C8.53383 38.4128 8.78253 38.1576 9.03643 37.9076C9.36325 37.6003 9.79815 37.5821 10.0872 37.8529C10.1574 37.9207 10.2135 38.0017 10.252 38.0914C10.2906 38.1811 10.3109 38.2775 10.3117 38.3751C10.3126 38.4727 10.294 38.5695 10.257 38.6598C10.22 38.7501 10.1654 38.8321 10.0963 38.9011C9.71742 39.3243 9.3307 39.7422 8.92445 40.1342C8.51821 40.5261 8.013 40.5248 7.5794 40.1224C7.41404 39.9675 7.25519 39.8034 7.10545 39.6329C6.79425 39.2761 6.77472 38.875 7.06769 38.5912C7.38149 38.2813 7.72264 38.2813 8.0742 38.5417C8.12628 38.586 8.17576 38.6263 8.25518 38.6888Z" fill="#92210F"/>
<path d="M8.24348 18.0807C8.52733 17.8099 8.77083 17.5729 9.01822 17.3399C9.36718 17.0117 9.80988 16.9896 10.1042 17.2813C10.3984 17.5729 10.3919 17.9935 10.0885 18.3307C9.71874 18.7409 9.34244 19.1458 8.9466 19.53C8.5039 19.9596 8.01171 19.9466 7.5664 19.5234C7.41275 19.3776 7.26692 19.224 7.1263 19.0664C6.80468 18.7057 6.77734 18.3255 7.04557 18.0247C7.31379 17.724 7.69661 17.6966 8.08723 17.9714C8.14062 18.0039 8.1914 18.043 8.24348 18.0807Z" fill="#92210F"/>
</svg>
