<svg width="60" height="60" viewBox="0 0 60 60" fill="none" xmlns="http://www.w3.org/2000/svg">
<path d="M23.4341 0H36.5581C36.5878 0.0249971 36.6143 0.0625056 36.6471 0.0718796C39.6438 0.843664 41.0937 2.71219 41.0937 5.81183C41.0937 8.83752 41.0937 11.8642 41.0937 14.892V15.9497H54.7973C56.0816 15.9497 56.4768 16.3465 56.4768 17.6261C56.4768 27.0395 56.4768 36.452 56.4768 45.8634C56.4768 47.1804 56.094 47.5585 54.7582 47.5585H5.25269C5.05735 47.5658 4.86174 47.5622 4.6668 47.5476C4.05123 47.4804 3.55908 47.0601 3.53721 46.468C3.49658 45.3181 3.49971 44.1636 3.53721 43.0122C3.55127 42.5185 3.90127 42.2435 4.38873 42.2091C4.84339 42.1779 5.22459 42.5528 5.27146 43.0496C5.29021 43.2621 5.27146 43.4793 5.27146 43.6933C5.27146 44.387 5.27146 45.0807 5.27146 45.765H10.971V45.0416C10.971 42.5028 10.9632 39.9641 10.971 37.4253C10.9835 34.1194 12.724 31.7354 15.8472 30.6917C18.4928 29.8085 21.1343 28.918 23.7716 28.0202C24.5731 27.7483 24.7512 27.4984 24.7606 26.6516C24.7606 26.2423 24.7387 25.8298 24.7684 25.422C24.7934 25.0596 24.6403 24.8737 24.3372 24.6893C21.924 23.2591 20.1493 20.9601 19.3766 18.2635C19.2422 17.8167 19.0641 17.6995 18.6235 17.7011C14.3848 17.7182 10.1477 17.7104 5.90892 17.7104H5.2699V18.5088C5.2699 25.1674 5.2699 31.8265 5.2699 38.4861C5.28539 38.7003 5.27807 38.9156 5.24804 39.1282C5.14961 39.5782 4.86369 39.8516 4.38561 39.8469C3.90752 39.8422 3.62942 39.5672 3.53099 39.1157C3.50642 38.9419 3.50064 38.7659 3.51379 38.5908C3.51379 31.5802 3.51379 24.5695 3.51379 17.5589C3.51379 16.3637 3.92937 15.9544 5.1449 15.9544H18.8829V14.1968H4.73245C2.81385 14.1968 1.76393 15.2498 1.76393 17.1652C1.76393 26.8911 1.76393 36.616 1.76393 46.3399C1.76393 48.2584 2.81853 49.3208 4.72463 49.3208H55.2863C57.169 49.3208 58.2423 48.2584 58.2423 46.393C58.2423 36.6494 58.2423 26.9047 58.2423 17.1589C58.2423 15.2498 57.183 14.1999 55.2597 14.1999C51.6663 14.1999 48.0728 14.1999 44.4793 14.1999C43.8184 14.1999 43.4591 13.8874 43.4528 13.3391C43.4466 12.7907 43.8153 12.4485 44.459 12.4485C48.2087 12.4485 51.9585 12.422 55.7082 12.4579C57.7142 12.4767 59.3688 13.8546 59.8734 15.7966C59.9078 15.9263 59.9578 16.0513 60 16.1794V47.3476C58.9485 50.2816 57.8017 51.0831 54.6551 51.0831H34.3582V54.728C34.7379 54.728 35.0676 54.728 35.3988 54.728C36.4257 54.7264 37.4147 55.115 38.1658 55.8153C38.9168 56.5155 39.3736 57.475 39.4438 58.4994C39.5203 59.3915 39.0157 59.993 38.1298 59.9945C32.7021 60.0018 27.2734 60.0018 21.8436 59.9945C20.9921 59.9945 20.4859 59.3993 20.5437 58.54C20.6068 57.5155 21.0555 56.5528 21.7996 55.8456C22.5436 55.1384 23.5278 54.7391 24.5543 54.728C24.9168 54.728 25.2808 54.728 25.6371 54.728V51.08H4.80118C1.83267 51.08 0 49.2614 0 46.3133C0 36.6103 0 26.9057 0 17.1996C0 14.2796 1.83422 12.4439 4.75118 12.4439H18.9032V11.7361C18.9032 9.66762 18.9032 7.59755 18.9032 5.52748C18.9126 3.40429 19.7938 1.75137 21.6546 0.695242C22.1998 0.374968 22.8388 0.223411 23.4341 0ZM42.6686 32.0744C42.5967 33.5164 42.5264 34.924 42.4529 36.3801C42.5326 36.4161 42.7123 36.4895 42.8857 36.5754C44.4762 37.3659 45.3855 39.1548 45.073 40.8593C44.9074 41.8212 44.3976 42.6901 43.6388 43.3041C42.8799 43.9181 41.9237 44.2352 40.9484 44.1964C38.9423 44.1401 37.3408 42.6341 37.0815 40.5656C36.8487 38.6908 38.1048 36.866 40.0187 36.3114C40.3109 36.227 40.5296 36.1395 40.6234 35.788C40.9905 34.4132 41.0155 33.0477 40.5484 31.6994C40.4485 31.4636 40.2608 31.2759 40.025 31.176C38.8923 30.7589 37.7346 30.4058 36.6003 29.9918C36.2222 29.8543 36.005 29.9481 35.741 30.2168C34.3161 31.6635 32.874 33.093 31.4335 34.5256C30.507 35.449 29.6758 35.449 28.7493 34.5256C27.3104 33.093 25.8636 31.6666 24.4497 30.209C24.1231 29.8746 23.8575 29.8293 23.4341 29.9856C22.467 30.3449 21.4702 30.6261 20.5046 30.9901C20.3805 31.0438 20.2685 31.1221 20.1755 31.2204C20.0826 31.3187 20.0107 31.4349 19.9641 31.5619C19.6659 32.6589 19.6354 33.8113 19.875 34.9225C19.9516 35.2896 20.1156 35.4255 20.4671 35.5146C22.2483 35.9677 23.6497 37.5253 23.77 39.2642C23.8528 40.45 23.8216 41.6467 23.7935 42.8356C23.7867 43.1824 23.6486 43.5136 23.4071 43.7625C23.1655 44.0113 22.8384 44.1591 22.492 44.1761C22.1415 44.2042 21.7894 44.2042 21.4389 44.1761C21.2305 44.1716 21.032 44.0857 20.886 43.9368C20.7401 43.7879 20.6581 43.5878 20.6578 43.3793C20.6234 42.9106 20.8734 42.5981 21.3327 42.4825C21.5724 42.4378 21.8144 42.407 22.0576 42.3904C22.0576 41.492 22.078 40.6171 22.0576 39.7422C22.0449 39.1022 21.804 38.4878 21.3783 38.0098C20.9527 37.5317 20.3702 37.2214 19.736 37.1347C18.3126 36.9676 16.9784 37.78 16.7549 39.1657C16.5862 40.2187 16.7221 41.3217 16.7221 42.4138C16.8784 42.4138 17.0346 42.4138 17.1908 42.4403C17.7408 42.5106 18.0783 42.8778 18.0517 43.3652C18.0252 43.8527 17.6768 44.1464 17.1534 44.1839C16.9206 44.198 16.6846 44.1948 16.4503 44.1839C15.4629 44.1526 14.8957 43.5887 14.8879 42.6028C14.877 41.6467 14.8582 40.6874 14.8879 39.7329C14.9582 37.8362 15.8941 36.5004 17.608 35.7021C17.7955 35.613 17.9876 35.5334 18.0658 35.499V31.7947C17.483 31.9853 16.9721 32.1509 16.455 32.3228C13.9833 33.1508 12.7443 34.8537 12.7381 37.4487C12.7318 40.0068 12.7318 42.5648 12.7381 45.1228C12.7381 45.3291 12.7599 45.5337 12.7724 45.7478H47.2229C47.2463 45.6087 47.262 45.4683 47.2697 45.3275C47.2697 42.5934 47.2697 39.8599 47.2697 37.1269C47.2723 36.7952 47.2393 36.4642 47.1713 36.1395C46.6057 33.7054 44.8621 32.5728 42.6686 32.0744ZM40.8187 17.7276C40.7624 17.901 40.7109 18.0401 40.6624 18.1963C39.9547 20.6695 38.6079 22.7458 36.4565 24.1331C35.4097 24.8096 35.0863 25.5392 35.2066 26.6797C35.2957 27.5046 35.4113 27.7483 36.2378 28.0264C38.8235 28.8966 41.3936 29.8153 44.0012 30.623C47.0151 31.5604 49.1212 34.1585 49.0259 37.6269C48.9587 40.1047 49.0133 42.5856 49.0133 45.0666V45.7571H54.6817V17.7261L40.8187 17.7276ZM20.7218 12.3767C20.7218 13.6609 20.6406 14.8545 20.7359 16.0341C21.2202 22.0677 27.5197 26.1188 33.174 23.9347C38.7267 21.7896 39.7469 17.1574 39.2673 12.3532C36.6133 12.0723 34.1727 10.7703 32.4615 8.72243C28.9463 10.97 24.8917 12.2316 20.7218 12.3751V12.3767ZM20.6562 10.516C20.7111 10.5491 20.7699 10.5753 20.8312 10.5941C20.9484 10.5941 21.0656 10.5941 21.1812 10.58C24.8599 10.3825 28.4231 9.2273 31.5178 7.22884C32.4756 6.61954 33.0802 6.7211 33.8067 7.58818C34.9439 8.96975 36.496 9.94818 38.2329 10.3785C38.5767 10.4675 38.9329 10.5066 39.3172 10.5753C39.3172 8.67399 39.3954 6.87733 39.2969 5.08848C39.1876 3.08559 37.6611 1.76542 35.6269 1.76073C31.8772 1.75449 28.1311 1.75449 24.3887 1.76073C22.1889 1.76073 20.6874 3.26056 20.6593 5.47436C20.6453 6.60548 20.6593 7.73816 20.6593 8.86928L20.6562 10.516ZM25.7386 28.8701L30.0601 33.2039L34.3254 28.9435C33.3802 28.142 33.4646 26.9593 33.4583 25.7376C31.1957 26.4445 28.7701 26.4369 26.512 25.7158C26.5589 26.9359 26.6026 28.067 25.7386 28.8685V28.8701ZM37.5721 58.2088C37.4695 57.7165 37.1983 57.2754 36.8053 56.9616C36.4122 56.6479 35.9219 56.4812 35.4191 56.4903C34.0536 56.47 32.6896 56.4903 31.3241 56.4903C29.1024 56.4903 26.8792 56.4903 24.6559 56.4903C23.481 56.4903 22.5873 57.2105 22.442 58.2088H37.5721ZM27.4791 51.1112V54.678H32.5224V51.1112H27.4791ZM43.3622 40.189C43.3643 39.8911 43.3073 39.5957 43.1944 39.3199C43.0815 39.0442 42.915 38.7936 42.7046 38.5826C42.4942 38.3716 42.244 38.2045 41.9686 38.0908C41.6931 37.9772 41.3979 37.9193 41.0999 37.9206C40.798 37.912 40.4974 37.9641 40.2158 38.0736C39.9343 38.1831 39.6775 38.3478 39.4607 38.5582C39.2439 38.7685 39.0714 39.0201 38.9534 39.2982C38.8354 39.5763 38.7743 39.8751 38.7736 40.1772C38.773 40.4793 38.8329 40.7784 38.9497 41.057C39.0666 41.3355 39.2381 41.5878 39.454 41.7991C39.67 42.0103 39.926 42.1761 40.2071 42.2868C40.4882 42.3975 40.7885 42.4508 41.0905 42.4435C41.3885 42.4468 41.6841 42.3908 41.9602 42.2788C42.2363 42.1668 42.4873 42.001 42.6987 41.7911C42.9101 41.5811 43.0777 41.3312 43.1916 41.0559C43.3055 40.7806 43.3635 40.4854 43.3622 40.1875V40.189Z" fill="#92210F"/>
</svg>
