<svg width="60" height="58" viewBox="0 0 60 58" fill="none" xmlns="http://www.w3.org/2000/svg">
<path d="M0 42.7078V3.33281C0.953125 0.851562 2.04844 0 4.33438 0C21.4406 0 38.5469 0 55.6531 0C58.3578 0 60 1.64688 60 4.33906V41.6578C60 44.3406 58.3406 45.9922 55.6484 45.9922H35.9391C36.1547 46.9938 36.2703 47.9266 36.5641 48.8047C37.2687 50.9484 38.6937 51.9391 40.9516 51.9703C41.6547 51.9812 42.3578 51.9703 43.0594 51.9969C44.6219 52.0672 45.8156 53.1734 45.975 54.6797C46.0584 55.3848 45.8845 56.0963 45.4852 56.6833C45.0858 57.2704 44.488 57.6936 43.8016 57.875C43.3826 57.9669 42.9537 58.0057 42.525 57.9906C34.1854 57.9969 25.8469 57.9969 17.5094 57.9906C17.2362 57.9954 16.9629 57.986 16.6906 57.9625C16.1805 57.9234 15.6904 57.7477 15.2716 57.4538C14.8529 57.1599 14.521 56.7586 14.3109 56.2922C13.3328 54.2969 14.7609 52.0563 17.0406 51.9891C17.9953 51.9594 18.9656 52.0438 19.9062 51.9109C22.425 51.5578 24.2812 48.7609 23.8703 45.9922H23.1859C16.8203 45.9922 10.4542 45.9922 4.0875 45.9922C2.17031 45.9922 0.676563 44.8516 0.134375 43.0234C0.0957043 42.9157 0.0508377 42.8103 0 42.7078ZM6.025 35.9141H53.9656V6.05156H6.025V35.9141ZM57.9969 38.0641H1.99688V41.5016C1.99688 43.2844 2.70156 44.0016 4.46563 44.0016H55.5453C55.7203 44.0016 55.8969 44.0016 56.0719 44.0016C57.1047 43.9484 57.9469 43.1734 57.9859 42.1422C58.0312 40.7906 57.9969 39.4453 57.9969 38.0641ZM3.99375 35.9375V5.56094C3.99375 4.25469 4.23594 3.99844 5.5125 3.99844H54.4953C55.7453 3.99844 56.0062 4.25938 56.0062 5.50313V35.9375H58.0078V4.44375C58.0078 2.725 57.2922 2.00469 55.6047 2.00469H4.39062C2.72656 2.00469 1.99688 2.73438 1.99688 4.39375V35.9375H3.99375ZM36.0656 51.9391C34.6141 50.1781 34.2016 48.1312 34.0125 46.0391H25.9766C25.8062 48.1781 25.3594 50.1922 23.9453 51.9391H36.0656ZM29.9984 55.9891C34.2547 55.9891 38.5115 55.9891 42.7687 55.9891C43.55 55.9891 43.9656 55.6406 43.9813 55.0266C43.9984 54.3875 43.5547 53.9937 42.7687 53.9922C41.9828 53.9906 41.1687 54.0281 40.3687 54.0281C33.4573 54.0281 26.5453 54.0281 19.6328 54.0281C18.7937 54.0281 17.9547 53.9844 17.1156 53.9953C16.4172 54.0047 16.0031 54.4188 16.0219 55.0234C16.0406 55.6281 16.4359 55.9609 17.1156 55.9875C17.2906 55.9953 17.4672 55.9875 17.6422 55.9875L29.9984 55.9891Z" fill="#92210F"/>
<path d="M45.9641 18.6015C44.9844 19.0594 44.0672 19.4703 43.1734 19.9281C43.0531 19.9906 43.0172 20.2953 43.0172 20.4875C43.0063 22.5375 42.9906 24.589 43.0172 26.639C43.0266 27.3375 42.7609 27.7547 42.1391 28.0609C38.3453 29.9359 34.5604 31.8276 30.7844 33.7359C30.5489 33.8699 30.2826 33.9403 30.0117 33.9403C29.7408 33.9403 29.4745 33.8699 29.2391 33.7359C25.4641 31.8286 21.6802 29.938 17.8875 28.064C17.2359 27.7515 16.975 27.3172 16.9875 26.5969C17.0219 24.6062 16.9875 22.6125 17.0141 20.6219C17.0141 20.1078 16.8484 19.875 16.3891 19.6844C15.175 19.1547 13.9906 18.5547 12.7859 18.0031C12.3391 17.8 12.0156 17.5203 12.0047 17.0094C11.9938 16.4984 12.3172 16.2094 12.7609 16.0015C18.2693 13.4172 23.7734 10.826 29.2734 8.2281C29.506 8.10917 29.764 8.04885 30.0252 8.05239C30.2863 8.05593 30.5427 8.12322 30.7719 8.24841C36.1292 10.7828 41.4906 13.3094 46.8563 15.8281C47.1688 15.9844 47.5172 16.1109 47.7484 16.35C47.9292 16.5736 48.0264 16.8531 48.0234 17.1406C48.0328 19.8359 48.0047 22.5297 48.0234 25.225C48.0402 25.5494 48.1397 25.864 48.3125 26.139C48.7469 26.8562 49.2359 27.5453 49.6969 28.2422C50.1266 28.8953 50.0656 29.4922 49.5406 29.8297C49.0156 30.1672 48.4641 29.9859 48.0188 29.3281C47.6922 28.85 47.3703 28.3672 46.9969 27.814C46.6234 28.3719 46.2938 28.8703 45.9563 29.364C45.5344 29.9781 44.9703 30.1547 44.4719 29.8328C43.9422 29.4969 43.8766 28.8953 44.2969 28.2469C44.3155 28.2125 44.3375 28.18 44.3625 28.15C45.7688 26.5969 46.2375 24.7875 46.0234 22.7125C45.9031 21.5734 46.0031 20.4109 46 19.2594C46.0016 19.0719 45.9766 18.8828 45.9641 18.6015ZM42.2813 18.0984L42.2422 18.0219H30.9922C30.9922 18.3781 31.0172 18.7078 30.9922 19.0328C30.9375 19.6234 30.5453 19.9828 30.0031 19.9828C29.8752 19.9886 29.7474 19.9681 29.6277 19.9226C29.508 19.8771 29.3989 19.8075 29.3071 19.7182C29.2153 19.6289 29.1427 19.5217 29.094 19.4033C29.0452 19.2849 29.0212 19.1577 29.0234 19.0297C28.9922 17.6828 28.9938 16.3359 29.0234 14.9906C29.0201 14.8627 29.0423 14.7354 29.0887 14.6162C29.135 14.4969 29.2047 14.3881 29.2935 14.296C29.3824 14.204 29.4887 14.1305 29.6062 14.08C29.7238 14.0294 29.8502 14.0027 29.9781 14.0015C30.5281 13.9828 30.95 14.3765 31.0016 14.9859C31.0281 15.3078 31.0016 15.6328 31.0016 15.9469H42.3313C42.282 15.9056 42.2298 15.868 42.175 15.8344C38.224 13.9719 34.2714 12.1156 30.3172 10.2656C30.0705 10.1872 29.803 10.2068 29.5703 10.3203C26.0891 11.9411 22.6125 13.5719 19.1406 15.2125C17.9125 15.7906 16.6844 16.3719 15.4031 16.9781C15.5453 17.064 15.6219 17.1219 15.7156 17.1625C20.3656 19.35 25.0177 21.5276 29.6719 23.6953C29.9151 23.783 30.1828 23.7729 30.4188 23.6672C33.2797 22.3406 36.1281 20.9906 38.9813 19.6469L42.2813 18.0984ZM19 20.9469C19 22.739 18.9891 24.3984 19.0156 26.0578C19.0368 26.1612 19.0806 26.2586 19.1438 26.3432C19.207 26.4277 19.2881 26.4973 19.3813 26.5469C22.7927 28.2698 26.2109 29.9791 29.6359 31.675C29.754 31.7244 29.8806 31.7499 30.0086 31.7499C30.1366 31.7499 30.2632 31.7244 30.3813 31.675C33.8094 29.9828 37.2234 28.2625 40.6484 26.5656C40.7729 26.518 40.8775 26.4293 40.9448 26.3143C41.0121 26.1992 41.0382 26.0647 41.0188 25.9328C41.0016 24.9953 41.0188 24.0578 41.0188 23.1203V20.9953C40.8625 21.0515 40.7844 21.0687 40.7172 21.1C37.5922 22.5625 34.4781 24.0187 31.3688 25.5015C31.2745 25.567 31.1956 25.6522 31.1376 25.7512C31.0796 25.8503 31.0438 25.9607 31.0328 26.075C30.9875 26.6765 31.0328 27.2844 31.0094 27.8906C30.9875 28.5625 30.6063 28.9765 30.0375 28.9922C29.4688 29.0078 29.0375 28.5765 29.0141 27.8844C28.9953 27.2984 28.9891 26.7109 29.0141 26.1265C29.0328 25.7562 28.8875 25.5797 28.5563 25.4265C26.575 24.5156 24.6063 23.5781 22.6328 22.65L19 20.9469Z" fill="#92210F"/>
<path d="M30.0094 40C30.9641 40 31.9187 40 32.8734 40C33.5687 40 33.9953 40.4 33.9891 41C33.9828 41.6 33.5484 41.9875 32.8547 41.9906C30.9453 42 29.0354 42 27.125 41.9906C26.4391 41.9906 26.0062 41.5766 26.0109 40.9812C26.0156 40.3859 26.4359 40.0062 27.1437 40C28.0984 40 29.0547 40 30.0094 40Z" fill="#92210F"/>
</svg>
