<svg width="57" height="44" viewBox="0 0 57 44" fill="none" xmlns="http://www.w3.org/2000/svg">
<path d="M0.153809 3.16371C0.280155 2.80327 0.427707 2.45062 0.595692 2.1076C1.23642 0.979329 2.22771 0.396043 3.5136 0.30472C3.69771 0.291463 3.88183 0.30472 4.06595 0.30472H43.9386C46.4676 0.30472 47.8669 1.70549 47.8669 4.23454C47.8669 11.3047 47.8669 18.3748 47.8669 25.4449C47.8669 25.5554 47.8669 25.6659 47.8669 25.7764C47.8492 26.3758 47.537 26.75 47.048 26.7603C46.5324 26.7706 46.2128 26.3979 46.2113 25.7543C46.2113 21.3914 46.2113 17.0285 46.2113 12.6657V9.082H1.81087V39.7841C1.81087 41.2231 2.50905 41.9301 3.93486 41.9301H44.0829C45.3747 41.9301 46.0567 41.341 46.2098 40.1096C46.2805 39.5543 46.6193 39.2405 47.1098 39.2833C47.6003 39.326 47.8787 39.706 47.8595 40.2628C47.7992 42.0141 46.3409 43.4753 44.5469 43.5798C44.326 43.5931 44.105 43.5798 43.8841 43.5798H4.50931C1.92134 43.5798 1.12153 43.0555 0.153809 40.7164V3.16371ZM1.81824 7.33361H46.2098C46.2098 6.25542 46.2098 5.2273 46.2098 4.19919C46.2098 2.62019 45.5411 1.95589 43.9548 1.95589H4.03796C3.87152 1.95589 3.70655 1.95589 3.54158 1.95589C2.62836 2.02365 1.8639 2.71151 1.83149 3.60706C1.78436 4.84139 1.81824 6.07277 1.81824 7.33361Z" fill="white"/>
<path d="M56.7148 40.6135C56.6309 40.8139 56.5528 41.0171 56.46 41.213C56.2841 41.5901 56.0195 41.919 55.6888 42.1715C55.358 42.424 54.9711 42.5927 54.5609 42.663C54.1508 42.7334 53.7298 42.7034 53.3338 42.5755C52.9378 42.4477 52.5787 42.2258 52.2872 41.9289C50.7406 40.4309 49.2352 38.8902 47.7122 37.3628C46.0463 35.6969 44.3907 34.0221 42.7116 32.3695C41.869 31.5402 41.5862 30.5931 41.925 29.4545C41.946 29.3834 41.9516 29.3087 41.9414 29.2353C41.9313 29.1619 41.9056 29.0915 41.8661 29.0288C41.3609 28.4706 40.835 27.9359 40.2871 27.3688C37.9569 29.1673 35.419 29.8213 32.6086 29.1673C30.5009 28.6936 28.6512 27.4382 27.4327 25.6543C26.2076 23.9138 25.6573 21.7871 25.8844 19.6708C26.1115 17.5545 27.1005 15.593 28.667 14.1521C31.8456 11.1812 36.7682 11.0353 40.1913 13.7942C43.4318 16.4042 44.9048 21.7481 41.4168 26.2744C41.9604 26.8032 42.5053 27.3482 43.0754 27.8667C43.1608 27.9447 43.37 27.9388 43.5084 27.9006C44.6013 27.5839 45.5308 27.8269 46.3365 28.637C49.4812 31.7906 52.6436 34.9265 55.7633 38.0992C56.1713 38.5146 56.3982 39.1082 56.709 39.6208L56.7148 40.6135ZM41.7821 20.636C41.7772 18.746 41.0282 16.934 39.6973 15.592C38.3664 14.2501 36.5606 13.4862 34.6707 13.4657C30.7439 13.4362 27.4901 16.6797 27.4931 20.6198C27.5289 22.4894 28.2962 24.2705 29.6303 25.5808C30.9644 26.8911 32.759 27.6262 34.6289 27.6283C36.4989 27.6304 38.2952 26.8994 39.6322 25.5921C40.9693 24.2848 41.7406 22.5055 41.7807 20.636H41.7821ZM46.1096 33.3991C46.1759 33.4712 46.2334 33.5464 46.2982 33.6053C48.6225 35.9325 50.9478 38.2588 53.274 40.5841C53.3851 40.7063 53.5113 40.8137 53.6496 40.9037C53.8247 41.0052 54.0281 41.0467 54.229 41.022C54.4298 40.9973 54.6171 40.9078 54.7624 40.767C54.9077 40.6262 55.0031 40.4418 55.0341 40.2418C55.0651 40.0419 55.0299 39.8373 54.9341 39.6591C54.8389 39.5023 54.7224 39.3595 54.5879 39.2349C52.3039 36.942 50.0179 34.655 47.7299 32.3739C47.6282 32.2723 47.5134 32.1824 47.3926 32.0793L46.1096 33.3991ZM46.17 30.8067C45.7635 30.4208 45.3393 29.9465 44.8444 29.5694C44.4732 29.2866 44.0372 29.3764 43.6984 29.7167C43.5401 29.8734 43.4468 30.0842 43.4373 30.3068C43.4277 30.5294 43.5026 30.7474 43.6469 30.9171C44.0254 31.359 44.4496 31.7567 44.8679 32.1898L46.17 30.8067Z" fill="white"/>
<path d="M13.3956 30.4222V28.5354H12.8064C11.3158 28.5354 9.82369 28.5354 8.33307 28.5354C7.03541 28.5354 6.35196 27.849 6.34754 26.5646C6.34754 25.8649 6.34754 25.1653 6.34754 24.4656C6.34754 23.1017 7.00448 22.4521 8.38757 22.4492H13.3882V20.555H12.7725C11.2819 20.555 9.78981 20.555 8.29919 20.555C7.02952 20.5476 6.35343 19.8701 6.34754 18.6151C6.34754 17.8418 6.34754 17.0685 6.34754 16.2952C6.36227 15.2111 7.05897 14.4791 8.14453 14.4761C12.2305 14.4624 16.3169 14.4624 20.4039 14.4761C21.4732 14.4761 22.1463 15.189 22.1714 16.2628C22.1861 17.0906 22.1846 17.9199 22.1714 18.7477C22.1537 19.8568 21.4909 20.5373 20.3788 20.5506C18.8322 20.5712 17.2856 20.5506 15.739 20.5506H15.1189V22.4433H15.7803C17.2709 22.4433 18.763 22.4433 20.2536 22.4433C21.5027 22.4433 22.1684 23.1076 22.1684 24.3449C22.1684 25.1182 22.1773 25.8915 22.1684 26.6647C22.1537 27.8328 21.482 28.5148 20.3096 28.5251C18.7453 28.5398 17.1796 28.5251 15.6153 28.5251C15.468 28.5251 15.3207 28.5398 15.1322 28.5501V30.4119H15.7346C17.2635 30.4119 18.791 30.4046 20.3184 30.4119C21.4968 30.4193 22.1552 31.088 22.1684 32.2664C22.1773 33.0765 22.1817 33.8866 22.1684 34.6967C22.1493 35.7838 21.4496 36.4863 20.3523 36.4878C16.3027 36.4967 12.2526 36.4967 8.20198 36.4878C7.06192 36.4878 6.35933 35.7513 6.35049 34.6083C6.3446 33.8355 6.3446 33.0622 6.35049 32.2885C6.35049 31.1013 7.04572 30.4149 8.2447 30.409C9.75299 30.4016 11.2628 30.409 12.7725 30.409L13.3956 30.4222ZM20.4804 32.125H8.03996V34.8116H20.4804V32.125ZM20.4804 16.173H8.04143V18.8567H20.4804V16.173ZM8.02817 26.8444H20.4701V24.1504H8.02817V26.8444Z" fill="white"/>
<path d="M29.3181 3.83989H43.0165C43.1824 3.8335 43.3486 3.83595 43.5143 3.84725C43.7281 3.85747 43.9301 3.94764 44.0805 4.09989C44.2308 4.25214 44.3184 4.45533 44.3259 4.66916C44.3259 5.1243 43.9798 5.4616 43.4672 5.49253C43.3022 5.50284 43.1358 5.49253 42.9708 5.49253H15.686C15.5195 5.49253 15.3531 5.49253 15.1881 5.49253C14.6741 5.46455 14.325 5.13166 14.322 4.67799C14.3191 4.22433 14.6711 3.8826 15.1793 3.84431C15.3443 3.83105 15.5107 3.84431 15.6771 3.84431L29.3181 3.83989Z" fill="white"/>
<path d="M5.34888 4.74708C5.32938 4.95866 5.22782 5.15421 5.06595 5.29185C4.90408 5.4295 4.69476 5.4983 4.48279 5.48355C4.37289 5.47665 4.26545 5.448 4.1667 5.39927C4.06795 5.35054 3.97985 5.2827 3.90751 5.19967C3.83518 5.11665 3.78003 5.02009 3.74528 4.9156C3.71053 4.81111 3.69687 4.70076 3.70507 4.59095C3.73037 4.38076 3.83347 4.18768 3.99405 4.04973C4.15463 3.91178 4.36105 3.83896 4.57264 3.84564C4.68308 3.85308 4.79094 3.8824 4.88995 3.93189C4.98896 3.98139 5.07714 4.05007 5.14937 4.13395C5.22159 4.21782 5.27643 4.31522 5.31068 4.42048C5.34493 4.52574 5.35792 4.63676 5.34888 4.74708Z" fill="white"/>
<path d="M8.07541 3.84424C8.18612 3.84725 8.29513 3.87233 8.39603 3.91801C8.49693 3.96369 8.5877 4.02905 8.66301 4.11026C8.73833 4.19147 8.79667 4.2869 8.83463 4.39096C8.87258 4.49501 8.88939 4.60559 8.88405 4.71622C8.87561 4.92942 8.78355 5.13071 8.62779 5.27654C8.47204 5.42237 8.26513 5.501 8.05184 5.49541C7.94159 5.49352 7.83283 5.4697 7.73188 5.42534C7.63094 5.38098 7.53984 5.31697 7.46388 5.23704C7.38793 5.15712 7.32865 5.06287 7.28949 4.95979C7.25034 4.85672 7.2321 4.74688 7.23583 4.63668C7.24961 4.4229 7.34389 4.22229 7.49968 4.07524C7.65546 3.9282 7.86119 3.84566 8.07541 3.84424Z" fill="white"/>
<path d="M12.4311 4.64699C12.4415 4.85986 12.367 5.06816 12.2239 5.22614C12.0809 5.38411 11.8809 5.47884 11.6681 5.48952C11.5579 5.49668 11.4474 5.4818 11.343 5.44575C11.2386 5.4097 11.1424 5.3532 11.0602 5.27955C10.9779 5.2059 10.9111 5.11659 10.8637 5.01683C10.8164 4.91707 10.7894 4.80886 10.7843 4.69855C10.7831 4.47591 10.8693 4.26168 11.0244 4.10192C11.1794 3.94216 11.391 3.84964 11.6136 3.84424C11.827 3.84716 12.031 3.93223 12.1832 4.08174C12.3355 4.23126 12.4243 4.43371 12.4311 4.64699Z" fill="white"/>
<path d="M34.4529 18.8105C34.7873 18.9254 35.1894 18.9578 35.4339 19.1832C35.6121 19.3423 35.6813 19.7577 35.6239 20.0213C35.4206 20.9714 35.1481 21.9067 34.8874 22.8435C34.8108 23.1219 34.7858 23.3119 35.0671 23.5431C35.2601 23.7022 35.4074 24.1323 35.3323 24.3503C35.2498 24.6036 34.8977 24.7716 34.6532 24.9645C34.6046 25.0013 34.5059 24.9807 34.4367 24.9866C33.1729 25.0794 32.5425 24.7495 33.0477 23.3016C33.2955 22.5331 33.5035 21.7524 33.6708 20.9625C33.7076 20.8049 33.6708 20.5413 33.5647 20.4573C33.2127 20.1819 33.0787 19.8504 33.2171 19.4439C33.3556 19.0374 33.7253 18.8945 34.1436 18.8989H34.419L34.4529 18.8105Z" fill="white"/>
<path d="M36.403 17.0552C36.4083 17.1605 36.3925 17.2658 36.3564 17.3649C36.3203 17.464 36.2647 17.5548 36.1928 17.632C36.121 17.7092 36.0344 17.7712 35.9382 17.8143C35.8419 17.8574 35.738 17.8808 35.6326 17.883C35.5228 17.8889 35.413 17.873 35.3094 17.8361C35.2059 17.7992 35.1107 17.7421 35.0294 17.6681C34.9482 17.5941 34.8824 17.5046 34.836 17.405C34.7896 17.3053 34.7635 17.1975 34.7592 17.0876C34.7593 16.9774 34.7813 16.8684 34.8237 16.7667C34.866 16.665 34.9281 16.5726 35.0062 16.4949C35.0843 16.4172 35.177 16.3556 35.2789 16.3138C35.3808 16.2719 35.49 16.2506 35.6002 16.251C35.8132 16.2514 36.0174 16.3363 36.1679 16.4871C36.3184 16.6378 36.403 16.8422 36.403 17.0552Z" fill="white"/>
</svg>
