<svg width="17" height="20" viewBox="0 0 17 20" fill="none" xmlns="http://www.w3.org/2000/svg">
<path d="M5.86375 20.0002C5.86375 18.3857 5.86375 16.7711 5.86687 15.1565C5.87266 15.0937 5.86064 15.0304 5.83218 14.9741C5.80372 14.9177 5.75997 14.8705 5.70593 14.8378C3.85839 13.5513 2.01275 12.2625 0.169025 10.9712C0.0502761 10.8884 -0.00441018 10.8071 0.000277261 10.6587C0.0122563 10.242 0.00444318 9.82535 0.00444318 9.39307H16.4105C16.4105 9.69619 16.3798 10.0097 16.4183 10.3144C16.4704 10.7222 16.3048 10.9477 15.9725 11.1753C14.2058 12.3837 12.4595 13.6232 10.7033 14.8461C10.6515 14.8765 10.6094 14.9209 10.5818 14.9741C10.5541 15.0274 10.5421 15.0874 10.547 15.1472C10.5528 16.1695 10.5501 17.1914 10.5501 18.2133V18.4388L8.79079 19.0242C7.89115 19.3242 6.99151 19.6244 6.09187 19.9247C6.04001 19.946 5.98986 19.9712 5.94187 20.0002H5.86375Z" fill="#062037"/>
<path d="M3.78404 4.67231C2.39344 4.42753 1.65907 3.24942 1.77313 2.12599C1.82653 1.54614 2.09419 1.00702 2.52384 0.613977C2.95348 0.22093 3.51424 0.00219058 4.09654 0.000496408C5.30798 -0.00262855 6.3111 0.895798 6.44026 2.12651C6.55484 3.23483 5.82985 4.42857 4.42831 4.67284C6.38662 5.03741 7.45691 6.19521 7.64597 8.1931H0.566895C0.756476 6.19469 1.82938 5.0395 3.78404 4.67231Z" fill="#062037"/>
<path d="M8.79297 8.18972C8.81276 7.27255 9.11796 6.48402 9.73046 5.82048C10.3429 5.15695 11.095 4.8007 11.9825 4.683C11.3247 4.55487 10.7893 4.24238 10.4039 3.69968C10.0185 3.15697 9.89452 2.55646 10.0081 1.90282C10.2034 0.774711 11.2669 -0.0549667 12.4481 0.00284512C13.6096 0.0590944 14.5835 1.02939 14.6512 2.19501C14.721 3.41582 13.8882 4.4429 12.6403 4.68091C13.5257 4.80279 14.2872 5.16216 14.8919 5.821C15.4965 6.47985 15.8075 7.27411 15.8293 8.18972H8.79297Z" fill="#062037"/>
</svg>
