<svg width="20" height="20" viewBox="0 0 20 20" fill="none" xmlns="http://www.w3.org/2000/svg">
<path d="M0 17.6562V0.664062C0.131836 0.313477 0.367188 0.078125 0.742188 0H14.3359C14.8403 0.172852 15.0122 0.537109 15.0059 1.0542C14.9883 2.44727 15 3.84033 15 5.2334C15 5.44824 15.0073 5.66357 14.9956 5.87793C14.9902 5.9936 14.9603 6.10682 14.9081 6.21016C14.8558 6.31349 14.7823 6.40461 14.6923 6.47755C14.6024 6.55049 14.498 6.60359 14.3861 6.63337C14.2742 6.66316 14.1573 6.66896 14.043 6.65039C13.5981 6.5835 13.332 6.24121 13.3311 5.72266C13.3291 4.45312 13.3291 3.18359 13.3311 1.91406V1.68018H6.68115C6.72996 1.72117 6.78763 1.75026 6.84961 1.76514L9.25733 2.49023C9.82031 2.66016 10 2.90332 10 3.49707V16.6543H13.3306V16.4062C13.3306 15.1436 13.3306 13.8807 13.3306 12.6177C13.3306 12.167 13.5161 11.8604 13.8628 11.7251C14.4253 11.5063 14.9971 11.9141 14.9971 12.543C15.001 14.1445 14.9971 15.7461 14.9971 17.3472C14.9971 18.0151 14.6851 18.3301 14.0205 18.3306H10C10 18.5557 9.98828 18.7515 10 18.9458C10.0366 19.4644 9.83545 19.8247 9.3335 20H8.98193C8.95492 19.9844 8.92626 19.9718 8.89649 19.9624C6.22461 19.4253 3.55322 18.8882 0.879395 18.3643C0.44629 18.2788 0.133301 18.0928 0 17.6562Z" fill="#062037"/>
<path d="M19.9986 9.33616C19.8492 9.54417 19.7232 9.77562 19.547 9.95579C18.8062 10.7151 18.0528 11.4617 17.3009 12.2087C16.8888 12.6174 16.3121 12.5891 15.9942 12.1531C15.7476 11.8152 15.7867 11.3801 16.1046 11.0525C16.3941 10.7536 16.6905 10.4631 16.9869 10.1687C17.0313 10.1242 17.0728 10.0769 17.1441 10.0002H16.9C15.4556 10.0002 14.0111 10.0002 12.5665 10.0002C12.0172 10.0002 11.6495 9.63206 11.6729 9.11693C11.6815 8.93689 11.7496 8.7648 11.8667 8.62771C11.9837 8.49062 12.143 8.39631 12.3194 8.3596C12.4347 8.33939 12.5515 8.32991 12.6685 8.33128C14.0738 8.33128 15.4792 8.33128 16.8848 8.33128H17.1353C17.0533 8.2429 17.0035 8.1848 16.9513 8.13597C16.6412 7.82054 16.3165 7.51878 16.0235 7.18724C15.7306 6.8557 15.7794 6.37474 16.0875 6.07445C16.2336 5.93246 16.4271 5.84948 16.6307 5.84146C16.8343 5.83344 17.0337 5.90094 17.1905 6.03099C17.2551 6.08541 17.3169 6.1431 17.3756 6.20384C18.0894 6.91624 18.8082 7.62425 19.5123 8.34642C19.6978 8.53685 19.837 8.77318 19.9976 8.98851L19.9986 9.33616Z" fill="#062037"/>
</svg>
