<svg width="61" height="60" viewBox="0 0 61 60" fill="none" xmlns="http://www.w3.org/2000/svg">
<path d="M20.9154 6.44856L20.9154 6.44857C21.3403 6.87329 21.3403 7.56203 20.9154 7.98689L17.6151 11.2873C16.7257 12.1766 15.2838 12.1766 14.3945 11.2873C13.5051 10.3979 13.5051 8.95601 14.3945 8.06666L17.6948 4.76629C18.1197 4.34144 18.8083 4.34144 19.2331 4.76629L20.9154 6.44856ZM30.1011 8.47681L30.1713 8.40655L30.1011 8.47682C30.5259 8.90154 30.5259 9.59028 30.1011 10.0151L26.8007 13.3155C25.9114 14.2049 24.4695 14.2049 23.5801 13.3155C22.6908 12.4261 22.6908 10.9843 23.5801 10.0949L26.8805 6.79454C27.3053 6.36969 27.994 6.36969 28.4188 6.79454L30.1011 8.47681ZM52.0147 39.0862L51.944 39.0155L52.0147 39.0862C52.4395 38.6614 53.1282 38.6614 53.5531 39.0862L55.2353 40.7685C55.6602 41.1933 55.6602 41.882 55.2353 42.3068L51.935 45.6072C51.0456 46.4965 49.6037 46.4965 48.7144 45.6072C47.825 44.7178 47.825 43.2759 48.7144 42.3866L52.0147 39.0862ZM46.6861 33.2008L49.9865 29.9004C50.4113 29.4757 51.1001 29.4757 51.5248 29.9004L53.2071 31.5827C53.6319 32.0076 53.6319 32.6962 53.2071 33.121L49.9067 36.4214C49.0174 37.3108 47.5755 37.3108 46.6861 36.4214C45.7968 35.532 45.7968 34.0902 46.6861 33.2008Z" fill="#8C8C8C" stroke="black" stroke-width="0.2"/>
<path d="M47.977 59.326C48.3302 59.9719 49.2047 60.0975 49.7253 59.5768C51.1881 58.114 51.8638 56.0355 51.5497 53.9914L51.5497 53.9913M47.977 59.326L51.6485 53.9762L51.5497 53.9913M47.977 59.326L31.8962 29.9146L45.7031 16.1077M47.977 59.326L45.7031 16.1077M51.5497 53.9913L45.7031 16.1077M51.5497 53.9913L45.7031 16.1077M6.0086 8.45052L6.00872 8.45054L43.8881 14.2928L30.0812 28.0998L0.674241 12.0232L0.674237 12.0232C0.0282553 11.6701 -0.0972158 10.7954 0.423309 10.2749C1.88636 8.81188 3.96046 8.13208 6.0086 8.45052ZM14.0575 45.9894L14.0424 45.9587L14.0117 45.9436L2.77339 40.4295L2.72934 40.5192L2.77339 40.4295C2.22464 40.1602 2.10354 39.4311 2.53572 38.9989L3.27066 38.264C4.27739 37.2572 5.67452 36.7417 7.09393 36.8533L21.8389 38.0127L21.8849 38.0163L21.9174 37.9837L21.9691 37.9321L21.9698 37.9402L21.9769 38.0253L22.0621 38.0315L22.0642 38.0317L22.0149 38.081L21.9823 38.1136L21.9859 38.1595L23.1451 52.9046C23.2567 54.324 22.7412 55.7212 21.7344 56.7279L20.9995 57.4627C20.5673 57.895 19.8381 57.7738 19.5689 57.2249L14.0575 45.9894Z" fill="#70C6EC" stroke="black" stroke-width="0.2"/>
<path d="M11.2952 45.363L10.8998 46.6945C10.7455 47.2144 11.005 47.9214 11.5424 48.4588C12.0798 48.9962 12.7869 49.2558 13.3067 49.1015L14.6382 48.706C17.4026 47.8911 22.1271 44.6368 24.8231 42.1927L24.756 42.1186M11.2952 45.363L24.756 42.1186M11.2952 45.363C12.1101 42.5987 15.3645 37.8741 17.8086 35.1781L11.2952 45.363ZM24.756 42.1186L54.438 14.7023L54.4388 14.7015C56.433 12.9022 58.2762 10.3199 59.2274 7.79869C60.1807 5.27176 60.2261 2.84423 58.6918 1.30984C57.1574 -0.224557 54.7299 -0.17923 52.203 0.77409C49.6818 1.72524 47.0994 3.5684 45.3001 5.56254L45.2993 5.56341L17.8826 35.2453C17.8825 35.2454 17.8824 35.2456 17.8822 35.2457C16.6643 36.5893 15.243 38.44 14.0246 40.2997C12.8048 42.1617 11.7943 44.0238 11.3911 45.3913L11.3911 45.3915L10.9957 46.723C10.8559 47.1938 11.0896 47.8646 11.6131 48.3881C12.1367 48.9117 12.8074 49.1454 13.2782 49.0056L14.6097 48.6102L14.6099 48.6101C15.9774 48.207 17.8395 47.1965 19.7015 45.9767C21.5612 44.7583 23.4119 43.337 24.7555 42.119C24.7557 42.1189 24.7558 42.1188 24.756 42.1186Z" fill="#F2F2F2" stroke="black" stroke-width="0.2"/>
<path d="M53.0231 7.06684C52.7761 6.81882 52.3877 6.53305 51.9547 6.4053C51.5168 6.27614 51.0271 6.30809 50.605 6.70897L50.605 6.70903C50.3898 6.91373 50.0486 6.9051 49.8443 6.68886L49.8442 6.68876C49.6396 6.47283 49.6486 6.1322 49.8643 5.92782L49.8643 5.92778C50.4613 5.36153 51.1757 5.19371 51.8738 5.29723C52.5747 5.40117 53.2602 5.7794 53.7857 6.30732L53.7857 6.30735L52.9522 7.1374M53.0231 7.06684L52.9522 7.1374M53.0231 7.06684C53.0231 7.06684 53.0231 7.06684 53.0231 7.06683L52.9522 7.1374M53.0231 7.06684C53.27 7.31476 53.5537 7.70387 53.6794 8.137C53.8065 8.57491 53.7725 9.0639 53.3707 9.48413M52.9522 7.1374C53.4306 7.61771 54.0415 8.63782 53.2985 9.41502M53.3707 9.48413C53.3708 9.48411 53.3708 9.48409 53.3708 9.48407L53.2985 9.41502M53.3707 9.48413L53.2985 9.41502M53.3707 9.48413L53.2985 9.41502M53.3881 10.2453L53.319 10.3176L53.3881 10.2453C53.3881 10.2453 53.3881 10.2453 53.3881 10.2453ZM54.1493 10.2279L54.2216 10.297L54.1494 10.2278C54.1493 10.2278 54.1493 10.2279 54.1493 10.2279Z" fill="black" stroke="black" stroke-width="0.2"/>
</svg>
