<svg width="14" height="15" viewBox="0 0 14 15" fill="none" xmlns="http://www.w3.org/2000/svg">
<path d="M2.69073 4.59025H2.22156V3.14533H2.9142C3.06493 2.7312 3.17045 2.32995 3.35209 1.9673C3.79563 1.08264 4.50636 0.490973 5.4432 0.17413C5.52761 0.145739 5.61881 0.13022 5.58979 0H7.50152L7.48004 0.0355811C7.53543 0.079871 7.58367 0.142711 7.6466 0.164667C9.00324 0.646429 9.82577 1.59507 10.1142 3.01058C10.1357 3.11581 10.1688 3.14761 10.2721 3.14383C10.4714 3.13588 10.6711 3.14155 10.8822 3.14155V4.58494H10.4134C10.456 4.66065 10.4888 4.71365 10.5151 4.76778C10.6001 4.93123 10.6463 5.11221 10.6501 5.29657C10.6538 5.48092 10.6151 5.66365 10.5368 5.83046C10.4586 5.99726 10.343 6.14361 10.199 6.25806C10.0551 6.37251 9.88676 6.45195 9.70718 6.49017C9.61222 6.51023 9.56549 6.54884 9.53685 6.63856C9.40722 7.0489 9.17056 7.39338 8.87059 7.69622C8.58834 7.98126 8.30533 8.26403 8.02156 8.54908C7.7736 8.79967 7.48154 8.94844 7.12467 8.94996C6.74356 8.95198 6.36282 8.95198 5.98246 8.94996C5.82821 8.95145 5.6752 8.92209 5.53235 8.8636C5.38949 8.80511 5.25965 8.71865 5.15039 8.60927C4.80821 8.27362 4.47069 7.93293 4.13781 7.58719C3.87858 7.31229 3.68118 6.98465 3.55898 6.62645C3.54693 6.59764 3.52895 6.5717 3.50622 6.55037C3.48348 6.52904 3.45652 6.51278 3.42708 6.50266C2.58408 6.30923 2.20159 5.42153 2.64626 4.67996C2.65719 4.65876 2.66661 4.63719 2.69073 4.59025ZM3.91396 4.59858C3.90849 4.62886 3.90484 4.65945 3.90303 4.69018C3.90303 5.06873 3.9004 5.44501 3.90605 5.82242C3.90699 6.35322 4.11224 6.86309 4.47885 7.24537C4.80369 7.5906 5.14323 7.9222 5.47937 8.25684C5.55091 8.32765 5.63604 8.38311 5.7296 8.41981C5.82315 8.45651 5.92316 8.47371 6.02354 8.47034C6.37526 8.47034 6.72698 8.47034 7.0787 8.47034C7.18631 8.47274 7.29325 8.45267 7.39276 8.41143C7.49226 8.37018 7.58216 8.30865 7.65678 8.23072C7.95825 7.92448 8.26425 7.62126 8.56685 7.31502C8.89998 6.97812 9.13212 6.57724 9.17357 6.10367C9.2154 5.61156 9.19656 5.11567 9.20334 4.62091C9.20334 4.61372 9.19204 4.60614 9.18526 4.59744L3.91396 4.59858ZM7.03536 2.64414V0.481509H6.06763V2.64301H5.58715V0.651097C4.53199 0.918729 3.55822 2.08617 3.47683 3.1336H9.63671C9.52065 1.97639 8.4636 0.865732 7.51282 0.654882V2.64414H7.03536ZM10.4059 3.62836H2.70317V4.1023H10.4059V3.62836ZM9.68985 5.992C10.0011 5.87503 10.1937 5.58242 10.1703 5.27996C10.147 4.9775 9.94837 4.71933 9.68985 4.66255V5.992ZM3.41615 4.6546C3.09018 4.75984 2.90591 5.06683 2.94435 5.41774C2.97374 5.68727 3.19645 5.94771 3.41615 5.97043V4.6546Z" fill="#92210F"/>
<path d="M8.24346 8.71558H8.69868C8.70697 8.73034 8.71526 8.73791 8.71602 8.74624C8.7375 9.02674 8.73788 9.02485 9.00167 9.11532C9.68376 9.34926 10.3779 9.55367 11.0438 9.82812C11.8159 10.1461 12.3224 10.7495 12.5135 11.5645C12.6823 12.2932 12.7773 13.0386 12.905 13.7767C12.9744 14.181 13.0395 14.5861 13.1081 14.9998H0C0.121721 14.2647 0.242686 13.5348 0.365914 12.7921L0.841491 12.869C0.751048 13.4205 0.661738 13.9634 0.570542 14.5176H2.24109C2.29134 14.1234 2.34083 13.7302 2.38956 13.338C2.402 13.2362 2.41858 13.134 2.42423 13.0318C2.43592 12.8156 2.47812 12.6384 2.7031 12.5211C2.88587 12.4265 2.92921 12.2137 2.939 12.0104C2.94127 11.9669 2.939 11.923 2.939 11.8685H3.40817C3.45226 12.28 3.33281 12.6256 3.02229 12.9053C2.96415 12.9584 2.92452 13.0289 2.90923 13.1063C2.84329 13.5712 2.78826 14.0376 2.72835 14.5164H6.30346V13.8002H3.42513V13.3179H6.30459C6.31628 13.0946 6.32532 12.8993 6.21641 12.6975C5.64286 11.6395 5.09229 10.5693 4.51308 9.5143C4.36913 9.25235 4.38232 8.9957 4.3891 8.71709H4.85073C4.85964 8.73955 4.86474 8.76334 4.86581 8.7875C4.82812 9.05589 4.9359 9.27961 5.05913 9.50673C5.5332 10.3846 5.99747 11.2681 6.46589 12.1494C6.49038 12.1959 6.51826 12.241 6.55369 12.3008C6.58723 12.2425 6.61399 12.1993 6.63773 12.1543C7.13403 11.2216 7.62656 10.2869 8.12814 9.35683C8.21256 9.19973 8.26192 9.04567 8.24534 8.86889C8.23969 8.82309 8.24346 8.77501 8.24346 8.71558ZM10.3779 14.5202C10.3165 14.0213 10.2573 13.5314 10.1936 13.0439C10.1844 13.0016 10.1606 12.964 10.1265 12.9375C9.80623 12.6831 9.68187 12.3455 9.68489 11.9438C9.68941 11.292 9.68752 10.6401 9.68489 9.98786C9.68489 9.936 9.65474 9.85045 9.61856 9.83645C9.28543 9.71569 8.9474 9.60743 8.60447 9.49349C8.57583 9.54422 8.55134 9.58547 8.52911 9.62825C7.97816 10.6647 7.43136 11.7034 6.87363 12.7361C6.7715 12.9254 6.80165 13.1101 6.8009 13.3198H9.67923V13.8013H6.80316V14.5206L10.3779 14.5202ZM12.5301 14.5168C12.5244 14.4627 12.5218 14.4146 12.5139 14.3654C12.3887 13.6083 12.2501 12.8512 12.1404 12.0911C11.9622 10.8703 11.2164 10.271 10.1808 10.0341C10.1785 10.0783 10.1744 10.1211 10.1744 10.1639C10.1744 10.7665 10.1778 11.3696 10.1725 11.9722C10.1699 12.2716 10.289 12.4878 10.5524 12.6305C10.5756 12.6447 10.5957 12.6635 10.6115 12.6857C10.6272 12.708 10.6383 12.7333 10.644 12.76C10.7173 13.3084 10.7859 13.8572 10.8497 14.4066C10.8606 14.502 10.8923 14.5285 10.9846 14.5278C11.4625 14.524 11.9407 14.5278 12.4166 14.5255C12.4513 14.5274 12.486 14.5213 12.5301 14.5168Z" fill="#92210F"/>
<path d="M5.10203 2.18384V2.63809H4.63135V2.18384H5.10203Z" fill="#92210F"/>
<path d="M8.47447 2.18262V2.64406H8.01208V2.18262H8.47447Z" fill="#92210F"/>
</svg>
