<svg width="60" height="55" viewBox="0 0 60 55" fill="none" xmlns="http://www.w3.org/2000/svg">
<path d="M40.9298 52.3074H45.5754H54.1698L58.8577 52.3324C59.5937 52.3324 60.0016 52.645 60 53.2028C59.9984 53.7607 59.5828 54.0904 58.8593 54.0904C39.614 54.0904 20.3688 54.0935 1.12353 54.0997C0.901671 54.1069 0.681714 54.0568 0.484904 53.9541C0.288093 53.8515 0.121081 53.6998 0 53.5138L0 52.8106C0.362528 52.4168 0.80475 52.3074 1.34073 52.3152C2.83616 52.3418 4.33315 52.3152 5.83014 52.3027H27.6725H32.326L40.9298 52.3074Z" fill="#427294"/>
<path d="M45.6052 50.2369C45.6052 50.0229 45.5864 49.8072 45.5864 49.5931C45.5864 40.6872 45.5864 31.7803 45.5864 22.8723C45.5864 21.6441 45.9536 21.2769 47.1897 21.2769C49.0836 21.2769 50.9775 21.2769 52.8729 21.2769C53.7292 21.2769 54.1574 21.6831 54.159 22.5145C54.159 31.712 54.159 40.9102 54.159 50.1088C54.159 50.1479 54.159 50.1869 54.1496 50.2244L45.6052 50.2369Z" fill="#8AC9FE"/>
<path d="M9.60547 25.9599C11.6119 25.2161 13.6511 24.5661 15.6372 23.7723C22.0439 21.1846 28.0382 17.8874 33.2808 13.3324C35.7513 11.1838 37.9811 8.81798 39.7672 6.05526C40.0563 5.60679 40.0125 5.38177 39.5641 5.10675C38.8984 4.70047 38.2765 4.22387 37.6342 3.78165C37.3779 3.60507 37.1842 3.40349 37.2514 3.05815C37.3186 2.71282 37.5717 2.63312 37.8405 2.56437C41.0699 1.72368 44.2957 0.887152 47.5178 0.0547949C48.1069 -0.101467 48.3554 0.0672958 48.4194 0.679844C48.732 3.66758 49.032 6.65687 49.3367 9.64461C49.3726 9.99463 49.4101 10.3431 49.4461 10.6931C49.4773 10.99 49.4008 11.24 49.1226 11.3869C48.8445 11.5338 48.632 11.426 48.4132 11.2744C47.7256 10.79 47.035 10.3072 46.3474 9.83837C46.1911 9.73211 46.0614 9.55866 45.838 9.59304C44.9145 8.45389 44.416 8.43201 43.58 9.5321C42.3758 11.1074 41.0659 12.599 39.6594 13.9965C38.7118 14.9469 37.7134 15.8452 36.6685 16.6873C34.785 18.2226 32.7625 19.5791 30.6274 20.7392C27.3146 22.5204 23.7714 23.8351 20.0985 24.6458C17.869 25.1585 15.6082 25.5239 13.3308 25.7396C12.2697 25.8318 11.2118 25.9646 10.1524 26.0709C9.95862 26.0896 9.74923 26.1568 9.60547 25.9599Z" fill="#FE4755"/>
<path d="M32.3589 50.2353C32.3511 49.8852 32.3354 49.5336 32.3354 49.182C32.3354 42.5222 32.3354 35.8617 32.3354 29.2008C32.3354 28.0554 32.6855 27.7085 33.8434 27.7085C35.7779 27.7085 37.7109 27.7085 39.6438 27.7085C40.4923 27.7085 40.9158 28.1242 40.9174 28.9586C40.9174 35.9706 40.9174 42.9826 40.9174 49.9946C40.9174 50.0727 40.9049 50.1509 40.8971 50.2274L32.3589 50.2353Z" fill="#97DA7C"/>
<path d="M19.1092 50.2337C19.0999 48.1257 19.0874 46.0146 19.0842 43.9113C19.0842 41.1205 19.0842 38.3291 19.0842 35.5372C19.0842 34.509 19.5093 34.0793 20.5343 34.0762C22.4282 34.0762 24.3216 34.0762 26.2145 34.0762C27.2411 34.0762 27.6693 34.5121 27.6693 35.5388C27.6693 40.2829 27.6693 45.026 27.6693 49.768C27.6693 49.9243 27.6536 50.0805 27.6458 50.2368L19.1092 50.2337Z" fill="#FEB957"/>
<path d="M5.85506 50.2303C5.85506 47.3817 5.841 44.533 5.84568 41.6828C5.84568 40.9781 6.26134 40.5218 6.9614 40.514C9.06989 40.4921 11.1779 40.4921 13.2853 40.514C13.9494 40.514 14.412 41.0109 14.4135 41.6906C14.4135 44.5393 14.4135 47.3879 14.3995 50.2366L5.85506 50.2303Z" fill="#FEE179"/>
<path d="M9.60549 25.96C9.74925 26.1569 9.95864 26.0944 10.1446 26.0756C11.2041 25.9694 12.2619 25.8365 13.323 25.7443C15.6004 25.5286 17.8612 25.1632 20.0907 24.6505C23.7636 23.8398 27.3068 22.5252 30.6196 20.744C32.7575 19.5842 34.7825 18.2277 36.6685 16.6921C37.7135 15.8484 38.712 14.9485 39.6594 13.9966C41.0662 12.597 42.3761 11.1033 43.58 9.5259C44.416 8.43206 44.9145 8.44769 45.838 9.58684C43.0552 13.4419 39.6319 16.7912 35.7169 19.4892C29.8071 23.5973 23.2316 26.0709 16.1841 27.3773C13.9793 27.7944 11.7501 28.071 9.51017 28.2055C8.8695 28.2414 8.43196 27.8789 8.33195 27.307C8.23195 26.7351 8.53666 26.271 9.1492 26.0678C9.2993 26.0239 9.4516 25.9879 9.60549 25.96Z" fill="#FB2D3C"/>
<path d="M5.85513 50.2305H14.3995C14.4058 50.9201 14.4126 51.6087 14.4199 52.2963H5.82544C5.8369 51.6097 5.8468 50.9211 5.85513 50.2305Z" fill="#F6CD58"/>
<path d="M19.1094 50.2339H27.646C27.6543 50.9235 27.6632 51.6126 27.6725 52.3012H19.0781L19.1094 50.2339Z" fill="#FCAB3F"/>
<path d="M32.3587 50.2354H40.8969L40.9297 52.309H32.3259L32.3587 50.2354Z" fill="#81D161"/>
<path d="M45.6051 50.2368H54.148C54.1574 50.9275 54.1673 51.6182 54.1777 52.3089H45.5833C45.5874 51.6182 45.5947 50.9275 45.6051 50.2368Z" fill="#6BC2FD"/>
</svg>
