<svg width="50" height="50" viewBox="0 0 50 50" fill="none" xmlns="http://www.w3.org/2000/svg">
<path d="M50 23.9188V27.7271C49.675 28.4854 48.9583 28.2844 48.3333 28.3375C48.3333 28.9083 48.3458 29.4271 48.3333 29.9458C48.3208 30.4646 48.0115 30.7875 47.4833 30.8271C47.2292 30.8458 46.974 30.8271 46.674 30.8271C46.674 31.549 46.6521 32.2125 46.6802 32.875C46.7083 33.5375 46.5823 34.0531 45.8396 34.1885V40.751C46.601 41.0979 46.6729 41.2115 46.6729 42.0542V44.1469H47.1937C48.0667 44.1542 48.3396 44.4208 48.3396 45.2802C48.3396 45.9635 48.3396 46.6469 48.3396 47.3302C48.3302 48.9365 47.2833 49.9865 45.675 49.9865C36.891 49.9865 28.1062 49.9865 19.3208 49.9865C17.7333 49.9865 16.7 48.951 16.6823 47.3625C16.6823 46.8646 16.6823 46.3656 16.6823 45.8135H16.0417C11.0639 45.8135 6.08576 45.8135 1.10729 45.8135C0.264583 45.8135 0.00729167 45.551 0.00729167 44.7021C0.00729167 30.1757 0.00486111 15.6503 0 1.12604C0 0.616666 0.14375 0.242708 0.59375 0H28.6146C28.8552 0.236458 29.1115 0.459378 29.3333 0.712503C31.0396 2.65417 32.7271 4.6125 34.449 6.53854C34.636 6.73713 34.7815 6.97112 34.8769 7.22675C34.9722 7.48238 35.0155 7.75449 35.0042 8.02708C34.9823 11.2938 35.0042 14.5615 34.9854 17.8292C34.9854 18.1948 35.0833 18.3583 35.4437 18.4833C39.9813 20.0563 44.5135 21.6451 49.0406 23.25C49.3979 23.3719 49.6875 23.6906 50 23.9188ZM33.2917 17.7333V8.3198H32.7302C31.3635 8.3198 29.9969 8.3198 28.6302 8.3198C27.75 8.3198 27.5115 8.07604 27.5104 7.18125C27.5104 5.52153 27.5104 3.86216 27.5104 2.20313V1.69896H1.70833V44.1083H18.3469C18.3469 43.3875 18.3698 42.7063 18.3406 42.025C18.3135 41.4 18.4583 40.924 19.1375 40.801V34.2021C18.4427 33.9125 18.35 33.7781 18.3479 33.0563C18.3458 32.3344 18.3479 31.5979 18.3479 30.8281C18.1125 30.8281 17.9375 30.8281 17.7615 30.8281C16.9552 30.8198 16.6875 30.549 16.6823 29.7354C16.6823 29.2708 16.6823 28.8052 16.6823 28.3156H16.1187C15.2698 28.3156 15.0187 28.0615 15.0156 27.2094C15.0156 26.3142 15.0156 25.4194 15.0156 24.525C15.0156 23.6573 15.1062 23.5292 15.9104 23.2479C21.0604 21.4479 26.2104 19.6469 31.3604 17.8448C31.9844 17.6292 32.5906 17.3063 33.2927 17.7333H33.2917ZM16.6812 26.6219H48.3375C48.3375 26.1354 48.3146 25.6844 48.3438 25.2292C48.3677 24.8615 48.2396 24.7083 47.8812 24.5802C42.8969 22.851 37.9219 21.0969 32.9375 19.3719C32.6512 19.2843 32.3448 19.2876 32.0604 19.3813C29.7552 20.1656 27.4604 20.9771 25.1625 21.7771C22.466 22.7208 19.7705 23.6677 17.076 24.6177C16.924 24.6719 16.7094 24.8323 16.699 24.9563C16.6594 25.501 16.6823 26.0542 16.6823 26.6219H16.6812ZM18.3479 45.8406V47.0688C18.3479 48.1104 18.5615 48.326 19.5979 48.326H45.4219C45.5844 48.3335 45.7473 48.3301 45.9094 48.3156C46.3063 48.2615 46.6063 48.0323 46.6385 47.6406C46.6885 47.05 46.6521 46.4521 46.6521 45.8406H18.3479ZM39.1437 40.7958V34.2031C38.4354 33.9167 38.3438 33.7865 38.3406 33.025C38.3406 32.3125 38.3406 31.6 38.3406 30.8688H36.6667C36.6667 31.55 36.649 32.199 36.6719 32.8479C36.6948 33.4969 36.6146 34.0646 35.8531 34.1937V40.774C36.5823 41.0781 36.6635 41.1979 36.6667 41.9854C36.6667 42.6948 36.6667 43.4052 36.6667 44.126H38.3396C38.3396 43.424 38.3583 42.7438 38.3344 42.0656C38.3115 41.4385 38.4375 40.9229 39.1427 40.7958H39.1437ZM26.6667 44.1188H28.3333C28.3333 43.425 28.3562 42.7646 28.326 42.099C28.2958 41.4333 28.4302 40.925 29.1667 40.7885V34.1906C28.451 34.0573 28.3 33.5656 28.3271 32.9198C28.3552 32.2427 28.3333 31.5656 28.3333 30.8677H26.6667C26.6667 31.6615 26.6604 32.4229 26.6667 33.1844C26.6667 33.6198 26.5104 33.925 26.101 34.1219C26.0329 34.1618 25.9746 34.2166 25.9308 34.2823C25.8869 34.348 25.8586 34.4228 25.8479 34.501C25.8319 36.5024 25.8319 38.5031 25.8479 40.5031C25.8551 40.5749 25.8788 40.6439 25.9173 40.7049C25.9559 40.7658 26.0081 40.8169 26.0698 40.8542C26.5302 41.05 26.6781 41.3927 26.6687 41.8635C26.6573 42.6031 26.6667 43.3479 26.6667 44.1188ZM46.6458 28.3521H18.3875V29.1406H46.6469L46.6458 28.3521ZM20.8542 40.7917H24.1365V34.2H20.8542V40.7917ZM30.8823 34.1875V40.7771H34.1479V34.1875H30.8823ZM44.1292 40.8073V34.201H40.8698V40.8073H44.1292ZM20.0542 30.8542V32.4802H24.975V30.8594L20.0542 30.8542ZM34.9698 30.8615H30.0323V32.4635H34.9698V30.8615ZM44.9927 30.8615H40.049V32.4594H44.9927V30.8615ZM24.9792 42.5177H20.0542V44.124H24.9792V42.5177ZM30.0312 42.5177V44.1188H34.9688V42.5177H30.0312ZM40.0365 44.126H44.974V42.525H40.0365V44.126ZM32.3156 6.64375L29.2188 3.10521V6.64687L32.3156 6.64375Z" fill="white"/>
<path d="M11.6666 4.17189C13.1489 4.17045 14.5982 4.60885 15.8311 5.43159C17.064 6.25432 18.0251 7.42439 18.5927 8.79365C19.1602 10.1629 19.3088 11.6698 19.0194 13.1235C18.7301 14.5772 18.0159 15.9124 16.9673 16.96C15.9187 18.0076 14.5828 18.7205 13.1288 19.0084C11.6748 19.2963 10.1681 19.1463 8.79935 18.5774C7.43064 18.0086 6.26151 17.0463 5.43997 15.8126C4.61844 14.5789 4.18145 13.1291 4.18434 11.6469C4.1831 10.6643 4.37585 9.69113 4.75152 8.78319C5.12719 7.87525 5.6784 7.05039 6.37354 6.35593C7.06868 5.66148 7.89407 5.11107 8.80237 4.73628C9.71068 4.3615 10.684 4.1697 11.6666 4.17189ZM8.85413 12.6656C8.03434 10.6865 8.31976 9.1771 9.69476 8.14585C10.282 7.71416 10.9941 7.48577 11.7229 7.49536C12.4518 7.50495 13.1576 7.75198 13.7333 8.19898C15.0656 9.25211 15.3364 10.8094 14.4948 12.6625C15.4343 12.9489 16.2489 13.5457 16.8052 14.3552C18.1718 12 17.475 8.78752 15.2698 7.06356C14.1568 6.19644 12.7678 5.76101 11.359 5.83759C9.95017 5.91416 8.61656 6.49758 7.60413 7.48023C5.39788 9.61773 5.53955 12.8271 6.56247 14.3209C7.11948 13.5312 7.92301 12.949 8.84684 12.6656H8.85413ZM11.7323 14.1594C11.1458 14.1594 10.5593 14.1406 9.97497 14.1594C8.98226 14.1969 8.25101 14.6656 7.78017 15.5459C7.66038 15.7688 7.69267 15.9125 7.88434 16.0865C9.94892 17.9375 13.3968 17.9375 15.4593 16.0865C15.677 15.8917 15.6864 15.7396 15.5573 15.5052C15.0833 14.65 14.3614 14.1938 13.3895 14.1563C12.8312 14.1469 12.2781 14.1594 11.725 14.1594H11.7323ZM11.6562 12.4927C11.9854 12.4974 12.3086 12.4045 12.585 12.2257C12.8614 12.0469 13.0787 11.7902 13.2095 11.4881C13.3402 11.1859 13.3785 10.8518 13.3196 10.5279C13.2607 10.204 13.1071 9.90483 12.8784 9.66808C12.6496 9.43134 12.3558 9.26764 12.0342 9.19766C11.7125 9.12767 11.3773 9.15453 11.0708 9.27483C10.7644 9.39513 10.5004 9.60348 10.3122 9.87362C10.1241 10.1438 10.0201 10.4636 10.0135 10.7927C10.0091 11.0118 10.0479 11.2296 10.1277 11.4336C10.2076 11.6376 10.3268 11.8239 10.4787 11.9818C10.6306 12.1397 10.8122 12.2661 11.013 12.3538C11.2138 12.4414 11.4299 12.4887 11.6489 12.4927H11.6562Z" fill="white"/>
<path d="M3.34912 25.7865V24.198H13.3085V25.7865H3.34912Z" fill="white"/>
<path d="M3.35205 29.1262V27.5408H13.3104V29.1262H3.35205Z" fill="white"/>
<path d="M6.69897 30.8564H13.299V32.4679H6.69897V30.8564Z" fill="white"/>
<path d="M25.0354 13.3552H31.6208V14.9677H25.0354V13.3552Z" fill="white"/>
<path d="M7.55518 20.8406H13.3052V22.4614H7.55518V20.8406Z" fill="white"/>
<path d="M8.3584 34.1814H13.3094V35.8012H8.3584V34.1814Z" fill="white"/>
<path d="M28.3696 10.0208H31.6321V11.6155H28.3696V10.0208Z" fill="white"/>
<path d="M3.3479 35.7978V34.2041H6.62811V35.7978H3.3479Z" fill="white"/>
<path d="M5.82295 20.8613V22.4509H3.3667V20.8613H5.82295Z" fill="white"/>
<path d="M25.0408 10.0127H26.6387V11.6325H25.0408V10.0127Z" fill="white"/>
<path d="M4.97609 30.8728V32.4697H3.37817V30.8728H4.97609Z" fill="white"/>
<path d="M34.9917 23.3188C34.9967 23.9763 34.7405 24.6089 34.2793 25.0777C33.8182 25.5464 33.1899 25.813 32.5323 25.8188C32.0362 25.8268 31.5489 25.6871 31.1325 25.4173C30.7161 25.1476 30.3893 24.76 30.1939 24.304C29.9984 23.8479 29.9431 23.344 30.0349 22.8564C30.1267 22.3688 30.3616 21.9196 30.7095 21.5659C31.0575 21.2122 31.5028 20.97 31.9888 20.8702C32.4749 20.7704 32.9796 20.8175 33.4388 21.0054C33.898 21.1934 34.2908 21.5137 34.5674 21.9257C34.8439 22.3377 34.9916 22.8226 34.9917 23.3188ZM33.325 23.3438C33.3287 23.2345 33.3104 23.1256 33.2712 23.0236C33.2321 22.9215 33.1729 22.8283 33.0972 22.7495C33.0215 22.6706 32.9307 22.6078 32.8303 22.5646C32.7299 22.5214 32.6218 22.4987 32.5125 22.4979C32.2915 22.4995 32.08 22.5877 31.9232 22.7435C31.7665 22.8993 31.677 23.1103 31.674 23.3313C31.6786 23.5437 31.7642 23.7464 31.9133 23.8978C32.0624 24.0492 32.2637 24.1379 32.4761 24.1458C32.5849 24.1516 32.6939 24.1352 32.7961 24.0975C32.8984 24.0598 32.992 24.0016 33.071 23.9266C33.1501 23.8515 33.213 23.7611 33.256 23.6609C33.2989 23.5607 33.321 23.4528 33.3209 23.3438H33.325Z" fill="white"/>
</svg>
