<svg width="21" height="17" viewBox="0 0 21 17" fill="none" xmlns="http://www.w3.org/2000/svg">
<path d="M0 8.45357C0.986042 8.14676 1.97261 7.84257 2.95709 7.53055C3.03341 7.49817 3.09833 7.44377 3.14356 7.37429C3.68945 6.61275 4.23292 5.84878 4.77395 5.08238C4.8151 5.02456 4.85833 4.9683 4.91042 4.89746C4.96251 4.9683 5.00991 5.02977 5.05418 5.09227C5.58237 5.83454 6.11211 6.57576 6.6356 7.32116C6.71136 7.44116 6.82971 7.52806 6.96689 7.56441C7.27942 7.64984 7.5831 7.75714 7.91074 7.86184C7.7378 8.10561 7.58622 8.33064 7.42006 8.54629C7.37786 8.6015 7.29296 8.63223 7.2216 8.65463C5.90827 9.07134 4.59424 9.48458 3.27951 9.89435L3.09929 9.95373L5.66935 13.4182L5.65164 13.4541C5.45475 13.3895 5.26046 13.315 5.05991 13.264C4.96294 13.2371 4.8605 13.2371 4.76352 13.264C3.87437 13.5562 2.98834 13.8573 2.10178 14.1552C2.03459 14.1776 1.96636 14.1964 1.87676 14.2235C1.87676 14.138 1.87676 14.0672 1.87676 14C1.8877 13.0692 1.90228 12.1383 1.90489 11.207C1.902 11.0936 1.86576 10.9837 1.80071 10.8908C1.24857 10.1334 0.687571 9.38283 0.128137 8.63067C0.0906326 8.57858 0.0437557 8.53639 0.00104279 8.48951L0 8.45357Z" fill="#062037"/>
<path d="M6.95905 16.3589C6.95905 16.0177 6.95905 15.6994 6.95905 15.3812C6.96582 14.704 6.98093 14.0268 6.98093 13.3497C6.97797 13.236 6.94175 13.1258 6.87675 13.0325C6.33243 12.286 5.77924 11.5469 5.22866 10.8052C5.18282 10.7432 5.13855 10.6812 5.07812 10.5968C5.45525 10.477 5.81206 10.3634 6.17199 10.2514C6.7606 10.0665 7.3518 9.88995 7.93676 9.69358C8.06129 9.64839 8.16991 9.56783 8.2493 9.46178C8.79987 8.70441 9.33899 7.9387 9.88176 7.1756C9.91197 7.13341 9.94374 7.09278 9.98594 7.03809C10.0302 7.09538 10.0708 7.14226 10.1073 7.19435C10.6501 7.95745 11.1892 8.72316 11.7387 9.48158C11.811 9.57794 11.9104 9.65051 12.0242 9.68993C12.9097 9.97538 13.7952 10.2483 14.6807 10.5234C14.7422 10.5426 14.8021 10.5655 14.8849 10.5947C14.8359 10.6661 14.7958 10.7291 14.7515 10.7885C14.2015 11.5302 13.6473 12.2694 13.104 13.0163C13.0357 13.1152 12.9981 13.2321 12.9962 13.3523C12.9962 14.2899 13.0076 15.2275 13.0154 16.1651C13.0154 16.2219 13.0107 16.2792 13.0071 16.3594C12.5346 16.2031 12.0799 16.051 11.6257 15.8984C11.1569 15.7421 10.6881 15.589 10.224 15.4223C10.073 15.3649 9.90618 15.3649 9.75519 15.4223C8.87697 15.7249 7.99562 16.0172 7.1148 16.313C7.07261 16.3281 7.03198 16.3386 6.95905 16.3589Z" fill="#062037"/>
<path d="M16.8781 9.95242L14.3466 9.15755C13.8132 8.98982 13.2788 8.82678 12.749 8.64968C12.6491 8.61202 12.5614 8.54771 12.4954 8.46372C12.3485 8.28193 12.2208 8.08504 12.0703 7.87304C12.4105 7.76521 12.7386 7.67041 13.06 7.55425C13.1724 7.51277 13.271 7.44058 13.3444 7.3459C13.883 6.60311 14.4112 5.85303 14.9425 5.10608C14.9873 5.04305 15.0336 4.98054 15.0915 4.90137C15.1368 4.96023 15.1753 5.00554 15.2108 5.05763C15.754 5.82074 16.2937 6.58644 16.8437 7.34486C16.9153 7.44103 17.014 7.51359 17.1271 7.55321C18.023 7.84439 18.9231 8.12358 19.8217 8.40643C19.8737 8.42362 19.9305 8.44341 20.0014 8.46737C19.5326 9.09608 19.1075 9.7373 18.6116 10.3202C18.2012 10.803 18.0449 11.3052 18.0907 11.9349C18.1428 12.686 18.1032 13.4455 18.1032 14.2133C18.0647 14.2039 18.0116 14.1945 17.9605 14.1774C17.075 13.8799 16.1853 13.5851 15.3009 13.2804C15.1688 13.2285 15.0217 13.2296 14.8904 13.2835C14.6977 13.36 14.4969 13.4142 14.2919 13.445L16.8781 9.95242Z" fill="#062037"/>
<path d="M9.41797 0H10.5639C10.5686 0.0682364 10.5759 0.125013 10.5759 0.18179C10.5759 1.11106 10.5759 2.04084 10.5796 2.97011C10.5796 3.11856 10.5473 3.17846 10.3858 3.17117C10.0691 3.15867 9.75134 3.16752 9.41953 3.16752L9.41797 0Z" fill="#062037"/>
<path d="M5.97266 2.86877L6.74722 2.09473L8.03798 3.41466L7.27853 4.17516L5.97266 2.86877Z" fill="#062037"/>
<path d="M12.6915 4.20042C12.4207 3.93164 12.1545 3.66755 11.9019 3.41596L13.2082 2.10645L13.9958 2.89663L12.6915 4.20042Z" fill="#062037"/>
</svg>
