<svg width="20" height="19" viewBox="0 0 20 19" fill="none" xmlns="http://www.w3.org/2000/svg">
<path d="M19.0609 18.7945C18.9992 18.8302 18.929 18.8489 18.8577 18.8487H0.408608C0.348779 18.8489 0.289651 18.8358 0.235423 18.8106C0.181195 18.7853 0.133195 18.7484 0.0948317 18.7025C0.0564681 18.6566 0.0286809 18.6028 0.0134428 18.5449C-0.00179525 18.4871 -0.00411072 18.4265 0.00666077 18.3677C0.177983 17.4209 0.550531 15.3853 0.6367 15.1268C1.06399 13.8495 2.12487 13.2382 3.27496 12.7607C3.42195 12.6999 3.57046 12.6411 3.71898 12.5833C4.72106 12.1945 5.72348 11.8058 6.72624 11.417C6.96833 11.9877 7.37307 12.4746 7.89 12.8168C8.40693 13.1591 9.01317 13.3416 9.63313 13.3416C10.2531 13.3416 10.8593 13.1591 11.3763 12.8168C11.8932 12.4746 12.2979 11.9877 12.54 11.417C13.5426 11.8058 14.545 12.1945 15.5473 12.5833C15.6958 12.6411 15.8443 12.6999 15.9913 12.7607C17.1414 13.2382 18.2023 13.8495 18.6291 15.1268C18.7152 15.3853 19.0883 17.4209 19.2591 18.3677C19.2742 18.4506 19.2633 18.5361 19.2278 18.6126C19.1923 18.689 19.134 18.7525 19.0609 18.7945Z" fill="#062037"/>
<path d="M13.269 7.34386L13.8347 4.42866C13.9097 3.87686 13.8658 3.31539 13.7059 2.78197C13.5459 2.24855 13.2737 1.75553 12.9074 1.33603C12.5412 0.916531 12.0894 0.580269 11.5824 0.349829C11.0755 0.119389 10.5251 0.000108621 9.96818 0H9.29636C8.73949 8.62194e-05 8.18908 0.119355 7.68212 0.349793C7.17516 0.58023 6.72339 0.9165 6.35716 1.33601C5.99093 1.75552 5.71873 2.24855 5.55884 2.78198C5.39895 3.31541 5.35508 3.87688 5.43017 4.42866L5.99573 7.34386C6.15989 8.18787 6.6125 8.94849 7.27599 9.49537C7.93948 10.0422 8.77253 10.3413 9.63236 10.3413C10.4922 10.3413 11.3252 10.0422 11.9887 9.49537C12.6522 8.94849 13.1048 8.18787 13.269 7.34386" fill="#062037"/>
</svg>
