<svg width="581" height="472" viewBox="0 0 581 472" fill="none" xmlns="http://www.w3.org/2000/svg">
<g opacity="0.4">
<path opacity="0.4" d="M344.161 272.545C314.303 255.306 266.041 255.306 236.38 272.545L235.986 272.79C216.888 284.054 210.385 299.8 216.431 314.144C219.645 321.781 226.419 329.024 236.738 334.983C266.604 352.226 314.874 352.226 344.543 334.983C374.212 317.74 374.043 289.788 344.181 272.545H344.161Z" fill="white"/>
<path opacity="0.4" d="M358.064 264.475C320.534 242.814 259.672 242.814 222.382 264.475C221.382 265.054 220.413 265.657 219.464 266.244L221.37 267.004C222.221 266.464 223.099 265.937 224.005 265.429C260.397 244.279 319.821 244.279 356.453 265.429C393.085 286.578 393.29 320.989 356.894 342.135C320.498 363.281 261.066 363.289 224.426 342.135C210.988 334.376 202.445 324.829 198.826 314.806L196.522 314.888C200.192 325.227 208.963 335.077 222.811 343.072C260.349 364.734 321.219 364.734 358.513 343.072C395.807 321.411 395.598 286.149 358.06 264.479L358.064 264.475Z" fill="white"/>
<path opacity="0.4" d="M371.616 256.599C326.572 230.604 253.496 230.604 208.743 256.599C206.905 257.667 205.143 258.764 203.457 259.887L208.53 261.912C209.988 260.959 211.501 260.024 213.071 259.108C255.454 234.48 324.657 234.48 367.316 259.108C409.974 283.735 410.214 323.829 367.832 348.461C325.449 373.092 256.234 373.096 213.564 348.461C197.353 339.103 187.278 327.516 183.332 315.377L177.199 315.602C181.276 328.559 191.961 340.958 209.267 350.946C254.319 376.96 327.395 376.96 372.156 350.946C416.917 324.932 416.661 282.613 371.616 256.599Z" fill="white"/>
<path opacity="0.4" d="M399.34 240.486C338.903 205.591 240.881 205.591 180.839 240.486C120.796 275.381 121.103 332.167 181.54 367.07C206.975 381.757 239.062 390.26 272.173 392.584L271.854 384.998C242.177 382.69 213.505 374.943 190.673 361.761C135.305 329.792 135.014 277.776 190.031 245.803C245.048 213.83 334.843 213.834 390.21 245.803C426.082 266.512 438.839 295.633 428.414 322.265L440.69 324.833C452.691 295.527 438.875 263.325 399.336 240.494L399.34 240.486Z" fill="white"/>
<path opacity="0.4" d="M171.607 372.836C105.644 334.755 105.294 272.798 170.819 234.712C236.344 196.627 343.326 196.627 409.284 234.712C475.243 272.798 475.589 334.751 410.072 372.84C344.555 410.929 237.565 410.922 171.615 372.84L171.607 372.836ZM411.435 233.464C378.907 214.681 335.74 204.338 289.876 204.338C244.012 204.338 200.972 214.681 168.653 233.464C136.333 252.247 118.634 277.217 118.771 303.774C118.909 330.332 136.916 355.306 169.444 374.089C201.973 392.871 245.147 403.21 291.003 403.21C336.859 403.21 379.903 392.867 412.219 374.089C444.534 355.31 462.238 330.332 462.108 303.774C461.978 277.217 443.959 252.243 411.427 233.464H411.435Z" fill="white"/>
<path opacity="0.4" d="M509.055 259.103L503.805 260.009C527.184 298.122 519.35 341.237 480.233 375.865L484.624 377.676C509.335 355.932 522.525 330.446 522.371 303.77C522.281 288.319 517.72 273.262 509.055 259.103ZM445.68 204.252C402.813 181.747 347.844 169.431 289.687 169.435C227.742 169.435 169.563 183.405 125.916 208.777C82.2693 234.149 58.3152 267.894 58.52 303.774C58.7248 339.654 83.0333 373.395 126.979 398.767C170.925 424.139 229.255 438.117 291.216 438.113C328.312 438.113 364.039 433.103 396.118 423.635L393.444 420.878C308.58 445.758 201.914 437.656 130.745 396.573C42.1042 345.408 41.6355 262.14 129.701 210.963C215.084 161.337 352.83 159.833 441.915 206.437L445.68 204.252Z" fill="white"/>
<path opacity="0.4" d="M478.039 194.752C452.557 180.038 422.857 168.643 389.816 160.881C357.891 153.397 324.169 149.593 289.597 149.593C255.025 149.593 221.346 153.393 189.484 160.888C156.51 168.643 126.94 180.041 101.623 194.76C76.3063 209.478 56.7162 226.63 43.4394 245.764C30.6077 264.235 24.1604 283.754 24.2785 303.778C24.3967 323.801 31.0528 343.321 44.1129 361.788C44.9584 362.988 45.8288 364.179 46.7241 365.361L51.8678 364.38C9.84778 309.059 27.642 242.132 105.408 196.926C206.774 138.033 372.254 138.033 474.278 196.926C576.301 255.819 576.849 351.686 475.487 410.591C412.412 447.258 324.512 461.114 242.52 452.142L241.22 455.222C257.855 457.048 274.579 457.956 291.314 457.943C325.882 457.943 359.561 454.147 391.411 446.656C424.389 438.897 453.943 427.503 479.272 412.784C504.601 398.066 524.171 380.91 537.456 361.784C550.283 343.309 556.723 323.793 556.613 303.766C556.502 283.739 549.838 264.223 536.798 245.752C523.305 226.63 503.533 209.466 478.039 194.748V194.752Z" fill="white"/>
<path opacity="0.4" d="M495.144 184.811C467.334 168.754 434.94 156.32 398.859 147.86C378.397 143.085 357.634 139.708 336.713 137.754L337.107 138.766C394.562 144.28 449.749 159.833 494.085 185.434C607.12 250.687 607.699 356.862 495.424 422.107C383.148 487.353 199.842 487.36 86.8222 422.107C-26.1976 356.854 -26.7805 250.691 85.487 185.438C99.3465 177.443 113.805 170.535 128.732 164.776L128.374 163.811C113.194 169.658 98.4941 176.68 84.4079 184.815C56.7673 200.865 35.4009 219.6 20.915 240.47C6.91357 260.628 -0.116691 281.927 0.00146484 303.778C0.11962 325.629 7.40588 346.925 21.6279 367.07C36.354 387.944 57.9253 406.668 85.7351 422.721C113.545 438.775 145.951 451.217 182.032 459.681C216.88 467.853 253.674 471.996 291.393 472C329.112 472.004 365.858 467.853 400.612 459.681C436.594 451.217 468.855 438.783 496.495 422.721C524.136 406.66 545.486 387.944 559.976 367.07C573.97 346.913 581.012 325.613 580.886 303.766C580.76 281.919 573.489 260.624 559.271 240.47C544.545 219.596 522.974 200.873 495.152 184.811H495.144Z" fill="white"/>
</g>
<g opacity="0.1">
<path opacity="0.1" d="M333.507 283.294L408.43 240.041L442.935 260.092L368.013 303.349L333.507 283.294Z" fill="black"/>
</g>
<path d="M384.05 170.203L430.06 196.788V262.632L384.039 236.035L384.05 170.203Z" fill="#F0656C"/>
<path d="M384.039 170.203L430.06 196.8V262.64L384.039 236.047V170.203Z" fill="#F1686E"/>
<path d="M384.05 170.203L384.996 169.66L431.017 196.253L430.06 196.788L384.05 170.203Z" fill="#F27B80"/>
<path d="M376.319 174.67L422.341 201.263V267.107L376.319 240.51V174.67Z" fill="#F0656C"/>
<path d="M377.276 174.134L423.298 200.727V266.571L377.276 239.974V174.134Z" fill="#F0656C"/>
<path d="M376.319 174.67L377.276 174.134L423.298 200.727L422.341 201.263L376.319 174.67Z" fill="#F27B80"/>
<path d="M422.341 201.259L431.005 196.249V262.097C428.822 264.765 425.742 266.546 422.341 267.107V201.259Z" fill="#F0595D"/>
<path d="M381.601 176.627C381.601 176.627 386.382 176.942 387.162 173.417L428.693 197.368L422.943 200.518L381.601 176.627Z" fill="white"/>
<path d="M422.341 201.258C425.734 200.677 428.808 198.9 431.005 196.249L430.048 195.697C427.572 197.96 424.654 199.686 421.478 200.766L422.341 201.258Z" fill="#F27B80"/>
<path d="M373.645 174.327L419.655 200.912V266.756L373.629 240.159L373.645 174.327Z" fill="#66BD63"/>
<path d="M373.629 174.327L419.655 200.92V266.764L373.629 240.167V174.327Z" fill="#57BA66"/>
<path d="M373.645 174.327L374.586 173.779L420.612 200.376L419.655 200.912L373.645 174.327Z" fill="#74BF56"/>
<path d="M365.909 178.789L411.931 205.386V271.23L365.909 244.633V178.789Z" fill="#66BD63"/>
<path d="M366.867 178.253L412.892 204.85V270.69L366.867 244.097V178.253Z" fill="#66BD63"/>
<path d="M365.909 178.789L366.867 178.253L412.892 204.85L411.931 205.385L365.909 178.789Z" fill="#74BF56"/>
<path d="M411.931 205.386L420.596 200.376V266.22C418.413 268.888 415.332 270.669 411.931 271.23V205.386Z" fill="#46B765"/>
<path d="M371.191 180.75C371.191 180.75 375.973 181.066 376.756 177.537L418.272 201.491L412.522 204.642L371.191 180.75Z" fill="white"/>
<path d="M411.931 205.385C415.324 204.8 418.396 203.024 420.596 200.376C420.277 200.191 419.958 200.005 419.635 199.824C417.16 202.09 414.242 203.816 411.065 204.893L411.931 205.385Z" fill="#74BF56"/>
<path d="M352.7 153.059L409.084 185.61V275.787L352.684 243.223L352.7 153.059Z" fill="#F9A236"/>
<path d="M352.7 153.059L409.099 185.622V275.795L352.7 243.231V153.059Z" fill="#F9A237"/>
<path d="M352.7 153.059L353.641 152.515L410.045 185.075L409.084 185.611L352.7 153.059Z" fill="#F9A339"/>
<path d="M344.965 157.525L401.364 190.085V280.261L344.965 247.698V157.525Z" fill="#F9A236"/>
<path d="M345.922 156.99L402.325 189.549V279.726L345.922 247.162V156.99Z" fill="#F9A236"/>
<path d="M344.965 157.525L345.922 156.99L402.325 189.549L401.364 190.085L344.965 157.525Z" fill="#F9A339"/>
<path d="M401.364 190.085L410.029 185.075V275.267C407.846 277.935 404.765 279.716 401.364 280.277V190.085Z" fill="#F68F3B"/>
<path d="M350.246 159.483C350.246 159.483 355.031 159.798 355.811 156.273L407.717 186.206L401.967 189.357L350.246 159.483Z" fill="white"/>
<path d="M401.364 190.085C404.758 189.504 407.832 187.727 410.029 185.075L409.068 184.523C406.593 186.789 403.675 188.515 400.498 189.592L401.364 190.085Z" fill="#F9A339"/>
<path d="M363.633 209.206L395.956 227.871V279.564L363.625 260.895L363.633 209.206Z" fill="#57B6E6"/>
<path d="M363.633 209.206L364.173 208.895L396.508 227.564L395.956 227.871L363.633 209.206Z" fill="#66C2ED"/>
<path d="M363.633 209.206L396.031 227.957L396.508 279.257L364.173 260.588L363.633 209.206Z" fill="#55B4E5"/>
<path d="M351.179 216.386L383.511 235.054V286.751L351.179 268.083V216.386Z" fill="#57B6E6"/>
<path d="M351.727 216.079L384.062 234.748V286.445L351.727 267.776V216.079Z" fill="#57B6E6"/>
<path d="M351.179 216.386L351.727 216.079L384.062 234.748L383.511 235.055L351.179 216.386Z" fill="#66C2ED"/>
<path d="M383.511 235.054L396.508 227.571V279.241C392.87 282.784 388.401 285.357 383.511 286.724V235.054Z" fill="#56B2E4"/>
<path d="M354.208 217.513C354.208 217.513 361.376 214.854 364.57 210.38L395.586 228.103L383.857 234.633L354.208 217.513Z" fill="white"/>
<path d="M382.912 234.708C387.625 232.941 392.015 230.413 395.909 227.225L396.516 227.575C392.658 230.815 388.258 233.349 383.519 235.058L382.912 234.708Z" fill="#66C2ED"/>
<path d="M335.303 197.111L381.313 223.696V289.54L335.287 262.943L335.303 197.111Z" fill="#A38FC3"/>
<path d="M335.287 197.111L381.313 223.708V289.548L335.287 262.951V197.111Z" fill="#9F8AC0"/>
<path d="M335.303 197.111L336.245 196.567L382.27 223.16L381.313 223.696L335.303 197.111Z" fill="#BDA8D0"/>
<path d="M327.568 201.577L373.594 228.17V294.014L327.568 267.417V201.577Z" fill="#A38FC3"/>
<path d="M328.525 201.038L374.551 227.634V293.479L328.525 266.882V201.038Z" fill="#A38FC3"/>
<path d="M327.568 201.577L328.525 201.038L374.551 227.634L373.594 228.17L327.568 201.577Z" fill="#BDA8D0"/>
<path d="M373.594 228.17L382.258 223.16V289.004C380.075 291.672 376.995 293.453 373.594 294.014V228.17Z" fill="#8E78B5"/>
<path d="M332.85 203.535C332.85 203.535 337.635 203.85 338.415 200.325L379.942 224.275L374.196 227.426L332.85 203.535Z" fill="white"/>
<path d="M373.594 228.17C376.986 227.584 380.058 225.808 382.258 223.16L381.301 222.609C378.824 224.873 375.905 226.599 372.727 227.678C373.023 227.843 373.306 228.009 373.594 228.17Z" fill="#BDA8D0"/>
<path d="M339.258 233.964L371.581 252.629V293.676L339.25 275.007L339.258 233.964Z" fill="#537ABC"/>
<path d="M338.714 234.275L339.258 233.964L371.589 252.632L371.041 252.94L338.714 234.275Z" fill="#6386C4"/>
<path d="M338.714 234.275L371.112 253.026L371.589 293.68L339.258 275.015L338.714 234.275Z" fill="#4871B6"/>
<path d="M329.061 239.828L361.396 258.497V299.544L329.061 280.875V239.828Z" fill="#537ABC"/>
<path d="M329.612 239.521L361.943 258.186V299.237L329.612 280.568V239.521Z" fill="#537ABC"/>
<path d="M329.061 239.828L329.612 239.521L361.943 258.186L361.396 258.497L329.061 239.828Z" fill="#6386C4"/>
<path d="M361.396 258.497L371.581 252.628L372.097 294.345C370.709 295.623 369.131 296.675 367.418 297.465C365.455 298.281 363.444 298.976 361.396 299.544V258.497Z" fill="#456BB2"/>
<path d="M332.089 240.951C332.089 240.951 336.658 240.998 339.856 236.524L369.828 253.641L361.951 258.19L332.089 240.951Z" fill="white"/>
<path d="M360.726 258.111C362.781 257.334 364.759 256.367 366.634 255.224C368.113 254.321 369.523 253.308 370.852 252.195L371.601 252.629C368.576 255.167 365.129 257.154 361.416 258.497L360.726 258.111Z" fill="#6386C4"/>
<path d="M244.745 174.831L249.495 172.066L249.507 167.781L244.757 170.542L244.745 174.831Z" fill="#E5A124"/>
<path d="M244.757 170.538L249.506 167.781C241.551 163.185 234.981 156.395 229.987 147.596C220.141 130.247 218.837 109.645 218.68 103.091L213.926 105.848C214.083 112.39 215.383 132.992 225.233 150.353C230.227 159.156 236.797 165.946 244.757 170.538Z" fill="#E5A124"/>
<path d="M244.891 123.74L249.641 120.976L249.652 116.69L244.902 119.451L244.891 123.74Z" fill="#E5A124"/>
<path d="M244.903 119.451L249.653 116.69L214.986 96.6748L210.236 99.4357L244.903 119.451Z" fill="#F6E6A4"/>
<path d="M210.236 99.436L210.184 101.5C210.184 101.779 210.027 108.439 211.449 117.939C212.252 123.403 213.455 128.8 215.049 134.087C216.894 140.252 219.411 146.196 222.555 151.81C228.274 161.889 235.741 169.636 244.745 174.835V170.546C236.785 165.95 230.216 159.16 225.222 150.361C215.375 133.012 214.072 112.41 213.914 105.856L244.879 123.729V119.444L210.236 99.436Z" fill="#ECB82A"/>
<g opacity="0.1">
<path opacity="0.1" d="M358.068 327.445L300.79 360.733L212.248 309.662L269.526 276.378L358.068 327.445Z" fill="black"/>
</g>
<path d="M346.426 318.149L346.402 327.689L295.134 357.483L295.158 347.944L346.426 318.149Z" fill="#7F4A1E"/>
<path d="M295.158 347.944L295.134 357.483L207.101 306.657L207.128 297.118L295.158 347.944Z" fill="#502C11"/>
<path d="M346.426 318.149L295.158 347.944L207.128 297.118L258.396 267.323L346.426 318.149Z" fill="#9E6932"/>
<path d="M331.475 271.537L331.381 317.228L293.201 339.414L293.295 293.723L331.475 271.537Z" fill="#80481E"/>
<path d="M293.295 293.723L293.201 339.413L223.942 299.43L224.04 253.739L293.295 293.723Z" fill="#4F2E12"/>
<path d="M331.476 271.537L293.296 293.723L224.041 253.739L262.217 231.553L331.476 271.537Z" fill="#9F672B"/>
<path d="M277.758 296.267L237.088 272.786L237.022 296.885L277.687 320.367L277.758 296.267Z" fill="#F5A11E"/>
<path opacity="0.1" d="M299.687 253.885C313.803 262.034 318.458 272.589 310.081 277.453C301.704 282.317 283.472 279.662 269.357 271.51C255.241 263.357 250.59 252.81 258.963 247.942C267.336 243.073 285.572 245.736 299.687 253.885Z" fill="black"/>
<path d="M308.482 260.84L308.458 269.268C308.458 271.884 307.107 274.16 304.291 275.795C295.914 280.663 277.683 278 263.567 269.851C254.193 264.44 248.995 257.969 248.995 252.809L249.018 244.377C249.018 249.54 254.201 256.011 263.591 261.419C277.706 269.572 295.942 272.23 304.315 267.362C307.131 265.728 308.474 263.451 308.482 260.84Z" fill="#E5A124"/>
<path d="M293.923 243.794C308.038 251.943 312.694 262.498 304.316 267.363C295.939 272.227 277.708 269.572 263.592 261.419C249.477 253.267 244.825 242.719 253.198 237.851C261.572 232.983 279.807 235.646 293.923 243.794Z" fill="#F7C02C"/>
<path d="M286.808 252.609C284.639 254.68 281.755 255.835 278.756 255.835C275.757 255.835 272.873 254.68 270.704 252.609V188.836H286.808V252.609Z" fill="#E5A124"/>
<path d="M231.705 122.228C231.705 122.228 228.392 220.356 278.758 220.356V130.365L231.705 122.228Z" fill="#F7C02C"/>
<path d="M325.808 122.228C325.808 122.228 329.124 220.356 278.758 220.356V130.365L325.808 122.228Z" fill="#F7C02C"/>
<path d="M311.932 101.689C293.48 91.0353 263.662 91.0353 245.332 101.689C227.002 112.343 227.096 129.617 245.548 140.267C264 150.917 293.819 150.92 312.153 140.267C330.486 129.613 330.384 112.343 311.932 101.689Z" fill="#F6E6A4"/>
<path d="M314.189 131.606C312.269 133.49 310.112 135.117 307.773 136.446C291.854 145.698 265.954 145.698 249.928 136.446C247.518 135.086 245.297 133.415 243.323 131.476C234.304 122.417 236.431 110.672 249.739 102.941C265.662 93.6895 291.562 93.6895 307.584 102.941C321.046 110.712 323.259 122.539 314.189 131.606Z" fill="#E5A124"/>
<path d="M314.189 131.605C312.269 133.49 310.112 135.117 307.773 136.446C291.854 145.698 265.954 145.698 249.928 136.446C247.518 135.086 245.297 133.415 243.323 131.476C245.243 129.59 247.4 127.961 249.739 126.631C265.662 117.368 291.562 117.368 307.6 126.635C310.005 127.995 312.221 129.666 314.189 131.605Z" fill="#D29420"/>
<path d="M325.745 205.307C325.186 205.504 324.613 205.66 324.031 205.772C323.573 205.864 323.11 205.93 322.645 205.969C322.231 206.008 321.814 206.028 321.389 206.028C320.963 206.028 320.601 206.028 320.207 205.989C319.813 205.949 319.463 205.926 319.081 205.87C318.699 205.815 318.344 205.76 317.97 205.689C317.596 205.618 317.237 205.536 316.863 205.441C316.489 205.347 316.123 205.248 315.745 205.134C315.367 205.02 314.988 204.894 314.603 204.74C314.217 204.587 313.815 204.457 313.421 204.295C313.027 204.134 312.606 203.96 312.196 203.775C311.786 203.59 311.341 203.381 310.908 203.169C310.475 202.956 310.002 202.712 309.542 202.464C309.175 202.263 308.801 202.07 308.427 201.837L303.673 204.594C304.067 204.811 304.421 205.02 304.792 205.221C305.252 205.469 305.705 205.705 306.158 205.926C306.611 206.146 307.017 206.343 307.442 206.532C307.868 206.721 308.265 206.891 308.667 207.052C309.069 207.214 309.455 207.359 309.849 207.497C310.243 207.635 310.613 207.757 310.991 207.891C311.369 208.025 311.739 208.108 312.109 208.198C312.48 208.289 312.85 208.375 313.216 208.446C313.582 208.517 313.961 208.58 314.323 208.631C314.685 208.683 315.083 208.742 315.477 208.742C315.871 208.742 316.265 208.785 316.658 208.781C317.052 208.777 317.505 208.781 317.915 208.726C318.381 208.683 318.845 208.616 319.305 208.525C319.885 208.412 320.457 208.257 321.014 208.06C321.806 207.784 322.568 207.428 323.287 206.997L328.037 204.24C327.311 204.673 326.543 205.031 325.745 205.307Z" fill="#E5A124"/>
<path d="M343.295 172.901L338.541 175.658C338.541 175.71 338.541 175.973 338.541 176.418C338.541 177.001 338.541 177.888 338.478 179.014C338.434 179.979 338.371 181.121 338.269 182.389C338.178 183.508 338.056 184.721 337.875 186.009C337.729 187.159 337.556 188.372 337.339 189.609C337.284 189.932 337.225 190.258 337.162 190.585C337.005 191.433 336.835 192.258 336.654 193.059C336.394 194.181 336.115 195.268 335.811 196.308C335.508 197.348 335.158 198.423 334.791 199.408C334.397 200.467 333.98 201.471 333.531 202.413L333.484 202.511C332.998 203.531 332.452 204.522 331.849 205.477C330.156 208.155 328.163 210.203 325.902 211.538L330.656 208.781C332.913 207.426 334.905 205.394 336.603 202.72C337.205 201.765 337.749 200.774 338.234 199.754L338.281 199.656C338.73 198.71 339.15 197.709 339.541 196.651C339.907 195.666 340.246 194.634 340.565 193.551C340.884 192.468 341.148 191.424 341.404 190.298C341.585 189.51 341.758 188.671 341.916 187.828C341.979 187.501 342.034 187.175 342.093 186.852C342.306 185.611 342.487 184.402 342.625 183.252C342.786 181.964 342.909 180.747 343.019 179.632C343.121 178.364 343.188 177.222 343.228 176.257C343.275 175.131 343.291 174.244 343.291 173.661C343.298 173.213 343.295 172.949 343.295 172.901Z" fill="#E5A124"/>
<path d="M343.295 172.897L338.541 175.658L338.501 173.543L343.251 170.782L343.295 172.897Z" fill="#E5A124"/>
<path d="M343.251 170.782L338.501 173.543L303.835 153.528L308.584 150.767L343.251 170.782Z" fill="#F6E6A4"/>
<path d="M337.186 190.585C336.479 194.704 335.242 198.714 333.507 202.515C331.511 206.686 328.958 209.723 325.926 211.538C320.168 214.988 312.68 214.102 303.677 208.907V204.618C311.637 209.215 318.222 210.018 323.251 207.005C333.165 201.066 334.579 182.031 334.772 175.69L303.823 157.817V153.528L338.482 173.543L338.521 175.658C338.535 180.664 338.088 185.661 337.186 190.585Z" fill="#ECB82A"/>
<path d="M311.341 74.7924C293.756 64.6389 265.335 64.6389 247.864 74.7924C230.393 84.9459 230.483 101.409 248.069 111.562C265.654 121.716 294.075 121.7 311.538 111.562C329.002 101.425 328.919 84.9459 311.333 74.7924H311.341Z" fill="#3A3A3A"/>
<path d="M324.713 93.7604C318.411 97.9234 301.633 107.797 278.301 107.376C256.694 106.982 241.181 97.9667 234.82 93.7604V39.9878H324.713V93.7604Z" fill="#3A3A3A"/>
<path d="M279.207 99.4279L365.165 50.5903L279.207 1.19336L194.367 50.3106L279.207 99.4279Z" fill="#616262"/>
<path d="M279.207 98.2385L365.165 49.3969L279.207 0L194.367 49.1173L279.207 98.2385Z" fill="#4D4D4D"/>
<path d="M279.207 98.2385V99.428L365.165 50.5903V49.397L279.207 98.2385Z" fill="#2E2E2E"/>
<path d="M279.207 98.2384V99.4278L194.367 50.3106V49.1172L279.207 98.2384Z" fill="#3A3A3A"/>
<path d="M279.207 46.5258L321.136 74.4144V94.2921H322.775V73.481L279.766 46.061L279.207 46.5258Z" fill="#FBB345"/>
<path d="M321.983 121.361C320.625 121.361 319.323 120.822 318.363 119.862C317.403 118.902 316.863 117.599 316.863 116.241L317.966 100.598C318.51 96.3795 320.562 95.4775 321.979 95.4775C322.07 95.4775 324.709 95.6823 325.717 100.598L327.096 116.241C327.096 117.598 326.557 118.899 325.599 119.859C324.64 120.819 323.34 121.359 321.983 121.361Z" fill="#FBB345"/>
<path d="M321.983 99.2273C321.292 99.2252 320.63 98.9499 320.142 98.4614C319.653 97.9729 319.378 97.3109 319.376 96.62V94.3514C319.378 93.6606 319.653 92.9986 320.142 92.5101C320.63 92.0216 321.292 91.7462 321.983 91.7441C322.674 91.7462 323.336 92.0216 323.824 92.5101C324.313 92.9986 324.588 93.6606 324.59 94.3514V96.62C324.588 97.3109 324.313 97.9729 323.824 98.4614C323.336 98.9499 322.674 99.2252 321.983 99.2273Z" fill="#FCBD5C"/>
<g opacity="0.1">
<path opacity="0.1" d="M418.272 375.986L379.832 353.793L378.651 353.1C378.246 352.896 377.8 352.79 377.347 352.79C376.894 352.79 376.448 352.896 376.043 353.1L329.734 380.004C329.021 380.398 329.025 381.099 329.734 381.512L330.916 382.205L369.36 404.399C369.764 404.605 370.21 404.712 370.663 404.712C371.117 404.712 371.563 404.605 371.967 404.399L418.272 377.499C418.985 377.081 418.981 376.4 418.272 375.986Z" fill="black"/>
</g>
<path d="M415.283 376.061L378.06 354.569L376.902 353.899C376.511 353.701 376.078 353.598 375.64 353.598C375.201 353.598 374.769 353.701 374.377 353.899L329.549 379.949C328.86 380.342 328.864 381.012 329.549 381.414L330.707 382.083L367.93 403.572C368.321 403.77 368.754 403.873 369.192 403.873C369.631 403.873 370.063 403.77 370.455 403.572L415.279 377.522C415.984 377.121 415.98 376.463 415.283 376.061Z" fill="#31A4AC"/>
<path d="M378.06 354.569L330.719 382.083L329.561 381.414C328.864 381.02 328.86 380.354 329.561 379.949L374.389 353.899C374.781 353.701 375.213 353.598 375.652 353.598C376.09 353.598 376.523 353.701 376.914 353.899L378.06 354.569Z" fill="#0F1515"/>
<path d="M369.289 400.205V402.777L414.822 376.574V374.029L369.289 400.205Z" fill="#EAEAE9"/>
<path d="M369.289 402.776L330.719 380.839V378.409L369.289 400.204V402.776Z" fill="#EAEAE9"/>
<path d="M329.033 380.681V376.987L330.719 378.409V380.839L329.876 381.595L329.033 380.681Z" fill="#0F1515"/>
<path d="M403.873 372.391C404.267 372.62 404.267 372.986 403.873 373.21L392.085 380.067C391.866 380.18 391.624 380.239 391.378 380.239C391.132 380.239 390.89 380.18 390.671 380.067L366.646 366.188C366.561 366.159 366.487 366.103 366.434 366.03C366.382 365.956 366.354 365.868 366.354 365.778C366.354 365.688 366.382 365.6 366.434 365.527C366.487 365.453 366.561 365.398 366.646 365.369L378.438 358.516C378.657 358.406 378.899 358.348 379.145 358.348C379.39 358.348 379.632 358.406 379.852 358.516L403.873 372.391Z" fill="#D7E8EC"/>
<path d="M378.06 350.898L330.719 378.409L329.561 377.743C328.864 377.349 328.86 376.68 329.561 376.278L374.389 350.229C374.781 350.031 375.213 349.928 375.652 349.928C376.09 349.928 376.523 350.031 376.914 350.229L378.06 350.898Z" fill="#1C2929"/>
<path d="M415.283 372.39C415.98 372.784 415.984 373.45 415.283 373.852L370.459 399.901C370.067 400.099 369.635 400.202 369.196 400.202C368.758 400.202 368.325 400.099 367.934 399.901L330.719 378.408L378.06 350.898L415.283 372.39ZM392.085 380.067L403.877 373.214C404.271 372.989 404.271 372.623 403.877 372.394L379.852 358.515C379.633 358.405 379.39 358.348 379.145 358.348C378.899 358.348 378.657 358.405 378.438 358.515L366.646 365.368C366.561 365.397 366.487 365.453 366.434 365.526C366.382 365.6 366.354 365.687 366.354 365.778C366.354 365.868 366.382 365.956 366.434 366.029C366.487 366.103 366.561 366.158 366.646 366.187L390.671 380.067C390.89 380.179 391.132 380.238 391.378 380.238C391.624 380.238 391.866 380.179 392.085 380.067Z" fill="#33AFC0"/>
<path d="M415.283 371.772L378.06 350.28L376.902 349.61C376.511 349.412 376.078 349.309 375.64 349.309C375.201 349.309 374.769 349.412 374.377 349.61L329.549 375.66C328.86 376.053 328.864 376.719 329.549 377.121L330.707 377.79L367.93 399.283C368.321 399.481 368.754 399.584 369.192 399.584C369.631 399.584 370.063 399.481 370.455 399.283L415.279 373.233C415.984 372.832 415.98 372.19 415.283 371.772Z" fill="#A4AC38"/>
<path d="M378.06 350.28L330.719 377.79L329.561 377.121C328.864 376.727 328.86 376.061 329.561 375.66L374.389 349.61C374.781 349.412 375.213 349.309 375.652 349.309C376.09 349.309 376.523 349.412 376.914 349.61L378.06 350.28Z" fill="#2C3B3A"/>
<path d="M369.289 395.912V398.487L414.822 372.285V369.74L369.289 395.912Z" fill="#EAEAE9"/>
<path d="M369.289 398.487L330.719 376.55V374.12L369.289 395.911V398.487Z" fill="#EAEAE9"/>
<path d="M329.033 376.393V372.698L330.719 374.12V376.55L329.876 377.306L329.033 376.393Z" fill="#2C3B3A"/>
<path d="M403.873 368.102C404.267 368.33 404.267 368.696 403.873 368.921L392.081 375.774C391.862 375.886 391.62 375.945 391.374 375.945C391.128 375.945 390.886 375.886 390.667 375.774L366.642 361.894C366.557 361.865 366.483 361.81 366.43 361.736C366.378 361.663 366.35 361.575 366.35 361.485C366.35 361.395 366.378 361.307 366.43 361.233C366.483 361.16 366.557 361.105 366.642 361.075L378.434 354.222C378.653 354.112 378.895 354.055 379.141 354.055C379.386 354.055 379.629 354.112 379.848 354.222L403.873 368.102Z" fill="#E9EDD7"/>
<path d="M378.06 346.609L330.719 374.12L329.561 373.45C328.864 373.056 328.86 372.391 329.561 371.989L374.389 345.94C374.781 345.742 375.213 345.639 375.652 345.639C376.09 345.639 376.523 345.742 376.914 345.94L378.06 346.609Z" fill="#2C3B3A"/>
<path d="M415.283 368.098C415.98 368.492 415.984 369.161 415.283 369.563L370.459 395.612C370.067 395.81 369.635 395.914 369.196 395.914C368.758 395.914 368.325 395.81 367.934 395.612L330.719 374.12L378.06 346.609L415.283 368.098ZM392.085 375.774L403.877 368.921C404.271 368.697 404.271 368.33 403.877 368.102L379.852 354.223C379.633 354.11 379.391 354.051 379.145 354.051C378.899 354.051 378.657 354.11 378.438 354.223L366.646 361.076C366.561 361.105 366.487 361.16 366.434 361.234C366.382 361.307 366.354 361.395 366.354 361.485C366.354 361.575 366.382 361.663 366.434 361.737C366.487 361.81 366.561 361.865 366.646 361.895L390.671 375.774C390.89 375.887 391.132 375.945 391.378 375.945C391.624 375.945 391.866 375.887 392.085 375.774Z" fill="#B1C035"/>
<path d="M415.283 367.704L378.06 346.196L376.902 345.526C376.511 345.328 376.078 345.225 375.64 345.225C375.201 345.225 374.769 345.328 374.377 345.526L329.549 371.591C328.86 371.985 328.864 372.651 329.549 373.056L330.707 373.722L367.93 395.215C368.321 395.413 368.754 395.516 369.192 395.516C369.631 395.516 370.063 395.413 370.455 395.215L415.279 369.165C415.984 368.763 415.98 368.106 415.283 367.704Z" fill="#386CAC"/>
<path d="M378.06 346.196L330.719 373.722L329.561 373.056C328.864 372.662 328.86 371.993 329.561 371.591L374.389 345.542C374.781 345.344 375.213 345.241 375.652 345.241C376.09 345.241 376.523 345.344 376.914 345.542L378.06 346.196Z" fill="#0F1515"/>
<path d="M369.289 391.843V394.419L414.822 368.216V365.672L369.289 391.843Z" fill="#EAEAE9"/>
<path d="M369.289 394.419L330.719 372.481V370.051L369.289 391.843V394.419Z" fill="#EAEAE9"/>
<path d="M329.033 372.324V368.629L330.719 370.051V372.481L329.876 373.237L329.033 372.324Z" fill="#0F1515"/>
<path d="M403.873 364.033C404.267 364.262 404.267 364.628 403.873 364.852L392.081 371.705C391.862 371.818 391.62 371.877 391.374 371.877C391.128 371.877 390.886 371.818 390.667 371.705L366.642 357.826C366.557 357.797 366.483 357.741 366.43 357.668C366.378 357.595 366.35 357.507 366.35 357.416C366.35 357.326 366.378 357.238 366.43 357.165C366.483 357.092 366.557 357.036 366.642 357.007L378.434 350.154C378.653 350.044 378.895 349.986 379.141 349.986C379.386 349.986 379.629 350.044 379.848 350.154L403.873 364.033Z" fill="#D8DEEC"/>
<path d="M378.06 342.541L330.719 370.051L329.561 369.382C328.864 368.988 328.86 368.322 329.561 367.92L374.377 341.863C374.769 341.665 375.201 341.562 375.64 341.562C376.078 341.562 376.511 341.665 376.902 341.863L378.06 342.541Z" fill="#1B2229"/>
<path d="M415.283 364.03C415.98 364.423 415.984 365.093 415.283 365.495L370.466 391.544C370.075 391.742 369.643 391.845 369.204 391.845C368.766 391.845 368.333 391.742 367.942 391.544L330.719 370.052L378.06 342.541L415.283 364.03ZM392.085 371.706L403.877 364.853C404.271 364.628 404.271 364.262 403.877 364.034L379.852 350.154C379.633 350.044 379.39 349.987 379.145 349.987C378.899 349.987 378.657 350.044 378.438 350.154L366.646 357.007C366.561 357.037 366.487 357.092 366.434 357.165C366.382 357.239 366.354 357.327 366.354 357.417C366.354 357.507 366.382 357.595 366.434 357.668C366.487 357.742 366.561 357.797 366.646 357.826L390.671 371.706C390.89 371.818 391.132 371.877 391.378 371.877C391.624 371.877 391.866 371.818 392.085 371.706Z" fill="#3D6EB5"/>
<path d="M415.283 363.604L378.06 342.111L376.902 341.442C376.511 341.244 376.078 341.141 375.64 341.141C375.201 341.141 374.769 341.244 374.377 341.442L329.549 367.491C328.86 367.885 328.864 368.554 329.549 368.956L330.707 369.622L367.93 391.114C368.321 391.312 368.754 391.415 369.192 391.415C369.631 391.415 370.063 391.312 370.455 391.114L415.279 365.065C415.984 364.663 415.98 364.006 415.283 363.604Z" fill="#914499"/>
<path d="M378.06 342.111L330.719 369.622L329.561 368.956C328.864 368.562 328.86 367.893 329.561 367.491L374.389 341.442C374.781 341.244 375.213 341.141 375.652 341.141C376.09 341.141 376.523 341.244 376.914 341.442L378.06 342.111Z" fill="#0F1515"/>
<path d="M369.289 387.747V390.319L414.822 364.116V361.572L369.289 387.747Z" fill="#EAEAE9"/>
<path d="M369.289 390.319L330.719 368.382V365.952L369.289 387.747V390.319Z" fill="#EAEAE9"/>
<path d="M329.033 368.224V364.529L330.719 365.951V368.381L329.876 369.137L329.033 368.224Z" fill="#0F1515"/>
<path d="M403.873 359.933C404.267 360.162 404.267 360.528 403.873 360.752L392.081 367.605C391.862 367.718 391.62 367.777 391.374 367.777C391.128 367.777 390.886 367.718 390.667 367.605L366.642 353.726C366.557 353.697 366.483 353.641 366.43 353.568C366.378 353.495 366.35 353.407 366.35 353.316C366.35 353.226 366.378 353.138 366.43 353.065C366.483 352.991 366.557 352.936 366.642 352.907L378.434 346.054C378.653 345.944 378.895 345.886 379.141 345.886C379.386 345.886 379.629 345.944 379.848 346.054L403.873 359.933Z" fill="#EBD8E9"/>
<path d="M378.06 338.441L330.719 365.951L329.561 365.282C328.864 364.888 328.86 364.222 329.561 363.821L374.389 337.771C374.781 337.573 375.213 337.47 375.652 337.47C376.09 337.47 376.523 337.573 376.914 337.771L378.06 338.441Z" fill="#251B29"/>
<path d="M415.283 359.933C415.98 360.327 415.984 360.992 415.283 361.394L370.466 387.443C370.075 387.641 369.643 387.745 369.204 387.745C368.766 387.745 368.333 387.641 367.942 387.443L330.719 365.951L378.06 338.44L415.283 359.933ZM392.085 367.605L403.877 360.752C404.271 360.528 404.271 360.161 403.877 359.933L379.852 346.054C379.633 345.943 379.39 345.886 379.145 345.886C378.899 345.886 378.657 345.943 378.438 346.054L366.626 352.891C366.541 352.92 366.467 352.975 366.415 353.049C366.362 353.122 366.334 353.21 366.334 353.3C366.334 353.391 366.362 353.479 366.415 353.552C366.467 353.625 366.541 353.681 366.626 353.71L390.651 367.589C390.87 367.702 391.112 367.761 391.358 367.761C391.604 367.761 391.847 367.702 392.065 367.589L392.085 367.605Z" fill="#994A9B"/>
<path opacity="0.1" d="M292.24 396.215L236.076 428.633L194.797 404.801V400.811L248.238 372.485C249.068 372.006 250.009 371.753 250.968 371.753C251.926 371.753 252.868 372.006 253.697 372.485L295.784 394.246L292.24 396.215Z" fill="black"/>
<path d="M286.288 392.379L230.302 424.663L188.834 400.756L244.82 368.437L286.288 392.379Z" fill="#F04D44"/>
<path d="M189.488 390.508V400.756L230.153 424.202V414.025L189.488 390.508Z" fill="#EFEEEE"/>
<path d="M286.288 382.036L230.302 414.332L188.834 390.398L243.185 359.027C243.686 358.737 244.255 358.584 244.834 358.584C245.412 358.584 245.981 358.737 246.482 359.027L286.288 382.036Z" fill="#F04D44"/>
<path d="M286.289 382.017L230.302 414.34V425.317L286.289 392.997V382.017Z" fill="#DA463D"/>
<path d="M230.302 414.34V415.127L188.834 391.15V390.397L230.302 414.34Z" fill="#B63A33"/>
<path d="M230.302 424.663V425.316L188.834 401.374V400.756L230.302 424.663Z" fill="#B63A33"/>
<path d="M230.302 414.604L229.519 414.139V424.202L230.302 424.663V414.604Z" fill="#B63A33"/>
<path d="M226.577 417.877L224.001 416.384C224.001 416.384 222.764 418.354 222.031 418.649C220.644 419.136 219.217 419.502 217.766 419.744L220.385 421.713C220.385 421.713 223.812 420.618 224.402 420.102C225.245 419.358 226.577 417.877 226.577 417.877Z" fill="#5B5B5C"/>
<path d="M240.834 370.315L262.98 383.1C264.075 383.734 264.083 384.77 262.98 385.404L256.285 389.295C255.669 389.608 254.988 389.771 254.298 389.771C253.607 389.771 252.927 389.608 252.311 389.295L230.176 376.523C229.082 375.888 229.078 374.853 230.176 374.219L236.872 370.327C237.488 370.015 238.168 369.852 238.859 369.852C239.549 369.852 240.23 370.015 240.846 370.327L240.834 370.315Z" fill="#EFEEEE"/>
<path d="M286.288 379.429L230.302 411.717L188.834 387.81L244.82 355.487L286.288 379.429Z" fill="#64CBEA"/>
<path d="M189.488 377.558V387.806L230.153 411.252V401.075L189.488 377.558Z" fill="#EFEEEE"/>
<path d="M286.288 369.067L230.302 401.39L188.834 377.448L242.157 346.66C242.966 346.194 243.884 345.949 244.818 345.949C245.752 345.949 246.669 346.194 247.478 346.66L286.288 369.067Z" fill="#64CBEA"/>
<path d="M286.289 369.067L230.302 401.39V412.371L286.289 380.047V369.067Z" fill="#60C0DD"/>
<path d="M230.302 401.39V402.178L188.834 378.2V377.448L230.302 401.39Z" fill="#59B7D5"/>
<path d="M230.302 411.717V412.371L188.834 388.424V387.806L230.302 411.717Z" fill="#59B7D5"/>
<path d="M230.302 401.654L229.519 401.189V411.252L230.302 411.717V401.654Z" fill="#59B7D5"/>
<path d="M226.577 404.923L224.001 403.43C224.001 403.43 222.764 405.399 222.031 405.695C220.644 406.182 219.217 406.548 217.766 406.79L220.385 408.759C220.385 408.759 223.812 407.668 224.402 407.148C225.245 406.408 226.577 404.923 226.577 404.923Z" fill="#5B5B5C"/>
<path d="M240.834 357.365L262.98 370.15C264.075 370.784 264.083 371.82 262.98 372.454L256.285 376.345C255.669 376.658 254.988 376.821 254.298 376.821C253.607 376.821 252.927 376.658 252.311 376.345L230.165 363.561C229.07 362.927 229.066 361.891 230.165 361.257L236.86 357.365C237.476 357.054 238.157 356.891 238.847 356.891C239.537 356.891 240.218 357.054 240.834 357.365Z" fill="#EFEEEE"/>
<path d="M200.062 246H175.624V275.236H200.062V246Z" fill="#353535"/>
<g opacity="0.1">
<path opacity="0.1" d="M198.203 281.509L198.011 281.62C196.5 282.436 194.873 283.014 193.186 283.333C188.566 284.255 183.229 283.648 179.523 281.509C174.344 278.52 174.32 273.676 179.464 270.686C183.162 268.536 188.523 267.929 193.186 268.879C194.874 269.205 196.501 269.789 198.011 270.611L198.144 270.686C203.32 273.676 203.347 278.52 198.203 281.509Z" fill="black"/>
</g>
<path d="M196.51 280.241C196.451 280.277 196.392 280.312 196.329 280.343C194.932 281.095 193.429 281.626 191.87 281.919C187.593 282.77 182.658 282.21 179.232 280.229C174.442 277.472 174.419 272.986 179.173 270.221C182.599 268.252 187.569 267.673 191.87 268.548C193.432 268.858 194.936 269.409 196.329 270.182L196.455 270.253C201.26 272.998 201.26 277.48 196.51 280.241Z" fill="#353535"/>
<path opacity="0.1" d="M194.1 262.439C193.508 262.437 192.942 262.201 192.524 261.783C192.107 261.364 191.872 260.798 191.87 260.206V249.178C191.873 248.588 192.108 248.022 192.526 247.604C192.943 247.187 193.509 246.951 194.1 246.949C194.691 246.95 195.257 247.185 195.675 247.603C196.093 248.021 196.328 248.588 196.329 249.178V260.206C196.328 260.798 196.093 261.364 195.675 261.783C195.257 262.201 194.691 262.437 194.1 262.439Z" fill="white"/>
<path opacity="0.1" d="M196.329 267.177V280.344C194.933 281.095 193.429 281.626 191.87 281.919V267.177C191.87 266.586 192.105 266.019 192.523 265.601C192.941 265.183 193.508 264.948 194.1 264.948C194.691 264.948 195.258 265.183 195.676 265.601C196.094 266.019 196.329 266.586 196.329 267.177Z" fill="white"/>
<path d="M196.455 240.998C191.67 238.241 183.93 238.241 179.173 240.998C174.415 243.755 174.446 248.241 179.232 251.006C184.017 253.771 191.756 253.763 196.51 251.006C201.264 248.249 201.236 243.759 196.455 240.998Z" fill="#5F5F5F"/>
<path d="M197.991 248.946C197.477 249.528 196.879 250.031 196.218 250.439C196.108 250.51 195.994 250.577 195.88 250.643C195.616 250.797 195.344 250.939 195.06 251.077C194.861 251.171 194.656 251.262 194.446 251.348C194.072 251.502 193.682 251.644 193.284 251.77C192.886 251.896 192.497 251.998 192.103 252.093C191.91 252.14 191.709 252.179 191.52 252.219C191.126 252.294 190.732 252.361 190.338 252.412C190.039 252.447 189.74 252.479 189.436 252.502C189.133 252.526 188.857 252.542 188.566 252.554C188.274 252.565 187.963 252.554 187.664 252.554C187.365 252.554 186.947 252.554 186.593 252.514C186.356 252.514 186.124 252.479 185.892 252.455C185.659 252.432 185.324 252.388 185.041 252.349L184.82 252.313C184.293 252.227 183.777 252.12 183.269 251.986L183.048 251.931C182.553 251.796 182.065 251.636 181.587 251.451L181.496 251.415C180.935 251.194 180.391 250.931 179.87 250.628L179.811 250.592C179.165 250.222 178.569 249.771 178.038 249.249C176.022 247.221 176.018 244.708 178.038 242.688C178.569 242.167 179.165 241.717 179.811 241.349C180.348 241.036 180.909 240.766 181.488 240.541L181.579 240.51C182.058 240.326 182.545 240.167 183.04 240.033L183.261 239.978C183.769 239.848 184.285 239.742 184.812 239.659L185.033 239.623C185.317 239.584 185.6 239.549 185.884 239.521C186.167 239.494 186.348 239.478 186.585 239.466C186.939 239.442 187.298 239.43 187.656 239.427C188.014 239.423 188.255 239.427 188.558 239.427C188.861 239.427 189.137 239.454 189.428 239.482C189.72 239.509 190.031 239.537 190.33 239.576C190.724 239.631 191.118 239.694 191.512 239.773L192.095 239.899C192.489 239.998 192.882 240.104 193.276 240.23C193.67 240.356 194.064 240.498 194.438 240.655C194.647 240.742 194.852 240.837 195.053 240.931C195.316 241.057 195.573 241.195 195.821 241.325C195.955 241.4 196.085 241.482 196.214 241.561C196.875 241.972 197.472 242.476 197.987 243.058C199.566 244.933 199.57 247.111 197.991 248.946Z" fill="#232323"/>
<path d="M185.029 234.476V252.356L184.809 252.321C184.281 252.234 183.765 252.128 183.257 251.994L183.036 251.939C182.541 251.804 182.054 251.643 181.575 251.458L181.484 251.423V234.487L185.029 234.476Z" fill="#AA89B7"/>
<path d="M185.029 234.476V252.356L184.809 252.321C184.281 252.234 183.765 252.128 183.257 251.994V234.476H185.029Z" fill="#B692C3"/>
<path d="M181.485 234.476L182.642 229.667L183.257 227.119L183.871 229.667L185.029 234.476C184.478 234.748 183.872 234.889 183.257 234.889C182.642 234.889 182.036 234.748 181.485 234.476Z" fill="#FFEAC1"/>
<path d="M182.642 229.667L183.257 227.119L183.871 229.667H182.642Z" fill="#404041"/>
<path d="M189.444 232.306V252.502C189.153 252.526 188.865 252.542 188.574 252.554C188.282 252.565 187.971 252.554 187.672 252.554C187.373 252.554 186.955 252.554 186.601 252.514C186.364 252.514 186.132 252.479 185.9 252.455V232.306H189.444Z" fill="#E5C34A"/>
<path d="M189.444 232.306V252.502C189.153 252.526 188.865 252.542 188.574 252.554C188.282 252.565 187.971 252.554 187.672 252.554V232.306H189.444Z" fill="#FFD955"/>
<path d="M185.9 232.306L187.058 227.497L187.672 224.949L188.286 227.497L189.444 232.306C188.895 232.585 188.288 232.731 187.672 232.731C187.056 232.731 186.449 232.585 185.9 232.306Z" fill="#FFEAC1"/>
<path d="M187.038 227.497L187.652 224.949L188.267 227.497H187.038Z" fill="#404041"/>
<path d="M192.099 239.123V252.093C191.906 252.14 191.705 252.179 191.516 252.219C191.122 252.293 190.728 252.36 190.334 252.412C190.035 252.447 189.736 252.479 189.432 252.502C189.129 252.526 188.853 252.542 188.562 252.553V239.123H192.099Z" fill="#2A6FA0"/>
<path d="M192.099 239.123V252.093C191.906 252.14 191.705 252.179 191.516 252.219C191.122 252.293 190.728 252.36 190.334 252.412V239.123H192.099Z" fill="#4588C7"/>
<path d="M188.554 239.123L189.712 234.314L190.326 231.766L190.941 234.314L192.099 239.123H188.554Z" fill="#FFEAC1"/>
<path d="M189.712 234.314L190.326 231.766L190.941 234.314H189.712Z" fill="#404041"/>
<path d="M195.061 234.645V251.077C194.485 251.348 193.892 251.58 193.284 251.77C192.891 251.892 192.497 251.998 192.103 252.093C191.91 252.14 191.709 252.179 191.52 252.219V234.645H195.061Z" fill="#4F4C93"/>
<path d="M195.061 234.645V251.077C194.485 251.348 193.892 251.58 193.284 251.77V234.645H195.061Z" fill="#5954A3"/>
<path d="M191.516 234.646L192.674 229.837L193.288 227.289L193.899 229.837L195.061 234.646C193.924 235.108 192.652 235.108 191.516 234.646Z" fill="#FFEAC1"/>
<path d="M192.674 229.832L193.288 227.288L193.899 229.832H192.674Z" fill="#404041"/>
<path d="M181.567 235.586V251.459L181.477 251.423C180.915 251.202 180.372 250.939 179.85 250.636L179.791 250.6C179.145 250.23 178.55 249.779 178.019 249.257V235.586H181.567Z" fill="#81AF5A"/>
<path d="M181.567 235.586V251.459L181.477 251.423C180.915 251.202 180.372 250.939 179.85 250.636L179.791 250.6V235.586H181.567Z" fill="#96CB6A"/>
<path d="M178.022 235.586L179.204 230.797L179.814 228.249L180.429 230.797L181.567 235.586C181.03 235.903 180.418 236.07 179.795 236.07C179.171 236.07 178.559 235.903 178.022 235.586Z" fill="#FFEAC1"/>
<path d="M179.188 230.778L179.799 228.229L180.413 230.778H179.188Z" fill="#404041"/>
<path d="M186.581 238.532V252.522C186.345 252.522 186.112 252.486 185.88 252.463C185.647 252.439 185.313 252.396 185.029 252.356L184.809 252.321C184.281 252.234 183.765 252.128 183.257 251.994L183.036 251.939V238.548L186.581 238.532Z" fill="#D67E61"/>
<path d="M186.581 238.532V252.522C186.345 252.522 186.112 252.486 185.88 252.463C185.647 252.439 185.313 252.396 185.029 252.356L184.809 252.321V238.536L186.581 238.532Z" fill="#F59070"/>
<path d="M183.037 238.532L184.195 233.724L184.809 231.175L185.423 233.724L186.581 238.532C185.442 238.979 184.176 238.979 183.037 238.532Z" fill="#FFEAC1"/>
<path d="M184.194 233.724L184.809 231.175L185.423 233.724H184.194Z" fill="#404041"/>
<path d="M192.099 239.123V252.093C191.906 252.14 191.705 252.179 191.516 252.219C191.122 252.293 190.728 252.36 190.334 252.412C190.035 252.447 189.736 252.479 189.432 252.502C189.129 252.526 188.853 252.542 188.562 252.553V239.123H192.099Z" fill="#B92029"/>
<path d="M192.099 239.123V252.093C191.906 252.14 191.705 252.179 191.516 252.219C191.122 252.293 190.728 252.36 190.334 252.412V239.123H192.099Z" fill="#E41E31"/>
<path d="M188.554 239.123L189.712 234.314L190.326 231.766L190.941 234.314L192.099 239.123C191.56 239.434 190.949 239.598 190.326 239.598C189.704 239.598 189.093 239.434 188.554 239.123Z" fill="#FFEAC1"/>
<path d="M189.712 234.314L190.326 231.766L190.941 234.314H189.712Z" fill="#404041"/>
<path d="M197.991 238.532V248.946C197.477 249.528 196.879 250.031 196.218 250.438C196.108 250.509 195.994 250.576 195.88 250.643C195.616 250.797 195.344 250.939 195.06 251.076C194.861 251.171 194.656 251.262 194.446 251.348V238.532H197.991Z" fill="#2A6FA0"/>
<path d="M197.991 238.532V248.946C197.477 249.528 196.879 250.031 196.218 250.438V238.532H197.991Z" fill="#4588C7"/>
<path d="M194.446 238.534L195.604 233.725L196.218 231.192L196.833 233.741L197.991 238.55C197.438 238.807 196.836 238.941 196.226 238.943C195.61 238.941 195.002 238.801 194.446 238.534Z" fill="#FFEAC1"/>
<path d="M195.604 233.724L196.218 231.175L196.833 233.724H195.604Z" fill="#404041"/>
<g opacity="0.1">
<path opacity="0.1" d="M114.348 353.943L177.865 317.031L227.486 345.68L163.97 382.592L114.348 353.943Z" fill="black"/>
<path opacity="0.1" d="M227.486 345.68L177.865 317.031L114.348 353.943L163.97 382.592L227.486 345.68Z" fill="black"/>
</g>
<path d="M219.101 345.77L172.8 319.04L113.525 353.482L159.83 380.217L219.101 345.77Z" fill="white"/>
<path d="M219.101 322.923L172.8 296.188L113.525 330.634L159.83 357.369L219.101 322.923Z" fill="#E8E7E7"/>
<path d="M219.105 322.923L173.15 349.626L148.617 350.894L113.529 330.634L172.8 296.188L219.105 322.923Z" fill="white"/>
<path d="M159.83 357.369V380.216L219.101 345.77V322.923L159.83 357.369Z" fill="#F0EFEF"/>
<path d="M113.525 330.635V353.482L159.83 380.217V357.369L113.525 330.635Z" fill="#F7F7F7"/>
<path d="M170.405 312.663L161.89 307.748L160.035 308.823L168.55 313.739L170.405 312.663Z" fill="#ECECEC"/>
<path d="M180.074 318.244L171.559 313.329L169.708 314.408L178.223 319.324L180.074 318.244Z" fill="#ECECEC"/>
<path d="M198.007 328.599L183.249 320.08L181.398 321.155L196.152 329.678L198.007 328.599Z" fill="#ECECEC"/>
<path d="M195.301 330.17L180.543 321.651L178.692 322.73L193.45 331.249L195.301 330.17Z" fill="#ECECEC"/>
<path d="M192.595 331.741L177.841 323.222L175.986 324.301L190.744 332.82L192.595 331.741Z" fill="#ECECEC"/>
<path d="M189.889 333.316L175.136 324.793L173.281 325.873L188.038 334.392L189.889 333.316Z" fill="#ECECEC"/>
<path d="M187.184 334.888L172.43 326.369L170.575 327.444L185.332 335.963L187.184 334.888Z" fill="#ECECEC"/>
<path d="M172.682 331.6L146.68 316.586L144.825 317.665L170.827 332.679L172.682 331.6Z" fill="#ECECEC"/>
<path d="M169.976 333.171L143.974 318.161L142.119 319.236L168.121 334.25L169.976 333.171Z" fill="#ECECEC"/>
<path d="M167.27 334.746L141.268 319.732L139.413 320.808L165.415 335.821L167.27 334.746Z" fill="#ECECEC"/>
<path d="M164.565 336.318L138.563 321.304L136.708 322.379L162.71 337.393L164.565 336.318Z" fill="#ECECEC"/>
<path d="M161.859 337.889L135.857 322.875L134.002 323.955L160.004 338.968L161.859 337.889Z" fill="#ECECEC"/>
<path d="M167.581 346.278L131.465 325.428L129.61 326.503L165.73 347.357L167.581 346.278Z" fill="#ECECEC"/>
<path d="M164.876 347.854L128.759 327L126.904 328.079L163.025 348.929L164.876 347.854Z" fill="#ECECEC"/>
<path d="M167.7 314.235L159.185 309.319L157.329 310.395L165.845 315.314L167.7 314.235Z" fill="#ECECEC"/>
<path d="M177.369 319.82L168.854 314.9L167.003 315.98L175.518 320.895L177.369 319.82Z" fill="#ECECEC"/>
<path d="M164.994 315.806L156.479 310.891L154.624 311.97L163.139 316.885L164.994 315.806Z" fill="#ECECEC"/>
<path d="M174.663 321.391L166.148 316.476L164.297 317.551L172.812 322.466L174.663 321.391Z" fill="#ECECEC"/>
<path d="M162.288 317.381L153.773 312.462L151.918 313.541L160.433 318.456L162.288 317.381Z" fill="#ECECEC"/>
<path d="M171.957 322.963L163.446 318.047L161.591 319.123L170.106 324.042L171.957 322.963Z" fill="#ECECEC"/>
<path d="M159.582 318.953L151.067 314.038L149.216 315.113L157.731 320.029L159.582 318.953Z" fill="#ECECEC"/>
<path d="M169.252 324.534L160.736 319.619L158.885 320.698L167.4 325.613L169.252 324.534Z" fill="#ECECEC"/>
<path d="M182.796 337.44L174.281 332.521L172.426 333.6L180.941 338.515L182.796 337.44Z" fill="#ECECEC"/>
<path d="M180.09 339.012L171.575 334.097L169.72 335.172L178.235 340.091L180.09 339.012Z" fill="#ECECEC"/>
<path d="M197.916 316.936L171.91 301.923L170.059 303.002L196.061 318.016L197.916 316.936Z" fill="#ECECEC"/>
<path d="M195.21 318.508L169.204 303.494L167.353 304.573L193.355 319.587L195.21 318.508Z" fill="#ECECEC"/>
<path d="M208.026 322.773L199.511 317.858L197.66 318.937L206.175 323.852L208.026 322.773Z" fill="#ECECEC"/>
<path d="M205.324 324.349L196.805 319.43L194.954 320.509L203.469 325.424L205.324 324.349Z" fill="#ECECEC"/>
<path d="M192.323 320.186L166.321 305.172L164.466 306.252L190.472 321.265L192.323 320.186Z" fill="#ECECEC"/>
<path d="M202.437 326.023L193.922 321.107L192.067 322.187L200.582 327.102L202.437 326.023Z" fill="#ECECEC"/>
<path d="M177.384 340.583L168.869 335.668L167.014 336.743L175.529 341.662L177.384 340.583Z" fill="#ECECEC"/>
<path d="M174.679 342.155L166.164 337.239L164.309 338.318L172.824 343.234L174.679 342.155Z" fill="#ECECEC"/>
<path d="M171.973 343.73L163.458 338.811L161.603 339.89L170.118 344.805L171.973 343.73Z" fill="#ECECEC"/>
<path d="M173.151 349.626L148.617 350.894L158.448 341.461L173.151 349.626Z" fill="#F0EFEF"/>
<g opacity="0.1">
<path opacity="0.1" d="M448.284 301.033C445.905 299.692 443.343 298.709 440.678 298.114C434.997 296.817 429.097 296.817 423.416 298.114C420.763 298.71 418.212 299.694 415.846 301.033C413.874 302.114 412.163 303.615 410.832 305.428C409.772 306.88 409.193 308.628 409.178 310.426C409.216 312.229 409.813 313.976 410.887 315.424C411.887 316.795 413.12 317.979 414.531 318.922L411.482 320.694L411.206 320.532C410.98 320.42 410.731 320.361 410.478 320.361C410.225 320.361 409.975 320.42 409.749 320.532L387.725 333.333C387.637 333.363 387.56 333.419 387.506 333.495C387.452 333.57 387.423 333.661 387.423 333.754C387.423 333.847 387.452 333.938 387.506 334.013C387.56 334.089 387.637 334.146 387.725 334.175L391.27 336.216C391.495 336.33 391.745 336.39 391.998 336.39C392.251 336.39 392.501 336.33 392.727 336.216L414.751 323.415C414.839 323.386 414.916 323.329 414.97 323.253C415.024 323.178 415.053 323.087 415.053 322.994C415.053 322.901 415.024 322.81 414.97 322.735C414.916 322.659 414.839 322.602 414.751 322.573L414.475 322.415L417.52 320.643C419.454 321.56 421.483 322.263 423.569 322.742C429.25 324.039 435.151 324.039 440.832 322.742C443.486 322.146 446.036 321.162 448.402 319.82C450.374 318.739 452.085 317.24 453.416 315.428C454.499 313.984 455.08 312.224 455.07 310.419C455.06 308.613 454.46 306.86 453.36 305.428C452.01 303.614 450.282 302.114 448.295 301.033H448.284Z" fill="black"/>
</g>
<path d="M416.63 303.798C413.18 305.803 411.451 308.434 411.443 311.065V306.551C411.443 303.916 413.18 301.289 416.63 299.284C419.836 297.422 423.975 296.417 428.197 296.275C428.197 297.78 428.197 299.284 428.197 300.789C423.975 300.931 419.847 301.935 416.63 303.798Z" fill="#B7B7B7"/>
<path d="M428.193 300.789C428.193 299.284 428.193 297.78 428.193 296.275C433.112 296.106 438.138 297.11 441.903 299.284C445.42 301.313 447.177 303.987 447.169 306.657V311.171C447.169 308.5 445.42 305.83 441.899 303.798C438.138 301.624 433.116 300.623 428.193 300.789Z" fill="#B7B7B7"/>
<path d="M450.174 306.665V311.179C450.149 312.792 449.624 314.357 448.674 315.661V311.147C449.622 309.843 450.146 308.278 450.174 306.665Z" fill="#B7B7B7"/>
<path opacity="0.3" d="M447.185 306.653V311.171C447.185 313.802 445.448 316.433 441.998 318.437C435.05 322.474 423.711 322.474 416.724 318.437C413.203 316.409 411.447 313.735 411.454 311.068V306.551C411.454 309.221 413.203 311.891 416.724 313.924C423.715 317.961 435.054 317.961 441.998 313.924C445.448 311.931 447.177 309.288 447.185 306.653Z" fill="#39C3F2"/>
<g opacity="0.5">
<path opacity="0.5" d="M441.903 301.297C448.89 305.334 448.93 311.899 441.982 315.936C435.034 319.973 423.699 319.973 416.709 315.936C409.718 311.899 409.678 305.334 416.626 301.297C423.573 297.26 434.924 297.244 441.903 301.297Z" fill="#66ACDF"/>
</g>
<path d="M408.465 311.06V306.547V306.602C408.5 308.241 409.042 309.829 410.017 311.147C410.926 312.39 412.045 313.465 413.325 314.322C413.719 314.605 414.164 314.877 414.621 315.141C415.078 315.405 415.547 315.653 416.035 315.885C417.797 316.721 419.646 317.361 421.549 317.791C426.71 318.973 432.071 318.973 437.232 317.791C439.643 317.251 441.962 316.358 444.113 315.141C445.902 314.155 447.454 312.79 448.662 311.143V315.657C447.455 317.305 445.901 318.669 444.109 319.65C441.958 320.868 439.64 321.761 437.228 322.301C432.067 323.482 426.706 323.482 421.545 322.301C419.643 321.869 417.794 321.232 416.031 320.399C415.547 320.162 415.074 319.914 414.617 319.65C414.16 319.386 413.731 319.115 413.325 318.835C412.044 317.978 410.925 316.902 410.017 315.657C409.04 314.341 408.498 312.754 408.465 311.116V311.06Z" fill="#B7B7B7"/>
<path d="M411.175 318.76L411.163 322.277L409.056 321.06L409.064 317.543L411.175 318.76Z" fill="#4D4C4D"/>
<path d="M415.44 316.291L415.428 319.808L411.163 322.277L411.175 318.76L415.44 316.291Z" fill="#3A3A3B"/>
<path d="M415.44 316.286L411.183 318.76L409.072 317.543L413.337 315.069C413.656 315.29 413.991 315.503 414.345 315.707C414.7 315.912 415.058 316.105 415.44 316.286Z" fill="#4D4C4D"/>
<path d="M448.662 311.143C447.451 312.79 445.896 314.153 444.105 315.137C441.954 316.354 439.636 317.247 437.224 317.787C432.063 318.969 426.702 318.969 421.541 317.787C419.639 317.357 417.789 316.717 416.027 315.881C415.539 315.649 415.066 315.397 414.613 315.137C414.16 314.877 413.727 314.601 413.317 314.317C412.038 313.461 410.918 312.386 410.009 311.143C409.034 309.825 408.492 308.237 408.457 306.598C408.47 304.965 408.995 303.376 409.958 302.057C411.168 300.41 412.723 299.047 414.515 298.063C416.665 296.845 418.984 295.952 421.395 295.412C426.556 294.231 431.918 294.231 437.078 295.412C439.5 295.953 441.829 296.846 443.991 298.063C445.798 299.047 447.37 300.411 448.599 302.061C449.596 303.363 450.141 304.955 450.15 306.595C450.159 308.235 449.633 309.834 448.65 311.147L448.662 311.143ZM416.724 313.9C423.715 317.937 435.054 317.937 441.998 313.9C448.941 309.863 448.906 303.297 441.919 299.26C434.932 295.223 423.585 295.223 416.641 299.26C409.698 303.297 409.729 309.863 416.724 313.9Z" fill="#EAEAE9"/>
<path d="M411.86 319.103V323.62C411.856 323.704 411.828 323.786 411.78 323.855C411.732 323.925 411.666 323.98 411.589 324.014V319.5C411.666 319.465 411.732 319.41 411.78 319.339C411.828 319.269 411.856 319.187 411.86 319.103Z" fill="#E7AF2A"/>
<path d="M386.764 333.392V328.866C386.77 328.951 386.799 329.032 386.848 329.101C386.896 329.171 386.962 329.225 387.04 329.26V333.774C386.964 333.74 386.899 333.687 386.85 333.62C386.802 333.553 386.772 333.474 386.764 333.392Z" fill="#F6BA2D"/>
<path d="M411.589 319.484L411.577 323.998L391.565 335.628L391.577 331.115L411.589 319.484Z" fill="#E7AF2A"/>
<path d="M390.254 331.115L390.242 335.629L387.036 333.778L387.048 329.26L390.254 331.115Z" fill="#F6BA2D"/>
<path d="M391.577 331.115V335.629C391.372 335.734 391.145 335.788 390.915 335.788C390.685 335.788 390.458 335.734 390.253 335.629V331.115C390.459 331.218 390.685 331.272 390.915 331.272C391.145 331.272 391.371 331.218 391.577 331.115Z" fill="#F6BA2D"/>
<path d="M411.577 318.717C411.664 318.737 411.741 318.785 411.797 318.855C411.853 318.925 411.883 319.011 411.883 319.101C411.883 319.19 411.853 319.277 411.797 319.346C411.741 319.416 411.664 319.465 411.577 319.485L391.565 331.115C391.36 331.218 391.133 331.272 390.903 331.272C390.674 331.272 390.447 331.218 390.242 331.115L387.036 329.264C386.669 329.051 386.666 328.705 387.036 328.476L407.047 316.846C407.252 316.742 407.479 316.688 407.709 316.688C407.939 316.688 408.166 316.742 408.371 316.846L408.619 316.992L411.329 318.567L411.577 318.717Z" fill="#FFC43B"/>
<path d="M124.179 283.388L124.14 283.475C124.144 283.424 124.159 283.392 124.179 283.388Z" fill="#FAC2B0"/>
</svg>
