<svg width="60" height="60" viewBox="0 0 60 60" fill="none" xmlns="http://www.w3.org/2000/svg">
<path d="M41.001 1.80232e-07H1.00003C0.868678 -7.86973e-05 0.738603 0.0257334 0.617239 0.0759602C0.495875 0.126187 0.385601 0.199843 0.292725 0.292718C0.199848 0.385592 0.12619 0.495863 0.075962 0.617224C0.025734 0.738585 -7.86992e-05 0.868657 1.80237e-07 1V17C1.16336e-05 17.1752 0.046027 17.3472 0.133441 17.499C0.220855 17.6508 0.346601 17.777 0.498095 17.8649C0.649588 17.9528 0.821515 17.9994 0.996668 17.9999C1.17182 18.0005 1.34406 17.9551 1.49614 17.8682L8.26601 14H41.001C41.2662 14 41.5206 13.8947 41.7081 13.7071C41.8957 13.5196 42.001 13.2652 42.001 13V1C42.001 0.734785 41.8957 0.48043 41.7081 0.292894C41.5206 0.105357 41.2662 1.80232e-07 41.001 1.80232e-07ZM41.001 21H1.00003C0.868678 20.9999 0.738603 21.0258 0.617239 21.076C0.495875 21.1262 0.385601 21.1999 0.292725 21.2927C0.199848 21.3856 0.12619 21.4959 0.075962 21.6172C0.025734 21.7386 -7.86992e-05 21.8687 1.80237e-07 22V38C1.16336e-05 38.1752 0.046027 38.3473 0.133441 38.499C0.220855 38.6508 0.346601 38.777 0.498095 38.8649C0.649588 38.9528 0.821515 38.9994 0.996668 39C1.17182 39.0006 1.34406 38.9551 1.49614 38.8682L8.26601 35H41.001C41.2662 35 41.5206 34.8947 41.7081 34.7071C41.8957 34.5196 42.001 34.2653 42.001 34V22C42.001 21.7348 41.8957 21.4805 41.7081 21.2929C41.5206 21.1054 41.2662 21 41.001 21ZM41.001 42H1.00003C0.868678 42 0.738603 42.0258 0.617239 42.076C0.495875 42.1262 0.385601 42.1999 0.292725 42.2928C0.199848 42.3856 0.12619 42.4959 0.075962 42.6173C0.025734 42.7386 -7.86992e-05 42.8687 1.80237e-07 43V59.0001C1.16336e-05 59.1752 0.046027 59.3473 0.133441 59.4991C0.220855 59.6508 0.346601 59.777 0.498095 59.8649C0.649588 59.9528 0.821515 59.9994 0.996668 60C1.17182 60.0006 1.34406 59.9552 1.49614 59.8683L8.26601 56.0001H41.001C41.2662 56.0001 41.5206 55.8947 41.7081 55.7072C41.8957 55.5196 42.001 55.2653 42.001 55.0001V43C42.001 42.7348 41.8957 42.4805 41.7081 42.2929C41.5206 42.1054 41.2662 42 41.001 42Z" fill="#318FB5"/>
<path d="M47.0794 9.67583C47.0943 9.68987 47.1054 9.70742 47.1117 9.72687C47.118 9.74632 47.1193 9.76704 47.1155 9.78713L46.6399 12.5078C46.57 12.8996 46.6118 13.3032 46.7605 13.6723C46.9092 14.0415 47.1589 14.3613 47.4808 14.5952C47.8028 14.8292 48.1841 14.9677 48.5812 14.9951C48.9782 15.0225 49.3749 14.9376 49.726 14.75L52.1674 13.4561C52.1855 13.4471 52.2055 13.4425 52.2256 13.4427C52.2458 13.4428 52.2657 13.4478 52.2836 13.457L54.7232 14.749C55.0743 14.9355 55.4707 15.0197 55.8673 14.9919C56.2638 14.9642 56.6447 14.8256 56.9664 14.5921C57.288 14.3585 57.5377 14.0393 57.6869 13.6709C57.8361 13.3024 57.8788 12.8994 57.8102 12.5078L57.3336 9.78613C57.3303 9.76635 57.3318 9.74606 57.3381 9.72702C57.3444 9.70797 57.3552 9.69075 57.3697 9.67683L59.3531 7.75593C59.6387 7.47949 59.841 7.12847 59.937 6.74278C60.033 6.35709 60.0188 5.9522 59.8961 5.57415C59.7734 5.1961 59.5471 4.86006 59.2429 4.60424C58.9388 4.34842 58.5689 4.18308 58.1754 4.12702L55.4419 3.73932C55.4217 3.73665 55.4025 3.729 55.3859 3.71706C55.3694 3.70512 55.3561 3.68927 55.3472 3.67092L54.1323 1.19002C53.9591 0.832123 53.6882 0.530492 53.3509 0.319935C53.0136 0.109377 52.6237 -0.0015276 52.226 1.89695e-05H52.225C51.8271 -0.00166771 51.4369 0.109156 51.0992 0.319709C50.7616 0.530261 50.4903 0.831965 50.3168 1.19002L49.1029 3.67002C49.094 3.68821 49.0809 3.70395 49.0645 3.71588C49.0482 3.7278 49.0292 3.73554 49.0092 3.73842L46.2747 4.12612C45.8811 4.18199 45.5111 4.3472 45.2067 4.60295C44.9024 4.8587 44.6759 5.19474 44.5531 5.57283C44.4303 5.95092 44.4161 6.35589 44.512 6.74166C44.608 7.12744 44.8103 7.47854 45.096 7.75503L47.0794 9.67583ZM58.1754 25.127L55.4419 24.7393C55.4217 24.7367 55.4025 24.729 55.3859 24.7171C55.3694 24.7051 55.3561 24.6893 55.3472 24.6709L54.1323 22.19C53.9591 21.8321 53.6882 21.5305 53.3509 21.32C53.0136 21.1094 52.6237 20.9985 52.226 21H52.225C51.8271 20.9984 51.4369 21.1092 51.0992 21.3197C50.7616 21.5303 50.4903 21.832 50.3168 22.19L49.1029 24.67C49.094 24.6882 49.0809 24.704 49.0645 24.7159C49.0482 24.7278 49.0292 24.7356 49.0092 24.7384L46.2747 25.1261C45.8811 25.182 45.5111 25.3472 45.2067 25.603C44.9024 25.8587 44.6759 26.1948 44.5531 26.5729C44.4303 26.9509 44.4161 27.3559 44.512 27.7417C44.608 28.1275 44.8103 28.4786 45.096 28.755L47.0794 30.6751C47.0943 30.6891 47.1054 30.7066 47.1117 30.7261C47.118 30.7455 47.1193 30.7663 47.1155 30.7864L46.6399 33.5071C46.57 33.8988 46.6118 34.3024 46.7605 34.6715C46.9092 35.0407 47.1589 35.3605 47.4808 35.5945C47.8028 35.8284 48.1841 35.967 48.5812 35.9943C48.9782 36.0217 49.3749 35.9368 49.726 35.7493L52.1674 34.4554C52.1855 34.4464 52.2055 34.4417 52.2256 34.4419C52.2458 34.4421 52.2657 34.447 52.2836 34.4563L54.7232 35.7483C55.0743 35.9347 55.4707 36.0189 55.8673 35.9911C56.2638 35.9634 56.6447 35.8249 56.9664 35.5913C57.288 35.3577 57.5377 35.0386 57.6869 34.6701C57.8361 34.3016 57.8788 33.8986 57.8102 33.5071L57.3336 30.7854C57.3303 30.7656 57.3318 30.7453 57.3381 30.7262C57.3444 30.7072 57.3552 30.69 57.3697 30.6761L59.3531 28.7551C59.6385 28.4787 59.8406 28.1277 59.9364 27.7421C60.0323 27.3566 60.0181 26.9518 59.8954 26.5739C59.7727 26.196 59.5465 25.8601 59.2425 25.6043C58.9384 25.3486 58.5687 25.1832 58.1754 25.127ZM58.1754 46.1271L55.4419 45.7394C55.4217 45.7367 55.4025 45.729 55.3859 45.7171C55.3694 45.7052 55.3561 45.6893 55.3472 45.671L54.1323 43.1901C53.9591 42.8322 53.6882 42.5305 53.3509 42.32C53.0136 42.1094 52.6237 41.9985 52.226 42.0001H52.225C51.8271 41.9984 51.4369 42.1092 51.0992 42.3198C50.7616 42.5303 50.4903 42.832 50.3168 43.1901L49.1029 45.6706C49.094 45.6888 49.0809 45.7045 49.0645 45.7164C49.0482 45.7283 49.0292 45.7361 49.0092 45.739L46.2747 46.1267C45.8811 46.1825 45.5111 46.3477 45.2067 46.6035C44.9024 46.8592 44.6759 47.1953 44.5531 47.5734C44.4303 47.9515 44.4161 48.3564 44.512 48.7422C44.608 49.128 44.8103 49.4791 45.096 49.7556L47.0794 51.6756C47.0943 51.6896 47.1054 51.7072 47.1117 51.7266C47.118 51.7461 47.1193 51.7668 47.1155 51.7869L46.6399 54.5076C46.57 54.8994 46.6118 55.3029 46.7605 55.6721C46.9092 56.0412 47.1589 56.361 47.4808 56.595C47.8028 56.8289 48.1841 56.9675 48.5812 56.9949C48.9782 57.0222 49.3749 56.9373 49.726 56.7498L52.1674 55.4559C52.1855 55.4469 52.2055 55.4423 52.2256 55.4424C52.2458 55.4426 52.2657 55.4475 52.2836 55.4568L54.7232 56.7488C55.0743 56.9353 55.4707 57.0194 55.8673 56.9917C56.2638 56.9639 56.6447 56.8254 56.9664 56.5918C57.288 56.3583 57.5377 56.0391 57.6869 55.6706C57.8361 55.3021 57.8788 54.8991 57.8102 54.5076L57.3336 51.7859C57.3303 51.7661 57.3318 51.7458 57.3381 51.7268C57.3444 51.7077 57.3552 51.6905 57.3697 51.6766L59.3531 49.7557C59.6386 49.4792 59.8408 49.1282 59.9368 48.7426C60.0327 48.3569 60.0185 47.9521 59.8959 47.5741C59.7732 47.1961 59.5469 46.8601 59.2428 46.6043C58.9386 46.3485 58.5688 46.1832 58.1754 46.1271Z" fill="#F7D6BF"/>
<path d="M47.0794 9.67583C47.0942 9.68987 47.1053 9.70742 47.1116 9.72687C47.1179 9.74632 47.1193 9.76704 47.1155 9.78713L46.6399 12.5078C46.57 12.8996 46.6118 13.3032 46.7605 13.6723C46.9092 14.0415 47.1588 14.3613 47.4808 14.5952C47.8028 14.8292 48.1841 14.9677 48.5811 14.9951C48.9782 15.0225 49.3749 14.9376 49.7259 14.75L52.1674 13.4561C52.1855 13.4471 52.2054 13.4425 52.2256 13.4427C52.2458 13.4428 52.2657 13.4478 52.2836 13.457L54.7231 14.749C55.0741 14.9355 55.4706 15.0197 55.8671 14.992C56.2637 14.9643 56.6446 14.8257 56.9663 14.5922C57.288 14.3586 57.5377 14.0394 57.6869 13.6709C57.836 13.3024 57.8788 12.8994 57.8101 12.5078L57.3335 9.78613C57.3302 9.76635 57.3318 9.74606 57.3381 9.72702C57.3443 9.70797 57.3552 9.69075 57.3696 9.67683L59.3531 7.75593C59.6387 7.47949 59.841 7.12847 59.9369 6.74278C60.0329 6.35709 60.0188 5.9522 59.8961 5.57415C59.7734 5.1961 59.5471 4.86006 59.2429 4.60424C58.9387 4.34842 58.5688 4.18308 58.1753 4.12702L55.4419 3.73932C55.4217 3.73665 55.4024 3.729 55.3859 3.71706C55.3694 3.70512 55.3561 3.68927 55.3472 3.67092L54.1322 1.19002C53.959 0.83213 53.6881 0.530506 53.3508 0.31995C53.0136 0.109393 52.6236 -0.00151572 52.226 1.89695e-05H52.225C51.8271 -0.00166771 51.4368 0.109156 51.0992 0.319709C50.7615 0.530261 50.4903 0.831965 50.3167 1.19002L49.1028 3.67002C49.094 3.68821 49.0808 3.70395 49.0645 3.71588C49.0481 3.7278 49.0291 3.73554 49.0091 3.73842L46.2746 4.12612C45.881 4.18199 45.511 4.3472 45.2067 4.60295C44.9023 4.8587 44.6759 5.19474 44.5531 5.57283C44.4303 5.95092 44.416 6.35589 44.512 6.74166C44.608 7.12744 44.8103 7.47854 45.0959 7.75503L47.0794 9.67583ZM46.5559 6.10743L49.2912 5.72003C49.6344 5.67097 49.9604 5.53872 50.2408 5.33478C50.5211 5.13085 50.7473 4.86143 50.8997 4.55002L52.1136 2.07002C52.1224 2.04806 52.1379 2.02944 52.1579 2.01686C52.1779 2.00428 52.2014 1.99838 52.225 2.00002C52.2482 1.99832 52.2714 2.00402 52.2911 2.01631C52.3109 2.0286 52.3263 2.04685 52.335 2.06842V2.06932L53.5489 4.54792C53.701 4.86 53.9273 5.13001 54.208 5.33431C54.4887 5.5386 54.8152 5.67094 55.159 5.71973L57.8924 6.10743C57.9154 6.11059 57.9369 6.12013 57.9547 6.13496C57.9725 6.14979 57.9857 6.16931 57.993 6.19129C58.0002 6.21328 58.0011 6.23686 57.9956 6.25933C57.99 6.28181 57.9783 6.30228 57.9617 6.31843L55.978 8.24003C55.729 8.48109 55.5429 8.77944 55.4358 9.10902C55.3288 9.4386 55.304 9.78939 55.3638 10.1307L55.8393 12.8514C55.8451 12.8743 55.8436 12.8985 55.8348 12.9204C55.826 12.9423 55.8105 12.9609 55.7905 12.9734C55.7725 12.9887 55.7501 12.9979 55.7265 12.9994C55.703 13.001 55.6795 12.995 55.6597 12.9822L53.2201 11.69C52.914 11.5271 52.5725 11.4419 52.2257 11.4419C51.8789 11.4419 51.5374 11.5271 51.2313 11.69L48.7898 12.9829C48.7701 12.9956 48.7468 13.0017 48.7234 13.0001C48.6999 12.9985 48.6776 12.9894 48.6598 12.9741C48.6398 12.9616 48.6243 12.943 48.6155 12.9211C48.6067 12.8992 48.6051 12.875 48.6109 12.8521L49.0865 10.1333C49.1464 9.79147 49.1217 9.44015 49.0144 9.11007C48.9072 8.77999 48.7207 8.4812 48.4713 8.23983L46.4866 6.31843C46.4701 6.30223 46.4585 6.28176 46.453 6.25932C46.4476 6.23688 46.4485 6.21336 46.4557 6.19141C46.4629 6.16947 46.4761 6.14998 46.4938 6.13514C46.5115 6.1203 46.533 6.1107 46.5559 6.10743ZM41.001 1.89695e-05H1.00003C0.868678 -5.9908e-05 0.738603 0.0257522 0.617239 0.075979C0.495875 0.126206 0.385601 0.199862 0.292725 0.292737C0.199848 0.385611 0.12619 0.495882 0.075962 0.617243C0.025734 0.738604 -7.86992e-05 0.868676 1.80237e-07 1.00002V17C1.16336e-05 17.1752 0.046027 17.3473 0.133441 17.499C0.220855 17.6508 0.346601 17.777 0.498095 17.8649C0.649588 17.9528 0.821515 17.9994 0.996668 18C1.17182 18.0006 1.34406 17.9551 1.49614 17.8682L8.26591 14H41.001C41.2662 14 41.5206 13.8947 41.7081 13.7071C41.8957 13.5196 42.001 13.2653 42.001 13V1.00002C42.001 0.734803 41.8957 0.480449 41.7081 0.292912C41.5206 0.105376 41.2662 1.89695e-05 41.001 1.89695e-05ZM40.001 12H8.0002C7.82621 12.0003 7.65527 12.0457 7.50409 12.1318L2.00005 15.2764V2.00002H40.001V12Z" fill="#096293"/>
<path d="M11.0003 8H31.0008C31.266 8 31.5204 7.89465 31.7079 7.70711C31.8954 7.51957 32.0008 7.26522 32.0008 7C32.0008 6.73478 31.8954 6.48043 31.7079 6.29289C31.5204 6.10536 31.266 6 31.0008 6H11.0003C10.735 6 10.4807 6.10536 10.2931 6.29289C10.1056 6.48043 10.0002 6.73478 10.0002 7C10.0002 7.26522 10.1056 7.51957 10.2931 7.70711C10.4807 7.89465 10.735 8 11.0003 8ZM58.1753 25.127L55.4419 24.7393C55.4217 24.7366 55.4024 24.729 55.3859 24.7171C55.3694 24.7051 55.3561 24.6893 55.3472 24.6709L54.1322 22.1909C53.9591 21.8329 53.6883 21.5311 53.351 21.3203C53.0137 21.1096 52.6237 20.9986 52.226 21H52.225C51.8271 20.9983 51.4368 21.1092 51.0992 21.3197C50.7615 21.5303 50.4903 21.832 50.3167 22.19L49.1028 24.67C49.094 24.6882 49.0808 24.704 49.0645 24.7159C49.0481 24.7278 49.0291 24.7355 49.0091 24.7384L46.2746 25.1261C45.881 25.182 45.511 25.3472 45.2067 25.6029C44.9023 25.8587 44.6759 26.1947 44.5531 26.5728C44.4303 26.9509 44.416 27.3559 44.512 27.7417C44.608 28.1274 44.8103 28.4785 45.0959 28.755L47.0794 30.675C47.0942 30.6891 47.1053 30.7066 47.1116 30.7261C47.1179 30.7455 47.1193 30.7662 47.1155 30.7863L46.6399 33.507C46.57 33.8988 46.6118 34.3024 46.7605 34.6715C46.9092 35.0407 47.1588 35.3605 47.4808 35.5944C47.8028 35.8284 48.1841 35.9669 48.5811 35.9943C48.9782 36.0217 49.3749 35.9368 49.7259 35.7492L52.1674 34.4553C52.1855 34.4463 52.2054 34.4417 52.2256 34.4419C52.2458 34.442 52.2657 34.447 52.2836 34.4562L54.7231 35.7482C55.0741 35.9347 55.4706 36.0189 55.8671 35.9912C56.2637 35.9635 56.6446 35.8249 56.9663 35.5914C57.288 35.3578 57.5377 35.0386 57.6869 34.6701C57.836 34.3016 57.8788 33.8986 57.8101 33.507L57.3335 30.7853C57.3302 30.7656 57.3318 30.7453 57.3381 30.7262C57.3443 30.7072 57.3552 30.6899 57.3696 30.676L59.3531 28.7551C59.6387 28.4787 59.841 28.1277 59.9369 27.742C60.0329 27.3563 60.0188 26.9514 59.8961 26.5733C59.7734 26.1953 59.5471 25.8593 59.2429 25.6034C58.9387 25.3476 58.5688 25.1823 58.1753 25.1262V25.127ZM57.9624 27.3184L55.978 29.24C55.729 29.4811 55.5429 29.7794 55.4358 30.109C55.3288 30.4386 55.304 30.7894 55.3638 31.1307L55.8393 33.8514C55.8451 33.8743 55.8436 33.8985 55.8348 33.9204C55.826 33.9423 55.8105 33.9609 55.7905 33.9734C55.7725 33.9887 55.7501 33.9979 55.7265 33.9994C55.703 34.001 55.6795 33.995 55.6597 33.9822L53.2201 32.69C52.914 32.5271 52.5725 32.4419 52.2257 32.4419C51.8789 32.4419 51.5374 32.5271 51.2313 32.69L48.7898 33.9829C48.7701 33.9956 48.7468 34.0017 48.7234 34.0001C48.6999 33.9985 48.6776 33.9894 48.6598 33.9741C48.6398 33.9616 48.6243 33.943 48.6155 33.9211C48.6067 33.8992 48.6051 33.875 48.6109 33.8521L49.0865 31.1333C49.1464 30.7915 49.1217 30.4401 49.0144 30.1101C48.9072 29.78 48.7207 29.4812 48.4713 29.2398L46.4869 27.3189C46.4704 27.3027 46.4588 27.2823 46.4533 27.2598C46.4479 27.2374 46.4488 27.2139 46.456 27.1919C46.4632 27.17 46.4764 27.1505 46.4941 27.1356C46.5118 27.1208 46.5333 27.1112 46.5562 27.1079L49.2912 26.72C49.6344 26.671 49.9604 26.5387 50.2408 26.3348C50.5211 26.1308 50.7473 25.8614 50.8997 25.55L52.1136 23.0695C52.1224 23.0476 52.138 23.0291 52.158 23.0167C52.178 23.0042 52.2015 22.9983 52.225 23C52.2482 22.9983 52.2714 23.004 52.2911 23.0163C52.3109 23.0286 52.3263 23.0468 52.335 23.0684V23.0693L53.5489 25.5479C53.701 25.86 53.9273 26.13 54.208 26.3343C54.4887 26.5386 54.8152 26.6709 55.159 26.7197L57.8924 27.1074C57.9154 27.1106 57.9369 27.1201 57.9547 27.135C57.9725 27.1498 57.9857 27.1693 57.993 27.1913C58.0002 27.2133 58.0011 27.2369 57.9956 27.2593C57.99 27.2818 57.9783 27.3023 57.9617 27.3184H57.9624ZM41.001 21H1.00003C0.868678 20.9999 0.738603 21.0258 0.617239 21.076C0.495875 21.1262 0.385601 21.1999 0.292725 21.2927C0.199848 21.3856 0.12619 21.4959 0.075962 21.6172C0.025734 21.7386 -7.86992e-05 21.8687 1.80237e-07 22V38C1.16336e-05 38.1752 0.046027 38.3473 0.133441 38.499C0.220855 38.6508 0.346601 38.777 0.498095 38.8649C0.649588 38.9528 0.821515 38.9994 0.996668 39C1.17182 39.0006 1.34406 38.9551 1.49614 38.8682L8.26591 35H41.001C41.2662 35 41.5206 34.8947 41.7081 34.7071C41.8957 34.5196 42.001 34.2652 42.001 34V22C42.001 21.7348 41.8957 21.4804 41.7081 21.2929C41.5206 21.1054 41.2662 21 41.001 21ZM40.001 33H8.0002C7.82621 33.0003 7.65527 33.0457 7.50409 33.1318L2.00005 36.2764V23H40.001V33Z" fill="#096293"/>
<path d="M11.0003 29H31.0008C31.266 29 31.5204 28.8946 31.7079 28.7071C31.8954 28.5196 32.0008 28.2652 32.0008 28C32.0008 27.7348 31.8954 27.4804 31.7079 27.2929C31.5204 27.1054 31.266 27 31.0008 27H11.0003C10.735 27 10.4807 27.1054 10.2931 27.2929C10.1056 27.4804 10.0002 27.7348 10.0002 28C10.0002 28.2652 10.1056 28.5196 10.2931 28.7071C10.4807 28.8946 10.735 29 11.0003 29ZM58.1753 46.127L55.4419 45.7393C55.4217 45.7366 55.4024 45.729 55.3859 45.7171C55.3694 45.7051 55.3561 45.6893 55.3472 45.6709L54.1322 43.19C53.959 42.8321 53.6881 42.5305 53.3508 42.3199C53.0136 42.1094 52.6236 41.9985 52.226 42H52.225C51.8271 41.9983 51.4368 42.1092 51.0992 42.3197C50.7615 42.5303 50.4903 42.832 50.3167 43.19L49.1028 45.6705C49.094 45.6887 49.0808 45.7045 49.0645 45.7164C49.0481 45.7283 49.0291 45.736 49.0091 45.7389L46.2746 46.1266C45.881 46.1825 45.511 46.3477 45.2067 46.6034C44.9023 46.8592 44.6759 47.1952 44.5531 47.5733C44.4303 47.9514 44.416 48.3564 44.512 48.7422C44.608 49.1279 44.8103 49.479 45.0959 49.7555L47.0794 51.6755C47.0942 51.6896 47.1053 51.7071 47.1116 51.7266C47.1179 51.746 47.1193 51.7667 47.1155 51.7868L46.6399 54.5075C46.57 54.8993 46.6118 55.3029 46.7605 55.672C46.9092 56.0412 47.1588 56.361 47.4808 56.5949C47.8028 56.8289 48.1841 56.9674 48.5811 56.9948C48.9782 57.0222 49.3749 56.9373 49.7259 56.7497L52.1674 55.4558C52.1855 55.4468 52.2054 55.4422 52.2256 55.4424C52.2458 55.4425 52.2657 55.4475 52.2836 55.4567L54.7231 56.7487C55.0741 56.9352 55.4706 57.0194 55.8671 56.9917C56.2637 56.964 56.6446 56.8254 56.9663 56.5919C57.288 56.3583 57.5377 56.0391 57.6869 55.6706C57.836 55.3021 57.8788 54.8991 57.8101 54.5075L57.3335 51.7858C57.3302 51.7661 57.3318 51.7458 57.3381 51.7267C57.3443 51.7077 57.3552 51.6904 57.3696 51.6765L59.3531 49.7556C59.6387 49.4792 59.841 49.1282 59.9369 48.7425C60.0329 48.3568 60.0188 47.9519 59.8961 47.5738C59.7734 47.1958 59.5471 46.8598 59.2429 46.6039C58.9387 46.3481 58.5688 46.1828 58.1753 46.1267V46.127ZM57.9624 48.3184L55.978 50.24C55.729 50.4811 55.5429 50.7794 55.4358 51.109C55.3288 51.4386 55.304 51.7894 55.3638 52.1307L55.8393 54.8514C55.8451 54.8743 55.8436 54.8985 55.8348 54.9204C55.826 54.9423 55.8105 54.9609 55.7905 54.9734C55.7725 54.9887 55.7501 54.9979 55.7265 54.9994C55.703 55.001 55.6795 54.995 55.6597 54.9822L53.2201 53.69C52.914 53.5271 52.5725 53.4419 52.2257 53.4419C51.8789 53.4419 51.5374 53.5271 51.2313 53.69L48.7898 54.9829C48.7701 54.9956 48.7468 55.0017 48.7234 55.0001C48.6999 54.9985 48.6776 54.9894 48.6598 54.9741C48.6398 54.9616 48.6243 54.943 48.6155 54.9211C48.6067 54.8992 48.6051 54.875 48.6109 54.8521L49.0865 52.1333C49.1464 51.7915 49.1217 51.4401 49.0144 51.1101C48.9072 50.78 48.7207 50.4812 48.4713 50.2398L46.4869 48.3189C46.4704 48.3027 46.4588 48.2823 46.4533 48.2598C46.4479 48.2374 46.4488 48.2139 46.456 48.1919C46.4632 48.17 46.4764 48.1505 46.4941 48.1356C46.5118 48.1208 46.5333 48.1112 46.5562 48.1079L49.2912 47.72C49.6344 47.671 49.9604 47.5387 50.2408 47.3348C50.5211 47.1308 50.7473 46.8614 50.8997 46.55L52.1136 44.07C52.1224 44.0481 52.1379 44.0294 52.1579 44.0169C52.1779 44.0043 52.2014 43.9984 52.225 44C52.2482 43.9983 52.2714 44.004 52.2911 44.0163C52.3109 44.0286 52.3263 44.0468 52.335 44.0684V44.0693L53.5489 46.5479C53.701 46.86 53.9273 47.13 54.208 47.3343C54.4887 47.5386 54.8152 47.6709 55.159 47.7197L57.8924 48.1074C57.9154 48.1106 57.9369 48.1201 57.9547 48.135C57.9725 48.1498 57.9857 48.1693 57.993 48.1913C58.0002 48.2133 58.0011 48.2369 57.9956 48.2593C57.99 48.2818 57.9783 48.3023 57.9617 48.3184H57.9624ZM41.001 42H1.00003C0.868678 41.9999 0.738603 42.0257 0.617239 42.076C0.495875 42.1262 0.385601 42.1999 0.292725 42.2927C0.199848 42.3856 0.12619 42.4959 0.075962 42.6172C0.025734 42.7386 -7.86992e-05 42.8687 1.80237e-07 43V59C1.16336e-05 59.1752 0.046027 59.3473 0.133441 59.499C0.220855 59.6508 0.346601 59.777 0.498095 59.8649C0.649588 59.9528 0.821515 59.9994 0.996668 60C1.17182 60.0006 1.34406 59.9551 1.49614 59.8682L8.26591 56H41.001C41.2662 56 41.5206 55.8947 41.7081 55.7071C41.8957 55.5196 42.001 55.2652 42.001 55V43C42.001 42.7348 41.8957 42.4804 41.7081 42.2929C41.5206 42.1054 41.2662 42 41.001 42ZM40.001 54H8.0002C7.82621 54.0003 7.65527 54.0457 7.50409 54.1318L2.00005 57.2764V44H40.001V54Z" fill="#096293"/>
<path d="M11.0003 50H31.0008C31.266 50 31.5204 49.8946 31.7079 49.7071C31.8954 49.5196 32.0008 49.2652 32.0008 49C32.0008 48.7348 31.8954 48.4804 31.7079 48.2929C31.5204 48.1054 31.266 48 31.0008 48H11.0003C10.735 48 10.4807 48.1054 10.2931 48.2929C10.1056 48.4804 10.0002 48.7348 10.0002 49C10.0002 49.2652 10.1056 49.5196 10.2931 49.7071C10.4807 49.8946 10.735 50 11.0003 50Z" fill="#096293"/>
</svg>
