<svg width="30" height="28" viewBox="0 0 30 28" fill="none" xmlns="http://www.w3.org/2000/svg">
<path d="M30 26.832C29.8309 27.1177 29.5819 27.1904 29.2612 27.1904C19.7515 27.1844 10.2419 27.1827 0.73256 27.1854C0.16229 27.1854 0 27.0248 0 26.4528C0 22.0988 0 17.7444 0 13.3896C0 12.7759 0.148197 12.6232 0.755094 12.6232C2.75667 12.6232 4.75825 12.6232 6.75983 12.6232H7.13625C7.13625 12.2288 7.14979 11.8664 7.13232 11.5086C7.11541 11.1705 7.25572 10.9682 7.54536 10.8065C9.76051 9.57238 11.9678 8.32703 14.1846 7.09407C14.4156 6.96559 14.4855 6.82641 14.4838 6.57114C14.4726 4.66705 14.4776 2.76295 14.4776 0.859425C14.4776 0.803074 14.4776 0.742216 14.4776 0.683611C14.4816 0.245766 14.6625 0.00740188 14.991 7.6288e-05C15.3291 -0.00499528 15.5156 0.242949 15.5184 0.698827C15.5184 0.834632 15.5184 0.970438 15.5184 1.14344H18.8995C19.6162 1.14344 19.7402 1.26572 19.7402 1.97123V2.40513C20.3308 2.40513 20.8937 2.40513 21.4572 2.40513C22.0805 2.40513 22.3386 2.72464 22.0715 3.27744C21.7333 3.97281 21.7525 4.60957 22.0686 5.30268C22.3267 5.86619 22.0827 6.17668 21.4561 6.17837C20.1769 6.18063 18.898 6.18063 17.6192 6.17837C17.0861 6.17837 16.9227 6.00932 16.9204 5.47624C16.9204 5.29367 16.9204 5.11109 16.9204 4.91274H15.519C15.519 5.5557 15.5105 6.18795 15.5291 6.81908C15.5291 6.89853 15.6593 6.99658 15.7506 7.04843C17.9246 8.27575 20.0952 9.50926 22.2833 10.7112C22.7201 10.9513 22.9212 11.2353 22.8649 11.73C22.8333 12.009 22.8592 12.2936 22.8592 12.6159C22.9855 12.6221 23.097 12.6322 23.2092 12.6328C25.2305 12.6328 27.2512 12.6367 29.2725 12.6294C29.592 12.6294 29.8484 12.6982 29.9961 13.0047L30 26.832ZM10.728 26.1356V25.7766C10.728 23.8344 10.728 21.8918 10.728 19.9488C10.728 19.3797 10.8932 19.2162 11.4606 19.2162H18.5197C19.1097 19.2162 19.2708 19.3757 19.2708 19.9601C19.2708 21.9023 19.2708 23.8449 19.2708 25.7879V26.126H21.8449C21.8489 26.055 21.8539 26.0071 21.8539 25.9597C21.8502 21.2838 21.8479 16.6078 21.8472 11.9318C21.8472 11.7131 21.7643 11.6061 21.5829 11.5046C19.4791 10.3314 17.3793 9.152 15.2834 7.96638C15.0828 7.85368 14.9358 7.84128 14.7273 7.96018C12.6164 9.1597 10.5008 10.351 8.38048 11.5339C8.20354 11.6331 8.14155 11.7396 8.14155 11.9414C8.14756 16.5779 8.14907 21.2148 8.14607 25.8521V26.1339L10.728 26.1356ZM7.1216 13.6781H1.05827V26.1254H7.1216V13.6781ZM22.8795 13.6781V26.1316H28.9344V13.6781H22.8795ZM14.4613 26.1378V20.2694H11.7914V26.1361L14.4613 26.1378ZM18.2114 26.1378V20.2717H15.5353V26.1378H18.2114ZM18.6859 2.19945H15.5432V3.86349H18.6859V2.19945ZM20.8723 3.48143H19.7571C19.7454 3.51397 19.7367 3.54755 19.7312 3.58173C19.7284 3.80714 19.725 4.02972 19.7284 4.254C19.7346 4.69015 19.5638 4.88062 19.1271 4.89414C18.8059 4.90428 18.4836 4.88907 18.163 4.90315C18.092 4.90597 18.0243 4.98543 17.9556 5.02938C18.0272 5.06995 18.0987 5.1449 18.1709 5.14603C18.9305 5.15448 19.6923 5.1511 20.4502 5.1511H20.9078C20.8205 4.8423 20.6892 4.57407 20.6824 4.30584C20.6757 4.03761 20.803 3.7598 20.8723 3.47861V3.48143Z" fill="#172F40"/>
<path d="M14.9955 13.7209C14.4228 13.719 13.8741 13.4905 13.4693 13.0854C13.0645 12.6803 12.8364 12.1314 12.835 11.5587C12.8406 10.3754 13.8307 9.39429 15.0067 9.39993C16.1901 9.40556 17.1734 10.3917 17.1672 11.5689C17.1627 12.1417 16.9319 12.6894 16.525 13.0926C16.1181 13.4958 15.5683 13.7217 14.9955 13.7209ZM13.8808 11.5745C13.8847 11.7956 13.9538 12.0106 14.0793 12.1926C14.2049 12.3746 14.3814 12.5154 14.5867 12.5975C14.792 12.6796 15.017 12.6993 15.2334 12.6541C15.4498 12.6089 15.6481 12.5008 15.8034 12.3434C15.9586 12.1859 16.0639 11.9862 16.1062 11.7691C16.1484 11.5521 16.1255 11.3274 16.0406 11.1233C15.9556 10.9191 15.8123 10.7446 15.6286 10.6216C15.4449 10.4986 15.229 10.4325 15.0078 10.4317C14.8587 10.4323 14.7111 10.4624 14.5736 10.5202C14.4361 10.578 14.3114 10.6625 14.2067 10.7687C14.1019 10.8749 14.0192 11.0008 13.9633 11.1391C13.9074 11.2774 13.8793 11.4253 13.8808 11.5745Z" fill="#172F40"/>
<path d="M16.0207 15.8181H13.9893V14.8213H16.023L16.0207 15.8181Z" fill="#172F40"/>
<path d="M16.0223 17.2354V18.2237H13.9801V17.2354H16.0223Z" fill="#172F40"/>
<path d="M11.7659 15.8169H9.74744V14.8257H11.7659V15.8169Z" fill="#172F40"/>
<path d="M18.2322 14.8169H20.2574V15.8154H18.2322V14.8169Z" fill="#172F40"/>
<path d="M9.73755 18.218V17.2324H11.7662V18.218H9.73755Z" fill="#172F40"/>
<path d="M18.23 18.2169V17.2324H20.2586V18.2169H18.23Z" fill="#172F40"/>
<path d="M2.29468 16.851V14.8286H3.30054V16.851H2.29468Z" fill="#172F40"/>
<path d="M4.8479 16.8499V14.8213H5.84305V16.8499H4.8479Z" fill="#172F40"/>
<path d="M3.29533 20.9204H2.3075V18.8833H3.29533V20.9204Z" fill="#172F40"/>
<path d="M3.30822 22.9717V24.9958H2.30237V22.9717H3.30822Z" fill="#172F40"/>
<path d="M5.84409 25.0032H4.8512V22.9746H5.84409V25.0032Z" fill="#172F40"/>
<path d="M5.85369 18.8892V20.9138H4.8501V18.8892H5.85369Z" fill="#172F40"/>
<path d="M25.1465 16.8602H24.1564V14.8315H25.1465V16.8602Z" fill="#172F40"/>
<path d="M26.6968 16.855V14.8213H27.6925V16.8539L26.6968 16.855Z" fill="#172F40"/>
<path d="M27.693 20.9176H26.6979V18.8833H27.693V20.9176Z" fill="#172F40"/>
<path d="M24.1611 22.9702H25.1557V25.0028H24.1611V22.9702Z" fill="#172F40"/>
<path d="M27.7028 22.9688V25.0008H26.6975V22.9688H27.7028Z" fill="#172F40"/>
<path d="M25.1511 20.9238H24.1571V18.8906H25.1511V20.9238Z" fill="#172F40"/>
</svg>
