<svg width="21" height="20" viewBox="0 0 21 20" fill="none" xmlns="http://www.w3.org/2000/svg">
<path d="M20.0049 11.2885C19.9116 11.5688 19.6992 11.704 19.4297 11.79C18.7491 12.0073 18.0728 12.2387 17.3927 12.4579C17.2765 12.4955 17.2008 12.5487 17.1705 12.6708C17.1534 12.7537 17.1224 12.8331 17.0788 12.9056C16.8835 13.1918 16.9572 13.4457 17.1124 13.7293C17.4142 14.282 17.6818 14.8523 17.962 15.4182C18.1519 15.801 18.1178 16.0075 17.8155 16.3103C17.3273 16.7985 16.839 17.2868 16.3508 17.775C16.0495 18.0758 15.8444 18.1085 15.4582 17.9166C14.8118 17.5958 14.1643 17.278 13.5228 16.9489C13.3919 16.8815 13.285 16.8708 13.1615 16.9465C13.1018 16.9857 13.0357 17.0141 12.9662 17.0304C12.641 17.0934 12.5004 17.298 12.413 17.612C12.2367 18.2433 12.0131 18.8614 11.808 19.4849C11.683 19.8662 11.5019 19.9995 11.1064 20C10.3838 20 9.66131 20 8.93902 20C8.55183 20 8.36531 19.8648 8.24569 19.4991C8.01084 18.7833 7.77501 18.0675 7.54651 17.3507C7.5094 17.2345 7.45569 17.1589 7.33412 17.1281C7.25111 17.1111 7.17156 17.0802 7.09877 17.0368C6.82047 16.8527 6.5739 16.9079 6.29315 17.0622C5.73507 17.3688 5.15697 17.6373 4.58425 17.9205C4.20048 18.111 3.99834 18.0768 3.69221 17.7741C3.20883 17.291 2.72562 16.8078 2.24257 16.3244C1.92374 16.0051 1.89346 15.8122 2.09609 15.4006C2.41443 14.7605 2.73083 14.1185 3.05454 13.4823C3.12143 13.3514 3.13217 13.244 3.05454 13.121C3.01752 13.0672 2.99116 13.0069 2.97691 12.9432C2.91978 12.5829 2.6776 12.4521 2.35194 12.3573C1.7338 12.1816 1.12739 11.9667 0.51609 11.7646C0.134761 11.6396 0.00292959 11.4585 0.000976562 11.0625C0.000976562 10.916 0.000976562 10.7642 0.000976562 10.6011H4.7859C5.01929 12.2475 5.81124 13.5609 7.22719 14.4681C8.16317 15.0686 9.19975 15.3191 10.3115 15.2634C12.5375 15.1516 14.8904 13.4461 15.2693 10.5869H20.0054L20.0049 11.2885Z" fill="#062037"/>
<path d="M20.0045 9.4132H15.2851C15.0819 7.91425 14.3901 6.69702 13.1748 5.73906C13.4145 5.575 13.6328 5.41486 13.8632 5.2757C13.9057 5.24983 14.0097 5.29182 14.0669 5.32844C14.6585 5.70514 15.3526 5.88856 16.0531 5.85331C16.6549 5.83684 17.24 5.65196 17.742 5.31965C17.8665 5.23664 17.9504 5.25568 18.0681 5.33332C19.1608 6.05057 19.7917 7.05638 19.9723 8.34782C19.9802 8.37841 19.991 8.40817 20.0045 8.43668V9.4132Z" fill="#062037"/>
<path d="M10.2768 0C10.6088 0.123041 10.9672 0.202138 11.2684 0.377911C11.6798 0.622354 12.0041 0.989695 12.1957 1.42819C12.3872 1.86668 12.4364 2.35422 12.3362 2.82213C12.1307 3.763 11.327 4.51443 10.3783 4.65261C9.11228 4.83619 7.94388 4.03056 7.70512 2.80992C7.46099 1.55461 8.23293 0.361311 9.48628 0.0590802L9.73041 0H10.2768Z" fill="#062037"/>
<path d="M4.42138 0C4.83054 0.0878863 5.22017 0.216788 5.56049 0.475076C5.97057 0.786256 6.26704 1.22355 6.40431 1.71969C6.54158 2.21583 6.51203 2.74333 6.32021 3.22104C5.93595 4.17558 4.9238 4.79127 3.92385 4.67799C2.83601 4.55495 1.99718 3.75812 1.83606 2.69518C1.74195 2.0871 1.89179 1.46645 2.25298 0.968293C2.61417 0.47013 3.15747 0.134762 3.76468 0.0351561C3.80207 0.0260303 3.83878 0.0142815 3.87453 0H4.42138Z" fill="#062037"/>
<path d="M16.1753 0C16.5844 0.0878863 16.9741 0.216788 17.3144 0.475076C17.7245 0.786256 18.0209 1.22355 18.1582 1.71969C18.2955 2.21583 18.2659 2.74333 18.0741 3.22104C17.6899 4.17558 16.6777 4.79127 15.6777 4.67799C14.5899 4.55495 13.7511 3.75812 13.59 2.69518C13.4959 2.0871 13.6457 1.46645 14.0069 0.968293C14.3681 0.47013 14.9114 0.134762 15.5186 0.0351561C15.556 0.0260303 15.5927 0.0142815 15.6284 0H16.1753Z" fill="#062037"/>
<path d="M14.0968 9.40711H5.96875C6.1289 7.811 7.57121 6.00592 9.75567 5.87018C11.8801 5.73884 13.753 7.26415 14.0968 9.40711Z" fill="#062037"/>
<path d="M6.86411 5.74757C5.66641 6.69332 4.97064 7.90665 4.76802 9.40511H0.0206911C-0.0667069 8.41004 0.118341 7.48674 0.660307 6.64694C0.986975 6.14374 1.41217 5.7119 1.91024 5.37747C2.08504 5.25785 2.2032 5.25541 2.38825 5.36477C3.42433 5.97851 4.50094 6.01172 5.60001 5.53957C5.66779 5.51653 5.73117 5.4822 5.7875 5.43801C6.04432 5.19779 6.27917 5.26664 6.51403 5.47219C6.61998 5.56545 6.7357 5.64748 6.86411 5.74757Z" fill="#062037"/>
<path d="M12.9171 10.5928H14.0577C13.9347 12.0932 12.4987 13.993 10.1824 14.0926C7.83878 14.1937 6.18651 12.3744 5.9834 10.5977H7.13568C7.31341 11.3637 7.71818 11.9804 8.37 12.4247C8.88869 12.7824 9.51125 12.9582 10.1404 12.9247C10.7947 12.8934 11.4206 12.6484 11.9222 12.2272C12.4238 11.8059 12.7733 11.2318 12.9171 10.5928Z" fill="#062037"/>
<path d="M11.6707 10.5996C11.432 11.2793 10.743 11.7538 10.0107 11.7568C9.65184 11.7567 9.30187 11.6454 9.00895 11.4381C8.71602 11.2309 8.49454 10.9379 8.375 10.5996H11.6707Z" fill="#062037"/>
</svg>
