<svg width="19" height="19" viewBox="0 0 19 19" fill="none" xmlns="http://www.w3.org/2000/svg">
<path d="M8.12744 8.62931e-08C7.85834 -0.000140689 7.61934 0.171972 7.53418 0.427246L6.89941 2.33154C6.64313 2.42178 6.39245 2.52523 6.14746 2.64282L4.35181 1.74561C4.11117 1.62535 3.82058 1.67255 3.63037 1.86279L1.86279 3.63037C1.67255 3.82058 1.62535 4.11117 1.74561 4.35181L2.6416 6.1438C2.52374 6.39001 2.41944 6.64182 2.3291 6.89941L0.427246 7.53418C0.171972 7.61934 -0.00014042 7.85833 8.62931e-08 8.12744V10.6274C-0.000140689 10.8965 0.171972 11.1355 0.427246 11.2207L2.33521 11.8567C2.42513 12.1114 2.52839 12.3602 2.64526 12.6038L1.74561 14.4031C1.62535 14.6437 1.67255 14.9343 1.86279 15.1245L3.63037 16.8933C3.82058 17.0835 4.11117 17.1307 4.35181 17.0105L6.14746 16.1121C6.39219 16.229 6.64223 16.3322 6.89819 16.4221L7.53418 18.3289C7.61934 18.5841 7.85834 18.7562 8.12744 18.7561H10.6274C10.8965 18.7562 11.1355 18.5841 11.2207 18.3289L11.8567 16.4185C12.1107 16.3289 12.3596 16.2259 12.6025 16.1096L14.4031 17.0105C14.6437 17.1307 14.9343 17.0835 15.1245 16.8933L16.8921 15.1245C17.0823 14.9343 17.1295 14.6437 17.0093 14.4031L16.1121 12.6086C16.2297 12.3633 16.3331 12.1121 16.4233 11.8555L18.3276 11.2207C18.5829 11.1355 18.755 10.8965 18.7549 10.6274V8.12744C18.755 7.85833 18.5829 7.61934 18.3276 7.53418L16.4221 6.89941C16.3319 6.64354 16.2282 6.39326 16.1108 6.14868L17.0093 4.35181C17.1295 4.11117 17.0823 3.82058 16.8921 3.63037L15.1245 1.86279C14.9343 1.67255 14.6437 1.62535 14.4031 1.74561L12.6123 2.64038C12.3653 2.52227 12.1127 2.41833 11.8542 2.32788L11.2207 0.427246C11.1355 0.171972 10.8965 -0.000140689 10.6274 8.62931e-08H8.12744ZM9.375 4.99878C11.7838 4.99878 13.7537 6.96858 13.7537 9.37744C13.7537 11.7863 11.7838 13.7512 9.375 13.7512C6.96616 13.7512 5.00122 11.7863 5.00122 9.37744C5.00122 6.96858 6.96616 4.99878 9.375 4.99878Z" fill="#062037"/>
</svg>
