<svg width="20" height="20" viewBox="0 0 20 20" fill="none" xmlns="http://www.w3.org/2000/svg">
<path d="M12.8506 20.0005H11.835C11.7926 19.9862 11.749 19.9755 11.7048 19.9687C11.0891 19.9161 10.4824 19.7868 9.89869 19.5838C6.33435 18.3772 4.14491 14.6264 4.8558 10.9386C5.83751 5.84885 11.4486 3.16674 15.9832 5.66397C18.4486 7.02169 19.7923 9.16893 19.9829 11.9838C20.0969 13.6619 19.5892 15.1935 18.6648 16.5882C18.5825 16.7127 18.5731 16.8049 18.6335 16.9392C19.0866 17.9459 19.5314 18.9568 19.9792 19.9666C19.9121 19.9442 19.8428 19.9271 19.7782 19.8989C18.8298 19.4776 17.881 19.0578 16.9352 18.6303C16.8835 18.6006 16.8241 18.5872 16.7648 18.5919C16.7054 18.5965 16.6488 18.619 16.6024 18.6563C15.836 19.1838 14.9785 19.5649 14.0734 19.7802C13.6708 19.8765 13.2584 19.9286 12.8506 20.0005ZM13.8094 14.8857L13.6182 14.9805C11.6944 15.918 9.42736 14.5118 9.41382 12.3739C9.40965 11.9515 9.49697 11.5331 9.66978 11.1476C9.8426 10.762 10.0968 10.4185 10.415 10.1405C10.7331 9.86251 11.1077 9.65669 11.5129 9.53716C11.9182 9.41764 12.3445 9.38726 12.7626 9.44808C14.1796 9.64078 15.291 10.9126 15.2718 12.3203C15.2671 12.6645 15.0176 12.9265 14.6911 12.9296C14.3645 12.9327 14.1213 12.6854 14.1 12.35C14.095 12.2453 14.0844 12.141 14.0682 12.0375C14.0025 11.6595 13.8149 11.3135 13.534 11.0522C13.253 10.7909 12.8943 10.6288 12.5126 10.5907C11.7585 10.5116 11.0101 10.9631 10.7174 11.6735C10.5729 12.0258 10.5466 12.4156 10.6425 12.7842C10.7384 13.1527 10.9512 13.4803 11.2491 13.7176C11.5471 13.9598 11.9175 14.0952 12.3014 14.1023C12.6853 14.1093 13.0605 13.9877 13.3672 13.7566C13.4839 13.6702 13.55 13.6759 13.6635 13.7566C13.8698 13.9089 14.107 14.0137 14.3585 14.0637C14.6099 14.1136 14.8692 14.1074 15.118 14.0455C15.3667 13.9836 15.5988 13.8676 15.7975 13.7056C15.9962 13.5437 16.1567 13.3399 16.2675 13.1088C16.493 12.652 16.4758 12.1713 16.3941 11.6948C15.9998 9.37257 13.8422 7.87944 11.5288 8.3216C9.37633 8.73303 7.89882 10.9063 8.30921 13.0572C8.72898 15.2607 10.6908 16.6856 12.9219 16.4002C13.4422 16.334 13.9429 16.16 14.3921 15.8893L13.8094 14.8857Z" fill="#062037"/>
<path d="M0 7.14933C0.0624957 6.7655 0.10416 6.3775 0.190612 5.9994C0.89473 2.93815 3.29821 0.660707 6.39175 0.110745C9.39831 -0.423594 12.5439 1.01225 14.0996 3.62821C14.1193 3.66102 14.1355 3.6954 14.1647 3.7506C11.0675 3.17304 8.3588 3.93132 6.14437 6.14106C3.92994 8.35081 3.17218 11.0636 3.7487 14.1613C3.68363 14.1356 3.62176 14.1024 3.56434 14.0624C3.33675 13.8541 3.11906 13.9108 2.86282 14.0296C1.92539 14.4624 0.975975 14.8728 0.0312479 15.2915C0.0536422 15.2243 0.0708285 15.155 0.0994723 15.0904C0.520798 14.1442 0.937436 13.1953 1.36657 12.2495C1.42334 12.124 1.42282 12.0354 1.3421 11.9162C0.821395 11.161 0.444129 10.3164 0.229151 9.42469C0.131762 9.00805 0.0729117 8.58464 0 8.16488V7.14933Z" fill="#062037"/>
<path d="M12.9276 12.349C12.9266 12.4651 12.8912 12.5783 12.8257 12.6742C12.7602 12.7701 12.6678 12.8443 12.56 12.8875C12.4522 12.9307 12.334 12.9409 12.2205 12.9167C12.1069 12.8926 12.0031 12.8352 11.9222 12.7519C11.8413 12.6686 11.7871 12.5632 11.7663 12.4489C11.7455 12.3347 11.7592 12.2169 11.8055 12.1104C11.8519 12.004 11.9289 11.9137 12.0266 11.8511C12.1244 11.7885 12.2386 11.7564 12.3547 11.7589C12.5081 11.7638 12.6535 11.828 12.7604 11.9381C12.8673 12.0482 12.9272 12.1955 12.9276 12.349Z" fill="#062037"/>
</svg>
