<svg width="50" height="49" viewBox="0 0 50 49" fill="none" xmlns="http://www.w3.org/2000/svg">
<path d="M0.0130298 33.865C0.339758 32.8536 0.833107 31.9632 1.86927 31.4295C1.03097 30.2684 0.989304 28.9771 1.01534 27.665C1.03486 26.6731 1.01534 25.6799 1.02185 24.688C1.04268 22.8135 2.2871 21.5873 4.16807 21.5821C5.22636 21.5821 6.28336 21.5743 7.34035 21.5821C9.10546 21.5964 10.359 22.8291 10.3785 24.5838C10.3941 25.9831 10.3785 27.3825 10.3785 28.7818C10.3836 29.6231 10.1556 30.4495 9.71987 31.1691C10.2731 31.82 10.8068 32.4032 11.2897 33.0254C12.236 34.2464 13.1603 35.4843 14.0806 36.7261C14.1536 36.8404 14.2565 36.9326 14.3781 36.9927C14.4996 37.0528 14.6354 37.0786 14.7705 37.0672C15.5815 37.0464 16.3924 37.0672 17.2763 37.0672C17.2763 36.432 17.344 35.828 17.2646 35.2448C16.9548 32.9356 18.2356 31.669 20.1127 30.7669L20.485 30.5847C19.9643 28.4564 20.209 26.3216 20.2338 24.2063C20.2494 22.7744 21.5771 21.6224 23.0871 21.6029C24.9577 21.573 26.8295 21.5899 28.7 21.6029C29.2702 21.6029 29.554 21.8737 29.5566 22.4412C29.5657 24.589 29.5722 26.7368 29.5436 28.8834C29.5358 29.404 29.3939 29.9364 29.3106 30.4753C29.8013 30.7435 30.3246 30.996 30.8179 31.3045C32.0936 32.096 32.8733 33.1595 32.7379 34.7606C32.6755 35.5012 32.7276 36.2536 32.7276 37.0724C33.6934 37.0724 34.6294 37.0841 35.5653 37.0581C35.6837 37.0581 35.8165 36.8706 35.9102 36.747C36.8748 35.4778 37.8211 34.1956 38.7974 32.9356C39.2504 32.3524 39.7607 31.8135 40.2905 31.1991C39.6396 30.2423 39.5941 29.05 39.6201 27.8355C39.6435 26.7629 39.6201 25.689 39.6279 24.6151C39.6487 22.8591 40.8958 21.6211 42.6557 21.6016C43.7621 21.5912 44.8681 21.5912 45.9737 21.6016C47.6074 21.6198 48.8739 22.7237 48.9572 24.3521C49.0416 25.9445 49.0356 27.5403 48.939 29.132C48.8896 29.913 48.5394 30.6771 48.3064 31.518C48.3259 31.5336 48.4561 31.6247 48.5836 31.7211C49.4805 32.4032 49.9712 33.3092 49.9869 34.4364C50.0103 36.0467 49.9973 37.6569 49.9869 39.2671C49.9869 39.8372 49.7057 40.1561 49.2397 40.1457C48.7737 40.1353 48.5277 39.8268 48.5251 39.2814C48.5251 37.7037 48.5251 36.1261 48.5251 34.5471C48.5251 33.7049 48.1423 33.0762 47.3822 32.7169C47.2906 32.6808 47.1925 32.6641 47.0941 32.6679C46.9958 32.6717 46.8992 32.696 46.8107 32.739C45.0847 33.7374 43.3885 33.714 41.6885 32.6765C41.6031 32.6278 41.5082 32.5981 41.4103 32.5893C41.3123 32.5805 41.2137 32.593 41.121 32.6258C40.851 32.7682 40.6141 32.966 40.4258 33.2063C39.2165 34.7788 38.0138 36.3578 36.8396 37.9563C36.7063 38.158 36.5215 38.3204 36.3043 38.4266C36.0871 38.5328 35.8454 38.5789 35.6043 38.5602C34.0592 38.5355 32.5128 38.5459 30.9676 38.5602C30.6884 38.5554 30.4151 38.6405 30.188 38.803C29.9609 38.9654 29.792 39.1966 29.7063 39.4623C29.5319 40.0038 29.6972 40.6339 30.1697 40.9411C30.4258 41.108 30.7221 41.2033 31.0275 41.217C33.0282 41.2405 35.029 41.217 37.0297 41.2327C37.622 41.2327 37.9916 40.9059 38.3158 40.4751C39.2704 39.2011 40.2293 37.928 41.1926 36.6558L41.2798 36.5387C41.6273 36.0948 42.0517 35.9959 42.407 36.2783C42.7624 36.5608 42.7754 36.9748 42.4552 37.403C41.7653 38.3285 41.0481 39.2345 40.3816 40.177C40.1932 40.4491 40.0862 40.7692 40.0731 41.0999C40.0444 42.8559 40.0587 44.6145 40.0587 46.3705V46.9289H48.5264V43.9324C48.5264 43.525 48.5133 43.1175 48.5342 42.7114C48.5369 42.5219 48.6132 42.3409 48.7471 42.2067C48.881 42.0726 49.0619 41.9959 49.2514 41.9928C49.3457 41.9906 49.4395 42.0071 49.5273 42.0414C49.6151 42.0757 49.6953 42.1271 49.7631 42.1926C49.8309 42.2581 49.8851 42.3364 49.9224 42.423C49.9597 42.5096 49.9794 42.6028 49.9804 42.6971C49.996 44.3572 49.996 46.0164 49.9804 47.6748C49.9804 48.09 49.7122 48.3257 49.3087 48.3855C49.1954 48.3977 49.0814 48.4007 48.9677 48.3947C32.9914 48.3947 17.0159 48.3972 1.04137 48.4025C0.596182 48.4025 0.248626 48.297 0 47.9195V42.4524C0.260341 42.1491 0.533713 41.8705 0.98931 42.0501C1.44491 42.2298 1.47223 42.6086 1.46703 43.0186C1.45791 43.7176 1.46703 44.4166 1.46703 45.1156V46.9003H9.93725V46.3874C9.93725 44.5989 9.95025 42.809 9.92552 41.0205C9.91285 40.7217 9.81533 40.4327 9.64436 40.1874C8.94404 39.2085 8.20339 38.2596 7.48094 37.2976C7.26225 37.0073 7.20496 36.6545 7.4653 36.4085C7.68032 36.2316 7.9524 36.139 8.23069 36.1482C8.40773 36.156 8.60821 36.3825 8.73968 36.5556C9.75762 37.8851 10.7673 39.2206 11.7688 40.5623C11.9108 40.7708 12.1034 40.9398 12.3285 41.0537C12.5537 41.1675 12.804 41.2224 13.0561 41.2131C14.9905 41.2014 16.9261 41.2131 18.8618 41.204C19.0722 41.21 19.2821 41.1805 19.4827 41.1168C20.0984 40.902 20.4277 40.3045 20.3262 39.6407C20.283 39.331 20.1279 39.0479 19.8902 38.8448C19.6526 38.6417 19.3488 38.5326 19.0362 38.5381C17.4598 38.5225 15.8822 38.5186 14.3045 38.5381C14.087 38.5515 13.8697 38.5073 13.6746 38.4102C13.4795 38.3131 13.3134 38.1665 13.1928 37.9849C12.0122 36.3916 10.8094 34.8139 9.61182 33.2337C9.48908 33.0623 9.34616 32.9062 9.18616 32.769C8.87375 32.5203 8.58217 32.4565 8.17994 32.7052C6.57363 33.6997 4.91916 33.7049 3.29072 32.7598C2.96139 32.5685 2.72969 32.5893 2.44722 32.7676C2.14213 32.943 1.89011 33.1976 1.7178 33.5044C1.54549 33.8112 1.45929 34.1589 1.46833 34.5106C1.46833 36.0558 1.46182 37.6009 1.46833 39.146C1.46833 39.5678 1.40846 39.9466 0.958071 40.0924C0.50768 40.2381 0.21348 39.9947 0 39.6224L0.0130298 33.865ZM38.5813 42.7101H11.4524V46.9068H38.5813V42.7101ZM31.267 37.0333C31.267 36.0935 31.3113 35.1823 31.2462 34.2789C31.2176 33.8884 31.06 33.4042 30.7841 33.1673C30.2152 32.6778 29.528 32.3251 28.8888 31.9189C28.6089 31.7406 28.4176 31.8265 28.182 32.0634C27.3824 32.8781 26.3106 33.3694 25.1716 33.4434C24.0325 33.5173 22.9062 33.1688 22.008 32.4644C21.1593 31.8044 21.1501 31.7901 20.2116 32.3771C19.8306 32.6231 19.4749 32.9061 19.1494 33.2219C18.9815 33.3821 18.798 33.6268 18.7902 33.839C18.7537 34.9024 18.7733 35.9672 18.7733 37.032C20.9445 37.0112 22.4428 38.9208 21.5706 41.1897H28.4384C27.5624 38.8414 29.1361 36.9982 31.267 37.0333ZM28.1429 26.5858H21.6708C21.6708 27.3669 21.6526 28.1219 21.6708 28.869C21.719 30.517 22.9296 31.7901 24.6036 31.9801C26.1018 32.1506 27.673 31.0845 27.9685 29.5407C28.152 28.5722 28.0909 27.5712 28.1403 26.5793L28.1429 26.5858ZM41.1092 25.5067C41.8395 25.5848 42.3992 25.3453 42.9316 24.9639C43.4979 24.5591 44.0745 24.8416 44.1474 25.5367C44.1787 25.8283 44.2034 26.1198 44.2581 26.4075C44.5731 28.0594 45.578 28.7506 47.2051 28.3965C47.2832 28.3676 47.3528 28.3198 47.4078 28.2573C47.4628 28.1948 47.5014 28.1196 47.5201 28.0386C47.5436 26.867 47.5553 25.6955 47.5201 24.5239C47.5215 24.3311 47.4846 24.1399 47.4115 23.9615C47.3385 23.7831 47.2307 23.6209 47.0945 23.4844C46.9583 23.348 46.7963 23.2399 46.618 23.1665C46.4397 23.0931 46.2485 23.0559 46.0557 23.0569C44.8842 23.0326 43.7126 23.0326 42.5411 23.0569C42.1867 23.0593 41.8455 23.1913 41.5817 23.428C41.318 23.6647 41.1499 23.9897 41.1092 24.3417C41.0819 24.7062 41.1066 25.0798 41.1066 25.5002L41.1092 25.5067ZM8.9206 25.495C8.9206 25.1683 8.92711 24.8637 8.9206 24.5604C8.89457 23.6791 8.28928 23.0686 7.39892 23.0556C6.27815 23.04 5.15476 23.0426 4.03399 23.0556C3.16575 23.066 2.52794 23.6453 2.50191 24.5044C2.46416 25.6903 2.48499 26.8774 2.50191 28.0646C2.50727 28.1296 2.5283 28.1923 2.56321 28.2474C2.59813 28.3025 2.64586 28.3483 2.70235 28.3809C3.87388 28.6412 5.08969 28.5111 5.58174 27.0336C5.72082 26.6011 5.81418 26.1552 5.86029 25.7033C5.96443 24.7739 6.46689 24.5318 7.2349 25.0628C7.71738 25.4221 8.32273 25.5752 8.918 25.4885L8.9206 25.495ZM7.21408 26.7733C6.24301 29.4275 5.76789 29.7672 2.7245 29.9456C2.8 30.1031 2.85465 30.2502 2.93796 30.3855C3.56018 31.4633 4.84108 32.1233 6.01391 31.9749C7.3742 31.8031 8.50668 30.9335 8.77874 29.6475C8.95707 28.804 8.90891 27.9149 8.97009 27.0688L7.21408 26.7733ZM41.1027 27.0571C41.1027 27.6624 41.0845 28.2937 41.1027 28.9237C41.1334 29.6321 41.3982 30.3103 41.8556 30.8521C42.3131 31.3938 42.9374 31.7685 43.6307 31.9174C44.324 32.0662 45.047 31.9809 45.6866 31.6747C46.3261 31.3685 46.846 30.8588 47.1648 30.2254C47.205 30.1204 47.2372 30.0125 47.2611 29.9026C44.7879 30.1877 43.356 29.0669 42.8197 26.7785L41.1027 27.0571ZM28.0779 23.0595C26.3531 23.0595 24.6804 23.0179 23.0103 23.0764C22.0275 23.1103 21.473 24.0592 21.7437 25.0472H28.0779V23.0595Z" fill="#172F40"/>
<path d="M4.11337 17.0368C1.7026 16.4302 0.408711 14.777 0.40741 12.3662C0.40741 9.81227 0.40741 7.25832 0.40741 4.70437C0.40741 1.89138 2.31051 0.00130171 5.13392 0H20.6542C23.4685 0 25.3624 1.89659 25.3716 4.71608C25.3716 5.05583 25.3716 5.39558 25.3716 5.80301H25.9821C29.8533 5.80301 33.725 5.80301 37.5972 5.80301C39.5003 5.80301 40.9061 6.90816 41.2576 8.66677C41.3039 8.93931 41.3235 9.21571 41.3162 9.49205C41.3214 11.7206 41.3214 13.9491 41.3162 16.1776C41.3162 17.9506 40.4987 19.1013 38.8351 19.7521C38.7598 19.7921 38.6948 19.849 38.6451 19.9184C38.5954 19.9877 38.5624 20.0676 38.5487 20.1517C38.5214 20.9328 38.5331 21.7138 38.5357 22.4948C38.5357 22.8749 38.4628 23.2199 38.0658 23.3761C37.6688 23.5323 37.385 23.3344 37.1169 23.0624C36.1783 22.1147 35.2242 21.1814 34.2948 20.2246C34.193 20.1125 34.0672 20.0249 33.9267 19.9683C33.7863 19.9117 33.6348 19.8877 33.4838 19.8979C32.3773 19.9174 31.2709 19.9083 30.1644 19.9044C29.5669 19.9044 29.2168 19.6128 29.2324 19.1481C29.248 18.7029 29.5839 18.4426 30.1618 18.4413C31.4636 18.4413 32.7653 18.4192 34.067 18.4569C34.3823 18.4772 34.6821 18.6012 34.9196 18.8097C35.6238 19.4605 36.2799 20.1543 37.0726 20.8013C37.0726 20.3431 37.0726 19.8901 37.0726 19.4254C37.0726 18.6886 37.2405 18.5142 37.9656 18.4335C39.0382 18.3202 39.8374 17.491 39.8452 16.4184C39.8609 14.0433 39.8609 11.6681 39.8452 9.29289C39.8387 8.19035 39.0226 7.35725 37.9226 7.28045C37.5998 7.25832 37.2718 7.26874 36.9476 7.26874H25.3703V7.82847C25.3703 9.29289 25.3312 10.7586 25.3781 12.2217C25.4822 15.4435 22.9374 17.2567 20.6568 17.0836C20.6082 17.0841 20.5597 17.0898 20.5123 17.1005C20.619 17.8334 21.4144 18.4257 22.3464 18.4361C23.6312 18.4504 24.9172 18.4361 26.202 18.4361C26.3322 18.4361 26.4624 18.4361 26.5925 18.4361C27.0612 18.4582 27.3528 18.7264 27.3632 19.1416C27.3749 19.579 27.0781 19.8862 26.5886 19.894C25.71 19.907 24.8313 19.894 23.9527 19.894C23.432 19.894 22.9113 19.894 22.3906 19.894C20.7856 19.8719 19.5113 18.9607 19.0062 17.4364C18.9099 17.1487 18.7888 17.0654 18.4985 17.0667C15.3432 17.0758 12.1866 17.0667 9.03122 17.0836C8.81274 17.0969 8.60567 17.1857 8.44545 17.3348C7.46657 18.2877 6.5033 19.2575 5.54264 20.2298C5.25887 20.5175 4.95168 20.7115 4.54815 20.5305C4.16545 20.3574 4.10816 20.0099 4.11337 19.6272C4.12638 18.7758 4.11337 17.9167 4.11337 17.0368ZM5.57779 17.9779L5.69232 18.0287C6.33146 17.3778 6.98625 16.7478 7.60586 16.0761C7.75277 15.9138 7.93443 15.7868 8.13728 15.7045C8.34014 15.6223 8.55895 15.5869 8.7774 15.601C12.7971 15.6157 16.8163 15.6157 20.8351 15.601C22.608 15.601 23.8941 14.3396 23.9084 12.5667C23.9275 9.88083 23.9275 7.19584 23.9084 4.51171C23.8967 2.74139 22.6158 1.45791 20.8494 1.4527C15.5454 1.44142 10.2409 1.44142 4.93606 1.4527C3.16964 1.4527 1.88746 2.75441 1.87965 4.51302C1.86923 7.18152 1.86923 9.85002 1.87965 12.5185C1.87965 14.2433 3.03945 15.4669 4.75901 15.5997C5.33567 15.6439 5.57389 15.8886 5.5817 16.4666C5.58821 16.9795 5.583 17.478 5.583 17.9779H5.57779Z" fill="#172F40"/>
<path d="M12.8778 9.26957C10.6974 9.26957 8.51706 9.26956 6.338 9.26305C6.09857 9.27095 5.86202 9.20899 5.65721 9.08472C5.55902 9.01116 5.48228 8.91267 5.43501 8.79945C5.38774 8.68623 5.37165 8.56243 5.38839 8.44088C5.40512 8.31934 5.45408 8.20449 5.53019 8.10827C5.6063 8.01204 5.70681 7.93794 5.82123 7.89366C6.00459 7.82936 6.19853 7.80063 6.39266 7.80905C10.7195 7.80905 15.0468 7.80905 19.3746 7.80905C19.4397 7.80905 19.5048 7.80905 19.5698 7.80905C20.0827 7.83508 20.4186 8.14489 20.4004 8.57445C20.3821 9.00402 20.0632 9.26826 19.5633 9.27086C18.1158 9.27086 16.6684 9.27086 15.2196 9.27086L12.8778 9.26957Z" fill="#172F40"/>
<path d="M12.87 5.43064C10.7239 5.43064 8.57697 5.43064 6.42915 5.43064C6.2378 5.43064 5.98005 5.45798 5.86681 5.35254C5.66244 5.16249 5.44245 4.89173 5.41381 4.6353C5.37476 4.28904 5.63772 4.04042 6.01131 3.98444C6.15704 3.96966 6.30362 3.96532 6.44997 3.97143H19.3369C19.4832 3.96619 19.6297 3.9701 19.7756 3.98314C19.9373 4.0035 20.0871 4.07875 20.2001 4.1963C20.313 4.31386 20.3822 4.46661 20.3961 4.62904C20.4099 4.79146 20.3676 4.95373 20.2763 5.08873C20.1849 5.22372 20.05 5.32328 19.894 5.37076C19.7049 5.41632 19.5104 5.43516 19.3161 5.42674C17.1648 5.43194 15.0161 5.43324 12.87 5.43064Z" fill="#172F40"/>
<path d="M9.48819 11.6712C10.5595 11.6712 11.6308 11.6712 12.7021 11.6712C13.2957 11.6712 13.6029 11.9211 13.6133 12.3806C13.6237 12.8401 13.297 13.1304 12.6852 13.1317C10.5599 13.1369 8.43382 13.1369 6.30683 13.1317C5.73147 13.1317 5.39563 12.8583 5.39563 12.4105C5.39563 11.9628 5.72626 11.6738 6.33155 11.6712C7.37812 11.6673 8.43381 11.6712 9.48819 11.6712Z" fill="#172F40"/>
</svg>
