<svg width="35" height="30" viewBox="0 0 35 30" fill="none" xmlns="http://www.w3.org/2000/svg">
<path d="M34.866 9.84331C34.7977 10.6166 34.7482 11.3925 34.6578 12.1641C34.1781 16.2527 33.1026 20.1475 30.8389 23.6428C29.7274 25.3781 28.2941 26.8846 26.6164 28.0813C25.7987 28.6626 24.9673 29.2259 24.1359 29.7884C23.9865 29.8721 23.8296 29.9418 23.6673 29.9967L23.582 29.9173C23.6449 29.7108 23.7219 29.5089 23.8124 29.313C24.6011 27.8559 25.4342 26.4194 26.1888 24.947C27.5818 22.2378 28.6359 19.4032 29.2112 16.4029C29.2283 16.3176 29.236 16.2271 29.2496 16.1246C28.7196 16.233 28.2125 16.3585 27.6978 16.4379C24.0164 17.0012 20.207 14.753 18.9156 11.2653C17.5542 7.58651 18.7176 3.77537 21.903 1.48527C25.3856 -1.02163 30.5436 -0.221843 33.1239 3.20434C34.0833 4.48468 34.6603 5.89561 34.8182 7.48493C34.8313 7.57117 34.849 7.65665 34.8711 7.741L34.866 9.84331Z" fill="white"/>
<path d="M5.24676 29.9053C5.31412 29.6979 5.39422 29.495 5.48661 29.2975C6.28042 27.8294 7.1152 26.3826 7.87657 24.8983C9.2619 22.1976 10.3143 19.3732 10.8802 16.3806C10.8965 16.2953 10.9041 16.2099 10.9101 16.163C10.1709 16.2756 9.44456 16.4455 8.71135 16.4882C6.29408 16.6299 4.17981 15.8454 2.48038 14.1341C0.316609 11.9515 -0.473785 9.29354 0.276492 6.30096C1.08054 3.08988 3.18286 1.06609 6.38029 0.240698C10.2956 -0.773329 14.5642 1.51165 15.9777 5.30742C16.4437 6.55874 16.5641 7.85017 16.5317 9.16721C16.4634 11.9319 16.0921 14.6539 15.3256 17.3136C14.4379 20.3923 13.1123 23.2475 10.963 25.6708C10.1643 26.5769 9.26382 27.388 8.27945 28.088C7.46943 28.6608 6.64916 29.2198 5.82718 29.7764C5.67319 29.8636 5.5125 29.9383 5.34663 30L5.24676 29.9053Z" fill="white"/>
</svg>
