<svg width="20" height="20" viewBox="0 0 20 20" fill="none" xmlns="http://www.w3.org/2000/svg">
<path d="M9.37641 0H10.6263C10.9669 0.044138 11.3095 0.0781189 11.6474 0.135147C13.5254 0.456222 15.1874 1.24055 16.6104 2.50727C18.3501 4.05562 19.4383 5.97856 19.8473 8.27647C19.9121 8.64012 19.9504 9.00807 20.0008 9.37445V10.6244C19.9866 10.6737 19.9757 10.724 19.9684 10.7748C19.8512 12.3176 19.4082 13.7617 18.6013 15.0815C17.0139 17.6818 14.7218 19.2805 11.7216 19.8469C11.3591 19.9149 10.9904 19.9496 10.6248 20H9.37484C9.13072 19.9695 8.8862 19.9434 8.64325 19.9086C6.65118 19.6235 4.89347 18.8266 3.3916 17.4916C1.65538 15.9491 0.57106 14.0312 0.156241 11.7423C0.0890573 11.3728 0.0515595 10.9978 0 10.6255V9.37562C0.0437474 9.04127 0.0781214 8.70535 0.132806 8.37334C0.486691 6.29299 1.39914 4.49349 2.88069 2.99162C4.37631 1.47569 6.1762 0.523796 8.27725 0.154677C8.64286 0.0894464 9.01041 0.0503877 9.37641 0ZM9.17251 7.69799C9.17251 8.56395 9.17915 9.42953 9.16899 10.2955C9.16361 10.4445 9.19034 10.593 9.24735 10.7308C9.30436 10.8686 9.39034 10.9926 9.49945 11.0943C10.8298 12.4153 12.1563 13.7401 13.4789 15.0686C13.5371 15.13 13.5991 15.1877 13.6644 15.2413C13.7705 15.323 13.8947 15.3778 14.0265 15.401C14.1583 15.4242 14.2938 15.4152 14.4213 15.3746C14.5489 15.3341 14.6647 15.2633 14.759 15.1682C14.8532 15.0732 14.923 14.9567 14.9624 14.8288C15.0679 14.4812 14.9597 14.1925 14.7089 13.9422C13.459 12.6961 12.2107 11.4496 10.9642 10.2025C10.9195 10.1618 10.8842 10.1118 10.8609 10.056C10.8376 10.0002 10.8269 9.93993 10.8294 9.8795C10.8353 8.96822 10.8326 8.05656 10.8326 7.14528C10.8326 6.4422 10.8326 5.73912 10.8326 5.03603C10.8326 4.77355 10.7513 4.54817 10.5517 4.3763C10.2912 4.1521 9.99004 4.10288 9.67678 4.23608C9.35492 4.3724 9.17681 4.62942 9.17446 4.9833C9.169 5.88833 9.17251 6.79335 9.17251 7.69799Z" fill="#062037"/>
</svg>
