<svg width="50" height="50" viewBox="0 0 50 50" fill="none" xmlns="http://www.w3.org/2000/svg">
<path d="M0 10.034C0.418501 8.75862 1.22516 7.99172 2.62818 7.98649C3.32708 7.98649 4.02703 7.98649 4.72697 7.98649H5.22603C5.87262 5.75274 6.50978 3.55457 7.14485 1.3564C7.58114 -0.153345 7.66798 -0.198334 9.18923 0.243184L49.0755 11.798C49.9752 12.0585 50.15 12.3713 49.8905 13.2627C47.8489 20.2998 45.807 27.3373 43.7647 34.375C43.5304 35.1817 43.1987 35.3679 42.391 35.1336C37.3976 33.6863 32.4042 32.2382 27.4108 30.7895C27.2266 30.7362 27.0404 30.6849 26.783 30.618V31.2248C26.783 36.4822 26.7495 41.7396 26.8029 46.997C26.8196 48.6218 25.719 49.8585 23.9592 49.8481C17.0253 49.8069 10.0918 49.8069 3.15864 49.8481C1.60182 49.8575 0.516852 49.3511 0.00418909 47.834L0 10.034ZM25.11 28.9147V10.8469C25.11 9.90531 24.8621 9.65526 23.9309 9.65526H2.88452C1.91779 9.65526 1.66878 9.90322 1.66878 10.8658V46.952C1.66878 47.9209 1.90418 48.1552 2.87929 48.1552H23.9246C24.8757 48.1552 25.109 47.924 25.109 46.9813L25.11 28.9147ZM37.6651 20.2046C37.8586 20.6095 38.0396 20.9558 38.1882 21.3147C38.2855 21.549 38.4152 21.6171 38.6715 21.5804C39.8151 21.4172 40.9628 21.2875 42.1053 21.1211C42.5908 21.05 42.9298 21.2069 43.161 21.6275C43.4435 22.1402 43.7291 22.6507 44.0095 23.1645C44.4521 23.9732 44.2533 24.4419 43.3556 24.6815C41.7538 25.1094 40.1478 25.5185 38.5502 25.9621C38.289 26.0371 38.0485 26.171 37.8471 26.3534C36.5916 27.4918 35.3601 28.6552 34.1141 29.7987C33.548 30.3219 33.0134 30.2329 32.6326 29.5696C32.3417 29.0622 32.0645 28.5464 31.7841 28.0327C31.4618 27.4405 31.4828 27.226 31.9107 26.7123C32.7016 25.7623 33.4947 24.8134 34.3003 23.8477L33.4633 22.5106C31.5591 23.9439 29.7041 25.349 27.8387 26.7385C27.5342 26.9655 27.1806 27.1266 26.7924 27.3505V28.8728L42.3083 33.3717C44.2596 26.6391 46.193 19.9692 48.1338 13.2753L8.74772 1.85023C8.14299 3.93645 7.56545 5.93061 6.96909 7.98544H24.0104C25.7577 7.98544 26.7746 8.99403 26.7757 10.7339C26.7757 13.7953 26.7757 16.8563 26.7757 19.9169V20.4097L26.9326 20.4756C27.9433 19.4398 28.9603 18.4092 29.9531 17.3567C30.0327 17.273 30.0065 16.9979 29.9301 16.8713C29.3599 15.9234 28.7719 14.988 28.1766 14.0537C27.4045 12.8442 27.1879 11.5145 27.3647 10.1219C27.574 8.44789 28.8169 7.73016 30.3675 8.38721C31.6659 8.93753 32.6744 9.83731 33.297 11.1263C33.7866 12.1349 34.2836 13.1414 34.7481 14.1604C34.8904 14.4743 35.0306 14.5433 35.3759 14.4617C37.6211 13.9282 39.8747 13.426 42.1242 12.9101C42.9852 12.7124 43.1704 12.793 43.6088 13.5839C44.0953 14.467 44.5871 15.3469 45.0641 16.2351C45.4021 16.8629 45.2284 17.3222 44.5588 17.5953C44.1518 17.7585 43.7375 17.9091 43.3274 18.0608L37.6651 20.2046ZM43.1987 16.3157C42.9235 15.8156 42.6588 15.3741 42.4328 14.9064C42.3062 14.6469 42.166 14.6166 41.8951 14.6804C39.6017 15.2192 37.3041 15.7392 35.0076 16.2644C34.1789 16.4548 33.9509 16.345 33.5836 15.5833C32.9841 14.3393 32.3804 13.0964 31.7893 11.8492C31.3467 10.916 30.5851 10.3374 29.6843 9.90531C29.317 9.72954 29.0701 9.83312 29.0272 10.2443C28.9226 11.2309 28.9833 12.1956 29.5315 13.0692C30.266 14.2396 30.9983 15.4107 31.7286 16.5825C32.1817 17.3065 32.1471 17.5628 31.556 18.1519C30.064 19.6306 28.5735 21.1089 27.0843 22.5869C26.9713 22.6999 26.7966 22.8318 26.7934 22.9594C26.7694 23.6918 26.6125 24.4587 27.2538 25.0739C27.4233 24.9494 27.5938 24.828 27.7612 24.7024C29.5161 23.3821 31.2707 22.0617 33.0249 20.7413C33.6338 20.2852 34.0848 20.3668 34.4897 21.005C34.9689 21.7604 35.4407 22.52 35.9115 23.2806C36.2683 23.8592 36.2505 24.1176 35.8153 24.6407C35.0975 25.5039 34.383 26.3702 33.6495 27.2197C33.4288 27.475 33.3817 27.6717 33.6851 27.9103C34.4635 27.1862 35.2785 26.5072 36.0005 25.7382C36.8078 24.8624 37.8831 24.2794 39.0576 24.081C40.085 23.8885 41.0863 23.5578 42.1127 23.2785C42.0258 22.9196 41.8689 22.8401 41.5393 22.8903C40.3822 23.0661 39.2187 23.1958 38.0585 23.3528C37.5699 23.4187 37.2445 23.2293 37.0384 22.7909C36.6366 21.9383 36.2202 21.0929 35.8226 20.2381C35.516 19.581 35.6929 19.173 36.3886 18.9062C37.4809 18.4877 38.5753 18.0692 39.6686 17.6591L43.1987 16.3157Z" fill="white"/>
<path d="M13.2853 32.2523C7.4598 32.1037 3.10844 27.5598 3.34594 21.7239C3.56984 16.1285 8.32401 11.9812 13.8315 12.1737C19.2165 12.361 23.5825 17.0189 23.4392 22.5316C23.2948 27.9396 18.6463 32.3904 13.2853 32.2523ZM18.0133 23.0756H14.274V25.5657C15.2219 25.5657 16.1301 25.573 17.0372 25.5563C17.1502 25.5563 17.3333 25.4516 17.3626 25.3606C17.5927 24.6251 17.7894 23.8812 18.0133 23.0756ZM18.0133 21.3483C17.8041 20.5761 17.6199 19.8751 17.4096 19.1825C17.372 19.0591 17.2119 18.8875 17.1052 18.8843C16.1688 18.8613 15.2313 18.8707 14.2667 18.8707V21.3483H18.0133ZM9.18297 23.0662C9.4121 23.8802 9.61612 24.6241 9.83688 25.3627C9.85554 25.4107 9.88574 25.4534 9.92479 25.4869C9.96383 25.5205 10.0105 25.544 10.0608 25.5552C10.88 25.5688 11.7003 25.5636 12.5247 25.5636V23.0662H9.18297ZM12.531 18.8728C11.694 18.8728 10.8842 18.8655 10.0775 18.8833C10.0193 18.8982 9.96553 18.9267 9.92058 18.9666C9.87564 19.0064 9.84085 19.0564 9.8191 19.1124C9.60357 19.8364 9.41002 20.5657 9.19135 21.3462H12.5278L12.531 18.8728ZM4.97809 23.0463C5.21978 23.8749 5.42903 24.6157 5.6613 25.3554C5.68677 25.4084 5.72474 25.4543 5.77195 25.4893C5.81916 25.5243 5.87419 25.5473 5.93227 25.5563C6.63954 25.573 7.3468 25.5657 8.03105 25.5657C7.88353 24.782 7.75484 24.0486 7.59999 23.3204C7.57698 23.2158 7.43469 23.061 7.34367 23.0578C6.59874 23.0348 5.8538 23.0463 4.976 23.0463H4.97809ZM8.04674 18.8676C7.31437 18.8676 6.582 18.8676 5.85799 18.8728C5.82026 18.8795 5.78466 18.8951 5.75425 18.9184C5.72384 18.9417 5.69949 18.972 5.68327 19.0067C5.44995 19.7705 5.22815 20.5364 4.99274 21.3388H7.52571C7.6973 20.5133 7.86365 19.7255 8.04465 18.8676H8.04674ZM19.1621 18.8676C19.341 19.7182 19.5105 20.5301 19.6852 21.3462H21.8039C21.5706 20.5479 21.3624 19.805 21.1312 19.0695C21.1038 19.018 21.0646 18.9736 21.0167 18.9402C20.9689 18.9067 20.9138 18.8851 20.856 18.877C20.3004 18.8571 19.748 18.8665 19.16 18.8665L19.1621 18.8676ZM19.6852 23.0631C19.5042 23.9189 19.3347 24.7235 19.1569 25.5667C19.7323 25.5667 20.2973 25.5667 20.8612 25.5615C20.906 25.5608 20.9501 25.55 20.9901 25.5299C21.0302 25.5098 21.0652 25.4809 21.0924 25.4454C21.4147 24.691 21.6564 23.9157 21.6805 23.0631H19.6852ZM11.5684 30.3764C11.536 30.2927 11.5329 30.2519 11.5119 30.2351C10.5054 29.4638 9.64837 28.5149 8.98315 27.4353C8.94987 27.3846 8.90632 27.3415 8.85532 27.3087C8.80431 27.2759 8.74698 27.2542 8.68705 27.2449C8.06558 27.2271 7.44201 27.2366 6.69917 27.2366C8.02373 28.8938 9.59205 29.9087 11.5695 30.3753L11.5684 30.3764ZM6.71801 17.1842C7.39389 17.1842 7.94631 17.2114 8.49664 17.1695C8.60783 17.1579 8.71557 17.1242 8.8135 17.0703C8.91144 17.0164 8.99757 16.9434 9.06684 16.8556C9.68946 15.8999 10.4592 15.0485 11.3477 14.3331C11.4443 14.2401 11.5354 14.1416 11.6207 14.0381C9.58368 14.5382 8.02478 15.5374 6.71906 17.1831L6.71801 17.1842ZM16.0119 30.1493C17.6293 29.6203 19.0422 28.6013 20.0546 27.2334C19.4791 27.2334 19.0083 27.223 18.5438 27.2418C18.4216 27.2561 18.3094 27.3163 18.2299 27.4102C17.4745 28.333 16.7275 29.2642 16.0119 30.1493ZM20.0159 17.181C19.0847 15.8209 17.0173 14.4074 16.0401 14.3153C16.7149 15.1524 17.4641 16.0814 18.2236 17.0053C18.3031 17.099 18.4154 17.1589 18.5375 17.1727C19.0052 17.1925 19.4728 17.1821 20.0159 17.1821V17.181ZM14.2615 29.169C15.0671 28.603 15.7126 28.0275 16.264 27.2627H14.2615V29.169ZM14.3766 15.2674L14.2719 15.3721V17.134H16.1929L16.2546 17.0189L14.3766 15.2674ZM10.9156 27.2596L12.5289 28.9283V27.2596H10.9156ZM10.8873 17.134H12.5258V15.6535L12.4044 15.5646L10.8873 17.134Z" fill="white"/>
<path d="M13.4047 38.9523H4.52415C4.37797 38.9581 4.23157 38.955 4.08577 38.9429C3.88413 38.9219 3.69723 38.8276 3.56051 38.6779C3.42379 38.5282 3.34678 38.3336 3.34407 38.1309C3.34136 37.9282 3.41314 37.7315 3.54581 37.5782C3.67848 37.4249 3.8628 37.3257 4.0638 37.2993C4.22544 37.2832 4.38802 37.2786 4.55031 37.2857H22.2613C22.4075 37.28 22.5539 37.2839 22.6996 37.2972C22.9038 37.3207 23.092 37.4192 23.2276 37.5737C23.3632 37.7281 23.4365 37.9275 23.4334 38.133C23.4303 38.3385 23.3509 38.5355 23.2106 38.6858C23.0704 38.836 22.8793 38.9288 22.6745 38.9461C22.5122 38.9569 22.3495 38.9593 22.187 38.9534L13.4047 38.9523Z" fill="white"/>
<path d="M10.8937 39.8043H17.1879C17.3506 39.7985 17.5134 39.8027 17.6755 39.8168C18.1013 39.8723 18.3535 40.1307 18.3932 40.5492C18.433 40.9677 18.2457 41.2816 17.8335 41.4082C17.6286 41.4607 17.417 41.4825 17.2057 41.473C12.9935 41.473 8.78129 41.473 4.56908 41.473C4.47073 41.473 4.37342 41.473 4.27612 41.473C3.71115 41.4469 3.33451 41.1016 3.34392 40.6172C3.35334 40.1328 3.72056 39.8064 4.30333 39.8043C6.50255 39.8011 8.69863 39.8043 10.8937 39.8043Z" fill="white"/>
<path d="M10.022 43.9859C8.21547 43.9859 6.40929 43.9859 4.60346 43.9859C4.39301 43.9936 4.18237 43.9771 3.97571 43.9367C3.80183 43.8927 3.64725 43.7928 3.5358 43.6523C3.42435 43.5117 3.36223 43.3384 3.35902 43.1591C3.35581 42.9798 3.41168 42.8044 3.51802 42.66C3.62437 42.5156 3.77528 42.4101 3.94747 42.36C4.10477 42.3206 4.26665 42.3027 4.42874 42.3066C8.17084 42.3066 11.9136 42.3066 15.6571 42.3066C15.8032 42.3012 15.9494 42.3139 16.0923 42.3443C16.5108 42.4489 16.7295 42.7241 16.7201 43.1541C16.7107 43.5841 16.4899 43.8593 16.0693 43.9471C15.8772 43.9795 15.6823 43.9924 15.4876 43.9859C13.6665 43.9879 11.8446 43.9879 10.022 43.9859Z" fill="white"/>
<path d="M4.99055 12.1746C4.46743 12.1746 3.95267 12.184 3.43373 12.1746C2.86457 12.161 2.51616 11.8231 2.52558 11.3167C2.53499 10.826 2.86457 10.5152 3.42432 10.51C4.49498 10.5002 5.56529 10.5002 6.63525 10.51C7.18349 10.5163 7.52248 10.8448 7.52457 11.3303C7.52666 11.8157 7.17721 12.1568 6.64467 12.1673C6.09434 12.1872 5.54193 12.1746 4.99055 12.1746Z" fill="white"/>
<path d="M21.3749 39.8073C21.7819 39.8073 22.1889 39.7937 22.5948 39.8073C23.0792 39.8261 23.4109 40.1463 23.4318 40.5868C23.4382 40.6972 23.4222 40.8079 23.385 40.9121C23.3477 41.0163 23.2899 41.1119 23.2149 41.1933C23.14 41.2747 23.0494 41.3402 22.9486 41.3859C22.8479 41.4316 22.7389 41.4566 22.6283 41.4593C21.7672 41.4886 20.903 41.4876 20.0419 41.4593C19.8265 41.4514 19.6228 41.3593 19.4745 41.2028C19.3262 41.0463 19.2452 40.8379 19.2489 40.6223C19.2489 40.1651 19.5952 39.8335 20.1016 39.8021C20.134 39.8021 20.1664 39.8021 20.1989 39.8021H21.3707L21.3749 39.8073Z" fill="white"/>
</svg>
