<svg width="20" height="18" viewBox="0 0 20 18" fill="none" xmlns="http://www.w3.org/2000/svg">
<path fill-rule="evenodd" clip-rule="evenodd" d="M3.44076 13.4612H16.5023L18.5433 7.88647C18.6491 7.92018 18.763 7.93784 18.8802 7.93784C19.4987 7.93784 20.0016 7.44345 20.0016 6.83188C20.0016 6.22191 19.5003 5.72592 18.8802 5.72592C18.2617 5.72592 17.7588 6.22031 17.7588 6.83188C17.7588 7.07265 17.8369 7.29417 17.9688 7.47555L16.8099 8.41618C15.1872 9.73242 14.1699 9.12245 14.4873 7.07747L14.6663 5.92656C14.7282 5.9378 14.7933 5.94261 14.8584 5.94261C15.4769 5.94261 15.9798 5.44822 15.9798 4.83665C15.9798 4.22669 15.4785 3.73069 14.8584 3.73069C14.2399 3.73069 13.737 4.22508 13.737 4.83665C13.737 5.18497 13.9014 5.49638 14.1569 5.69863L13.8786 6.13202C12.5146 8.15133 11.5088 7.37763 11.1068 5.38241L10.389 2.12231C10.791 1.95377 11.0742 1.56211 11.0742 1.10303C11.0742 0.493067 10.5729 -0.00292969 9.9528 -0.00292969C9.33431 -0.00292969 8.83138 0.491462 8.83138 1.10303C8.83138 1.61347 9.18132 2.04206 9.65658 2.17047L9.19108 4.02925C8.78743 5.73234 8.30404 9.12566 6.11816 6.23315L5.76172 5.75481C6.04329 5.55416 6.22721 5.22671 6.22721 4.85752C6.22721 4.24756 5.72591 3.75156 5.10579 3.75156C4.48731 3.75156 3.98438 4.24595 3.98438 4.85752C3.98438 5.46748 4.48568 5.96348 5.10579 5.96348C5.19206 5.96348 5.27669 5.95385 5.35807 5.93459L5.43294 6.68581C5.57943 7.71151 5.7666 9.09998 4.57194 9.03417C3.97949 9.00206 3.75651 8.80302 3.30404 8.4852L2.01172 7.58149C2.15658 7.39529 2.24284 7.16254 2.24284 6.90893C2.24284 6.29896 1.74154 5.80296 1.12142 5.80296C0.50293 5.80296 0 6.29736 0 6.90893C0 7.52049 0.501302 8.01489 1.12142 8.01489C1.2679 8.01489 1.40625 7.9876 1.53483 7.93784L3.44076 13.4612ZM3.43099 15.0038H16.5348V17.2976H3.43099V15.0038Z" fill="#062037"/>
</svg>
