<svg width="60" height="43" viewBox="0 0 60 43" fill="none" xmlns="http://www.w3.org/2000/svg">
<path d="M55.1735 26.2278C57.1578 27.3059 58.639 28.8387 59.4296 30.9777C59.6624 31.6027 59.8124 32.2651 59.9999 32.9089V35.3698C59.8015 35.9947 59.6249 36.6197 59.3984 37.2306C59.1531 37.9669 58.7667 38.6483 58.2609 39.2368L58.1297 39.3587L58.0093 39.4806C57.8531 39.4618 57.7593 39.5603 57.6422 39.6368C55.5203 40.943 53.2329 41.343 50.8158 40.7493C48.9389 40.312 47.2709 39.2395 46.094 37.7134C44.4316 35.5776 43.8691 33.1823 44.3519 30.5261C44.5316 29.5371 45.0253 28.6699 45.319 27.7278L45.3331 27.7434L45.4519 27.6246C45.4926 27.6059 45.5268 27.5753 45.5499 27.5368C45.5731 27.4984 45.5841 27.4538 45.5815 27.409C47.3002 25.9278 49.3064 25.2872 51.547 25.2856C52.8009 25.3895 54.0276 25.7082 55.1735 26.2278ZM48.0705 33.3729C47.3987 33.2995 46.9659 33.6573 46.6831 34.1792C46.3831 34.7291 46.4987 35.2994 46.8768 35.7682C47.6846 36.7666 48.5112 37.7525 49.3658 38.7103C50.0174 39.44 51.0939 39.3556 51.7017 38.5619C51.9376 38.2494 52.1361 37.9134 52.3486 37.5884C53.3923 35.9901 54.4407 34.3932 55.4735 32.7901C56.05 31.8964 55.9031 30.9714 55.1282 30.4871C54.3532 30.0027 53.461 30.3168 52.861 31.2558C52.2361 32.2235 51.6111 33.1896 50.9861 34.1542C50.2955 35.2166 50.3017 35.2057 49.4861 34.2151C49.1268 33.7682 48.7518 33.2807 48.0705 33.3729Z" fill="#BBF29B"/>
<path d="M55.1736 26.2278C54.0298 25.7106 52.8059 25.3936 51.5549 25.2903C51.5549 18.6342 51.5549 11.9782 51.5549 5.32208C51.5549 5.0299 51.5549 4.73616 51.5549 4.44398C51.5705 3.90493 51.2908 3.66274 50.7737 3.63462C50.6174 3.63462 50.4612 3.63462 50.3049 3.63462H6.0436C5.82954 3.63462 5.61392 3.64712 5.39986 3.65493C5.18581 3.66275 5.01238 3.62525 4.81707 3.62681C3.72335 3.63618 3.63116 3.72837 3.63116 4.84084V27.509C3.63116 28.9355 3.64991 30.3605 3.62179 31.7854C3.60929 32.3698 3.88115 32.6057 4.40301 32.6464C4.59676 32.6604 4.79207 32.6464 4.98737 32.6464H38.2677C39.6927 32.6464 41.1192 32.6385 42.5442 32.6339C42.5333 33.1557 42.5223 33.676 42.513 34.1963H3.85147C3.67648 34.1963 3.49992 34.2073 3.32492 34.1963C2.76556 34.1479 2.22183 33.7276 2.1312 33.237C2.04679 32.8375 1.99919 32.4311 1.98901 32.0229C1.99631 21.3815 1.99631 10.7402 1.98901 0.0987767C2.22338 -0.0434071 2.48275 0.00971655 2.73275 0.00971655C19.3073 0.00971655 35.8824 0.00971655 52.458 0.00971655C54.1767 0.00971655 55.1798 1.01906 55.1782 2.74402C55.1803 10.5719 55.1788 18.3999 55.1736 26.2278Z" fill="#A7A07D"/>
<path d="M1.9937 0.097168C1.9937 10.7396 1.9937 21.381 1.9937 32.0213C2.00388 32.4295 2.05147 32.8359 2.13588 33.2354C2.22651 33.7322 2.77024 34.1463 3.3296 34.1947C3.5046 34.2088 3.68116 34.1947 3.85615 34.1947H42.5176C42.577 34.8697 42.6359 35.5468 42.6942 36.2259H2.81243C2.24213 36.2259 1.67965 36.2181 1.17498 35.8947C0.364061 35.3775 -0.00155747 34.6338 4.98578e-06 33.6791C4.98578e-06 28.3907 4.98578e-06 23.1012 4.98578e-06 17.8108C4.98578e-06 12.7161 4.98578e-06 7.62145 4.98578e-06 2.52679C0.00469236 1.23464 0.776549 0.304975 1.9937 0.097168Z" fill="#938C6D"/>
<path d="M42.6895 36.229C42.6301 35.554 42.5713 34.8769 42.5129 34.1978C42.5223 33.6759 42.5333 33.1556 42.5442 32.6353C42.7338 32.0218 42.9223 31.4072 43.1098 30.7916C43.22 30.5216 43.3446 30.2577 43.4832 30.001C43.9941 29.1589 44.4441 28.2636 45.33 27.7261C45.0363 28.6635 44.5488 29.5354 44.3629 30.5244C43.8801 33.1806 44.4426 35.5696 46.105 37.7117C47.2819 39.2378 48.9499 40.3103 50.8268 40.7476C53.2439 41.3413 55.5313 40.9414 57.6532 39.6351C57.7703 39.5633 57.8688 39.4648 58.0203 39.4789C57.4594 40.4257 56.6141 41.0804 55.686 41.6101C50.7252 44.4475 44.6926 42.1257 42.8911 36.7071C42.8364 36.5462 42.7567 36.3899 42.6895 36.229Z" fill="#A3DFA1"/>
<path d="M58.1299 39.3636L58.2611 39.2417L58.1299 39.3636Z" fill="#A3DFA1"/>
<path d="M58.0142 39.4808L58.1345 39.3589C58.1347 39.3748 58.1317 39.3906 58.1258 39.4054C58.1198 39.4202 58.111 39.4336 58.0998 39.445C58.0886 39.4563 58.0753 39.4653 58.0606 39.4715C58.0459 39.4776 58.0301 39.4808 58.0142 39.4808Z" fill="#A3DFA1"/>
<path d="M45.3301 27.7311C44.4442 28.2686 43.9942 29.1639 43.4833 30.006C43.3446 30.2637 43.22 30.5287 43.1099 30.7998H6.51554C5.71244 30.7998 5.39526 30.4873 5.39526 29.6498C5.39526 20.9844 5.39526 12.319 5.39526 3.65361C5.60932 3.65361 5.82494 3.6333 6.039 3.6333H50.3113C50.4675 3.6333 50.6238 3.6333 50.78 3.6333C51.2956 3.65674 51.5753 3.90361 51.5612 4.44265C51.5534 4.73483 51.5612 5.02857 51.5612 5.32075C51.5612 11.9768 51.5612 18.6329 51.5612 25.289C49.3207 25.289 47.3082 25.9312 45.5958 27.4108C45.5511 27.4246 45.5132 27.4544 45.4893 27.4945C45.4653 27.5346 45.457 27.5822 45.4661 27.628C45.4501 27.6265 45.434 27.6286 45.419 27.6341C45.4039 27.6395 45.3903 27.6482 45.3789 27.6596C45.3676 27.6709 45.3589 27.6846 45.3534 27.6996C45.348 27.7147 45.3459 27.7308 45.3473 27.7467L45.3301 27.7311ZM12.1857 21.7531H17.4559C18.2543 21.7531 19.0543 21.7531 19.8543 21.7688C20.3886 21.7688 20.6355 21.5125 20.6355 20.9782C20.6355 16.6668 20.6355 12.3555 20.6355 8.04412C20.6355 7.51132 20.3902 7.25195 19.8543 7.25195H8.0327C7.4999 7.25195 7.25147 7.51289 7.25147 8.04725C7.25147 12.3576 7.25147 16.6689 7.25147 20.9813C7.25147 21.5156 7.4999 21.7734 8.0327 21.7625C8.83267 21.7542 9.63265 21.7484 10.4326 21.7453L12.1857 21.7531ZM36.0398 10.8831C39.7662 10.8831 43.4927 10.8753 47.2192 10.8925C47.7441 10.8925 47.9691 10.7487 47.9395 10.1956C47.902 9.5144 47.9301 8.83004 47.9301 8.14724C47.9301 7.29258 47.891 7.25352 47.0379 7.25352H27.1369C26.3947 7.25352 25.6541 7.26445 24.9119 7.25352C24.4432 7.24414 24.2432 7.45351 24.2557 7.92381C24.2744 8.62692 24.2557 9.33003 24.2557 10.0316C24.2557 10.8878 24.2557 10.8878 25.0885 10.8878L36.0398 10.8831ZM28.7868 29.8623H39.674C40.4131 29.8623 40.7834 29.5654 40.7818 28.9795C40.7818 28.428 40.3943 28.1045 39.7069 28.1045H17.8152C17.6216 28.0835 17.4268 28.1317 17.2653 28.2405C17.0941 28.3565 16.9667 28.5264 16.9033 28.7232C16.8399 28.9199 16.8441 29.1323 16.9153 29.3264C17.0528 29.781 17.4153 29.867 17.8402 29.867C21.4891 29.8639 25.138 29.8623 28.7868 29.8623ZM40.6615 15.4471H47.5785C48.2832 15.4471 48.8519 15.0377 48.866 14.5268C48.8801 14.0158 48.2957 13.5752 47.5535 13.5721H47.4942C42.987 13.5721 38.4788 13.5721 33.9695 13.5721C33.6774 13.552 33.3843 13.5924 33.1086 13.6908C32.7961 13.8237 32.5977 14.0158 32.5789 14.383C32.5445 15.0736 32.8914 15.4455 33.6445 15.4471C35.984 15.4523 38.3246 15.4528 40.6662 15.4486L40.6615 15.4471ZM13.9435 26.228C15.3299 26.228 16.7158 26.228 18.1012 26.228C18.6668 26.228 19.0996 25.8608 19.098 25.3968C19.098 24.8452 18.7199 24.4749 18.109 24.4734C15.3382 24.4671 12.5669 24.4671 9.79514 24.4734C9.1811 24.4734 8.80767 24.8359 8.79829 25.389C8.79829 25.8577 9.22641 26.228 9.78733 26.228C11.1706 26.2322 12.5555 26.2332 13.9419 26.2311L13.9435 26.228ZM36.8069 20.836C35.7335 20.836 34.6586 20.8282 33.5851 20.836C32.9086 20.836 32.5289 21.236 32.582 21.8391C32.6352 22.4422 33.0117 22.7015 33.8711 22.7047C35.8242 22.7047 37.7772 22.7047 39.7303 22.7047C39.8882 22.7036 40.0454 22.6847 40.199 22.6484C40.9006 22.4922 41.0803 22.2594 41.0256 21.6203C40.9834 21.136 40.599 20.8391 39.9787 20.8391C38.9147 20.8344 37.86 20.8391 36.8054 20.8391L36.8069 20.836ZM10.6029 29.8623C11.7717 29.8623 12.9388 29.8623 14.1075 29.8623C14.3345 29.8589 14.5512 29.7676 14.7122 29.6076C14.8732 29.4477 14.9659 29.2315 14.9707 29.0046C14.9756 28.7777 14.8922 28.5578 14.7383 28.3911C14.5843 28.2244 14.3716 28.1239 14.145 28.1108C11.8461 28.1035 9.54828 28.1035 7.25147 28.1108C7.13393 28.1055 7.01654 28.1239 6.90621 28.1648C6.79588 28.2056 6.69484 28.2682 6.60907 28.3487C6.5233 28.4292 6.45452 28.5261 6.40679 28.6336C6.35906 28.7412 6.33335 28.8572 6.33118 28.9748C6.33274 29.0952 6.35843 29.214 6.40673 29.3242C6.45503 29.4345 6.52495 29.5339 6.61236 29.6167C6.69977 29.6994 6.80289 29.7638 6.91562 29.806C7.02835 29.8482 7.14839 29.8673 7.26865 29.8623C8.38268 29.8623 9.49202 29.8623 10.6029 29.8623ZM27.0088 15.4471C27.8869 15.4471 28.765 15.4642 29.6431 15.4471C30.4102 15.4267 30.8618 14.8752 30.6618 14.2377C30.4915 13.6908 30.0368 13.5815 29.5493 13.5799C27.8514 13.5737 26.1536 13.5737 24.4557 13.5799C23.8573 13.5799 23.3073 14.058 23.3214 14.533C23.3354 15.008 23.8823 15.4471 24.4901 15.4502C25.3369 15.4533 26.1728 15.4486 27.0166 15.4486L27.0088 15.4471ZM27.0962 20.8375H24.6432C23.926 20.8375 23.337 21.236 23.3276 21.7203C23.3182 22.2734 23.8307 22.6719 24.6119 22.7109C24.6885 22.7109 24.7682 22.7109 24.8447 22.7109H29.1681C29.4006 22.7141 29.6325 22.6851 29.8571 22.625C30.5102 22.4469 30.754 22.1828 30.693 21.6547C30.6321 21.1266 30.2555 20.8407 29.5993 20.8375C28.7775 20.836 27.94 20.8391 27.1103 20.8391L27.0962 20.8375ZM40.7506 17.2064C39.8537 17.2064 38.9553 17.1939 38.0585 17.2064C37.5694 17.2158 37.0694 17.6751 37.0382 18.0939C37.0069 18.5126 37.4897 19.0563 37.9757 19.0626C39.7694 19.0845 41.5693 19.0923 43.3599 19.0626C43.4882 19.0685 43.6163 19.0468 43.7355 18.999C43.8548 18.9513 43.9624 18.8786 44.0512 18.7858C44.14 18.693 44.208 18.5822 44.2504 18.461C44.2929 18.3398 44.3089 18.2109 44.2974 18.0829C44.2692 17.5392 43.8942 17.2111 43.2693 17.2048C42.4224 17.2064 41.5896 17.2064 40.7506 17.2064ZM46.1176 20.8375C45.6114 20.8375 45.1036 20.8375 44.5974 20.8375C43.938 20.8375 43.5411 21.1235 43.4818 21.6266C43.4724 21.7539 43.4883 21.8817 43.5285 22.0029C43.5687 22.124 43.6325 22.236 43.7161 22.3324C43.7997 22.4288 43.9016 22.5077 44.0158 22.5646C44.1301 22.6215 44.2544 22.6553 44.3817 22.664C45.5833 22.7344 46.7926 22.8203 47.9895 22.6203C48.5597 22.5266 48.9051 22.1109 48.8566 21.7016C48.8019 21.2563 48.2926 20.8485 47.7629 20.8391C47.2332 20.8297 46.6629 20.8391 46.1176 20.8391V20.8375ZM25.6885 17.2064C25.2197 17.2064 24.751 17.1861 24.2823 17.2064C23.8135 17.2267 23.3182 17.6986 23.3323 18.0939C23.3479 18.6048 23.6807 18.9954 24.1432 19.0313C25.1479 19.111 26.1744 19.1641 27.1697 19.0032C27.7665 18.9079 27.9759 18.5345 27.8822 17.9376C27.8025 17.4345 27.4337 17.2314 26.9697 17.2033C26.5478 17.1876 26.1182 17.2064 25.6885 17.2064Z" fill="#F8F7F8"/>
<path d="M48.0706 33.3728C48.7519 33.2806 49.1269 33.765 49.4972 34.215C50.3128 35.2056 50.3065 35.2165 50.9971 34.154C51.6221 33.1905 52.2471 32.2244 52.8721 31.2557C53.4721 30.3182 54.3736 30.0057 55.1392 30.487C55.9048 30.9682 56.061 31.8932 55.4845 32.79C54.447 34.3931 53.3986 35.9899 52.3596 37.5883C52.1471 37.9133 51.9487 38.2524 51.7127 38.5617C51.1049 39.3555 50.0284 39.4398 49.3769 38.7102C48.5222 37.7524 47.6956 36.7665 46.8879 35.7681C46.5097 35.2993 46.3941 34.729 46.6941 34.179C46.966 33.6572 47.3988 33.2994 48.0706 33.3728Z" fill="#F7F7F7"/>
<path d="M45.4599 27.6308C45.4508 27.5849 45.4591 27.5374 45.483 27.4973C45.507 27.4572 45.5449 27.4274 45.5896 27.4136C45.5924 27.4586 45.5815 27.5035 45.5584 27.5423C45.5352 27.5811 45.5009 27.6119 45.4599 27.6308Z" fill="#A3DFA1"/>
<path d="M45.3442 27.7466C45.3428 27.7307 45.3448 27.7146 45.3503 27.6995C45.3558 27.6845 45.3645 27.6708 45.3758 27.6595C45.3871 27.6481 45.4008 27.6394 45.4158 27.634C45.4309 27.6285 45.447 27.6264 45.4629 27.6279L45.3442 27.7466Z" fill="#A3DFA1"/>
<path d="M5.40003 3.65321C5.40003 12.3186 5.40003 20.984 5.40003 29.6494C5.40003 30.4869 5.71252 30.7994 6.52031 30.7994H43.1147C42.9272 31.4129 42.7386 32.0275 42.5491 32.6431C41.1241 32.6431 39.6976 32.6556 38.2726 32.6556H4.99223C4.79692 32.6556 4.60162 32.6634 4.40787 32.6556C3.87976 32.6149 3.60789 32.379 3.62664 31.7947C3.65477 30.3697 3.63602 28.9447 3.63602 27.5182V4.83912C3.63602 3.72665 3.72507 3.63446 4.82192 3.62509C5.01254 3.62352 5.20628 3.64383 5.40003 3.65321Z" fill="#E7E7E6"/>
<path d="M10.4387 21.7531C9.63875 21.7531 8.83878 21.7589 8.0388 21.7703C7.506 21.7703 7.25757 21.5172 7.25757 20.9891C7.25757 16.6767 7.25757 12.3654 7.25757 8.05506C7.25757 7.5207 7.49975 7.25977 8.0388 7.25977H19.8619C20.3947 7.25977 20.6432 7.51913 20.6432 8.05193C20.6432 12.3622 20.6432 16.6736 20.6432 20.986C20.6432 21.5203 20.3978 21.7813 19.8619 21.7766C19.0619 21.7688 18.262 21.7656 17.4636 21.7609C17.4636 21.1766 17.4776 20.5938 17.4636 20.0094C17.4495 19.1095 16.9511 18.6032 16.048 18.5923C14.7636 18.5798 13.4808 18.5923 12.1965 18.5923C10.8762 18.5517 10.4356 18.9782 10.4356 20.2954C10.4309 20.7813 10.4356 21.2688 10.4387 21.7531ZM13.9386 16.2939C14.2448 16.2995 14.549 16.244 14.8334 16.1305C15.1179 16.0171 15.3768 15.848 15.5951 15.6333C15.8133 15.4185 15.9865 15.1623 16.1046 14.8798C16.2226 14.5972 16.283 14.2939 16.2823 13.9877C16.2832 13.6799 16.2233 13.375 16.1063 13.0903C15.9893 12.8057 15.8174 12.5469 15.6003 12.3286C15.3833 12.1104 15.1253 11.9371 14.8413 11.8186C14.5573 11.7 14.2527 11.6386 13.9449 11.6378C13.6371 11.637 13.3322 11.6968 13.0475 11.8138C12.7629 11.9308 12.504 12.1028 12.2858 12.3198C12.0676 12.5369 11.8943 12.7948 11.7757 13.0788C11.6572 13.3628 11.5958 13.6674 11.595 13.9752C11.5917 14.2827 11.6504 14.5877 11.7673 14.8721C11.8843 15.1565 12.0572 15.4146 12.2758 15.6308C12.4944 15.8471 12.7543 16.0173 13.0399 16.1312C13.3256 16.2451 13.6312 16.3004 13.9386 16.2939Z" fill="#7AD6ED"/>
<path d="M36.0397 10.8831H25.0931C24.2619 10.8831 24.2619 10.8831 24.2603 10.0269C24.2603 9.32378 24.2744 8.62067 24.2603 7.91913C24.2478 7.45039 24.44 7.23946 24.9166 7.24883C25.6587 7.26446 26.3993 7.24883 27.1415 7.24883H47.0379C47.891 7.24883 47.9285 7.2879 47.93 8.14256C47.93 8.82536 47.9019 9.50971 47.9394 10.1909C47.9691 10.7441 47.7441 10.8909 47.2191 10.8878C43.4926 10.8753 39.7662 10.8831 36.0397 10.8831Z" fill="#FEDF77"/>
<path d="M28.7868 29.862C25.1411 29.862 21.4922 29.862 17.8403 29.862C17.4153 29.862 17.059 29.7761 16.9153 29.3214C16.8441 29.1273 16.8399 28.915 16.9033 28.7182C16.9667 28.5214 17.0941 28.3515 17.2653 28.2355C17.4268 28.1267 17.6216 28.0785 17.8153 28.0996H39.7069C40.3944 28.0996 40.7803 28.423 40.7818 28.9745C40.7818 29.5605 40.4131 29.8573 39.6741 29.8573L28.7868 29.862Z" fill="#E7E7E7"/>
<path d="M40.6661 15.4483C38.3235 15.4483 35.9798 15.4483 33.6351 15.4483C32.8851 15.4483 32.5413 15.0749 32.5695 14.3843C32.5882 14.0171 32.7929 13.825 33.0991 13.6921C33.3749 13.5937 33.668 13.5532 33.9601 13.5734C38.4693 13.5734 42.9775 13.5734 47.4847 13.5734H47.5441C48.2862 13.5734 48.8706 14.0015 48.8565 14.5281C48.8425 15.0546 48.2737 15.4483 47.5691 15.4483H40.6661Z" fill="#E7E7E7"/>
<path d="M13.9419 26.231C12.5555 26.231 11.1701 26.231 9.78574 26.231C9.22481 26.231 8.79045 25.856 8.7967 25.392C8.80607 24.8389 9.1795 24.4779 9.79355 24.4764C12.5653 24.4701 15.3366 24.4701 18.1074 24.4764C18.7183 24.4764 19.0933 24.8482 19.0964 25.3998C19.0964 25.8685 18.6652 26.231 18.0996 26.231C16.7111 26.2331 15.3252 26.2331 13.9419 26.231Z" fill="#E7E7E7"/>
<path d="M12.1918 18.5918C13.4761 18.5918 14.7589 18.5731 16.0433 18.5918C16.9464 18.5918 17.4495 19.109 17.4588 20.009C17.4698 20.5933 17.4588 21.1761 17.4588 21.7605H12.1855C12.1887 20.7032 12.1908 19.647 12.1918 18.5918Z" fill="#FEC164"/>
<path d="M36.8052 20.8391C37.8599 20.8391 38.9146 20.8391 39.9692 20.8391C40.5942 20.8391 40.9739 21.1407 41.0161 21.6203C41.0708 22.2594 40.8911 22.4875 40.1895 22.6484C40.0359 22.6847 39.8787 22.7036 39.7208 22.7047C37.7677 22.7047 35.8146 22.7047 33.8616 22.7047C33.0022 22.7047 32.6241 22.4359 32.5725 21.8391C32.521 21.2422 32.8991 20.8438 33.5756 20.836C34.6569 20.8313 35.7318 20.8391 36.8052 20.8391Z" fill="#E8E8E8"/>
<path d="M10.6029 29.862C9.49195 29.862 8.38261 29.862 7.2717 29.862C7.15145 29.867 7.0314 29.8478 6.91867 29.8057C6.80594 29.7635 6.70282 29.6991 6.61541 29.6163C6.528 29.5336 6.45808 29.4342 6.40979 29.3239C6.36149 29.2137 6.3358 29.0948 6.33423 28.9745C6.33641 28.8569 6.36212 28.7409 6.40984 28.6333C6.45757 28.5258 6.52635 28.4289 6.61212 28.3484C6.69789 28.2678 6.79892 28.2053 6.90925 28.1644C7.01958 28.1236 7.13697 28.1052 7.25451 28.1104C9.55132 28.0979 11.8492 28.0979 14.1481 28.1104C14.3746 28.1236 14.5873 28.224 14.7413 28.3907C14.8953 28.5574 14.9786 28.7774 14.9738 29.0043C14.9689 29.2312 14.8763 29.4474 14.7153 29.6073C14.5543 29.7673 14.3375 29.8586 14.1106 29.862C12.9387 29.862 11.7716 29.862 10.6029 29.862Z" fill="#E7E7E7"/>
<path d="M27.0165 15.4482C26.1759 15.4482 25.3368 15.4482 24.4978 15.4482C23.89 15.4482 23.3416 15.0076 23.3291 14.531C23.3166 14.0545 23.865 13.5795 24.4634 13.5779C26.1602 13.5717 27.8581 13.5717 29.557 13.5779C30.0492 13.5779 30.4945 13.6889 30.6695 14.2357C30.8695 14.8732 30.4179 15.4248 29.6508 15.4451C28.7727 15.4654 27.8915 15.4482 27.0165 15.4482Z" fill="#E7E7E7"/>
<path d="M27.1102 20.8389C27.9461 20.8389 28.7836 20.8389 29.6211 20.8389C30.2695 20.8389 30.6476 21.131 30.7148 21.656C30.782 22.181 30.532 22.4482 29.8789 22.6263C29.6543 22.6865 29.4224 22.7154 29.1899 22.7123H24.8525C24.7744 22.7123 24.6962 22.7123 24.6197 22.7123C23.8384 22.6732 23.326 22.2748 23.3353 21.7217C23.3447 21.2373 23.9338 20.8404 24.6509 20.8389H27.1102Z" fill="#E8E8E8"/>
<path d="M40.7507 17.2061C41.5897 17.2061 42.4287 17.2061 43.2678 17.2061C43.8928 17.2061 44.2677 17.5405 44.2959 18.0842C44.3074 18.2121 44.2914 18.341 44.2489 18.4623C44.2065 18.5835 44.1386 18.6942 44.0497 18.787C43.9609 18.8798 43.8533 18.9526 43.7341 19.0003C43.6148 19.0481 43.4867 19.0697 43.3584 19.0639C41.5631 19.0951 39.7647 19.0873 37.9742 19.0639C37.4914 19.0639 37.0101 18.5045 37.0367 18.0951C37.0633 17.6858 37.5679 17.217 38.057 17.2077C38.9554 17.1952 39.8538 17.2061 40.7507 17.2061Z" fill="#E8E8E8"/>
<path d="M46.1175 20.839C46.6628 20.839 47.2112 20.839 47.7549 20.839C48.2987 20.839 48.8018 21.2561 48.8487 21.7014C48.8971 22.1108 48.5518 22.5264 47.9815 22.6202C46.7847 22.8139 45.5753 22.7342 44.3738 22.6639C44.2464 22.6552 44.1221 22.6214 44.0079 22.5645C43.8936 22.5076 43.7918 22.4286 43.7082 22.3322C43.6245 22.2358 43.5608 22.1238 43.5206 22.0027C43.4803 21.8816 43.4644 21.7537 43.4738 21.6264C43.5332 21.1233 43.93 20.8452 44.5894 20.8374C45.1034 20.8374 45.6112 20.839 46.1175 20.839Z" fill="#E8E8E8"/>
<path d="M25.6885 17.2063C26.1181 17.2063 26.5478 17.186 26.9744 17.2063C27.4431 17.2344 27.8071 17.4375 27.8868 17.9406C27.9806 18.5422 27.7712 18.9109 27.1744 19.0062C26.1728 19.1625 25.1525 19.1141 24.1479 19.0344C23.6791 18.9969 23.3526 18.6063 23.337 18.0969C23.3229 17.7016 23.8323 17.2344 24.2869 17.2094C24.7416 17.1844 25.2213 17.2063 25.6885 17.2063Z" fill="#E8E8E8"/>
<path d="M12.1919 18.592C12.1919 19.6451 12.1919 20.6987 12.1919 21.7528H10.4388C10.4388 21.2669 10.4388 20.781 10.4388 20.2951C10.431 18.9779 10.8716 18.5513 12.1919 18.592Z" fill="#FDAA5B"/>
<path d="M13.9388 16.2938C13.6313 16.3003 13.3257 16.245 13.0401 16.1311C12.7544 16.0172 12.4946 15.847 12.276 15.6308C12.0573 15.4145 11.8844 15.1565 11.7675 14.8721C11.6505 14.5877 11.5919 14.2826 11.5951 13.9751C11.5959 13.6674 11.6573 13.3628 11.7759 13.0787C11.8944 12.7947 12.0678 12.5368 12.286 12.3197C12.5042 12.1027 12.763 11.9307 13.0477 11.8137C13.3323 11.6967 13.6373 11.6369 13.945 11.6377C14.2528 11.6385 14.5574 11.7 14.8415 11.8185C15.1255 11.937 15.3834 12.1104 15.6004 12.3286C15.8175 12.5468 15.9894 12.8056 16.1065 13.0903C16.2235 13.3749 16.2833 13.6799 16.2825 13.9876C16.2831 14.2939 16.2227 14.5971 16.1047 14.8797C15.9867 15.1623 15.8135 15.4184 15.5952 15.6332C15.3769 15.848 15.118 16.017 14.8336 16.1305C14.5492 16.2439 14.2449 16.2994 13.9388 16.2938Z" fill="#FDD08D"/>
</svg>
