<svg width="50" height="50" viewBox="0 0 50 50" fill="none" xmlns="http://www.w3.org/2000/svg">
<path d="M46.5858 0C46.8123 0.0781169 47.0414 0.151026 47.2654 0.235653C48.6858 0.774659 49.6675 2.1391 49.6089 3.6793C49.5073 6.18165 49.3355 8.68139 49.1858 11.1824C48.9748 14.7068 48.8212 18.2364 48.527 21.7529C48.1872 25.8176 48.7288 29.8432 48.8889 33.8858C48.9162 34.6006 48.9852 35.3179 49.0191 36.0288C49.0425 36.5496 48.7587 36.892 48.3213 36.9102C47.8838 36.9284 47.5909 36.6186 47.5596 36.0874C47.3617 32.8403 47.156 29.592 46.9815 26.3436C46.9568 25.8645 46.8279 25.7239 46.3306 25.7239C36.0469 25.7395 25.7615 25.743 15.4744 25.7343C15.2469 25.7416 15.0191 25.7298 14.7935 25.6991C14.6241 25.6707 14.4707 25.5821 14.3616 25.4495C14.2524 25.317 14.1948 25.1494 14.1994 24.9777C14.204 24.8061 14.2705 24.6418 14.3866 24.5153C14.5027 24.3888 14.6606 24.3084 14.8313 24.2891C15.026 24.2711 15.2217 24.2655 15.4171 24.2722H46.2733C46.9399 24.2722 46.9321 24.2722 46.9711 23.6212C47.2888 18.3266 47.6082 13.0321 47.9294 7.73747C48.0062 6.45375 48.0986 5.17134 48.1481 3.88762C48.2067 2.39949 47.2836 1.46079 45.7942 1.46079C31.8147 1.46079 17.8357 1.46079 3.85714 1.46079C2.33777 1.46079 1.40167 2.39819 1.48369 3.91365C1.66987 7.39116 1.8925 10.8648 2.10081 14.341C2.28569 17.4092 2.47013 20.4783 2.65414 23.5483C2.6958 24.2657 2.68668 24.2657 3.38192 24.2657H11.096C11.2584 24.2602 11.421 24.2646 11.5829 24.2787C11.9735 24.3269 12.2065 24.5547 12.2248 24.9518C12.243 25.3698 12.0256 25.6288 11.6128 25.6991C11.4357 25.7244 11.2566 25.7339 11.0777 25.7278C8.47384 25.7278 5.86994 25.7382 3.26605 25.72C2.84292 25.72 2.67757 25.8111 2.65153 26.2707C2.27831 32.7023 1.8938 39.1335 1.49801 45.5643C1.48108 45.8403 1.46807 46.1163 1.47328 46.3936C1.48436 46.9374 1.69761 47.4575 2.07144 47.8525C2.44528 48.2475 2.95287 48.4891 3.49519 48.5301C3.60846 48.5379 3.72303 48.5366 3.8363 48.5366H45.7733C46.9881 48.5366 47.889 47.8856 48.1012 46.8037C48.1581 46.4157 48.1665 46.0221 48.126 45.632C48.0192 43.7806 47.8981 41.9305 47.7796 40.0792C47.7302 39.298 47.9398 38.9217 48.4462 38.8827C48.9527 38.8436 49.1936 39.1886 49.2404 39.9841C49.3706 42.0959 49.5256 44.205 49.6063 46.3181C49.6636 47.8427 48.7131 49.1824 47.3083 49.7396C47.0714 49.8334 46.8266 49.9115 46.5858 50H3.03562C3.00171 49.9676 2.96253 49.9411 2.91974 49.9219C0.942084 49.3686 -0.0617263 48.0262 0.0137866 45.9835C0.054147 44.912 0.143992 43.8418 0.203882 42.7703C0.386154 39.7693 0.60617 36.7683 0.742874 33.7647C0.923845 29.7755 1.43681 25.8007 1.09961 21.7868C0.802762 18.2559 0.651744 14.7133 0.439526 11.1759C0.291104 8.71003 0.134864 6.24414 0.00987698 3.77565C-0.0343815 3.2037 0.0706111 2.63006 0.314576 2.11086C0.558541 1.59167 0.933128 1.14471 1.40167 0.813717C1.88469 0.459588 2.4875 0.268201 3.03562 0.00390568L46.5858 0Z" fill="white"/>
<path d="M17.7071 35.6811C17.7071 37.0468 17.7332 38.4152 17.7071 39.7796C17.6329 42.998 15.2009 45.6918 12.0567 46.0758C10.5083 46.2775 8.93909 45.9148 7.63628 45.0541C6.33348 44.1934 5.38425 42.8922 4.96238 41.3888C4.80536 40.8257 4.7222 40.2445 4.71501 39.6598C4.69027 36.9258 4.69809 34.1917 4.7059 31.4576C4.7059 29.5242 6.09768 28.1311 8.02587 28.1233C10.1559 28.1155 12.2867 28.1155 14.4184 28.1233C16.3023 28.1324 17.6824 29.489 17.7124 31.3782C17.7345 32.8103 17.7124 34.2424 17.7124 35.6746L17.7071 35.6811ZM6.16668 36.1186C6.16668 37.3958 6.13935 38.6144 6.1732 39.8317C6.24611 42.5007 8.50759 44.6489 11.2039 44.6489C13.9003 44.6489 16.1292 42.5437 16.2268 39.8825C16.2698 38.7107 16.2346 37.539 16.2529 36.3672C16.2672 36.256 16.2411 36.1434 16.1795 36.0498C16.1179 35.9562 16.0247 35.8877 15.917 35.8569C15.2413 35.5808 14.5929 35.2202 13.8976 35.0119C13.3209 34.8387 12.6634 34.6734 12.0945 34.7814C10.1168 35.1642 8.16517 35.6603 6.16407 36.1186H6.16668ZM6.17709 34.5862C6.33723 34.5627 6.46743 34.5523 6.59112 34.5237C8.14174 34.163 9.69365 33.805 11.2417 33.4339C12.3847 33.1356 13.5957 33.2414 14.6697 33.7334C15.1671 33.9612 15.6748 34.1656 16.219 34.3987C16.219 33.236 16.2659 32.132 16.2034 31.0344C16.1578 30.2598 15.4014 29.614 14.5864 29.6023C12.3418 29.5789 10.0968 29.5789 7.85141 29.6023C6.99473 29.6101 6.2383 30.2689 6.19273 31.1034C6.12763 32.2557 6.1745 33.4079 6.1745 34.5862H6.17709Z" fill="white"/>
<path d="M37.8315 44.1764C37.4136 45.5656 36.4111 45.9991 35.1964 46.0981C33.8202 46.2126 32.5105 45.9119 31.2528 45.3781C31.1211 45.3077 30.9738 45.2717 30.8244 45.2735C30.6751 45.2753 30.5287 45.3149 30.3987 45.3885C29.434 45.8705 28.3694 46.1185 27.291 46.1124C26.8158 46.1124 26.5098 45.8611 26.4733 45.4614C26.4369 45.0617 26.7207 44.7336 27.2142 44.662L29.4132 44.347C28.3117 42.6544 28.3599 41.4384 29.4809 40.5153C30.3232 39.8214 31.4846 39.9151 32.3556 40.7471C33.3151 41.6584 33.2669 42.6661 32.1368 44.1634C33.3515 44.5891 34.5585 44.8534 35.8083 44.4811C36.0375 44.4134 36.2367 44.1126 36.3668 43.8743C36.497 43.6361 36.5166 43.3106 36.6272 43.0411C36.915 42.3237 37.687 42.0373 38.2443 42.5542C38.8015 43.071 39.2142 43.7181 39.6074 44.3613C39.8001 44.6764 39.6074 45.0305 39.252 45.2128C38.8965 45.395 38.5802 45.2987 38.3406 44.9927C38.1674 44.7545 38.032 44.4941 37.8315 44.1764ZM30.7646 43.433C31.0051 43.1859 31.2311 42.925 31.4416 42.6518C31.702 42.2677 31.5718 41.9019 31.1239 41.6415C30.7333 41.415 30.4287 41.5035 30.193 41.9175C29.8819 42.4565 30.0277 42.8784 30.7646 43.433Z" fill="white"/>
<path d="M34.0401 29.5944H25.1608C24.9984 29.6029 24.8355 29.5977 24.6739 29.5788C24.5127 29.5523 24.3653 29.4719 24.2558 29.3507C24.1463 29.2296 24.0811 29.0748 24.071 28.9118C24.0608 28.7488 24.1063 28.5872 24.2 28.4534C24.2937 28.3196 24.43 28.2215 24.5866 28.1753C24.7439 28.138 24.9057 28.1235 25.0671 28.1323H42.922C43.0682 28.1224 43.2151 28.1303 43.3594 28.1558C43.7331 28.2508 43.9557 28.4995 43.9388 28.8927C43.9219 29.2859 43.6927 29.5202 43.3074 29.5827C43.1457 29.6001 42.9828 29.6044 42.8204 29.5957L34.0401 29.5944Z" fill="white"/>
<path d="M34.0415 33.9887H25.1623C24.9998 33.9972 24.8369 33.992 24.6753 33.9731C24.514 33.947 24.3664 33.8669 24.2566 33.7459C24.1467 33.6249 24.0812 33.4702 24.0708 33.3071C24.0604 33.1441 24.1056 32.9823 24.1991 32.8483C24.2926 32.7143 24.4288 32.616 24.5855 32.5696C24.7432 32.5323 24.9054 32.5178 25.0672 32.5266H42.9208C43.0671 32.5167 43.2139 32.5246 43.3583 32.5501C43.7319 32.6438 43.9546 32.8925 43.9389 33.2856C43.9233 33.6788 43.6942 33.9145 43.3088 33.977C43.1471 33.9944 42.9843 33.9987 42.8219 33.99L34.0415 33.9887Z" fill="white"/>
<path d="M33.9518 38.3829H25.2196C25.059 38.3899 24.8981 38.3873 24.7379 38.3751C24.3212 38.3256 24.0869 38.0666 24.0765 37.663C24.0661 37.2594 24.3173 37.0016 24.7275 36.9313C24.8732 36.9154 25.0199 36.9119 25.1662 36.9208H42.8727C43.0509 36.9091 43.2299 36.9204 43.4052 36.9547C43.5675 36.987 43.7124 37.0774 43.8126 37.2091C43.9128 37.3407 43.9615 37.5044 43.9494 37.6695C43.9532 37.8431 43.8911 38.0116 43.7756 38.1413C43.6602 38.271 43.4999 38.3522 43.3271 38.3686C43.1655 38.3877 43.0026 38.3925 42.8402 38.3829H33.9518Z" fill="white"/>
<path d="M32.8685 15.8408C32.0786 15.8391 31.3217 15.5238 30.7641 14.9642C30.2065 14.4047 29.8939 13.6467 29.8949 12.8567C29.8887 12.46 29.9618 12.066 30.1098 11.6978C30.2578 11.3296 30.4778 10.9947 30.7569 10.7126C31.0359 10.4305 31.3685 10.207 31.7351 10.055C32.1016 9.90305 32.4948 9.82577 32.8916 9.82767C33.2884 9.82958 33.6808 9.91064 34.0459 10.0661C34.411 10.2216 34.7414 10.4483 35.0178 10.7331C35.2941 11.0178 35.5109 11.3549 35.6553 11.7244C35.7998 12.094 35.8691 12.4887 35.8591 12.8854C35.8586 13.2763 35.7807 13.6633 35.6298 14.0239C35.4789 14.3846 35.258 14.7117 34.9799 14.9865C34.7019 15.2613 34.3721 15.4783 34.0097 15.6249C33.6473 15.7715 33.2595 15.8449 32.8685 15.8408ZM34.3944 12.8802C34.3976 12.4782 34.2424 12.0912 33.9625 11.8027C33.6826 11.5142 33.3004 11.3475 32.8985 11.3387C32.4965 11.3419 32.1114 11.501 31.8244 11.7824C31.5373 12.0639 31.3707 12.4457 31.3596 12.8476C31.3589 13.2494 31.5166 13.6352 31.7987 13.9214C32.0807 14.2076 32.4642 14.371 32.8659 14.3761C33.065 14.3801 33.2629 14.3443 33.448 14.271C33.6331 14.1976 33.8018 14.0881 33.9441 13.9488C34.0864 13.8095 34.1995 13.6433 34.2768 13.4598C34.3541 13.2763 34.3941 13.0793 34.3944 12.8802Z" fill="white"/>
<path d="M39.6998 13.5391C39.9966 13.8802 40.2869 14.2044 40.5682 14.5351C40.9106 14.9387 40.9171 15.3671 40.5929 15.6587C40.2687 15.9503 39.8365 15.8931 39.4797 15.5077C39.1438 15.1444 38.8184 14.7708 38.3926 14.2943C38.3926 14.6601 38.403 14.8814 38.3926 15.1015C38.3692 15.5467 38.1088 15.8189 37.7052 15.8358C37.3016 15.8527 36.9852 15.5754 36.937 15.1223C36.9324 15.0412 36.9324 14.9599 36.937 14.8788C36.937 13.5131 36.937 12.1448 36.937 10.7803C36.937 10.1541 37.2078 9.88457 37.8237 9.86895C38.2142 9.86895 38.6048 9.85202 38.9954 9.87936C39.4051 9.89843 39.7983 10.0466 40.1186 10.3027C40.439 10.5587 40.6702 10.9096 40.7791 11.305C40.9952 12.0862 40.6814 12.8569 39.9432 13.3712L39.6998 13.5391ZM38.4291 11.2503V12.3127C38.7233 12.2254 39.0099 12.1139 39.2857 11.9794C39.3456 11.9456 39.3391 11.6057 39.2714 11.568C39.0002 11.4382 38.7184 11.3319 38.4291 11.2503Z" fill="white"/>
<path d="M15.873 11.7046L17.1528 12.2254C17.7282 12.461 18.2178 12.7982 18.443 13.4062C18.8258 14.44 18.1123 15.5896 16.9353 15.794C16.4938 15.8823 16.0373 15.8608 15.606 15.7314C15.1746 15.602 14.7817 15.3687 14.4616 15.0519C14.101 14.7082 14.0711 14.2889 14.3432 13.97C14.6153 13.651 15.0527 13.6341 15.4238 13.9596C15.7948 14.285 16.205 14.4465 16.6763 14.3358C16.8247 14.302 16.9367 14.1275 17.0668 14.0168C16.9679 13.901 16.8924 13.7369 16.7661 13.677C16.4159 13.5091 16.0435 13.3867 15.6829 13.2422C14.7064 12.8516 14.2859 12.1876 14.4473 11.2997C14.5361 10.8723 14.7793 10.4927 15.1305 10.2335C15.4818 9.97426 15.9162 9.8537 16.3508 9.89487C16.9106 9.94304 17.4757 10.1735 17.9886 10.4235C18.0831 10.4654 18.1671 10.5278 18.2344 10.6063C18.3017 10.6847 18.3507 10.7772 18.3778 10.877C18.4048 10.9768 18.4093 11.0813 18.3909 11.1831C18.3724 11.2848 18.3315 11.3811 18.2711 11.465C18.0355 11.8283 17.6488 11.8934 17.2062 11.6395C16.7635 11.3856 16.3547 11.1656 15.9042 11.5223L15.873 11.7046Z" fill="white"/>
<path d="M21.2785 11.7124C21.8123 11.939 22.3643 12.1317 22.8772 12.3972C24.1583 13.0625 24.3094 14.6106 23.1637 15.4217C22.9289 15.5959 22.6601 15.7188 22.3747 15.7823C21.9197 15.8836 21.4464 15.8674 20.9995 15.735C20.5525 15.6027 20.1467 15.3586 19.8203 15.0259C19.4661 14.6796 19.4531 14.2564 19.7552 13.9453C20.0351 13.6588 20.453 13.6458 20.7967 13.9557C21.1404 14.2655 21.5401 14.44 21.9984 14.3463C22.1625 14.3137 22.2979 14.138 22.4463 14.0273C22.3369 13.8971 22.251 13.7291 22.113 13.6614C21.7797 13.4974 21.4204 13.3854 21.0714 13.2487C20.1067 12.8646 19.6927 12.2384 19.8164 11.3583C19.9296 10.5602 20.6444 9.94568 21.5779 9.88189C22.2511 9.8375 22.9168 10.0444 23.4462 10.4626C23.6018 10.5697 23.7103 10.7325 23.7494 10.9174C23.7884 11.1023 23.7549 11.2951 23.6558 11.4559C23.4332 11.8088 23.0439 11.8882 22.6325 11.6721C22.4176 11.5601 22.2028 11.4117 21.9737 11.3791C21.7445 11.3466 21.492 11.4416 21.2498 11.4807L21.2785 11.7124Z" fill="white"/>
<path d="M13.4381 15.2419C13.2623 15.4138 13.0918 15.6898 12.847 15.7952C12.502 15.9437 12.0919 15.8044 12.0124 15.4307C11.8575 14.7055 11.3797 14.6964 10.8238 14.742C10.6619 14.7595 10.4987 14.7595 10.3368 14.742C10.0764 14.7081 9.94625 14.8253 9.88636 15.0609C9.85926 15.1542 9.82486 15.2452 9.7835 15.333C9.5817 15.7757 9.19632 15.9528 8.79792 15.7887C8.42947 15.6377 8.27716 15.2536 8.42167 14.8045C8.50109 14.5584 8.60655 14.3201 8.69768 14.078C9.13644 12.927 9.5791 11.7774 10.0087 10.6226C10.1624 10.2112 10.3876 9.887 10.8628 9.88309C11.338 9.87919 11.5737 10.1904 11.7273 10.607C12.2299 11.9597 12.7454 13.3059 13.2545 14.656C13.3105 14.8097 13.3508 14.962 13.4381 15.2419ZM10.5933 13.2473H11.1597L10.8615 12.5117L10.5933 13.2473Z" fill="white"/>
<path d="M26.3574 13.9047C26.3574 14.2861 26.3652 14.639 26.3574 14.9905C26.3431 15.5269 26.0684 15.8354 25.6218 15.8367C25.1753 15.838 24.9006 15.5425 24.8979 14.9944C24.8979 13.5622 24.8979 12.1366 24.8979 10.7084C24.8979 10.2462 25.1063 9.92721 25.5489 9.89336C26.13 9.84135 26.7151 9.85795 27.2922 9.94283C27.7785 10.0281 28.2147 10.2938 28.5135 10.6868C28.8123 11.0797 28.9518 11.571 28.904 12.0624C28.8536 12.5514 28.6266 13.0052 28.2658 13.339C27.9049 13.6728 27.4347 13.8637 26.9433 13.876L26.3574 13.9047ZM26.3783 12.5676C26.7793 12.3827 27.0969 12.2772 27.356 12.091C27.4315 12.0377 27.4003 11.6445 27.3079 11.5885C27.0475 11.4323 26.7311 11.3698 26.3783 11.25V12.5676Z" fill="white"/>
<path d="M5.54169 13.8761C5.54169 14.281 5.54169 14.6182 5.54169 14.9567C5.52737 15.5374 5.25916 15.8446 4.78916 15.8368C4.31915 15.829 4.0848 15.5361 4.08219 14.9723C4.07612 13.5558 4.07612 12.1397 4.08219 10.7241C4.08219 10.1564 4.35561 9.87909 4.91675 9.87518C5.43753 9.87518 5.9583 9.84784 6.47126 9.93898C6.94932 10.0242 7.37902 10.2831 7.67774 10.666C7.97647 11.0488 8.12314 11.5285 8.08959 12.013C8.05094 12.5126 7.82791 12.98 7.46386 13.3243C7.0998 13.6686 6.62072 13.8653 6.11974 13.8761C5.94268 13.8826 5.76823 13.8761 5.54169 13.8761ZM5.57033 12.3619L5.6862 12.5246C5.97784 12.3827 6.29291 12.2708 6.54809 12.0794C6.621 12.0247 6.58064 11.6341 6.4856 11.5794C6.22521 11.4271 5.90884 11.3711 5.57424 11.2644L5.57033 12.3619Z" fill="white"/>
<path d="M44.3059 11.332V14.4567C44.3059 14.652 44.3137 14.8473 44.3059 15.0413C44.2746 15.5516 44.0038 15.8381 43.5677 15.8368C43.1315 15.8354 42.8568 15.5529 42.8503 15.0334C42.8386 13.9919 42.8503 12.9503 42.8503 11.9088V11.3307C42.6368 11.3307 42.4779 11.3398 42.3204 11.3307C41.9038 11.3021 41.6525 11.0703 41.62 10.6602C41.5874 10.2501 41.8205 9.9233 42.2175 9.90247C43.1283 9.85608 44.0409 9.85608 44.9516 9.90247C45.3422 9.9233 45.5779 10.241 45.544 10.6628C45.5102 11.0846 45.2563 11.3008 44.841 11.3294C44.6834 11.3411 44.5376 11.332 44.3059 11.332Z" fill="white"/>
<path d="M11.1976 43.0919C10.7016 42.9383 10.2276 42.8315 9.78629 42.6427C9.69932 42.6064 9.62065 42.5528 9.55509 42.4851C9.48953 42.4174 9.43845 42.3371 9.40495 42.249C9.37145 42.1609 9.35624 42.067 9.36025 41.9728C9.36425 41.8787 9.38739 41.7863 9.42825 41.7014C9.46396 41.6141 9.51689 41.5349 9.58389 41.4686C9.65089 41.4022 9.7306 41.35 9.81822 41.3151C9.90584 41.2803 9.99958 41.2634 10.0939 41.2656C10.1881 41.2677 10.281 41.2889 10.367 41.3277C10.6311 41.4543 10.9203 41.5199 11.2132 41.5199C11.5061 41.5199 11.7953 41.4543 12.0595 41.3277C12.2339 41.2513 12.4315 41.2472 12.6089 41.3164C12.7862 41.3856 12.9289 41.5225 13.0054 41.6969C13.0818 41.8712 13.0859 42.0688 13.0167 42.2462C12.9475 42.4236 12.8106 42.5662 12.6363 42.6427C12.1702 42.8341 11.6806 42.9435 11.1976 43.0919Z" fill="white"/>
<path d="M14.7429 38.1602C14.7482 38.3865 14.7365 38.6128 14.7077 38.8372C14.6296 39.2343 14.3718 39.47 13.9552 39.4439C13.866 39.4452 13.7774 39.4285 13.6947 39.3948C13.6121 39.3611 13.5371 39.3111 13.4741 39.2478C13.4112 39.1845 13.3617 39.1092 13.3285 39.0264C13.2952 38.9435 13.279 38.8549 13.2808 38.7656C13.2599 38.3946 13.2625 38.0222 13.2808 37.6512C13.2977 37.1799 13.5685 36.9038 13.9916 36.8999C14.4148 36.896 14.6921 37.1707 14.7338 37.6329C14.7494 37.81 14.7338 37.9884 14.7338 38.1667L14.7429 38.1602Z" fill="white"/>
<path d="M9.17035 38.1666C9.16662 38.4081 9.14704 38.649 9.11175 38.8879C9.07463 39.053 8.97995 39.1995 8.84465 39.3011C8.70936 39.4027 8.5423 39.4528 8.37341 39.4425C8.20452 39.4321 8.04484 39.362 7.92296 39.2446C7.80108 39.1273 7.72495 38.9703 7.70825 38.802C7.68265 38.4149 7.67917 38.0268 7.69784 37.6393C7.71737 37.1628 7.98947 36.8946 8.41391 36.8933C8.83834 36.892 9.10655 37.1602 9.14821 37.6328C9.16383 37.8086 9.14821 37.987 9.14821 38.1653L9.17035 38.1666Z" fill="white"/>
</svg>
