<svg width="50" height="50" viewBox="0 0 50 50" fill="none" xmlns="http://www.w3.org/2000/svg">
<path d="M13.1851 41.5447H2.37117C1.79029 41.5447 1.59562 41.5447 1.59562 40.4164V37.7322C1.59562 37.5102 1.51337 37.2973 1.36695 37.1403C1.22053 36.9833 1.02194 36.8952 0.814874 36.8952C0.607807 36.8952 0.40922 36.9833 0.262801 37.1403C0.116382 37.2973 0.034125 37.5102 0.034125 37.7322V40.4164C-0.0247226 40.7728 -0.00728986 41.139 0.0851079 41.4872C0.177506 41.8354 0.342455 42.1565 0.567512 42.4264C0.792569 42.6963 1.07186 42.9078 1.3843 43.0451C1.69674 43.1824 2.03419 43.2418 2.37117 43.2188H13.1851C13.3921 43.2188 13.5907 43.1306 13.7371 42.9737C13.8836 42.8167 13.9658 42.6038 13.9658 42.3818C13.9658 42.1598 13.8836 41.9469 13.7371 41.7899C13.5907 41.6329 13.3921 41.5447 13.1851 41.5447ZM0.814874 35.0972C1.02194 35.0972 1.22053 35.009 1.36695 34.852C1.51337 34.695 1.59562 34.4821 1.59562 34.2601V6.59041L25.2263 6.63394V20.5904C25.2263 20.8124 25.3086 21.0253 25.455 21.1823C25.6014 21.3393 25.8 21.4275 26.0071 21.4275C26.2141 21.4275 26.4127 21.3393 26.5591 21.1823C26.7055 21.0253 26.7878 20.8124 26.7878 20.5904V6.63394C26.7917 6.18124 26.6277 5.74542 26.332 5.42228C26.0363 5.09915 25.6329 4.91514 25.2107 4.91072H2.2577L5.82833 1.67411H28.5221C28.8534 1.67411 29.1712 1.81521 29.4054 2.06638C29.6397 2.31754 29.7713 2.6582 29.7713 3.0134V20C29.7713 20.222 29.8536 20.4349 30 20.5919C30.1464 20.7489 30.345 20.8371 30.5521 20.8371C30.7591 20.8371 30.9577 20.7489 31.1041 20.5919C31.2505 20.4349 31.3328 20.222 31.3328 20V3.0134C31.3328 2.2142 31.0367 1.44773 30.5096 0.882604C29.9825 0.317482 29.2676 1.53412e-07 28.5221 1.53412e-07H5.54309C5.35864 -0.000119601 5.18012 0.0698745 5.03925 0.197545L0.401598 4.40961C0.29196 4.53016 0.20626 4.6733 0.149676 4.83037C0.0771965 4.95518 0.0372914 5.09856 0.034125 5.24555V34.2635C0.0349511 34.4849 0.117573 34.6969 0.263902 34.8532C0.410232 35.0094 0.608347 35.0972 0.814874 35.0972Z" fill="#92210F"/>
<path d="M28.2887 20.2913C28.4958 20.2913 28.6943 20.2031 28.8408 20.0461C28.9872 19.8891 29.0694 19.6762 29.0694 19.4542V4.9553C29.0686 4.29597 28.8242 3.66382 28.3898 3.19718C27.9553 2.73055 27.3661 2.46741 26.7511 2.46534L7.23656 2.42181C7.02949 2.42181 6.83091 2.51 6.68449 2.66698C6.53807 2.82396 6.45581 3.03687 6.45581 3.25887C6.45581 3.48087 6.53807 3.69378 6.68449 3.85076C6.83091 4.00773 7.02949 4.09592 7.23656 4.09592L26.7522 4.13945C26.9537 4.14004 27.1469 4.22622 27.2893 4.37913C27.4317 4.53203 27.5118 4.73921 27.5121 4.9553V19.4542C27.5121 19.6754 27.5938 19.8877 27.7393 20.0445C27.8848 20.2014 28.0823 20.2901 28.2887 20.2913ZM39.0422 36.2266C38.8351 36.2266 38.6366 36.3148 38.4901 36.4717C38.3437 36.6287 38.2615 36.8416 38.2615 37.0636V44.0234C38.2629 44.1868 38.2272 44.3481 38.1574 44.4933C37.7181 45.3918 35.6361 48.3259 27.3081 48.3259C18.9801 48.3259 16.8981 45.3951 16.4536 44.4955C16.3839 44.3507 16.3482 44.1898 16.3495 44.0268V37.4185C16.3495 37.1965 16.2672 36.9836 16.1208 36.8266C15.9744 36.6697 15.7758 36.5815 15.5687 36.5815C15.3616 36.5815 15.1631 36.6697 15.0166 36.8266C14.8702 36.9836 14.788 37.1965 14.788 37.4185V44.0234C14.7858 44.4578 14.8815 44.8862 15.067 45.2723C15.7686 46.6931 18.3555 50 27.3081 50C36.2607 50 38.8465 46.6964 39.5429 45.2768C39.7299 44.8908 39.8264 44.4618 39.824 44.0268V37.0636C39.824 36.9536 39.8038 36.8447 39.7645 36.743C39.7252 36.6414 39.6676 36.5491 39.595 36.4713C39.5223 36.3936 39.4361 36.332 39.3413 36.29C39.2465 36.248 39.1448 36.2264 39.0422 36.2266Z" fill="#92210F"/>
<path d="M49.4679 29.0612L28.8124 21.6639C28.6547 21.607 28.4839 21.607 28.3262 21.6639L5.05887 29.6617C4.90351 29.7165 4.7681 29.8222 4.6717 29.9638C4.5753 30.1055 4.52277 30.276 4.52151 30.4514C4.52024 30.6267 4.57031 30.7981 4.66465 30.9413C4.75899 31.0845 4.89287 31.1925 5.04742 31.2499L26.8043 39.1338C26.8848 39.163 26.9692 39.178 27.0541 39.1784C27.1436 39.1783 27.2323 39.1617 27.3165 39.1293L43.2864 33.0155V37.0333C42.7481 37.2076 42.2762 37.5626 41.9402 38.046C41.6042 38.5294 41.4218 39.1157 41.4199 39.7186V41.4061C41.4199 42.1544 41.6972 42.872 42.1907 43.4012C42.6842 43.9303 43.3536 44.2276 44.0516 44.2276C44.7495 44.2276 45.4189 43.9303 45.9124 43.4012C46.406 42.872 46.6832 42.1544 46.6832 41.4061V39.7164C46.6818 39.1189 46.5032 38.5375 46.1733 38.056C45.8434 37.5745 45.3793 37.2179 44.8479 37.0378V32.4173L49.4814 30.6438C49.6345 30.5853 49.7667 30.477 49.8596 30.3341C49.9525 30.1912 50.0016 30.0208 49.9999 29.8466C49.9981 29.6724 49.9458 29.5031 49.85 29.3623C49.7543 29.2215 49.62 29.1163 49.4658 29.0612H49.4679ZM45.1176 41.4061C45.1176 41.7104 45.0048 42.0022 44.8041 42.2174C44.6034 42.4326 44.3312 42.5534 44.0474 42.5534C43.7636 42.5534 43.4914 42.4326 43.2907 42.2174C43.09 42.0022 42.9773 41.7104 42.9773 41.4061V39.7164C42.9773 39.5657 43.0049 39.4165 43.0587 39.2773C43.1125 39.1381 43.1913 39.0116 43.2907 38.9051C43.3901 38.7986 43.508 38.7141 43.6379 38.6564C43.7677 38.5987 43.9069 38.5691 44.0474 38.5691C44.1879 38.5691 44.3271 38.5987 44.4569 38.6564C44.5868 38.7141 44.7047 38.7986 44.8041 38.9051C44.9035 39.0116 44.9823 39.1381 45.0361 39.2773C45.0899 39.4165 45.1176 39.5657 45.1176 39.7164V41.4061ZM43.9558 30.982L27.3904 29.0657C27.2872 29.0511 27.1822 29.0588 27.0818 29.0883C26.9814 29.1178 26.8875 29.1686 26.8057 29.2376C26.7238 29.3066 26.6557 29.3925 26.6053 29.4901C26.5548 29.5878 26.5231 29.6953 26.512 29.8063C26.5009 29.9172 26.5106 30.0295 26.5406 30.1364C26.5705 30.2433 26.6201 30.3427 26.6865 30.4288C26.7528 30.5148 26.8345 30.5858 26.9268 30.6375C27.0191 30.6892 27.1201 30.7205 27.2238 30.7298L40.5788 32.2744L27.0458 37.4574L7.79357 30.4798L28.5594 23.3369L46.83 29.8804L43.9558 30.982Z" fill="#92210F"/>
</svg>
