<svg width="50" height="50" viewBox="0 0 50 50" fill="none" xmlns="http://www.w3.org/2000/svg">
<path d="M31.0525 0L32.5256 0.18749C32.7083 0.212229 32.891 0.230457 33.0707 0.264309C33.6762 0.381491 34.0091 0.762981 33.9148 1.2265C33.8205 1.69002 33.3609 1.94521 32.7569 1.90224C31.5298 1.81371 30.2982 1.65747 29.074 1.68481C26.1286 1.76407 23.1994 2.10165 20.3294 2.69257C18.544 3.05192 16.7512 3.46336 15.0497 4.05057C11.5141 5.26795 9.39427 7.73397 7.97857 10.7325C7.67458 11.3599 7.43449 12.01 7.26115 12.6751C6.88641 14.1501 6.33632 15.586 5.62006 16.9588C5.10888 17.9483 5.17812 18.072 6.11062 18.7933C6.44746 19.0444 6.74473 19.3343 6.99451 19.6552C7.5219 20.3739 7.56756 21.1213 7.13004 21.9207C5.877 24.2048 4.35993 26.3681 2.60306 28.3761C1.69413 29.4177 1.60426 29.294 2.99786 30.0596C3.27776 30.2133 3.58712 30.3291 3.87144 30.475C5.3873 31.2419 5.84545 32.4645 5.13834 33.881C4.96156 34.2352 4.74354 34.5737 4.54908 34.9227C5.01165 35.2833 5.53756 35.5841 5.89259 35.9994C6.33453 36.5202 5.74528 36.9577 5.50369 37.4056C5.60239 37.4694 5.651 37.5111 5.72023 37.5423C7.29356 38.3326 7.78264 39.3078 7.35985 40.8885C7.15449 41.5844 7.18213 42.3181 7.4394 43.0004C7.79295 43.9118 8.56046 44.2854 9.63439 44.0641C13.5471 43.2569 17.3021 42.0147 21.0881 40.8546C22.0487 40.5791 22.9873 40.2468 23.8974 39.8599C24.5359 39.5748 25.112 39.1917 25.5989 38.7285C25.9186 38.4212 26.0511 37.9303 26.166 37.5006C26.3134 36.9655 26.6419 36.6635 27.209 36.7025C27.7291 36.7403 28.059 37.0931 28.0458 37.6217C28.0255 38.5275 27.602 39.3897 26.8673 40.0214C25.7447 41.0369 24.329 41.615 22.85 42.089C21.8836 42.3988 20.9069 42.684 19.8787 43.0004C20.0009 43.1423 20.0923 43.2608 20.1939 43.3649C21.4605 44.6998 22.4085 46.2472 22.9811 47.9142C23.0886 48.2214 23.2198 48.3477 23.6175 48.3464C30.4117 48.3126 37.2058 48.2883 44 48.2735C44.1267 48.2735 44.2534 48.2579 44.3918 48.2501C44.3918 48.1876 44.4007 48.1316 44.3771 48.0965C42.4988 45.4156 41.8344 42.4092 41.3896 39.3469C41.3664 39.2383 41.3683 39.1268 41.3953 39.0189C41.4222 38.911 41.4735 38.809 41.5462 38.7191C41.6189 38.6292 41.7113 38.5533 41.8181 38.4958C41.9249 38.4383 42.0437 38.4005 42.1674 38.3847C42.7051 38.3118 43.122 38.5982 43.2457 39.1412C43.5978 40.6841 43.8954 42.24 44.3064 43.7699C44.6706 45.1015 45.3082 46.3628 46.1876 47.491C46.4518 47.8428 46.6778 48.216 46.8623 48.6055C47.2468 49.3985 46.8623 49.9258 45.8856 49.9323C43.6759 49.9488 41.4662 49.9601 39.2564 49.9661C33.7695 49.9809 28.282 49.9922 22.794 50C21.8777 50 21.6803 49.8607 21.4255 49.0977C20.9526 47.6876 20.3265 46.3387 19.3631 45.124C19.2467 44.9768 19.1244 44.8349 18.9948 44.6969C17.9974 43.6253 17.8988 43.6305 16.4138 44.0459C14.3971 44.6018 12.345 45.0575 10.3385 45.6409C8.33212 46.2242 5.91027 45.4651 5.42708 42.8571C5.31416 42.136 5.32957 41.4036 5.47275 40.6867C5.66131 39.6216 5.651 39.4797 4.62569 38.9459C3.46779 38.3431 3.31312 37.9798 3.67109 36.8184C3.68213 36.7477 3.67458 36.6756 3.64903 36.6079C3.62349 36.5401 3.58063 36.4785 3.52378 36.4278C2.22299 35.4083 2.17437 35.1831 3.02143 33.8303C3.85376 32.4996 3.80367 32.3264 2.28485 31.6286C1.30374 31.1794 0.42132 30.6507 0 29.6912V29.0076C0.412481 28.3983 0.813176 27.7824 1.24186 27.1848C2.47489 25.4544 3.79483 23.767 4.93504 21.9897C5.73349 20.745 5.96625 20.9481 4.51078 19.7919C3.43538 18.9378 3.09214 17.8845 3.67256 16.7543C4.53729 15.0734 5.04995 13.3027 5.65836 11.5463C7.35838 6.64028 10.7864 3.14046 16.5272 1.79678C19.3439 1.13796 22.249 0.770793 25.1216 0.302068C26.0556 0.149732 27.0116 0.0976512 27.9589 0H31.0525Z" fill="#92210F"/>
<path d="M38.0131 0C38.5081 0.252591 38.7011 0.62627 38.6745 1.13406C38.6421 1.79939 38.6745 2.46602 38.6657 3.13265C38.6657 3.78366 38.2871 4.17426 37.7067 4.16515C37.1263 4.15603 36.7889 3.77454 36.7845 3.15869C36.7845 2.45951 36.8081 1.75902 36.7757 1.06244C36.7491 0.561169 36.9598 0.217437 37.4607 0H38.0131Z" fill="#92210F"/>
<path d="M41.5016 29.2954C42.9335 29.9217 43.4388 30.8578 43.3813 32.0765C43.3592 32.5479 43.3931 33.0218 43.3548 33.4905C43.2812 34.4019 42.7567 35.0673 41.8817 35.5412C41.7828 35.5963 41.6972 35.6681 41.63 35.7526C41.5627 35.8371 41.5151 35.9325 41.4898 36.0334C41.26 37.8666 39.722 39.1582 37.7318 39.1582C35.7416 39.1582 34.1624 37.8562 33.9635 36.0425C33.937 35.7912 33.8692 35.6519 33.5937 35.5217C32.7349 35.1311 32.1972 34.4866 32.1058 33.6442C32.0278 32.8823 32.0278 32.1158 32.1058 31.3539C32.1942 30.4672 32.6951 29.949 33.9296 29.2564C33.6055 28.8033 33.3565 28.2799 32.9352 27.9075C32.159 27.2146 31.3248 26.5743 30.4397 25.9922C24.7961 22.3231 23.7074 14.6074 28.395 9.80555C31.521 6.6039 35.5059 5.16778 40.2479 6.12866C45.1756 7.12731 48.4357 9.91623 49.5833 14.2637C50.8384 19.0199 49.2607 23.0562 44.825 26.1237C43.984 26.7024 43.1859 27.3283 42.4356 27.9973C42.0422 28.3476 41.8227 28.8332 41.5016 29.2954ZM38.6348 18.3155C38.6658 17.8351 38.6348 17.4041 38.7291 16.9953C39.0238 15.6711 40.3849 14.8587 41.9303 15.0423C43.3018 15.1998 44.3433 16.3104 44.3109 17.5825C44.288 18.2152 43.995 18.8167 43.4908 19.2662C42.9866 19.7157 42.3085 19.9799 41.5929 20.0055C41.2541 20.0225 40.9123 20.0055 40.6015 20.0055V27.1276C41.6518 26.3359 42.7169 25.4935 43.8306 24.7006C47.54 22.0588 48.7878 18.6488 47.7124 14.6139C46.6915 10.7795 42.7287 7.81217 38.542 7.52573C32.7422 7.13512 27.9015 11.2794 27.4198 16.0526C27.0412 19.8037 28.6115 22.8036 32.0955 25.0365C32.9956 25.612 33.7499 26.3672 34.5616 27.0481C34.6351 27.1373 34.6909 27.2368 34.7266 27.3424L34.8606 27.2343V20.0055C34.5498 20.0055 34.2714 20.0055 34.0018 20.0055C32.3386 19.9704 31.1174 18.8897 31.1321 17.4705C31.1329 16.8205 31.4245 16.197 31.9433 15.7363C32.4622 15.2755 33.1661 15.0148 33.9016 15.011C35.5073 14.9915 36.7389 16.0709 36.7816 17.5356C36.7816 17.7895 36.7816 18.0434 36.7816 18.3168L38.6348 18.3155ZM37.6802 30.8409C36.7787 30.8409 35.8786 30.8331 34.977 30.8409C34.3111 30.85 33.962 31.1573 33.9458 31.7523C33.9296 32.2549 33.9281 32.7601 33.9458 33.264C33.9664 33.8421 34.3303 34.1637 34.9947 34.1676C36.8155 34.178 38.6363 34.178 40.4571 34.1676C41.1009 34.1676 41.4515 33.859 41.478 33.2978C41.5016 32.777 41.5001 32.2562 41.478 31.7354C41.4559 31.1313 41.1245 30.8487 40.438 30.8422C39.5202 30.8331 38.5995 30.8409 37.6802 30.8409ZM36.8199 20.0068V29.1314H38.6304V20.0068H36.8199ZM35.8462 35.8563C35.9935 36.9265 36.8155 37.571 37.8762 37.4916C38.3405 37.4641 38.7746 37.2782 39.0866 36.973C39.3986 36.6678 39.5641 36.2674 39.5482 35.8563H35.8462ZM40.5602 18.3598C41.0022 18.3351 41.3778 18.3507 41.7299 18.2856C41.9567 18.2405 42.155 18.12 42.284 17.9491C42.4129 17.7782 42.4624 17.57 42.4223 17.3677C42.3855 17.174 42.2716 16.9983 42.1011 16.8722C41.9307 16.7462 41.715 16.6781 41.4927 16.6802C41.2606 16.6729 41.0343 16.7455 40.8615 16.8827C40.6886 17.0199 40.5828 17.211 40.5661 17.4158C40.5337 17.7075 40.5573 17.9926 40.5573 18.3585L40.5602 18.3598ZM34.8768 18.3194C34.8984 18.005 34.8955 17.6896 34.868 17.3755C34.8552 17.2698 34.8181 17.1675 34.759 17.075C34.6999 16.9824 34.6201 16.9015 34.5243 16.8371C34.4286 16.7728 34.3191 16.7264 34.2024 16.7007C34.0857 16.6751 33.9643 16.6708 33.8456 16.688C33.6315 16.6961 33.4287 16.7752 33.2777 16.9097C33.1267 17.0441 33.0386 17.2239 33.031 17.4132C33.0121 17.5183 33.0178 17.6257 33.0475 17.7288C33.0773 17.8318 33.1306 17.9285 33.2041 18.0127C33.2776 18.097 33.3698 18.167 33.4751 18.2187C33.5803 18.2703 33.6964 18.3024 33.8162 18.3129C34.1682 18.3355 34.5215 18.3377 34.8739 18.3194H34.8768Z" fill="#92210F"/>
<path d="M8.68412 14.5825C9.11575 12.4811 9.90241 10.5124 11.3211 8.75342C12.8723 6.83034 14.9745 5.639 17.5083 4.98539C17.9723 4.8656 18.3922 4.89555 18.6868 5.26532C19.1007 5.7718 18.8179 6.37724 18.0548 6.56733C16.6406 6.9306 15.3324 7.47874 14.2379 8.3511C12.4465 9.78331 11.4153 11.6061 10.8349 13.6529C10.7185 14.0617 10.6346 14.4797 10.4931 14.882C10.4297 15.0808 10.2807 15.2497 10.078 15.3524C9.87524 15.4551 9.63503 15.4835 9.4089 15.4315C9.19296 15.3903 9.00095 15.282 8.8679 15.1261C8.73484 14.9703 8.66962 14.7774 8.68412 14.5825Z" fill="#92210F"/>
<path d="M28.071 7.31348C27.8795 7.52701 27.7218 7.85382 27.4581 7.95017C27.1944 8.04651 26.7054 8.03219 26.5021 7.87725C25.733 7.27367 25.0008 6.63435 24.3085 5.96199C23.9609 5.62997 24.0375 5.16515 24.394 4.86309C24.5498 4.72091 24.7609 4.63632 24.9846 4.62641C25.2083 4.6165 25.4279 4.68201 25.599 4.8097C26.3518 5.42816 27.0722 6.08047 27.7822 6.73538C27.9104 6.85387 27.9443 7.05047 28.071 7.31348Z" fill="#92210F"/>
<path d="M21.1648 17.4886C20.7051 17.4886 20.244 17.5029 19.7859 17.4886C19.5478 17.4808 19.3221 17.3926 19.1554 17.2422C18.9887 17.0917 18.8935 16.8905 18.8895 16.68C18.8856 16.4694 18.9731 16.2655 19.1341 16.1103C19.2951 15.9551 19.5173 15.8603 19.755 15.8455C20.7287 15.8168 21.7054 15.8168 22.6792 15.8455C22.8001 15.8465 22.9194 15.8692 23.0301 15.9122C23.1408 15.9553 23.2405 16.0176 23.3231 16.0957C23.4057 16.1737 23.4696 16.2657 23.5108 16.3661C23.5521 16.4666 23.5698 16.5734 23.563 16.6801C23.5557 17.1553 23.1918 17.4756 22.604 17.4925C22.1267 17.5055 21.648 17.4925 21.1692 17.4925L21.1648 17.4886Z" fill="#92210F"/>
<path d="M8.46471 18.3336C8.21488 18.3219 7.97986 18.2252 7.80881 18.0639C7.63776 17.9025 7.54393 17.6889 7.54695 17.4678C7.55352 17.3589 7.5844 17.2523 7.63779 17.154C7.69118 17.0558 7.76603 16.9678 7.85804 16.8952C7.95005 16.8226 8.05739 16.7668 8.1739 16.731C8.2904 16.6952 8.41377 16.6801 8.5369 16.6866C8.65663 16.6884 8.77476 16.7114 8.88434 16.754C8.99393 16.7967 9.09277 16.8583 9.17509 16.9352C9.2574 17.0121 9.32154 17.1027 9.36373 17.2017C9.40592 17.3008 9.42531 17.4063 9.42078 17.5121C9.41925 17.6216 9.39328 17.7297 9.34436 17.8303C9.29544 17.9309 9.22454 18.022 9.13572 18.0983C9.0469 18.1746 8.94191 18.2347 8.82676 18.2751C8.71161 18.3155 8.58858 18.3354 8.46471 18.3336Z" fill="#92210F"/>
</svg>
