<svg width="49" height="35" viewBox="0 0 49 35" fill="none" xmlns="http://www.w3.org/2000/svg">
<path d="M48.9887 12.3351C49.0988 9.0965 48.402 5.88214 46.9632 2.99047C45.9869 1.80395 44.6321 1.00323 43.1347 0.727848C36.9413 0.156593 30.7222 -0.0775459 24.5042 0.0264349C18.3088 -0.0822653 12.1121 0.144318 5.94043 0.705222C4.72025 0.930843 3.59107 1.51262 2.69066 2.37956C0.687383 4.25754 0.464797 7.47046 0.24221 10.1856C-0.0807366 15.0674 -0.0807366 19.9656 0.24221 24.8474C0.306605 26.3756 0.530446 27.8925 0.90997 29.3726C1.17835 30.5154 1.72135 31.5727 2.49034 32.4498C3.39686 33.3627 4.55235 33.9775 5.80688 34.2147C10.6057 34.8168 15.4409 35.0663 20.275 34.9613C28.0656 35.0744 34.899 34.9613 42.9789 34.3278C44.2642 34.1052 45.4522 33.4896 46.3844 32.5629C47.0076 31.9292 47.4731 31.1535 47.7422 30.3003C48.5383 27.8174 48.9292 25.2187 48.8997 22.6074C48.9887 21.3403 48.9887 13.6927 48.9887 12.3351ZM19.4737 23.965V9.95935L32.6508 16.9961C28.9559 19.0777 24.0813 21.4308 19.4737 23.965Z" fill="#FF0000" fill-opacity="0.8"/>
</svg>
